<?xml version="1.0" encoding="utf-8"?>
<!-- Generator: Adobe Illustrator 27.2.0, SVG Export Plug-In . SVG Version: 6.00 Build 0)  -->
<svg version="1.1" id="Layer_1" xmlns="http://www.w3.org/2000/svg" xmlns:xlink="http://www.w3.org/1999/xlink" x="0px" y="0px"
	 viewBox="0 0 33.6 51" style="enable-background:new 0 0 33.6 51;" xml:space="preserve">
<style type="text/css">
	.st0{fill:#D9D9D9;filter:url(#Adobe_OpacityMaskFilter);}
	.st1{mask:url(#mask0_5_119539_00000025425160888429138330000017889231763790894754_);}
	.st2{opacity:0.43;fill:#BEBEC0;enable-background:new    ;}
	.st3{fill:#FFFFFF;}
	.st4{fill:#1A73E8;}
</style>
<defs>
	<filter id="Adobe_OpacityMaskFilter" filterUnits="userSpaceOnUse" x="0" y="0" width="33.6" height="51">
		<feColorMatrix  type="matrix" values="1 0 0 0 0  0 1 0 0 0  0 0 1 0 0  0 0 0 1 0"/>
	</filter>
</defs>
<mask maskUnits="userSpaceOnUse" x="0" y="0" width="33.6" height="51" id="mask0_5_119539_00000025425160888429138330000017889231763790894754_">
	<circle class="st0" cx="16.2" cy="21.4" r="30.8"/>
</mask>
<g class="st1">
	<path class="st2" d="M32.3,17.7C32.1,9.5,25.2,5,16.8,5S1.6,9.5,1.3,17.7c-0.7,0-1.3,1-1.3,2.2c0,1.2,1.2,2.7,1.9,2.7c0,0,0,0,0,0
		c1.4,4.9,5.2,8.7,10,10.3c-0.8,1.8-1.7,3.9-1.7,4.5c1.9,0,4.3,6.9,6.1,6.9c1.7,0,5.2-6.9,7.1-6.9c0-0.6-0.9-2.8-1.7-4.5
		c4.8-1.6,8.5-5.4,10-10.3c0,0,0,0,0,0c0.8,0,1.9-1.4,1.9-2.7C33.6,18.7,33,17.7,32.3,17.7L32.3,17.7z"/>
	<path class="st3" d="M26.9,7.8c-1.7-2-5.2-3.6-9.7-3.6C11,4.2,4.3,3.3,3,0C2.3,2.1,3.4,6.7,4.6,9.6c-2,2.1-3.3,5-3.3,8.6
		c0,0.9,0.1,1.8,0.2,2.6c0.5-2.3,1.7-4.7,4.7-6.6c2.8,1,6.5,1.6,10.6,1.6s7.8-0.6,10.6-1.6c3,2,4.3,4.3,4.7,6.6
		c0.2-0.9,0.2-1.7,0.2-2.6C32.3,13.5,30.2,10,26.9,7.8L26.9,7.8z"/>
	<path class="st4" d="M24.7,37.4c-0.6-0.8-1.2-1.3-1.7-1.5c-0.7,0.1-3.4,3.6-3.4,3.6l-2.7,2.7l-3-3.1c0,0-2.5-3.2-3.1-3.3
		c-0.4,0.2-1,0.7-1.7,1.5c-4.6,0.9-7.7,2.6-7.7,4.5V51h31v-9.1C32.3,40,29.2,38.3,24.7,37.4z"/>
</g>
</svg>
