<svg xmlns="http://www.w3.org/2000/svg" viewBox="0 0 59.7 59.7" xmlns:v="https://vecta.io/nano"><path fill="#448aff" d="M.6.3h58.5v58.5H.6z"/><g fill="#1a73e8"><path d="M30 6.4c.3 0 .5 0 .6-.2l.2-.3h.4l-.2-.4c.2 0 .3.4.7 0l-.5-.8c-.1-.3-.3-.5-.3-.8s-.1-.5-.4-.6c-.3 0-.7-.1-.9.3l.5.6c0 .3-.3.3-.5.4l-.1-.2c-.3 0-.4.2-.5.4V5h-.1l-.2.7-.7-.5c0-.3-.1-.5-.4-.5h-.4v.5l-.4.7c.5.4.8 1 1.6 1l.4-.6.5.2-.2.1c0 .4.1.6.5.8.2-.3.5-.5.4-.9zm-4.3-4.9c.3 0 .6-.1.8-.4L27 1h.3-2.6l.4.5c.2.2.4 0 .7 0zM27 2.8l1.3.7c.5.2.7-.4 1.3-.3l-1-1H28l-.8.2c0-.4.4-.5.4-.8-.4-.2-.8-.3-1.2 0 0 .2-.3.2-.4.3.3.8.5 1 1.2 1zm-5 3.8c.2 0 .4 0 .5-.3l.1-.2H24V4.7h-.6l-.4-.4-.8 1.5H22l-.3.4c0 .2.2.3.4.4zm7 2.5c-.4 0-.8-.2-.9-.8 0-.3-.2-.5-.6-.4 0 .1-.1.3 0 .4l-.4.2c0 .3.1.5.4.7l.3-.4.1.1v.6l.4.2-.2.7c.8.3.8.3 1.4-.4l-.3-.2-.3-.2.7-.3L29 9zM16 4.9c.5-.2.8-.5.7-1-.2-.5-.1-1-.2-1.5-.6-.2-.6.3-.8.6l.6.3c-.5.4-.8 1-.4 1.6zm21.8 16.9l.5-.4h-.4l.1-.6c0-.2-.1-.3-.3-.3l-.1-.4-.7-.4c-.3.3-.2.6-.1.8l.5.2v.6h-.1v.7h-.6c0 .5.3.8.8 1 .4-.3 0-.5 0-.9.2 0 .3-.2.4-.3zm-7.8-6c.2-.2.2-.5.1-1-1.2.2-1.4.4-1 1.3.4.2.7 0 1-.3zm.8 3.2c.4-.2 0-.7.3-1-1.3.1-1.4.3-1.1 1.3.3.1.6 0 .8-.2zM21.4 7.5l.4-.4h-.4c0-.5-.2-.9-.3-1.3l-.6-.3c-.4.2-.2.5-.2.8l.8.2-.3.6.5.5zm3.3-4.7l.2.4.1-.3h.3v-.7c-.8-.6-.6-.6-1.3-.3 0 .7.1.8.7 1zM21 4.4l1.1-1.2c0-.4-.4-.4-.7-.5-.7.8-.8 1-.3 1.7zm-5.9 2.9c.8-.5.8-1 0-1.4-.7.8-.6 1 0 1.4zm5.5-4l.2-.6h-.6c-.2-.3 0-.7-.5-.6v1.3l.9-.1z"/><path d="M29.2 1.4c0-.3-.2-.4-.6-.4-.3 0-.6.3-.4.7 0 .2.3.4.5.6.5-.3.6-.5.5-.9zM54.6 26zM26.9 3.7l.4.4c.1.1.3 0 .4-.2 0-.3 0-.5-.2-.5-.4 0-.5-.4-.7-.6 0 .2-.3.3-.2.4v.2l-.5-.1h-.5s-.2.3-.1.4.2.3.4.3h.7l.3-.3zm22.8 21.1c.2.3.4.4.7.4v.2c.5-.3.5-.3.2-.6v-1c-.7 0-.5.8-.9 1zM12.6 2c-.5.4-.7.8-.4 1.5.8-.3.9-.7.4-1.5zM26 9.2c.1.1.3 0 .4-.3-.5-.2-.6-1-1.3-1 0 .7.5 1 .9 1.3zm21.3 15l.6.1.1.4.8.1c.1-.9 0-1-1-.9v-.4l-.2.2-.1-.3c-.5.1-.7.4-.6 1l.4-.2zm5.1 1.1q-.4.7.2 1c.6-.4.6-.6-.2-1zM21 1.8v-.4l-.4-.5h-.4c-.2.1-.3.4-.4.6.4.4.8-.1 1.2.2zM18.1 4c.1-.3-.2-.4-.4-.6q-.6.5-.1 1c.3 0 .5 0 .5-.3zm23.2 15.4s-.2.3-.1.4c0 .2.2.3.4.3s.3-.2.3-.4V19c-.2.2-.2.5-.6.5zm6.2 2.8c-.4 0-.7 0-.8.2l-.6-.3q.2.4.1.8c.2 0 .2-.1.3-.2v.1c.6.3.8.2 1-.6zM30.2 2s.2 0 .3-.2v-.5c-.2-.2-.4-.1-.6 0l-.4.1c-.2.2-.2.4 0 .6.1.3.4.1.7 0zm1.3 11l-.8.1-.2.4.2.2c.2.1.3 0 .3-.1 0 0 .2-.1.2 0 .4 0 .2-.3.4-.4v-.1zm1.9-.6c.5 0 .5-.4.7-.6-.3-.3-.6-.3-.9-.2l.2.8zM22.1 1.7c.3-.2.2-.5.2-.8h-.7c-.1.5.3.6.5.8zM27 7c.2 0 .4 0 .6-.2l-.4-.3h-.4s-.1.3 0 .4l.3.2zm-2.2 4c.2.3.4.5.6.5v.5c.6 0 .7-.1.6-.4l-.1-.2.4-.6q-.9-.5-1.5.2zm4-3.6c-.2 0-.4 0-.5.2 0 .2.2.4.4.4l.7-.2-.6-.4zM17 8.3v.2c.1.2.4 0 .5-.2v-.2c-.1-.2-.4-.1-.6.2zM30.7 10h.8l-.2-.7-.6.6zm.4 5.5c.2.2.4 0 .4-.1v-.5l-.4.2.1-.2s-.1-.1-.1 0l-.2.2h.1l.1.4zm-5.3-9.4v.2l.1.1c.3 0 .5-.2.6-.5-.4-.2-.6 0-.8.2zM24 4c-.1.4.2.5.5.7.1-.5-.1-.6-.4-.8zm11 17.5q.5 0 .5-.6a.9.9 0 0 0-.6.6zM23.1 1h.2-.2zm-8.2 3.5c-.3.1-.4.4-.4.7.5-.2.6-.4.4-.7zm8.3-2.2q-.4.2-.3.6l.3-.6zm20.1 19.5h.5c.1 0 .2 0 .3-.2l-.3-.1-.6.3zm5.1 1.2q0 .4.4.7c0-.3 0-.7-.4-.7zM25 9c-.2-.3-.4-.3-.7 0 .3.2.5.2.7 0zm15.4 6.3c.3-.5 0-.5-.3-.6l-.2.4.5.2zm-.3-.6zM29.8 8.6q.2 0 .4-.4l-.5-.4q.2.5 0 .9zm1.6-7.1zm.1.6l-.1-.6-.4.2.5.4zM41.6 13l.2.7.2-.1c0-.3-.1-.5-.4-.6zM28.9 8.5v.2l.4.1v-.3h-.4zm-5.7.1h.3l.4-.1c-.3-.3-.5-.2-.7.1zm10.6 7.7l-.1.2.1.4q.2-.3 0-.6zm7.7 4.3l.4.3q0-.4-.4-.3zM33 17v-.4c-.6 0-.6.4-.9.7l.6.3-.5.7-.3.3c0 .2 0 .6.2.7l.8-.1v-.3c.2-.2.3-.4.2-.7-.2-.4-.1-.7-.1-1.1l.3.4c.3-.3 0-.4-.3-.4zM14.7 1h-.1zm27.7 18.9c.2.2.4.2.6.2-.1-.2-.3-.3-.6-.2zm.6.2zM22.3 4.2v-.3H22v.3h.3zM34.4 13h.2v-.3h-.3v.3zm23.7.2c-.2 0-.2.2 0 .4l.2-.3-.2-.1zm.4.8c-.1 0-.3-.1-.5.1h.5zm0 .1zm.3 18.9v-4.6l-1 .2c-.4.5.4 1 0 1.6l-.4-.1-.4.5-.8-.5c-.3.2 0 .6-.3.8l-.3.2c-.2 0-.3-.2-.5-.4l.4-.2c.2-.1.2-.3 0-.4l-.6-.3h.7c.1-.7.1-.7-.4-.8l-.6-.2.2.2c.3.2.2.4 0 .6 0 0-.3.1-.4 0a1 1 0 0 0-.9 0h-.1c-.5-.3-.7-.2-.8.3l-.2.2c0 .5-.4.8-.4 1.4l1 .1-.2-.4q.5-.3.1-1.1l.6-.1c.3.8.5 1 1.3.7l.8 1 1.5-.4c0 .4-.2.6-.3 1l.7.4c.5-.1.9-.4 1-1 .2.2.3.3.2.4a1 1 0 0 0 .1.9z"/><path d="m43.2 21.2.3.2.4-.2c.2 0 .3 0 .5-.2l.5.1V21l.1.2 1-.4h.1c.3-.2.6 0 .9-.2l.6-.2.3-.4-.5-.1v-.2c.2 0 .4.4.7 0l-.2-.3.3-.3v.3h.7v.6l-.6.3c-.2 0-.4 0-.5.2l-.1-.1c-.1.5-.1.5-.6.9l.6-.1.2-.2v.2l.2-.3h.4v.4c.3-.1.6-.1.8 0H49l.4.4q-.3.8.2 1.2c0 .2-.2.4-.4.6.5.2.6.1.7-.5.6 0 1-.6 1.7-.5l.2-.2v.4h.1v.7l.6.2v.2c0 .3.2.5.5.5l.3-.1c.2.5 0 .8 0 1.1-.2.4-.2.8.2 1H53l-.2.6-.3-.5-.3.5c.6.2 1 .4 1.3 1l-.3.4c-.4.1-.4 0-.4.6l.6.3.2-.1v-.5h.7c.1-.5.2-1 0-1.3v-.6L55 28h.4c.8.3 1 .2 1.5-.4.2-.2.4-.4.4-.6l.1-.3.4-.2.3.1c.2 0 .5 0 .6-.4-.2-.1-.2-.4-.4-.6.2 0 .3-.2.3-.4l.2.1V24l-.1.2v-.4l.1-.1v-2.5c-.5.1-1.1-.2-1.6.2l-.8.6-.1-.4-.4.4h-.1l-.1-.5-.2-.3c.4 0 .7.2 1 .4v-.5l.5-.2c0 .1.1.2.3.2 0-.2-.2-.2-.3-.3l-.5-.4-.2.2.1-.5.7.5c-.1-.3.2-.4.3-.6.3 1 .4 1 1 .7l-.1-.5.2.3c.3-.5 0-.7-.2-1-.3.1-.6 0-1-.1l.1-.3c.2 0 .3.1.3.2.1.3.5.2.6 0l.5-.2v-6.3.5l-.3.8.2.2v.1c0 .4-.4.7-.4 1l-.1.1-.1-.1-.1-.1v-.4l.1-.3c-.1-.6-.6-.4-1-.5l.4-.6.2-.3-.4-.5h.8l.4-.3-.8-.2-.1-.7-.4.2-.2-.7v-.1c.3.1.5 0 .6-.2h.2l.5.7a33.4 33.4 0 0 1 .3-1l.2-.2v.5h.1V8.2l-.1.2-.2-.4.3-.3V2.8c-.3-.3-.3-.6-.3-1 0 .2.2.3.3.4V1h-5.4c-.2.2-.3.6-.7.5l-.8-.4h-6.3.2H42v.2h-.2l-.2-.3H39l.2.5-.1.1-.2-.1-.4-.5h-.3v1l.3.5-.3.3.7.4h.1v.1h.5l.3-.3.2-.1c.4-.2.7-.5.7-1 .5 0 .4.4.5.7-.2 0-.6 0-.6.4l-.2.2c0 .3.2.4.6.3l.3.2-.2.4-.7-.2-.2-.4-.8.8-.3.1c0 .5 0 .7.5.8.1.2.2.2.4 0l.4.2-.2.4.4-.2.2.4h.3l.2.6v.3l-.5.2-.3.4-1 .7-.3-.9c0-.2-.1-.4-.4-.5-.2 0-.3 0-.5.2v-.1c-.2-.2-.4-.2-.5 0-.2.1-.2.3 0 .5l.5.5.1-.2h.2c.4.2.5.5.7.8l-.4.6v-.7l-.4-.2h-.1v.1l-.9.2v.4l.2.2.8-.3.3.4c-.3.1-.4.3-.6.5v.1l-.1-.1-.2.3-.3.1v-.5H37c0 .1-.2.3-.1.4l-.3.8c0 .2 0 .4.2.5-.1.3-.1.6.3.9l-.6.5-.4-.5-.2.5c.5.2 1 .4 1.2 1v.3h-.2c-.4.2-.4.2-.4.7l.6.3.2-.1v-.3c.3.2.5.4 1 .2l-.3-.3c0-.1.2-.3.1-.4V14c0-.4 0-.7-.2-1l.2-.1.5 1s.2-.1.4 0h.4l.4.8.6-.7v.1c-.4.3-.4.3-.2.6l.4-.3.5.8c0 .3.2.5.3.7v.1l-.4-.1-.3.3h-.2v.2l-.8-.4c-.2.1 0 .5-.2.7l-.2.1-.2.1-.4-.3.4-.2c.2-.2.2-.3 0-.5h-.3v-.3h.4c.1-.7.1-.7-.5-.8l-.5-.1.2.2c.1.1.1.2 0 .4h-.3v.2h-.2a1 1 0 0 0-.7-.1l-.4-.2-.2.1c-.3 0-.4.1-.5.5l-.2.1c0 .5-.4.9-.3 1.4l.5.1v.4h.4l-.3.2.1.5c0 .2 0 .4.4.5l.3.3.3.1v-.5a135 135 0 0 1 1.2-1.4c0-.3-.3-.4-.7-.4l-.3.4-.2-.2h-.1l.1-.3h-.7c.3-.2.2-.4 0-1h.6c.2.7.4.7 1.2.6l.8 1 1.5-.4-.3 1 .7.4c.4-.1.7-.3.8-.6l.4.4c0 .4.3.7.8 1 .3-.2.8-.3.7-.9 0-.2-.4-.2-.5-.4l.2-.2h.3c.2 0 .3-.2.5-.3l.5.3c.3.1.5 0 .8-.2l.3.5h.4l.3.3c-.1.5-.5.4-.8.5l-.6-.6-.8 1a1 1 0 0 0-.6 0l-.5.8.7.7v.2l-.4-.2-.2-.1h.2c-.1-.3-.4-.4-.6-.6l-.1.3v-.2c-.3-.2-.5 0-.7.2v.5l.5-.3.1-.2v.1c.1.3.2.3.4.3v.4Zm14.6 1.7.3-.1.6-.1h.1c0 .3 0 .4-.2.5H58V23h-.3v-.1Zm-.4 1 .6-.3.1.1.3.3c-.3-.2-.8.5-1.1-.1h.1Zm.4-4h-.3v-.2l.3.1Zm-19.3-8c0-.2-.3-.4-.6-.5l.1-.8c.2.1.2.4.6.4l.3.1h-.1l.5.5c-.3 0-.5 0-.8.3Zm1.4 0-.7-.3.5-.2-.5-.4c.1-.1.2-.3.5-.2l.5.5-.3.6Zm.3-2.3.1-.2.1.3h-.2Zm8.3 2.8c-.4-.2-.8 0-1-.5l.3-.5c.1.4.3.6.8.6l.2.3v.5c-.4 0-.3-.2-.3-.4Zm-1.3 1.3c.2-.1.4-.1.4 0l-.2.2.3.4v.5H47v-1.1ZM47 10l.5-.4v.6h-.3l-.2-.3Zm1.1-3.8.7.3h-.9l.2-.3Zm-.2-2V4l.2.4H48v-.2Zm.9 8.9Zm.5 1.5v-.2h.1v.2H49l.2-.1Zm-.2-1.3.2.2v.2l-.2-.4Zm.1 2.9.1-.3.2.3h-.3Zm2.2 5.2-.6-.3-.1.1H50l-.1-.5c.5 0 .6 0 .6-.4h.4c.1.3.3.6.6.7v.4Zm.4-.8h.3-.3Zm.6-1.2v.3l-.4-.2-.3-.1v-.1c.1 0 .3 0 .3-.3-.3-.3-.4-.4-.4-.6 0 .2.3.4.5.6.3.1.4.3.3.5Zm-.7-3 .1.1Zm.3 1.4Zm.6-1.5.2.4-.2-.4Zm0-1.5-.3-.4h-.8l.3-.4c.2-.1.2-.3.2-.4l.7.2v-.1h.5c.3 0 .4-.2.3-.5l-.4-.2.2-.5h.3c0 .3 0 .5.3.7V13l.2.5c-.3.3-.4.5-.3.7l-.4.1-.1-.5-.5.7-.3.3Zm-.6-1.6V13v.3l.1.2v-.1Zm.8-3.3a5 5 0 0 1-.3-.5h.2l.2.4v.1Zm2.2 6.8-1.2-.3-.4.3v-.5c.5-.1.5-.2.8-.6.2.2.5.3.7 0l.2-.5h.2v.1l.1.6-.3.6-.1.3Zm.1.6-.1.2h-.3v-.4l.4.2ZM53.2 15c.2 0 .2-.1.4-.4v.4l.3.4c-.1 0-.3 0-.4-.2l-.3-.2Zm1.3-.7v.3H54v-.2h.4Zm-.3 0 .3-.5.2.1c-.3 0-.4.3-.5.5Zm.1-2.3.1.3a4 4 0 0 1-.8-.1c.2-.3 0-.5 0-.7.2 0 .4-.2.7 0h.1l.3.3.2.2h-.6Zm-.5.6v-.1ZM53 17v-.2l.1.3-.1-.1Zm.2 1.4-.1-.4c.2-.2.5-.2.4-.5h.2c.6.1.6.1.5.7v.4l.7.8v.3h.1v.4c-.2-.1-.4-.2-.5.1v.7c-.4-.5-1-.8-.9-1.4l.3-.2v.5c.5-.7.5-.8 0-1.2h-.3c-.2.1-.4 0-.4-.2Zm0 4.1c.1-.3 0-.6.3-.9q.2.7-.3 1Zm.4 1.4v-1h.3v.3l.2.2q.7-.2 1.2-.7a1 1 0 0 0-.8 0V22c0-.3-.3-.6-.2-1h.4l-.1.3c-.1.3 0 .5.4.6.2 0 .3.2.5.4v.7l-.4.3a1 1 0 0 0-.5.6c-.1.2-.4.3-.7.3v-.5h-.3Zm.5 1.5-.2-.2v-.5c.1.2.3.2.5.3l-.3.4Zm2.7-1.3q-.4-.1-.4-.5.3 0 .4.5Zm-.8 1h.1l.5.6-.3.5h-.1c-.5-.3-1-.3-1.3.1l-.1.1-.2-.2-.3.2V26h.7c.2-.3 0-.5-.2-.7h.1l.5.2c.2-.1.3-.5.6-.4Zm-.6-10.9h-.3c0-.4.2-.6.5-.7l.3.1-.4.6Zm.3 4.3V18h.2l.1.4h-.3Zm.2-11v-.3l.4-.3.1.3-.1.2-.4.2Zm.3 10.9.5-.3-.5.3Zm1.2-.4v-.2l.3.2-.2.4-.8-.3h.7Zm-.6-7-.3-.1-.2-.3.4-.4-.1.2.4.2c-.1 0-.2.1-.2.4ZM58 5q-.3-.2 0-.6V5Zm-.8-2.7.1-.1V2c.2-.1.4-.3.5-.6v-.1.1l.1.4v.5c-.3 0-.5 0-.6.2l-.2-.2.1-.1Zm.4 6 .2.1v.2H57c-.2 0-.4-.2-.6-.4l.2-.3c.3.2.6.4 1 .4Zm-1-2.8v.8h-.3c-.2-.3.1-.5.3-.8Zm-.9-2 .4.6q-.4-.3-.4-.5Zm.2 4.6.2.4-.5-.2.3-.2Zm-.3 3.5.2.2.1.3-.6.1-.2-.3c.2.1.3 0 .5-.3ZM54 5.3h.1c.6 0 .9-.5.6-1l.5-.1c0 .6-.2 1-.6 1.2-.2.2-.4 0-.7 0v-.1ZM53.4 1l.4.1-.4.2V1ZM53 6.6l.3.1.5.3v.3l-.3.6.9.6V9h-.6c-.3-.2-.4-.6-.8-.7l.1-.9s0-.2-.2-.3l-.6.3c0-.6.5-.5.7-.8Zm-.5-3.1Zm-.6-.9.8.3h.2l-.5.4c-.2 0-.3-.2-.4-.3l-.2-.2.1-.2Zm.3 5.1.1.5L52 8a3.3 3.3 0 0 1 0-.3Zm-.6 4.5c.2-.3.6-.4 1-.3-.6-.4-.6-.6-.2-1l-.2-.2.3-.3v.1l-.1.3c.1.3.4.4.5.6-.3.4-.3.7 0 1-.1 0-.2 0-.3.2l-.2-.4h-.6v.1a5 5 0 0 0-.3.2v-.3Zm-.4 6c.3 0 .5.2.4.4H51c-.1.1-.3.2-.4 0l.3-.3h.2ZM51 8.1l-.1.1-.1.2c-.4 0-.6.4-1 .7l.3-1c.2.2.6-.1 1 0Zm-1.1-5.3c0-.3.4-.4.6-.5l.1-.1h.1l-.2.6-.1-.1-.2.1h.1l-.5.3v-.3Zm-.3 2 .1-.1.2.2-.3.5-.1-.2.2-.2-.1-.3Zm0 1.6c.5.5.4 1-.1 1.3-.3-.3-.3-.6-.4-1h.3c0-.2.2-.2.3-.3Zm-1.1-5c.2 0 .4-.1.5-.4.2 0 .3.2.3.5-.2 0-.4 0-.6.3l-.3.2-.2.2v-.6H48l.5-.1ZM48 2.8v1.1c-.5-.3-.5-.5 0-1.1Zm-1.2 4.7.7.1.2-.6.4.1-.4 1.8-.1.1a3 3 0 0 0-.4-1.2l-.1.4.1.4v.3l-.3-.2.2.5-.4.1.1-1.8Zm0 8.7c0-.1.1-.2 0-.4h.4v.5h-.5Zm-1.5-2.5-.1-.2-.1-.3c.2-.1.3-.4.3-.6.2 0 .3 0 .5-.2l.5.5c-.3.2-.5.5-.8.6l-.3.2Zm0 .8h-.2l.1-.2.1.2Zm0-4.4c0-.2 0-.3.2-.4v.4h-.2Zm.3-7.8c.2.2.2.3 0 .5v-.5ZM45 3.6l-.2.1v-.4l.2.3Zm-.2.3.5.5.7-.2.3.3-.3.3h-.8l.1.2-.1.2h-.1v-.4l.2-.4-.5-.2v-.3ZM45 6v-.2l.2-.3.2.2c-.2.4 0 .6.4.9l.6.2-.3.7-.3-.1-.4-.1h-.3l-.2-.2h-.2c.4-.2.6-.6.4-1Zm-1-3.9V3v-.1l-.2-.7h.2Zm0 7.9.6.2h.4v.2c-.2.1-.4.2-.7.1l-.1-.3-.4.3-.3.2-.1.5-.4-.4v-.5c.5.2.7-.2 1-.3Zm.2 5.2v-.6c.4.2.2.4 0 .6Zm-.9-6.4h.4V9l-.4.3v-.5ZM41.8 5c.2-.3.5-.2.8-.4l-.1.3.2.2-.4.2c-.3 0-.5 0-.7-.2h.2Zm.4 1.9h-.4l.1-.6.5.1v.2h-.2V7Zm-.8 1.7.2-.1c.4 0 .8 0 1-.6 0-.1.2-.3.4 0v.5c-.2 0-.4 0-.6.2a1 1 0 0 1-.5.2h-.2l-.2.1c0 .5 0 .7-.2.9-.1 0-.3 0-.5-.2.7-.1.4-.7.6-1Zm.6 9v-.1h.1Zm1.7-3.7-.9.2-.4-.8-.5.4h-1l-.4-1 .7-.5.5.1c.5-.2.3-1.2 1.2-1v.6l.1.1v.3c0 .2 0 .5-.2.8.4 0 .7-.1 1 .2h.4v.8l-.2.2-.3-.3Zm2.5 2.6-.4-.4-.2.5-.2.2-.4-.3h-1l-.2-.3.2-.4h-.2l.9-.4-.2.4c-.1.1-.3.1-.4.4l.2.2.5-.1.3.2c.3-.2.5-.3.5-.5l.5-.5v-.3h.1l.4.2c-.1 0-.3.1-.3.3-.2.1-.2.3 0 .5h.1l-.2.3Zm.2 1 .3-.8c0 .3 0 .5.2.8l.5-.3.2-.4a7.8 7.8 0 0 1 .4.6v.1c-.3.3-.2.8-.6 1v-.3c0-.4-.2-.6-.5-.7h-.5ZM29.2 1h.5-.5Z"/><path d="M34.7 1.4V.9h-4.1l.2.4.3-.3c-.1.2 0 .4.3.5v-.2l.5.3-.2.8c0 .5-.2 1 .1 1.4v1.4l.6-.1c-.2.2-.1.5 0 1v.3s-.2.1-.2 0h-.3l.2-.3c-.3 0-.6-.1-.8.2-.1.1 0 .3 0 .4l-.1.4c-.1.2-.4.3-.6.4l-.5.3c.4.2.7.4 1 .1h.4c.1.6.3.7 1 .8V8h.3c0 .3 0 .4.4.7l-.4.6c.5.1.5.1.7-.5.3 0 .5-.2.8-.3l.1.5.6-.8h.2l.2-.2.2.1.2-.5.2-.2h.6c0-.6.7-1 .6-1.7 0-.2-.2-.4-.4-.4H36l-.3.4v-.2c-.3 0-.2.2-.2.3-.3-.1-.6-.2-1 0l.2-.2c.4 0 .6-.3.7-.7 0 0 .2-.1.2-.3v-.2q-.4-.4-.1-1c.2 0 .4 0 .4.4 0 .3.2.5.5.6.2-.2.2-.4 0-.6.1-.4.7-.3.6-.7l-.5-.5c0-.3 0-.5.4-.7.5-.1.5-.2.9-.8-.3 0-.5 0-.7-.2H35c0 .2 0 .3-.2.5Zm1 4.4h.1Zm0 0h.1v.3-.2Zm0 .2c0 .2-.1.3-.2.3 0 0 0-.2.2-.3Zm-.7.7h.3c.2 0 .3.2.2.3l-.3.2H35v-.5Zm-.9-1.2.4.2-.4.2v-.4ZM33 7v-.3l.1.2-.1.1Zm-.3-4.7.4-.9q.5.3.7 1.1l-.7.2-.4-.4Zm.5 1.9.3-.3c.3 0 .4.2.5.5-.4 0-.6 0-.8-.2Zm1.5 2.7h-.2c-.2 0-.2.7-.7.3l-.2-.7c.4 0 .8 0 1.1.4Zm.7-4.7.8.2.1-.3c.3.3.2.4-.3.8l-.6-.3v-.4Zm-.2 2a.7.7 0 0 0-.6-.1l.3-.3.3.3Zm23.6 8.1v-1 .2c-.3.4-.3.6 0 .8ZM52.8 1h-.2l.1.1.1-.2Zm6 19.5v-1 1Zm-9.4-5.9Zm-4 12.2V28c.8 0 1-.2.8-1v-.6l.3.1c.3-.3.4-.5.2-.7l.5-.3q-.5-.4-1-.1c0-.1 0-.2-.2-.3l-.4.5-1.3-.6v.4c-.2.4-.5.8-.5 1.1 0 .3.4.6.6 1 .4 0 .7-.1 1-.6ZM34.4 9Z"/><path d="M34.2 9.8c0 .2 0 .5-.2.7v.2h-.1l-.1.6c.4 0 .5-.3.7-.5l.4.2h.1c.3.2.4.4.5.7l.3.3c.2-.4 0-.8 0-1.2h.2l-.1-.3v-.2l.6-.2v-.3l.3-.4c0-.5 0-1-.3-1.4h-.2v-.5c-.2.2-.3.3-.1.5-.7 0-.8.3-.7 1.1l.8.3v.3h-.5c-.1-.2-.3-.4-.5-.2l-.3.1c-.1-.3-.1-.6-.6-.6-.3.2 0 .5-.2.8Zm15.9 18.4c.5.2.6-.2 1-.4-.3-.3-.5-.6-.8-.7a1 1 0 0 0-.3-.1l.4-.2v-.3h-.2l.3-.4c-.2-.3-.5-.3-.9-.3l.2.8h.1v.4h-.6c-.5-1-.4-1-1.6-.5.2.5.4 1 1.1.9.2.3.1.7.5.8.3 0 .5.1.8 0ZM40.4 19l-.5-.1c.2-.3.4-.7 0-1.1L39 19h.4l-.6 1-.3.1-.3.4c0 .1.2.3.4.3.2.1.4 0 .4-.2l.2-.2h1.4l-.1-1.4Zm3.6 4v-.2c0 .2.1.3.4.4l-.1.6.4.1-.1.8c.7.3.7.3 1.3-.5l-.2-.1-.3-.2.6-.4-.5-.1c-.5 0-.8-.2-1-.8h.6l.3.5h.3v-.3h-.3c0-.2 0-.3-.2-.4a.7.7 0 0 0-.7 0c-.1-.2-.3-.3-.6-.3v.3c-.5-.1-.5.4-.7.5q.3.2.7.2Zm9.7 8.4-1.1.8.1.4c.1.3 0 .5.4.6l.3.3.3.1v-.5c.4-.1.7-.2.7-.6l-.7-1ZM37.9 4.7c0-.2-.1-.3-.4-.5v1.2l.2-.3.3.3s.6.5.8.5c.5.1.6.5.7 1l.2-.3.2.2.7-.2-.6-.5c.1-.2 0-.3-.4-.7l-.6.3-.1-.4h.1V5l-.2-.1c-.1-.3-.3-.5-.8-.5l-.1.3Z"/><path d="M35.8 13.6c.2.2.3.5.2.7l-.3 1h.4l.3-.6-.1-1v-.3l-.6-.5c0-.2 0-.5-.2-.6l-.2-.1-1 1-.4-.4-1-.1c-.5-1-.4-1-1.6-.5l-.1-.2.5-1 1.2 1.3.4-.3-.4-.4.2-.4-.7-.4v-.3l-.1.2c-.4 0-.4-.3-.5-.6l-.3.3-.4-.4v.5a1 1 0 0 0-.4.5c-.4-.3-.4-.3-.8 0l-.3-.3-.4.5-1.3-.6v.4l-.5.9c0-.3-.1-.5-.4-.7-.2-.1-.5 0-.8.2l.4.7h.8c0 .3.4.6.6 1 .3 0 .7-.1 1-.6v1.1c.8 0 1-.2.8-1 0-.8.2-1.2.9-1.5v1c0 .3.3.6.8.7v-.2c.2.3.4.5 1 .4 0 .3 0 .6.2.8h-.2c0 .6 0 .6-.5.7 0 .3.1.5.5.5.3 0 .2-.3.3-.5l.6.6c.4-.2.5-.5.4-1V14c.3.1.4 0 .6-.3.3.1.6.1.8.3l.5-.4h.2zm-2.6.4zm21.2 21c0-.1-.1-.2-.3-.2s-.4 0-.4.2l-.1 1.3H53c0 .5.3.8.8 1 .4-.3 0-.6 0-.9.6-.3.5-.8.6-1.3zM19.6 1h.2-.8.6zm32.6 23c0-.2-.3-.4-.5-.2s-.3.1-.6 0c0 .5-.2 1 .3 1.5l1-.2-.2-1.1zm-5.7 6v-.9l-.4.1c0-.2-.1-.4-.5-.7-.2.3-.2.6 0 .9-.3.1-.3.4-.1 1 .4.2.7 0 1-.3zm-.1 3.5c.3.2.6 0 .8-.1.5-.3.1-.8.3-1.2-1.3.2-1.4.4-1 1.3zM31.5 21.6c.8-.5.8-1 0-1.4-.6.8-.6 1 0 1.4zm17.2.1l-.8.2c.1.9.2 1 1 1 .3-.4-.2-.8-.2-1.2zm-20.1-3.9c.8-.3 1-.7.5-1.5-.6.4-.7.8-.5 1.5zm19.8 15.1c-.1.2 0 .6.2.6h.7v-1c-.4.1-.8 0-1 .4zm-5.5-9.8c-.3 0-.4-.2-.5-.4l.1-.3-.3.2a1 1 0 0 0-.5-.4c0-.5 0-.6-.6-.8 0 .6 0 .7.4.9 0 .5.6.8 1 1.1 0 .2.2 0 .4-.3zM56.4 32l-1.1 1.3h1c.2-.4.4-.7 0-1.2zM33.3 17.5l.2.3h.4c-.3.4-.3.5.1 1 .3 0 .5-.2.6-.5 0-.2 0-.3-.2-.5.1 0 .3 0 .4-.2-.5-.4-1-.3-1.5 0zM58 34.4c.2 0 .3-.2.3-.4v-.8c-.1.1-.2.4-.6.5 0 0-.1.3 0 .4l.3.3zm-8.3-2.6l.2.3h.8l.5-.2c-.5-.4-1-.3-1.5-.1zM48 27.4h-.8l-.2.4.1.2c.2 0 .3 0 .4-.2h.2c.3 0 .2-.2.3-.3v-.1zm10.2 9.2c0-.7 0-.8-.7-.9 0 .6 0 .6.7 1zM24 7c-.2-.2-.4-.1-.6 0v.6c.3.1.4.2.6 0s.2-.4 0-.6zm18 18.6c-.2 0-.2.1-.1.6.5 0 .6 0 .6-.3 0-.2-.2-.3-.5-.3zM24.4 1.2l.1-.3H24c0 .1 0 .2.2.3h.3z"/><path d="M30.2 10.8c.2-.2.2-.5 0-.6h-.3c-.2.1-.2.5 0 .7l.3-.1Zm14.6 11.1c0 .2.1.4.3.4l.7-.3-.6-.3c-.2 0-.3 0-.4.2Zm-11.5.6.1.3c.2.1.5 0 .6-.2v-.3c-.2-.1-.5 0-.7.2ZM48 29.7v-.5c-.3 0-.4.1-.5.2v.4c.2.1.4 0 .5-.1Zm7.9 7.1c-.2 0-.2.4 0 .6h.3c.2-.2.1-.4 0-.6h-.4ZM37.5 2.2c-.3.3-.3.6-.2.8.5-.2.5-.3.2-.8ZM41 19c0-.5-.2-.7-.5-.8-.2.4.1.6.4.8Zm10.3 16.8q.7-.1.6-.6c-.3.1-.5.3-.6.6ZM39.7 14.7Zm-.1.6c.4-.3.4-.3.1-.6-.3 0-.4.3-.1.6Zm17 13.7Zm.4-.7c-.6.3-.6.3-.4.6l.4-.4v-.2Zm-8.1-3.5c0 .3-.7.3-.4.8.4-.2.3-.5.4-.8Zm-17.6-6c-.3 0-.3.3-.4.6.5-.2.6-.3.4-.6ZM30.1 8.4l.2.7.3-.5s-.2-.2-.5-.2Zm11.4 14.8c-.2-.2-.5-.2-.8 0 .3.3.5.3.8 0Z"/><path d="M56.8 29.5c.4-.4 0-.4-.2-.6l-.2.5.4.1Zm-.2-.5Zm1.4-1.7.3.6h.1c0-.3 0-.5-.4-.6Zm-18.3-4.8h-.3v.6h.4v-.2h.1l.4-.2h-.5v-.2Zm-6.4-12.3.5-.5c-.6 0-.6.2-.5.5ZM38.5 3h-.3v.3h.3V3Zm11.6 27.7.2.4q.2-.3-.1-.5l-.1.1Zm7.8 4.1.5.4q0-.4-.5-.4ZM37.1 4.1l.3-.1v-.2h-.3v.3Zm-4.5 6.2v.3h.3l-.1-.4h-.2Zm26.2 26.5-.4.2h.4v-.2Zm-9.4-5.5.3.5c.3-.3 0-.4-.3-.5Zm9.3 3.3v.6l.1-.1v-.4h-.1Zm-20-16.4h-.2v.3h.3l-.1-.3ZM51 27.3V27h-.2v.3h.2Zm-7.5-13.5v.1h.2v-.3l-.2.2Z"/></g><path fill="#4db6ac" d="M59 21a3 3 0 0 0-.5-.4 4.4 4.4 0 0 0-3.8.1 6.5 6.5 0 0 0-3.2 3.3c-.3.8-1 4.6-.4 5.2-3.1-3.7-8.9 0-6.6 4.6-2.6 0-6.2 1.9-4.4 5.1-3.5-1.6-6.6.4-6.6 4-3.4-1.7-5.7 3.4-5.2 6.1 1-.4 2.7 0 3.7 0h11.8c4.3.1 8.9.6 13.1.2.7 0 1.5 0 2.2-.2V21Z"/><g fill="#26998b"><path d="M51.1 42.5zM49.3 49v-.2l.2-.1v-.3c-.1-.2-.3-.2-.5 0l-.4.2h-.3l-.2-.2c-.2 0-.2.2-.2.3l.1.4v.1h1.4v-.1h-.1zm-12-2c-.2.2-.3.4-.2.7l-.4.2v.2c-.2.2 0 .4 0 .6l.2.1h.6c.2 0 .2-.1.2-.2v-.7c.2-.2.2-.4.2-.7-.3.1-.4-.1-.6-.2zm6.9-4.6l.2.2.2.3-.4.1c0 .4 0 .4.3.5l.1-.1.3.2.1-.2v-.5l.4-.5h-.3V42c-.2 0-.2-.1-.3-.2h-.5l-.1.2-.1.2.1.2zm-1.8 4v.3l.4-.1v.3c.2 0 .3-.1.3-.3v-.3c.1-.1 0-.3.2-.4 0-.2-.2-.3-.4-.4h-.4l-.1.1-.1.1a.42.42 0 0 0 0 .7zm4.1-1.5h.4l.1.3-.1.1v.2c.2 0 .3 0 .4-.2V45s.2 0 .2-.2q.2-.2 0-.3h-.1s0-.3-.2-.3l-.3-.2-.2.1-.2.3h-.1l-.2.2.2.2v.2zm-6.9.2c0-.2.2 0 .2-.2l.3-.3-.3-.2-.3-.1h-.6l-.1.2v.2c0 .2 0 .3.2.4l-.2.2.1.2c0-.2.2-.2.2-.3h.5zM51.4 47c.1 0 .2 0 .2-.2v-.3c.3 0 .3-.2.2-.3l.2-.2c0-.2 0-.3-.2-.3l-.1.2c-.3 0-.4.3-.7.3v.9h.4zm-1.6-7.6h.2v.6l.4-.2-.1-.3h.2l.2-.3h.7v-1H51c-.2 0-.3 0-.4-.3l-.3.2v.5h.1v.3l-.2-.1c-.1 0-.3 0-.3.2v.2h-.4c0 .2 0 .2.2.3zm-8.3 6.2l.4-.2c.2 0 .3-.1.3-.3l-.5-.1.2-.3c-.2 0-.4-.2-.5 0-.2 0-.2.2-.3.4h.5v.5zm7-7l.2.3v.1l.3-.3c.3-.1.3-.4 0-.6-.2-.1-.3-.1-.4 0l-.2.4zm.5 1.2v-.2h-.2c0-.4-.2-.5-.5-.6-.2.3-.1.6 0 .7.2.1.4.2.4.4 0 .1.1 0 .2 0q-.2-.2-.1-.3s0 .1.2 0z"/><path d="M52.4 47.2c.1-.2 0-.4-.2-.5H52l-.1.2-.2-.2s0 .2-.2.3l.1.1v.4l.1.2h.2l-.3.1.2.3v.2l.5-.1v-.5l-.2-.2-.2.1.1-.2.4-.2Zm-3.2-4.6c0 .1 0 .2.2.2l.4-.1v-.5a.6.6 0 0 0-.4-.1l-.2.1v.4Zm-3.7-3.8.4.2v-.3c.1-.1 0-.3 0-.4h-.4v.5Zm3-1.6v-.5c-.4 0-.5 0-.6.2l.2.3q.2.1.4 0Zm-.3 4.1h-.3v.2s0 .2.2.3h.2c.2 0 .2-.2.2-.3 0-.2-.2-.2-.3-.2Zm.8 6.3c0 .1 0 .3.4.4v-.2c.1-.2.1-.2 0-.4l-.4.2Zm4.8.7h-.5l.1.3h.2l.1.1c.2-.1 0-.3 0-.4Zm0 .4zm-16.2-5.4c-.2-.1-.3 0-.5.1l.2.3c.3 0 .3-.2.3-.4Zm2 .1.1.2c0-.3-.1-.4-.2-.5h-.3c0 .3 0 .3.4.3Zm13.2-.9c.2-.2.2-.2 0-.4l-.1-.1c-.3.2-.2.3 0 .5Zm4.6 6.6h-.2v.1h.7c-.2-.2-.3-.2-.5 0Zm-11-.2-.3-.1H46c-.2.1-.2.2-.2.3h1l-.2-.2h-.1Z"/><path d="M58.8 37.6v-.1c-.1-.1-.3 0-.4 0 0-.3.2-.1.3-.2V37c-.1-.3-.2-.3-.5-.3-.1 0-.3 0-.4.2-.2.2-.2.3-.1.5h-.2l-.4-.4v-.7c-.2-.2-.4-.2-.5-.2h-.4c-.2-.1-.2-.1-.4 0V36h-.3l-.3-.3c.2 0 .4-.1.5-.3h.1c.2 0 .3-.1.3-.3V35l-.3-.1a2 2 0 0 0-.5.1l-.2.3-.1.4-.2.1v.7l.4-.2c0 .2 0 .4.2.5l.2-.3.2-.3c0 .1 0 .2.2.3h.1l.1.6-.2.1v.2l-.1.1h-.2l-.4.2.2.1c0 .1-.2.2 0 .3l.3.3h.2s.1 0 0 .2c-.1 0-.1.2 0 .2v.7h.1v.1l.2.2h-.6v.2c0 .2-.1.2-.3.2 0-.3-.1-.5-.4-.6 0-.2 0-.3-.2-.4l-.1-.1c0-.1 0-.2-.2-.3h.1l.4.2s0-.2.2-.2c.2-.2.3-.3.2-.5l-.2.1-.3-.2-.2.1v.1c0-.1 0-.4-.2-.6 0-.2.2-.1.3-.2v-.3c.1 0 .3 0 .4-.2h-.3l-.3-.2h-.2c-.2-.1-.3 0-.4.2v.3l.2.3-.3.1h-.1v-.2l.2-.2h-.3l-.3.1v.5h.1v.3H53c-.2 0-.2.2-.2.4h-.1c-.2.1-.2.2-.2.4h.3l.1-.2H54l.1.4v.3l.1.3h-.3l-.1-.4.1-.2-.3-.2-.4.2v.2l.5.4-.3.3v.4l-.2.2v.1l-.2-.3v-.1c.1-.3 0-.5-.1-.7-.1.1-.3.1-.4 0h-.2v.3c-.1 0-.1.1 0 .2v.6H52v.2c0 .2 0 .4.2.5v.2l.2-.1h.3l.4.5-.1.1c0 .2-.1.2-.2.3v.1l-.1.5-.4.2a1 1 0 0 1-.1 0v-.5l-.1-.2v-.1c0-.1-.1-.1-.2 0h-.2c-.2 0-.3 0-.4-.2-.1-.2-.2 0-.3 0 0-.2 0-.4-.3-.5l.2-.2h.3c.1-.2.1-.2 0-.4l-.4.1v-.3c-.4 0-.6 0-.6.4.2 0 .2.3.4.4l-.2.2v.4l.1.1v.2l-.2.1h-.5v-.1h-.2c0 .2 0 .2-.2.3v.1c0-.2 0-.3-.2-.3l.1-.2h-.1l-.3-.2-.2-.2c-.2-.1-.3-.3-.6-.2l-.3-.2-.4.1c-.1-.2-.3-.2-.4-.2l-.2-.1h-.3c-.3 0-.3.4-.2.6v.3c-.3.1-.3.3-.4.5l.2.2v.2l.3-.1.1-.2.3-.2h.1v-.6h.4V42c.2.1.3.3.3.6-.1.2 0 .3 0 .4h.1l.1.2c.2-.1.2-.2 0-.2l.1-.2-.1-.5h.2v.2l.1.3.2.2c0 .2.2.3.3.4h.2v.4c0-.4-.1-.4-.4-.3l.1.8-.2.3v.1h.2c.2.2.3.2.4 0v-.1l.1-.2.3.1.2.1v.1l.1.1.2.2h-.2l.2.8-.3.1v-.2c-.2-.2-.5 0-.6-.3-.2 0-.3.2-.3.3 0-.2 0-.4-.4-.5q.2 0 .2-.3H48l-.1.3h-.2l-.2.1s0 .2-.2.3l-.1.2c0 .2 0 .3.2.4l.3-.1c.2 0 .2-.2.2-.4v-.4h.2l-.1.2c0 .2 0 .3.2.3h.3l-.3.2h-.1c-.2 0-.3.1-.3.3v.3h-.2l-.4.1v-.2l-.1-.3h-.4v.5l.2.2h.2c0 .2.1.3.3.3v.6c.1 0 .1.1 0 .2v-.2l-.2-.2c.1-.1.1-.3 0-.4h-.3v.6l-.2.6.2.2.2.1.2.1c0 .1 0 .1.1 0l.1.2h.2c.2-.3.2-.4 0-.6V48c.2.1.3.2.5 0v-.2c.2 0 .2-.2.2-.3v-.1c.2-.2 0-.4.1-.6l.2.1c.1.2.2.2.4.1h.1l.2.2c.2.1.3.2.5 0h.3l-.1-.7h.1c.2 0 .3-.1.3-.2V46h-.1c0-.2.1-.2.2-.3h.2l-.1.3h.4l.3-.3-.4-.2-.3-.5q0-.4-.3-.5v-.2l-.1-.7c.2.1.4 0 .6.2h.1l.1.1c0 .2.2.2.3.2v.2h-.2l.2.1.1.3h.2v.7h-.2V45h-.7c.2.3.2.3.5.3v.3h.3l.3-.1.3-.1v.2c-.3.2-.3.3 0 .5v.2h.2l.3.2.1.2.3.2h.1v.5s-.2-.2-.4 0l-.2.2c-.2.1-.2.2 0 .4h.2l.3.3c.2 0 .3-.3.5-.2V48h.1v.1q0 .2.2.2v-.2h.1l.2-.1c-.1.2-.1.3 0 .4l.3-.2c.2.2.2.3.3.2h.3l-.3.2-.2.2v-.4H54l-.2.3c-.3 0-.4.2-.5.4h-.1v.2h.5l.1-.1.1.1h.5V49l.2-.1-.1.4 2.4-.1.2-.2h.1l.2-.1.1-.3c0-.2.2-.3.3-.3l.4.2v.1c-.1 0-.3 0-.2.1l.1.2.2-.1h.1v.2h-.1.7v-.8l-.2-.2h-.2.5v-2.2H59v-.1h.2v-2.2H59v-1c0-.2 0-.2-.2-.3v.1h-.2v-.2h.5l.1.2v-1.8H59l.1-.2v-2 .1-.6c-.1 0-.2 0-.2-.2ZM49.4 44h-.2l.2-.2v.2Zm-1.5 3v-.1Zm1.4-.5Zm.2 0v-.3l.2.2h-.2Zm.3-1.4V45Zm.5 0v.2-.1Zm.2-2-.1-.1h.1v.1Zm.6-.2h.2-.2Zm1.2 2.3Zm.6-.9s0-.2-.2-.2l-.4.1-.2-.2-.4-.1c0-.1 0-.2.2-.2s.2.3.5.3l.1-.3h.2l.1.2h.3c0 .2.1.3.2.3-.1.1-.2.2-.4.1Zm.3 1.4Zm5.2-6.6.2.1-.4.2.1.2H58v.4h-.2v-.2l-.2-.4v-.2h.1c0 .2.1.2.2.2 0 0 .2 0 .1-.2l.4-.1Zm-.5-1.4h.1s0 .1 0 0h-.1Zm-.3 1h.1l.1-.2h-.2v-.1h.4v-.1h.1l-.1.4-.2.3v-.4Zm.3 2.5v.2h-.2l-.1-.2h-.1c0-.1.3 0 .4 0Zm0 .3v.1h-.4l.2-.2v.1h.2Zm-.8-3.7Zm-.2.3.2-.3v.2c0 .2 0 .3.2.4h.1v.3l-.3.1.1-.3H57v-.3h-.1Zm-.3 4.6h.1l.2-.2h.4v.5l-.5.2-.2-.5Zm.2.6h-.1Zm.1-1.3v.2h-.2l.2-.2Zm-.3-4.8Zm-.5 3.6.2.2v-.3c.2-.1.2-.3.1-.4V40c0-.1.1-.1 0-.2v-.2l.1-.2c.2 0 .3 0 .3-.2V39h.1v.1q-.3.4-.2.7l-.2.2h.4l-.2.2v.5c0 .2.2.3.4.4v.1l-.2.2v-.2l-.3-.1c-.2 0-.3-.2-.5-.3Zm-.4 1v.1Zm-1.2-1.2.3.1h.3l.1.1.1.2v.2c-.3 0-.3 0-.3.2.1 0 .2 0 .3.2l-.1.2h-.1l-.2-.3V41c0-.2-.2-.3-.4-.2v-.3Zm-.2-.5v.1l-.1-.1Zm-.3 1.4v.2-.2Zm-.5 2v-.1Zm.7 2.8h-.3l.2-.2.4-.2c0-.1 0-.3-.2-.4l.1-.3V45c0-.1 0-.2-.2-.3v-.1l.4.2v.5l.2-.1v.2c.1 0 .2 0 0 .2h-.2v.3l.1.2.3-.1v-.1h.2v.3h.1v.2h-.4v-.1c-.1-.1-.2-.2-.4-.1l-.2.2Zm-.3-.9h.1Zm.3-1.8Zm.1 3.2h.1Zm.8 1.4h-.2l-.1-.1-.2-.1-.2-.1v-.7.4h.2c0 .2.2.2.3.1l.2-.1v.2l.1.5h-.1Zm.6-.6-.4-.2h.2c.2 0 .3-.1.3-.3h.1l.3.1-.4.4Zm.5-1v.1H56v-.4h.3c-.1 0-.2.2-.1.3ZM56 46v-.1l.2.1H56Zm.2-.5c-.1 0-.2 0-.2.2h-.1v.1l-.3-.1V45l.3.1h.3v.2Zm-.2 3.7h-.1Zm0-.7v-.2h.3v.1l-.3.1Zm.3-2.4.1-.2h.1v.3l-.2-.2Zm.1-1.3h.3l-.1.1h-.1Zm.6 2.5c-.2.1 0 .2 0 .4l-.3.1-.1-.3h.1v-.1h.1l-.1-.3.2-.2c0 .2.2.2.3.3H57Zm-.3-1.5h.4-.4Zm.5.9H57v-.2h.2l.2.2H57Zm.6-1.3v.2l-.3.3c0-.2-.2-.3-.4-.3V45l-.3-.3v-.2h.5v.1l-.2.2h.2v.4h-.1c0 .3.1.3.3.2v-.2h.3v.1Zm0-1.1-.2.2v-.1l.2-.1Zm0 .7-.2.1.2-.1.1-.2.4-.1.1.2H58v.2h-.2Zm.5 3Zm0-.1-.2-.1v-.1l-.1-.2.1-.2V47h.3v.6l-.1.2Zm.7-1.3v.2c-.2 0-.2.1-.2.2l-.4-.1v-.4h.3l.3.1Zm-.4-2.7.1.1v.1l-.2.3h-.1a.4.4 0 0 0-.4-.1v-.4l-.3-.3h-.5l-.1.1-.2.1v.2l.1.3c-.2 0-.3-.2-.4 0h-.2v-.1H56l-.2.1h-.3v.2h-.2v.2h-.1l-.4-.1.2-.2v-.1h.2v.1h.3l-.1-.3H55v-.4l-.4-.4-.1-.2h-.2a8 8 0 0 1-.2-.4c-.3 0-.5 0-.6.2v-.3c0-.2 0-.3-.2-.4v-.1c.2 0 .3-.1.3-.2v.3h.3l.2.2.3-.1.1-.1h.3c-.2 0-.2.2-.2.4h.2c.1.2.3.1.4 0v-.1l.2-.2h.3V42l.2-.1.1.1-.4.5h.2l-.2.2v.1l-.4-.1-.2.1h-.2c0 .3 0 .4.3.5V43l.2.1c0 .2.2.2.3.2h.2v.5h.1l.2-.2h.2l.1.1.1-.1h.7l.2-.3h.2l.3.3h.4c.1.2.2.2.4.1Zm-2.8-.8Zm2.6-1.2-.1-.1.1.1Zm.3-.6-.2.1c-.1-.3-.4-.3-.6-.3l-.2-.5h.2l.2-.2v.1l.1.3.2.2c.1-.2.1-.3 0-.4h.4c0 .3-.2.5 0 .7Zm.2.6v.1Z"/><path d="M52.8 49.2h-.2V49h.2c.4-.1.4-.4 0-.6h-.6l-.4-.1h-.3c-.1.3-.1.3-.3.2v-.2c.1 0 .3-.1.3-.3l-.2-.1v-.2c0-.2-.1-.2-.2-.3H51l-.1-.1v-.2c-.2 0-.2 0-.1.3l-.2.2h-.1v-.1c.2-.2.2-.2.1-.4h-.2l-.1.5-.4-.1-.1.1.4.2c-.2.1-.1.3 0 .5v.4H50v.2h.1l.2.2v.1h2.5Zm-1.4-.2.2-.1v.2l-.2-.1Zm-11-2v.3c.3 0 .4-.1.5-.3h-.5Zm2.8-1.4h.1c.2.1.3 0 .4-.1-.2-.1-.3-.1-.4 0ZM43 45l-.4-.3h-.2l.5.4.1-.1Zm8.6-3.4zm.1.1h.2s.1 0 0-.2h-.3v.2Zm-15.8 4.8c-.2 0-.2 0 0 .3l.3-.2c-.2-.2-.2-.2-.3-.1Zm13.8-10.7v-.3c-.1-.2-.2.1-.3 0v.2h.3Zm-2.1 3v-.3h-.3q0 .3.3.3Zm-9.2 7.3-.2.4.2.1c.2-.1.1-.3 0-.5ZM50 42c.2 0 .3 0 .2-.3H50v.3Zm-5.7 1.9-.1.3h.2c.1-.2 0-.2-.1-.3Zm-4.4 1.7zm-.4 1.4.1.1c.1 0 .2 0 .3-.2l.1-.1c.2-.1.3-.4.3-.6V46h.3l.1-.3c.2 0 .3.1.4 0l-.2-.1-.2-.4-.1-.1a.3.3 0 0 0-.5 0l-.2.3v.4h-.3c-.2-.2-.5 0-.6.2v.5c.1 0 .2.3.4.3h.1Z"/><path d="M39.8 45.4h-.2v.3h.2c0-.2 0-.1.1-.1l-.1-.2zm1 1.1v-.1c0-.1-.1-.2-.3 0l.2.2.1-.1zm-2.4-.7h-.3v.3q.2 0 .3-.3zm3.4.5c0 .2 0 .2.2.3 0-.3 0-.3-.2-.3zm-1.4-1.9l-.1.2h.4s-.1-.2-.3-.2zm2.9-.2v-.3l-.2.1v.1h.2zm-4.8-.2q-.3 0-.1.2v-.3zm11-3.5c.1.2.1.2.3 0h-.3zm2.2.5c-.2 0-.2 0 0 .2V41zm-.4.9s.2.1.2 0v-.1h-.2zm-1.7-2.3h.1v-.2h-.3v.1c0 .1.1.1.2 0zm-3 6.4v.2c.2 0 .2 0 .3-.2h-.3zm1.3-7c-.1-.1-.2-.1-.2 0l.1.1c.1 0 0 0 0-.2zm3.1 8.3c.3.2.3.2.4 0h-.3zm1.9 0v-.2h-.1l-.1.1.1.2zM47 43.8l.1-.2c-.2 0-.3 0-.2.1zm.3-2.3v.1l.1.1v-.2zm.1 1.8l-.1-.2.1.2zm4-3.8l.1-.1h-.1zM40.6 45c0-.2-.2-.1-.2-.2 0 .1 0 .2.2.1zm.9 1.1s0-.2-.2-.2c0 .1 0 .2.2.2zm-3 1.7v.2c.1 0 .1-.1 0-.2zm4.5-6l-.2.2q.2 0 .2-.2zm6.5-.8q0 .1.2 0s-.1-.1-.2 0zm2 .4v.2h.1v-.2h-.1zm.3-.4l.1-.2s-.2 0-.1.1zm-10.2 3.2h-.1.1zm-.3.1V44h-.1v.2zm1.1 2.8h.2l-.1-.1-.1.1zm7.7-6.3h.2-.1zm-1.2 6.6h.1l-.2-.2v.2zm-7.6-2.2v.1h.1v-.1h-.1zm-3.2 2.2h.2-.2zm11.1-2.1H49zm.2.2v.1zm-2.3-2.7l.1.1q0-.1 0 0zm-2.5 4.7h.1zm-6.2-3.1h-.2l.1.1v-.1zm1.3-.4v.1-.1zM50 49.2v.1h.1v-.1zm3.4-13.9c0 .2 0 .5.3.5h.6l-.1-.5-.1-.2a.5.5 0 0 0-.7 0v.2zM52 37.1v.1c-.3.1-.3.4-.3.5v.3c.2 0 .2.3.3.4.2-.1.5-.4.5-.6s0-.4-.3-.5l-.2-.1zm.2-3.8l.2.2.8-.2c-.3 0-.3-.3-.3-.4s0-.2-.2-.2h-.6v.6z"/><path d="M45 49c0-.2 0-.4-.2-.4h1v-.1l.2.1c0-.2.3 0 .4-.2 0-.3-.2-.4-.3-.6v-.5l.2-.2.2-.3-.2-.2h.2c.1-.3-.1-.3-.2-.5H46v-.3h.1c0 .2.1.2.2.2h.2c0-.2.1-.3.2-.3q.2-.2 0-.2v.1l-.2-.1v-.1l-.2-.1h-.1L46 45h-.2l-.2-.1-.2.1v.4l.2.1.2.1h-.3c-.3.1-.5.3-.5.6h-.5c.1-.2.3 0 .4-.1.2-.2 0-.2 0-.4l.2-.4v-.2h.1c0-.2.2-.2.3-.3.1 0 .3 0 .3-.2V44c.1 0 .1-.1 0-.2h-.2l-.5-.1-.3.3c0 .2 0 .5-.2.6 0 .2.1.4.4.5-.5 0-.6.3-.5.7h-.1c0 .1-.1 0-.2 0v.3c-.3 0-.4 0-.5.2v.3l.1.1c-.4.2-.4.5-.4.7h-.5s-.2 0-.3.2c0 .2.1.3.3.3v.2c.2-.1.3 0 .4 0 0 .2-.1.3-.3.3l-.3.2H42v-.2h.2v-.5c.2 0 .2-.2.1-.4v-.2l-.3-.1c-.2-.2-.3-.1-.4 0v.1c-.3 0-.3.2-.3.3H41v.2l-.1.2-.2.3.4.3-.1.1-.3-.1-.2-.1-.3.1c-.1.1-.2.2-.3 0 .1-.2 0-.4-.1-.7v-.5c-.1-.2-.4-.1-.5-.2h-.1c-.2 0-.2.2-.2.3-.1.2-.1.3 0 .4v.4c-.1.2 0 .5.2.5l.3.1v.1H41q.3 0 .3-.3l.5-.4v.2c-.4.2-.4.2-.4.5h-.1l-.2.1h1.4v-.2c.1.2.3.2.4.1h.3l.1.2h.7v-.5h.4l-.2.5h1c0-.1 0-.2-.2-.2zm-1.5-1.3l-.1-.1h.1zm2.5-.3zm-.5-1.1zm-1.2.1h.1v.2h-.2v-.2zm.2 2h.1zm-.2-.7l-.4-.2c.2-.2.3 0 .4 0V47h.1v-.2l.4.1v.1l.1.1.2.1v.2h.2l.2.2h.1v.3h.2c.1-.1.1 0 .2 0h-1l-.1.4-.1-.3-.2-.3h-.4zm.4-7.4l.4.2h.7l.3.2c.1.1.4 0 .4-.2l.1-.4c-.1-.1-.3-.3-.5-.3 0-.5 0-.5-.4-.6l-.1.3h-.3l-.3.1h-.2c-.2 0-.3.1-.3.3v.2s0 .2.2.2zm6.8-.7v.5l-.1.2.1.1v-.1h.1c0 .3.2.4.4.3v-.8l.2-.3h-.7zm1.5-5c0 .2.1.3.3.3h.3v-.4c0-.2-.2-.3-.4-.2-.2.2-.3.2-.2.3zm5.7 2.4v.4l.2.2.2-.2V37l-.4.1zm-3.2-4.7V32c-.1-.2-.2-.2-.5 0l.2.6c.2 0 .2-.1.3-.2zm-4.7 8c.1 0 .2-.1.2-.3h-.3v.3l-.2.4c0 .2 0 .2.2.3l.4-.3c0-.3 0-.4-.3-.4zM48.3 38l-.2-.3c-.1-.3-.3-.3-.6-.2.1.4.4.4.8.4z"/><path d="m41.3 46.4-.3-.2c-.2.1-.1.2-.1.4v.2h.2l.1.2v-.1l.3-.1v-.2l-.1-.3h-.1ZM54 36.2l-.2-.2c-.3 0-.4.1-.4.3 0 0 0 .2.2.3H53l-.6.2v.3l.1.1c0 .2.2.2.3.3v.2l.1.2.1-.4.4-.3c-.1-.1.1 0 .1-.2l.1-.4.3-.1.3-.1-.3-.2Zm-2.9 7.9c0-.2-.1-.2-.2-.2-.2 0-.2.2-.2.3v.2c.3.1.3-.2.4-.3Zm7.1-11 .2.2h.3V33c-.3-.2-.4-.2-.5.1Zm-11.5 6.6c.1 0 .2-.2.1-.3 0-.1-.1-.2-.2-.1-.2 0-.3.2-.2.3h.3ZM52 37v-.3q-.2-.2-.4-.1c0 .2 0 .4.4.4Zm.6 6.3V43c-.2 0-.3.1-.4.3.2.1.3.1.4 0Zm2.4-4c.2 0 .4.2.5 0l-.3-.3-.3.3Zm.3-5c.2.2.3.1.4-.2-.2-.2-.2-.2-.4.2Zm-9.8 6.3.1.4h.2c0-.3 0-.4-.3-.4Z"/><path d="M58.7 33.5v.2h-.1v-.2l-.1-.2-.2.1-.2.1h-.5v.2l-.2.1-.1.2H57v.4h.1l.2.2.1.1c.1.2.2.2.4.2h.2l-.3.1-.2.1c-.1 0-.3 0-.3.2v.5h-.4v.2h.1c.2 0 .3 0 .3-.2 0 .3.2.4.5.4h.1l.3.1c0 .2.2.3.3.4v-.2h.6v-2h-.2l-.1.3c-.1 0-.2 0-.2.2h-.2v-.2l.2-.3.2-.3v-.3h.3c-.1-.4-.2-.4-.4-.4Zm-.2 2.1ZM49 40.8h-.3l-.2.2.3.2v.1c.1 0 .3 0 .2-.1V41c.2 0 .2 0 .3-.2l-.1-.2c-.2 0-.3.1-.3.2Zm7.8-9.5-.3-.1h-.2v.2h.3l.2-.1ZM42.4 48.5h.3l.2-.1-.2-.2c-.2 0-.3.1-.3.3Zm14.1-15.1.1.3.2-.1v-.3h-.3Zm-.1.6.2.1s.1-.2 0-.4l-.2.3Zm-6.6 15.2c0-.1 0-.1-.1 0h-.1.2Zm5-14.2c0-.1 0 0-.1 0h-.2v.1l.3.1V35Zm-9.2 13.7.2.2c.1 0 0-.1 0-.1 0-.1 0-.2-.2-.1Zm4.4-8.4h-.2c0 .1 0 .2.1.1h.1Zm1-2.9q0-.2-.2-.3l.1.3Zm-3.5 6.8v-.3.3ZM59 37.7v-.2.2Zm-11 3.6V41v.1Zm7.7 2.6v.2-.2Zm-8.9 3.3v.1-.1Zm6-4.7a2 2 0 0 1-.2 0h.2Zm1-.1c.1.1.2 0 .2 0h-.2ZM59 31.6v.2-.2ZM47.6 46.4h-.1c0 .1 0 0 .1 0ZM58.9 33v.2-.2Zm-.7-3h.1v-.1ZM45.4 41.2h.1V41Zm10.8-5.4-.1.1h.1v-.1ZM48.5 48c-.1 0-.1.1 0 .1Zm1.5-6.7h.2-.2Z"/><path d="M53.9 37.5zm2.4-7.9-.2.1c-.2 0-.2.2-.3.3v.2l.2.2.1.1c.3.1.5.2.7 0l.1-.1h.4c.2 0 .3-.2.3-.3v-.5h-.7c-.2-.5-.2-.5-.6-.4v.4Zm1.4 2.7.1-.3v-.1h-.4c-.1 0-.3.2-.2.3l-.1-.1-.1-.1h-.3c-.2-.1-.4 0-.5.2v.5h.2l.2.1.4.2.2.4c0 .1.2.2.3.1.1 0 0-.1 0-.2l-.1-.4v-.4h.1c.2 0 0 .2.1.4s.1.2.2.1h.2c-.1-.2-.1-.2 0-.4l-.3-.3Zm.6-.3v.7h.4c.1 0 .2 0 .2-.2l.1-.3v-.1c0-.2-.1-.4-.4-.4h-.4v.3Zm.5-5.2-.4.1v.5h.1l.4.3.2-.3V27h-.3Zm-.2 1.2c0 .3 0 .5.3.5h.2V28c-.2-.1-.3-.2-.5 0ZM56 29h.4v-.3c0-.2-.2-.3-.4-.3h-.3l.1.4.2.1Zm2.6 2.1v.4h.5V31c-.2-.2-.4-.1-.5 0Zm-.6-4.9-.4-.4c-.3 0-.4.1-.4.4l.4.2q.2 0 .3-.2Zm-7.2 10.3c-.2 0-.3.1-.3.3l.2.2c.3-.2.2-.4.1-.5Zm1.9-.8h.2c-.1-.2-.3-.2-.5-.2 0 0-.2 0-.2.2.1.1.1.1.4 0h.1Zm3.5-.2H56l-.2.2h.7s.1-.2 0-.2c0-.1-.1-.2-.2-.1v.1Zm2.2-11.1-.1-.3c-.2 0-.1.2-.3.2v.1c.2.2.3.1.4 0Zm-.8 3.4h-.2q.2.3.4.2c0-.1 0-.2-.2-.3Zm-2.1 16.6zm-.7-6.4h.2v-.2l-.3.1Zm-2.4.6.1.2q.2-.1.2-.4c-.2 0-.2 0-.3.2Zm3.9-3.8v-.3c-.2 0-.3 0-.3.2l.1.1h.2Zm1.9-6.6V28c-.2 0-.2 0-.2.2h.2ZM56.4 44v.1h.3v-.2h-.3ZM59 30.7v-.1h-.2l.1.1Zm-5 5.9s.2.2.3 0H54Zm1.5.7s0-.1-.2 0h.2Zm-.5-4.5v.2-.2Zm-.3 2.7v.1h.2-.2Zm-.1.3-.1-.2v.1Zm.5.8H55s.1 0 0 0Zm-1.8 3.3h-.2v.1l.2-.1Zm-.3-3.7h.1Z"/></g><path d="M16.6 11.2h3.7V8.6c0-.8-3.7-.8-3.7 0v2.6ZM8.7 34.5h19.5c1.7 0 1.7-11.4 0-11.4H8.7c-1.6 0-1.6 11.4 0 11.4Z" fill="#1d3ba9"/><g fill="#0c2b77"><path d="M25.7 16v35.2H11.3V16c0-3.4 2.7-6.2 6.1-6.2h2.1c3.4 0 6.2 2.8 6.2 6.2Z"/><rect width="17.3" height="4" x="9.8" y="16.2" rx=".7" transform="rotate(180 18.5 18.2)"/></g><g fill="#1d3ba9"><path d="M27.1 17H9.8c0-.4.4-.7.8-.7h15.8c.4 0 .7.3.7.7v.2Z"/><rect width="3.4" height="3.4" x="16.8" y="27" rx=".6" transform="rotate(225 18.5 28.7)"/><path d="M19.5 40.3v10.9h-2v-11c0-.4.3-.8.8-.8h.3c.5 0 1 .4 1 .9Zm4.1 0v10.9h-2.1v-11c0-.4.4-.8.9-.8h.3c.5 0 1 .4 1 .9Zm-8.2 0v10.9h-2v-11c0-.4.3-.8.8-.8h.3c.5 0 1 .4 1 .9Z"/></g><circle cx="18.5" cy="28.8" r="4.9" fill="none" stroke="#1d3ba9" stroke-width="1.8"/><g stroke-miterlimit="10"><path fill="#6c27a8" stroke="#6c27a8" stroke-width=".4" d="M59.2 58.8h-58V47.2h58z"/><path fill="#47127f" stroke="#9961e2" stroke-width="1.4" d="M8.2 59.2v-4.5c0-1.8 1.4-3.2 3.1-3.2H52c1.7 0 3 1.4 3 3.2v4.5"/></g><path fill="#0254c2" d="M58.7 1v57.7H1V1h57.6m1-1.1H0v59.7h59.7V0Z"/></svg>