<svg xmlns="http://www.w3.org/2000/svg" viewBox="0 0 79.7 60.6" xmlns:v="https://vecta.io/nano"><style><![CDATA[.J{stroke:#ee0290}.K{stroke-width:1.81}.L{stroke-miterlimit:10}.M{stroke:#0c2160}.N{stroke-linejoin:round}.O{stroke-width:1.45}]]></style><defs><clipPath id="A"><circle cx="21.8" cy="46.4" r="11.8" fill="none"/></clipPath><clipPath id="B"><circle cx="66.2" cy="46.4" r="11.8" fill="none"/></clipPath></defs><path fill="#1a73e8" d="M.5.5H60V60H.5z"/><path fill="#0254c2" d="M59.5 1v58.5H1.1V1.1h58.4M60.6 0H0v60.6h60.6V0Z"/><g fill="#0065d3"><path d="M21.5 19.3v.2q.1.6.9.7v-.1l.2-.5c-.3-.5-.7-.5-1-.3zm37.8 1.2v-1l-.5.5.5.5zM55 53.1c.7.2 1.3 0 1.6-.8l-.5-.7.9-.7.6-1-1.8.1c-.1-.3.1-.6.4-.8.7.3 1.3 0 1.8-.6l-.1-.7c.2-.2.5-.4.9-.2h.6v-2.4l-.8.5-.8-.7c.5.2.8.3 1.2 0l.4.1V44h-.2l-.4.2c-.5-.2-1.2 0-1.6-.5l-.3-.1c0-.4 0-.7.5-1l-1.4-.7q-.1-.6.2-1l.7.2.3-.7.4.7c.3.4.6.6 1.1.5l.3.1.4-.4v-1l-.1-.1-.6.1.2-1 .5.2V38H59c-.3.4-.4.4-.9.4l.2.3c.1.2.1.3-.1.4-.2 0-.3.2-.4.3-.2-.5-.1-1-.7-1.3.3-.8 0-1.3-.6-1.6-.1-.6 0-1.1-.6-1.5.2-.8-.3-1.3-.9-1.8l-.4-.2c-.4 0-1 .5-1.1 1-.1.3 0 .6.4.8.3.3.5.4.9.2h.4c-.3.6-.3.6-.9.6h-.5c.1.6.5.3.8.5l.4.8-.1.1c-.7-.5-1.4-.2-2-.2l-.3.3c0 .2.2.3.3.3l.6-.2c-.2.4-.4.8-.2 1.2v.2l-.2.2v.8c-.1.2-.5.3-.4.7l-.1.4c-.5 0-.4.9-1 1h-.5v.4c0 .2 0 .4.2.6.2.3.4.5.7.6.7 0 1 .6 1.7.8l.2.3c-.3.6.5.8.4 1.4l.8.4c.1 0 .3 0 .4-.2l.2-.4c.6.2 1.3.2 1.8.8-.5.2-.5.8-1.1 1-.4.2-.8.3-1.2 0-.4-.2-.8 0-1.1 0-.6.2-.7.5-.6 1.2-.3.2-.3-.3-.5-.3-.3 0-.8.4-.9.6 0 .4.3.3.5.4l.1.6h.2l.3-1 .7 1.4 1.4-.9.4.8-.5.2v1c-.8-.1-1.2.2-1.3.9-.5-.5-1-.9-1.7-1-.4 0-.8-.3-1.1-.5l-.2-.3.6-.5-.1-.2c-.3-.3-.4 0-.6.2l-.2-.6-1 .6c-.2.2-.4.5-.3.8s0 .8.5 1l.3.3.6-.5c.3 0 .4.6.8.3v1.4h-.2q-1-.2-1.7.5H49l.1.2.6.3v.6l.2.2c.4.3.8.2 1.2.1a.47.47 0 0 0 .5-.5l.2-.9c.6 0 1 .6 1.5.4l.5-1.3 1-.3.2.4zm-2-12.4l1.3-1.2a2 2 0 0 1 .9-2.1l.5.7-1 .7.2 1.3-.6.5.3.3-.7.3-1-.6zm2 1c-.3.5-.6.5-.9.3l.8-.2zm.4 2.3c-.2-.4-.5-.7-1-1-.2 0-.3-.3-.5-.6.4 0 .5.1.7.3.1.1.2.3.4.3.6.1.9.6 1.3.9l.3.3c-.5.2-1 .1-1.2-.2z"/><path d="m57.9 12.4-.3.2c.2.3.3.5 0 .7-.3.2-.5.1-.7.1l-.1.1.6 1.3h.1c.1.5-.5.5-.7.9-.4-.4 0-.4.2-.7h-.4l-.5.3c-.3.1-.4.3-.5.6 0 .5-.1.5-.6.5-.4.7.1 1 .4 1.5l.8.8-.4.4-.6-.7-.4.2v-.4l-.5.3v1l-.4-.3c-.1-.2-.2-.5-.4-.6a.9.9 0 0 1-.2-.5c0-.3-.1-.6-.6-.7v1c-.1.4-.4.6-.6 1 .3.3.6.6 1.1.5.1 0 .3 0 .5.2l-.7.6c0 .5.3.7.6 1-.4.2-.9-.2-1.1.3.2.3.5.4 1 .3h.8l.6-.2-.3.5v.6c.2.2.4.2.6.1l.3-.1-.3.8c.6.2.8 0 .8-.6.2 0 .4.1.3.3-.4.5-.3 1 0 1.4l.1.6-1-.2c0 .2 0 .4.2.4l.7.2-.4.7c-.3.5-.3.8.2 1.2l.2.2c.3.4.6.4 1 .3.3 0 .6-.3.6-.6l.2-.5c.3.3.5.5.8.6v.3c-.2.1-.4.4 0 .5 0 .2.3.2.5 0v-2.4l-.4.3-.4.3c-.6-.3-.4-1-.8-1.3.4-.4.6-.8.6-1.4 0-.3 0-.7.3-1q.4.8.3 1.4c0 .3.2.6.4.8v-2c-.2-.5-.2-1-.5-1.4-.5-.1-.7.3-1 .5-.2-.2 0-.5-.2-.6l-1-.7c0-.2.3-.3.2-.4-.1-.4.1-.5.4-.7.4-.2.7-.5.8-1l.3.2c.5 0 .7-.2.6-.7 0-.1-.1-.3 0-.4.2-.4-.2-.6-.4-.9l-.5-.4c.2-.5.6-.3 1-.4l.3.1v-4.3h-.2v.4h-.4c0-.4-.4-.5-.5-.6-.4-.1-.5-.3-.5-.7l1-.4c0-.4-.2-1 .5-1.1q-.4 0-1 .3v.6c-.4-.5-.4-.5-.7-.2l.1.1c-.4.6-.2 1 .2 1.5Zm-2.2 5v-.7h.1l.2.5-.3.3Zm1.8 8.3c-.3 0-.4.4-.8.3q.3-.4.8-.3Zm-1-5.6-1 .4v.2h.6c-.2.3.6.7 0 1.1l-2-1c.2-.3 0-.4-.3-.6l1.1-.1.2.3.6-.9c.3.4.6.5 1 .2.1.2 0 .4-.1.4Zm1-2.6-.7.2-.5-.4q.3-.6.6-.7c.2.2.2.4.4.4.2.1.4.2.3.5Zm1.4-3.8.1-.1.3.5c-.3-.2-.5-.2-.4-.4Zm.1 24.5Zm-1.4-27.4ZM37.5 42.4l.4.7.4.2.2-.3.3-1c.3 0 .5.2.5.5 0 .7 0 .7.9.8.2-.7.7-1 1.5-1.1l-.2-.4-.3-.7c0-.3 0-.7-.4-.8-.3-.2 0-.6-.3-.9l.7-.3v-.2c0-.2-.2-.3-.1-.4.2-.4 0-.7-.3-.8l-1-.4H39c-.3-.1-.5 0-.7.2l-.6 1-.3-.3-.6.2-.3.4-.2.3c-.3-.1-.3-.6-.7-.3l-.3-1.2-.5-.4-.5.4h-.1l-.2-.4h-.7c-.2.3-.1.5 0 .6.1.2.3.2.4.3l.2 1c.6 0 1.2.6 1.6-.1l.8.6c.4.5-.1 1.1-.2 1.8l-.3.2-.4-.3-.5 1-.7-.1c-.2.3.2.6.1 1l-.3.4v.3c.6.8 1.5 1 2.2.3l1-.5-.8-.7c-.1-.2-.6-.3-.4-.7l1.4.2Zm0-1.2c.5-.2.5-.7.3-1-.2-.5 0-.8.2-1.2.6 0 .2.7.6.8l1-.7.5-1.2c.2.6.3 1 0 1.4-.2.4-.5.6-.5 1-.6.3-.5.8-.5 1.2-.6.4-.6-.3-.8-.5-.3.3-.5.6-1 .7l.2-.5Zm6.6-7.3c-.5-.1-.7.2-1 .5l-.4-.4c-.4.6.5.8.1 1.3 0-.1 0-.2-.2-.3 0 0-.2-.1-.2 0l-.2.1c0 .3 0 .7.4.6l.3.3c0 .3.2.5.4.7l-.8.2-.9-.6-.5.4q0 .8.6 1v.3c-.1.5 0 .8.5 1 .2 0 .3.2.4.3.3.2.2.4-.1.6.1.8.2.9.8 1.2.3-.3.9-.4 1-1l.6.1c-.3.3-.2.6 0 .8.3.2.5 0 .6 0v-1c.1-.5.2-.6.8-.4l.2.1.4-.2c.5-.2.5-.2 0-.7l-.4.4-.2-.1A2 2 0 0 0 45 38a2 2 0 0 1-1.2-1.2c0-.5.2-.9.5-1.3.3 0 .6.2 1 .4.1-.6.2-.7 1-1 .2-.3 0-.5-.1-.6-.2-.3-.4-.3-.7-.1-.1 0-.3.2-.4.1-.5 0-.8.2-1.1.7v-1.1Zm-.2 4.6-.4.3v-.5l.4-.1v.3Zm3.4-24.6.2.3c.1.4.3.8.8 1l.2.3-.8.1-.7-.7c-.3.3-.3.6-.2 1l.1.1c.5 0 .3.4.5.7.4 0 .9.3 1.3-.2l-.6 1.2c-.3.5-.8 1-.5 1.8.4 0 .9 0 1.2.4h.4l.8.1c.4.2.7 0 1-.2 0-.4-.6-.4-.4-.7.3.3.4 0 .6-.2l-.4-1c-.1.2-.3.3-.4.3l-.7-.3c0-.1-.2-.3 0-.6.2-.2.1-.5-.1-.7l-.7-.5.8-.2c0-.5.8-.8.6-1.5-.4.2-.8.3-.8.8l-.2.1h-.2c.2-.3 0-.7.4-1V14H49l-.2-.4h-.6c.3-.3.5-.5.6-1 0-.2 0-.4-.2-.7-.1-.1 0-.5-.2-.7-.3-.4.1-.9-.3-1.2l.2-1.2c-.8-.1-1.1.4-1 1.6l-.6.2c.3.6.8 1 1.3 1.6h-.9l.2.7-.6.5.6.6Zm2.5 4.8.9-.2v.6l-1 .2c-.3-.5-.8-.9-.9-1.6.8 0 .5.8 1 1Zm-2.1-5.3h.5c-.2.2-.4.3-.7.2l.2-.2ZM45 50.6Zm-.3-.8-.6-.2-1 .3h-.8l.7-.4-.6-.2s-.2 0-.2.2c-.1.1-.1.4-.3.4l-.9.3h-.4c-.2.5 0 .5.3.6l.4 1c-.3.5-.6 0-.9 0l-.5.3v-.6c-.4 0-.4.1-.4.3-.1.4-.3.6-.8.6V52l-1.2.2c0 .5-.2.9-.3 1.3l-1.5-.1c-.3.1-.4.4-.3.7.2.5.3.6.9.8.6-.5 1.1-1 2-1 .4.6.9.7 1.5.3.2-.2.4-.3.7-.2h.3c.5 0 .7-.5.4-.9l-.7-.7c.5-.2.6.3 1 .3.5-.4 1-1 2-.8l.1-.8c.6 0 1.1 0 1.4-.6l-.4-.5.1-.3Zm12.7 2.9v.1l1 .4c.2 0 .4.2.6.1h.4v-2l-.1.1c-.4-.3-.5-1-1.3-.8 0 .2 0 .5-.2.6l-.6.2v.2c.4.3.5.6.2 1v.1Zm2 1.3H59l-.8.6-.2-.7-.8 1.2-1 .1.4 1.1 1.3.2c.4 0 .5 0 .6-.6.3.2.6.3.9.2V54Z"/><path d="M50.8 37.1c-.3-.2-.3-.7-.5-1.2-.5-.3-1 .2-1.6 0-.2-.2-.1-.6-.6-.7-.5.5.2.8.2 1.1l-1.2 1.4c.8.3 1.8.4 1.7 1.6-.5 0-1-.2-1.3.4.4.1.7.2.8.5v.3H48c-.2-.2-.3-.5-.7-.5l-.4.5.2.5c.2.5.8.7 1.3.3l1-1h.5c.3-.5 0-1 0-1.5q.4-.3.7 0c-.3.5-.5 1-.2 1.5 0 .3-.2.5-.3.8l.2.3h.4c.4-.3.4-.7.1-1.1v-.1l.2-1.3.6-.6c-.3-.4-.4-.8-.8-1.2Zm-3.9 3.4Zm9.8-30.8Zm.5-1.2Zm.4.7v.1l-.8.4c-.1.4 0 .6.4.8l-.3.3-.8-.8c-.5.1-1.1 0-1.6.4 0 .5.2 1 .3 1.4l-.2.5h-1c-.4.5-.3 1.1-.8 1.4v.7c0 .1 0 .2.2.2 0-.6.6-.9.9-1.4l.7-.1-.3.6.3 1-.7.7c-.3-.1-.5-.1-.7.1h-.4l-.5.8c.2 0 .3.3.4.2.6-.1.7.2.8.6.3 0 .4-.2.5-.3l.4-.3-.1-.5c.7-.2.8-.9 1.2-1.4l-.3-.3h.7c-.2-.6-.7-.5-1-.9l.3-.3.3-.3c.5.2.9-.1 1.2-.4.3-.2 0-.4-.2-.5l.5-.6c0-.3.3-.4.6-.5 0-.7.3-1.3.7-1.9-.3-.3-.7-.4-1.1-.4l-.3.7h.7Zm-1.1 2.7-.3.4-.2-.6.5.2Zm-3.3 19.7c.1-.7 0-.8-.6-1l-.6-.3-.6.4v-.5l.2-.3h-.7c-.6 0-1 .3-.8 1 0 .4 0 .7-.2 1l.5 1h.2v-.5l.3-.5v.8l.3.5c-.8 0-1 .5-1 1l.6.6c.2.1.4.3.6.1l.3-.7c.6.2 1-.4 1.5-.6l.2-.4-.1-.6c-.3-.3-.1-.7 0-1Zm-2.2-.1c0-.3 0-.4.4-.4 0 .3-.1.5-.4.4Zm2.3 1Zm5.6-21.2.5.2v-.9c-.3.2-.4.4-.5.7Zm0-3.7c-.4.1-.6.3-.3.6v1l.8-.1V8h-.2l-.3-.5ZM47.2 45.4v-.5l-.2-.3c-.1-.4-.2-.8-.4-1l-.8-.4V43l.8-.3q-.2-.4-1.1-.9l-1.1.6.3 1.3-1-.2-.2 1.7c.2.2.5.4 1 .4-.3.7.1 1.3.1 2 .7 0 .9-.6 1.1-1 .3-.3.2-.9.3-1.4.4-.4.7.7 1.2.2ZM39 48.6zm1-3.7-.2.1q-.4-.2-.7-.6c-.4.3-.3.7-.4 1l-.2.2c-.6-.3-1 .1-1.2.5-.1.3-.3.4-.5.6l-.3.5c-.3 0-.4-.2-.3-.5.3-.4.2-.7-.2-1-.3-.1-.6 0-.9.3l-.7 1c-.1.2-.2.6 0 .9l.5.6c.7 0 .8 0 1.5-.7.2 0 .5.3.6-.1V47l.3-.3.3.1.3.4c.1.3.3.6.7.7l.1.2c0 .3.1.4.3.4 0 0 .2-.2.1-.3 0-.4.2-.7.4-1l-.3-.5.5-.8 1 .5c.2-.8.2-1-.8-1.6Zm5 5.7Zm.5 1.1c.3-.2.4-.5.7-.6.2-.2.5-.2.8-.2l.7.4.2 1 1-.7-.6-1 .5-.4c.4-.4.4-.6 0-1l-.5-.5c.4-.2.8-.4.6-1l-.5-.3c.2-.6.6-1 .2-1.7l-1 .3q.5.3.4.8-.7 0-.9.6l.8.7c-.3.2-.5.3-.4.7 0 .3.1.7-.3.9l-.4-.8c-.2-.3-.5-.3-.8-.3-.3.5.3.8.3 1.3l-.5-.3-.2.1-.6.9.3.5.2.6Zm12.1-16.3.6-.2.6.7c.1-.2.4-.3.6-.4v-1.4l-.7-.6c.4-.4.4-.8.2-1.1-.2-.4-.5-.8-1-.8l-.9.2-1 .5.1.3c.4 0 .5.3.6.6l.3.6-.3.6c.2.2.5.1 1-.4l.2.5-.5.3.2.6Z"/><path d="M52.2 14.2c-.3-.2-.3-.4-.2-.6.2-.3 0-.6 0-1l-.8.2c0 .2-.2.4-.3.5l.3.8-.4.5.3.5H51l-.4.1a3 3 0 0 0-.4.8v1c.1.2.5.3.5.7.1.3.5.1.7.2l-.2-.3q.9-.2 1.2-.7c-.4 0-.7-.3-.6-.8l1-.6.3-.6c.1-.2 0-.2-.2-.3l-.2-.2c-.2 0-.4-.2-.5-.3ZM25.7 52c-.2-.4-.6-.3-1-.4.2-.3.4-.6.4-1 0-.3.5-.5.3-.9a2 2 0 0 1-1.2-.4l-.2-.1c-.5-.3-.8 0-1.2.7-.3.4-.2.8.2 1.1 0 0 .2 0 .2.2l1 .8H24l-.4.1c-.2.2-.1.4 0 .6l.3.2c.4-.3.6-.5 1-.4.4 0 .8-.1.9-.5Zm19.2-20.9-.9-1.3c-.1-.2-.3-.3-.5-.2-.2 0-.3.3-.2.5 0 .3.1.7.6.8h.2c.1.5.5.6 1 .7.3 0 .5.6.5 1v.8l1 .1c0 .5.3.8.8.8.3 0 .3 0 .6-.5-.2-.6-.6-.7-1.2-.7l-.1-2.1c-.6-.2-1.2-.3-1.8.2Zm-5.4 28.3Zm-2.3-37.6c.2.3.2.7.3 1 .5.1.8 0 1-.4.4-.3.3-.3 1-.4l-.2.6.8-.5.7.2c.1-.8.1-.8-.5-1L40 21l-.3-.3c-.6 0-.7.5-.9 1l-.7-.6.2-1-1.4.6c-.1.4 0 .7.3 1ZM53.3 55l-.1.4-.2.4h-.8c-.5-.1-1 0-1.3.3-.2.3-.2.7-.3 1 .8.4 1.2.3 2-.5.3.4.7.4 1.1.2l.7-.7c.4-.5 0-1-.6-1h-.5ZM28.2 38c-.2-.2-.4-.4-.7-.3H27c-.4 0-.6.2-.7.6-.2.6.1 1.7.7 2l.3.1h1v-.2a1 1 0 0 1 0-1.1c.3-.5.2-.9-.1-1.2Zm19.3 20.6c.2 0 .2.2.3.4 0 .3.3.4.5.2.2-.3.5 0 .7-.3l.3-1c0-.2.1-.3.2-.3v-.3c0-.5-.4-.5-.8-.6v-.9c-.7 0-.7 0-1 .6-.1.4 0 1-.6 1.3 0 .4 0 .7.4.9Zm1.4-.8v.3h-.2l-.2-.4.4.1Zm-22 .2c.6.6.6.5 1-.1 1 .2 1.2 0 1.4-1h.3v-.2c-.2-.1-.3-.2-.5-.1l-.4-.3.6-.1-.5-.4c-.4-.4-.4-.4-1-.1-.1.4.2.6.3.9-.3.2-.4-.2-.6-.2l-.6.4c-.4.2-.4.7-.1 1v.2ZM53 27.6Zm1-1.4ZM52.9 25c-1.1.7-1.1.7-1 1.6.3 0 .6.1.7.5 0 .2.3.4.4.5h.4c.3 0 .2.3.5.5.4 0 .4.4.2 1 .4 0 .5-.4.9-.5l-.8-1.5c-.1-.2-.4-.5-.2-.8-.7-.2-1.1-.5-1.1-1.2Zm-21.2 5.3v.5l.7.2c.6.2.7.1 1-.5l.2-.2.5.4.3-.5-.6-1.2h-1.3c-.1-.1.1-.6-.4-.5q-.1.5.4.9c-.2.3-.6.2-1 .4l.2.5Zm8.6-4.9-.3-.5c-.5-.2-.9 0-1 .5h-1.2l.1.8c.5 0 1 .5 1.4 0l.8.6c.3-.1.3-.4.5-.5 0-.2.3-.3.6-.4 0-.4 0-.8-.5-1-.2 0-.3.2-.4.4Zm1.2 34h1c-.4-.3-.6-.3-1 0Zm12.1-.8Zm1.7.7L56 58c-.3-.5-.7-.5-1-.6l-.5.2c0 .6-.6.6-1 1l.3.7h1.6v-.2Zm4-1.5V57c-.1.2-.2.5 0 .7Zm.1-20.5v-.5a8.4 8.4 0 0 0-1.1-.6c-.2 0-.3-.1-.4-.3-.2-.3-.5-.3-.6 0-.2.3-.3.6 0 .9l.8 1 .3.4h.6l.2-.9h.1Zm-.4.9Zm-27.2 3.1.9-.1-.4-.8c-.3-.7-.8-.9-1.6-.6 0-.5-.3-.8-.8-.8v.5c.3.3.5.5.4 1l.1.2c.4.3.8.7 1.4.5ZM53 27.7Z"/><path d="M52.9 28.2c-.2-.4-.2-.8-.6-.8h-1v.9c.1.4.3.7.7.9h.4l.7-.1c.6-.2.7-.6.4-1l-.5-.4v.2l-.1.4Zm-28 16.3c-.3-.2-.7 0-1 0l-.3.6c.2.9 0 1 1.1 1.2.3 0 .5.2.7.3l.1-1.1c0-.5-.2-.8-.6-1Zm5.4-25.8c.4.5.4.5.9.3h1c.3 0 .8 0 1 .5l.6-.3-.5-1.2c-.5.1-1.1-.2-1.5.4l-1-.4-.5.7ZM52.9 8.4c.2.3.6.4.6.9 0 .2.4.4.6.7a3 3 0 0 1 1.5-1.6c.1-.5-.3-.4-.5-.6H55l-.2.4-1.5-.5-.4.7ZM49 26l.2.9.1.1c.6-.1.9.4 1.3.5q.3-.5-.2-2.4l-1 .4c-.3 0-.4.2-.4.5ZM37.4 59.3h.5l.6-.2c-.2-.3-.2-.7-.6-.8l-.1-.6c-.5 0-1 .2-1.4.3l-.3 1 .5.4h.8Zm5.7-39L43 20h-.4v.6l.2.7-.2.4h.1q1.6 0 2-.2a53 53 0 0 0-.3-1.1c-.3-.4-.8 0-1.2 0ZM59.4 50Zm-23.1 1.3.3.3.2-.3V50c.2-.7 0-1-.9-1l-.3-.1c-.5.4-.2 1-.2 1.4l.3.3h.6v.7Zm22-20.3.7-.2.2-1.1c-.3-.5-.7-.3-1.1-.2l-.7-.5c-.4.3-.4.4 0 1.7h.7s0 .2.2.3Zm-9.8-7.4s.2.1.2.3v.5c0 .5.2.9.7 1l.2-.4c.2-.1.5-.2.6-.4v-.8c-.6.2-.9-.3-1-.6-.3-.3-.5-.5-1-.4 0 .3-.2.6.3.7Zm.9 1.9ZM50.7 7c-.5.1-1-.2-1.4.1v1l.7.1.1.4c.3 0 .8-.1 1 .5.1-.2.3-.4.2-.7-.2-.3 0-.8-.5-1v-.5Zm-9.1 19.4c-.7.5-.7 1 0 2-.3.4 0 .8 0 1.2l.4.1c.4 0 .6-.3.7-.7 0-.3-.2-.5-.4-.6l-.4-.3c.4-.6.2-1.2-.2-1.7Zm-14.2 8.5c.4 0 .8 0 1.2-.2l.3-.3.5-1.2-.3-.3c-.4-.2-.7-.1-.9.2l-.4.5c-.4.4-.5.7-.4 1.3Zm22.8 8.9-1.1.7q-.7 0-1 .5l.7.6c.5-.1 1-.3 1.2-.7.3-.4.6-.5 1-.4h.3l-.4-.6c-.2-.3-.4-.4-.7-.1Zm1.1.6Zm.9 2.6-1.2-.2-.1.5c0 .4-.1.8-.4 1-.1.3 0 .6.2.8h.7c.2-.1.3-.4.3-.7l-.3-.4c.5-.2 1-.2.8-1Zm5-38.6Z"/><path d="M55.4 7.3l.4.2.5-.3v.1c0 .5.1.8.6 1l.2.1c0-.1.2-.3.1-.4 0-.3 0-.6.3-.7-.3-.5-.7-.5-1.1-.3l-.2-.4c-.1-.4-.3-.5-.6-.3-.6.5-.8 1-.6 1.5l.4-.5zM42.8 43.2l-.4-.2H42c-.5-.2-1 0-1.4.1 0 .3 0 .6.2 1v.3c-.1.4.2.6.4.7h.3c.1-.2.2-.4.1-.5 0-.2-.2-.3-.4-.5l1.3-.6.3-.3zM34 58c.7 0 .8 0 .9.8.8-.1 1-.3.4-1.3l-.3.2-.3.1-1-.8c0-.3.2-.5.3-.7 0-.2 0-.4-.2-.5l-.5.1c-.4.4-.3.7 0 1.1l.7 1zm-3.2-19.8l.7.2v-2l-1.4.4c-.3.7 0 1.3.7 1.4zM38.7 50l.2.3c.2.4.5.5.8.2.3-.2.5-.5.6-.8.1 0 0-.3 0-.4h-.5l-.4.5v-.6c0-.3-.2-.5-.5-.6-.6.5-.6.7-.2 1.3zm.3-1.4zM41.6 18h.7l.5.7c.3.4.4.4.7.3s.3-.2.1-.8l.7-.2-.8-.5c-.5-.3-1.3-.1-1.8.5zm-9.1 35.1c.4 0 .7 0 1-.2l.2-.5c-.1-.3 0-.7-.3-.9l-.2-.4c-.4 0-.5 0-.6.3l-.5 1.2c0 .3.1.6.4.5zm15.8-9.8c.2.2.5.3.7 0V43c0-.7-.6-.9-1-1.3l-.3-.1-1-.1c0 .6 0 .5.4.8s1 .4 1.2.9zM25.7 26.8l.5.2c.6.2 1 0 1-.5v-.9h-.5c-.1 0-.3 0-.5-.2-.5.4-.6.8-.5 1.4zM47 53v-1.2c-.7-.2-1.1.4-1.7.5l.5 1.3 1.2-.7zm3.4-23.5c.6-.8.6-1 0-1.7v.8c-1.2.1-1.3.2-1.4 1.1.6.3 1.1.2 1.4-.2zM42.1 32l-.6.5c0 .4.5.5.3 1 0 .1.1.4.4.4.2.1.7-.2.6-.4-.1-.4.2-.8.2-1.2l-.9-.2zm-3.8-1l.7-.4.2-.9c-.1-.2-.3-.2-.5-.2l-.6-.1c-.8.7-.7 1 .2 1.6zM17 46.3l-.2.6c0 .3.1.6.4.7l1 .2.1-.7c0-.4 0-.7-.3-.8h-1zm21.4 9l-.1.2v.2c-.4-.3-.8-.2-1.2 0-.4 0-.4.4-.6.7.6.4 1.2.4 1.7 0l.4-.4c.2-.3.2-.5-.2-.7zM53.5 45c-.4-.2-1 0-1.1.3-.3.4-.2.8.1 1.1.3.2.8.1 1-.3.3-.3.3-.9 0-1zM40 57.2c0-.5.1-1-.1-1.7-.4.1-.6.2-.7.5 0 .2-.2.3-.3.4-.1.3 0 .8.1 1a.67.67 0 0 0 1-.1zm1.7-52.5l-.6.8c0 .3.2.5.5.6l.7.3.4-1.2-.4-.3c-.2-.1-.5-.3-.6-.2zm1.7 8.5zm-.2-.2h-.5v.2c0 .3 0 .6.2.9l.5.2-.3.6c.2.3.5.4.9.3v-.3c0-.3-.3-.5-.2-.9l-.3-.4s-.2-.2-.1-.4l-.2-.3zm1.7 44.7l-.2-.6c-.1-.6-.2-.7-.9-.7l-.3 1.2c.6.5.8.5 1.4 0zM39 33.4c-.7-.7-.7-.7-1.4-.4q-.3 1 .6 1.4c.5-.2.5-.7.7-1zm-3.9 15.5c-.3-.2-.5 0-.6.3l-.9 1.8c1 0 1.5-.8 1.5-2.1zm13.1-23.5q.3-.6-.4-1.3l-1 .5c0 .3.2.5.4.7h1zm-4 11.6c.3 0 .6.3 1 .4l.7-.3-.4-.6c-.2-.2-.2-.4-.2-.6l-.7.2c-.3.1-.5.4-.4.8zm1.1-1.1zm-1.1-16.8l-.6.3.5.6.3-.4h1v-.5c-.3-.5-.7-.6-1.2-.6v.6zm-11.9-3.8q-.4.1-.9.6l.1 1c1.3-.5 1.4-.7.8-1.6zM59 6.7l.4.1v-.5l-.3.4zm-5-3.2c-.5.5-.5.7 0 1.2l.3.4c.9-1 .8-1.2-.2-1.6zM44.8 17l.1.3c.1.2.3.3.5.2s.3-.3.1-.5l-.2-.5c0-.3-.1-.5-.4-.6l-.5-.2c0 .5-.2 1 .4 1.3zM32.5 48c-.3.9 0 1.2 1 1.7l.2-.5-.6-.8a.8.8 0 0 0-.6-.4zm7.9-17.6c-.2.4-.1.6.2.8.4.2.8.2 1 0 .1-.4 0-.8-.3-1-.4-.2-.7-.2-.9.2zM43.6 46l-1-.2c-.2.4.2.3.3.5l-.2.5c.2.1.3.3.5.3.3.2.6.1 1 0l-.6-1zm-13.2 8c-.1-.5-.1-.5-.5-.5s-.9.1-1.2.4c0 .3 0 .5.3.6h.6c.3 0 .6-.3.9-.4zm7.8-42q0 .5.4 1.3l.7-.2c.1-1.2 0-1.4-1-1.1zm5.7 14.5l1.3.4c.4.2.5 0 .6-.4l-1.2-.8-.7.8zM37 37.2c-.2.2-.2.5.1.6.2.1.5 0 .7-.2l.1-.4.1-.4-.8-.4-.3.8zm-3.9 10.3c.2-.1.3-.4.5-.7l-1.1-.4c-.2.4-.6.6-.3 1.2.3 0 .6 0 1-.2zM50 21.2v-.5h-.7c-.5.1-.6.4-.4.9l.2.3c.5 0 .7-.4.9-.7zM26.2 31c-.3-1.1-.5-1.3-1.3-1.1 0 .8 0 .9 1.3 1.2zm17.1-4c-.8.6-.9 1-.2 1.7.6-.6.6-.8.2-1.7zm4.9 3.8c.2-.2.3-.4.2-.7-.2-.3-.4-.4-.7-.4s-.5.2-.5.9c.3.1.5.5 1 .2zM51.8 6c-.3 0-.5 0-.7.3-.2.2 0 .5.1.8.6-.2 1-.4 1-1.2h-.4zm4.5 22.5l-.7 1.2c0 .4.2.6.7.8-.3-.7.4-1.1.4-1.7l-.4-.3zm-6.6 3.8c-.1-.3-.3-.5-.6-.5-.4 0-.5.4-.6.8.2.2.4.5.8.4.3-.1.4-.5.4-.7zM22.3 41c-.3-1.1-.6-1.3-1.4-1 .2.8.8 1 1.4 1zm7.5-6.5l-.4-.3-.2.2v.3l.1 1.4c.8-.5.5-1 .5-1.6zM58 5.5l-.4-.4c-.8.4-.8.5-.5 1.4.6-.1.8-.5.8-1zm0 0zM46.6 22c0 .2.4.3.6.2l.7-.6c.2-.2 0-.4 0-.5-.2-.1-.3-.3-.5-.1l-.3.2v.1l-.2.2c-.3.1-.4.3-.3.5zM32.8 33.2c.2 0 .5-.2.6-.4l-.1-.7c-.5.1-.8.2-1 .5v.5c.1 0 .4.2.5.1zm18.7 13.2l.3-.1.1-.4v-.4h-1.4v.3c.5-.1.5.7 1 .6zM29.8 26.8c.2-.2.4-.4.3-.7 0-.5-.4-.6-.8-.8-.3 1-.2 1 .5 1.5zm12.5 30.4c.3 0 .5-.2.6-.5l-.5-.8c-.5.2-.7.4-.6.8 0 .2.2.4.5.5zM30 47.4c-.2-.3-.3-.7-.7-.7l-.8.8c.1.2.4.3.7.5l.7-.6zm18.3 6.4c.3-.3.3-.3.2-.9-1-.1-1.2 0-.8 1 .2 0 .4.2.6 0zM45.2 7.9c-.4.6-.4.8.2 1.6.5-1 .5-1.2-.2-1.6zm5.1 1.7l-.3.7c.3.3.7.4 1 .5l.3-.2-.1-.2q-.2-.6-1-.8zM54.7 32l-.1-.3H54l-.8.8.5.1c.7.3 1 0 .9-.6zm-1.4.5zM30 58.2c.3 0 .5.2.7-.1.1-.2.2-.5 0-.7l-.5-.5-.4.6c-.1.3 0 .6.3.7zm5.3-48c-.5.9-.3 1 .7 1.3q.1-1-.7-1.3zm.1 15.8l.7.2c.3-.2.6-.5.3-1-.4 0-1 0-1 .7zM19.5 49.8q.6-.2.7-1h-1l-.1.8c0 .2.2.3.4.2zM24 34.5c0 .9.2 1 1.1 1.2 0-1-.2-1.2-1-1.2zm10-22.3c0 .2.1.4.4.5h.1c0-.6.8-.3.8-1l-.7-.4-.6.9zm3.8 3.1c.3.3.5.6 1.2.7-.4-.5.1-1-.4-1.3-.4 0-.6.3-.8.6zm1.7 12.5h-.7c0 .6.2.9.6 1 .3 0 .5-.1.5-.4s-.2-.6-.4-.6zm-16.7 8.5c-1 .5-1.1.9-.5 1.6.2-.6.7-1 .5-1.7zm29.3 22.2c-.3.3-.7.5-.7 1h.8c.1-.4.2-.7 0-1zM50.4 47q-.4 0-.8.8c0 .2.2.3.3.5.6-.3.6-.8.5-1.3zM39.9 33.9l-.6.5c0 .4.1.7.5 1q.5-.7 0-1.5zm12.5-22.3v.2c0 .2.2.4.4.4L54 12l-.3-.3c-.2 0-.5 0-.7-.2s-.4 0-.6 0zM51.6 25c.4 0 .4-.7.9-.7l.2-.5c-.5.2-.9.3-1.4 0l.3 1.2zm-6.3 2.3c-.2 0-.3.1-.2.3v.3c0 .7.1.7.8.5h.1l-.3-1c0-.1-.2-.2-.4-.1zm-9.5-12.1c-.3 0-.6-.1-.8 0-.3.2-.1.5.1.7l1-.1c0-.4-.1-.6-.3-.7zm9.8 32c0 .2 0 .5.3.6h.7c0-.5 0-.7-.5-.8-.2 0-.4 0-.5.2zm7-26.4c0-.2 0-.4-.3-.5-.3 0-.4.1-.5.4l-.3.7c.4.1.6-.4 1-.2v-.4zm-32.2 7.6a.8.8 0 0 0-.8.2l.2.7c.6 0 .7-.1.6-1zM35.5 8c-.3-.2-.5-.2-.8.3l.6.6h.4v-.5a1 1 0 0 0-.2-.3zM32 54c.3 0 .5.2.6.5.3-.3.6-.5.5-1-.5-.3-.8.7-1.3 0v.2l.1.3zm19-42.1c.8 0 1 0 1-.7h-1v.6zM34.5 46.5l.2-.8q-.4-.2-1 .2c.1.4.3.8.8.6zm-2.9-23.7c-.6-.3-.7-.3-1.4.3.6.4 1 .3 1.4-.3zM46 40.5v.7l.5.4v-.7c0-.1.4 0 .4-.4-.3 0-.5-.2-.8-.4l-.2.4zm.9 0zM23 38.4c.2.6.7.7 1.3.6-.5-.8-.7-.9-1.4-.6zM27.2 53c-.2-1-.4-1-1.1-.6q.3.8 1 .5zm10.3-25.6c-.3 0-.6 0-.9.4l.1.4c.2.2.6 0 .8-.3.1-.2.2-.3 0-.5zM49 34.1c-.4 0-.4.3-.4 1 .6 0 .9-.2.8-.5a.47.47 0 0 0-.5-.5zm-16 2.8l.2.3.4-.5-.6-.7-.2.4-.4-.2v.5c.2 0 .4 0 .5.2zM40.2 9q-.1 1.1.5 1.1v-.8l-.5-.2zM26.6 48.7v-.4l-.5-.8-.4.3.4.8c.1.2.3.3.5.1zm6.7-25l1.3-.3c-.4-.8-.5-.8-1.3.3zm4.4 25c.3-.1.3-.3.3-.6-.1-.3-.2-.4-.6-.4H37c.3.3.2.8.7 1zm-.7-1zm5.6 6.7q-.6-.2-1 .5c.5.4.8.3 1-.5zM34.4 33c-.5.3-.6.7-.3 1.2.7-.6.7-.6.3-1.2zm-7.8-8.7l-.3-.7-.6.3c.2.7.4.8 1 .4zm-.5 20.1c.3-.2.4-.5.2-.8h-.6c-.2.2-.2.5 0 .7 0 0 .3.1.4 0zM53 47c-.2.1-.3.4-.4.6 0 .2 0 .3.2.4l.6-.7-.1-.3H53zM36.2 35.1c-.3.4-.1.7 0 1l.6.3c.1-.7-.2-1-.6-1.3zm-1.5-14.4c.5-.3.6-.5.3-1.3-.3.4-.6.8-.3 1.3zM51.6 44l-.3.4c.3 0 .4.2.7.3h.5q-.2-.6-.9-.7zm-.3.5zm-19-3l-.5.4.4.8c.5-.4.5-.7.1-1.2zm9.1-8.7c-.3-.4 0-.8-.5-1l-.2.6c-.1.2-.2.4 0 .5h.7zm3-19l.1.6c.2.1.5 0 .7-.2 0-.3 0-.6-.4-.6-.2 0-.4 0-.4.2zM17 35.8c.2 0 .3-.1.4-.3-.3-.4-.4-.5-.7-.4-.2.1-.2.3-.2.5.1.3.3.3.5.2zm33.6-13.6c-.1.2 0 .4.1.5.3.2.5.2.7 0l.1-.4.2-.4q-.8.4-1.1.3zM49 5.3q.7.1 1-.4l-.5-.3c-.3.2-.5.4-.4.7zM32.7 34.2c-.2.3 0 .6 0 .8l.5.1.1-.2-.3-.7h-.3zm14.7 20.3l.3-.5-.6-.5c-.4.7-.3.8.3 1zm.4-.5zM27.1 31.2a1 1 0 0 0-.8.8l.4.4c.2-.4.4-.7.4-1.2zm12-16.7v.4l.7.2c0-.5 0-.8-.7-1v.4zM29 29.2v-.5l-.5.1-.2.4c.3.3.6.4.8 0zm7-10.4l-.2.4c0 .3.3.5.6.6q.1-.7-.4-1zM50.5 6c-.2 0-.4 0-.5.2s0 .4.2.5.4 0 .5-.2c.1-.1 0-.4-.2-.5zM26 54l-.2-.3c-.2-.1-.3 0-.4.1 0 .2-.2.4-.4.6h.7l.3-.4zm-3.2.1c.3-.2.7-.3.4-1-.1.2-.3.3-.6.4 0 .2 0 .4.2.6zm4-5.1l-.3.2v.7c.4 0 .6-.3.6-.6l-.3-.3zm25.9-19.2c0-.2-.3-.3-.4-.3l-.3.3v.5c.2 0 .4 0 .6-.2v-.3zm-.7.5zM39 16.8l-1-.2c-.1.4 0 .5.4.6.4 0 .5 0 .6-.4zm12.4 18.9q.3 0 .7-.3c-.1-.3-.3-.4-.7-.5.3.3-.2.5 0 .8zm0-.8zm-20.9 1.4c.3-.3.5-.6.2-1-.6.2-.6.3-.2 1zm-1.7 9.2c.3.3.6.6 1 .3 0-.2-.2-.3-.3-.5l-.7.2zM37.2 18l-.7-.4-.4.3c.3.4.7.3 1 0zm19-15v-.5c-.3-.1-.6 0-.6.3l.1.4c.2.1.4 0 .5-.3zM32.7 27.8c0 .3 0 .5.3.6.2-.3.2-.5 0-.8-.2-.1-.3 0-.3.2zm12 25.4l.3-.1v-.3l-.2-.1-.4-.2c0 .5 0 .6.3.7zM42.5 10c-.2-.2-.3-.1-.4 0-.2.2 0 .5.1.5h.5c.1-.3 0-.4-.2-.6zm5 18.3q.6-.3.6-.8c-.4 0-.6.3-.6.8zM34.2 53.6l-.6.2v.7c.4-.1.6-.3.6-.9zm-4-1.2c.2.6.4.6.9.4-.3-.3-.5-.6-1-.4zm11.2-37.8q0-.6-.7-.6 0 .4.7.6zM24 31.3l.2-.5-.2-.4q-.5.4 0 .9zm21.8-12.4c0 .6 0 .6.6.6q-.1-.5-.6-.6zm-20 13.6c-.3-.1-.6 0-.6.1l.2.4.5-.1-.1-.4zM27.3 14c-.1.4 0 .6.2.7l.3-.2c0-.3 0-.4-.5-.6zm4.4 32l-.5.3c0 .4.3.5.9.4l-.4-.6zm15.4 9.3c.2.3.5.3.7.2l.2-.2s0-.2-.2-.2c-.3-.1-.5 0-.7.2zM30 17.6a1 1 0 0 0-.5-.1l-.1.2.5.4c.3-.2.2-.4 0-.5zm11.2 6.9l.1.4c.4.1.5-.2.6-.4-.3-.2-.5-.3-.7 0zm4.5-8.6l.3-.8c-.6 0-.7.2-.3.8zm-11 12.5zm.6-.2c-.3-.3-.4 0-.6.2l.4.4c.3-.1.4-.3.2-.6zm19.2 1.5l-.2.2v.3l.5.3c.1-.4 0-.6-.3-.9zm-18.7 6.9c-.1.3 0 .5.2.6h.3c.1-.1 0-.3-.2-.5h-.3zM54 26.2zm1-.2c-.4-.3-.6-.2-1 .2.4.2.8.1 1-.1zM28.2 51.9h-.4l.2.5h.4c.1-.3 0-.4-.2-.5zM41 14.8l-.4.2c-.1 0-.1.3 0 .4s.3 0 .4-.1v-.5zm17.9 33.9c-.1-.3-.3-.3-.7-.1l.4.6c.4-.1.4-.4.3-.5zM59 2.3c0 .3.2.5.4.6v-.4l-.4-.2zM42.5 14.7h-.2l-.2.5.4.4.2-.7-.2-.2zM48.9 28l-.3-1c-.1.6 0 .8.3 1zM22.5 51l-.2-.1c-.3-.1-.4 0-.4.4.2 0 .5.2.6-.2zm27 6.6c.5.2.5.1.5-.5l-.5.2v.3zM32 34.6c0-.3-.2-.6-.6-.5q.1.6.6.5zm8.3 2.5s.3.1.4 0c.3-.1.1-.3 0-.6-.4.2-.5.3-.4.6zm10.9-17.4h.6c-.2-.2 0-.4 0-.7l-.6.7zM22 34.6l-.5.1v.4l.5-.1c.1-.1.1-.4 0-.4zm6-15.8c-.1.2 0 .5.2.6h.2l-.1-.6H28zm11 40.3c.2-.5.2-.6-.3-.8-.1.3 0 .6.3.8zM29.7 24s.3 0 .4-.2v-.5l-.4.3c-.1.1-.2.3 0 .4zm14.1 29.6l-.7.2.3.6.4-.6v-.2zM30 28.3c.4-.2.4-.2.2-.6q-.3.3-.3.6zm1.4 23l.8.2c0-.6 0-.6-.8-.2zM56.7 9.7zm-.1-.7h-.4v.3l.5.4c.2-.3.1-.6-.1-.7zm-9.1-1.3q-.4-.2-.7.4c.4 0 .7 0 .7-.4zm-5.6 5.9q-.2.4.2.7c.2-.4 0-.6-.2-.7zM39.5 48q.5.2.7-.3c-.5-.3-.5 0-.7.3zM43 16.4l.4-.2v-.4h-.3l-.3.4.2.2zM44.9 52c.3-.2.3-.4 0-.7-.3.2-.5.3-.3.6h.3zm-20.8 4.7l.5.3c0-.4.1-.6-.2-.7l-.3.4zM52.3 4.8c.3-.1.5-.3.4-.7-.5.2-.5.2-.4.7zM35.6 56.5h-.3l.1.5h.4l-.2-.5zm2.1-43.7l-.3.1.3.3c.2 0 .4 0 .4-.2 0-.3-.2-.3-.4-.2zM39.8 29v.3l.2.4.3-.7c-.1-.2-.3-.2-.5 0zm-8.2 28.3c0-.4-.3-.5-.7-.3.2.3.3.5.7.3zM50 10.8l-.1-.4-.4.1c-.1.2 0 .4.1.5l.3-.2zM39.9 33.3c.5 0 .4-.3.4-.6-.4 0-.5.3-.4.6zm-9.4 17.5c.3-.3.5-.5.3-.8-.3.1-.3.4-.3.8zm1.3-1.6c-.2 0-.4 0-.7.2q.5.2.7-.2zM59.4 5.3v-.5c-.3.3-.3.4 0 .5zm-1.1 20.2c-.1.4.1.6.5.7 0-.4-.1-.6-.5-.7z"/><path d="M43.4 13.2c.3.2.5.3.7 0v-.3c-.3-.1-.5 0-.7.3Zm0 0Zm-4.6-4.7s0 .2.2.2l.3.3q0-.6-.5-.5ZM54 7.3h.3l.3-.3c-.5 0-.6 0-.6.2ZM29.3 44.2q0-.4-.6-.5c0 .4.3.5.6.5Zm13.1-27.5.2.3h.3c0-.2 0-.3-.2-.5l-.3.2Zm-7.7 11.7Zm-.5 0c-.2.2 0 .3.1.5.3 0 .4-.3.4-.5-.2 0-.3-.2-.5 0Zm17-18v.2h.6c0-.3-.2-.4-.3-.6l-.3.4Zm-1.1 11c.1.4.3.4.6.4q0-.4-.6-.4Zm3.5 37.2Zm-.9.2c.4.1.6 0 .9-.2l-.5-.2-.4.4Zm-17.6-2.3c-.1-.3-.3-.5-.6-.4 0 .5.3.5.6.4ZM44 27.8l.2.4h.3v-.4H44Zm-13.5-6v.5l.5-.5c-.2-.2-.4-.2-.5 0Zm2.2-7.6c.3-.1.4-.3.4-.6-.4 0-.4.3-.4.6ZM32 37.1c-.1 0-.2.2-.1.3 0 .3.2.2.5 0 0-.2-.2-.4-.5-.3Zm22.7 9.7-.2-.1c-.2 0-.4.2-.2.5.3 0 .5-.1.4-.4ZM36.8 8.7h-.2l-.2.6.3-.1v-.5ZM58.5 5c-.4 0-.4 0-.5.5.3-.1.3-.1.5-.5Zm-.5.5ZM30.1 56.8l.5-.2-.1-.5-.4.7Zm14.7 2.3c.2 0 .4 0 .4-.4-.3 0-.5 0-.5.2l.1.2Zm6 .1c0-.2 0-.2-.6-.3l.4.5.2-.2Zm-28.6-29-.3.4.2.2q.2-.2.1-.6Zm-.3.4ZM49.5 46h-.2c0 .3 0 .4.3.4.1-.2.2-.3 0-.4ZM21 31.8c-.3-.1-.4 0-.6.2q.4 0 .6-.2Zm.9-1.2Zm0 0-.1-.3c-.4 0-.4.3-.4.6l.5-.3Zm.5-2.7c0-.2.2-.3.3-.5-.5-.1-.5.1-.3.5Zm.5 24.6-.1-.4h-.4v.4h.5Zm31.3-27.2-.4.1.2.3.3-.3-.1-.1ZM29.9 41l.6.3q0-.4-.6-.3Zm11.2-11.9h-.4v.3h.4V29ZM37 24.6l-.6.2c.4.2.5 0 .6-.2Zm-1-10.1c0 .2.1.3.3.2v-.2c-.1-.2-.3-.2-.4 0Zm1.1 37.9V52h-.3l.1.4.2-.1Zm-3.7-31.3L33 21v.2l.4.3v-.3Zm-1.8 27.4h-.3v.2h.3v-.2Zm1.9-16.9H33v.2h.4v-.2Zm12.1-13.2c-.3.2-.2.5-.2.7 0-.2.3-.4.2-.7Zm-.2.7zM18.7 30v.3h.4v-.2h-.4ZM50 13.4l-.2-.3-.1.2v.3l.3-.2ZM22 56c0-.3-.2-.3-.5-.1 0 .2.2.4.5.2Zm14.4-36 .2.5.2-.3c0-.2-.1-.3-.4-.2Zm9-7.8.2.3h.2v-.3h-.4Zm.6 15.4c0 .2.2.3.3.5.1-.3 0-.5-.3-.5ZM31.6 20v.1c0 .3.2.3.4.2 0-.2 0-.4-.3-.3ZM20 34.4l-.4-.3c-.1.3 0 .4.4.3ZM53.5 23h-.2v.1l.1.3h.1v-.3Zm-18.7 4.3.2.3h.2v-.3h-.4Zm-1.3-1.1v-.1l-.4.2.2.1.2-.2ZM44 47.9v-.3l-.4.1v.2h.4Zm-13.4 6.9h-.2v.2h.3v-.2Zm28.3 3.4.2.2.1-.2-.2-.2-.1.2Zm-5.9-48v.5l.3-.2-.1-.3h-.1ZM42.6 48.3l-.2-.2h-.2v.2h.4Zm8.8-7.8h.2l-.1-.3h-.2l.1.3Zm-11-7v.2h.3l-.1-.3h-.2Zm-5.9 22 .2-.1V55l-.2.2v.2Zm24.7-7.2H59v.2h.3l-.1-.2ZM38.1 19l.4-.2v-.3l-.3.1v.4Zm3.1-6 .1.3h.2v-.2h-.3Zm5.6 15.3v.2l.3-.1-.1-.1h-.3Zm-21.5.7-.1.2v.2l.2-.2V29Zm17.3-18.1.3.2-.2-.3ZM45.5 54v-.3l-.3.1v.3l.3-.2Zm13.3-33.4-.2-.1c-.2 0-.3.1-.3.3v.2h.3c.2-.1.3-.2.2-.4Zm-.8.7.5.3c0-.4-.2-.5-.6-.3Zm1.4 21.4v-1.1H59c-.2.3-.6.5-.5 1l.9.1Zm-.4-1.1Zm-4.8-27.4L54 14c-.3 0-.5 0-.5.5h.5l.3-.3Z"/></g><circle cx="21.8" cy="46.4" r="11.8" fill="#fff"/><g clip-path="url(#A)" fill="#c5ddff"><path d="M17.9 29.7s.1-.1.2 0c.1.2.3.2.4.2l.4.1.1.3v.1c0 .3 0 .5-.3.6-.2 0-.2 0-.2.2h.4l.2.3c.1 0 .3 0 .4-.2.2 0 .2.2.2.3l.4-.1.3-.1v-.2q0-.2.2-.3h1.2l.1.5c0 .1 0 .2-.2.2l-.2-.2-.1.4H21l-.2.4h.2l.3.3c0 .2-.2.3-.3.3h-.1l-.5-.4v.1H20V32l-.2.3-.3.2h.3s.2.1.2.3l.3.2c.1-.2.4-.2.6-.2h.1c.2 0 .2.2.2.3 0 .2-.2.3-.3.4-.1 0-.1.1 0 .2l.1.2.2-.3.3-.2c0 .3.3.3.3.5q.2 0 .1-.2c0-.2 0-.3.3-.2h.1c.4 0 .5 0 .6.4h.2l.1-.5h.2l.1-.3c-.3-.1-.3-.2-.3-.5v-.4h-.3l-.1-.1-.3.2c-.2-.1-.2-.3-.3-.5.2 0 .3-.2.3-.4.2 0 .3 0 .4.2 0 .2 0 .3.2.3v.2h.4c.1-.1.2-.2.1-.3v-.1l.4.5v.5c.4 0 .4 0 .4.5H24c-.1.3-.1.3-.4.3l-.2.4c0 .2.2.4.3.5l-.3.2c.2 0 .2.2.2.3 0 .2 0 .2-.2.3h-.1c-.2.2-.2.2-.5.2v.2c.3-.1.5-.1.8 0l-.1.1.2.2.3-.1c.1 0 .2.2.1.3 0 .1-.2.1-.4 0l-.3.3h.2c0-.1.1 0 .2 0v.2h-.2l-.2.1h-.3v-.2l-.3-.2-.3-.2c-.1-.1 0-.1 0-.2l-.2-.1c-.2 0-.3 0-.4-.2 0 0 0-.1-.2 0l-.3-.1H21c-.2 0-.2-.1 0-.3h-.5c-.2 0-.2-.1-.2-.2v-.3c-.2-.2 0-.3 0-.4l-.4-.2c-.2 0-.3 0-.3-.2v-.2l-.4-.2H19v-.3c-.3-.1-.3-.2-.1-.4l.1-.2h-.6c-.1-.1 0-.3 0-.4h.1V32h.2l-.2-.1h-.3l-.2-.4v-.2s-.2 0-.2-.2h-.1l-.2-.1c-.1-.2-.4-.1-.6-.2l.2.7-.1.3-.2.3.2.1v.1c-.1.1-.1.3 0 .4v.5l.2.2c0 .1-.1.3-.3.3h-.2c.2.2.2.4.1.6l-.3.1c-.2.1-.3.1-.4 0l-.2-.3h-.2c-.2.2-.2.2-.4 0l-.1-.2c0 .3 0 .5-.2.7v.1l-.1.3v.3h-.5l-.3-.2v-.6l-.1-.2V34l.5.2.1-.4-.2-.2.2-.1c.1.2.2.1.2.1v-.3c.1 0 .2 0 .3-.2H15c-.3 0-.3-.1-.3-.3l.1-.2h-.1l-.1.3v.1c0 .2 0 .3-.2.4l-.2.1c-.2 0-.3-.2-.3-.4l.1-.2c.2 0 .2-.2.2-.3l.3-.1h.1c.1 0 0-.2.2-.3h.4q0 .3-.3.4c.4 0 .4.2.4.4.4 0 .5 0 .6.4l.2.3.3-.1-.1-.3.2-.2-.1-.7.3-.2-.5-.2.1-.4-.2-.3V31c-.1-.3 0-.4.1-.6l.2-.3h.1l.3.3.5-.1c0-.2-.2-.3 0-.5l.2.3h.5c0-.1-.2 0-.2-.2v-.3Zm3.3 5.5h.2l.2.2.1.1h.4l-.1-.4-.2-.5c-.2.1-.3 0-.4 0v-.4c-.1-.2-.1-.2-.3-.2v.4l.1.2v.5Zm1.5-1v.1c0 .2-.2.3-.4.3h-.2l.4.3.5-.4a8 8 0 0 0-.3-.3Zm.8-1.3.5.2-.2-.2h-.3Zm-4.1-.5-.3.1.3-.1ZM10 35.5c-.1-.2-.2-.2-.4-.1v-.6c0-.1.2-.2.3-.1h.1c0-.3 0-.5.4-.7h.5c.2.2.3.3.2.5v.3c-.2 0-.3-.2-.4 0 .1 0 .3 0 .4.2v.2c-.1 0 0 .1 0 .2h.4l-.2.3c.3.1.5.2.5.5l.2.1c0 .2-.2.1-.3 0v.3h-.2l-.6.2.1.4.3.1-.1.3h-.5v.3l.1.2.1.1c0 .2.1.3.3.4v.2h-.3l-.3-.1-.2-.1v.3h-.6l-.2-.4v.2c-.2.2-.3.2-.5.2 0 0-.2 0-.3-.2v-.2l-.1-.2.1-.2.1.3.5-.1c0-.3.2-.4.3-.6 0-.1 0-.4-.2-.5v-.4l.2-.1h.6l-.3-.5h-.4l-.3-.1-.2.2-.1.5c.2.1.3.2.2.4 0 .1-.1.2-.3.2l-.2-.2V37h-.2l-.2-.2c0-.2-.1-.3-.3-.3l-.2-.1.3-.2q0-.3.4-.5l.4.2h.5l.3-.2.3-.2Zm.5 1 .2.2q0-.2.3-.4l.1-.5h-.3c0 .3 0 .6-.3.7Zm0 1c0-.2-.1-.2-.3-.3q0 .4-.3.5l.1.2h.3q0-.3.2-.4Zm0 1V38l-.3-.1.2.4Zm-.2-3.6-.1-.1v.1Zm1.1 5.7h-.2v.3l-.3.1h-.4c0 .2-.1.2-.2.2l-.2.2h-.2c-.2-.1-.2-.2-.2-.3l.2-.2h.1c0-.1.2-.2.1-.3l.2-.1v-.2h-.1V40l-.2-.2.1.4c0 .4-.1.4-.4.4q-.3 0-.4-.2v.5l-.1.1-.4.2v.1h.5l.1-.2.3.5h.2l.4-.1c.2-.1.2 0 .3.1l-.3.1v.2l.1.3v.1c.3 0 .5 0 .7.2l-.1.2h-.4l-.1.1c0 .2.2.2.3.3v.4l-.4-.1c0-.1-.3-.1-.2-.4H10l-.2.3h-.2l.2-.3-.1-.2.3-.1-.2-.3h-.1l-.1.4h-.1c-.3.2-.4 0-.5-.2v-.2l.2-.2.2-.2c-.2 0-.3-.1-.4 0-.2 0-.3-.2-.3-.5h-.2v.4c0 .2 0 .3-.2.3a.3.3 0 0 1-.4-.3v-.3c-.2 0-.2-.2-.2-.4 0 0 0-.2.2-.2l.4-.3v-.3l.5.1V40c-.4.3-.6.2-.7 0l.2-.2h.6c-.2 0-.2 0-.2-.3h.2v-.3c.3.2.3.2.1.4v.2l.4-.1.2.2-.1.2.3-.1.3-.1v-.2l-.2.1c-.1 0-.2 0-.2-.2V39h.2v.2l.2-.1c.2 0 .2.2.3.4h-.1l.3.4h.4s0 .3.2.2c0 .3.2.4.3.5Zm-.9-.2c.1 0 .3.4.5.2v-.3h-.2l-.3.1ZM25.7 29l.1.4h-.3l-.3-.1c0-.1.1-.3.3-.3h.3v-.5h.2v-.8l-.2-.2v-.2h-.2V27c-.4.1-.5-.1-.5-.3l.3-.2.2-.2c.3.1.4.3.4.5l.3.2c.1 0 .3 0 .4-.2l.2-.2.2-.1.3-.3h.1l.2-.1-.2-.2-.3.2-.1.2h-.4V26c.2-.2.3 0 .5 0v-.3h-.5v-.6c-.1 0-.2-.1-.2-.3l.4.1h.5v.2c.1.1 0 .2 0 .4l.3.1.1.3.5.4.5-.4.2-.2c-.1-.2-.1-.3 0-.4l.3.1v.2c.2 0 .3 0 .4.2l-.1.2c-.2 0-.3 0-.4-.2v-.1.6l.3.1-.1.8q-.4 0-.5.2c-.3 0-.5-.2-.4-.5l-.1-.4-.2.4h-.3l-.3-.1.2.4c.2.2.1.3-.1.3h-.1c-.1.3-.3.3-.5.4 0 .1.2.2 0 .4h-.3c.2.1.3.2.3.4-.2 0-.2.2-.3.1h-.3l-.2.3.1.3h-.2c-.1.1-.2 0-.2-.1l-.1-.2h-.1Zm.6-1.5-.1.2c.2.3.3.3.6.1h-.3v-.4l-.3-.2-.1.1.2.2Z"/><path d="M27 31.8h.2c0 .1.1.2.2.1.2 0 .3.1.3.3v.4H27l-.1-.2-.1-.3c-.2.2-.5.2-.7.3-.2.3-.3.3-.5 0v.4c.1.1.2.3 0 .4l.1.2c.1.2.3.2.4.2v-.1h.5c0-.3 0-.4.2-.4.2-.2.4-.2.6 0h.2l-.5.5.1.2s.2-.1.2 0h.1l.2.2.2.2.3.3s-.1.2-.3 0c0 .2-.1.3-.2.3l.3.3-.4.2h-.3a.5.5 0 0 1-.2-.4l-.1-.2c-.2 0-.3-.3-.5-.3 0 0-.2 0-.2-.2V34l-.2.2c-.2 0-.2-.2-.2-.3h-.3l-.3-.1v.3c0 .1.3.3.4.2h.3c.2 0 .4.3.4.5v.1l-.1.4-.1.1h-.8l-.3-.1c0-.2.1-.2.2-.3v-.6c-.3 0-.6 0-.6-.4l-.4-.2c0-.1 0-.2.2-.2.1 0 .2 0 .2.2h.2l-.2-.5c.2 0 .2-.2.2-.3v-.4c-.2-.1 0-.3 0-.4.1 0 .3.1.3.3 0 0 .1 0 0-.1 0-.2 0-.3.2-.4l.1-.2.3.4h.2l.3-.2s.1-.1.2 0l.6-.1Zm-19 11 .5.1s.2.1 0 .3c.2.2 0 .2 0 .3l.4.2.2.4v.1c.3.1.4-.1.6-.3l.3.2v-.5h.4c.2 0 .3 0 .2.2v.6h-.5l.2.2H10l-.1.2.1.1c.1.2.1.3 0 .4h-.4c0 .2 0 .4-.2.4h-.6v-.3l.2-.2-.4-.2.2-.4c0-.2.2-.2.1-.4-.4 0-.4 0-.6-.4-.3 0-.6 0-.7-.4l-.4.5v.2L7 44l-.3-.2c0-.2.3-.4.5-.4.4 0 .5 0 .5-.4l-.5-.1h-.1c-.2-.1-.2-.4-.3-.6h-.2v.5c.1.3 0 .3-.2.4h-.1v.3l-.3.1c-.2 0-.3-.1-.4-.3 0-.2.1-.3.3-.4v-.2l-.1-.3-.1-.4v-.2c.1 0 .2-.1.4 0 0 0 .1.1.2 0h.5c0-.2.1-.2.3-.2v.2h-.3l.1.3.4-.4-.2-.3h.2c.2 0 .3 0 .2.2v.4c.2.2.1.4 0 .6.3 0 .5 0 .5.2Zm8.5-4.5c-.3 0-.3 0-.4-.2h.7v-.5l-.2-.2c.2-.2.4-.2.6-.2l.2-.1.2-.1h.1c.2 0 .3 0 .4.2v.3h-.3v.3h-.2l-.1.2-.4-.2-.1.1v.1c.2.2.4.3.7.3h-.2c0 .2-.2.2 0 .4l-.2.2h.3v.4l.3.3-.2.2.2.2c0 .2-.2.1-.3.2l.1.2.3.3-.1.1v.2c-.2 0-.3-.2-.4-.3h-.3c-.1.2-.2.2-.4.2-.1 0-.2 0-.2-.3v-.1c-.2-.1-.2-.2-.2-.4 0-.1 0-.3.2-.4h.2l-.2-.3c0 .2-.1.3-.3.4H16a.7.7 0 0 1-.5-.3v-.7c.2 0 .4 0 .5.2l.5.2c0-.2.2-.3.1-.5.1-.2-.1-.2-.1-.4ZM8 35.9q0 .2-.2.3v.3c0 .2-.1.3-.3.3l-.2.2-.1-.1H7l.1.3-.1.5c-.2-.1-.3-.2-.3-.4v-.5c-.3-.1-.4-.3-.3-.5L6 36a.6.6 0 0 1-.3-.5v-.4c-.1-.1 0-.2 0-.4 0-.1 0-.3.2-.3H6c.2 0 .4 0 .5.2v.5c.2.2.2.5.1.8H7c0-.2.2-.2.3-.2l.2.1.2.2.2-.2-.4-.3s0-.2.2-.3c0 0 .1-.1 0-.2l.1-.2H8s0-.2.2-.3h.1c.1-.3.3-.3.5-.1a35.8 35.8 0 0 1 .3.3v.4l-.2.4c-.2.2-.2 0-.4 0l-.5.3Zm4.3 3h-.5c0-.2.3-.2.2-.5q.3 0 .4-.3c-.2-.2-.2-.4 0-.5-.1-.4-.3-.4-.5-.4 0-.3 0-.5.3-.7.1 0 .1 0 0 .2h.3v-.2l.1-.3.3-.2s.1.2.2.1l.2.1.2.3h.3l.4.2c.2 0 .3.1.4.3 0 0 0 .2-.2.2h-.2l-.4.3v.2h-.3v.8l-.3.1-.3.2h-.2v.2h.1v.5l-.2.2-.3-.3v-.6Zm.9-1.4c0-.4.1-.4.4-.4v-.3l-.5.2s-.1 0 0 0c0 .2 0 .3-.2.5h.3Zm-.6.7c.2.1.2.1.2 0h-.2ZM33.5 28c.2.1.3.3 0 .5l-.3.3-.4-.1v-.4l.1-.2.4-.1-.2-.2H33c-.2-.2-.2-.2-.3 0h-.4l.3-.3.2-.2c0-.2-.2-.2-.3-.3-.2.1-.4.2-.4.4-.2 0-.2-.1-.3-.2 0 0 0 .2-.2 0V27c-.2 0-.2-.2 0-.2v-.2l.4-.2.1-.2-.2.1h-.5l-.2-.4c0-.2.3 0 .3-.3l-.3-.2-.2-.1.2-.2h.2v-.4l.7-.2c.1 0 0 .1 0 .2 0 .2 0 .3.2.4v.2H32l-.3.1c.4.2.4.5.4.8v.1c.2.1.3.2.3.4l.1.2c.3 0 .3.1.3.3l.4-.3.7.3v.2c.2.2.1.3 0 .5h-.3c-.1 0-.2 0-.2.2Zm-.5 5.4c0 .2-.2.1-.3.1v.3c-.3.2-.5.1-.6-.2l.1-.2.1-.1c0-.2.1-.2.3-.2.1 0 .3 0 .4-.2.2-.2.5-.2.7.2 0-.2.1-.3.2-.3l.4-.1v-.1c-.3-.1-.4-.2-.4-.5V32l-.8.2V32q-.3-.2-.2-.5l-.2-.6-.3-.2c0-.2.1-.3.3-.3h.4l-.1.3h.2s.2 0 .3-.2l.2.1v.3c-.2 0-.3.1-.3.3h-.1l.5.4v-.1l.2.2.3.3c.1.1.2.3.3.2 0 .2-.2.2-.1.4s.2.4 0 .6v.5l.1.2v.2l-.5-.1-.1-.1.1-.2c-.1 0-.2-.2 0-.3h-.3l-.4.2H33c0-.1 0-.2-.2-.2l.1.1Zm-19 7.1c.2 0 .3.2.4.3l.3-.1h.2v.3c-.1.1-.3.2-.5 0l-.3.4h.5c.2 0 .3.2.4.5l-.3.1.2.3c0 .1-.2.3-.4.2l-.1-.4h-.1v.2c0 .2-.1.3-.3.3v.3l-.1.2-.4.2v.4c0 .2-.2.3-.4.3l-.4-.3.3-.6-.1-.2.2-.3v-.3c0-.1.1-.2 0-.4l.2-.2v-.3c.3.2.4.4.7.4l-.1-.4-.3-.2v-.5l.1-.3h.2c0 .1.1.1.2 0Zm-2.2-6.3-.6-.2v-.3c-.3 0-.4-.2-.3-.6h.3c-.1-.5 0-.7.5-.8-.3 0-.4-.2-.5-.4l.3-.6c0-.2.1-.3.3-.4l.4.2h.2c.1 0 .2-.1.2 0 .1 0 0 .1 0 .2v.7l-.3.2c-.2 0-.3 0-.3.2h-.2l.1.3-.3.4c0 .1.3.1.1.3-.1 0-.3 0-.4.2h1l.2-.4.2.1h.2l.2.1c.1.1.3.2.2.4h-.1l-.2.1s-.1-.2-.3-.1v.4l-.4.1v.2H12c-.1 0-.2-.1-.2-.3ZM31 31.8c-.2 0-.3-.1-.3-.3v-.2h-.2v.2c0 .1-.2.2-.3.1l-.3-.1V31l-.2.4v.3c-.1 0-.3 0-.5-.3l.2-.1c-.1-.1-.2-.2-.1-.4v-.3l.4.1v-.2l-.3-.1v-.5l.3-.2.2.2v-.2c.2.2.3.2.5.2h.3c0 .2 0 .3-.2.4l.4-.2.3.3.2.6v.5l-.4.3Z"/><path d="M13.6 40.7a1 1 0 0 1-.7 0l-.1.1v.2c.2 0 .3.1.2.3l-.1.1h-.2l-.2.2.2.1-.2.3c-.2.2-.4.1-.6 0l-.1.2h-.3c-.2 0-.3 0-.5-.2l-.2-.1c0-.2.2-.3.1-.5l.2.2h.2v-.2l.1.1h.4l-.3-.4-.2.1V41h.2l.2-.1c.3-.3.4-.3.7-.2V40l.2-.2h.3c.1 0 .2 0 .2.2v.5h.1q.3 0 .3.2Zm7.1-13.6.2.2c.2.2.3.2.5.2v.6s.2 0 .3.2c0 .2.1.3 0 .4l.3.5c.2 0 .2 0 .3.2 0 .1 0 .3-.2.3h-.3v-.3h-.5c0-.2-.1-.2-.2 0s-.4.2-.5 0V29h.3v-.1c0-.1-.3-.2-.1-.4-.2 0-.3 0-.4-.2l-.1-.2-.2-.2v-.4c.2-.2.3-.4.6-.4ZM21 40l-.1-.2c-.2 0-.4 0-.6-.2v-.1l-.3-.6c-.2-.1-.2-.2-.1-.4 0-.1 0-.1.4 0l.2-.2.1-.1s.1-.1.2 0c0 0 .2 0 .3.2l.1.3c.2-.2.3-.4.5-.4l.3.2h.2c.2 0 .2.2.1.4l-.5.5-.2.1h-.1l-.2-.1-.1-.1c-.3.2-.2.4-.2.7Zm1.8-.9q.3.2.5 0c.1 0 .1.2.3.1l.1-.3c0-.2.2-.3.3-.4.1.2.3.3.3.6h.3c.3 0 .4.2.5.4v.3c-.2 0 0 .2-.1.3-.1 0-.2.1-.4 0l-.2.1-.3-.3-.2.2h-.2v.1c-.3.3-.6.2-.7-.1l-.2-.6V39Zm1 .4.2.2v-.4l-.2.2Zm.1-14.5c0 .2 0 .3-.2.3-.1.1-.2.3 0 .4 0 .2 0 .4-.2.6 0 0-.2.1-.1.2v.1c-.1.1-.1.2 0 .4-.2 0-.2.1-.3.2l-.3-.3.1-.6-.2-.2c-.1 0-.1-.1 0-.2v-.5l-.2-.2c-.2-.1-.2-.2-.1-.4h.2l.2-.1.1-.2.2-.2c.4 0 .6.3.7.6l.1.2Zm6.1 8.8.5.7-.2.4c-.2 0-.3.2-.4.3l-.2.1-.4-.1H29c-.2 0-.3-.2-.2-.3h-.2c-.1 0-.3 0-.3-.3v-.2c0-.2.1-.3.4-.3l.2.4h.4c0-.4.3-.5.6-.6l.1-.5v-.1h.3c.1.2 0 .4-.1.5Zm.2-4.5c-.2-.3-.2-.3-.5-.3h-.3c0 .2 0 .2.2.3v.3c-.1.2-.2.2-.3.2-.1 0-.3 0-.3-.2v-.7h.3v-.2l-.2-.1-.2-.3.2-.3.4.1v.4l.2.2v-.2c.3-.1.5 0 .8 0 .1-.2-.2-.4 0-.6l.6-.2.1.4c.1 0 .3 0 .3.2s0 .4-.3.5l-.6-.2.1.3c0 .3 0 .5-.4.4ZM17.1 36l-.2-.4v-.5l-.3-.1.1-.1h.4l.1-.4h.2l-.1.3v.1l.3-.1v-.2h.1v.1h.2c.2.1.2.3.2.5l.2.1c0 .2-.2.3-.3.4v.4s0 .2.2.3l-.3.2h-.6s-.2 0-.2-.3h.2L17 36Zm8.3 2.8.2-.2-.6-.7s-.2 0-.3-.2l.2-.2c0-.1-.2-.3 0-.3h.6v.4l.4-.2h.4l-.2.5h.5v.3c0 .2-.2.2-.3.2l-.4-.1v.1c.2.2.2.4.2.7.2 0 .3-.2.4 0 0 0 .2.1.2.3-.3.1-.3.1-.5-.1-.2 0-.3.1-.4 0a.5.5 0 0 1-.3-.5Zm-21.1 0 .1-.2.1-.2h-.3v.4c0 .3-.4.4-.6.2h-.2c-.3-.2-.4-.4-.3-.6V38h-.3l-.2-.4c.4-.1.5 0 .7.3l.2.1h.3l.1-.4c.2-.2.5-.2.8 0v.7c.1.1 0 .3 0 .4.1.2 0 .3-.2.3h-.2Zm9.7 1.7V40c0-.3 0-.3-.3-.3h-.1v-.2h-.1c-.4-.3-.4-.3-.3-.7h.4l.3-.2.3.3v.3c-.2 0-.4 0-.5.2l.5-.1c.1-.2.3-.2.5-.2s.3.2.4.4v.4c0 .2 0 .4-.3.5h-.7Zm-7.3-7.7.2-.2c0-.2.3-.2.5-.1l.1.1.2.3.2.2c-.1.1-.3 0-.4 0l-.1.3c-.1 0-.3-.1-.4 0 .1.3 0 .5-.2.7l-.2.2-.2.1-.1-.1v-.1c-.3 0-.4-.2-.6-.3v-.3l.1-.2c.1-.2.4-.4.6-.2h.4v-.3ZM8 40c-.1 0-.2.2-.3.1v-.6l-.1-.1c-.2-.2-.1-.3 0-.5l-.4-.2h-.3s-.1-.2-.3-.2l-.1.3-.2.2.2.2-.3.3c0-.4 0-.8-.2-1.1l.5-.1c.1-.1.3-.3.5-.2 0-.2.2-.2.3-.4.2.2.1.4 0 .6h-.1v.1l.3-.1c0-.2.1-.2.2-.1l.3.1v.2l.2.1-.2.4v.8c-.1 0 0 .1 0 .2Zm8-2.9h-.3l-.5.2-.2-.3v-.2c-.3-.2-.3-.2-.2-.5 0 0-.2-.2-.1-.3 0-.1 0-.2.2-.3l.3.1s.1.1.2 0c.2 0 .3 0 .5-.2 0-.2.3-.1.4.1v.2l-.1.1v.2l-.1.7v.2Zm-3.6 8.4h.2c-.1.1-.2.1-.2.3-.1.2-.2.5-.4.6h-.3c-.1-.1-.2-.2-.4-.1l-.1-.1c-.2-.2-.3-.4 0-.7l.1-.3c0-.1 0-.2-.1-.1H11c0-.2 0-.4.3-.5v.1l.3.2h.3l.3.1.2.5Zm11.8-16v-.3l.4-.2c.1.2.1.2 0 .4 0 0-.1 0 0 .2h.1c.1-.1.2-.2.4 0h.5l.4.1v.3l-.1.4-.4-.2-.3.2.1.4c-.1.2-.3.1-.4 0h-.1c0-.2-.2-.3-.3-.4V30c-.2 0-.3 0-.5-.2.1 0 .2 0 .2-.2v-.1Zm-11.7-3.1c.4.1.4.1.4.7l.5.2-.1.5c0 .1-.3.3-.5.2l-.2-.2h-.2c-.3 0-.5 0-.6-.3l-.1-.2V27l.3-.1h.3l.2-.4ZM23 30.8l-.2.4h-.1l-.1-.1c.1-.2 0-.4.3-.5l-.2-.4h-.2l.3-.2.2-.1-.2-.4.2-.2-.2-.4v-.2h.6l.1-.1h.2v.2l-.2.2-.3.2.1.1c.3.2.3.3.1.6l.2.7h-.2c-.1.2-.2.3-.4.2ZM4.6 34.4c0 .3 0 .6-.2.7v.7c.1.2 0 .3-.1.2H4l-.3.1h-.2c-.1-.3-.3-.5-.1-.8v-.1c.3 0 .4-.2.5-.3-.1-.2 0-.5.2-.7.2.1.3.4.5.2Zm32.8-4.2.3-.3.1-.2.2-.3v-.2s.1.1.2 0h.1v.3s-.2 0-.3.2h.3l.2-.2.1.2h.2v.3a2.6 2.6 0 0 1 .4.4l-.3.2c-.2 0-.2-.2-.3-.3l-.2.3c0 .1-.2.2-.3.1l-.4-.1-.2-.3ZM16 45.8c0-.2-.2-.2-.3-.4h-.2c-.2-.1-.2-.3 0-.4l.1-.3c.1-.4.5-.5.8-.3l.1.3.3.3v.1l-.2.4c-.1.1-.3.3-.6.3Zm-4.6-15.6-.2-.4-.2-.1-.1-.2v-.2l.2-.2c.1-.2.4-.2.5 0 0 0 .1.2.2.1l.1.1v.3h.3c0 .2-.2.4-.4.6v.4l-.1.3-.3-.3v-.4Zm14.5 5.7v.5h.2v-.2c0-.1 0-.2.2-.2l.2.1.2.6-.1.1c0 .2-.2.2-.3.2H26c-.2 0-.4 0-.5-.2l.2-.2h-.4v.3H25l.1-.6c0-.3.2-.4.5-.4h.2ZM15 29.4c.2 0 .3.1.5.3l.2.1c.3.2.4.4.2.8v.3l-.1.1-.2-.1-.2-.1c-.1 0-.3-.2-.3-.4l-.2-.2a.4.4 0 0 1-.1-.3v-.3l.1-.2ZM6 45.8c.3 0 .3.2.4.3 0 0 .1-.1.2 0h.2v.6c-.1 0-.2-.2-.3 0l-.2.1c-.1.2-.3.2-.5.2h-.2c0-.3 0-.4-.2-.5v-.3c.2-.1.3-.2.5-.1 0-.2.1-.3.2-.3Zm-3.2-4.5v.3l-.1.2c-.2 0-.3.1-.3.3H2c-.2 0-.3-.1-.3-.3v-.5c.2 0 .3.2.5 0l-.1-.2v-.3h.4l.4.1H3v.3l-.1.1h-.2Zm13-1.2.1.4v.1c.2.2.2.3 0 .6l.2.1v.4l.1.2c-.1.1-.3.1-.4 0a.9.9 0 0 1-.4-.3c0-.1.2 0 .2-.2V41c-.2 0-.3-.2-.4-.4 0-.2 0-.3.2-.4l.4-.2Zm4.7-9.6-.3.3-.2.4-.4-.4V30l.2-.3.2-.1.2-.1c.2 0 .3.1.2.3l.1.7Zm9.1-7.8c.2-.3.5-.4.8-.4l.1.1c0 .2.3.3.3.4.1.4 0 .6-.4.7H30c0 .1-.1 0-.2 0v-.4l-.2-.4Zm6.8 4.5c.2 0 .3.3.5.3 0 .2-.1.2-.2.3l.4.8c0 .1-.1.3 0 .4v.4h-.2l-.2-.5v-.1c-.2 0-.1.2 0 .3-.3.2-.5 0-.6-.1 0-.1 0-.2.2-.2.1 0 .2 0 .2-.2l-.1-.2V28c.2-.2.2-.2 0-.4 0 0-.2-.1 0-.3ZM18 39.2V39c0-.2-.2-.3-.3-.4 0-.2.2-.2.3-.3l.3.1.2.1c.2.2.4.2.5.2l.2.1v.1c.2.2.2.3 0 .4l-.2.2h-.2l-.5-.3H18Zm-8.4-5V34c0-.1 0-.2-.2-.2H9a.5.5 0 0 1 0-.8c0-.2.1-.3.2-.3h.4l.4.5-.2.4v.3c0 .2 0 .3-.3.3Zm11 1.8h.1c0-.1.1-.1.2 0h.2l.1.2v.6l.2.2v.3c-.1.2-.2.2-.4.2a.4.4 0 0 1-.2-.3v-.3l.2-.1-.2-.1-.2-.2-.2.2-.3-.3c.1-.2.2-.3.4-.3V36Zm3.1 4.8c.2 0 .2 0 .3-.2 0-.1.1-.2.3-.2.2 0 .3 0 .4.2v.1c.2 0 .2.1.2.2v.4l-.2.2h-.3c-.2 0-.4 0-.5-.2-.2 0-.2-.1 0-.3l-.2-.3Zm-9.9-8-.2-.2.2-.1-.1-.4h-.4c-.2-.2-.2-.3 0-.6l.2-.2.2-.1.3.1.2.5-.2.4s.2.2 0 .4c0 0 0 .2-.2.2Zm17.6 4.3h.8v.7c.2.2.2.4 0 .5l-.3.1c0-.2-.2-.2-.3-.3h-.3v-.7l.1-.4ZM4.9 40l.2.4h-.2c-.2.2-.3.3-.3.5l-.2.1c-.2-.2-.2-.2-.5-.1h-.2l-.1-.3.2-.2h.3v-.2c0-.1 0-.2.2-.3h.6Z"/><path d="m19.8 38.2-.5-.2c-.2-.1-.2-.3-.1-.4v-.4c0-.3 0-.3.3-.3v.3h.5l.3-.1.2-.2c.1.2 0 .3-.3.4-.1.2-.3.4-.1.6l-.3.3ZM6.3 32.4H6l-.3.3v-.2l.1-.2c-.1 0-.2-.2-.1-.3v-.5h.6c.2 0 .2.1.3.2l.3.2s-.3.1-.2.3c0 .1-.3 0-.3.2Zm21.1-3v-.1h.5v-.2l.4-.1c.2 0 .2 0 .2.2 0 0 .1.2 0 .4.2.2.1.3 0 .4-.3.1-.5.1-.7-.1v-.2c-.2 0-.4 0-.5-.3ZM12.6 47c0-.2.2-.2.3-.3l.3-.2v-.3l.2.1.3.2c.2 0 .2.2 0 .4v.4l-.5.1h-.1c-.2-.2-.2-.4-.5-.4ZM-.6 42.4c0-.4.2-.6.6-.7l.3.2c.2 0 .3.4.2.6l-.2.2c-.1 0-.2 0-.2.2h-.2c0-.2-.3-.3-.4-.5ZM27.1 40c0-.2-.2-.3-.3-.5h.3c.2-.2.3 0 .5 0v.4h-.3l-.2.4c0 .1 0 .2-.2.3h-.7v-.2c0-.2 0-.3.3-.3h.6V40Zm-.1-9.2h.2v-.4h.6l.4.2v.3c.1 0 .1.2 0 .2s-.3 0-.4-.2l-.5.5c-.1-.2-.3 0-.5-.2l.1-.4Zm-9.2 3.6v-.9c.3 0 .4-.2.6-.3 0-.2.1-.3.2-.3l.2.3-.2.2-.1.4-.1.3-.2.2c-.1 0-.3.2-.4 0Zm24-8.8v-.2c.2 0 .1 0 0-.2.3 0 .5-.1.6-.3l.1.3v.2c0 .1 0 .2.2.2h.2l.1-.4c.2.3 0 .4-.2.6l.1.3-.3.1c-.2.1-.3 0-.3-.2v-.2l-.3-.2h-.3Zm-29 10.3-.2-.1c-.2.2-.4.2-.6 0l-.2-.2v-.3h.6l.3-.1.1-.2c.1.3.4.4.4.6-.1.2-.4 0-.4.3Zm21.4-5.2v-.3c0-.1 0-.3.2-.4.3.1.5.2.8.1.1.5 0 .8-.3 1-.1-.3-.5-.2-.7-.4Zm2-1.1h.2c.3-.2.5 0 .4.3 0 .3-.2.4-.5.2h-.1c0 .4-.1.5-.5.5-.2-.1-.2-.3-.2-.6.4.2.7 0 .7-.3Zm-3.6-4.9h.3c.3.2.5.1.7 0h.1v.3c-.3 0-.3.2-.4.2 0 .3.3.2.3.5l-.3.3H33l-.4-.4.4-.3V25c-.2-.2-.3.2-.5 0v-.2Zm-7.7 10.9-.5.1H24v-1.1h.2l.2.1c.1 0 .3 0 .4.2 0 .2.2.4 0 .6Zm-2.1 4.7c.1.3 0 .5.2.7-.2.3-.2.3-.4.2h-.2c-.2 0-.3-.1-.3-.3v-.3c0-.2 0-.3.2-.4h.1l.4.1Zm-7.5-8.5c-.2-.3 0-.6 0-1 .2 0 .3 0 .3.4h.2c0 .2.2.5 0 .7-.2.4-.3.4-.5.2H15V32c.2 0 .3-.1.3-.3Zm2.6-2.1-.3.2-.4-.1v-.4l.2-.2-.4-.4c0-.3.2-.5.6-.4l.1.5v.1l-.1.2.3.5Zm-5 3.3-.3.1-.2-.2-.3-.1.1-.3s.2-.2.3-.1h.2l.3.1v.2q.3 0 .5.2c0 .1-.2.1-.2.3 0 0-.1.1-.2 0h-.2V33Zm21.3-9v.2c-.3-.2-.5-.2-.6-.4h-.3l-.2-.2v-.3h.6c.3 0 .4.2.5.4l.1.2s.2 0 .2.2h-.3ZM7.9 44.8c.2 0 .3 0 .4.2 0 .2-.2.2-.2.3v.3l-.1.2c0 .1.2.3 0 .4h-.3v-.7c-.1-.3 0-.5.2-.7Zm6.1-9.6c.2 0 .2 0 .2.5h.3c.1.1 0 .2-.1.3h-.2l.1.2s-.2.1-.2 0h-.2l-.2-.2-.2-.2c0-.2 0-.4.2-.5l.3-.1Zm18.4-5.9-.2.2c-.3-.4-.3-.5 0-1l-.3.1-.1-.2c-.1-.2 0-.3.2-.3h.3l.2.3-.3.2h.1c.2 0 .3.1.2.2-.2.2-.1.3 0 .5ZM17 26.8l.2.2-.3.3c-.1-.1-.2-.2 0-.4v-.3h-.3s-.2 0-.2-.2h.4v-.2l.3-.2c.2 0 .3 0 .4.2 0 .2 0 .3-.2.4l-.2.1Zm-4.3 3.6.3-.4v-.4l.5.1c.2.1.3.3.2.5l-.1.1-.3.2c0 .2-.1.2-.2.1-.2 0-.3 0-.4-.2Zm12.8 1 .4-.2V31c.2-.2.2-.3.4-.2.2 0 .3 0 .2.3l.1.5h-.4c-.1.2-.3.1-.4 0l-.3-.3ZM28 40l.6.1c.3 0 .4.3.3.5l-.1.3-.7-.1V40Zm2.6-2.3.3.5v.2c0 .2-.1.4-.3.5h-.2l-.1-.1c-.2-.2-.2-.3-.2-.5s.3-.5.5-.6Zm6.2-3.8v.1l-.2.1c0 .2 0 .3.2.4.3.2.2.6-.1.8l-.4-.1c-.1-.1-.2-.3-.1-.5v-.1c.2-.2.3-.3.3-.5V34l.3-.1Zm-7 9.4c-.2.2-.5.1-.7 0l-.1-.2c0-.2 0-.3-.2-.5h.7l.3.2v.5Zm-18-.6c.2 0 .3 0 .3-.2l.4-.2.2.4v.2c-.1.1-.2.2-.1.3l-.1.2-.4-.1a.5.5 0 0 1-.2-.2v-.4Zm12.7-19.8v-.5l.1-.2.4-.1c.2 0 .2 0 .3.2v.1c.2.3 0 .5-.2.6h-.5Zm.2 8.5.5.1c0 .4 0 .5-.4.5-.1.1-.3.3-.5.2-.2 0-.1-.2-.2-.4l.1-.2c.2 0 .4 0 .5-.2Zm3.7 4.4c.1-.1.1-.2.3-.1h.3c.2-.2.3-.2.4.1h-.2v.1c.3.1.4.4.5.5v.3l-.4.1-.3-.3.2-.2-.1-.3-.2-.1h-.5Zm.6-4h.1c.1-.2.2-.1.2 0v.2c0 .1 0 .3-.2.4 0 .1-.2 0-.4 0s-.3-.1-.3-.3v-.2l.2-.3c.2-.1.3.2.4.2Zm10.5-.7v-.3l-.1-.2v-.2h.4l.2.2.3.3v.3c-.2.2-.3.2-.6 0h-.2Zm-.3-1.9V29H39c-.1 0-.2 0-.2-.2v-.1h.6v.3h.2l.2.4c0 .3-.4.3-.5.1l-.2-.3ZM6.3 47c.2-.2.4-.1.6 0 0 .2.2.3.3.4-.1.3-.2.3-.5.3-.1 0-.3 0-.4-.2V47Zm2.6-.7c.4.6.4.6 0 1-.3-.2-.4-.6-.2-.8v-.2l-.1-.2v-.2H9v.2l-.1.1ZM9 32.4c0 .2-.2.3-.3.3l-.4.2v-.5H8c0-.2 0-.4.2-.5h.5v.3l.4.2ZM4.1 43.6l-.2-.2c0-.1-.1-.2-.3-.1l-.2-.2.2-.1.4-.2h.3c.1 0 .3.1.4.4-.1 0-.2.2-.4.1-.1 0 0 .2-.2.3ZM30.4 26h.6l.2.3-.1.5h-.4c-.1-.2-.3-.4-.3-.7Zm-14.9.2-.2-.4c-.1-.2 0-.4.1-.5h.4c.3.2.3.5 0 .7l-.3.2ZM24 43.3c0-.1.2-.2.1-.4l-.3-.3c.2-.2.2-.2.1-.4h.2l.2.2v.4c.2 0 .4.1.4.3 0 .2-.2.3-.3.3H24l-.1-.1Zm-1.8-6.4-.2-.1h-.2l-.5-.2c.2-.2 0-.5.3-.6h.4v.4l.2.5Zm8.6-1.2v.3h-.2v-.2h-.2v-.3H30c0-.3 0-.3.3-.3h.1l-.1-.2s.2-.1.2 0h.3c.1.3 0 .5-.1.7ZM13.1 47.9c-.2.2-.4.2-.6.1h-.2l-.2-.1v-.3l.3-.1h.4c.1 0 .2 0 .2.2l.1.2Zm22.7-13.2c-.1.1-.3 0-.4 0h-.2l-.3-.3.6-.1v-.5c-.1 0 0-.1 0-.1h.3v.3l-.1.1.1.6Zm2 2 .4.2.2.3v.2l-.4.2-.4-.2V37l.2-.4Zm-3.3-10.9h-.3c0-.3 0-.3.3-.2h.1c.1 0 .2 0 .2.2s0 .3.2.3v.2l.2.1v.1h-.3l-.5-.2c-.1-.2.2-.3 0-.5ZM6 39l-.3-.2c-.1 0-.3 0-.3-.3v-.1l-.2.2c-.3-.3-.3-.3 0-.6l.2.2h.3q.3.2.3.8Zm9.1-12.7c.3 0 .5.2.5.5h.1l.1.1v.2h-.3l.1.3h-.1c0-.2-.2-.3-.3-.4-.3-.2-.3-.4-.1-.7Zm-10.8 15c0 .2.2.4 0 .6H4l-.2.1c-.2 0-.2-.3-.3-.5l.2-.3c.2.1.3.2.6.1Zm16.2-15.1H20l-.4-.3c0-.1 0-.3.3-.3.2-.1.3-.1.4.1v.5Zm-.9 10.3-.1-.1h-.2l-.2-.1-.1-.3v-.1h.3c.1 0 .3 0 .4-.2.3.3.3.5 0 .8ZM3.8 46.9c.3 0 .1-.4.3-.5.2 0 .3.2.4.4v.5c-.1.1-.3 0-.4 0l-.3-.4Zm34.1-15.5v-.6l.2.2q.5-.2.7 0c0 .2-.2.4-.5.4H38Zm-19.1 3.4-.4-.4.4-.4h.2c.3 0 .3.3.2.5l-.4.2ZM2.5 43l-.1.3c0 .2-.1.2-.3.2-.2 0-.4-.1-.5-.4l.1-.2h.5l.3.1Zm12-4.7c.2 0 .2.1.2.3h.2c0-.1.1 0 .2 0v.3a2 2 0 0 1-.4.2h-.2l-.2-.5.2-.3Zm6.8-12.6h.1c0-.2.2-.3.3-.2 0 0 .2 0 .2.2v.3l-.2.3-.4-.2v-.4Zm-.2 15.4-.3.2c-.2 0-.3 0-.4-.2-.1-.2-.1-.3 0-.4h.1c.2-.2.4-.2.5 0v.4ZM40 27.2h-.4l-.1-.5.2-.2.3.1h.3v.1l-.2.1-.1.4ZM23.9 25h.1c.2 0 .4 0 .5.2v.5h.2l-.1.3-.3-.2-.1-.2c-.2 0-.3-.2-.3-.3V25ZM5.7 37.8v-.4l.3-.1h.3v.2c.2.3 0 .4 0 .5-.3 0-.4-.3-.7-.2Zm4 9.8c0-.1-.2 0-.2-.2 0 0-.1-.1 0-.2h.2l.2.2.1.2v.3c0 .1 0 .2-.2.2h-.3l.1-.4.2-.1ZM18.3 27h.5v.8c-.2.1-.3 0-.4-.2 0 0 0-.2-.2-.2V27Zm-7 16.8V43l.4.2c.2 0 .3.2.1.5v.1c-.2.1-.3 0-.5-.1Zm20-7.2c-.2 0-.4.2-.6 0l.4-.4v-.3c.1-.1.2-.1.4 0v-.1h.1v.1l-.2.3s-.1.3 0 .4Zm-25.5 14c-.1.1-.4.1-.5.3-.2 0-.2 0-.3-.2v-.3h.4l.2-.1.2.2ZM39 27.7c-.2.1-.3 0-.4 0l-.2-.1-.2-.4h.6c.1 0 .2.1.2.3v.2Zm-22.4 1.7v.5l-.4.1c-.2 0-.3 0-.2-.2v-.3l.2-.1h.4ZM36 24.6l.3.1v.3s.2.1.1.3h-.2l.1.2-.3-.1v-.1l.2-.1q-.1-.2-.4-.3v-.5l.2-.1v.3Z"/><path d="M30.5 26c-.2 0-.3.1-.4 0 0-.1-.1-.3 0-.4v-.3c.2-.2.4-.1.6 0l-.3.3v.5Zm9.4 4.2V30c.1-.1.3-.2.4-.1h.3l.1.1c0 .2-.3.3-.4.5H40s-.2-.1-.2-.3Zm-11 6.8h-.5c-.2 0-.2-.2-.2-.4h-.1l.1-.2h.4l.2.1v.5Zm-14.8 8.4.3-.4.3-.1h.3l.1.2c0 .2-.2.3-.3.3H14Zm-11.5-.5.5-.2c.1 0 .3 0 .3.3l-.3.2-.1.2c-.4-.1-.5-.3-.4-.5Zm8 5.8.3.1s.1.3 0 .4l-.3.3c-.1 0-.3-.2-.3-.4V51l.2-.1.1-.2Zm16.8-21.3c-.2 0-.2.3-.4.3l-.5-.4c0-.1 0-.2.2-.3h.1l.4.1.1.3Zm-7.8-1.2c.3.1.3.3.4.5l-.4.2c0 .2-.2.1-.3.1l-.1.2c-.1-.3 0-.5.3-.5l.2-.5Zm15.3-6v-.3c0-.2 0-.2.2-.3h.2c.2.2.3.4.2.6h-.6ZM4.5 39.1c0 .1.1.2.3.2v.1l-.2.1c-.1.1-.3.2-.5.1l-.2-.2c.1-.3.3-.3.6-.2ZM42 28.7h-.3v-.3l.2-.3c0-.2.2-.2.4-.1l.2.1c0 .3-.2.5-.6.3v.3ZM10.9 40l-.1-.4.6-.2h.2c0 .2-.2.3 0 .4l-.3.2-.1-.2-.3.1Zm-7.2 6.7h-.6c-.2-.2-.2-.3 0-.5.2 0 .3.2.4.1h.2v.4Zm8.6-21.2h.3l.2.5-.1.3-.4-.2v-.2c-.1-.2-.2-.3 0-.4Zm1.7 8.7h-.4l-.1-.2v-.4h.4s.2.2 0 .3v.3ZM38.6 26h-.2v.2h-.1c-.2 0-.3.2-.4.3v-.3c0-.1 0-.2.2-.2H38l.2-.2c.3 0 .3 0 .4.3Zm-5.9 5.3h-.5v-.4H32c-.2 0-.2 0-.3-.2.2-.2.4 0 .5 0l.1.2c.4 0 .4 0 .5.4ZM27 37.2l.2.2v.3c-.2.1-.3.1-.4 0 0 0-.2 0-.2-.2 0-.1 0-.3.2-.3h.2ZM7.2 49l.4-.1c.2.2.3.4.2.5 0 .1-.3.2-.4.1l-.2-.4ZM5 42.7c-.2-.2-.2-.3 0-.5l.2-.2c.1 0 .2 0 .3.2v.3l-.2.1-.3.1Zm5.3 3.7v.1c.2 0 .4.1.4.3.2 0 .3.1.3.3l-.3.1-.2-.3c-.2 0-.3-.1-.3-.4l.2-.1ZM28.6 41h.3c.2 0 .2.1.3.3 0 .2 0 .2-.2.3h-.1c-.2 0-.3 0-.3-.2V41Zm0-7.3.1-.2h.4c.2 0 .2.2.1.4l-.4.1c-.2 0-.2-.2-.2-.3ZM23.2 38c0-.1 0-.2.2-.3l.3-.1.2.2v.4l-.7-.1Zm-4.1-2.5h-.4c-.1 0 0 0 0-.2v-.2l.2-.1c0-.1.2-.1.2 0v.5ZM2.9 50.4c-.2 0-.4.1-.5-.1v-.4H3v.5Zm3.8-9.2-.2-.2-.1-.2.6-.2c0 .1 0 .3.2.3l-.2.4-.3-.1Zm20 2.5c-.3.2-.4.2-.5 0l.1-.5h.3l.1.5Zm7.6-19h.1c.1.2.2.3.1.4-.1.2-.2.2-.4.2l-.3-.2h.2l-.1-.2.4-.2Zm-9.6 12.2c-.4-.1-.5-.2-.5-.5.3-.2.4-.2.7.1l-.2.4ZM14 29.7h-.2l-.3-.2c0-.1 0-.3.2-.3.2-.1.4-.1.5.1l-.1.4Zm15 .9c.2.3.1.4-.2.6l-.4-.2v-.4c.3 0 .4.2.6 0Zm3.4 4.7.1.4-.3.3c-.2 0-.3 0-.3-.4l.5-.3ZM15.2 24v.5H15l-.2-.4c.1-.2.2-.3.5-.2ZM32 32.5l.4.1-.2.2-.5.2h-.2v-.2l.3-.3h.2Zm6.9 1.3c.2.1.2.1.2.5h-.6v-.2l.3-.3Zm-24.2-5.3h.3c.1 0 .2 0 .3.2l-.1.3h-.1c-.2 0-.4-.1-.4-.3v-.2ZM35.9 27l-.2.3s-.1.2-.2.1v-.3c-.2-.2-.1-.3 0-.4l.4.2ZM35 39.3c-.3 0-.5 0-.6-.3v-.2c.3 0 .6 0 .6.5Zm7.8-7.7c-.4-.2-.4-.3-.1-.8l.2.5-.1.3ZM12.1 50c.1-.2-.1-.3-.1-.5l.2-.1.4.2c0 .3 0 .3-.5.4Zm27-26.8q-.1-.2-.3-.1c-.3 0-.5-.1-.4-.4h.5l.1.2.1.3ZM28.6 39.9l-.2-.4c.2-.3.2-.3.4-.2l.2.4-.4.1Zm-9.7.9h.3l.2.1c0 .2 0 .4-.2.4H19l-.1-.5Zm.2 2.3c.4-.2.4-.2.7.3h-.2c-.2.1-.4 0-.5-.3ZM21.8 33v-.3c.1-.2.3-.2.4-.1.1 0 .2.1.1.3 0 .2-.1.2-.3.2l-.2-.2Zm-14 .8v-.1l.3-.1.2.3v.1c-.2.2-.4.2-.6 0l.1-.2Zm4.6 1.4v-.4c0-.3 0-.4.3-.4.1 0 .2.2 0 .3v.2l-.3.3ZM35 27.3c.1 0 .2.1.2.3h-.3v-.3l-.2-.1v-.3h.3s.1 0 0 .2v.2Z"/><path d="m14.1 45.4.1.2c.1 0 .1.1 0 .2 0 0-.1.1-.2 0h-.2v-.5h.3ZM1.6 47.1c-.2.1-.3.1-.4 0v-.3c0-.1.3-.2.4-.1v.4Zm29.7-14.3-.1-.1c-.3-.2-.3-.3-.1-.5.3 0 .3.2.5.3 0 .2-.2.2-.3.2Zm-20 15.1.2.4c-.2.2-.3.3-.6.3v-.2l.1-.1c0-.3.1-.3.3-.4Zm16.8-14.4V33l.4.1.1.1c0 .3 0 .3-.5.3Zm.7 4.8.2-.4h.3v.5h-.5Zm-4.6-10.9v-.3c.2-.2.2-.2.5 0l-.1.3c-.2.1-.3 0-.4 0ZM5.4 41.3v.1l-.3.2c0-.2-.2-.4-.3-.5H5l.2-.1c.1 0 .3.1.2.3Zm16.9-2.2.2.2c0 .2-.2.3-.3.4-.2 0-.3 0-.3-.2 0-.1 0-.2.2-.3h.2ZM35.1 26c.2 0 .3-.2.5 0v.3l-.2.1c-.1 0-.2 0-.3-.3Z"/><path d="m5.4 41.3.2-.1c0-.1-.1-.3 0-.4l-.1-.1v-.2c.1 0 .2 0 .3.2v.3l.2.1c-.1.2-.1.2-.3.2h-.3ZM5 36.8c.1 0 .3-.1.4.1-.1.2-.3.2-.4.2l-.3-.1v-.3H5v.1Zm1 7.9c0-.3.2-.3.5-.2v.3c-.3.1-.4.1-.6-.1Zm-.7-4.8H6c-.2.4-.3.4-.6.3V40Zm19.4-8.5-.3.1c-.1 0-.2 0-.1-.1l-.1-.2.5-.1h.2l-.2.2v.1Zm14.2-4.8.3.1.2.4-.3.1c0-.2-.3-.3-.3-.6Zm-2.6 0c-.3.1-.3 0-.5-.3h.6c0 .2-.2.1-.1.3ZM14.8 43.7v-.2h.3c.1 0 .2 0 .2.2v.2H15c-.1 0-.2 0-.2-.2Zm-.8-8.5a.7.7 0 0 1-.4-.4l.1-.3h.3v.7Zm18-4.1c0 .2 0 .3-.2.5 0 0 .1.1 0 .2h-.1v-.1l-.1-.2v-.2c0-.2.1-.3.4-.2Zm6.5-8.6c-.2 0-.4.3-.6 0l.3-.4c.3.1.3.1.3.4ZM16.1 35.3c-.2 0-.2-.3-.3-.4l.4-.3v.7ZM44 26.1c0-.2.3-.1.4-.4v.2c0 .1.1.3 0 .4H44l-.2-.2ZM8.6 47.7v.2c0 .2 0 .3-.2.3l-.2-.3.2-.2h.2Zm-2.3-7.2-.1.2c-.1 0-.2 0-.1-.2v-.3c.1-.2.3 0 .5 0l-.1.2.1.2-.3-.1ZM15.5 28c.2 0 .3 0 .3.2l-.1.3c-.2 0-.3 0-.4-.2 0-.1 0-.2.2-.3ZM41 29.6c.3 0 .4.1.5.4-.3.2-.5 0-.6-.4ZM31.9 35c-.1-.3-.1-.3 0-.4h.5c-.1.3-.3.3-.5.3ZM24 28.9c0-.2 0-.4.2-.5h.2l.1.3c-.2 0-.2.3-.5.2Zm-12.7 9.5V38c.3-.3.4-.2.5.1-.1.2-.3.3-.5.2ZM32.9 32c0 .2 0 .4-.2.4s-.3 0-.3-.2c.2 0 .2-.4.5-.3ZM12.3 44.3q.1-.3.4-.3c.1.2.1.3 0 .4-.2.1-.2.1-.4-.1ZM23.8 42c-.2.4-.2.4-.6.2V42l.1-.2.3.1.2.1Zm-20 2.7.2-.3c.3 0 .2.3.2.5-.2.1-.3-.1-.4-.2Zm32.4-7c-.1 0-.2 0-.2-.2l.1-.3c.2 0 .3 0 .3.2 0 .1 0 .2-.2.3Zm-5.6-13.6c.3-.2.3-.2.7.1-.4.2-.4.2-.7 0ZM9.3 37.3c.1 0 .2 0 .2.2l-.1.4h-.2v-.2l.1-.4ZM20.6 36h-.2l-.1-.2-.2-.1c.1-.2.2-.2.5-.1 0 .1.1.3 0 .4Zm17.7-11.1c-.2 0-.3.3-.5.1l.2-.5c0 .2.3.1.3.4ZM18.6 38l.4.2v.2h-.3c-.2-.2-.2-.2 0-.4Zm16-15h-.3c0-.1-.1-.2 0-.2l.1-.2c.2 0 .3.2.3.3v.2Zm-.3 6.5c0 .2-.1.4-.4.4v-.3s.2-.2.4-.1Zm-12.9 8.6c-.2 0-.2 0-.3-.3l.3-.2.2.1-.2.4ZM4.3 30.5c0 .2 0 .5-.3.5l-.1-.3c.1-.1.2-.3.4-.2ZM43.5 25v-.5h.5c-.1.2-.2.4-.5.4Zm-8.7-1.3-.2-.1-.1-.2c0-.1 0-.2.2-.2h.1c.1 0 .2.1.1.2l-.1.3Zm-.3-1.7c.3 0 .3 0 .2.4-.4-.1-.4-.2-.2-.5Zm-13.1 8.3v.3c0 .1-.2.2-.3.1H21v-.3h.4Zm-1.1 7.3c.1-.1.2 0 .4 0l-.1.3h-.3v-.2Zm10.5 2-.4-.2.1-.3c.3 0 .3.3.3.5Zm-.5-7.4h-.4v-.4c.3 0 .4.1.4.4Zm.9.6c0 .2-.2.3-.4.3v-.3c.1-.1.2-.1.4 0Zm-.9-.6c.1 0 .3-.1.4 0l.1.2c-.2.2-.4.2-.5-.1v-.1ZM6.5 30.8h-.1v-.2c-.4 0-.4 0-.5-.2h.3c.2 0 .3.2.3.4Zm20.8 5.5h.5v.1l-.2.3-.3-.5Zm17.8-8c0-.1 0-.3.2-.3h.2v.3c0 .1-.2.1-.4 0Zm-25.5 1.4c-.3-.1-.4-.3-.1-.5l.1.2c.2.2.2.2 0 .3ZM30.2 37l-.3.3-.2-.1V37c.3-.2.3-.2.5 0Zm-10.4 3.2.2.1c0 .2 0 .3-.2.4l-.2-.1.2-.4Zm6-15c.2 0 .2.2.1.4h-.1c-.1 0-.3 0-.3-.2l.1-.1.2-.1Zm1 16.2c-.2.3-.3.3-.5 0 .2-.2.3-.3.5 0Zm-14.4 2.4h-.3v-.3c0-.1 0-.1.1 0 .2 0 .3 0 .2.3ZM23 41.2l.4.1v.3c-.3 0-.3 0-.4-.4ZM4.6 45.4c.1.3 0 .4-.4.3 0-.2 0-.3.2-.3h.2Zm32.7-12.9-.2.3c-.2-.3-.2-.3-.1-.6.2 0 .2.2.3.3Zm-.9-.3-.4.3v-.3h.1c0-.2.1-.2.3-.3v.3Zm4.9-.9-.4-.2c.1-.3.3-.1.5-.2.1.2 0 .3-.1.4Zm-4.1 4.8h.2c.1.1.1.3 0 .4-.1 0-.2 0-.2-.4Zm-2.2-.8c-.2 0-.3 0-.3-.2 0 0 0-.2.2-.2 0 0 .2 0 .2.2 0 0 0 .2-.2.2ZM22.8 37s.2 0 .2.2c0 0 0 .2-.2.2l-.2-.1c0-.2 0-.3.2-.3ZM6.3 48.6l.2-.2.3.2c-.1.2-.2.2-.4.2l-.1-.2Zm19.9-18-.2-.2.2-.3s.2 0 .2.2c0 .1 0 .2-.2.3ZM7.6 34.2c0 .2-.1.4-.4.4v-.3c.1 0 .2-.2.4 0Zm24-.9c0 .3 0 .3-.2.3l-.2-.1c0-.1 0-.2.2-.2h.2Zm6.4-9.8.2.2c0 .2 0 .3-.2.2l-.2-.2c0-.1.1-.2.3-.2Zm-27.6 9.2c0 .3 0 .3-.3.2H10v-.2c.2-.1.3 0 .4 0ZM40 25c-.3-.2-.3-.2-.3-.5.3 0 .4.1.3.5ZM21.7 40.4c.2.2.2.2.2.5h-.2a.4.4 0 0 1-.1-.4l.1-.1ZM26.9 30c0-.1.2-.2.3-.1l.1.1-.1.1c-.2.2-.3.1-.3-.1Zm10.4-6.5v.6l-.1.2c0-.2-.1-.3 0-.4v-.3l.1-.1ZM9.8 32.3h-.2a.9.9 0 0 1-.4-.3h.2l.4.3Zm26.3-1.6.3.1c0 .1 0 .2-.2.3 0 0-.2 0-.2-.2l.1-.2Zm2.9-4.9c.2.1.2.3.1.5-.1 0-.2 0-.2-.2l.1-.3Zm-20.6 3h.4l-.1.2h-.2v-.2Zm-15.5 5c0 .2-.2.3-.3.3-.1-.2-.1-.3 0-.4l.3.1Zm21.3-4.3c-.1 0-.2.2-.3 0-.1 0-.2 0-.1-.2h.3v.2ZM10.5 46s0 .2-.2.2l-.2-.1.1-.2.3.1Zm-5.3-.6c-.2 0-.3.1-.4 0v-.2H5v.1ZM16.5 23l-.4-.1.1-.2h.3v.3Zm.1 14.2h-.3l-.1-.1c.2-.2.3-.2.4.1ZM34 35.6c.1.2.1.2-.2.4v-.3h.2Zm-9.1 8.5.2-.2.2.1v.2H25Zm16.3-14.9.2-.2.3.1c0 .2-.2.2-.3.3l-.2-.2ZM8.3 37.8c-.4 0-.5-.1-.3-.3l.3.1v.2Zm29.7-6c.2 0 .3 0 .2.2 0 0 0 .2-.1.1l-.2-.1c0-.1 0-.2.2-.2Zm-24-6.1h.4v.3q-.2 0-.3-.3Zm26.8-1.2.3-.2c.1 0 .2.1.2.3-.2 0-.4.1-.5-.1ZM19.6 34.8v.2l-.1.3c-.3-.2-.2-.3 0-.5ZM6.5 40v-.1H7l-.1.2h-.2l-.2-.1Zm19.4-.2.2.1-.1.2-.3-.1c0-.1 0-.2.2-.2Zm-14.2-.5h-.3l.1-.2V39c-.1-.1-.1-.2 0-.2h.1v.5Zm31.6-10c-.1 0-.2 0-.2-.2l.1-.2c.1 0 .2 0 .2.2l-.1.2Zm-6 2.1.3.2c0 .2-.2.2-.2.2l-.2-.2.1-.2Zm-10-3.4c.2 0 .3.2.2.3 0 0 0 .2-.2.1 0 0-.1 0 0-.2V28ZM6.7 41.2s0 .1 0 0c.2 0 .2.2.3.2l-.3.2c0-.1 0-.2-.2-.2v-.2h.2ZM38 27.4v.3h-.3s0-.2.3-.4ZM37 26c-.1 0-.1.2-.3.2-.1-.2-.1-.2 0-.4l.2.2ZM5.1 33.9l-.2-.1c0-.2.1-.3.3-.4l-.1.5Zm8.7 14.8c.2 0 .2.1.2.3-.2-.1-.2-.2 0-.3Zm11.6-7c0 .2.1.3 0 .4h-.2v-.3h.2ZM22 42c.2 0 .4 0 .6-.2 0 .3-.2.3-.2.4l-.4-.1Zm19-14.9c.3 0 .4 0 .4.3q-.3 0-.3-.3ZM11.3 43.8v.2H11l-.2-.2v-.2h.2v.2h.2Zm30.9-14.2q-.2-.2 0-.5c.1.2.2.2 0 .5Zm-5 3.9c.1.2 0 .3-.1.3h-.2l.1-.2h.2Zm-13.6 2.3c-.1-.1-.1-.2 0-.2 0 0 0-.1.1 0 .2 0 .2 0 .2.2h-.4Zm17.7-7.6.2-.3h.1c.1 0 .1.2 0 .2l-.1.1h-.2Zm-13.1-.5c.1 0 .2 0 .3.2l-.1.2-.3-.2v-.2Zm15.8-.9h.3c0 .1 0 .3-.3.3v-.3Zm-3.5.4h.3v.3q-.2 0-.3-.3Zm-15 .3h-.3v-.2h.2c.2 0 .2 0 .1.2ZM6.3 45.4l-.1.1-.3-.1s0-.2.2-.2l.2.2Zm34.2-19.7h.3v.3h-.2v-.3Zm-6.4.8c-.1 0-.3-.1-.2-.3h.2v.3ZM33 23.9h.1c.1 0 .2 0 .2.2-.2 0-.3 0-.4-.2Zm-16.2 5.3V29h.2c0 .2 0 .3-.2.2Zm-5.9 16.2c0 .2-.1.2-.3.2h-.1v-.2h.4ZM43 23q-.2 0-.1-.3c.2 0 .3 0 .1.4ZM5 39.7h-.2l.1-.1H5v-.2.3Zm6-8.2v-.3c.3 0 .3 0 .1.3H11Zm7.5 1.3c0 .1-.1.2-.2 0-.2 0 0-.1 0-.2.1 0 .2 0 .2.2Zm-4.3 5.6h-.3c-.1 0 0-.2 0-.2.2 0 .3.1.3.2Zm-6.8 6.2h.1l.1.2h-.1c-.2.1-.2 0-.2 0v-.2Zm-.7-11.8h-.2l-.1.2v-.2l.1-.2.2.2Zm.6.8h.3v.2h-.2l-.2-.2Zm0 7.1c0-.2 0-.3.2-.3v.3h-.2ZM28 38.6v-.2l.2-.2v.1c0 .1 0 .2-.2.3Zm5.9-12c0 .1-.1.1-.2 0 0 0-.2 0-.1-.1 0-.1 0-.2.1-.1l.2.2ZM5.2 33.1q-.1.3-.4.3V33h.4Zm3.6.8c-.3 0-.3-.1-.3-.4.3 0 .3 0 .3.4Zm-2.3 7.5v.2c-.3 0-.3 0-.2-.3h.2Zm14.8-14.7.1-.2h.2v.2l-.1.1h-.2Zm11.1-.9c.1 0 .3 0 .3.3h-.3v-.3Zm6.3-.4-.1.2-.2-.2v-.1l.2.1Zm-1-.9v.1h-.2c-.1 0-.2 0-.1-.2l.3.1ZM7.5 47l-.2-.1v-.2h.2c.1 0 .1.1 0 .2Zm25.9-25h.2v.3l-.2-.3ZM7.2 48.5c.1 0 0 .1 0 .2H7v-.2h.2ZM25.1 36l-.1.2-.2-.2.2-.1.1.2Zm14.5-8.2c0-.2.1-.3.3-.2v.1l-.1.2-.2-.1Zm-16.9 16c0-.1.2 0 .2 0l.1.1h-.1l-.2-.1ZM7 32l.1-.3c.2 0 .3.1.3.3H7Zm3.1-.8v.2h-.3v-.1c0-.2.2-.1.3-.1ZM35.5 24v.1h-.3l.1-.2.2.1Zm10.2 1.6-.1.2c-.2 0-.2-.1-.2-.3l.3.1Zm-1 2h-.2q0-.2.3-.2v.3ZM17 36q0 .2-.2.3V36h.3Zm16-6.8q.1-.3.3-.3c0 .3 0 .3-.3.3Z"/><path d="M25.4 41.7c-.1-.2 0-.3 0-.4.2 0 .2 0 .2.2l-.2.2Zm17-17.9c-.2-.1-.2-.1-.1-.3q.2.1 0 .3Zm-27.7 6.8c-.2 0-.2-.1-.2-.2h.2v.2Zm15.5-3q.2 0 .2.2s-.1.1-.2 0c-.1 0 0-.1 0-.2Zm4.4-.2h-.2l.1-.2h.2l-.1.3Zm-8-3.1h.2v.2h-.3v-.2ZM12.4 47v.2q-.2 0 0-.3Zm-8.7-1 .1-.2H4v.1h-.3Zm41.1-22.4.1-.2.1.1-.2.1ZM19.7 36.9c.2 0 .2 0 .2.2q-.2 0-.2-.2ZM9.8 47.1l.1-.1h.3v.1h-.4Zm25.6-21.9.2-.1v.1h.1c-.2.2-.2 0-.3 0Zm-30.2 6v.3q-.2-.2 0-.3Zm22.3 9.3.2.1h-.1c-.1.1-.2.2-.2 0v-.1Zm11.1-12c-.2 0-.2 0-.3-.2.2 0 .3 0 .3.2Zm-22-.7c-.2.2-.2.2-.3 0h.3ZM5.7 45.5c-.1.1-.2.2-.3.1v-.2l.3.1ZM42.1 27l.2.2v.1H42V27Zm-21.3-1.5v.3l-.2-.1.1-.2ZM5.2 44q.2.2 0 .3-.1 0 0-.2Zm36.3-17.2-.3-.2c.3 0 .3 0 .3.2Zm-13.4 1.7c0 .1.2.1.1.3h-.1v-.3ZM10.8 39.4c-.2 0-.2-.1-.2-.2 0 0 .1-.1.1 0h.1v.2Zm7.7-11.2v.3c-.2-.2-.2-.2 0-.3ZM37.8 24h-.4s.2 0 .3-.2v.2Zm-.5-.5-.1-.1q.1-.1.4 0h-.3ZM18 29.1c.1 0 .1-.1.2 0 .1 0 .1 0 0 .1h-.1Zm14.3-4.9-.1-.2v-.1h.1v.3Zm10.1 4.4.1-.2c.1 0 .2.1.1.2 0 0 0 .1-.2 0Zm-25.9-1.8h-.3v-.1s.2-.1.2 0h.1Zm12.1 11.7h-.1l-.1-.1.1-.1.1.2Zm-6.4 4.8-.2.1c-.1-.1 0-.2 0-.2l.2.1Zm-8.6-10-.1.2-.1-.2h.2Zm29.9-6.2.1.3s-.2-.1-.1-.3ZM33 36l.2.1-.1.1h-.2V36Zm-18.3-9.8-.1.2s-.2 0-.1-.1c0-.2 0-.2.2-.1ZM38.1 22q-.1-.2 0-.4v.4Zm-3.8 13.3-.1.2-.1-.1.1-.1ZM24 36.7q.3.1.1.3v-.3Zm-7.6 1.1v.2h-.1v-.3Zm-10.1 2v.2H6v-.3l.2.1Zm11.9-5.2c-.1.2-.1.2-.3 0h.3Zm18.4-9.8-.1-.1v-.2h.2l-.1.3Zm-17 9.8-.1-.1.1-.1h.1v.2Zm19-10.2c-.1 0-.2-.1-.1-.2q.2 0 .1.2Zm-30 13.8h-.3l.1-.2c.2 0 .2.1.2.2Zm23 .8.1.2q-.2-.1-.1-.3Zm-17.7-8.2-.1.2h-.1c0-.1 0-.2.2-.2ZM7.6 47.6l-.2-.2h.3v.2Zm32.8-18.4v.2h-.1l.1-.2ZM4.2 45.3h-.3l.1-.1.2.1ZM21.8 30l-.1.2c-.1 0-.2 0-.1-.2h.2ZM11.4 40.6v.3c-.2-.2 0-.2 0-.3Zm23.7-17.4c-.1 0-.2 0-.3-.2q.2 0 .3.2Zm7.5 4.6.1.2h-.1v-.2Zm-28.4.9v.3l-.1-.1v-.2Zm13.2.2s-.1-.2 0-.2h.1l-.1.2Zm14.4-3.1q-.2 0-.2-.3l.2.2ZM19 44c.2-.1.3 0 .3.2L19 44Zm26.1-20.1.1.1-.1.1V24Zm-30.9 6.7-.2-.2c.2 0 .2 0 .2.2ZM6.4 43.5c.1-.1.2-.1.2 0v.1l-.2-.1Zm28.4-18.2-.2.2v-.2h.2Zm9.7 3.7v.2l-.2-.1V29h.2Zm-10.8-3.5c.1 0 .2 0 .2.2h-.2v-.2Zm5.5-.9c-.1 0-.2-.1 0-.3v.3ZM3 44v-.2c0-.1 0 0 .1 0v.2Zm35.7-22.9c.1 0 .2.1.1.3l-.1-.3ZM7.4 39.3l-.1.2-.1-.1.2-.1Zm14.5 2.2.1.1v.1h-.1v-.2ZM4.8 48.4c0 .2 0 .2-.2.2v-.1c0-.1 0-.1.2 0ZM37 31.2v.3-.3Zm-25 8.9h-.2.2Zm27.5-14.5c0-.1.1-.1.2 0 0 0-.1.1-.2 0Zm-35 13.6V39c.2 0 .3 0 .3.2h-.3ZM36 32.7v.2c-.1 0 0-.1 0-.2Zm6-6.3h-.2v-.1h.2Zm-5.7.2h.2v.2c-.1 0-.2-.1-.2-.3Zm-18 0v.2h-.1l.1-.2ZM14 44l.1-.3v.1c.1.1 0 .1 0 .1Zm29-17.1q0 .2-.1.1Zm-3.9-4.7.1.3H39v-.3ZM23.7 37.4l-.1.1h-.1v-.2l.2.1Zm7.3-7.6v.2-.2Zm-6.2 7.1.1-.1h.1v.2l-.2-.1Zm-9.4 1.3h-.2V38h.2Zm28.6-11v.2-.2ZM8 51h.2v.1c-.1.1-.2 0-.2 0Zm25.5-26.9h.2v.1h-.2Zm-5 7.4h-.2v-.1h.2Zm-23 16.6v.1h-.2V48h.2Zm23.3-23.9h.2-.2Zm5.9.3h.1v.2h-.1v-.2ZM30 27.8h-.3l.1-.1.2.1Zm9.8-4h.2q-.1.1-.2 0ZM7.4 32.2l-.3-.1.3.1ZM21.9 37l-.1.2h-.1c0-.2 0-.2.2-.2Zm16.6-13.3v-.3.3ZM27.3 35.8v-.2h.1v.2Zm-22 8.1-.2-.1h.2Zm7.2-1.8h.2c-.1.1-.2.1-.2 0ZM44.3 25c-.1 0-.2 0-.3-.2l.3.1ZM20 39.7l.3.1H20ZM8.2 33.4c-.1 0-.2 0-.1-.2l.1.2ZM25 27.1l-.1.2c-.1 0 0-.1 0-.2Zm13.5 5.6v.2h-.1l.1-.2Zm-4.9-3.8v-.3.3ZM5.7 45.2v.1h-.2v-.1h.2ZM5.3 35v.3h-.1V35ZM43 28.3c.1 0 .2 0 .2.2-.2 0-.2 0-.2-.2Zm-7.8 7.4-.2-.2h.1s.1 0 0 .2Zm-12.5 2.6c.1 0 .2.1 0 .2v-.2Zm-13.1-9 .1-.2-.1.2Zm28.1-6.9h-.1v-.1h.1Zm-21.2 5.9h-.2c0-.2.1 0 .2 0Zm11.4 3.2v.2h-.1v-.1Zm7.6-.1v.2h-.1c0-.2 0-.2.2-.2Zm-17.1-2.6h-.1v-.1l.1.1Zm.3-.8v.2h-.1l.1-.2Zm18.5 1.8c-.1 0 0-.1 0-.2v.2ZM11.8 47.5l.1.1h-.1ZM33 22.7v.2h-.1v-.2Zm9.8 6.3v-.3c.2 0 0 .2 0 .2Zm-25.3 2.4s.1.1 0 .2c-.1 0 0 0 0-.2Zm12.7-4H30v-.1ZM21 42.7l-.2-.1q.2-.1.2 0Zm16.7-18.2v-.2l.2.1-.2.1Zm-1.2-.2-.3-.1h.3ZM5 39.7h.2v.3l-.1-.3Zm25.5-6.2.2.1h-.2Zm8.8-10.6H39v-.1h.2Zm.9 5.1H40h.2ZM14.8 46.7v-.2c.1 0 .1.1 0 .2Zm14.5-13.2.1-.1c0 .2 0 .1-.1 0Zm-9-4.3L20 29h.2Zm23-1.8-.2-.2.2.2ZM8.4 31.5h-.2.2ZM28 33.6l.1.1-.2-.1Zm-8.8-6.5.1.1v.1h-.1V27ZM8 31.4v.2-.2Zm1.3 3h-.2l.2-.2v.2Zm.9 14.5Zm6.9-20.8H17h.3ZM40 23v.2-.1Zm-5 2.2.3-.1-.1.2-.2-.1Zm-5.8 7.7H29h.2Zm.5-3.7.1.1c-.2 0-.1 0 0-.1ZM22 40l-.1.2h-.1V40h.2Zm.8 3.3v.2c-.1 0-.1-.1 0-.2ZM38.4 22v-.2.2Zm-6 9.9-.2-.1h.2Zm-16.8 2.6.2.1h-.1v-.1Zm29-9h.1v.1h-.1v-.1ZM37 26h.1v.1l-.2-.1Zm-19.6 2.3.1-.1v.1Zm18.8 2.1h.2c0 .1-.1.1-.2 0ZM23 41.9v.2-.2ZM15.4 38h.2-.2ZM8 32.4l.2.1H8Zm23-8.9-.1.2v-.1s0-.1 0 0Zm-7.7 21.7H23h.2Zm4.4-8.3v.1h-.1v-.1Zm-2.7 6v-.2.1Zm13.3-20.1h-.2.2ZM11.7 37.4h-.1v-.1ZM5 34.7Zm32.6 1.2v.1-.1ZM16 32.5v.1l-.1-.1Zm13.3-.2.1.1h-.1Zm-13.1.6v-.2.2Zm4.6 9.1h-.2v-.1h.2Zm5.5-2.4-.2.1v-.1h.2ZM14 30.2V30h.1Zm-2.4 4.6h-.2.2ZM5 31.7h.1H5Zm37.4-3.9Zm.6-.2c-.2-.1-.2-.2-.1-.2v.2ZM6.5 31.4v-.1Zm21.8-4.2v.1-.1ZM11.3 43v-.2.1Zm29.2-13.9V29h.1v.1Zm4-5.3v.1Zm-9 4.9c.2 0 .2 0 0 .1v-.1ZM23.6 34Zm11.1-2.3v.1-.1Zm-1.3-7.5v.1-.1Zm-11 18.2h.1-.1Zm-5.5-5.8-.1-.1h.1v.1Zm22.9-11.2h.1-.1ZM37.5 27ZM6.4 39.6v-.1.1Zm29.8-17.2v.1ZM33 35.1h-.1.2Zm1-8.3v.1h-.1v-.1Zm.2.1v-.1h.1Zm-27 13.4H7Zm7.7-1.9Z"/></g><circle cx="66.2" cy="46.4" r="11.8" fill="#fff"/><g clip-path="url(#B)" fill="#c5ddff"><path d="M52.2 36.3c0-.1.2-.2.2 0l.5.1c.1 0 .3 0 .4.2 0 0 .1.1 0 .2v.2c.1.2 0 .5-.3.5-.1 0-.2.1-.1.2l.4.1.1.2.5-.1c.2 0 .1.2.2.3.1 0 .3 0 .4-.2h.2v-.3q0-.2.3-.2c.2-.2.4-.2.5 0h.7v.5l-.1.1c-.1 0-.2-.2-.3-.1v.4h-.3c0-.1-.2 0-.1 0l-.2.4h.2c.1 0 .2.1.2.3 0 .1-.1.2-.3.2l-.6-.4v.2h-.2v-.3l-.2-.1-.3.2-.2.3h.2c.1 0 .3 0 .3.2s.2.2.3.3c.1-.3.3-.3.5-.2h.2c.1 0 .2.1.1.2 0 .2-.1.3-.3.4v.3l.2.2.1-.3.4-.2.2.5q.2-.1.2-.3c0-.2 0-.2.2-.2h.1c.5 0 .5 0 .7.5h.1v-.1c0-.2 0-.3.2-.5h.1l.2-.3c-.4 0-.4-.1-.4-.4v-.4H57v-.2l-.4.2c-.2 0-.2-.3-.2-.4l.2-.4c.2 0 .4 0 .4.2l.2.3.1.2.4-.1v-.3h.1l.3.4v.5c.4 0 .5.1.4.6h-.2c0 .2 0 .3-.4.3l-.2.4.3.5-.2.1.1.4c0 .1 0 .2-.2.2l-.5.2v.2l.7.1.2.3.3-.2v.3c0 .2-.2.1-.3.1v-.1l-.4.3h.4v.2l-.2.1h-.2c0 .2 0 .2-.3 0l.1-.2-.3-.1c-.1-.2-.3-.2-.4-.2l.1-.3h-.3c-.1-.1-.2 0-.3-.3h-.5V42l-.3.1c-.2-.1-.3-.2 0-.4h-.6c-.1 0-.2 0-.1-.2l-.1-.3c-.1-.1 0-.2 0-.4l-.3-.2c-.2 0-.3 0-.4-.2v-.2c-.2 0-.2 0-.3-.2h-.2l-.1-.2c-.3-.2-.2-.2 0-.4v-.3H53c-.2-.1-.1-.2 0-.4v-.2h.2-.1l-.4-.1s-.2-.2-.1-.4-.3 0-.3-.2H52c-.2-.3-.4-.2-.6-.3l.2.7-.2.3-.1.3.2.2c-.2.2-.2.3-.1.4v.3l.1.2s.2.2.1.3c0 0 0 .2-.3.2h-.1l.1.6-.3.2h-.5c0-.2-.1-.2-.2-.3h-.1c-.2.2-.3.1-.4 0l-.2-.2c0 .2 0 .5-.2.6l.1.2s0 .2-.2.2v.3c-.2.1-.3 0-.4 0-.1 0-.3 0-.3-.2-.1-.1-.2-.3-.1-.5v-.5l.5.1v-.4l-.1-.2h.2c0 .1.1 0 .2 0V40l.3-.2h-.3c-.2 0-.3-.2-.2-.4v-.2l-.2.3v.2c.1.2.1.3-.1.4h-.3c-.1 0-.2-.1-.2-.3v-.2l.3-.3c0-.2.1-.2.2-.2h.2l.1-.2h.4q0 .2-.2.3c.3 0 .3.2.3.5h.1c.3 0 .4 0 .6.3 0 .1 0 .2.2.3l.3-.1-.2-.2c0-.2.2-.1.3-.2l-.1-.7.2-.2-.4-.2v-.4l-.1-.3v-.4c-.2-.2-.1-.3 0-.6.2 0 .2-.1.3-.2v-.1q0 .2.4.4l.4-.2c0-.1-.1-.3 0-.4.2 0 .2.2.3.3.1-.2.3-.1.5 0 0-.2-.2-.1-.3-.3v-.2Zm3.3 5.4.2.1.2.1.2.2h.3v-.5l-.2-.4c-.2.1-.4 0-.4-.1l-.1-.4-.2-.1v.6l.1.1v.4Zm1.5-.9v.1c0 .2-.2.3-.3.3h-.3q.4.1.5.3c.1-.2.4-.2.4-.4a8 8 0 0 0-.3-.3Zm.9-1.3.4.1-.1-.1h-.3Zm-4.2-.5h-.2.2Zm-9.3 3c-.1-.1-.3-.2-.4 0v-.7s.1-.1.2 0h.2c0-.3 0-.5.3-.7h.5c.3.1.3.2.3.5l-.1.3c-.1 0-.2-.2-.4 0 .2 0 .3 0 .4.2v.1l.1.2.3.2-.2.2c.3 0 .5.2.5.5l.2.1c0 .2-.2 0-.3 0v.3h-.2c-.2.2-.2.2-.6.2 0 .2 0 .3.2.4l.3.1c0 .2-.1.2-.2.3h-.4l-.1.3.2.1v.2c0 .2.2.3.4.4 0 .1 0 .2-.1.1H45l-.3-.1.1.3h-.6l-.3-.4v.2c-.1.2-.3.2-.4.2l-.3-.2-.1-.2v-.3h.1l.1.1h.4c0-.3.2-.4.3-.6 0-.2 0-.4-.2-.5l.1-.4.2-.1h.5c0-.2-.2-.3-.3-.5H44l-.4-.1-.1.1-.2.5c.3.2.3.2.2.4 0 .2 0 .3-.2.2l-.3-.1v-.3h-.1c-.1 0-.2 0-.2-.2s-.2-.2-.4-.2l-.1-.2.2-.1q0-.3.5-.5l.4.2h.4l.3-.2.3-.2Zm.5 1c0 .2.1.2.2.2q0-.2.2-.3l.2-.5h-.3c0 .3 0 .6-.3.7Zm0 1c0-.2-.2-.2-.3-.2q0 .4-.4.5l.2.2.2-.1q0-.3.2-.4Zm-.1 1v-.3l-.3-.1.3.4Zm-.2-3.5v-.1h-.1.1Z"/><path d="M45.7 47.1h-.2v.3l-.2.2-.2-.1H45c0 .3-.2.3-.3.2l-.2.2h-.2l-.2-.2c0-.2.2-.2.2-.2h.2c0-.1.2-.2 0-.4h.3v-.2l-.2-.1v-.1l-.1-.2v.4c0 .3 0 .4-.4.3l-.4-.2v.5l-.1.2-.3.2v.1h.5v-.2l.4.5h.1l.5-.1c.1-.2.2-.1.3 0-.1.2-.2.2-.4.2v.2s0 .2.2.2v.2l.6.1-.1.3H45l-.2.1c0 .2.3.1.4.2v.5l-.4-.1c-.1-.1-.3-.2-.2-.4h-.4l-.1.2h-.2l.2-.2-.2-.2.3-.2-.2-.3v.5h-.2c-.2.1-.4 0-.4-.2v-.2l.2-.2.2-.2v-.1l-.5.1c-.1-.1-.3-.3-.3-.5h-.2v.4l-.1.3a.3.3 0 0 1-.5-.4v-.2c-.1 0-.2-.2-.1-.4l.1-.2v-.1l.5-.2v-.3c.2-.1.3 0 .5.1l-.1-.5c-.4.2-.6.2-.7 0v-.1l.2-.2h.6L43 46h.1l.1-.3c.2.2.2.2 0 .4v.2l.4-.2c.2 0 .1.2.2.2v.3s.2 0 .3-.2h.2v-.2l-.1.1c-.2 0-.3 0-.3-.2v-.6h.2v.2h.1v-.1c.3 0 .4.2.4.3v.1l.3.4h.3c.1 0 .1.2.3.2l.2.5Zm-.9-.1c.2 0 .3.3.5.1v-.3h-.1l-.4.2ZM60 35.6l.2.3h-.6c0-.2 0-.3.2-.4h.3l.1-.2-.1-.1V35h.4v-.8l-.2-.2v-.2l-.3-.1v-.2c-.3 0-.4-.1-.5-.3l.3-.2c.2 0 .2-.1.3-.2.2 0 .3.2.3.5l.3.2c.2 0 .3 0 .4-.3l.2-.2h.2l.3-.3h.2l.2-.2-.2-.1-.4.2-.1.2-.3-.1c-.2 0 0-.2 0-.3h.4v-.2H61v-.5l-.2-.3q.3-.1.4 0h.3c.1 0 .2 0 .2.2.2.2.1.3 0 .4v.1h.3l.1.4c.2 0 .4.2.5.4l.5-.4.2-.2v-.4h.4v.3l.3.1v.2l-.4-.1v-.2c-.1.2 0 .3 0 .4v.2l.3.2-.2.8q-.3 0-.4.2c-.4 0-.5-.2-.5-.5V33l-.3.3H62l.1.3c.2.2.1.4 0 .4h-.2l-.5.4s.2.2 0 .3h-.2c.1.2.3.2.3.5h-.1l-.3.1-.2-.1c0 .2-.2.3-.3.3l.1.3-.1.1-.3-.1v-.3H60Zm.6-1.6v.3c.2.2.2.2.5.1h-.3V34s-.1-.2-.3-.2v.1l.1.1Zm.8 4.4h.1l.3.1c.1 0 .3 0 .2.2v.4h-.7l-.1-.1-.1-.4c-.1.3-.4.3-.6.4h-.1c-.2.3-.3.3-.4 0l-.1.2c.1.2.2.3.1.5v.2l.5.1h.4c0-.2 0-.3.2-.4h.6l.3.1-.5.5v.1h.2l.2.1.1.1.2.3.3.2c0 .1-.1.2-.3.1l-.1.3.2.3-.3.2h-.4a.5.5 0 0 1-.2-.4v-.2c-.2-.1-.3-.3-.5-.3l-.3-.2v-.2l-.2.1c-.2 0-.2-.1-.2-.2h-.3l-.2-.2c-.2.1-.1.3 0 .4l.3.2h.3c.3 0 .4.2.4.5v.4l-.2.2h-.4c-.2-.1-.3-.1-.4 0l-.3-.1c0-.2.1-.3.2-.3v-.7c-.3 0-.5 0-.6-.3l-.3-.2.1-.3c.2 0 .2.1.2.3h.3l-.2-.5.1-.4v-.4c-.1-.2 0-.3 0-.4.2 0 .3 0 .4.3v-.1l.1-.5.2-.2.3.4h.1l.3-.2h.8Z"/><path d="m42.3 49.4.5.1s.2.1.1.3v.3l.3.2.2.4v.1c.3 0 .4-.1.6-.3l.3.1.1-.4h.4c.1 0 .2 0 .2.2v.1l-.1.2h.1v.3h-.5l.1.1h-.3v.4c.2.1.1.2 0 .3l-.3.1c0 .1 0 .4-.3.4h-.5V52l.1-.3-.3-.1.1-.5.2-.3c-.4 0-.5 0-.7-.5-.2 0-.6.1-.6-.3l-.5.5v.1h-.2c0-.2-.1-.2-.2-.2 0-.3.2-.4.4-.5h.1c.4 0 .4 0 .4-.3-.1 0-.3 0-.4-.2l-.2.1c-.2-.2-.2-.4-.2-.7l-.2.1v.5c.1.3 0 .3-.3.4l-.1.2-.3.2c-.2 0-.3-.1-.3-.3 0-.2 0-.3.3-.4l-.1-.3V49c0-.2 0-.3-.2-.5v-.1c.2-.1.3-.2.4 0h.2l.5-.1c.1-.1.2-.2.3-.1v.1l-.3.1.2.3c.1-.2.3-.2.3-.4l-.1-.3h.2l.2.1v1c.2 0 .4 0 .4.2Zm8.5-4.6c-.2.1-.2.1-.4-.1.2-.2.2 0 .3 0l.5-.1v-.4L51 44c.1-.2.3-.1.5-.1l.2-.2h.4c.1 0 .3 0 .4.2v.3h-.3v.2h-.3v.3l-.4-.2-.1.1c.1.3.4.4.6.4 0 .1-.2.2-.1.4l-.1.1c0 .2.2 0 .3 0l-.1.5.4.3-.3.1.3.3c0 .2-.3 0-.4.2l.2.2c.1 0 .2.1.2.3v.3c-.2 0-.4-.2-.5-.4l-.2.2h-.4c-.2 0-.2 0-.3-.2v-.1c-.2-.1-.2-.3-.2-.4l.3-.4h.1L51 46c0 .3 0 .4-.3.4v.1h-.3a.7.7 0 0 1-.4-.3v-.7l.5.1c.2 0 .3.2.5.3v-.5c.2-.2 0-.3 0-.4Zm-8.4-2.3q0 .2-.3.2v.4c0 .1 0 .2-.2.3l-.2.2-.2-.2h-.2c.2 0 .1.3.2.4 0 .2 0 .3-.2.4-.2 0-.2-.2-.2-.3v-.3l-.1-.2c-.3-.1-.3-.3-.3-.6l-.3-.1a.6.6 0 0 1-.3-.5V42c.2 0 .2-.1 0-.2v-.4l.3-.4c.2.1.5 0 .6.3v.5c.2.2.2.5 0 .7.2.1.3 0 .4 0 0-.1.1-.2.3-.2l.2.2.2.1.2-.2-.4-.2.1-.3c.1 0 .2-.1.1-.3v-.1h.3c0-.1 0-.3.2-.3.2-.3.3-.3.5-.2a35.8 35.8 0 0 1 .3.3v.5l-.1.3v.1c-.2.1-.3 0-.4-.1-.2 0-.3.2-.6.4Zm4.3 2.9c-.2.2-.4.1-.5 0 0-.2.3-.2.2-.4q.2 0 .4-.3c-.2-.3-.2-.4 0-.6-.2-.3-.3-.4-.5-.3-.1-.4 0-.6.2-.8.2 0 .2.2.1.3h.3v-.1l-.1-.2c0-.1 0-.2.2-.3h.7l.2.4h.2l.5.2c.2 0 .3.1.3.2s0 .3-.1.2l-.3.1-.3.3v.1h-.4l.1.4-.1.2v.2l-.2.2-.4.1h-.1l-.1.2h.2l-.1.6-.2.1-.2-.3v-.5Zm.8-1.4c.1-.3.2-.3.5-.4l-.1-.2-.5.1v.2l-.1.3v.1h.2Zm-.6.8.3-.1h-.3Zm20.9-10.2c.3.1.3.3.1.5l-.3.3-.4-.1c0-.2-.1-.3 0-.4v-.3q.3.1.4 0l-.1-.2h-.2c-.2-.3-.2-.3-.3 0h-.3l.2-.3c0-.2.2-.1.3-.2 0-.2-.2-.2-.3-.3-.2.1-.4.2-.4.4-.3 0-.2-.2-.3-.3 0 0-.1.2-.3.1v-.3c-.1-.1-.1-.2 0-.2l.1-.2.3-.2c.1 0 .2 0 .2-.2l-.2.1c-.3.1-.5 0-.6-.1l-.2-.3c0-.2.3-.1.3-.3 0-.1-.1-.2-.3-.2l-.1-.1.1-.2h.3l-.1-.4.8-.2v.2l.1.4h.1v.2h-.3l-.2.1c.3.2.3.5.4.8.1.2.3.3.3.5v.1c.3 0 .3.2.3.3l.5-.2.6.3v.2c.2.2.2.3 0 .5h-.2l-.3.1Zm-.5 5.4-.2.1v.3c-.4.1-.6 0-.7-.3l.2-.1v-.1c0-.2.2-.3.3-.3l.5-.1c.1-.2.5-.2.6.1l.3-.3h.4l-.1-.2c-.3 0-.4-.2-.4-.4v-.3l-.8.2.1-.1q-.3-.3-.2-.6l-.3-.6-.3-.1c0-.2.2-.3.3-.3h.4l-.1.3h.2l.3-.2h.3v.4c-.2 0-.3 0-.3.3h-.2l.5.4v-.2l.2.2c0 .2.2.3.3.4l.4.2c0 .2-.3.2-.2.4h.1v.6l-.2.5h.1l.2.1c0 .1 0 .2-.2.2-.1.1-.3 0-.4 0v-.4c-.1 0-.1-.2 0-.4H68l-.3.2c-.2 0-.3.1-.4 0h-.1s0-.2-.1-.1Zm-18.9 7 .3.3h.6v.3h-.6l-.3.4.4-.1h.1c.2.1.4.3.4.6l-.2.1.1.3s-.1.2-.3.2l-.2-.4v.1c-.1.2-.2.4-.4.4v.5l-.5.2v.4c0 .1-.2.3-.3.2h-.1l-.4-.2.3-.6v-.3s0-.2.2-.2l-.1-.3c.1-.1.1-.3 0-.4l.2-.2.1-.3c.2.1.3.4.7.3l-.2-.4-.2-.1c-.1-.1-.2-.2 0-.4V47h.5Zm-2.3-6.2-.5-.2v-.3c-.4-.1-.4-.2-.4-.6h.2l.2-.1c-.2-.4 0-.6.4-.7-.3 0-.4-.2-.4-.5.2-.1.2-.3.3-.5 0-.2 0-.3.2-.4l.5.1h.4v.9l-.4.2c-.1 0-.3.1-.3.3h-.2l.2.2-.3.5s.2.1 0 .3c0 0-.3 0-.4.2h.5c.2-.2.4-.2.6 0 0-.2 0-.3.2-.4h.1l.2.1h.3c0 .2.3.3.1.5l-.2.1c-.1 0-.2-.3-.3-.2v.4l-.4.2v.2h-.3c-.2 0-.2-.2-.2-.3Zm19.2-2.4c-.2 0-.2-.2-.2-.4v-.2h-.2v.3c-.1.1-.2.2-.4.1l-.3-.1v-.3s.1-.1 0-.2l-.1.3v.3c-.2 0-.4 0-.5-.2l.2-.2c-.2 0-.2-.2-.2-.3v-.3h.5V37h-.4v-.6l.3-.1.2.2.1-.2c.2.1.3.2.5.1l.3.1c0 .2-.1.2-.3.3l.5-.1.3.3.1.6v.4l-.4.3Z"/><path d="M47.9 47.3a1 1 0 0 1-.6 0H47v.2h.1c.2.1.2.2.1.3l-.1.2-.1-.1-.3.3h.3l-.3.4c-.1.2-.3.1-.5 0l-.2.2h-.3c-.2 0-.3 0-.4-.2v-.1H45l.2-.5.1.1h.2V48l.1-.1v.2h.4c0-.2-.2-.3-.3-.4h-.1v-.2h.2l.2-.2c.2-.2.3-.3.7-.1v-.4l-.1-.2.2-.2h.3c.2 0 .2 0 .3.2v.5q.3 0 .4.2ZM55 33.7l.3.1c.1.3.3.2.4.3v.6c.1 0 .3 0 .3.2.1.1.2.3 0 .4.2.1.2.3.3.4.2 0 .3.1.4.3 0 0 0 .2-.2.3h-.3l-.1-.4h-.4c-.1-.1-.2-.1-.2 0-.2.2-.4.2-.5 0v-.3l.2-.1c0-.2-.2-.3 0-.4-.3 0-.4-.1-.4-.3l-.1-.1c-.1-.1-.2-.1-.2-.3v-.3c.2-.2.3-.4.5-.4Zm.4 12.8-.2-.2h-.6V46l-.2-.6c-.2-.2-.3-.3-.2-.4 0-.2.1-.2.4 0l.3-.2v-.1l.2-.1c.1 0 .3.1.3.3l.2.3c.2-.2.2-.4.5-.4 0 0 .2 0 .2.2h.2c.2 0 .3.2.2.4h-.1l-.5.5-.1.1h-.2l-.1-.1-.2-.2c-.2.2-.2.5-.1.7Zm1.7-.8q.4.1.6-.1s0 .2.2.2l.2-.3c0-.3.2-.3.3-.4 0 .2.3.3.2.5h.4c.2 0 .4.3.4.5v.2c-.1.1 0 .3 0 .4h-.7l-.3-.2-.1.2H58c-.2.3-.5.3-.6 0-.1-.2-.3-.4-.2-.6l-.1-.2v-.2Zm1 .4.3.2v-.4l-.2.2Zm.2-14.5-.2.3c-.2.1-.2.3-.1.4l-.1.5-.2.3v.4l-.2.2c-.2 0-.3 0-.3-.2v-.6c0-.1 0-.2-.2-.2v-.2c.2-.2.2-.2 0-.3v-.3l-.2-.1c-.1-.1-.1-.2 0-.4h.2l.1-.2h.1l.3-.3c.3 0 .5.2.7.5v.2Zm6.1 8.7.4.8-.2.4-.4.2-.2.2-.3-.2h-.5c-.1 0-.2-.1-.2-.3-.2.1-.4 0-.4-.2V41c0-.3.2-.3.4-.3h.1c.1.1.2.3.1.4h.4c0-.4.3-.5.6-.7.1-.1.2-.2.1-.4v-.1l.3-.1.1.1c0 .2 0 .3-.2.5Zm.1-4.4c-.2-.4-.2-.4-.5-.3h-.3c0 .2.1.2.2.3v.3l-.3.1-.2-.1c0-.3-.1-.5 0-.8.2.1.2 0 .2 0v-.2h-.1c-.2 0-.2-.2-.2-.3l.2-.3.4.1v.4l.2.1v-.1c.2-.2.5 0 .7 0 .2-.2-.1-.4 0-.6l.6-.2q.2 0 .2.3l.3.3c-.1.1-.1.3-.4.4l-.5-.2v.4c.1.3 0 .4-.3.4h-.1Zm-13 6.7-.2-.4c-.1-.2-.2-.3 0-.5l-.4-.2h.5l.2-.4h.2l-.2.3h.4v-.2h.2l.1.1c.2.1.2.2.2.5h.3c0 .3-.2.4-.4.4v.5s0 .2.3.2c-.1.2-.2.2-.3.2H52l-.3.2-.1-.1c0-.1-.3-.1-.3-.3l.2-.1-.1-.2Zm8.3 2.7.2-.1-.6-.7c-.1 0-.3 0-.4-.2l.2-.2c0-.1-.1-.3.1-.4h.5v.4c.2 0 .3-.1.4 0h.5l-.3.4h.5v.3c0 .2-.2.1-.2.2l-.4-.2v.2l.2.7c.1 0 .2-.2.4 0l.1.2c-.2.2-.3.2-.5 0-.1 0-.3.1-.4 0-.1-.1-.3-.3-.3-.6Zm-21.2.1c0-.1 0-.2.2-.3V45h-.2v.4c-.1.2-.5.4-.7.2l-.2-.1c-.2-.1-.3-.3-.3-.6l.1-.3-.3-.1c-.1-.1-.3-.2-.2-.3.3-.2.4-.1.6.2 0 .1.1.2.3.2h.2l.2-.4c.2-.2.4-.2.7 0v.5c.2.2.1.3.1.5s0 .2-.2.2h-.3Zm9.8 1.6v-.2c0-.3-.1-.3-.4-.4h-.1V46c-.4-.2-.5-.3-.3-.6h.3l.3-.2c.2 0 .3.2.3.3v.3c-.2 0-.4 0-.4.2.1 0 .3 0 .5-.2 0-.1.3-.2.5-.1.2 0 .3.2.4.4-.1.2 0 .3 0 .4 0 .2-.1.4-.3.5h-.8ZM41 39.4l.2-.3c.1-.1.4-.2.5 0h.1l.3.4H42l.3.1c-.2.2-.3 0-.5 0v.4c-.2 0-.3-.2-.4 0 0 .3 0 .5-.2.6l-.2.2c0 .2-.1.2-.3.2v-.2h-.1c-.2 0-.3-.3-.5-.3V40c.2-.3.5-.4.7-.3h.3v-.3Zm1.3 7.1s-.1.3-.3.2V46c-.2-.2-.2-.4 0-.5l-.5-.3-.3.1s0-.2-.2-.2l-.2.2-.1.3.1.2-.2.2-.2-1 .5-.2s.2-.2.5-.1l.2-.4c.3.2.2.3.1.5h-.2l.1.2c.1 0 .2 0 .2-.2h.3l.3.1-.1.2.2.1c0 .2 0 .2-.2.3l.1.5v.4c-.2 0-.1 0 0 .1Zm8.1-2.8H50c-.1.1-.3 0-.5.2l-.1-.3-.1-.2c-.2-.2-.2-.2-.1-.5l-.2-.3c0-.2.1-.3.3-.3h.2l.2.1c.2 0 .4 0 .5-.2.1-.2.3-.2.4 0v.4l-.1.2v.7l-.1.2ZM46.8 52h.1v.1s-.2.1-.1.3c-.2.2-.2.4-.5.5h-.6l-.2-.2c-.1-.1-.3-.4 0-.7l.1-.2c.1-.2 0-.2 0-.2h-.3c0-.2.1-.4.4-.4v.1l.3.1h.3l.3.2.2.4Zm11.7-16v-.2l.4-.2c.2.2.2.2 0 .3v.2h.5l.5.1h.5l-.1.4v.4l-.5-.2-.2.2v.4c-.1.1-.2 0-.4 0h-.1l-.2-.4v-.4c-.2 0-.4 0-.5-.2l.2-.2v-.1Zm-11.6-3c.4 0 .4 0 .3.7.2 0 .4 0 .6.2l-.1.4c-.1.2-.3.3-.5.2 0 0-.2 0-.3-.2h-.2c-.2.1-.4 0-.6-.2V34l-.1-.2v-.2l.4-.2h.3l.1-.3Zm10.4 4.4-.2.3H57c0-.2 0-.4.2-.5l-.2-.4h-.2v-.1l.3-.1.2-.2-.1-.3c0-.2.1-.2.2-.3l-.2-.3v-.2h.5l.2-.1c0-.1.1-.1.2 0v.2l-.3.2-.2.1v.2c.3.2.3.3.2.5l.2.7h-.3c0 .2-.2.4-.4.3ZM39 41c0 .3 0 .6-.3.7v.5l.1.2c0 .1 0 .2-.2.2h-.8c-.1-.2-.2-.4-.1-.7l.1-.1c.2 0 .3-.2.4-.3 0-.3 0-.5.2-.7.2 0 .3.3.6.2Zm32.8-4.2c0-.1 0-.2.2-.3l.1-.2c0-.1.3-.2.2-.3v-.3c.1 0 .2.2.3.1.1.1.1.2 0 .2l-.2.2h.6l.2.2v.2a2.6 2.6 0 0 1 .3.3l-.2.3c-.2 0-.2-.2-.4-.3 0 .1 0 .2-.2.3 0 0-.1.1-.2 0H72l-.3-.3v-.1ZM50.4 52.3c0-.1-.3-.1-.3-.3l-.2-.1c-.2 0-.3-.2-.1-.3l.2-.4c0-.3.5-.4.7-.2.2 0 .1.2.2.3l.2.2v.2l-.1.4c-.2.1-.3.3-.6.2Zm-4.6-15.5-.3-.4-.2-.1-.1-.2v-.2l.2-.3h.6c0 .1 0 .2.2.2v.4h.3l-.3.6v.4c0 .1 0 .2-.2.2l-.2-.2v-.5Zm14.4 5.7c.2.1 0 .3 0 .4h.2v-.1l.2-.2.2.1c0 .2.3.3.3.5l-.2.2c0 .2-.2.2-.3.2h-.3c-.2 0-.3 0-.5-.2l.2-.2h-.3l-.1.3h-.1v-.6c0-.3.3-.4.6-.4h.1ZM49.3 36c.2 0 .4 0 .5.2l.2.2c.4.2.4.4.3.7l-.1.3v.2l-.2-.1-.2-.1c-.2-.1-.4-.2-.4-.4l-.1-.2a.4.4 0 0 1-.2-.3v-.3l.2-.2Zm-8.9 16.3c.2 0 .3.2.4.3h.4v.6h-.4l-.2.2c-.1.2-.3.2-.5.1H40c0-.2 0-.3-.2-.5v-.2l.5-.2.2-.3Zm-3.2-4.5v.4c0 .1 0 .2-.2.2-.1 0-.2 0-.3.2 0 .1-.1.1-.2 0-.2 0-.3 0-.3-.3V48c.1 0 .3.2.5 0l-.1-.2v-.3l.3-.1h.1l.4.2c.1 0 .2.2.1.3 0 0 0 .1-.2 0h-.1Zm13-1.1v.5c.2.2.2.3.1.6h.1c.1.2.2.2 0 .4v.1l.1.2c-.1.1-.2.1-.4 0a.9.9 0 0 1-.4-.3l.2-.2v-.3a.5.5 0 0 1-.3-.5l.1-.4c.1 0 .3-.2.5-.1Zm4.7-9.7-.3.4-.3.4-.4-.4v-.8l.1-.1.2-.2.1-.1.3-.2.2.4v.7Zm9.1-7.7c.2-.3.5-.5.7-.4h.2c0 .2.2.4.3.5.1.4 0 .6-.5.6l-.3.1h-.2v-.2l-.1-.3-.1-.3Zm6.7 4.5c.3 0 .3.3.5.3l-.1.3.4.8c0 .1-.2.2 0 .4v.4h-.3l-.1-.6H71v.3c-.3.2-.4 0-.6-.1 0-.2.1-.2.2-.2.2 0 .2-.1.3-.2l-.2-.2v-.6c.2-.1.2-.2 0-.3v-.3ZM52.4 45.7v-.2l-.3-.4.2-.2.4.1h.1l.1.1c.1.2.3.1.5.2l.1.1.1.1c.1.1.1.2 0 .4l-.2.2h-.2l-.6-.3h-.2ZM44 40.8v-.2c0-.2-.1-.2-.3-.3h-.2c-.3-.1-.3-.5 0-.7v-.1c0-.1 0-.2.2-.2h.3c.2.1.4.2.4.5 0 0 0 .2-.2.3v.4c0 .1 0 .2-.2.3Zm11 1.8c.1-.1.2-.2.2 0h.3v.1c.2.3.2.4 0 .6l.2.2c0 .2.1.3 0 .4l-.3.2a.4.4 0 0 1-.2-.4v-.2l.2-.1-.3-.1-.1-.2-.3.2-.2-.3c0-.2.2-.3.4-.4Zm3 4.7.3-.1c0-.2.2-.3.4-.2.1 0 .2 0 .3.2h.1l.2.3-.1.4-.2.2h-.2l-.6-.2c-.1-.1-.2-.2 0-.3l-.1-.3Zm-9.9-8-.1-.1.1-.2v-.3h-.4c-.3-.3-.2-.4 0-.6l.2-.2.1-.2.4.2s.2.4.1.5l-.1.3c0 .1.1.3 0 .4 0 .1-.1.2-.3.2Zm17.6 4.4h.9V45l-.3.1c0-.2-.2-.3-.4-.3l-.2-.1v-.3l-.1-.2.1-.4Zm-26.5 2.8c.1.1.3.2.2.5h-.2c-.2.1-.2.2-.2.4s0 .2-.2.2c-.2-.2-.3-.2-.5-.1l-.3-.1v-.2s0-.2.2-.2h.2c.1 0 0-.1 0-.2l.2-.3h.6Zm14.9-1.8q-.2-.2-.5-.1c-.1-.1-.2-.3-.1-.5v-.4c0-.2.1-.2.4-.2v.2h.7l.2-.2c.2.2 0 .3-.3.4-.1.2-.2.3-.1.6l-.3.2ZM40.7 39h-.5l-.2.3-.1-.2.2-.2c-.2-.1-.2-.2-.2-.4v-.1l.1-.3h.6l.3.1.3.2c0 .2-.3.2-.3.4 0 .1-.3 0-.2.2Zm21-3v-.2h.5v-.1l.5-.2s.2 0 .2.2v.8c-.3.2-.5.2-.8 0v-.3c-.1 0-.4 0-.4-.3ZM47 53.5c0-.2.2-.1.3-.2l.3-.2v-.3h.1l.3.3c.2 0 .3.2.1.4v.3c-.2.2-.4.2-.6.2h-.1l-.4-.5ZM33.8 49c0-.4.2-.6.5-.7l.4.2c.2 0 .3.4.1.6l-.1.1c-.2 0-.2.2-.3.3h-.2c0-.3-.3-.3-.4-.5Zm27.7-2.5-.3-.4h.2c.2-.2.4 0 .5 0 .1.1.1.3 0 .4h-.2l-.2.4-.2.2-.5.1-.3-.1V47c0-.2.1-.3.3-.3l.6-.1Zm-.2-9.1h.3V37h.5l.5.2v.5l-.5-.2c-.2 0-.3.2-.4.4-.2-.2-.3 0-.5-.1-.1-.2 0-.3 0-.4ZM52.2 41v-.3c-.1 0-.1-.2 0-.4v-.2c.2 0 .3-.3.6-.4 0-.1 0-.2.2-.2l.1.3-.1.2c0 .1 0 .3-.2.4v.2c0 .2-.2.2-.3.3-.1 0-.2.1-.4 0Zm23.9-8.9c.2 0 .2-.2.1-.3.2-.1.4-.1.5-.3.2 0 .2.1.2.2v.3s0 .2.2.1l.1.1.2-.4c.2.3-.1.4-.2.6v.3l-.2.1c-.2 0-.3 0-.3-.2l-.1-.3-.2-.2H76Zm-29 10.4-.2-.2c-.2.3-.3.3-.5.1l-.3-.2.1-.4h.9v-.2c.2.2.4.4.4.6 0 .1-.3 0-.4.2Zm21.4-5.2.1-.3c0-.2 0-.3.2-.4l.7.1c.2.5 0 .8-.3 1-.1-.3-.4-.2-.7-.4Zm2-1.2h.3c.2-.1.4 0 .3.3 0 .4-.2.4-.5.3h-.1c0 .4 0 .4-.5.5-.2-.1-.2-.4-.2-.6l.1-.2c.4.2.6 0 .6-.2ZM67 31.3s.1.1.2 0h.1c.2.2.4 0 .6 0h.2l-.1.3-.4.2c0 .2.4.2.3.4 0 .2-.2.3-.3.4h-.2l-.3-.4c0-.2.2-.2.3-.3v-.3c-.2-.2-.2.1-.5 0v-.3Zm-7.8 10.8c-.2 0-.3 0-.5.2h-.2v-1.1h.2l.1.1c.2 0 .4 0 .4.2.1.2.2.4 0 .6Zm-2 4.9.1.6c-.1.2-.1.2-.3.2h-.2c-.2 0-.4-.1-.3-.3V47l.1-.4h.2l.4.2Zm-7.5-8.7c-.2-.3 0-.6-.1-.8.2-.1.3 0 .4.3h.2c0 .2.1.5-.1.7-.1.3-.3.4-.5.2h-.2v-.2c.1 0 .2 0 .3-.2Zm2.5-2-.3.1h-.3V36l.2-.2c-.2-.1-.2-.4-.5-.4 0-.4.3-.5.6-.4 0 .2 0 .3.2.4v.2l-.2.2c.2.1.3.3.3.5Zm-5 3.3-.2.1-.3-.2-.2-.2v-.2l.4-.2h.2s0 .2.2.2l.1.2q.3 0 .4.2s-.2.1-.1.3h-.3l-.2-.1v-.1Zm21.4-9v.1c-.3-.1-.6-.1-.7-.4h-.2c-.2 0-.2 0-.3-.2l.1-.3h.5c.3 0 .5.2.6.5v.1l.2.2c0 .2-.2 0-.2 0ZM42.2 51.3c.2 0 .4.1.5.3 0 .2-.2.2-.3.3l.1.3-.1.1v.5h-.3V52c-.2-.3 0-.5.2-.7Zm6.1-9.6c.2.1.3.2.3.6l.2-.1c.2.2.1.3 0 .3l-.3.1.1.2s-.1.1-.2 0h-.2l-.2-.2s-.2-.1-.1-.3c0-.1 0-.3.2-.4l.2-.1Zm18.5-5.8-.3.2c-.3-.5-.3-.6 0-1l-.3.1-.1-.2c0-.2 0-.3.2-.3h.4l.1.3-.3.1h.2c.1 0 .2.2.1.3v.5Zm-15.4-2.6.1.3-.3.2v-.7l-.3.1s-.2 0-.2-.2c.2-.1.3-.1.4 0v-.2c.1-.1.2-.3.4-.3.1 0 .3.1.3.3.1.2 0 .3-.2.4l-.2.1ZM47 37l.4-.5v-.4l.4.2c.3 0 .3.3.3.5h-.2l-.2.3-.3.1c-.1 0-.3 0-.3-.2Zm12.9 1 .3-.3h.1c.1-.3.2-.3.3-.3.2 0 .3.2.3.3v.5c0 .2-.1 0-.2 0h-.1c-.2.3-.3.2-.5 0 0 0-.2 0-.2-.3Zm2.4 8.6h.7c.2.1.3.4.2.6v.2c-.3.2-.6.1-.7 0l-.1-.4v-.4Zm2.7-2.3.2.5s.1.1 0 .2c0 .2 0 .4-.2.5h-.3v-.2c-.2 0-.2-.3-.2-.5l.5-.5Zm6.1-3.8h.1l-.2.2.1.4c.3.2.3.6-.1.8l-.3-.2-.2-.4V41c.2-.1.3-.2.3-.4l.1-.1.2-.2Zm-7 9.4c-.2.2-.4 0-.6 0l-.2-.2c0-.2 0-.4-.2-.5.3 0 .5-.1.8 0l.2.2v.5Zm-17.9-.6c.1 0 .2 0 .3-.2 0-.1.1-.2.3-.2l.3.3v.3c-.2 0-.2.2-.2.3v.1h-.4a.5.5 0 0 1-.3-.3v-.3Zm12.7-19.8v-.7l.5-.1c.1 0 .2 0 .2.2v.1c.2.3.1.5-.2.5H59ZM59 38h.6c0 .5 0 .6-.5.6 0 0-.2.3-.4.2-.2 0-.2-.3-.3-.4l.2-.2c.2 0 .4 0 .4-.2Zm3.8 4.4c0-.1 0-.2.2-.1h.3c.2-.2.3-.2.4 0l-.1.1v.1l.5.5v.2l-.5.2-.3-.3.2-.2v-.3l-.3-.2h-.4Zm.6-4v-.1h.3v.3l-.2.4H63c-.2 0-.2-.2-.2-.4v-.1l.2-.3c.2-.1.2.2.4.2Zm10.4-.7.1-.3c0-.1-.2 0-.2-.2l.1-.2h.3l.3.2.3.2-.1.4c-.2.2-.3.2-.5 0l-.3-.1Zm-.3-1.9v-.3l-.2-.1v-.2h.3v.1h.2l.1.2h.1c.2.1.3.4.3.5-.1.2-.5.2-.6 0l-.2-.2ZM40.7 53.5h.6c0 .3.2.3.3.4-.2.4-.2.4-.5.4-.1 0-.3 0-.4-.2v-.6Zm2.6-.7c.3.6.3.7 0 1-.3-.2-.4-.5-.3-.8l.1-.2-.2-.2.1-.2.4.1v.2l-.2.1Zm.1-13.8-.4.3-.4.2.1-.6h-.5l.3-.5.5.1-.1.3.5.1Zm-4.9 11.1c-.1 0-.2 0-.3-.2 0 0 0-.1-.2 0l-.2-.2.2-.2s.2-.2.4 0l.3-.2c.1.2.3.2.3.4l-.3.2c-.2 0-.1.2-.2.2Zm26.3-17.4c.2-.2.3-.3.6-.2.1 0 .2.2.1.4v.5H65c-.2-.2-.3-.5-.3-.8Zm-14.9.1c0-.2-.2-.3-.3-.4-.1-.2 0-.4.2-.5h.3c.3.2.3.5 0 .6l-.3.3Zm8.4 17.1.2-.4-.3-.3c.2-.2.2-.2 0-.4h.2l.2.1v.5h.1c.2 0 .3.1.3.3 0 .1-.1.3-.3.3h-.3l-.1-.1Z"/><path d="m56.5 43.5-.2-.2-.2.1-.4-.2c.1-.2 0-.5.2-.7h.4v.5l.2.5Zm8.6-1.2v.3l-.1-.1-.1-.1h-.2v-.3h-.3c0-.3 0-.3.3-.3h.2l-.2-.2c.1 0 .2-.2.3 0h.2v.7ZM47.5 54.5c-.2.2-.5.2-.7.1h-.1l-.3-.1.1-.3.3-.1h.3c.2 0 .3 0 .3.2v.2Zm22.7-13.2h-.7l-.2-.3.5-.1v-.7h.3v1.1Zm2 2 .4.2.1.2v.3l-.3.2h-.1c-.2 0-.2-.1-.3-.2-.1-.1 0-.3 0-.4l.1-.3Zm-3.4-11h-.2c0-.2 0-.2.2-.2h.1c.2 0 .2.1.2.3l.3.3v.2h.2v.2h-.3l-.6-.2c0-.2.2-.4.1-.6ZM40.3 45.5h-.2c-.2-.1-.3-.2-.3-.4V45c-.2 0-.2.1-.3.2-.2-.3-.2-.4 0-.7l.1.1.1.1h.3q.3.3.3.8Zm9.2-12.7c.3 0 .4.2.4.6h.2v.2c0 .1-.1 0-.2 0v.3c0 .1 0 .1 0 0l-.4-.4c-.2-.1-.2-.4 0-.7ZM38.6 47.9c0 .2.2.3.1.6h-.6l-.2-.4.2-.3c.1 0 .3.2.5 0Zm16.2-15.2-.4.1-.3-.3c0-.2 0-.3.2-.4.3 0 .3 0 .5.2v.4ZM54 43h-.2l-.1-.1h-.2l-.2-.3v-.1h.3l.4-.2c.3.3.3.5 0 .7ZM38.1 53.5c.3-.1.2-.4.4-.5.2 0 .3.2.4.4-.2.1 0 .3 0 .5h-.5l-.2-.4ZM72.2 38v-.6l.2.1q.5-.1.8 0c0 .3-.3.4-.5.4h-.5Zm-19.1 3.3-.4-.3.5-.5h.2c.2.1.3.3.1.5l-.4.3Zm-16.3 8.3v.2c-.1.2-.2.3-.4.3s-.4-.2-.4-.4v-.2c.2-.1.4-.2.6 0h.2Zm12.1-4.7.2.2h.3v.3a2 2 0 0 1-.4.3h-.2l-.2-.5.1-.1.2-.2Zm6.7-12.6h.2v-.1c0-.2.1-.2.3-.2l.2.3v.3l-.2.2c-.2 0-.3 0-.4-.2l-.1-.3Zm-.1 15.4-.4.1c-.2.1-.3 0-.4-.1v-.4h.2c.2-.2.4-.2.4 0l.1.4Zm18.8-13.9H74v-.6l.1-.2.4.2s.1-.2.2 0l-.1.2-.1.4Zm-16.1-2.2.2-.1c.1 0 .3 0 .4.2v.5l.2.1v.2c-.2 0-.2-.1-.3-.2l-.2-.1-.2-.4v-.2ZM40 44.4V44c.1 0 .2-.2.3-.1h.4v.2c.1.2 0 .4-.1.5-.2 0-.3-.3-.6-.2Zm4 9.7-.2-.2v-.1h.3l.2.2v.4l-.1.3-.3-.1v-.4h.2Zm8.6-20.5h.5v.3c.1.2.1.3 0 .4-.2.2-.3.1-.3-.1l-.2-.3v-.3Zm-6.9 16.8c0-.2-.1-.3 0-.4v-.3l.3.1c.3.1.3.3.2.5l-.1.2-.4-.2Zm20-7.2c-.2 0-.4.2-.6 0l.4-.5v-.2c0-.2.1-.2.3 0v-.1h.1c0 .2 0 .3-.2.4v.4ZM40.1 57.1c-.1.2-.4.2-.4.4l-.4-.2V57h.4l.2-.1c.1 0 .2 0 .2.2Zm33.2-22.8H73c-.2 0-.3 0-.3-.2l-.1-.3.2-.1h.3c.2 0 .2.2.2.3v.3ZM51 36v.5h-.5c-.1.1-.2 0-.2-.1V36l.3-.2h.3Zm19.4-4.9.2.2v.3c.1 0 .2 0 .2.2h-.2v.3l-.2-.1v-.2h.1q0-.2-.3-.3v-.6h.2v.2Zm-5.6 1.5h-.3c-.1-.2-.2-.3 0-.5l-.1-.2c.2-.2.5-.2.7 0l-.4.2.1.6Zm9.4 4.2.1-.2.3-.2c.1.1.2.2.4.1 0 .3-.2.4-.4.6h-.1l-.3-.3Zm-11 6.7c-.1 0-.3.2-.4 0-.2 0-.2-.2-.2-.3l-.2-.1.2-.1h.5c0 .2.2.3.1.5ZM48.5 52l.2-.4.3-.1h.3l.2.1c0 .3-.2.3-.4.4h-.6ZM37 51.4c.1 0 .3 0 .5-.2 0 .1.2.1.2.4 0 0-.2 0-.2.2l-.2.2c-.3-.2-.4-.3-.3-.6Zm8 5.9.2.1c.1 0 .2.2.1.4l-.4.2-.3-.3v-.1l.2-.2.2-.1ZM61.7 36l-.4.3-.5-.4c0-.2.1-.2.3-.3.2 0 .3.1.4 0 0 .2.1.3.2.3ZM54 34.8c.3 0 .3.3.3.5l-.3.2h-.3l-.2.2c0-.2 0-.4.4-.4-.1-.2 0-.3.1-.5Zm15.2-6v-.3c0-.2 0-.3.3-.3h.2c.1.1.3.3.1.6h-.6ZM38.9 45.7s0 .2.2.2v.1l-.1.1-.5.1c-.2 0-.2-.2-.3-.2.2-.3.4-.4.7-.3Zm37.4-10.4h-.2V35l.2-.3c0-.2.2-.2.4-.1h.1c0 .4-.1.5-.5.4v.3ZM45.2 46.5V46l.5-.1h.2c0 .1-.1.3 0 .4 0 .1-.1.2-.3.2l-.1-.2h-.3ZM38 53.3h-.5c-.2-.2-.2-.4 0-.6l.4.2h.1l.1.4ZM46.6 32l.3.1c.2 0 .2.3.2.5v.2c-.2 0-.3 0-.5-.2v-.2s-.1-.2 0-.4Zm1.7 8.8h-.2l-.2-.1v-.5h.3c.1 0 .2.2.1.3v.3ZM73 32.5h-.3v.2l-.1.1c-.2 0-.2.1-.3.2h-.1v-.3l.2-.1v-.2l.1-.2c.3 0 .4 0 .4.3Zm-6 5.4h-.2l-.2-.1v-.3h-.3l-.2-.2c.1-.2.3 0 .5-.1v.3c.4 0 .4 0 .5.4Zm-5.6 5.8.1.3v.3h-.3c-.1 0-.2 0-.2-.2s0-.3.2-.4h.2ZM41.6 55.6l.3-.1c.3.2.3.3.2.5l-.4.1c-.1 0-.2-.2-.1-.5Zm-2.2-6.3c-.2-.2-.2-.3 0-.5l.2-.2.2.1c.1.2 0 .3 0 .4h-.1c-.2 0-.2.1-.3.2Zm5.3 3.7c.2 0 .3.2.3.4.2 0 .4 0 .4.3l-.3.1-.2-.3a.4.4 0 0 1-.4-.4c0-.1 0-.2.2-.2Zm18.2-5.4h.4c.1 0 .2 0 .2.3 0 .1 0 .2-.2.2-.2.1-.4 0-.4-.2v-.3Zm.1-7.4.1-.1c.1-.1.2-.1.4 0 .2 0 .2.2 0 .3 0 .2-.2.2-.4.2l-.2-.4Zm-5.5 4.4c0-.1 0-.3.3-.3l.2-.2.2.2v.4h-.7Zm-4-2.6-.5.2v-.3l.1-.2.1-.2h.3v.6ZM37.2 57l-.5-.1.1-.5h.4v.5Zm3.8-9.2-.2-.2v-.2l.5-.2c0 .1 0 .2.2.3l-.2.3H41Zm20 2.5c-.2.2-.3.2-.5 0l.1-.5h.3l.2.5Zm7.6-19.1.1.1.2.3c-.2.3-.3.3-.5.2h-.3l.2-.1v-.2l.3-.3ZM59 43.4c-.4 0-.4-.1-.4-.4.2-.3.4-.2.6.1l-.2.3Zm-10.6-7.2h-.2c-.2 0-.3 0-.3-.2l.1-.3c.2 0 .4 0 .5.2v.3Zm15 1c.1.3 0 .4-.2.6l-.4-.3v-.3c.2 0 .4.2.6 0Zm3.3 4.7.2.3-.3.4c-.3 0-.3 0-.3-.5l.4-.2ZM49.5 30.5l.1.5q-.2.1-.4 0l-.2-.3c.2-.3.2-.3.6-.2ZM66.4 39l.3.2-.2.2-.4.2h-.2v-.3l.3-.2h.2Zm6.8 1.4c.3 0 .3.1.2.5H73v-.3l.3-.2ZM49 35.1h.3c.2 0 .3 0 .3.2v.3h-.2l-.4-.3V35Zm21.2-1.6-.1.4-.3.1v-.3c-.2-.2 0-.3 0-.5l.4.3Zm-.8 12.3c-.4.1-.5 0-.6-.3l-.1-.2c.3 0 .6.1.7.6Zm7.8-7.6c-.4-.2-.5-.3-.2-.8 0 .2.3.2.3.4s0 .3-.2.4ZM46.5 56.6c0-.3-.2-.4-.2-.5 0-.2.2-.2.3-.2l.3.3c0 .3 0 .3-.4.4Zm27-26.9q-.2-.1-.4 0a.4.4 0 0 1-.4-.4c.2-.2.4-.1.5 0l.2.2v.2ZM62.9 46.4l-.1-.4c.1-.2.2-.2.3-.2.2.1.2.2.2.4s-.1.2-.4.2Zm-9.6 1 .2-.1c.2 0 .3 0 .3.2s-.1.3-.3.3h-.2v-.4Zm.2 2.3c.3-.2.4-.2.7.3H54c-.3 0-.4 0-.5-.3Zm2.6-10.2.1-.3h.3c.2 0 .2.1.2.3l-.3.2-.3-.2Zm-13.9.9-.1-.2h.4l.2.2-.1.2c-.1.2-.4.2-.5 0-.1-.1 0-.2 0-.2Zm4.6 1.3v-.4c-.1-.2 0-.3.2-.4h.1c0 .2.1.3 0 .4l-.1.2-.2.2Zm22.5-7.9c.2.1.3.2.2.4h-.3v-.4H69v-.3c0-.1.1-.1.2 0l.1.2v.1Z"/><path d="M48.5 52v.1l.1.2c0 .1-.2.2-.3.1h-.1c-.2-.2-.2-.3 0-.5h.3ZM36 53.7c-.3.1-.4.1-.4 0a.3.3 0 0 1 0-.4h.3l.1.4Zm29.6-14.4c-.4-.2-.4-.3-.2-.6.4 0 .3.3.5.4 0 .2-.1.2-.3.2Zm-20 15.2.2.4c-.1.1-.3.3-.5.3v-.4c0-.2.2-.2.3-.3ZM62.5 40v-.2l-.1-.2c.1 0 .3-.1.4 0l.2.2c0 .2-.1.3-.5.2Zm.7 4.9.1-.5h.3l.1.2-.1.3c-.2.2-.2.2-.4 0ZM58.5 34v-.4c.2-.1.2-.1.5.1v.3h-.5ZM39.8 47.8l-.1.2-.3.1-.2-.5h.2s.1-.1.2 0c0 0 .2 0 .1.2Zm16.8-2.1.2.2-.2.4h-.1c-.1 0-.2 0-.2-.2l.1-.3.2-.1Zm12.9-13.1c.1 0 .3-.2.4-.1.1 0 .2.2.1.3l-.2.2c-.2 0-.3-.1-.3-.4ZM39.8 47.8h.2c-.1-.2-.2-.3-.1-.4v-.2l-.1-.1.3.1v.3l.2.2c0 .2 0 .2-.3.1h-.2Zm-.5-4.4c.2 0 .4-.2.4.1l-.3.2-.4-.1.1-.3h.2v.1Zm1 7.9c.1-.3.2-.4.5-.2v.3c-.3.1-.3 0-.5-.2Zm-.6-4.9h.3l.3.1c-.1.3-.2.4-.5.3l-.1-.4ZM59 38h-.4v-.2l.4-.1h.2l-.1.2v.1Zm14.2-4.8h.4l.2.4-.4.2-.2-.6Zm-2.6-.1c-.2.2-.3.2-.5-.2l.5-.1.2.1-.2.2ZM49.1 50.3l.1-.2h.2l.3.1v.3h-.4l-.2-.2Zm-.8-8.6a.7.7 0 0 1-.3-.3V41h.3c.2.2.2.4 0 .6Zm18-4-.1.4v.2H66v-.4c0-.3 0-.3.3-.2Zm6.6-8.7c-.2 0-.4.4-.6 0l.2-.3c.3 0 .3.1.4.4ZM50.5 41.8c-.3 0-.3-.2-.3-.4l.3-.2c.2.2.2.2 0 .4v.2Zm27.8-9.1.5-.4v.5c-.2.1-.3.2-.4 0l-.1-.1ZM43 54.3v.2c0 .2 0 .3-.2.3s-.3-.2-.3-.3c0-.2.1-.3.3-.3h.2ZM40.6 47l-.1.2-.1-.1v-.3c.2-.3.3 0 .5 0v.3h-.2Zm9.3-12.4c.1 0 .3 0 .3.2 0 .1 0 .2-.2.2-.1 0-.3 0-.3-.2 0 0 0-.2.2-.2Zm25.4 1.6c.4 0 .4 0 .5.4-.3.2-.4 0-.5-.4Zm-9.1 5.3.1-.4.4.1c0 .3-.2.3-.5.3Zm-7.9-6c0-.2 0-.4.2-.5h.3v.2c-.1 0-.2.4-.5.3ZM45.7 45v-.4c.2-.2.3-.1.4.2 0 .2-.2.2-.4.2Zm21.5-6.5c0 .3 0 .4-.2.5-.2 0-.2 0-.3-.2.2 0 .3-.4.5-.3ZM46.6 50.9q.2-.3.4-.3c.2.2.2.3 0 .4-.1.1-.2 0-.4-.1Zm11.5-2.3c-.2.3-.2.3-.5.1v-.3h.3c0 .2.2.2.2.2Zm-20 2.7.2-.4c.3 0 .3.3.3.6-.3 0-.3-.1-.5-.2Zm32.5-7.1-.3-.1c0-.2 0-.3.2-.3.1 0 .3 0 .3.2 0 0 0 .2-.2.2ZM65 30.7c.2-.3.3-.2.6 0-.4.3-.4.3-.6 0ZM43.6 43.9c.2 0 .3 0 .3.2 0 .1 0 .2-.2.3h-.1l-.1-.2.1-.3ZM55 42.6h-.2l-.2-.2-.2-.2h.5s.2.2 0 .4Zm17.7-11.2c-.2.1-.3.4-.6.2l.2-.5c.1.2.3.1.4.3ZM53 44.6l.3.1v.3h-.2c-.2-.2-.2-.3-.1-.4Zm16-14.9-.4-.2v-.2l.2-.1c.2 0 .3.1.2.3v.2Zm-.3 6.3c-.1.3-.2.5-.4.5l-.1-.3.4-.2Zm-13 8.7c-.2 0-.2 0-.2-.3l.2-.2h.2l-.2.5Zm-17-7.7c0 .3 0 .5-.3.6l-.2-.3c.2-.1.3-.3.5-.2Zm39.2-5.5c0-.2-.1-.3 0-.4.2-.1.3-.1.4 0 0 .1-.1.4-.4.4Zm-8.8-1.3H69l-.2-.2c0-.2.1-.2.2-.3h.2v.5Zm-.2-1.7c.2.1.2.1.1.5-.4-.2-.4-.2-.1-.5Zm-13.1 8.4v.3l-.4.1V37l.3-.1Zm-1.2 7.3c.2-.1.3 0 .4 0v.2c-.1.2-.2.2-.3.2l-.1-.2v-.2Zm10.6 2q-.2 0-.4-.3v-.2c.4 0 .4.2.4.5Zm-.6-7.4h-.4v-.5c.4 0 .5.2.4.5Zm.9.6c0 .2-.2.3-.4.3v-.3c.2-.1.3-.1.4 0Zm-.9-.6h.5v.2c-.2.2-.3.2-.4-.2Zm-23.8-1.4v-.1h-.1c-.4 0-.4 0-.4-.3h.3c.1 0 .3.1.2.4Zm20.9 5.4h.4l.1.2-.3.3-.2-.5Zm17.8-7.9.1-.3h.3v.3h-.4ZM54 36.3c-.4-.2-.4-.3-.2-.5l.1.2c.2.1.2.1 0 .3Zm10.6 7.2c0 .2-.2.3-.3.3H64v-.2c.2-.2.3-.2.5 0Zm-10.4 3.3.2.1c0 .2-.1.3-.3.4l-.2-.2.3-.3Zm6-15c.1 0 .2.2 0 .3-.2.1-.3 0-.3-.1v-.2h.3Zm.9 16.2c-.2.3-.2.3-.4 0 .1-.3.2-.3.4 0Zm-14.3 2.3h-.3l-.1-.2.2-.1c.2 0 .2 0 .2.3Zm10.5-2.5.5.1v.3c-.3 0-.4 0-.5-.4ZM39 52c0 .2 0 .3-.4.2 0-.2 0-.2.2-.2h.1Zm32.7-12.9-.2.2c-.2-.2-.2-.2-.1-.6.2 0 .2.3.3.4Zm-.9-.3-.4.2q-.1-.1 0-.2v-.1c0-.2.2-.2.3-.2v.3Zm4.8-.9-.3-.2c0-.3.3-.1.4-.2.1.2 0 .3 0 .4Zm-4.1 4.8h.3v.4c-.2 0-.2-.1-.3-.4Zm-2.2-.8c-.1 0-.2 0-.2-.2 0-.1 0-.2.2-.3l.2.2c0 .1 0 .2-.2.3Zm-12.2 1.7.3.1c0 .1 0 .2-.2.3-.1 0-.2 0-.2-.2l.1-.2ZM40.6 55.2l.3-.2.2.1c0 .2-.2.3-.3.3l-.2-.2Zm19.9-18-.1-.2.1-.3.2.1c0 .2 0 .3-.2.4ZM42 40.8l-.4.4v-.3s.2-.2.3-.1Zm24-.8c0 .2 0 .1-.3.1h-.2c0-.2.1-.2.2-.2h.3Zm6.4-10v.2l.2.2s-.1.2-.2.1l-.2-.2c0-.2 0-.2.2-.2Zm-27.6 9.3c0 .2-.1.3-.3.2l-.2-.1.1-.2h.4Zm29.6-7.8c-.3-.1-.4-.1-.3-.4.2 0 .3 0 .3.4ZM56 47c.3.2.3.2.3.4H56a.4.4 0 0 1-.2-.3l.2-.1Zm5.2-10.5h.3l.1.1v.1c-.3.1-.3 0-.4-.2ZM71.7 30v.7l-.2.1v-.6l.2-.1Zm-27.5 8.8H44a.9.9 0 0 1-.5-.2h.3l.4.2Zm26.3-1.5h.2l-.1.3-.2-.1v-.2Zm2.9-5c.2.2.2.4 0 .6l-.1-.2v-.4Zm-20.6 3.1.3-.1v.3h-.3v-.2Zm-15.6 5c0 .1-.1.2-.3.2v-.3l.3.1ZM58.5 36c0 .1-.1.2-.2.1-.2 0-.2-.1-.2-.2.2-.2.2-.2.3 0l.1.2ZM44.8 52.6l-.1.2c-.1 0-.2 0-.3-.2l.2-.2.2.2Zm-5.3-.6h-.3l-.1-.3h.3l.1.2Zm11.3-22.5h-.3v-.2c.2.1.2-.2.4 0v.2Zm.2 14.3h-.4v-.2c.2-.2.3-.1.3.2Zm17.3-1.6c.2.2.2.2-.1.4-.1-.1-.2-.2-.1-.3l.2-.1Zm-9.1 8.5.2-.2.3.1v.2h-.2l-.3-.1Zm16.3-15 .3-.1h.2c0 .3-.1.3-.2.3s-.2 0-.3-.2Zm-32.9 8.7c-.4 0-.4-.1-.3-.4l.3.2v.2Zm29.8-6.1.2.3-.2.1-.2-.1c0-.2.1-.2.2-.3Zm-24-6h.3v.3q-.2 0-.3-.4ZM75.1 31l.3-.1c.1 0 .2.1.2.3-.1 0-.3.1-.5-.1ZM53.9 41.4l.1.2-.2.2c-.2-.1-.2-.2.1-.4Zm-13.1 5.1h.5v.1l-.3.1-.2-.2Zm19.4-.2s.2 0 .2.2v.2c-.2 0-.3 0-.3-.2l.1-.2ZM46 45.9h-.2v-.5h.2v.5Zm31.7-10.1-.3-.1s0-.2.2-.2l.2.1c0 .1 0 .2-.2.2Zm-6 2.2.2.1v.1l-.2.1s-.2 0-.1-.1l.1-.2Zm-10.1-3.4c.3 0 .3.1.2.3 0 0 0 .1-.1 0-.1 0-.2 0-.1-.1v-.2ZM41 47.8h.1l.3.2-.3.1s-.1-.2-.3-.2v-.1h.2ZM72.3 34v.3h-.2c0-.1 0-.3.2-.4Zm-1-1.4s0 .2-.2.2c-.2-.2-.2-.2 0-.5l.2.3Zm-31.8 7.9-.2-.1c0-.2 0-.3.2-.4v.5Zm8.7 14.8c.1 0 .2.1.2.3h-.2c-.2-.2-.2-.2 0-.4Zm11.5-7c.1.1.2.2.1.4h-.2v-.3h.2Zm-3.3.4c.2-.1.4-.1.5-.3.1.2-.2.2-.1.4l-.4-.1Zm19-15c.3-.1.3 0 .3.2q-.2 0-.3-.2ZM45.7 50.4v.1h-.2c-.1 0-.2 0-.3-.2l.1-.1h.1l.1.2h.2Zm30.8-14.3q-.1-.2 0-.4c.2.2.2.2 0 .4ZM71.6 40c0 .3 0 .4-.2.4h-.1v-.2l.3-.1Zm-13.7 2.3v-.2h.2l.1.3h-.3Zm17.8-7.6.2-.2h.1v.2c-.1 0-.2.1-.2 0Zm-13.2-.4c.2 0 .3 0 .3.2l-.1.1c-.1 0-.2 0-.2-.2v-.1Zm15.8-.9h.2l.2-.1-.3.4c-.2-.1-.1-.2 0-.3Zm-3.5.4h.3s.1.1 0 .2q-.2 0-.3-.3Zm-14.9.2h-.4v-.2h.3c.1 0 .2 0 0 .3ZM40.6 52v.1l-.3-.1.1-.2c.1 0 .2 0 .2.2Zm34.3-19.7h.2v.2h-.2v-.2Zm-6.4.7c-.2 0-.3 0-.3-.3h.2c.1 0 .1.2 0 .4Zm-1.2-2.5.2-.1s.2.1.2.3c-.2 0-.4 0-.4-.2Zm-16.1 5.3v-.3h.2c0 .3 0 .3-.2.3Zm-6 16.2-.2.2h-.2l.1-.2h.3Zm32.2-22.4q-.2-.1-.2-.3c.3 0 .3 0 .2.3Zm-38 16.7h-.2l-.1-.1.2-.1h-.1l.3-.1v.3Zm5.9-8.3v-.3c.3 0 .3.2.2.4h-.2Zm7.6 1.4h-.3c-.1 0 0-.1 0-.2.2 0 .2 0 .3.2ZM48.5 45h-.3l.1-.3.2.3Zm-6.8 6.1.2.1v.2h-.3l.1-.3ZM41 39.4l-.2.2v-.3s0-.1.2 0c0 0 .2 0 .1.1Zm.6.8h.3v.1l-.1.1-.2-.2Zm.1 7.1c-.1-.2 0-.3.1-.4v.3h-.1Zm20.7-2.2.1-.4v.2l-.1.2Zm5.8-11.9H68s-.1 0 0-.2c.1 0 .2 0 .2.2Zm-28.7 6.5q0 .2-.3.2v-.2h.3Zm3.6.7c-.2 0-.2 0-.2-.3.2 0 .2 0 .2.3ZM40.8 48v.1c-.2 0-.2 0-.2-.3l.2.1Zm14.8-14.7.2-.2h.1s.1.1 0 .2h-.3Zm11.1-.9c.1 0 .3 0 .3.2h-.2c-.1 0-.1 0 0-.2ZM73 32v.1l-.2-.1v-.2c.1 0 .2 0 .2.2Zm-1-.9v.1h-.2c-.1 0-.1-.1 0-.2l.2.1ZM41.9 53.5h-.2v-.3h.2v.3Zm-8.5.9v.3h-.2v-.3h.2Zm34.3-25.8h.3v.2q-.2 0-.3-.2ZM41.6 55v.2h-.2V55h.2Zm17.9-12.4-.1.2-.2-.2.1-.2.2.2ZM74 34.3c0-.1 0-.2.3-.1l-.1.1v.2l-.3-.2Zm-17 16h.3v.2c-.2 0-.3 0-.3-.2ZM41.4 38.5l.1-.2c.2 0 .2 0 .3.2h-.4Zm3-.8v.3h-.2v-.2c0-.1.1 0 .2 0Zm25.5-7.1h-.1c0 .1-.2 0-.2 0v-.2c.1 0 .3 0 .3.2Zm9.1 3.6h-.2q.1-.2.4-.2l-.1.2Zm-27.6 8.4q0 .2-.2.2c-.1 0-.1 0 0-.2h.2Zm16-6.9q0-.2.2-.2c0 .2 0 .3-.2.2Z"/><path d="M59.8 48.3c-.1-.2 0-.3 0-.4.1 0 .2 0 .2.2 0 0-.2 0-.3.2Zm16.9-17.9c-.2-.1-.2-.1 0-.4q.1.2 0 .4ZM49 37.2l-.1-.2c0-.1 0-.1.1 0 .1 0 .1 0 0 .2Zm15.5-3q.2 0 .2.2h-.2v-.2ZM69 34h-.2v-.2h.2v.2Zm-8-3.2h.2l-.1.3h-.2v-.3ZM46.7 53.5v.3q-.2-.1 0-.3Zm-8.7-1 .2-.2h.1v.2H38Zm41.1-22.3.1-.2.1.1c0 .1 0 .1-.2 0ZM54 43.4c.3 0 .3 0 .3.2q-.2 0-.3-.2Zm-9.8 10.3v-.2h.3v.2h-.3Zm25.6-21.9v-.1h.2v.1h-.3Zm-30.3 6q.1.1 0 .2-.2-.1 0-.2ZM61.8 47l.3.2h-.2s-.1.2-.2 0l.1-.2ZM73 35l-.4-.1.1-.1c.1 0 .2 0 .2.2Zm-22-.6c-.2.1-.2.1-.4 0q.2-.1.4 0ZM40 52.1c-.1 0-.2.2-.3 0V52l.3.1Zm36.5-18.5.1.2v.1h-.1v-.3ZM55.1 32q.2.2 0 .4s0-.1-.1-.2l.1-.1ZM39.5 50.6q.2.2.1.3-.2 0 0-.3Zm36.4-17.2-.3-.2c.2-.1.3 0 .3.2Zm-13.4 1.7s.1.1 0 .2c-.2 0-.2 0 0-.2ZM45.1 46l-.1-.2v-.1h.2v.3Zm7.7-11.2q.1.2 0 .2v-.3Zm19.3-4.2h-.4l.3-.2.1.2Zm-.4-.6h-.2q.2-.2.4 0h-.2Zm-19.3 5.7s0-.2.2-.1v.2h-.2Zm14.2-4.9v-.3.3Zm10.2 4.4V35c.2 0 .2 0 .2.2h-.2Zm-25.9-1.9-.2.1h-.1v-.1s.1-.1.2 0ZM63 45h-.2v-.1c.1 0 .2 0 .2.2Zm-6.5 4.9-.1.1h-.1v-.2h.2Zm-8.5-10s0 .2-.2.1c0 0-.1 0 0-.1 0 0 0-.1.2 0Zm29.8-6.2q.2 0 .2.2c-.1 0-.2 0-.2-.2Zm-10.5 8.9h.1l.1.1v.1h-.2v-.2ZM49 32.7v.2h-.2c0-.2.1-.2.2-.2Zm23.5-4.2q-.2-.1-.1-.3v.3Zm-3.9 13.3v.3l-.2-.1c0-.2.1-.2.2-.2Zm-10.2 1.5q.2.1 0 .3v-.3Zm-7.7 1 .1.2-.1.1-.1-.1.1-.2Zm-10 2.1-.1.1h-.2v-.2h.3Zm11.9-5.3c-.2.2-.2.2-.4 0h.4ZM71 31.4l-.2-.1.1-.2h.1v.3Zm-17 9.8-.2-.1.2-.2v.3ZM73 31c-.2 0-.2-.1-.2-.3q.2 0 .2.3ZM42.9 44.8l-.3-.1.2-.1.1.2Zm23.1.7v.3-.3Zm-17.8-8.1v.2H48c0-.2 0-.2.2-.2ZM42 54.1h-.1s-.2 0-.1-.1h.2v.1Zm32.8-18.3v.2h-.2c0-.1 0-.2.2-.2ZM38.5 51.9h-.2v-.1h.2Zm17.7-15.3-.2.2s-.1-.1 0-.2h.2ZM45.7 47.1v.3-.3Zm23.8-17.3c-.2 0-.3 0-.3-.2l.2.1Zm7.5 4.5v.3-.3Zm-28.5 1 .1.1v.1h-.2v-.2h.1Zm13.3.2c-.1-.1-.2-.2 0-.3v.3Zm14.3-3.2q-.2 0-.2-.2l.2.2ZM53.4 50.5c.2 0 .2 0 .2.2l-.2-.2Zm26.1-20v.2h-.1v-.2Zm-31 6.6-.1-.2c.2 0 .2 0 .1.2ZM40.8 50h.2v.2c-.2 0-.2 0-.2-.2Zm28.4-18.1-.3.2v-.2h.3Zm9.7 3.7-.1.1h-.2l.1-.2.2.1ZM68 32c.2 0 .2.1.3.2l-.2.1v-.2Zm5.5-.8v-.3.3ZM37.4 50.5l-.1-.2h.2l-.1.2ZM73 27.7c.2 0 .2.1.1.2q-.1 0 0-.2ZM41.7 45.8v.2h-.2c0-.2.1-.2.2-.2ZM56.2 48l.2.2v.1h-.2V48ZM39 55v.2l-.1-.2h.2Zm32.4-17.2v.2q-.2 0 0-.2Zm-25 8.9h-.2v-.1h.2Zm27.4-14.5V32h.2c0 .1 0 .2-.1.1h-.1ZM38.9 45.7v-.1l.2.1H39Zm31.4-6.5v.3-.3Zm6-6.2H76v-.1h.2Zm-5.7.1.2.1v.2l-.1-.3Zm-17.9 0v.2h-.2c0-.1 0-.2.2-.2Zm-4.3 17.4c-.1-.1 0-.2 0-.2h.1l-.1.2Zm28.9-17.1q.1.2-.1.2l.1-.2Zm-3.8-4.6v.3-.3ZM58 44v.1h-.2v-.2h.2Zm7.4-7.6v.2c-.1 0-.1-.1 0-.2Zm-6.2 7.1v-.1h.2v.1h-.2Zm-9.5 1.3h-.2v-.2c.2 0 .2 0 .2.2Zm28.7-11-.1.2.1-.2ZM42.3 57.7c0-.1.1-.2.2-.1v.1h-.2Zm25.5-27h.2c-.1.1-.2 0-.2 0ZM62.9 38l-.1.1h-.1V38l.2.1Zm-23 16.7v.1h-.2v-.2h.2Zm23.1-24h.3q0 .2-.2 0Zm6 .3.2.2v.1H69V31Zm-4.7 3.4H64v-.2c.2 0 .2 0 .2.2Zm9.8-4c.1-.1.2-.1.2 0h-.2Zm-32.4 8.4-.2-.1h.2Zm14.5 4.8v.2l-.2-.1.2-.1Zm16.7-13.3c-.1-.2-.1-.3 0-.4v.4Zm-11.2 12h-.1V42h.2l-.1.2Zm-22.1 8.2c-.1 0-.2 0-.1-.2.1 0 .1 0 0 .2Zm7.2-1.8c.1 0 .2-.1.2 0s-.1 0-.2 0Zm31.8-17.2h-.2c.1-.2.1 0 .2 0ZM54.3 46.3l.3.1-.3-.1ZM42.5 40l-.1-.2.2.2Zm16.8-6.3-.1.2.1-.2Zm13.6 5.6-.1.2v-.2ZM68 35.4q-.2-.1 0-.2v.2ZM40 51.8h-.1.2Zm-.4-10.2v.2c-.1 0 0-.1 0-.2Zm37.7-6.7.2.1-.2-.1Zm-7.8 7.4-.1-.2c.1 0 .2 0 .1.2ZM57 44.9c.2 0 .2 0 .1.2v-.3Zm-13.1-9.1.2-.2q0 .2-.2.2ZM72 29v-.1Zm-21.2 5.9-.2-.1h.2ZM62.2 38v.2-.1Zm7.7 0-.1.1V38Zm-17.1-2.6h-.2v-.2l.1.2Zm.2-.8v.2c-.1-.1 0-.2 0-.2Zm18.5 1.8v-.2h.1v.2ZM46.1 54.1l.1.1c-.1 0-.1 0 0-.1Zm21.2-24.8v.1-.1Zm9.9 6.2v-.3.3ZM51.8 38c.1 0 .2 0 .1.2-.2 0-.1-.1 0-.2Zm12.7-4h-.2l.1-.1h.1Zm-9.1 15.3-.3-.1h.3ZM72 31.1l.1-.2.2.1-.3.1Zm-1.2-.2-.2-.1h.2ZM39.4 46.3h.2l-.1.2v-.2Zm25.4-6.2.3.1h-.3Zm8.8-10.7h-.1.1Zm.9 5.1-.1.1v-.1h.1ZM49.2 53.3c-.1 0-.1-.1 0-.2v.2ZM63.6 40h.2c0 .1 0 .1-.1 0Zm-9-4.3h-.1.1Zm23-1.7-.2-.2q.2 0 .2.2Zm-34.9 4-.1.1V38h.1Zm19.6 2.1c.1 0 .2 0 .1.2l-.1-.2Zm-8.7-6.4v.2-.2ZM42.3 38l.1.1h-.1V38Zm1.4 3h-.2l.1-.2v.2Zm.8 14.4.1.1h-.1Zm7-20.7-.2-.1h.2v.1Zm22.8-5.1.1.1v.1h-.1v-.2Zm-4.9 2.1h.2v.1h-.2Zm-5.9 7.8h-.1l.1-.1Zm.5-3.8.2.2H64c-.1 0 0-.1 0-.2Zm-7.7 10.9v.2H56v-.1h.2Zm.8 3.2v.3-.3Zm15.7-21.2-.1-.2c.1 0 .1 0 0 .2Zm-6.1 9.9-.2-.1h.2ZM50 41l.2.2H50V41Zm29-9v.2-.2Zm-7.7.6.1-.1v.2l-.1-.1Zm-19.5 2.2h.1-.1ZM70.6 37s0-.1.1 0h-.1ZM57.4 48.5v.2-.2Zm-7.6-3.9h.1-.1ZM42.4 39l.1.1h-.1Zm22.9-8.9v.1h-.1l.1-.1Zm-7.7 21.7h-.2.2Zm4.4-8.3Zm-2.6 5.9h-.1v-.1h.1v.1Zm13.3-20-.2-.1h.2ZM46 44v-.1h.1Zm-6.6-2.7h-.2.2ZM72 42.5v.1h-.1v-.1ZM50.3 39v.1Zm13.4 0Zm-13.2.4Zm4.7 9.1H55h.2Zm5.4-2.3h-.1.1Zm-12.2-9.4-.1-.1ZM46 41.3l-.2.1h.1Zm-6.7-3 .1-.1v.2Zm37.5-4v.1h-.1v-.1Zm.5-.2c-.2 0-.1 0 0-.2v.2ZM40.8 38v-.1Zm21.8-4.2Zm-17 15.7v-.1Zm29.3-13.8v-.1Zm4-5.3h-.1Zm-9 4.8c.1 0 .1.1 0 .2v-.2ZM58 40.6h-.1Zm11-2.3Zm-1.3-7.5ZM56.8 49Zm-5.6-5.8V43ZM74.1 32h.1Zm-2.3 1.6ZM40.7 46.2V46ZM70.5 29h.1-.1Zm-3.1 12.7h-.1.1Zm.9-8.3v.1-.1Zm.3 0ZM41.5 46.9h-.1.1Zm7.7-1.9h.1-.1Z"/></g><g fill="#c5dbff"><path d="m21.9 46.8-10.5 5.1-1.2-3.2 11.7-1.9zm-.1-.4 9.3-7.7-3.7-2.7-5.6 10.4zm43.9-.1-13.3.3 2.4 5.7 10.9-6z"/><path d="m65.7 46.3 7.3 9.6 5.1-7.4-12.4-2.2zm.4-.5 7.2-8.6-3.6-1.8-3.6 10.4zm-36.7 9.3-7.6-8.7-5 11.4s0-1 7 .2 5.6-2.9 5.6-2.9Z"/></g><path fill="#0c2160" d="M21.8 35.4c6 0 11 5 11 11s-5 11.2-11 11.2-11.1-5-11.1-11.1 5-11.1 11-11.1m0-3a14 14 0 1 0 0 28 14 14 0 0 0 0-28Zm44.1 3c6 0 11 5 11 11s-5 11.2-11 11.2-11.1-5-11.1-11.1 5-11.1 11-11.1m0-3a14 14 0 1 0 0 28 14 14 0 0 0 0-28Z"/><g fill="none"><g class="J K L"><path d="M30.5 27.6s2.7-.4 12.4.6c10.6 1 20.7 10.4 22.7 18.2M55.5 25.1l-8.4 21.3m-25.4.1l10.1-22c1.8-4 5.3-5.2 8.3-5.2"/><path d="M29 31c2.2.6 6.4 3.3 8.3 8 1.6 4 5.3 7.4 9.6 7.4h18.7"/></g><path d="M44 39.4h3.5v1.2H44z" class="M N O"/></g><circle cx="21.8" cy="46.4" r="1.6" fill="#ee0290" class="J K"/><path d="M54.1 24.6c-1 0-1.4-.3-2.3-.3s-1.8.4-1.8 1.5c0 .4.3.7.7.7h7c1.4 0 2.5-1 2.4-2.2 0-.7-.5-1.4-1.7-1.4-2 0-2.8 1.7-4.3 1.7Z" fill="#0c2b77"/><g fill="none"><g class="L"><path d="M52.9 31.7s-14.3-3.5-21.2.4" class="J K"/><path stroke-linecap="round" stroke-width="2.5" d="M36.5 20s1.6-.7 4.2-.7" class="M"/></g><path d="M46.5 52.3H50v1.2h-3.5z" class="M N O"/></g><path d="M50.2 46.5a3 3 0 1 1-6.1 0 3 3 0 0 1 6.1 0Z" fill="#0c2b77"/><path d="M67.1 46.4a1.7 1.7 0 0 1-3.3 0 1.7 1.7 0 0 1 3.3 0Z" fill="#ee0290" class="J K L"/></svg>