<svg xmlns="http://www.w3.org/2000/svg" viewBox="0 0 59.1 59.1" xmlns:v="https://vecta.io/nano"><path fill="#1a73e8" d="M.5.5h58v58H.5z"/><path fill="#0254c2" d="M58 1v57H1V1h57m1-1H0v59h59V0Z"/><g fill="#0065d3"><path d="m21.8 19.7.1-.1.2-.5c-.3-.5-.7-.4-1.1-.2q.1.7.8.8Zm35.5-.2.5.5v-1c0 .2-.3.3-.5.5Z"/><path d="M57.6 12.5h-.3c0-.3-.3-.5-.5-.5-.4-.2-.5-.4-.5-.7l1-.4c0-.4-.2-1 .5-1.1q-.4 0-1 .3v.6c-.4-.5-.4-.5-.7-.2l.1.1c-.4.5-.2 1 .2 1.5l-.2.2c.1.3.2.5 0 .7l-.8.1v.1l.5 1.3.2-.1c0 .6-.5.6-.7 1-.4-.4 0-.5.2-.7H55c-.2 0-.3.2-.5.3-.2.1-.4.3-.4.6-.1.4-.1.4-.6.5-.4.6 0 1 .4 1.4l.8.8-.4.3-.6-.6-.4.1v-.3l-.4.3-.1 1-.4-.4-.3-.5-.3-.5c0-.3-.1-.6-.5-.7v1l-.6 1c.3.3.6.5 1 .4l.5.2-.7.7c0 .4.4.6.6 1-.3.1-.8-.3-1 .2.2.3.5.4.9.4.2 0 .5-.1.8 0l.6-.3-.3.5v.6c.2.1.4.2.6 0h.3l-.3.7c.6.3.8.1.8-.5.2 0 .4 0 .2.3-.3.4-.2.9 0 1.3.2.2.2.4.2.6l-1-.2c0 .2 0 .4.2.4l.7.2c-.1.3-.2.5-.4.6-.3.5-.3.9.2 1.2l.2.2c.2.4.5.4 1 .4.3-.1.5-.3.6-.7v-.4l.9.6v.2c-.2.2-.4.4 0 .6h.5v-2.4l-.4.3-.4.3c-.5-.3-.3-1-.8-1.3.4-.4.6-.8.6-1.3 0-.3 0-.7.3-1q.4.8.3 1.4c0 .3.2.5.4.7v-2c-.2-.4-.2-1-.5-1.3-.5-.1-.7.3-1 .5-.1-.2 0-.5-.2-.6l-1-.7.3-.4c-.2-.4 0-.5.4-.6.4-.2.7-.5.8-1l.3.1c.4 0 .6-.2.5-.6 0-.1-.1-.3 0-.4.1-.4-.1-.6-.4-.9l-.5-.4c.2-.5.6-.3.9-.4l.4.1v-4.2h-.2v.5ZM54.4 17v-.8h.1l.2.6-.3.2Zm1.8 8c-.3.1-.4.4-.8.4q.3-.5.8-.4Zm-1-5.4-1 .4v.2h.6c-.1.3.6.7 0 1l-1.9-1c.1-.2 0-.3-.3-.5l1-.1.2.3.6-.9c.3.4.6.5 1 .2.1.2 0 .4-.2.4Zm1-2.5-.7.2-.5-.5q.3-.5.6-.6c.1.1.2.4.4.4.2.1.3.2.2.5Zm1.3-3.8h.2l.2.4c-.3-.2-.5-.1-.4-.4Zm-.8 24.2c0 .2.1.2.2.3 0 .2 0 .3-.2.4l-.4.3c-.1-.4 0-1-.6-1.2.3-.8 0-1.3-.6-1.6-.1-.6 0-1.1-.6-1.5.2-.8-.3-1.3-.9-1.8h-.4c-.4 0-1 .4-1 .8-.2.4 0 .6.3.9.3.2.6.4 1 .1h.3c-.3.6-.3.6-.8.6h-.5c0 .6.5.3.8.5l.3.8v.1c-.7-.5-1.4-.2-2-.2l-.3.3c0 .2.2.3.3.3.2 0 .3-.2.5-.3-.1.5-.4.9 0 1.3l-.2.2-.1.1v.8c-.2.2-.6.3-.4.7l-.1.4c-.6 0-.4.8-1 .9h-.5c0 .1.1.3 0 .4 0 .3 0 .4.2.7.2.2.4.5.7.5.7 0 1 .6 1.6.8l.2.3c-.2.6.5.8.5 1.3l.7.5.4-.2.2-.5c.6.3 1.3.2 1.8.8-.5.3-.6.9-1.1 1-.4.2-.8.3-1.2 0h-1c-.6.2-.7.5-.7 1.2-.3.2-.3-.3-.5-.3s-.7.4-.8.6c0 .4.3.3.4.4l.2.6h.1l.3-1 .8 1.4 1.3-1 .4.9-.5.2v1c-.8-.2-1.1.1-1.3.8-.5-.5-1-.9-1.6-1-.4 0-.8-.3-1.1-.5l-.1-.3.5-.4-.1-.2c-.2-.3-.4 0-.6.1l-.1-.5-1 .6c-.2.2-.4.4-.3.8 0 .3 0 .7.5 1l.3.3.5-.6c.3 0 .4.6.8.3v1.4H50q-1-.2-1.6.5h-.6v.2l.6.2v.7l.2.2c.4.3.8.2 1.3 0 .2 0 .4-.1.4-.4l.2-.9c.6 0 1 .6 1.5.4l.4-1.3 1-.3.2.4c.7.2 1.3 0 1.6-.8l-.5-.7.9-.7.5-1-1.7.2c-.1-.4.1-.6.4-.9.7.4 1.2 0 1.8-.6l-.2-.7c.3-.1.6-.3 1 0l.3-.1h.2v-2.3l-.8.4-.7-.7c.4.3.8.4 1.2.1h.3v-1.2h-.1l-.4.2c-.6-.2-1.2 0-1.7-.5l-.2-.1c0-.4 0-.7.5-1l-1.4-.7q-.1-.5.2-1l.7.2.3-.6c.1.3.2.5.4.6.2.4.6.6 1 .6h.3l.4-.4v-.8l-.1-.3-.6.2.2-1 .5.2V37l-.4.1c-.3.4-.3.4-.8.3Zm-5.1 2.1 1.3-1a2 2 0 0 1 .9-2.1l.5.7-1 .6.2 1.3-.6.5.3.3-.7.3-1-.6Zm2 1.1c-.3.4-.5.4-.9.2l.8-.2Zm1.3 2 .3.4c-.4.2-1 0-1.1-.2-.3-.4-.6-.7-1-.9l-.5-.6c.3-.1.5 0 .7.2l.3.4c.6 0 1 .5 1.3.8Zm2.6-5.5Zm-1.4-26.6ZM36.5 41.4l.4.6.4.2.3-.3.3-1c.2.1.4.2.4.6 0 .7 0 .7.9.7.2-.7.7-1 1.4-1l-.1-.5-.3-.6c0-.3 0-.7-.4-.8-.3-.2 0-.6-.3-.8l.7-.4V38c0-.1-.2-.3-.1-.4.2-.4 0-.6-.3-.7l-1-.4h-.6c-.3-.2-.5 0-.7.2l-.6 1-.3-.4-.6.3-.3.3-.2.3c-.3 0-.2-.6-.7-.3l-.2-1.2c-.2 0-.3-.2-.5-.3l-.5.4h-.1l-.2-.4c-.2-.2-.6-.1-.7 0-.2.2 0 .4 0 .6l.4.2.2 1c.6 0 1.1.6 1.5-.1l.9.6c.3.5-.2 1.1-.3 1.7l-.2.2-.4-.2-.5 1-.8-.2c-.1.3.2.6.2 1l-.4.4.2.2c.5.9 1.3 1 2 .4.3-.3.6-.4 1-.6-.3-.2-.6-.3-.8-.6-.1-.2-.5-.3-.4-.6h1.4Zm0-1.2c.5-.2.5-.7.4-1-.3-.4 0-.8.1-1.2.6 0 .2.7.6.8l1-.7.5-1.1c.2.5.3 1 0 1.4-.2.3-.5.5-.6 1-.5.2-.4.7-.4 1-.6.5-.6-.2-.8-.4-.3.2-.5.6-1 .7l.2-.5Zm8.7-1.6.1.1.4-.2c.5-.2.5-.2.1-.7l-.4.4H45c-.2-.6-.6-1-1.1-1.2-.5-.2-.9-.5-1.2-1.1 0-.5.2-.9.5-1.3l.9.4c.2-.6.3-.7 1.1-1 .1-.2 0-.4-.2-.6-.1-.2-.4-.2-.6 0l-.4.1c-.5-.1-.8.2-1 .6v-1c-.4-.2-.7.1-1 .4l-.4-.3c-.3.5.6.7.2 1.2l-.2-.3h-.3l-.1.2c0 .2-.1.6.4.5 0 0 .3.2.2.3 0 .3.3.5.5.7l-.8.2-.9-.6a7 7 0 0 1-.5.3q0 .8.5 1v.4c0 .4.2.7.6 1l.4.2c.2.3.2.4-.2.6.2.8.2.9.9 1.2.2-.4.8-.4.8-1l.7.1c-.3.3-.2.6 0 .8.3.2.4 0 .6 0v-1c0-.5.2-.6.8-.4Zm-2.4-1-.4.2.1-.4.3-.2v.3Zm3.3-24 .2.2c.1.5.3.8.8 1l.2.3-.8.2-.6-.8c-.4.3-.4.7-.3 1l.2.2c.4 0 .2.4.4.6.5 0 .9.3 1.3-.2-.1.5-.4.8-.6 1.2-.3.5-.8 1-.5 1.7.5 0 .9 0 1.2.4h.4l.8.1c.4.2.6 0 .9-.2 0-.3-.5-.3-.3-.7.3.4.4 0 .5-.2l-.3-.9-.4.3-.7-.3c0-.2-.2-.4 0-.6.2-.2 0-.5-.2-.7l-.6-.5.8-.1c0-.6.8-.8.5-1.6-.3.3-.8.3-.8.9h-.3c.2-.3 0-.7.4-.8v-.5h-.5l-.2-.4-.6-.1c.3-.2.5-.4.6-.8 0-.3 0-.5-.2-.7-.1-.2 0-.5-.2-.7-.3-.4.1-.9-.3-1.2l.1-1.2c-.7-.1-1 .4-.9 1.6-.1 0-.3 0-.5.2.2.5.7 1 1.2 1.5h-.9l.2.7-.6.5.6.6Zm2.4 4.7.9-.3v.6l-1 .2c-.3-.4-.7-.8-.8-1.5.8 0 .5.7 1 1Zm-2-5.3.5.1c-.2.2-.3.3-.6.2l.1-.2Zm-2.6 36.3Zm-.3-.8c-.2 0-.4-.2-.5-.1a3 3 0 0 0-1 .2h-.9l.7-.3-.5-.2-.3.1-.2.5-1 .2h-.3c-.3.5 0 .6.3.6l.4 1c-.3.5-.6 0-.9 0l-.5.3v-.6c-.3 0-.4.1-.4.3-.1.3-.3.6-.7.6v-.3l-1.2.2-.3 1.3-1.5-.2c-.2.2-.4.4-.3.8.2.4.4.5.9.7.6-.5 1-1 1.9-1 .5.6.9.7 1.5.3.2-.2.4-.3.7-.2h.3c.5 0 .7-.5.4-.8l-.7-.8c.5-.2.6.4 1 .4.5-.4 1-1 1.9-.9l.2-.7c.5 0 1 0 1.3-.6l-.4-.4.1-.4Zm13.2 4.8-.3-.7-.7 1-1 .2.4 1.1 1.2.2c.5 0 .5 0 .7-.6l.8.2v-2.1a3 3 0 0 0-.4.1l-.7.6Z"/><path d="m56.6 49.4-.2.5c-.1.2-.4.2-.6.2v.2c.4.3.5.6.1 1v.2l1 .4h1v-1.8c-.5-.2-.6-1-1.3-.7ZM49 35c-.5-.3-1 .2-1.5 0-.2-.2-.1-.6-.6-.7-.5.5.2.8.2 1.1L46 36.7c.9.3 1.8.5 1.7 1.6-.5 0-1-.1-1.3.4.4.1.7.2.8.5v.3h-.4c-.1-.2-.2-.5-.6-.5l-.4.5.2.5c.2.5.8.7 1.2.3l1.1-1h.4c.3-.5.1-1 0-1.5q.4-.3.7 0c-.3.5-.5 1-.2 1.5l-.2.8.1.3h.4c.4-.4.4-.7.1-1.1l.2-1.4.6-.5c-.3-.4-.4-.8-.8-1.2-.3-.2-.3-.7-.5-1.1Zm-3.3 4.5Zm9.6-30.1Zm.4-1.1Zm.4 2.2c0-.7.4-1.3.8-1.8-.3-.4-.7-.4-1.1-.5l-.3.7h.6v.2l-.8.3c0 .4.2.6.5.8l-.3.4-.8-.9c-.5.2-1 0-1.6.5l.4 1.3-.3.5h-1c-.3.5-.2 1-.7 1.3-.1.1 0 .5 0 .8l.1.1c.1-.5.7-.9 1-1.4l.6-.1-.3.6.3 1-.7.7c-.2-.1-.4-.2-.6 0l-.4.1-.5.7.4.3c.5-.2.7.1.8.5.3 0 .3-.1.5-.3l.4-.3-.2-.5c.7-.1.9-.8 1.2-1.3L54 14h.6c-.1-.5-.6-.5-1-.9l.4-.2.2-.4c.5.3.9 0 1.2-.3.2-.2 0-.4-.2-.6l.5-.5c0-.3.3-.4.5-.5Zm-1 1c0 .2-.2.3-.3.5l-.2-.6.5.2ZM52 30.8c0-.6 0-.8-.7-1l-.6-.2c-.2 0-.3.2-.5.4v-.5l.1-.4h-.7c-.6 0-.9.4-.7 1 0 .4 0 .7-.2 1l.5 1h.1v-.5l.3-.5.1.7.2.5c-.7 0-1 .5-1 1l.6.5c.2.2.4.4.7.2l.2-.7c.6.2 1-.4 1.5-.6l.2-.3-.1-.7c-.3-.3-.1-.6 0-1Zm-2.3-.1c0-.3.1-.4.4-.3 0 .3-.1.4-.4.3Zm2.3 1Zm5.4-24.3c-.3.1-.5.3-.3.6.2.2.2.4 0 .6V9l.8-.1v-1h-.1l-.4-.5Zm0 3.6.5.3v-1l-.5.8Zm-13 29.8-1.1.6.3 1.2-1-.2-.2 1.6c.2.3.5.5 1 .5-.3.7.1 1.3.1 1.9.7 0 .9-.6 1.1-1 .3-.3.2-.8.2-1.4.5-.3.7.7 1.3.3l-.2-.5v-.3l-.4-1c-.2-.2-.6-.3-.9-.4V42l.9-.3q-.2-.4-1.1-1ZM38 47.4zm-2-.9.2-.6c0-.1 0-.2.2-.3 0 0 .2 0 .3.2l.2.3c.2.3.4.6.7.7l.1.2c0 .3.1.3.3.4l.1-.3c0-.4.2-.7.3-1l-.2-.5.5-.8.9.6c.3-.9.2-1-.7-1.7l-.1.2q-.4-.2-.6-.6c-.5.3-.4.7-.4 1l-.2.2c-.6-.3-1 .1-1.2.5l-.5.5-.3.6c-.3-.2-.4-.3-.3-.6.2-.4.2-.6-.2-.8-.3-.2-.6-.2-.9.1l-.6 1c-.2.3-.2.6 0 1l.4.5c.7 0 .8 0 1.5-.7.2 0 .4.3.6-.1Zm8 2.8h-.1Zm3-1.8c.5-.2.9-.3.7-1l-.5-.3c.2-.5.6-1 .2-1.6l-1 .3q.6.3.4.8-.7 0-.9.5l.8.7c-.3.2-.5.4-.4.7.1.3.1.7-.3.9l-.4-.7c-.1-.4-.4-.4-.7-.4-.3.5.2.8.2 1.3l-.5-.3-.2.1-.5.8.2.6.3.5.6-.6.9-.2.6.4.2 1 1-.7-.6-1 .4-.3c.5-.4.5-.7 0-1l-.4-.5Zm10.4-15.9c-.2-.4-.5-.8-.9-.8l-.9.2-1 .5.1.3c.4 0 .5.3.6.6l.3.6c0 .2-.2.4-.3.5.2.3.5.2 1-.4l.2.6c-.2 0-.3.2-.5.3l.2.5.5-.2.6.7.6-.4v-1.4l-.7-.6c.4-.4.4-.7.2-1Z"/><path d="M50.9 13.8c-.2-.1-.3-.4-.2-.6.2-.3 0-.5 0-.8H50l-.4.6.3.8-.3.4c0 .2.2.3.3.5l-.2.1h-.3a3 3 0 0 0-.4.8l-.1 1c.2.1.5.2.6.6 0 .4.4.2.7.2l-.3-.3q.9 0 1.2-.6c-.4-.1-.7-.3-.6-.8l1-.5.3-.7c.1-.1 0-.2-.1-.2l-.3-.2-.5-.3zM25 50.7c-.2-.3-.6-.2-.8-.4l.3-.9c0-.3.5-.5.2-1-.4 0-.7 0-1-.3l-.3-.1c-.5-.3-.8 0-1.2.7-.2.4-.2.8.2 1l.2.2 1 .8h-.3l-.4.1c-.2.2-.1.4 0 .6l.4.2c.3-.3.5-.5 1-.4.3 0 .6-.1.7-.5zm18.8-20.3l-.9-1.4c-.1-.2-.3-.3-.5-.2s-.3.3-.2.5c0 .4.1.7.6.8h.2c0 .5.5.6.9.7.4 0 .6.5.5 1v.7l1 .2c.1.4.4.7.8.7.3 0 .3 0 .6-.5-.2-.6-.6-.6-1.2-.6l-.1-2.1c-.6-.1-1.1-.3-1.7.2zM38.5 58v-.1zm.1-37.8c-.5.2-.6.6-.7 1l-.7-.6.1-1-1.3.7c-.1.4 0 .7.2 1 .2.2.3.6.3 1 .5 0 .8-.1 1.1-.4l.8-.5v.7c.3-.3.5-.5.7-.5l.7.1c0-.7 0-.7-.5-1l-.3-.2-.2-.2-.2-.1zm12.7 35c.3.4.7.4 1 .2l.8-.7c.3-.4 0-1-.6-1H52l-.1.3-.2.4h-.8c-.5-.1-1 0-1.2.3l-.4 1c.8.4 1.2.3 2-.5zM27.4 37c-.1-.2-.3-.3-.6-.2h-.5c-.4 0-.6.2-.7.5-.2.6.2 1.7.7 2l.3.1h1v-.2c-.2-.4-.2-.7 0-1 .3-.5.2-1-.2-1.2zm20 17.4c-.6 0-.6 0-.8.5s-.1 1.1-.7 1.3c0 .5.1.7.4 1 .2 0 .2.1.3.3 0 .3.3.4.4.2.2-.3.5 0 .8-.2l.2-1.1.3-.3v-.3c-.1-.4-.5-.5-.8-.5v-1zm.3 2.2h-.2l-.2-.3h.3l.1.3zm-19.3-1.5L28 55l.5-.1-.4-.4c-.4-.4-.4-.4-1-.1-.1.3.2.6.3.8-.3.3-.4 0-.5-.1l-.6.3c-.4.3-.5.8-.2 1.1l.1.1c.6.7.6.5 1 0 .9.2 1.2 0 1.4-1h.3v-.2c-.2-.1-.3-.2-.5-.1zM51.7 27zm1-1.4zm-2.1.4c.3 0 .6 0 .7.5l.4.4h.4c.3 0 .2.3.5.5.4 0 .4.4.1 1 .5 0 .5-.4.9-.5l-.8-1.4c0-.3-.4-.6-.2-.9-.6-.1-1-.4-1-1.2-1.1.6-1.1.6-1 1.6zM31 29.5l-.1.5.6.2c.7.2.8.1 1.1-.5l.2-.1.5.3c0-.2.2-.3.3-.5l-.6-1.2h-1.3c-.1 0 .1-.6-.4-.5q-.1.6.4 1c-.2.2-.6.2-1 .3l.2.5zm8.3-4.8l-.3-.5c-.5-.2-.8.1-1 .6h-1.2l.2.7c.4 0 .8.6 1.3 0l.7.6c.4 0 .4-.3.5-.5l.6-.4c0-.4.1-.8-.5-1l-.3.5zM40.4 58h1c-.3-.4-.6-.4-1 0zm11.9-.8zm2.3-.6c-.3-.5-.7-.5-1-.5-.1 0-.4 0-.4.2-.1.5-.6.6-1 .9l.3.8H54v-.2l.6-1.2zm3.2-.3v.1-.8c-.1.2-.2.5 0 .7zm-1-21l-.3-.3c-.2-.3-.5-.3-.7 0-.1.3-.2.6 0 .9l.8.9.3.5h.6l.3-.9v-.5l-.4-.4-.6-.2zm.7 1.9zm-26.5 3h.9a15 15 0 0 0-.4-.8c-.3-.6-.8-.8-1.6-.6 0-.4-.2-.7-.8-.8l.1.6c.2.2.4.5.3.8 0 .1 0 .3.2.4.4.3.8.6 1.3.5zM51.7 27z"/><path d="M51.6 27.5c-.2-.3-.2-.8-.6-.8l-1 .1v.8c.1.4.3.7.7.9h.4c.3 0 .5 0 .7-.2.6-.1.7-.5.4-1l-.5-.3v.2l-.1.3ZM24.3 43.4c-.4-.2-.7 0-1 0l-.3.6c.2.8.1 1 1.1 1.2l.7.2v-1c0-.5-.2-.8-.5-1Zm6.1-24.9h1c.3 0 .7 0 1 .6l.6-.4-.5-1.1c-.5 0-1.1-.2-1.5.4l-1-.5-.5.7c.4.5.5.5.9.3ZM53.4 8 52 7.5l-.4.7c.2.3.6.4.6.9 0 .2.3.4.5.6.4-.7.9-1.2 1.5-1.5.1-.5-.3-.4-.5-.6h-.1l-.2.4Zm-5.6 17.3.1 1h.2c.5 0 .8.4 1.2.5q.4-.5-.2-2.3l-1 .3c-.2.1-.3.3-.3.5ZM37 57.8l.5-.2c-.1-.2-.1-.6-.5-.8-.2 0-.1-.4-.2-.6l-1.3.3-.3 1 .5.5h.5l.3-.1h.5Zm4.9-38.4h-.4v.6l.2.7-.1.3v.1q1.6 0 2-.2c0-.4-.2-.7-.3-1.1-.3-.3-.8 0-1.2 0l-.2-.4Zm16 29.4Zm-23.1.5h.6v.7l.3.3.2-.3v-.4c-.1-.3-.1-.5 0-.8.2-.7 0-1-.9-1l-.3-.1c-.4.4-.2.9-.2 1.3l.3.3Zm21.8-19.4.2.3.7-.2.2-1c-.3-.5-.7-.3-1-.2l-.8-.5c-.3.3-.3.3.2 1.7l.5-.1ZM47.3 23s.2.1.2.3v.5c0 .5.1.8.6 1l.3-.4c.2-.2.5-.2.5-.4.1-.2 0-.5 0-.8-.6.2-.8-.2-1-.5-.2-.4-.4-.5-.8-.5-.1.3-.2.6.2.8Zm.9 1.8ZM48 7l.1 1h.6l.1.3c.4 0 .8 0 1 .5.2-.2.3-.3.2-.6-.2-.3 0-.8-.5-1v-.4c-.5.1-1-.2-1.5.1Zm-7.4 18.7c-.7.5-.7 1 0 2-.3.3 0 .7 0 1.1l.4.2c.3 0 .5-.4.6-.7 0-.3-.2-.5-.4-.6l-.3-.3c.3-.6.1-1.1-.3-1.7Zm-13.1 6.6-.4.5c-.4.3-.5.7-.3 1.2l1-.1c.2 0 .4-.3.4-.4l.5-1.1-.4-.3c-.3-.2-.6-.1-.8.2ZM49 42.7l-1.2.7q-.6-.1-.9.4l.7.7a2 2 0 0 0 1.2-.7c.2-.4.5-.5 1-.4h.2l-.3-.5c-.3-.4-.4-.4-.8-.2Zm1 .6Zm-.2 2.4-.2.4c0 .4 0 .7-.3 1-.2.3-.1.6.1.7.2.2.5.2.7 0 .2 0 .4-.3.3-.6l-.3-.5c.5 0 1-.1.8-.9l-1.1-.1Zm5.9-37.5Z"/><path d="M56.1 7c-.4-.3-.7-.3-1.1-.1l-.2-.5c-.1-.4-.3-.4-.6-.2-.5.4-.7.8-.6 1.4l.4-.5.4.2.5-.2c0 .5.1.8.5 1l.3.1.1-.4c0-.3 0-.6.3-.7ZM41.7 42.1l-.4-.1H41c-.4-.3-.8-.1-1.3 0l.1 1s.2.1.1.3c-.1.4.1.5.4.6h.3c.1 0 .2-.3.1-.4 0-.2-.3-.3-.5-.5l1.4-.6.2-.3Zm-7.6 14.2H34l-1-.7.2-.7c.1-.2 0-.4-.1-.5l-.5.1c-.4.4-.4.7 0 1l.7 1.1c.6-.1.7 0 .8.7.8 0 1-.3.4-1.2l-.3.1Zm-4.1-19 .7.1v-1.8l-1.4.3c-.2.7 0 1.2.7 1.4Zm7.8 11.4.1.4c.2.3.6.4.8.2.3-.2.5-.6.6-.8.1-.1 0-.4 0-.4h-.5l-.4.4V48c0-.4-.1-.5-.4-.6-.6.5-.6.7-.2 1.3Zm.2-1.3zm2.6-29.9h.6l.5.7c.3.4.4.5.7.3.3-.1.3-.2.1-.7l.7-.2-.8-.6c-.5-.2-1.2 0-1.8.5Zm-8.9 34.3c.3 0 .7 0 1-.2l.2-.5c-.1-.3 0-.7-.4-.9l-.1-.4c-.4 0-.5.1-.6.4l-.5 1.1c0 .3.1.6.4.5Zm15.4-9.6c.2.2.5.3.7 0V42c0-.6-.6-.8-1-1.2l-.3-.1-1-.1c0 .5 0 .5.4.8.4.2 1 .3 1.2.8ZM25.6 26.4c.5.2.9 0 1-.6V25H26l-.4-.2c-.6.3-.7.8-.6 1.4l.5.2Zm20.3 24.1c-.7-.2-1.2.4-1.7.5l.5 1.2 1.2-.6v-1Zm3.3-21.7c.5-.8.5-1 0-1.7l-.1.8c-1 .1-1.2.2-1.3 1.1.5.3 1 .2 1.4-.2ZM41 31.3l-.6.4c0 .4.6.5.4 1-.1 0 0 .3.3.4.2 0 .7-.2.6-.4 0-.5.3-.8.2-1.2l-.8-.2Zm-3.7-1.1.7-.4.2-.8c0-.2-.3-.2-.5-.2l-.6-.1c-.7.6-.7 1 .2 1.5ZM17.5 45.1h-.9l-.2.6c0 .3 0 .5.4.6l.9.3.2-.7c0-.4-.1-.7-.4-.8ZM37.4 54v.1l-.1.2c-.4-.3-.7-.2-1.2 0-.3 0-.4.4-.5.7.6.4 1.2.4 1.6 0l.4-.4c.2-.3.2-.5-.2-.7Zm13.8-8.7c.3.2.8 0 1-.3.2-.4.2-1 0-1a.9.9 0 0 0-1.2.2c-.2.4-.1.8.2 1Zm-13 9.3-.2.4c-.2.3-.1.8 0 1 .4.2.8.2 1-.2 0-.5.1-1-.1-1.7-.4.1-.6.2-.7.5ZM40.5 6l.8.2.3-1.2-.3-.3c-.2 0-.5-.2-.6-.1l-.6.7c0 .3.1.6.4.7Zm1.8 6.9Zm-.6-.3s-.2.2-.1.3l.2.8.5.3-.3.6c.3.3.5.3.9.2v-.2c0-.3-.3-.6-.1-.9l-.3-.4c-.2-.1-.3-.2-.2-.4l-.2-.3h-.4Zm1.9 43c-.2-.6-.2-.6-.9-.6 0 .4-.2.7-.3 1.1.6.6.8.6 1.4.1l-.2-.6ZM38 32.5c-.6-.6-.7-.6-1.3-.3q-.3 1 .6 1.3c.4-.2.5-.6.6-1Zm-3.7 15.2c-.4-.2-.6 0-.7.2l-.8 1.9c.9-.1 1.4-.9 1.4-2.1ZM45.6 24c0 .3.2.5.4.7h1q.3-.5-.4-1.2l-1 .5ZM43 36c.4.1.7.4 1 .4l.8-.3-.5-.6-.1-.5-.6.2c-.4.1-.6.3-.5.8Zm1.2-1zM43 19.5l.3-.4h1v-.5c-.3-.5-.7-.6-1.3-.6v.7l-.5.2.5.6ZM31.5 15q-.4 0-.9.5l.1 1c1.3-.5 1.4-.7.8-1.6Zm26.4-8.4v-.4l-.3.3.3.1ZM53 5c.8-1 .8-1.2-.3-1.6-.5.4-.5.7 0 1.2l.2.3Zm-9.3 11.6.1.3c.1.2.3.3.5.2.2-.2.2-.3.1-.6l-.2-.4c0-.3-.2-.5-.4-.6-.2 0-.3 0-.5-.2-.1.6-.2 1 .4 1.3Zm-11 31.9.2-.5-.6-.8a.8.8 0 0 0-.6-.4c-.3.8 0 1.2 1 1.7Zm6.7-18.9c-.2.4-.1.6.2.8.3.3.7.2.9 0 .2-.3 0-.8-.2-1-.4-.2-.7-.1-.9.2ZM42.5 45c-.2-.3-.6-.3-1-.4-.2.4.3.3.4.6l-.3.5c.2 0 .3.2.5.3.3.1.6 0 1-.2l-.6-.9Zm-13.4 7.2c-.4 0-.8.1-1.1.4 0 .3 0 .5.3.5h.5c.3 0 .6-.2.9-.4-.2-.5-.2-.5-.6-.5Zm9.2-39.5c.1-1 0-1.3-1-1q-.1.5.4 1.3l.6-.3Zm4.5 13.2 1.3.4c.4 0 .5-.1.6-.5l-1.3-.7-.6.8ZM36 36.3c0 .2 0 .4.2.6.2 0 .5 0 .6-.3l.2-.3v-.4q-.3-.3-.8-.4l-.2.8Zm-3.7 10c.2-.1.3-.4.5-.7l-1.1-.4c-.2.4-.6.7-.3 1.2l1-.1Zm16.5-25.7v-.5l-.7.1c-.5.1-.7.4-.4.8l.2.4c.4-.1.7-.4.8-.8Zm-23.3 9.7c-.3-1.2-.4-1.4-1.2-1.2 0 .8 0 .9 1.2 1.2Zm16.7-3.9c-.8.5-.9.9-.2 1.6.6-.6.6-.8.2-1.6Zm3.8 3.4c.3.2.5.6 1 .2.2-.1.3-.3.2-.6-.2-.3-.4-.4-.7-.4-.3 0-.4.2-.5.8Zm5-24h-.5a1 1 0 0 0-.7.3c-.2.3 0 .6.1.8.6-.1 1-.4 1-1.1Zm3.9 23.9c-.3-.7.4-1 .4-1.6l-.4-.3-.7 1.2c0 .3.2.6.7.7Zm-6.5 1.8c0-.3-.2-.5-.5-.5-.4 0-.5.3-.6.8.2.2.4.5.8.3.2 0 .4-.4.3-.6Zm-28 7.5c.1.8.7 1 1.4.9-.4-1-.6-1.2-1.4-.9Zm8.6-5.4-.4-.3-.2.3v.2l.2 1.4c.8-.4.5-1 .5-1.6ZM56.5 5.3l-.3-.3c-.8.3-.8.4-.5 1.3.6 0 .8-.4.8-1Zm0 0ZM46 21.6l.7-.6c.2-.1 0-.3 0-.4-.2-.2-.3-.3-.5-.1l-.3.2.1.1-.3.2c-.3.1-.4.3-.3.5.1.2.4.3.6.1ZM32 32.4c.2 0 .4-.2.5-.4v-.7c-.5 0-.8.1-1 .5v.5l.5.1Zm18.2 12.8.3-.1.1-.4v-.3h-1.4v.2c.5-.2.5.6 1 .5ZM29 26.1c.3-.2.4-.4.4-.7-.1-.4-.5-.5-.8-.7-.3 1-.3 1 .5 1.4Zm11.7 29.2c0 .2.2.4.5.4.4.1.5-.2.7-.4a78 78 0 0 1-.6-.8c-.4.2-.6.5-.6.8Zm-11.5-9.1c-.2-.3-.3-.7-.7-.7l-.7.9.6.4.8-.6Zm17.9 6.3c.2-.3.3-.3.2-.9h-.1c-1-.1-1 0-.7.9v.1c.2 0 .4.1.6-.1ZM44 7.7c-.3.6-.3.8.3 1.5.5-.8.5-1.1-.2-1.5Zm6 2.6v-.2q-.3-.5-1-.8l-.3.7c.3.4.7.4 1 .5l.3-.2Zm2.7 20.5-.7 1h.5c.6.2.9 0 .8-.6V31l-.6-.2Zm-.7.9ZM29.4 55.5l-.3.6c-.2.3 0 .5.2.7.2 0 .5.1.6-.2.1-.2.2-.4 0-.6l-.5-.5Zm5.7-44.3q.1-1-.7-1.2c-.4.8-.3 1 .7 1.2Zm-.6 14.1.7.3c.3-.3.6-.6.3-1-.4 0-1 0-1 .7ZM18.7 47.6l-.1.7c0 .2.2.3.4.2q.6-.2.7-.9h-1Zm5.8-12.7c0-1-.2-1.2-1-1.2 0 .8.1 1 1 1.2Zm9-22.6h.2c0-.5.7-.3.7-.8l-.7-.5-.5.9c-.1.2.1.4.3.4Zm4.5 3.3c-.3-.5.1-1-.4-1.3-.3 0-.5.3-.7.6.2.3.5.6 1 .6Zm.5 11.4h-.6c0 .7.1 1 .5 1 .3.1.5 0 .4-.3 0-.3 0-.6-.3-.7ZM21.8 37c0-.6.7-1 .4-1.6-.9.4-1 .9-.4 1.6Zm29.1 20c-.4.3-.8.5-.8 1h.8c.1-.3.2-.6 0-1Zm-2.5-10.4.3.5c.6-.3.5-.8.4-1.3q-.4.1-.8.8ZM38.9 33l-.6.5c0 .4.1.7.5 1q.5-.6 0-1.5ZM51 11.5l.4.4 1.2-.2-.2-.3c-.3 0-.5 0-.8-.2-.1-.2-.3 0-.5 0v.3Zm-1 11.7.3 1.2c.4 0 .4-.7.9-.7 0 0 0-.3.2-.5-.5.2-.8.3-1.3 0Zm-5.9 3.4c-.1 0-.2.1-.1.3v.3c0 .7.1.7.7.5h.2l-.4-1c0-.1-.2-.2-.4-.1Zm-9.2-11.8h-.7c-.3.2-.2.5 0 .7l1-.1c0-.4-.1-.6-.3-.6ZM44.5 46c-.1.3 0 .5.3.6h.7c0-.5-.1-.7-.5-.8-.2 0-.4 0-.5.2Zm6.7-25.3v-.4c0-.2 0-.4-.2-.5-.3 0-.4.1-.5.4l-.3.7c.4 0 .6-.5 1-.2Zm-31.3 7a.8.8 0 0 0-.8.2l.2.7c.6 0 .7-.2.6-1Zm15-19.1v-.4l-.3-.4c-.3-.2-.4-.2-.8.3l.7.5c0 .1.3 0 .4 0Zm-2.6 43.6c-.5-.3-.8.6-1.2 0v.4c.4 0 .6.3.7.6.3-.3.6-.5.5-1Zm17.4-40.6c.8 0 1 0 1-.6l-1-.1v.7Zm-16 33.7.1-.8q-.4-.2-1 .3c.2.3.3.7.9.5Zm-2.9-23.1c-.6-.3-.7-.3-1.4.3.7.4 1 .3 1.4-.3Zm14 17.3v.7l.5.3V40c.1-.1.4-.1.4-.4l-.7-.4-.2.4Zm.9 0ZM23.6 38c-.4-.7-.6-.8-1.3-.6.3.6.8.7 1.3.7Zm1.8 13.1q.3.7 1 .5c-.1-.8-.3-.9-1-.5Zm11.1-24.3c-.2-.2-.6 0-.8.3l.1.4c.2.1.6 0 .8-.3 0-.1.1-.3 0-.4Zm11.2 6.5c-.3 0-.4.2-.3.8.6 0 .8 0 .8-.4 0-.2-.2-.4-.5-.4ZM32 36c.2 0 .3.2.4.3l.3-.5-.6-.7-.1.4-.4-.2v.4l.5.2Zm7.7-26.1V9l-.5-.1q-.2 1 .5 1ZM25.9 47.5s.1-.3 0-.4c0-.2-.2-.5-.5-.8l-.3.3.3.8c.2.2.4.3.5.1ZM32.5 23l1.3-.1c-.5-.8-.6-.8-1.3.2Zm4.3 24.5c.2-.1.3-.3.2-.6 0-.3-.2-.4-.6-.4h-.3c.2.3.2.8.7 1Zm-.7-1zm5.4 6.5q-.5-.1-.9.6c.5.4.8.2 1-.6Zm-8.3-19.6c.7-.6.7-.6.4-1.2-.5.3-.6.7-.4 1.2ZM26 23.7l-.4-.7-.6.3c.2.7.4.8 1 .4Zm-.5 19.6c.3-.2.3-.5.1-.8h-.5c-.2.2-.3.5 0 .7 0 0 .3.1.4 0Zm26.1 2.5a3 3 0 0 0-.3.6c0 .2 0 .4.2.5l.5-.7v-.4h-.4ZM35.3 34.3c-.3.3-.1.6 0 .9l.5.3c.2-.7-.1-1-.5-1.2Zm-1.5-14.1c.5-.3.6-.5.4-1.3-.3.4-.7.8-.4 1.3Zm17.4 23.4q-.2-.5-.9-.7l-.3.4c.3 0 .4.2.7.3h.5Zm-1.2-.3Zm-18.5-2.8-.5.4.4.8c.5-.4.5-.7.1-1.2Zm8.8-8.5c-.2-.4.2-.8-.4-1l-.3.6.1.5h.6ZM44 13.8c0-.3 0-.6-.4-.6l-.3.2.1.6c.2.2.5 0 .6-.2ZM16.6 35l.4-.3c-.3-.5-.5-.5-.7-.4-.2 0-.3.3-.2.5.1.2.3.2.5.2Zm32.9-12.8c.2.2.4.1.6-.1l.1-.4.2-.4q-.7.4-1 .3c-.2.2 0 .4 0 .5Zm-.7-17.4-.6-.3c-.2.1-.4.3-.4.6q.7.2 1-.3ZM31.9 33.4c-.2.2-.1.5 0 .7l.5.1.1-.1-.3-.8h-.3Zm14.6 19.2-.5-.4c-.4.7-.4.7.2 1l.3-.6Zm.1 0ZM26.4 30.5c-.4 0-.6.3-.7.7l.3.4c.3-.4.4-.7.4-1.1Zm11.7-16.4v.4l.7.2c0-.5 0-.8-.6-1v.4Zm-9.8 14.4V28c-.2-.1-.4 0-.5.1l-.2.4c.3.3.6.3.7 0Zm6.8-10.2-.2.4c0 .3.3.5.6.6q.1-.7-.4-1ZM49 6.5c.1.2.3 0 .4-.1.1-.2 0-.5-.1-.6-.2 0-.5 0-.5.2-.2.2 0 .4.1.5ZM25.1 52.3c-.1 0-.2 0-.3.2 0 .2-.2.3-.4.6h.7l.2-.5s0-.2-.2-.3Zm-3.1-.2c0 .2 0 .4.3.6.2-.2.7-.3.3-.9l-.6.3Zm4.4-4.1-.3-.2-.3.2v.6c.5 0 .6-.2.6-.5Zm25-19-.4-.2-.3.3v.5l.5-.2.2-.4Zm-.7.6zM38 16.3l-1-.1c0 .3 0 .5.4.5.5 0 .5 0 .6-.4Zm12 18.5q.5 0 .8-.3c0-.3-.3-.4-.6-.5.2.3-.3.5-.1.8Zm.2-.8Zm-20.4 1.4c.2-.3.4-.6.2-1-.6.2-.7.3-.2 1Zm-.8 9.2-.2-.4c-.2 0-.4 0-.7.2.3.3.5.5 1 .2Zm6.2-27.1c.3.4.6.3 1 0l-.6-.4-.4.4ZM54.8 2.9v-.4c-.3-.2-.5 0-.6.2l.1.4c.2.1.4 0 .5-.2ZM31.9 27c0 .4 0 .6.3.7.2-.3.2-.5 0-.8-.2-.1-.3 0-.3.2Zm11.6 24.9c.1 0 .3 0 .4-.2v-.2l-.2-.2-.4-.1c0 .4 0 .6.2.7Zm-2-42.2c-.2-.2-.4 0-.5 0-.1.3 0 .5.2.6 0 0 .3 0 .4-.2.2-.1 0-.3-.1-.4Zm5.4 17.1c-.4 0-.6.3-.6.8q.6-.3.6-.8ZM33.3 52.3c-.2 0-.3 0-.5.2v.7c.4-.2.6-.4.5-1Zm-3-.9c-.3-.2-.5-.6-.9-.3.3.5.4.6 1 .3Zm10-37.1q0-.6-.6-.7 0 .5.6.7ZM23.6 30l-.2-.4q-.5.5 0 .9l.2-.5Zm21.6-11q-.1-.5-.6-.6c0 .6.1.7.6.7ZM25.1 31.7c-.2-.1-.5 0-.5.1l.1.4.5-.1v-.4Zm1.7-17.4.3-.2c0-.3 0-.4-.5-.5 0 .4 0 .6.2.7Zm4.5 31.2-.4-.6-.5.3c0 .3.4.4.9.3ZM46 54c.2.2.4.2.6.1l.2-.2-.1-.2c-.3-.1-.6 0-.7.3ZM29.1 17.7c.3-.3.3-.4.1-.5a1 1 0 0 0-.5-.2v.3l.4.4Zm11.1 6.2c-.1.2 0 .3.1.3.4.2.4 0 .6-.3-.3-.2-.5-.3-.7 0Zm4.3-8.4.4-.8c-.6 0-.7.2-.4.8ZM33.8 27.7Zm0 0 .4.4c.3-.1.4-.3.2-.6-.3-.3-.4 0-.6.2ZM53.1 29l-.1.1-.1.3.5.4c.1-.4 0-.7-.3-.9ZM35 35.7c-.2.3-.1.5 0 .6h.4c.1-.1 0-.4-.2-.5H35Zm17.7-10.1Zm1-.2c-.4-.3-.6-.3-1 .2.4 0 .7 0 1-.2ZM27.5 50.6H27l.3.5h.4c.1-.3 0-.4-.2-.5ZM39.6 15c.1.2.3 0 .4 0v-.6l-.5.2v.4Zm17.8 32.5c0-.2-.3-.3-.6-.1l.4.6c.3-.1.3-.4.2-.5Zm.5-44.7v-.4l-.4-.2c0 .4.2.5.4.6ZM41.4 14.3h-.2l-.1.5.3.4.2-.6-.2-.2Zm6.3 13-.3-1c-.1.7 0 .8.3 1ZM21.8 49.6c-.3-.1-.5 0-.5.4.3 0 .6.2.6-.2l-.1-.2Zm27 6-.5.2v.3c.4.2.4.2.5-.5ZM31.2 33.8c0-.4-.2-.6-.6-.6q.1.6.6.6Zm8.1 2.4s.3.1.4 0c.3-.1.1-.3 0-.6-.3.2-.5.3-.4.6Zm11.2-16.9c-.2-.3 0-.5 0-.8l-.6.7.6.1ZM21.4 33.7l-.4.1v.5l.4-.2c.2-.1.2-.3 0-.4ZM27.5 19l.2-.1-.1-.6h-.3c-.1.2 0 .5.2.6Zm10.2 37.9c-.1.3 0 .5.3.8.2-.6.2-.6-.3-.8ZM29 23.4l.3-.1.1-.6-.4.3c-.2.1-.2.3 0 .4Zm13.7 28.9-.7.2.3.5.5-.6-.1-.1ZM29.4 27l-.2.6c.5-.2.5-.2.2-.6Zm1.2 23 .7.2c0-.6 0-.6-.7-.2ZM55.3 9.4Zm-.1-.7h-.4v.4l.5.3c.2-.2.1-.5-.1-.7Zm-8.9-1.2q-.4-.1-.6.4c.4 0 .6 0 .6-.4Zm-5.5 5.7q-.2.5.3.7c0-.4 0-.6-.3-.7Zm-2.3 33.6q.5.2.7-.3c-.5-.3-.5 0-.7.3ZM42 16l.3-.2c.1 0 0-.2 0-.4h-.2c-.2.1-.3.3-.3.4l.1.2Zm1.8 34.7c.2-.2.2-.4 0-.6-.3 0-.5.2-.3.5h.3Zm-20 4.2-.3.4.5.3c0-.3.1-.6-.2-.7ZM51.4 4c-.5.1-.5.2-.4.7.3-.2.5-.3.4-.7Zm-17 51 .1.5h.4l-.2-.4h-.3Zm2.7-42.4c0-.2-.2-.2-.4-.1l-.3.1.4.3c.1 0 .4 0 .3-.3Zm1.8 15.6c-.1.1 0 .2 0 .4l.1.4.3-.7c-.2-.2-.3-.3-.5 0Zm-8.8 27.3c.2.4.3.6.7.3 0-.3-.2-.5-.7-.3Zm18.5-45.4-.3.2c-.2.1 0 .4.1.4l.3-.1V10Zm-9.7 22.4c.5 0 .4-.3.4-.6-.4 0-.5.3-.4.6ZM30 48.7c-.3.2-.3.4-.3.8.3-.3.5-.4.3-.8Zm1-.7-.7.1q.5.3.7-.2ZM57.9 5.2v-.5c-.3.3-.3.3 0 .5Zm-1.1 19.7c0 .4.2.5.5.6 0-.4 0-.6-.5-.6Z"/><path d="M43 12.8v-.2c-.3-.1-.5 0-.7.3.3.1.5.2.7 0Zm-.7.1Zm-4-4.2q0-.5-.4-.4v.2l.4.2ZM52.7 7l.2.2.3-.4c-.4 0-.6 0-.5.3ZM28 42.6c0 .4.3.5.6.5q0-.4-.7-.5Zm13.3-26.3.2.3h.3a8 8 0 0 1-.1-.5l-.4.2Zm-7.5 11.4Zm-.4 0c-.2.2 0 .3 0 .5.4 0 .4-.3.4-.5-.1 0-.3-.2-.4 0Zm17.1-17.4-.3-.6c0 .2-.2.3-.3.4v.2h.6Zm-1.6 10.6c0 .3.3.4.5.4q0-.5-.5-.4Zm3.3 36.2Zm-.8.2c.4.1.6 0 .8-.1l-.5-.3-.3.4Zm-17.1-2.2c-.2-.3-.4-.5-.7-.4 0 .5.3.4.7.4Zm9.1-28h-.5l.2.4h.3V27Zm-13.6-5.9v.6l.5-.5c-.3-.2-.5-.3-.6 0Zm2.5-8c-.4 0-.4.3-.4.6.3 0 .4-.2.4-.6Zm-1.2 23v.2c0 .3.2.2.5.1-.1-.3-.2-.4-.5-.3Zm22.2 9.4h-.2c-.2 0-.3.2-.1.4.2 0 .4 0 .3-.3ZM35.9 8.5h-.2l-.2.5h.3v-.5ZM57 4.9c-.3 0-.3 0-.5.4.4 0 .4 0 .5-.4Zm-.5.4ZM29.4 55.4l.4-.2v-.5l-.4.6Zm14.2 2.1v.2c.3 0 .4-.1.5-.4-.3-.1-.5 0-.5.2Zm5.4 0 .4.5.1-.3-.6-.2Zm-27.4-28-.3.4c.1 0 .2 0 .3.2q.2-.3 0-.6Zm-.2.4Zm26.9 14.9-.2.1c-.1.2 0 .3.3.4 0-.2.1-.4-.1-.5ZM20 31.2q.3 0 .5-.2c-.3-.1-.4 0-.6.2Zm1.3-1.3Zm-.1-.3c-.3 0-.3.2-.3.5l.4-.2v-.3Zm.6-2.5.3-.4c-.4-.1-.4.1-.3.4Zm.4 23.8h-.3v.3h.4l-.1-.4ZM53 24.8l-.2-.2-.3.2.1.2.3-.2ZM29.1 40l.6.3q0-.4-.6-.4ZM40 28.4h-.3v.3h.4v-.3ZM36 24l-.5.1c.3.3.5.2.6-.1Zm-1-9.9c.1.2.2.3.4.2V14c0-.2-.2-.2-.4 0Zm1 37h.2v-.3h-.3l.1.4Zm-3.8-30.7-.1.2.5.3v-.3l-.4-.2Zm-1.7 27.1h.3v-.2h-.3v.2Zm2.1-16.7h-.3v.2h.4v-.2ZM44.5 18c-.4.1-.2.4-.2.6 0-.2.3-.3.2-.6Zm-.2.7v-.1.1zM18.5 29.3h-.3l.1.3h.3v-.3ZM48.7 13l-.1-.3-.2.3.1.3.2-.3ZM21 54.5c0 .2.2.3.5.2 0-.4-.2-.4-.5-.2Zm14.5-35 .2.5.2-.3c0-.2-.1-.3-.4-.2Zm9-7.3h.1v-.3h-.3c0 .2.1.2.2.3Zm.4 14.8.3.4c0-.3 0-.4-.3-.5Zm-14-7.5-.1.1c0 .3.2.3.4.2 0-.2 0-.4-.3-.3Zm-11.4 14-.3-.3c-.2.4 0 .4.3.3Zm32.7-10.7v-.3h-.3l.2.4Zm-17.9 4v-.2h-.4l.2.3h.2Zm-1.9-1 .3-.2-.1-.2-.3.3.1.1Zm10.5 20.9v-.3l-.4.1v.2h.4Zm-13 6.7h-.2v.3h.2v-.3Zm27.9 3.4-.3-.2v.1c0 .1 0 .2.2.2v-.1ZM52 10.2l-.1-.2h-.1l-.1.4.2-.2ZM41.5 47.1l-.2-.2h-.1v.2h.3Zm8.5-7.8.1.2h.2v-.3H50Zm-10.6-6.7v.2h.3l-.1-.2h-.2Zm-5.8 21.5h.3v-.3h-.3v.3Zm24.2-6.9v-.1h-.3v.2h.3ZM37.2 18.5l.3-.2v-.2h-.2l-.1.4Zm3-5.8v.3h.3v-.3h-.3Zm5.5 15.1.2-.1-.1-.1h-.2l.1.2Zm-21 .7v-.1l-.2.1.1.1.1-.1Zm16.9-17.9.2.2h.1l-.3-.3v.1Zm2.5 41.9v.2l.3-.1v-.2H44Zm12.8-32.2v.2h.3c.1-.1.2-.3.1-.5h-.2c-.2 0-.3.1-.2.3Zm-.4.4.5.4c0-.4-.2-.5-.5-.4Zm.5 20.8.9.1v-1h-.4c-.2.2-.5.4-.5.9Zm.5-.9Zm-4.6-26.7c-.1-.1-.2-.3-.4-.3s-.4.1-.4.5h.5l.3-.2Z"/></g><path fill="#82b1ff" d="M6 1.1h8.4v29.1H6zm14.4 0h8.4v29.1h-8.4zm14.3 0h8.4v29.1h-8.4zm14.4 0h8.4v29.1h-8.4z"/></svg>