<svg xmlns="http://www.w3.org/2000/svg" viewBox="0 0 59.7 75.7" xmlns:v="https://vecta.io/nano"><defs><clipPath id="A"><circle cx="21.4" cy="15" r="7.8" fill="none"/></clipPath><clipPath id="B"><circle cx="21.4" cy="32.3" r="7.8" fill="none"/></clipPath><clipPath id="C"><circle cx="21.4" cy="49.7" r="7.8" fill="none"/></clipPath></defs><path fill="#1a73e8" d="M.5 16.6h58.6v58.6H.5z"/><path fill="#0254c2" d="M58.6 17v57.7H1.1V17h57.5m1.1-1H0v59.6h59.7V16Z"/><g fill="#0065d3"><path d="m22 36 .1-.2.2-.4c-.3-.6-.7-.5-1-.3l-.2.1q.2.7 1 .7Zm36.3-7.3h-.4c0-.4-.3-.5-.5-.6-.4-.1-.5-.3-.5-.7l1-.4c0-.4-.2-1 .5-1q-.4-.1-1 .2v.6c-.3-.4-.4-.4-.7-.1h.1c-.4.6-.2 1 .2 1.5l-.2.3c.2.2.2.4 0 .6-.3.2-.5.2-.7.2H56l.5 1.4.2-.1c0 .5-.5.5-.7.9-.4-.3 0-.4.2-.7h-.5l-.5.4c-.2 0-.4.3-.4.5-.1.5-.1.5-.6.5-.4.7.1 1 .4 1.5l.8.8-.4.3-.6-.6-.4.1-.1-.3-.4.3v1L53 35c-.1-.2-.2-.5-.4-.6a.8.8 0 0 1-.2-.5c0-.3-.1-.6-.6-.7v1l-.5 1c.2.3.5.6 1 .5l.5.1-.7.7c0 .4.3.7.6 1-.4.2-.8-.3-1.1.2.2.3.6.4 1 .4h.8l.6-.2-.3.5v.5c.2.2.4.2.6.1h.3l-.3.7c.6.2.8 0 .8-.6.2 0 .4.1.2.3-.3.5-.2.9 0 1.4.2.1.2.3.2.6l-1-.2c0 .2 0 .3.2.4l.7.2-.4.6c-.3.5-.3.9.2 1.3l.2.1c.2.4.6.4 1 .4.3-.1.5-.3.6-.7l.1-.4.8.6v.2c-.2.2-.3.4 0 .6h.5V42l-.4.3-.4.3c-.5-.3-.3-1-.8-1.3.4-.4.6-.8.6-1.4 0-.3 0-.6.4-.9q.3.7.2 1.3c0 .3.2.6.4.8v-2c-.2-.5-.2-1-.5-1.4-.5 0-.6.3-1 .6-.1-.2.1-.5-.2-.7l-1-.7.3-.3c-.2-.5 0-.6.4-.7.4-.2.7-.5.8-1l.3.2c.4 0 .6-.2.5-.7V34c.2-.4-.1-.6-.4-.9l-.4-.4c.1-.5.5-.3.8-.4l.4.1v-4.2h-.2v.4Zm-3.4 4.5v-.8h.1l.2.6-.3.2Zm1.8 8.1c-.3.1-.5.4-.8.4q.3-.5.8-.4Zm-1-5.4-1 .3v.2h.6c-.2.4.6.7 0 1.1l-2-1c.2-.3 0-.4-.2-.5l1-.2.2.4.6-1c.3.4.6.5 1 .2.1.3 0 .4-.2.5Zm1-2.6-.7.2-.5-.5q.2-.5.6-.6c.1.1.2.4.4.4.2.1.3.2.2.5Zm1.3-3.8h.2l.2.4c-.3-.2-.5-.2-.4-.4Z"/><path d="m58 35.7.4.5v-1c0 .2-.3.4-.5.5ZM57.3 54l.2.2c0 .2 0 .4-.2.4l-.4.3c-.2-.4 0-1-.7-1.2.4-.8 0-1.3-.6-1.6 0-.6 0-1.1-.6-1.5.3-.8-.3-1.3-.8-1.8l-.4-.1c-.4 0-1 .4-1.1.9-.1.4.1.6.4.8.2.3.5.5.9.2h.4c-.3.6-.3.6-.9.6H53c.1.6.5.3.8.5l.4.8-.1.1c-.7-.5-1.3-.2-2-.2l-.3.3c0 .2.2.3.4.3l.5-.3c-.2.5-.4.9-.2 1.3v.2l-.2.1v.9c-.1.2-.5.3-.4.6v.4c-.6.1-.5 1-1 1h-.6l.1.4.1.7c.2.2.4.4.8.5.6 0 1 .6 1.6.8l.2.3c-.3.6.5.8.4 1.3l.8.5.4-.2c0-.1 0-.3.2-.5.6.3 1.3.3 1.7.9-.4.2-.5.8-1 1-.5 0-.8.2-1.2 0-.4-.2-.8-.1-1.2 0-.5.2-.6.4-.5 1.1-.4.2-.3-.2-.5-.3-.2 0-.8.4-.9.6 0 .4.3.3.5.4l.1.6h.2l.3-1 .7 1.4 1.4-.9.3.8-.4.2-.1 1c-.7-.2-1 .2-1.2.8-.5-.4-1-.8-1.7-.9-.4 0-.7-.3-1-.6-.2 0-.2-.1-.2-.3l.5-.4v-.2c-.3-.3-.5 0-.7.2l-.1-.6-1 .6c-.2.2-.4.5-.3.8 0 .3 0 .8.5 1l.3.3.6-.5c.3 0 .4.5.7.3l.1 1.3h-.2q-1-.2-1.7.6h-.6v.2l.7.2v.7l.2.1c.4.3.8.2 1.2.1.2 0 .5-.2.5-.5l.2-.9c.5.1 1 .6 1.5.4l.4-1.3 1-.2.2.3c.7.2 1.3 0 1.6-.8l-.5-.7.9-.7.6-1-1.8.2c0-.4.1-.6.4-.9.7.4 1.3 0 1.8-.6l-.1-.7c.2-.1.5-.3.8 0l.4-.1h.2v-2.4l-.8.5-.7-.7c.5.2.8.4 1.2.1h.3v-1.2h-.1l-.4.2c-.6-.2-1.2 0-1.7-.6h-.2c0-.5 0-.8.5-1l-1.4-.7q-.1-.6.3-1l.7.2c0-.2 0-.4.2-.7l.4.7c.3.4.6.6 1.1.5l.3.1.3-.4v-1.1l-.6.2.2-1.1.4.2v-1.2h-.3c-.4.4-.4.4-.9.3ZM52 56l1.4-1a2 2 0 0 1 .8-2.2l.6.8-1 .6.2 1.3-.6.5.3.3-.7.4-1-.6Zm2 1.2c-.2.4-.5.4-.8.2l.8-.2Zm1.4 2 .3.3c-.5.2-1 .2-1.2-.1-.2-.4-.5-.7-1-1-.2 0-.3-.3-.5-.6.4 0 .5.1.7.3.1.1.2.3.4.3.5.1.9.6 1.3.8Zm2.7-5.6Zm-1.4-26.9ZM37 57.8c0 .2.1.5.3.7l.4.2.3-.3.3-1c.3 0 .4.2.4.5 0 .7 0 .7.9.7.2-.6.7-1 1.5-1l-.2-.4-.3-.7c0-.3 0-.6-.4-.8-.3-.2 0-.6-.3-.9.3 0 .5-.2.7-.3v-.2c0-.1-.2-.3-.1-.4.2-.4 0-.6-.3-.8l-1-.3-.7-.1c-.2 0-.5 0-.6.2l-.6 1-.4-.3-.5.3-.3.3-.3.3c-.2 0-.2-.6-.6-.3l-.3-1.2-.5-.4-.5.5V53l-.3-.3c-.2-.2-.6-.2-.7 0-.2.2 0 .4 0 .6l.4.2.2 1.1c.6-.1 1.2.5 1.6-.2l.8.6c.4.5-.1 1.1-.2 1.8l-.3.2-.4-.3-.5 1-.7-.2c-.2.4.2.6.1 1l-.3.4.1.3c.5.8 1.4 1 2 .4.3-.3.6-.4 1-.6l-.7-.6c-.2-.2-.6-.3-.4-.7l1.3.1Zm0-1.1c.4-.3.4-.7.3-1-.3-.5 0-.9.1-1.2.6 0 .2.6.6.7l1-.6.5-1.2c.2.5.3 1 0 1.4-.2.3-.5.6-.5 1-.5.2-.5.7-.5 1.1-.6.4-.5-.2-.8-.5-.3.3-.4.6-.9.7l.1-.4Zm8.6-1.7.2.2.4-.2c.5-.2.5-.3.1-.8l-.5.5-.2-.1c-.2-.6-.6-1-1.1-1.2-.6-.2-1-.5-1.2-1.1-.1-.5.2-.9.5-1.3l.9.4c.2-.6.2-.7 1-1 .2-.2 0-.4 0-.6-.3-.2-.5-.3-.8-.1l-.3.2c-.5-.2-.8.1-1.1.6v-1.1c-.5-.1-.8.2-1 .5l-.4-.4c-.4.6.5.8.1 1.3l-.2-.3-.3-.1s-.1.2 0 .2c0 .2-.2.7.3.5l.3.4c0 .3.2.4.4.7l-.8.2-.9-.7-.4.4q-.1.8.5 1v.4c-.1.4 0 .7.5 1 .2 0 .3.1.4.3.3.2.2.3-.2.6.2.8.2.8 1 1 .2-.2.7-.3.8-.9l.7.1c-.3.4-.2.6 0 .8.2.2.4 0 .6 0v-1c0-.5.2-.6.7-.3Zm-2.4-1-.4.2.1-.4.3-.2v.3Zm3.4-24.3.2.3c.1.4.3.8.8 1l.2.3-.8.1-.7-.7c-.3.3-.3.6-.2 1l.1.1c.5 0 .3.4.5.7.4 0 .9.3 1.3-.2l-.6 1.2c-.3.5-.8 1-.5 1.7.4 0 .9 0 1.2.4l.4.1h.8c.4.2.7.1.9-.1.1-.4-.5-.4-.3-.8.3.4.4 0 .5-.1l-.3-1-.4.3-.7-.3c0-.2-.2-.4 0-.6.2-.2 0-.5-.1-.7l-.7-.5.8-.1c0-.6.8-.9.5-1.6-.3.2-.7.3-.7.9h-.4c.2-.3 0-.7.4-.9v-.5h-.5l-.2-.3-.6-.1c.3-.2.5-.5.6-.9 0-.3 0-.4-.2-.7l-.2-.7c-.3-.4.1-.9-.3-1.2l.1-1.2c-.7 0-1 .4-.9 1.6l-.6.2c.3.6.8 1 1.3 1.5l-.9.1.2.7-.6.4.6.6Zm2.4 4.8 1-.3-.1.6-1 .2c-.2-.4-.7-.8-.8-1.5.8 0 .5.7 1 1Zm-2-5.3h.5c-.2.2-.3.4-.6.2l.1-.2Zm-2.6 36.7ZM44 65l-.5-.1-1 .2c-.2.2-.4.2-.8 0l.7-.3-.6-.2s-.2 0-.3.2c0 .1 0 .3-.2.4l-.9.3H40c-.2.5 0 .5.4.6l.3 1c-.3.5-.6 0-.8 0l-.6.3v-.7c-.3 0-.4.2-.4.4-.1.3-.2.6-.7.5v-.3l-1.2.3-.3 1.3-1.5-.2c-.3.2-.4.4-.3.7.1.5.3.6.9.8.6-.5 1-1 1.9-1 .5.6.9.7 1.5.3.2-.2.4-.3.7-.2h.3c.5 0 .7-.5.4-.9l-.6-.7c.4-.2.5.3.9.4.5-.5 1-1.1 2-1l.1-.7c.6 0 1.1 0 1.4-.6l-.5-.4.2-.3Zm13.2 1-.2.5-.6.2v.2c.4.3.5.6.1 1v.2l1 .4h1v-1.8c-.5-.3-.6-1-1.3-.8Zm.2 3.8a53 53 0 0 1-.3-.7l-.7 1.2-1 .1.3 1.1 1.3.2c.5 0 .5 0 .7-.6.2.2.5.3.8.2v-2.1l-.3.1-.8.6Z"/><path d="M49.5 51.4c-.5-.3-1 .2-1.5 0-.2-.2-.1-.6-.6-.7-.5.5.2.8.2 1-.4.5-.7 1-1.2 1.4.8.3 1.8.5 1.7 1.6-.5.1-1-.1-1.3.5.4 0 .7.1.8.4v.4h-.3c-.2-.3-.3-.5-.7-.6l-.4.6.2.4c.2.5.8.7 1.3.3l1-1h.5c.3-.5 0-1 0-1.5q.4-.3.7 0c-.4.5-.5 1-.2 1.5l-.3.8s0 .3.2.3h.4c.3-.3.3-.7 0-1.1 0-.5.2-.9.3-1.4l.6-.5c-.4-.4-.4-.9-.9-1.2l-.5-1.2ZM46.2 56Zm9.7-30.4Zm.4-1.2Zm.4 2.2c0-.7.4-1.3.8-1.8-.4-.4-.8-.4-1.2-.4l-.2.7h.6v.1l-.8.4c0 .3.2.6.5.7l-.3.4-.8-.8c-.5.1-1 0-1.6.4l.4 1.3-.3.6h-1c-.3.5-.3 1-.8 1.3-.1.1 0 .5 0 .8l.2.1c.1-.6.6-.9 1-1.4l.6-.1-.3.6.3 1-.7.7h-.7c0 .2-.2.1-.4.2l-.4.7.3.2c.6-.2.8.2.8.6.3 0 .4-.2.5-.4l.4-.2-.1-.5c.7-.2.8-.9 1.2-1.4l-.3-.3h.7c-.2-.5-.7-.5-1-.9l.3-.3.3-.3c.5.3.8-.1 1.2-.3.2-.2 0-.5-.2-.6l.5-.5c0-.4.2-.5.5-.5Zm-1 1.1-.3.4-.2-.5h.5v.1Zm-3.2 19.4c0-.6 0-.8-.6-1l-.7-.2-.5.4v-.5l.1-.3h-.7c-.6 0-.9.3-.7 1 0 .3 0 .7-.2 1l.5 1h.1V48l.3-.5.1.7.2.5c-.7 0-1 .5-1 1l.6.5c.2.2.4.4.7.2l.2-.8c.6.3 1-.3 1.5-.5l.2-.4v-.6c-.4-.3-.2-.7-.2-1Zm-2.3 0c0-.3.1-.4.4-.4 0 .3-.1.4-.4.3Zm2.3.9ZM58 23.5c-.3.1-.5.3-.3.6.2.2.2.4 0 .6l.1.4.7-.1v-1h-.1l-.4-.5Zm0 3.7.5.2v-.9l-.5.7Zm-13.2 30-1 .6c0 .5.2.9.3 1.3l-1-.2-.3 1.6c.2.3.5.5 1 .5-.3.7.1 1.3.1 1.9.7 0 1-.6 1.2-1 .2-.3.1-.8.2-1.4.4-.3.7.7 1.2.3v-.5l-.2-.3c-.1-.4-.2-.8-.4-1l-.8-.4v-.2l.8-.3q-.2-.4-1-.9Zm-6.4 6.7zm-1.9-.9v-.6l.2-.3.4.1.2.4c.2.3.4.6.7.7l.1.2c0 .3.1.3.3.4 0 0 .2-.2.1-.3 0-.4.2-.7.4-1l-.3-.5.5-.8 1 .5c.2-.8.1-1-.8-1.6v.2q-.5-.2-.7-.6c-.5.2-.4.6-.4 1l-.2.1c-.6-.2-1 .2-1.2.6l-.5.5-.4.6c-.2-.2-.3-.3-.2-.6.2-.4.1-.6-.2-.9-.3-.2-.6-.1-1 .2l-.6 1c-.1.3-.2.6 0 .9l.4.5c.7.1.8 0 1.5-.6.2-.1.5.3.7-.1Zm7.9 2.9Zm3.2-1.9c.4-.2.8-.3.6-.9l-.5-.4c.2-.5.6-1 .2-1.6l-1 .3q.6.3.4.8-.7 0-.9.5l.8.7c-.3.2-.4.4-.4.7.1.3.1.7-.3 1l-.4-.8c-.1-.4-.4-.4-.7-.4-.3.5.2.8.2 1.3-.2 0-.3-.2-.5-.3l-.2.1-.5.9.2.5.3.6.6-.7c.2 0 .5 0 .9-.2l.6.5.2.9 1-.7-.6-1c.2 0 .3-.2.4-.3.5-.4.5-.6 0-1l-.4-.4ZM58 48c-.2-.4-.4-.8-.9-.8-.3 0-.6 0-.9.2l-1 .5.1.3c.4 0 .5.2.6.6l.3.6-.3.5c.2.3.5.2 1-.4l.2.5-.5.4.2.5.5-.2.6.7.6-.4v-1.4l-.7-.6c.4-.4.4-.7.2-1Z"/><path d="M51.4 30c-.2-.2-.3-.4-.1-.6v-.9l-.8.1-.3.6.2.7c0 .2-.2.3-.3.5 0 .2.2.3.3.5h-.1l-.4.1-.4.8-.1 1c.2.2.5.3.6.6 0 .4.4.2.7.2l-.3-.3q1 0 1.2-.6c-.4 0-.6-.3-.6-.8l1-.5.3-.7c.1-.1 0-.2-.1-.3l-.3-.1-.5-.3zM25.3 67.3c-.2-.4-.6-.3-.9-.4l.3-1c0-.3.5-.5.3-.9-.4 0-.8-.1-1.1-.4l-.3-.1c-.5-.3-.7.1-1.1.7-.3.4-.2.8.1 1l.3.2q.5.6 1 .8l-.3.1H23v.6l.4.2c.3-.2.6-.4 1-.4.3 0 .7 0 .8-.4zm18.9-20.6l-.8-1.3c-.2-.2-.3-.3-.5-.2-.2 0-.3.3-.3.5.1.3.2.7.7.7h.2c0 .6.4.6.9.7.3.1.5.6.5 1v.8l1 .2c0 .4.3.7.8.7.3 0 .3 0 .6-.5-.2-.6-.7-.6-1.2-.7l-.1-2c-.6-.2-1.2-.3-1.8.1zm-5.3 27.9zm.1-38.2c-.5.2-.6.6-.7 1l-.7-.5.1-1-1.3.6c-.2.4 0 .7.2 1s.2.7.3 1c.5.1.8 0 1-.4.4-.3.4-.3 1-.4l-.1.6.7-.5.7.2c.1-.8 0-.8-.5-1l-.3-.2-.3-.3H39zm12.9 35.4c.3.4.6.4 1 .2l.7-.7c.3-.4 0-1-.6-1h-.5v.3l-.3.4h-.8c-.5-.1-1 0-1.2.3l-.4 1c.8.4 1.3.3 2-.5zM27.7 53.4c-.2-.2-.4-.3-.7-.2h-.4c-.4 0-.6.2-.7.5-.2.6.1 1.7.7 2l.3.2h1v-.3c-.2-.4-.2-.7 0-1 .3-.5.2-1-.2-1.2zM48 71c-.7 0-.7 0-1 .5-.1.5 0 1.1-.6 1.4 0 .4.1.7.4.8.2.1.2.3.3.4 0 .4.3.5.4.2.3-.3.5 0 .8-.2l.2-1.1.3-.3v-.3c0-.4-.4-.5-.8-.5v-1zm.2 2.2H48l-.2-.3h.4v.3zm-19.6-1.5l-.4-.2.6-.1-.4-.4c-.4-.4-.4-.4-1-.1-.1.3.2.6.3.8-.3.3-.4 0-.6-.1l-.6.3c-.3.3-.4.8-.1 1.1v.1c.7.7.7.6 1.1 0 .9.2 1.2 0 1.4-1h.3V72l-.5-.2zm23.7-28.4zm.9-1.4zm-2.1.4c.3 0 .6 0 .7.5 0 .2.3.3.5.5l.4-.2c.2.1.1.5.5.6.3.1.3.4.1 1 .5 0 .5-.4.9-.5l-.8-1.4c-.1-.3-.4-.6-.2-1-.6 0-1-.3-1-1-1.2.5-1.2.5-1 1.5zm-19.8 3.5l-.1.6.7.2c.7.1.7 0 1-.6h.2l.5.2.3-.5-.6-1.2h-1.2c-.2 0 0-.6-.5-.5q-.1.6.4 1c-.2.3-.6.2-1 .3l.2.5zm8.4-4.8l-.3-.5c-.5-.2-.8 0-1 .6h-1.2l.1.7c.5 0 1 .6 1.4 0l.7.6c.4 0 .4-.3.5-.5l.6-.4c.1-.4.1-.8-.5-1l-.3.5zm1.2 33.6h1c-.4-.4-.6-.3-1 0zm11.9-.8zm2.3-.6c-.2-.5-.6-.4-1-.5l-.3.2c-.1.5-.6.6-1 .9 0 .4.2.6.3.8h1.5v-.2l.5-1.2zm3.3-.2v-.8c-.1.2-.2.5 0 .7zm-1-21.4c-.1 0-.3 0-.4-.2-.1-.3-.4-.3-.6 0s-.2.6 0 .9l.8.9.3.5h.6l.2-.9h.2v-.5a8.3 8.3 0 0 0-1.1-.7zm.7 2zm-26.8 3.1l1-.1-.4-.7c-.4-.7-.9-1-1.6-.7-.1-.4-.3-.7-.9-.8l.1.6c.2.2.5.5.3.9 0 0 0 .2.2.3.4.3.8.6 1.3.5zm21-13.4z"/><path d="M52.1 43.9c-.1-.4-.2-.9-.6-.9l-1 .1.1.8c0 .4.2.7.6.9h.4l.8-.1c.5-.2.7-.6.3-1l-.4-.4v.2l-.2.3Zm-27.6 16c-.3-.3-.6 0-1 0 0 0-.3.4-.2.5.2 1 0 1.1 1 1.3l.8.2v-1c0-.5-.2-.8-.6-1Zm6.2-25.1c.3-.2.6-.2 1-.1s.8 0 1 .6l.6-.3-.5-1.2c-.5 0-1-.2-1.5.4l-1-.5-.5.8c.4.4.5.4.9.3ZM54 24.1l-1.5-.5-.4.7c.2.3.6.4.6.9 0 .2.4.4.6.6.3-.7.9-1.2 1.5-1.5 0-.5-.3-.5-.5-.6h-.1l-.2.4Zm-5.7 17.5.1 1h.2c.5 0 .8.4 1.2.5q.4-.5-.2-2.4l-1 .4c-.2 0-.3.3-.3.5ZM37.4 74.5c.2 0 .2 0 .5-.3-.1-.2-.1-.6-.5-.8-.2 0-.1-.4-.2-.6l-1.3.3-.3 1 .5.5h.5l.3-.1h.5Zm4.9-38.9H42v.6l.3.7-.2.4h.1q1.5 0 2-.2l-.3-1.1c-.4-.3-.8 0-1.3 0 0 0 0-.3-.2-.4Zm16.2 29.7Zm-23.3.5h.5v.8l.3.2.2-.2v-1.3c.2-.7 0-1-.8-1l-.4-.1c-.4.4-.2 1-.2 1.4l.4.2Zm22-19.6.2.4.7-.3.2-1c-.3-.5-.7-.3-1-.2l-.8-.5c-.3.3-.3.4.2 1.7h.5Z"/><path d="m47.8 39.2.2.3v.6c0 .5.1.8.6 1l.3-.4c.2-.2.5-.2.5-.4.1-.2 0-.5 0-.8-.6.2-.8-.3-1-.5-.2-.4-.4-.5-.9-.5 0 .3-.2.6.3.8Zm.9 1.9ZM48.5 23l.1 1 .7.1v.4c.4 0 .8-.1 1 .5.2-.3.4-.4.2-.7-.1-.3 0-.8-.4-1l-.1-.4c-.5.1-1-.2-1.4.1ZM41 42c-.7.5-.7 1 0 2-.3.4 0 .8 0 1.2l.4.1c.4 0 .6-.3.6-.7.1-.3-.1-.5-.4-.6l-.3-.2c.4-.7.1-1.2-.3-1.8Zm-13.2 6.6-.4.6c-.4.3-.5.7-.4 1.2.4 0 .8 0 1.2-.2l.3-.3.5-1.2-.4-.2c-.3-.2-.6-.2-.8.1Zm21.7 10.5-1.1.8q-.7-.1-1 .4l.7.7a2 2 0 0 0 1.2-.8c.2-.3.5-.5 1-.3l.2-.1c0-.2-.2-.3-.3-.5-.2-.3-.4-.4-.7-.2Zm1 .7Zm-.2 2.4-.2.4c0 .4 0 .8-.3 1.1-.2.2-.1.5.1.7h.7c.3-.2.4-.4.3-.7l-.3-.4c.5-.2 1-.2.8-1l-1.1-.1Zm6-37.9Zm.4-1.1c-.4-.4-.7-.4-1.2-.2l-.1-.5c-.1-.4-.3-.4-.6-.2-.6.4-.8.8-.6 1.4l.4-.5.3.2.5-.2h.1c0 .5.1.8.5 1 .1 0 .2 0 .3.2l.1-.4c0-.4 0-.6.3-.8ZM42.1 58.6l-.3-.2h-.4c-.5-.2-1 0-1.4.1 0 .3 0 .6.2.9 0 .1.1.2 0 .4-.1.3.1.5.4.6h.3c.1-.1.2-.3.1-.4 0-.2-.3-.3-.4-.5l1.3-.6.2-.3Zm-7.6 14.3-.3.1-1-.8c0-.3.2-.5.3-.7 0-.2 0-.4-.2-.5l-.5.1c-.3.4-.3.7 0 1l.7 1.1c.7-.1.8 0 .9.8.8-.2.9-.4.4-1.3l-.3.1Zm-4.1-19.2.6.1.1-1.8-1.5.3c-.2.7 0 1.2.7 1.4Zm7.8 11.5.1.4c.2.4.5.5.8.2.3-.2.5-.5.6-.8.1 0 0-.3 0-.4h-.5l-.4.5v-.6c0-.3-.1-.5-.4-.5-.6.4-.7.6-.2 1.2Zm.2-1.2v-.1.1zM41 33.7h.7l.4.7c.3.4.5.5.8.3.2-.1.2-.2 0-.8l.8-.2-.9-.5c-.5-.2-1.2 0-1.8.5Zm-9 34.7 1-.2.2-.5c-.1-.3 0-.7-.3-1l-.2-.4c-.3 0-.5.1-.6.4l-.4 1.2c-.1.2 0 .5.4.5Zm15.6-9.8c.2.3.5.3.7 0v-.1c0-.7-.6-.9-1-1.2L47 57h-1c0 .5 0 .4.4.7.4.3 1 .4 1.2.8ZM25.8 42.7c.5.1 1 0 1-.6v-.8h-.5l-.5-.2c-.5.3-.6.8-.5 1.4l.5.2ZM46.3 67c-.6-.2-1.1.4-1.6.5l.4 1.3 1.3-.6V67Zm3.4-21.9c.6-.8.6-1 0-1.7v.8c-1.2.1-1.3.2-1.4 1.1.5.3 1 .2 1.4-.2Zm-8.2 2.5-.7.5c0 .4.6.5.4.9-.1.2.1.4.4.5.2 0 .6-.3.6-.5-.2-.4.2-.7.1-1.1l-.8-.3Zm-3.8-1.1c.3 0 .5-.2.7-.3l.2-.9c0-.2-.3-.2-.5-.2l-.6-.1c-.7.7-.7 1 .2 1.6Zm-20 15.1h-1l-.1.6c0 .3 0 .6.4.7l.9.3.2-.8c0-.3-.1-.7-.4-.8Zm20.1 8.9v.2l-.1.2c-.4-.3-.8-.2-1.2 0-.3 0-.4.4-.5.7.6.4 1.1.4 1.6 0l.4-.4c.2-.3.2-.5-.2-.7Zm14-8.7c.2.2.7 0 1-.3.2-.4.2-1 0-1a1 1 0 0 0-1.2.2c-.3.4-.2.8.2 1Zm-13.2 9.4-.2.4c-.2.3-.1.8 0 1 .4.2.8.2 1-.2.1-.5.2-1 0-1.7-.5.1-.7.2-.8.5ZM41 22l.7.3.4-1.2-.4-.3c-.2 0-.5-.2-.6-.1-.2.1-.5.4-.6.7 0 .3.2.6.4.7Zm1.8 7Zm-.7-.2v.3c0 .2 0 .5.2.8l.5.2-.3.6c.2.3.5.4.8.3v-.3c0-.3-.2-.5 0-.8l-.4-.4c-.1-.2-.2-.3-.1-.5l-.3-.2h-.4ZM44 72.3c0-.6-.1-.7-.8-.7l-.3 1.1c.5.6.8.6 1.3.2l-.2-.6ZM38.3 49c-.5-.7-.6-.8-1.2-.5q-.3 1 .6 1.4c.4-.2.5-.7.6-1Zm-3.7 15.2c-.3-.2-.5 0-.6.3l-.9 1.8c1 0 1.5-.8 1.5-2.1Zm11.4-24c0 .4.3.6.5.8h1q.3-.5-.4-1.3l-1 .5Zm-2.5 12.2c.3.1.7.4 1 .4l.8-.3-.5-.6c-.2-.1-.2-.3-.1-.5-.3 0-.5 0-.7.2-.3.1-.5.3-.5.8Zm1.2-1zm-1.3-15.7.3-.4h1V35c-.2-.6-.7-.7-1.2-.7v.7l-.5.2c0 .2.2.4.4.6Zm-11.6-4.6q-.4.1-.9.5l.2 1c1.2-.4 1.3-.6.7-1.5Zm26.7-8.4v-.4l-.3.3.3.1Zm-5-1.7c.8-.9.8-1-.2-1.5-.6.4-.6.7-.1 1.2l.2.3Zm-9.3 11.8v.3c.2.2.3.3.5.2.2-.2.3-.3.2-.5l-.2-.5c0-.3-.2-.4-.4-.6-.2 0-.4 0-.6-.2 0 .6-.1 1 .5 1.3ZM33 65l.2-.5-.5-.8a.8.8 0 0 0-.7-.4c-.2.9 0 1.2 1 1.7Zm6.9-19c-.3.3-.2.6.1.8.4.2.8.2 1 0 0-.4 0-.8-.3-1-.4-.2-.7-.2-.9.2ZM43 61.4c-.3-.2-.7-.2-1-.3-.2.4.2.3.3.6l-.2.5.5.3c.3.1.5 0 .9-.2-.2-.3-.3-.7-.6-.9Zm-13.6 7.4c-.4 0-.8 0-1.2.4 0 .2.1.4.4.5h.6c.3 0 .5-.3.8-.4-.2-.6-.2-.6-.6-.5Zm9.4-39.9c0-1.1-.2-1.3-1.1-1q-.1.4.4 1.2l.7-.2Zm4.4 13.3 1.4.4c.4.1.5-.1.5-.5l-1.2-.7-.7.8Zm-6.8 10.5c0 .2-.1.4.1.6.2 0 .6 0 .7-.3l.1-.3.2-.4q-.4-.4-.9-.5l-.2.9Zm-3.8 10.1c.2-.1.3-.4.5-.7l-1-.4c-.3.4-.7.7-.4 1.2l1-.1Zm16.7-25.9v-.5h-.7c-.5.2-.7.4-.4.9l.2.3c.5 0 .7-.4.9-.7Zm-23.5 9.7c-.3-1.1-.5-1.3-1.3-1.1 0 .8.1.8 1.3 1.1Zm16.8-4c-.8.6-.8 1-.2 1.7.6-.6.7-.8.3-1.6Zm3.9 3.5c.3.2.5.6 1 .3.2-.2.3-.4.2-.7-.2-.3-.4-.4-.7-.4-.3 0-.4.2-.5.8Zm5-24.2H51c-.2 0-.5.1-.6.3-.3.3 0 .5 0 .8.7-.1 1.1-.4 1-1.2Zm4 24.1c-.3-.6.4-1 .4-1.6l-.4-.3-.7 1.2c0 .3.2.6.7.7ZM49 47.8a.7.7 0 0 0-.6-.4c-.4 0-.6.3-.6.7.2.2.4.6.8.4.2 0 .4-.5.3-.7Zm-27 8.5c-.3-1-.6-1.2-1.4-.8.2.7.7.9 1.4.8Zm7.4-6.3-.5-.3-.2.2v.3l.2 1.4c.7-.5.5-1 .4-1.6ZM57 21.4l-.3-.3c-.7.3-.7.4-.4 1.3.6 0 .8-.4.8-1Zm0 0ZM46.5 37.9l.7-.6c.2-.2 0-.4 0-.5-.2-.1-.3-.2-.5-.1l-.3.2v.1l-.2.2c-.3.2-.4.3-.3.5.1.2.4.3.6.1ZM32.3 48.8c.2-.1.5-.2.6-.4v-.7c-.5 0-.9.1-1 .5-.1 0-.1.3 0 .4l.4.2Zm18.4 12.9.4-.1v-.8h-1.2l-.1.2v.2c.5-.2.5.6 1 .5ZM29.4 42.4c.2-.2.4-.4.3-.7-.1-.4-.5-.6-.8-.7-.3 1-.3 1 .5 1.4Zm11.8 29.5c0 .2.2.4.4.5.4 0 .5-.2.7-.5l-.5-.8c-.5.2-.7.5-.6.8Zm-11.7-9.1c-.2-.4-.3-.8-.7-.8l-.8.9.7.4.8-.6ZM47.6 69c.2-.2.3-.3.2-.8l-.1-.1c-1 0-1 .1-.7 1 .2 0 .4.2.6 0Zm-3.1-45.2c-.4.6-.4.8.2 1.6.6-1 .5-1.2-.2-1.6Zm6 2.7v-.3q-.3-.5-1-.8c0 .3-.2.5-.3.7.3.4.7.4 1.1.5l.2-.1Zm2.8 20.7-.7.9h.4c.7.3 1 .1.9-.6l-.1-.2-.5-.1Zm-.8.9Zm-22.7 24-.4.6c-.2.3 0 .5.3.7.2 0 .4.1.5-.1.2-.3.3-.5 0-.7l-.4-.5Zm5.7-44.8q0-1-.7-1.2c-.5.8-.3 1 .7 1.2Zm-.6 14.3.7.3c.3-.3.6-.6.3-1-.5 0-1-.1-1 .7ZM18.9 64l-.1.9c0 .2.2.3.4.2q.6-.3.7-1h-1Zm5.8-12.7c0-1-.2-1.3-1-1.2 0 .8.2 1 1 1.2Zm9.2-22.8h.1c0-.5.8-.3.8-.9l-.7-.4-.6.8c0 .2.1.5.4.5Zm4.5 3.2c-.3-.4.1-.9-.4-1.2-.3 0-.5.3-.8.6.3.3.5.6 1.2.6Zm.5 11.7h-.6c0 .6.1.9.5 1 .3 0 .5-.1.5-.4 0-.3-.1-.6-.4-.6ZM22 53.4c.1-.6.7-1 .5-1.7-1 .5-1.1 1-.5 1.7Zm29.4 20.3c-.4.2-.7.4-.8.9h.9c0-.3.1-.6-.1-1Zm-2.5-10.6c0 .2.2.3.3.5.6-.3.6-.8.5-1.3q-.5.1-.8.8Zm-9.6-13.7-.6.5c0 .4.1.7.5 1q.5-.7 0-1.5Zm12.3-21.7c0 .1.2.3.4.3l1.2-.1-.3-.3c-.2 0-.5 0-.7-.3-.2-.1-.4 0-.6.1v.3Zm-1 11.8.2 1.1c.5 0 .5-.6 1-.6l.1-.5c-.4.1-.8.2-1.3 0Zm-6 3.4c-.2 0-.2.2-.2.3l.1.3c0 .7 0 .7.7.5h.1c0-.4-.2-.6-.3-1 0-.1-.2-.2-.4-.1ZM35.2 31h-.7c-.3.2-.1.4.1.7l1-.1c0-.4-.1-.6-.4-.6ZM45 62.5c-.1.3 0 .6.2.6h.7c0-.5 0-.7-.4-.8-.2 0-.4 0-.5.2ZM51.7 37v-.5c0-.2 0-.4-.2-.4s-.4 0-.5.3l-.3.7c.4.1.6-.4 1-.1Zm-31.6 7a.8.8 0 0 0-.8.2l.2.7c.6 0 .7-.1.6-1Zm15.1-19.3v-.4L35 24c-.3-.3-.5-.3-.8.2l.6.6h.4Zm-2.6 44.1c-.4-.3-.8.6-1.2 0v.4c.4 0 .6.2.7.6.3-.3.6-.6.5-1Zm17.6-41.1c.8.1 1 0 1-.6l-1-.1v.7ZM34 61.8l.2-.8q-.4-.2-1 .3c.1.3.3.7.8.5Zm-2.9-23.3c-.5-.3-.7-.3-1.4.2.7.4 1 .4 1.4-.2ZM45.3 56v.6c0 .2.2.2.5.4v-.7c.1-.1.4 0 .4-.3l-.7-.5-.2.4Zm.9 0Zm-22.3-1.5c-.4-.8-.7-1-1.3-.7.2.7.7.8 1.3.7Zm1.8 13.2q.3.7 1 .5c-.1-.9-.3-1-1-.5ZM37 43c-.3 0-.7 0-1 .4l.2.4c.1.2.5 0 .8-.3 0-.2.1-.3 0-.4Zm11.2 6.6c-.3 0-.4.3-.3 1 .6 0 .8-.1.8-.5 0-.2-.2-.5-.5-.4Zm-15.8 2.8c.2 0 .2.2.4.3 0-.2.2-.3.3-.5l-.6-.7-.2.4-.4-.2v.5c.2 0 .4 0 .5.2ZM40.1 26v-.8l-.5-.2q-.1 1 .5 1ZM26.2 64v-.3c0-.3-.3-.6-.5-1l-.3.4.3.9c.1.1.3.2.5 0Zm6.7-24.7 1.2-.2c-.4-.8-.5-.8-1.2.2ZM37.2 64c.2-.1.3-.3.2-.6 0-.3-.2-.4-.6-.4h-.3c.2.3.2.8.7 1Zm-.7-1zm5.5 6.6q-.6-.1-1 .5c.5.5.8.3 1-.5Zm-8.4-19.9c.7-.5.7-.6.3-1.2-.5.4-.6.8-.3 1.2ZM26.3 40l-.4-.7-.6.3c.2.7.4.7 1 .4Zm-.5 19.7c.2-.1.3-.4 0-.7h-.4c-.2.2-.3.5-.1.7h.5Zm26.4 2.6a3 3 0 0 0-.4.6c0 .2 0 .4.2.5l.6-.7v-.4h-.4ZM35.7 50.6c-.3.3-.2.7 0 1l.5.3c.2-.7-.2-1-.5-1.3Zm-1.5-14.2c.5-.3.6-.5.3-1.3-.3.5-.6.8-.3 1.3ZM51.7 60q-.2-.5-.8-.6l-.4.4c.3 0 .5.2.7.3h.5Zm-1.2-.2ZM31.9 57l-.5.4.4.8c.4-.4.4-.8 0-1.2Zm8.9-8.6c-.3-.4 0-.9-.5-1l-.2.5c-.1.2-.2.5 0 .6l.6-.1ZM44.5 30c0-.3 0-.6-.4-.6l-.3.2v.6c.3.2.5 0 .7-.2ZM16.8 51.3l.4-.3c-.3-.4-.5-.5-.7-.3-.2 0-.3.2-.2.5 0 .2.3.2.5.1ZM50 38.4c.3.2.5.2.6-.1l.2-.3.2-.4q-.8.4-1.1.3c-.1.2 0 .4.1.5Zm-.7-17.6c-.2 0-.3-.2-.5-.3-.3.2-.5.4-.4.7q.6.1 1-.4ZM32.2 49.7c-.2.3 0 .6 0 .8l.5.1.1-.2-.3-.7h-.3ZM47 69.2l-.6-.4c-.3.6-.3.7.3 1l.3-.6Zm0 0ZM26.7 46.8a1 1 0 0 0-.8.8l.4.3c.2-.3.4-.7.4-1Zm11.9-16.5v.4l.6.2c0-.5 0-.8-.6-1v.4Zm-10 14.5v-.5l-.5.1-.2.4c.3.3.5.4.7 0Zm6.9-10.3-.3.4c.1.3.3.5.7.6q0-.7-.4-1Zm13.9-11.9c.2.1.4 0 .6-.2 0-.1 0-.4-.2-.5-.2 0-.4 0-.5.2-.1.2 0 .4.1.5Zm-24 46.3c-.2 0-.3 0-.3.2l-.5.6.7-.1c.2 0 .3-.2.3-.4l-.2-.3Zm-3.1-.2c0 .2 0 .4.2.6.3-.2.7-.3.4-.9l-.6.3Zm4.4-4.1-.3-.3-.3.3v.6c.4 0 .6-.3.6-.6Zm25.2-19.3-.3-.2c-.2 0-.3.2-.4.3v.5c.2 0 .4 0 .6-.2l.1-.4Zm-.7.6zM38.4 32.5l-1-.1c0 .3 0 .5.4.5.5 0 .5 0 .7-.4Zm12.2 18.7q.4 0 .7-.3c0-.3-.3-.4-.6-.5.2.3-.2.5 0 .8Zm.1-.8ZM30 51.8c.4-.3.5-.6.3-1-.6.2-.7.3-.2 1Zm-.6 9.3-.3-.4c-.2 0-.5 0-.7.2.3.3.6.5 1 .2Zm6.2-27.4c.3.4.6.3 1 0l-.6-.4-.4.4ZM55.4 19v-.5c-.3-.1-.6 0-.6.3v.3c.3.2.5 0 .6-.2ZM32.2 43.4c0 .2 0 .5.3.6.2-.3.2-.5.1-.8-.2-.1-.4 0-.4.2Zm11.8 25h.3V68h-.2l-.3-.3c-.1.5 0 .7.2.7Zm-2.1-42.6c-.2-.1-.3 0-.4.1-.2.2-.1.4.1.5l.4-.1c.2-.2 0-.4-.1-.5ZM47.4 43c-.4.2-.6.4-.6.9q.6-.3.6-.8ZM33.7 68.8l-.6.2v.8c.4-.2.6-.4.6-1Zm-3.1-.8c-.3-.2-.5-.6-.9-.3.3.5.4.6 1 .3Zm10.2-37.6q0-.6-.7-.6 0 .4.7.6Zm-17 16c0-.2 0-.3-.2-.5q-.4.5 0 1c0-.3.2-.4.2-.5Zm21.9-11.1q-.1-.6-.6-.6c0 .5 0 .6.6.6ZM25.4 48c-.2-.1-.6 0-.6.2l.2.4c.2 0 .4 0 .5-.2V48Zm1.7-17.6.3-.1c0-.3 0-.4-.5-.6-.1.5 0 .7.2.7ZM31.6 62l-.4-.6-.5.3c0 .3.4.4.9.3Zm14.9 8.5c.1.3.4.3.6.2l.2-.2s0-.2-.2-.2c-.3-.1-.5 0-.7.2Zm-17-36.6c.2-.3.2-.4 0-.5l-.5-.2v.3c0 .2.3.3.5.4Zm11.1 6.3.1.3c.4.2.4 0 .6-.4-.3-.2-.5-.2-.7 0Zm4.4-8.5.4-.8c-.7 0-.7.2-.4.8ZM34.2 44Zm0 0 .4.4c.3-.1.4-.3.2-.5-.3-.4-.4 0-.6.1Zm19.5 1.2-.2.2v.4l.5.3c0-.4 0-.7-.3-.9Zm-18.4 6.9c-.2.3 0 .5.1.6h.3c.2-.2.1-.4-.1-.5h-.3Zm17.9-10.2Zm1.1-.2c-.5-.3-.7-.3-1 .2.3 0 .7 0 1-.2ZM27.8 67.1h-.5l.3.6.4-.1c.1-.2 0-.4-.2-.5ZM40 31.2c.1.1.3 0 .4-.1v-.5l-.4.2c-.1 0 0 .3 0 .4ZM58 64c0-.2-.3-.3-.6-.1l.4.6c.3-.1.3-.4.2-.5Zm.5-45.1v-.4l-.4-.2c0 .3.2.5.4.6ZM41.9 30.5h-.2l-.2.5.3.4.2-.7-.1-.2Zm6.3 13.1-.3-1c-.1.7 0 .8.3 1ZM22 66.1c-.3 0-.5.1-.5.5.3 0 .6.2.7-.2L22 66Zm26.8 6.7c.4.2.5.1.5-.5-.2 0-.4 0-.5.2v.3ZM31.6 50.1c-.1-.3-.3-.5-.7-.5q.1.6.7.5Zm8.1 2.5s.3.1.4 0c.3-.2.1-.3 0-.6-.3.2-.5.3-.4.6ZM51 35.5c-.2-.3 0-.5 0-.8l-.6.7.6.1ZM21.6 50.1l-.4.1v.4l.5-.1c.1-.1.1-.3 0-.4Zm6.2-14.9.2-.1-.1-.6h-.3c-.1.2 0 .5.2.7ZM38 73.5c0 .3 0 .6.4.8.2-.6.2-.6-.3-.8Zm-8.7-33.8s.3 0 .3-.2l.2-.5-.5.3c-.2 0-.2.3 0 .4Zm13.8 29.2-.6.1.3.6.4-.6ZM29.7 43.3q-.2.3-.2.7c.5-.3.5-.3.2-.7ZM31 66.5l.7.3c0-.6 0-.6-.8-.3Zm24.9-40.9Zm-.1-.7c-.1-.1-.3 0-.4 0v.3l.5.3c.1-.2.1-.5-.1-.6Zm-9-1.3q-.4-.1-.7.4c.4 0 .7 0 .7-.4Zm-5.6 5.8q-.2.5.3.7c.1-.4 0-.6-.3-.7Zm-2.2 34q.4 0 .7-.4c-.5-.3-.6 0-.7.4Zm3.4-31.2.4-.3v-.3h-.3l-.3.4.2.2Zm1.8 35c.3-.2.3-.4.1-.6-.3.1-.5.3-.3.6h.2ZM24 71.5l-.2.4.5.3c0-.4 0-.6-.3-.7ZM51.9 20c-.5.2-.5.2-.4.7.3-.1.5-.3.4-.6ZM34.8 71.6l.1.5h.3l-.1-.4h-.4Zm2.7-42.8c0-.2-.2-.3-.4-.2l-.3.1.4.4c.1 0 .4 0 .3-.3Zm1.8 15.8v.3l.1.4.3-.7c-.1-.2-.3-.2-.5 0Zm-8.9 27.5c.2.4.4.6.8.3-.1-.3-.3-.5-.8-.3Zm18.7-45.9-.3.2c-.2.2 0 .4.1.4l.3-.1v-.5Zm-9.8 22.6c.5 0 .4-.2.4-.5-.4 0-.5.2-.4.5Zm-8.9 16.5c-.3.1-.4.4-.3.7.2-.2.4-.4.3-.7Zm.9-.8-.6.1q.4.3.6-.1Zm27.2-43.2v-.6c-.2.4-.3.4 0 .6Zm-1.1 19.8c0 .5.2.6.5.7 0-.4 0-.6-.5-.7Z"/><path d="M43.5 29v-.2c-.4-.2-.5 0-.7.2.2.2.5.3.7 0Zm-.7 0Zm-4.1-4.2q0-.5-.4-.4v.2l.4.2Zm14.5-1.6.3.1.3-.4c-.5 0-.6 0-.6.3ZM28.2 59c.1.4.4.5.7.6q0-.4-.7-.5Zm13.6-26.5s0 .2.2.3h.3l-.2-.5-.3.2ZM34.2 44Zm-.5 0c-.2.2 0 .3.1.5.3 0 .4-.3.4-.5-.2 0-.3-.2-.5 0ZM51 26.4l-.2-.5-.4.3.1.3.6-.1Zm-1.6 10.7c0 .4.3.4.5.4q0-.4-.5-.4Zm3.4 36.7Zm-.8.2c.3 0 .6 0 .8-.2l-.5-.3-.3.4Zm-17.4-2.3c-.1-.3-.3-.5-.6-.4 0 .5.3.4.6.4Zm9.2-28.3h-.4l.1.4h.4v-.4ZM30 37.5l.1.5.5-.5c-.3-.2-.4-.2-.5 0Zm2.6-8.1c-.4 0-.4.3-.4.6.3 0 .4-.2.4-.6Zm-1.1 23.2-.1.3c0 .3.3.1.5 0 0-.2-.2-.4-.4-.3Zm22.4 9.5s-.2-.1-.2 0c-.2 0-.4.2-.2.4.3 0 .5 0 .4-.3ZM36.3 24.6H36l-.2.5h.2l.2-.5ZM57.6 21c-.3 0-.3 0-.5.4.4 0 .4 0 .5-.4Zm-.5.4ZM29.7 72l.5-.2c0-.1 0-.3-.2-.5l-.3.7ZM44 74l.1.3c.3 0 .4 0 .4-.4-.2 0-.4 0-.5.2Zm5.5.1.4.5.1-.2c0-.2 0-.2-.6-.3ZM21.9 45.8l-.3.4.2.2q.2-.2 0-.6Zm-.3.4Zm27.2 15.1-.2.1c-.1.2 0 .3.3.4v-.5ZM20.1 47.6q.4 0 .6-.2c-.3-.2-.4 0-.6.2Zm1.5-1.4Zm-.2-.3c-.3 0-.3.3-.3.5l.5-.2-.2-.3Zm.6-2.4.4-.5c-.5-.1-.5.1-.3.5Zm.4 23.9h-.3v.3l.5.1-.2-.4ZM53.5 41H53l.1.3.3-.2ZM29.4 56.4l.7.4q-.1-.5-.7-.4Zm11.1-11.7h-.4v.3h.4v-.3Zm-4-4.4-.6.1c.3.3.5.1.6-.2Zm-1.1-10c0 .2.2.3.4.2v-.2c-.1-.2-.3-.2-.4 0Zm1 37.4h.2l-.1-.4h-.3l.2.4Zm-3.9-31.1v.2l.4.3v-.3l-.4-.2ZM30.8 64h.3l-.3-.1v.2ZM33 47.1h-.4v.3h.4V47Zm12-12.9c-.4.1-.3.4-.3.7.1-.2.4-.4.2-.7Zm-.3.7zm-26 10.7h-.3v.3h.4v-.3Zm30.5-16.4-.1-.3-.2.2.1.4.2-.3ZM21.2 71c0 .3.2.5.5.3 0-.4-.2-.4-.5-.2Zm14.6-35.3.3.5.2-.3c0-.2-.1-.3-.5-.2Zm9.2-7.4h.1V28h-.3l.1.3Zm.4 14.9.2.5c.1-.3 0-.4-.2-.5Zm-14.2-7.5v.1c0 .3.1.3.3.2 0-.2 0-.4-.3-.3ZM19.7 50l-.4-.4c-.1.3 0 .4.4.3Zm33-11v-.2l-.2-.1v.1c0 .1 0 .2.2.3Zm-18 4.1V43h-.4l.2.3h.2ZM32.8 42s.2 0 .2-.2v-.1l-.4.2.2.2Zm10.5 21.2V63l-.3.1v.2h.3ZM30.2 70H30v.2h.2V70Zm28.2 3.4-.3-.2v.2l.2.2v-.2Zm-5.9-47V26h-.2v.5c0-.2.2-.2.2-.2ZM42 63.6l-.2-.2h-.2v.2h.3Zm8.5-7.9.2.2h.1v-.3h-.3ZM39.8 49v.2h.3L40 49h-.2ZM34 70.7l.2-.1v-.2H34v.3Zm24.4-6.9v-.2H58v.2h.3ZM37.6 34.7l.3-.2v-.2h-.2l-.1.4Zm3-5.8v.2h.3V29h-.3Zm5.6 15.2h.2l-.1-.2H46l.1.2Zm-21.2.7v-.1l-.2.1v.2l.2-.2Zm17-18.1.2.3h.1v-.1l-.2-.2H42ZM44.6 69v.3l.3-.2V69h-.3Zm12.9-32.5v.3h.3c.1-.2.2-.3.1-.5l-.2-.1c-.2 0-.3.1-.2.3Zm-.5.5.6.3c0-.4-.2-.5-.5-.3Zm.6 21h.9v-1H58c-.2.3-.5.5-.5 1Zm.5-1Zm-4.7-27-.3-.2c-.3 0-.5 0-.5.5h.5l.3-.3Z"/></g><path fill="#0c2b77" d="M19.9 63.1h2.9v11.6h-2.9z"/><rect width="22.9" height="63.8" x="9.9" y=".9" fill="#fff" stroke="#0c2160" stroke-miterlimit="10" stroke-width="1.8" rx="9.7"/><circle cx="21.4" cy="32.4" r="7.8" fill="#6c27a8"/><circle cx="21.4" cy="49.8" r="7.8" fill="#4db6ac"/><circle cx="21.4" cy="15" r="7.8" fill="#ee0290"/><circle cx="18.5" cy="11.8" r="1.9" fill="#ff8dd6"/><circle cx="18.5" cy="29.3" r="1.9" fill="#9961e2"/><circle cx="18.5" cy="46.6" r="1.9" fill="#b2dfdb"/><g clip-path="url(#A)" fill="#bf087e"><path d="M30.3 18.4zm-5 .1zm-5.8-.5v-.8c-.4 0-.6.2-.5 1h-.4c.2.5.5.7.8 1l-.6.1.2.4-.4.3.4.4v.1c.2.3.3.5.6.6v.2l-.4.1-.4-.4c-.2.2-.2.4-.2.6h.1c.3 0 .2.3.3.5.3 0 .6.2.9-.1l-.5.7c-.1.3-.4.6-.3 1.1.3 0 .6 0 .8.2l.2.1h.5c.3.2.4 0 .6 0 0-.3-.3-.3-.2-.5.2.2.3 0 .4-.2L21 23l-.2.1-.5-.1v-.4c.2-.2 0-.3 0-.4l-.5-.4h.5c0-.4.5-.6.4-1-.2.1-.5.2-.5.5H20c.1-.2 0-.4.2-.5v-.4H20l-.1-.2h-.4c.2-.2.3-.3.3-.6v-.4l-.2-.5c-.2-.2 0-.5-.2-.7zm.4 4.8c.5 0 .3.4.6.6l.6-.2v.4l-.7.1c-.2-.2-.4-.5-.5-1zm-.7-2.7h.3s-.2.2-.4.1l.1-.1zm5.6-2.3zm.2-.8zm.3 1.5c0-.5.3-.9.5-1.2-.2-.3-.5-.3-.7-.3l-.2.4h.4v.2c-.1 0-.3 0-.5.2 0 .2.1.3.3.5l-.2.2-.5-.5c-.3 0-.7 0-1 .2l.2.9-.1.3h-.6c-.3.3-.2.7-.5.9-.1 0 0 .2 0 .4v.1c.1-.3.5-.6.7-.9h.4l-.2.3.2.6-.5.5h-.4l-.2.1-.3.5.2.1c.4-.1.5.1.5.4.2 0 .2-.2.3-.3l.3-.1-.1-.3c.4-.2.5-.6.8-.9l-.2-.2h.4c0-.3-.4-.3-.6-.5l.2-.2.1-.2c.4.1.6 0 .8-.2s0-.3-.1-.4l.3-.3c0-.2.2-.3.3-.4zm-.7.6l-.1.3-.2-.4.3.1zm2.4-1.9c-.3.3-.7.1-1 .3v-.7c-.2-.1 0-.3.1-.4l.2.4.5-.2.3.6.4-.2c-.2 0-.2-.1-.3-.2v-.4c.2-.1.3-.1.4 0 .2 0 .3.2.3.4v.6c0 .2-.2.3-.4.5l.5.3c.3.1.4 0 .4-.3H28q0-.4.4-.6l.1.1c.4.3.4.5 0 .9l-.1.3.2.3H28l-.9.1c-.2 0-.7 0-1-.2a.9.9 0 0 1 .6-.6l.2-.2c-.1-.2 0-.5 0-.8z"/><path d="M25.5 19.6l.2-.3-.2-.4c0-.2-.1-.3-.3-.3l-.1-.2.6-.3.6-.2c.3 0 .4.3.6.5 0 .2 0 .4-.2.7l.5.4c.4.2.5.3.5.7-.3.1-.7 0-.9.4l-.4-.5-.3.2-.1-.4s.2 0 .3-.2l-.1-.3c-.4.3-.5.4-.7.3zM22.6 21l-.3.4-.6.4c0 .2.1.4.4.5q-.2.3-.7.4l.1.1c-.1 0-.4.1-.4 0 0-.3-.3-.4-.4-.5v-.6l.3-.5h.2l.1-.1-.2-.3.3-.3-.2-.5.2-.3h.5v.5c-.1.1 0 .3 0 .4l.4.1.1.2c.1 0 .2 0 .1.1zm7.2-6.5h-.5v.1l-.2.2c-.3.1-.4-.2-.5-.3 0-.3.2-.3.3-.3l.4.2v-.5c.1-.4.6-.6.9-.5l.1.1c.2.5 0 1-.5 1zM24.1 17c-.4.2-.7.5-1 1 0-.2-.3-.4-.3-.5 0-.3-.2-.4-.4-.6l.3-.4.9.4.1-.3c.2.1.5 0 .4.4zm-8.5 1.6q.3 1.1.1 1.4c-.3 0-.4-.3-.8-.3l-.2-.6c0-.2.1-.3.3-.3l.6-.2zM21 16l.1.3c.3.2.2.5.3.7s0 .3-.1.4c-.1-.4-.4-.3-.6-.3v-.2h-.5v-.7c.3-.2.6 0 .9-.1zm4 1z"/><path d="M24.9 16.9c-.3-.1-.4-.3-.3-.6l-.4.1-.2-.1-.2.3c-.2-.4 0-.6.3-1 .2 0 .3 0 .3.2l.2.3c.2-.1.5 0 .7.2-.3 0-.3.2-.2.4v.3l-.2-.1Zm3.1-2.2s0-.2-.2-.3c-.3.4-.4.5-.8.1 0-.1.1-.4.3-.3.4 0 .6-.1.9-.3l.3.8H28Zm-12.2 1.9c0-.2.1-.4.3-.5h.4l.2.3-.2.7-.5-.1c-.2 0-.3-.3-.2-.4Zm.8 3.4Zm.1.2s.2.2.1.3l.1.5v.2c-.2 0-.4 0-.5-.2l.2-.4-.4-.1-.1-.5v-.2h.3l.2.1v.3ZM29 16h.4c-.3.2-.3.3-.3.5v.3l-.4-.4v-.1c0-.3-.1-.6 0-.8l.2-.2c.2-.1.3 0 .4.1 0 .2-.4.3-.3.6Zm.3-.6Zm-2.8-.2Zm.3.1c.2.1.4.2.3.5v.4l-.9-.3c.2-.1.3-.3.3-.4v-.4l.3.2Zm-3.1.4-.2-.2c-.3-.3-.3-.5 0-.8.7.3.7.4.2 1Zm-5.8 6.6-.1.3-.3-.1v-.2c-.4-.2-.4-.5-.4-.8l.4.1.2.4.2.3Zm-4.5-3.1c.6-.2.7 0 .6.7l-.4.1q-.3-.5-.2-.8Zm14.2-9c.5.3.5.5 0 1-.4-.5-.4-.7 0-1Zm1.8 5.5v-.3l.3-.3c.4.2.4.6.6.8-.4.3-.6-.2-.9-.2Zm-.1-.3Zm1.4 1a1 1 0 0 1-.2-.9m-15.5 0c-.7-.2-.8-.2-.8-.7.5-.2.6 0 .8.7Z"/><path d="M28.1 15.7c-.2 0-.3 0-.4-.2v-.3c.2-.2.3-.2.5-.1l.5.4-.6.1Zm-6.7.5c0-.2-.2-.4 0-.6l.3-.2h.3c0 .5-.2.7-.6.8Zm3.6-.4c-.2-.6-.1-.6.3-.9l.2.3c0 .3 0 .5-.4.6Zm.6-.6Zm-7.9 1.4c.4.3.4.5.1 1-.4-.5-.4-.5-.1-1Zm3.7 1.6v.1l-.1.1c-.2 0-.5 0-.7-.3l.2-.4q.4.2.6.5Zm-7.7-.6c.5 0 .6.1.7.8-.6-.1-.7-.2-.7-.8Zm13.8-4.1-.1-.8.6.1c-.3.2 0 .7-.5.7Zm-5 5.4.5.1.1.2-.7.1-.3-.2v-.2c.1 0 .3-.1.4 0Zm2.3-5.3h.5l.2.4c-.6.2-.7.1-.7-.4Zm-7.4 5c0 .5 0 .5-.4.6l-.1-.4c.1-.2.3-.3.5-.2ZM26 10c-.2-.2 0-.4 0-.6l.7-.2-.6.9Zm-4.8 9.1v-.4h.7c0 .4-.2.5-.7.4Zm-6.6-1.7.2.1.1.5q-.4 0-.3-.6Zm3 3.1c0 .2-.2.3-.4.2v-.4l.2-.1c.2 0 .2.2.3.3ZM20 15c0-.2.2-.3.3-.4l.4.2q-.2.3-.6.2Zm-4.7 1.3-.2-.2c0-.3.2-.4.5-.5l-.2.7Zm13.4-3.2c.2.2.4.4.2.7-.4-.2-.4-.3-.2-.7Zm-8.1 2.5c.1-.1.3-.2.4-.1v.3c0 .1-.1.2-.3.1v-.3Zm5.6-3.4V12c0-.2.1-.3.3-.2v.3s-.1.2-.3.1Zm-10.4 6.1V18c0-.1 0-.2.2 0 .1 0 .2.1 0 .2l-.2.1ZM29.7 16l.2.3c.2.1.3.2.2.4-.3 0-.4-.3-.5-.5V16Zm-14.4 4.8q-.4-.1-.4-.4.4 0 .4.4Zm-1.5-5.5-.2.3q-.2-.3 0-.6l.2.3Zm4.6 8.6c-.3 0-.3 0-.4-.4q.3 0 .4.4Zm-3.6-7.5v.2h-.3s-.1 0 0-.1c0-.1.1-.2.3-.1Zm3.4 4.6-.2.6c-.2-.4-.2-.5.2-.5Zm-3.2.2c0 .1-.1.2-.2.1v-.2l.3-.2v.3Zm11.2-8c.3.1.5.2.5.5-.2 0-.4-.1-.5-.5ZM16 20.9l.1.1-.1.4-.2-.2v-.3h.2Zm8.8-3.1Zm-.3-.5h.2c.2.1.2.3.1.5l-.3-.3v-.2Zm-5.8-.5q.1-.4.4-.3c0 .2-.2.3-.4.3Zm-3.1 3.4c.2 0 .3.2.2.4q-.3-.1-.2-.4Zm1 1.4v.2l-.3.1v-.1l.1-.2h.2Zm5.7-7.3c0 .3 0 .4-.3.4 0-.3 0-.3.3-.4Zm-1.7 4.2h-.2c-.1 0-.1-.1 0-.2l.2-.1v.3Zm5.8-3.8c.2.2.2.2 0 .4-.1-.1-.1-.1 0-.4Zm.1.4ZM17 19.8v.1c-.1.2-.3.1-.4 0 0 0 .2-.2.4-.1Zm-.4.2ZM14 17.3l-.2-.1V17q.2 0 .2.3Zm9.1-1c0-.2.1-.2.4-.2l-.2.3-.2-.1Zm-6.8 6H16l-.2-.2h.3v.2Zm5.3-4.3.2.3h-.4v-.1l.2-.2Zm4.3-3.1c-.1.2-.1.2-.3.2 0-.2 0-.2.3-.2Zm-.3.3Zm4.4 3.2h.3c-.2.2-.2.2-.4 0Zm.3 0zM18 23.2l-.2.4.1-.4Zm-.2.4zm2.8-3.6-.1.2V20l.1.2Zm8.8-1h.2l-.1.2h-.1V19Zm-11.4.5-.2-.2h.2v.2ZM30.3 17H30v-.2h.2v.2Zm-7.7 1.1v.2h-.1v-.2h.1Zm6-1.1.2.2-.2-.2Zm1.4 2h-.2v-.2h.1v.2Zm-14.6 1h-.1l.1.1Zm.6-1.5h.1l.2.1H16Zm6.5 3.1h-.1v-.3c.2.1.3.2.1.3Zm0-.6c-.1.2-.2.1-.3 0h.3Zm-.3 0Zm2.8-.5c-.1-.1-.2-.2-.3-.1-.2 0-.4 0-.5-.2l.1-.4c.1-.2.3-.2.4 0 .2 0 .3.2.4.3l.1.3q.1-.3.5-.4l-.2.8-.2-.3c-.1 0-.2.2-.4 0Zm.6 1.1c0-.4.4-.5.2-.9l.5.1-.3.7c0 .2-.1.2-.4 0Zm.7-.8ZM25 22c-.5.3-.7 0-.6-.5.3 0 .5.3.6.6Zm.1-.8c.2.1.3.3.2.5-.3 0-.2-.3-.2-.5Z"/><path d="M24.6 20.9v-.2l.3-.2c-.1.1 0 .4-.3.4Zm.4-.4h-.1Zm-2-.1.2.2-.1.1h-.3c0-.2 0-.3.2-.3Z"/></g><g clip-path="url(#B)" fill="#47127f"><path d="M20.6 48c0 .1-.2.2-.3 0H20l-.4-.1v-.5c-.2-.2 0-.5.2-.5.1 0 .2-.1.1-.2h-.4l-.2-.3c-.1 0-.3 0-.4.2-.2 0-.2-.2-.2-.3-.2 0-.3 0-.4.2l-.2.1v.2q0 .2-.2.3h-.1c-.2.2-.3.2-.5 0-.1 0-.3.1-.4 0h-.2a.5.5 0 0 1-.1-.4l.1-.2.3.2v-.4h.4l.2-.5h-.2c-.1 0-.3 0-.3-.2s.2-.3.3-.3h.1l.5.4v-.2h.2v.2l.3.2.2-.3.2-.3h-.2c-.1 0-.3 0-.3-.2 0-.1-.2 0-.3-.2 0 .3-.3.3-.5.3h-.2c-.1 0-.2-.1-.1-.3 0-.1 0-.3.2-.4.1 0 .1-.1 0-.2l-.2-.2v.3l-.4.3c0-.3-.3-.3-.3-.5q-.2 0-.1.2c0 .2 0 .3-.3.2-.5 0-.6 0-.7-.3h-.2v.5H15l-.1.3c.3.1.3.1.4.4v.4h.2l.2.2.3-.3c.2 0 .1.3.2.5l-.2.4c-.2 0-.3 0-.4-.2l-.2-.3-.1-.2-.4.2s-.1.1 0 .2v.1l-.4-.5a.3.3 0 0 1 0-.4c-.5 0-.5 0-.5-.5h.3c0-.4 0-.4.4-.4l.1-.5-.3-.4.2-.2a.4.4 0 0 1-.2-.3c0-.1 0-.2.2-.2l.1-.1c.2-.2.2-.2.5-.2v-.2c-.3.1-.6.1-.8 0l-.2-.2-.3.1v-.3l.3-.1v.2l.3-.4h-.2c0 .1-.1 0-.2 0v-.2h.2l.2-.2h.3v.3l.3.1.3.1v.3h.3c0 .1.2 0 .3.2 0 .1.1.1.2 0l.3.1.3-.1c.2.1.2.2 0 .4h.3c0-.2.2-.2.3-.1.1 0 .2.1.1.2l.1.3c.1.1 0 .3 0 .4l.4.2c.2 0 .3 0 .4.2v.1l.4.2h.1l.1.2c.3.2.3.2.1.4v.3h.5v.5l-.2.1h.5l.2.4v.2l.2.1h.1l.2.1c.2.2.4 0 .6.2l-.2-.7V46l.2-.3-.2-.2c.1-.2.1-.3 0-.4v-.3l-.1-.2-.2-.2c.1-.1.1-.3.3-.3h.2a.7.7 0 0 1-.2-.6c.1 0 .2 0 .3-.2h.5l.2.3h.1c.2-.2.3-.2.4 0l.2.1c0-.2-.1-.5.1-.6v-.5c.2 0 .2-.1.1-.2.2-.1.3 0 .4 0l.3.1.2.5v.5h-.5v.3c0 .1 0 .2.2.2l-.2.1h-.1c0-.2 0-.1-.2 0v.2l-.2.2h.2c.3 0 .4.1.3.3v.2h.1v-.4c0-.2 0-.3.2-.4l.2-.2c.2.1.3.2.3.4v.2l-.3.3c0 .2 0 .2-.2.2h-.2v.2H23l.2-.2c-.3 0-.3-.2-.3-.5-.4 0-.5 0-.7-.3L22 44l-.3.2.2.2c0 .2-.2.1-.3.2l.2.7-.2.2.4.2c.1.2 0 .3 0 .4l.2.3v.3c.2.3.2.4 0 .6l-.2.3-.4-.3-.5.2c.1.1.2.3 0 .4l-.2-.2h-.5c0 .2.2 0 .3.2v.3Zm-3.8-5h-.2l-.2-.2-.1-.2-.2.1H16v.4l.3.4.4.1v.3c.1.2.2.2.3.2v-.4l-.2-.2V43Zm-1.3 1c0-.3.1-.3.3-.4h.2q-.3 0-.5-.3c0 .2-.3.3-.4.5l.4.2Zm-.8 1.4-.4-.1.2.1h.2Zm4.2.2q.2 0 .2-.2l-.2.2Zm8.9-3.8c.1.1.2.1.4 0v.6l-.2.1h-.2c0 .2 0 .5-.2.7H27c-.2 0-.3-.2-.2-.4v-.3c.1 0 .3.1.4 0-.2-.1-.3 0-.4-.2V42l-.1-.2h-.4l.2-.3c-.3 0-.5-.2-.5-.4-.1 0-.2 0-.2-.2h.3v-.2l.1-.1.6-.2c0-.2 0-.3-.2-.4h-.3l.1-.4h.5v-.3l-.1-.1-.2-.2c0-.2 0-.3-.3-.3l.1-.2h.5l.3.1-.1-.3h.3l.3-.1.3.4v-.2c0-.2.2-.2.4-.2 0 0 .2 0 .3.2v.2l.2.2-.2.1-.1-.2-.4.1c0 .3-.2.4-.3.6.1.1 0 .4.3.5v.4l-.2.1h-.6l.4.5h.7v.1l.2-.5c-.3-.2-.3-.2-.3-.4s.1-.2.3-.2l.2.1v.3h.2l.2.1c0 .2.2.3.4.2l.1.2-.2.1q0 .3-.4.6l-.4-.2h-.4l-.3.3-.3.2Zm-.6-1-.2-.2-.2.4-.1.5h.3c0-.3-.1-.6.2-.7Zm0-1c0 .2.1.2.3.2q0-.3.2-.5l-.1-.2-.3.1-.1.4Zm0-1c-.2.2 0 .3-.1.4h.3l-.3-.3Zm.4 3.5v.1h.1v-.1Z"/><path d="M26 36.9h.3v-.4l.1-.1h.2c.1.1.2 0 .2 0 0-.2.2-.2.3-.2l.1-.2h.3l.1.2c0 .1 0 .2-.2.2 0 .1-.3.2-.1.4H27v.2l.1.1v.1l.2.2-.1-.3V37c0-.3 0-.4.4-.4l.4.2v-.6c.2-.1.2-.3.4-.3H28l-.1.2-.3-.5h-.2c-.2 0-.3 0-.4.2-.1.1-.2 0-.3-.1l.3-.1v-.2c0-.1 0-.2-.2-.3V35l-.7-.1.1-.3h.4l.1-.1c0-.2-.2-.1-.3-.2v-.5l.3.1c.1.1.3.1.3.4h.3l.1-.3h.2l-.1.2.1.2-.2.2.2.3h.1v-.5h.1c.3-.2.4 0 .5.1v.3l-.2.1-.2.3h.5c.2 0 .3.2.3.4h.2v-.4l.1-.3c.2 0 .4 0 .5.3v.2c.2.1.2.3.2.4l-.1.3h-.1l-.4.3v.3l-.5-.1.2.5c.3-.3.5-.3.6 0 0 .1 0 .2-.2.2H29c-.1.2-.2 0-.3 0v.2l.2.2h-.2v.3c-.2-.2-.3-.2-.1-.4v-.2l-.4.2-.2-.2v-.2l-.3.1c0 .2-.1.1-.2.1v.2l.1-.1c.2 0 .3 0 .3.2v.5h-.2v-.1l-.1.1c-.3 0-.3-.2-.4-.3v-.1l-.3-.3h-.3c-.1 0-.1-.3-.3-.2l-.2-.5Zm1 0c-.2 0-.4-.3-.6 0l.1.2h.1l.3-.2ZM13 49.3l-.2-.2h.6c0 .1 0 .3-.2.3h-.3v.5h-.3v.5c.2.1.1.2.1.4l.3.1v.2l.2.1v.2c.4-.1.5 0 .6.3l-.4.2-.2.2c-.2 0-.3-.2-.4-.5l-.3-.2c-.1 0-.3.1-.3.3l-.2.3h-.2l-.3.4h-.1l-.2.1.2.1.3-.2.1-.2h.4v.3c-.1.2-.3 0-.4 0v.3c.2.1.3 0 .4 0v.2l.2.4.1.2q-.2.2-.4 0h-.5v-.1a.3.3 0 0 1 0-.4V53h-.3l-.2-.3-.5-.4c0 .2-.2.4-.4.5l-.2.2v.3h-.3V53l-.3-.1c-.1-.1 0-.2 0-.2l.4.1v.1-.3l-.1-.3h-.3c.1-.4.2-.6.1-.9q.4 0 .5-.2c.3 0 .5.2.4.5 0 .1 0 .2.2.3l.1-.4h.6l-.2-.3c-.2-.2-.1-.3 0-.4h.2c0-.2.3-.3.5-.4 0 0-.2-.2 0-.3h.2l-.4-.4h.1c.1-.1.1-.2.3-.2h.2l.3-.3-.2-.3h.2c.1-.1.2 0 .2 0l.1.3h.1Zm-.5 1.7.1-.3c-.3-.2-.3-.2-.6 0 .1 0 .3-.2.3 0v.3l.3.2.1-.1-.2-.1Zm-1.1-4.2h-.2c0-.1-.1-.2-.2-.1-.1 0-.3 0-.3-.2 0-.1.1-.2 0-.4.3-.1.5-.2.7 0h.1l.1.4c.2-.3.4-.3.6-.4h.1c.1-.3.2-.3.4-.1l.1-.1v-.1c-.2-.2-.3-.3-.2-.5v-.1c-.2-.2-.3-.1-.5-.1h-.4v.1l-.1.4c-.2.2-.4.2-.6 0h-.3l.5-.5-.1-.1h-.2l-.2-.1-.1-.1-.2-.2-.3-.2c0-.2 0-.2.2-.1l.2-.3-.3-.3.3-.2h.4l.2.3.1.2c.2.1.3.3.5.3l.2.1.1.2.2-.2c.2 0 .2.2.2.3h.5c.2 0 .1-.2 0-.3l-.3-.1h-.4a.5.5 0 0 1-.4-.5v-.4l.2-.1c.1-.1.2-.2.4 0 .1 0 .3 0 .3-.2l.3.2c0 .1 0 .2-.2.2l.2.7c.2 0 .5 0 .5.3l.4.1-.1.3c-.2 0-.2 0-.3-.2h-.2l.3.5c-.2 0-.2.2-.1.3v.4c.1.1 0 .2 0 .4-.2 0-.3-.1-.4-.3v.5l-.2.2-.3-.3h-.2l-.2.2h-.3c-.2 0-.4 0-.5.2Z"/><path d="M29.2 34.4l-.5-.1s-.2-.1-.1-.3c-.2-.1 0-.2 0-.3l-.4-.2-.2-.3V33c-.3 0-.4.2-.6.4l-.3-.1v.5h-.4c-.1 0-.2 0-.2-.2V33h.5l-.2-.2h.3v-.3c-.2-.2-.2-.3 0-.4l.3-.1c0-.1 0-.4.2-.4h.5v.5l.3.2-.1.4-.2.4c.4-.1.5 0 .7.3.3 0 .6-.1.7.3l.4-.5v-.1h.2l.2.2c0 .2-.2.4-.4.4h-.1c-.3 0-.4.1-.3.5h.5c.3.1.3.4.3.6l.2-.1v-.4c-.2-.3 0-.4.2-.5l.1-.2.3-.2c.1 0 .3.1.3.3 0 .1 0 .3-.2.4l.1.2v.3c0 .2 0 .3.2.4v.2c-.1 0-.3.1-.4 0 0 0-.2-.1-.2 0-.2 0-.3 0-.5.2h-.3c0-.2.2-.2.3-.2l-.1-.2-.4.4.2.3H30l-.2-.1V35c-.2-.1-.2-.3-.1-.5-.2 0-.4 0-.4-.2zm-8 5.1c.3 0 .3 0 .5.2-.2.1-.3 0-.4 0l-.4.1v.4l.2.3c0 .2-.3.2-.5.1 0 0 0 .2-.2.2l-.1.1H20c-.1 0-.3 0-.4-.2v-.3h.3v-.2h.2v-.3l.4.2.2-.2a1 1 0 0 0-.7-.3h.1c0-.2.2-.2 0-.4l.2-.1c-.1-.2-.2 0-.3 0v-.4l-.4-.3.2-.2-.2-.2c0-.2.2-.1.3-.2 0-.1 0-.2-.2-.2l-.3-.3h.1V37c.2 0 .3 0 .5.2l.2-.1.4-.1c.1 0 .2 0 .2.2l.1.1c.1.1.2.2.1.4l-.1.4h-.2c0 .2.1.2.2.3 0-.2.1-.3.3-.3V38h.3l.4.2v.7h-.4l-.5-.3v.5c-.2.2 0 .2.1.4zm8.5 1.7q0-.3.2-.3v-.4l.3-.3.1-.2.2.2h.2c-.2-.1-.1-.3-.2-.4v-.4c.3 0 .3.1.4.3v.3l.1.2c.2 0 .3.2.3.5h.3c.2.1.4.4.4.6-.2.2-.2.3 0 .4v.3c0 .2 0 .3-.2.4h-.1c-.2 0-.4 0-.5-.2v-.5c-.3-.2-.3-.4-.2-.7h-.3c0 .2-.1.2-.3.3l-.2-.2-.2-.1-.2.2.4.2-.1.3v.4h-.3c0 .1 0 .3-.2.3v.1c-.1.2-.3.3-.5.1l-.3-.1v-1c.2-.2.3 0 .5 0l.4-.3zm-4.4-2.6c.2-.2.3 0 .5 0 0 .1-.3.2-.2.4q-.3 0-.4.3c.2.3.2.4.1.6.1.4.3.4.5.3.1.3 0 .6-.2.8-.2 0-.1-.2-.1-.3h-.2v.3l-.1.3-.3.1s-.1-.1-.2 0l-.2-.1-.2-.3H24c-.1 0-.3-.2-.5-.1l-.3-.2c0-.1 0-.3.2-.3h.2c0-.2.2-.2.3-.3v-.2h.3V39l.2-.2.3-.1h.2v-.3h-.1V38l.2-.2.2.3v.5zm-.8 1.5c0 .3 0 .3-.3.4v.2l.5-.2V40h-.2zm.6-.8h-.3.3zM5.4 51c-.3 0-.3-.3-.2-.4l.4-.4.4.1v.7q-.3 0-.4.2h.2l.1.2c.2.1.2.1.3-.2h.3l-.2.3c0 .2-.2.2-.2.3l.3.2c.2-.1.4-.2.4-.4.2 0 .1.1.3.2 0 0 0-.2.2-.1v.3h.1c0 .1.1.2 0 .2l-.1.2c0 .1-.1.2-.3.2l-.1.2H7c.2-.2.4-.2.5 0l.3.3c-.1.1-.3.1-.3.3 0 .1.1.2.3.1l.1.2-.1.1h-.2v.4l-.7.3v-.2c0-.2 0-.3-.2-.3v-.2H7l.2-.2c-.3-.1-.4-.4-.4-.7v-.1c-.2-.1-.3-.2-.3-.4 0 0-.1-.2-.2-.1-.2 0-.2-.2-.2-.3l-.5.3L5 52v-.2c-.2-.2-.2-.4-.1-.5h.3c.1 0 .2 0 .2-.2zm.1-5.3c0-.2 0-.1.2-.2l-.1-.2c.4-.2.6-.2.7.2l-.1.1v.1c0 .2-.2.3-.3.3-.2 0-.3 0-.5.2-.1.2-.5.2-.6-.1l-.3.3-.3.1v.1c.3 0 .4.2.4.4v.3c.3 0 .5-.3.8-.3v.2q.3.2.2.5l.3.6.4.1c0 .2-.2.3-.3.3h-.4v-.3h-.1l-.3.2h-.3v-.3c.2 0 .3-.1.3-.3h.1l-.5-.4v.2l-.2-.2-.3-.3-.4-.2c0-.1.3-.2.1-.4-.1-.2-.2-.4 0-.6v-.5l-.2-.1v-.2h.5l.1.1-.1.2c.2 0 .2.1.1.3h.3l.3-.2c.1-.1.3-.1.4 0l.2.1-.1-.1zm17.9-8.5a7 7 0 0 1-.3-.3l-.3.1h-.3v-.3c.2-.1.3-.2.6-.1l.2-.4-.3.1c-.2 0-.4-.2-.5-.4l.3-.2-.2-.2c0-.2 0-.3.3-.3l.2.4v-.2c0-.1.1-.3.4-.3v-.3c-.1-.1 0-.2 0-.2l.3-.3V34c0-.2.2-.4.4-.3l.4.2-.2.6v.2l-.1.3v.7l-.1.2v.3c-.3-.1-.4-.4-.7-.3l.2.4.2.1c.1.1.2.2 0 .4v.4h-.4zm2.8 5.9l.5.2.1.3c.4 0 .4.1.4.5H27l-.1.1c.1.4 0 .6-.5.8.3 0 .4.2.5.4l-.2.6c0 .1 0 .2-.2.3h-.9v-.9c0-.2.2-.2.3-.2s.3-.1.2-.3h.3v-.1l-.2-.2.3-.4c0-.1-.3-.2-.1-.3 0 0 .3 0 .4-.2h-.5c-.2.2-.3.2-.5 0l-.2.4H25c-.1-.2-.3-.2-.2-.5h.1l.1-.1c.1 0 .2.2.3.1v-.4c.2 0 .3 0 .4-.2h.2c.2 0 .3 0 .3.2zm-18.7 4c.2 0 .3.1.3.3v.2H8v-.2c0-.2.2-.3.3-.2l.3.1v.5l.2-.4v-.3c.1 0 .3 0 .5.2l-.2.2.2.3v.3h-.4v.2h.3v.5c0 .1 0 .2-.2.2l-.2-.2-.1.2a.4.4 0 0 0-.5 0l-.3-.1.2-.4-.4.2-.3-.2-.2-.6v-.5l.3-.3z"/><path d="m23.9 36.9.6-.1h.1v-.2c-.2-.1-.3-.2-.2-.3v-.2l.2.1.2-.3h-.2l.2-.4c.2-.2.4-.1.6 0l.1-.2h.2c.3-.1.4 0 .5.1l.3.1c0 .2-.2.3-.1.5l-.2-.1H26v.2l-.1-.2h-.4l.3.4.2-.1v.3h-.2s-.2 0-.2.2c-.2.2-.3.3-.7.2v.3l.2.3-.2.1-.3.1c-.2 0-.3 0-.3-.2V37h-.1q-.3 0-.3-.2Zm-5.9 14-.2-.2c-.2-.2-.4-.2-.5-.2V50c-.1 0-.3 0-.4-.2 0-.1-.1-.2 0-.4l-.3-.4c-.2.1-.3 0-.4-.2 0 0 0-.3.2-.3h.2l.2.3h.4c.1.1.1.1.2 0 .1-.2.4-.3.5-.1v.3l-.2.2c0 .1.2.2 0 .4.3 0 .4 0 .5.2l.1.1.2.2v.4c-.1.2-.2.4-.5.4Zm-1.4-12.7.2.2h.6v.2l.3.6c.2.1.2.2.2.4 0 .1-.2.1-.4 0l-.3.2v.1l-.2.1c-.1 0-.3 0-.3-.2l-.2-.3c-.1.2-.2.4-.5.4l-.2-.1h-.2c-.2-.1-.3-.3-.2-.4v-.1c.3-.1.4-.3.5-.5l.2-.1h.1l.2.1.1.1c.3-.2.2-.4 0-.7Zm-1.6 1h-.1q-.3-.1-.4.2c-.2 0-.2-.3-.3-.2l-.2.3-.2.4c-.1-.2-.3-.3-.3-.5h-.3c-.3 0-.4-.1-.5-.4 0 0-.1-.1 0-.2v-.3l.4-.2h.2l.3.3.1-.3h.3c.2-.4.5-.3.6 0 .1.2.3.3.3.5v.2c.1 0 .1.1 0 .2Zm-1.1-.3-.2-.2v.4l.2-.2ZM15 53.1l.2-.3c.1 0 .2-.2 0-.4l.1-.5s.2-.1.1-.3c.1-.2.1-.3 0-.4l.2-.2c.2 0 .3 0 .3.2v.6l.2.2c.1 0 .2 0 0 .2v.3l.2.2.1.2c.2 0 .2.2.2.3h-.3l-.1.2-.1.2s-.2 0-.2.2c-.4 0-.6-.2-.7-.5l-.1-.2Zm-6.7-8-.5-.7.2-.4c.2 0 .2-.2.3-.3l.2-.2.4.2h.4c.2 0 .3 0 .2.2h.2c.2-.1.3 0 .3.2v.2c0 .3 0 .4-.3.4-.2-.1-.3-.3-.2-.4H9c0 .4-.3.6-.6.7v.6h-.3c-.2-.2-.1-.3 0-.5Zm.2 4.4c.2.3.2.3.6.2h.2c0-.2 0-.2-.2-.3v-.3l.3-.1.2.1c.1.2.2.4.1.7h-.3l.1.2h.1c.2.1.2.2.2.4l-.1.3-.4-.1v-.4L9 50v.1c-.2.2-.4 0-.7.1-.1.2.2.4 0 .6l-.5.2-.2-.3s-.3 0-.3-.2 0-.4.3-.5l.6.2-.1-.4c-.1-.2 0-.4.3-.4h.1Zm12.3-7.7.2.4c0 .1.2.3 0 .4l.4.2-.1.1c-.1-.1-.2 0-.4 0v.4h-.3l.1-.3v-.1l-.3.1v.2h-.2V43c-.2 0-.3-.2-.3-.4l-.2-.1c0-.2.1-.3.3-.4l-.1-.4c0-.1 0-.3-.2-.3 0-.1.1-.2.3-.2h.1l.3-.1h.1c.1 0 .3.1.3.3h-.2l.2.2Zm-8.4-2-.2.2c.3.1.5.4.7.6 0 0 .2 0 .3.2l-.1.2c0 .1.1.2-.1.3h-.5V41l-.4.1h-.5l.2-.4h-.4c-.2 0 0-.2 0-.3l.1-.2.4.1v-.1l-.2-.7c-.2 0-.2.2-.4.1l-.2-.3c.3-.2.3-.1.5 0h.4c.2.1.4.3.4.5ZM33.1 38v.2c-.2 0-.2 0-.1.2h.2V38c0-.3.4-.4.6-.3l.2.1c.3 0 .4.3.3.5v.4h.4l.2.3c-.4.2-.5.2-.7-.2H34l-.3-.1-.1.5c-.2.1-.4.1-.8 0v-.5l-.1-.5c0-.2 0-.2.2-.2h.2Zm-9.7-.8v.3h.1c0 .3.1.3.3.3h.2v.2c.4.2.5.3.3.7H24l-.3.2-.3-.3v-.3c.2 0 .4 0 .4-.2-.1 0-.3 0-.4.2-.2.2-.3.2-.5.2a.5.5 0 0 1-.4-.4v-.4c-.2-.2 0-.4.1-.5.3 0 .5-.1.8 0Zm7.9 6.8-.2.4c0 .1-.3.2-.4 0h-.2l-.3-.3h.2V44H30c0-.2.2-.1.4-.1v-.3h.4v-.1c0-.2 0-.5.2-.6l.1-.2c0-.2.1-.2.3-.2v.1l.2.1.4.2c0 .1.2.2 0 .3v.2c0 .3-.3.4-.6.3h-.3v.4Zm-1.9-6.8c.1-.1.2-.3.3-.2l.1.6v.1c.2.1.2.3.1.4l.4.3.3-.2c0 .1.1.3.3.2l.1-.2.1-.3-.1-.1.2-.3c.1.3.1.7.3 1l-.5.2s-.2.2-.5.2l-.2.4c-.2-.2-.2-.4-.1-.5h.2l-.2-.2-.2.2c0 .1 0 .1-.2 0a7 7 0 0 1-.3 0v-.2l-.2-.1.2-.4-.1-.5v-.3c.1 0 0-.1 0-.2Zm-7.6 3.4h.2l.5-.2.1.3.1.1c.3.2.3.2.2.5 0 0 .2.1.2.3 0 .1 0 .2-.2.3h-.3l-.2-.1c-.2 0-.4 0-.5.3 0 .2-.3.2-.4 0v-.3l.1-.1v-1.1Zm2.8-8.5h-.2c.1 0 .2-.1.2-.3.1-.2.1-.5.4-.6h.6l.2.1c.2.2.3.4 0 .7v.3c-.1.1 0 .2 0 .1h.3c0 .2 0 .4-.3.5v-.1c-.1-.1-.2-.2-.3-.1h-.3c-.2 0-.2 0-.3-.2l-.3-.4ZM14.4 48.8v.2l-.3.3c-.2-.2-.2-.2-.1-.4v-.2l-.1.1c-.2 0-.3.1-.4 0h-.9V48h.4l.3-.1-.1-.4c0-.2.3-.1.4-.1h.1c0 .3.2.3.3.4v.5c.2-.1.4-.2.5 0l-.2.3v.1Zm11.7 2c-.4 0-.4 0-.4-.6-.2 0-.4 0-.5-.2v-.4c0-.2.3-.3.5-.2l.3.1h.1c.3-.1.5 0 .7.2v.2l.1.2v.2l-.4.2h-.2l-.2.3Zm-10.6-3.4.1-.4h.2v.1c0 .2 0 .4-.2.5l.2.3h.2v.1l-.3.2-.2.1.2.4-.2.2.3.4v.1c-.2.2-.3.2-.5 0l-.2.2c0 .1-.1.1-.2 0v-.2l.2-.2.2-.2c-.3-.2-.3-.3-.2-.5l-.3-.7h.3c0-.2.1-.4.4-.3Zm17.7-5.1c0-.3 0-.5.2-.7 0-.2-.2-.3 0-.5l-.2-.2c0-.1 0-.2.2-.2h.3l.3-.1h.2c.1.3.2.5.1.7v.2c-.2 0-.3.2-.4.3.1.2 0 .5-.2.7-.1-.1-.3-.3-.5-.2ZM1.4 49.2l-.3.3v.2c-.1.1-.3.2-.2.4v.2c-.1 0-.2-.1-.2 0H.5V50c.1 0 .2 0 .3-.2H.5c0 .1 0 .2-.2.2l-.1-.2H0v-.3l-.2-.1-.2-.2.3-.2.3.2s0-.2.2-.3c0 0 .1-.1.2 0 .2 0 .3-.1.4 0l.3.3ZM26.9 47l.2.4.2.1.2.2v.2l-.2.2c-.1.2-.4.2-.6 0 0 0 0-.1-.2 0v-.4h-.3c0-.2 0-.4.3-.7v-.6c.2 0 .3.1.3.2v.4Zm-14.7-4.4c-.2-.1 0-.3 0-.4H12v.2l-.2.2-.2-.1c0-.2-.3-.3-.3-.5l.1-.2c0-.2.2-.2.3-.2h.3c.2-.1.4 0 .5.1l-.1.3.3-.1v-.3h.2v.6c0 .3-.3.4-.5.4h-.2Zm11.3 5.5c-.3 0-.4 0-.6-.2l-.2-.1c-.3-.2-.4-.4-.3-.7v-.3l.1-.2.2.1.2.1.4.3.1.2.2.3v.3l-.1.2Zm7.3-16.8c-.2 0-.3-.2-.3-.3l-.3.1h-.1l-.1-.3v-.3h.3l.2-.2c.1-.2.3-.3.5-.2h.2c0 .2 0 .3.2.4v.3l-.5.2-.1.3Zm3.6 4.2v-.6c.2 0 .3-.1.3-.2.1-.2.2-.2.3-.2.2 0 .3.2.3.4 0 .1.1.3 0 .4 0 .1-.3-.2-.4 0l.1.2v.4h-.4c-.1 0-.2-.1-.4 0v-.1c-.2 0-.2-.2-.2-.3h.4Zm-12.7 2.1-.1-.3v-.1c-.2-.2-.2-.3-.1-.6l-.1-.1c-.1 0-.2-.1-.1-.3V36c0-.1.2-.2.3 0 .2 0 .3.1.4.3 0 0-.2 0-.1.2v.2l.4.4-.1.5c-.2 0-.3.2-.5.1Zm-3.8 9.9.3-.4.2-.4.4.4v.8l-.1.3-.2.1-.2.2c-.2-.1-.3-.2-.2-.4 0-.2 0-.4-.2-.6ZM9.6 56c-.1.2-.4.4-.7.3h-.1l-.4-.4c-.1-.4 0-.6.4-.7h.3c0-.1.2-.1.2 0 0 .2 0 .3.2.4l.1.3Zm-7-4c-.2.1-.3-.2-.5-.1l.1-.4-.5-.7c0-.2.2-.3 0-.5V50l.3.1.1.5h.1v-.3c.2-.2.4 0 .5.1l-.1.2c-.2 0-.2 0-.2.2v.2c.2.2.2.3 0 .5l.1.4c.1 0 .2.1.1.3Zm17-13.2v.2l.4.3c0 .2-.1.3-.3.3h-.3l-.2-.1c-.2-.2-.3-.1-.5-.2l-.2-.1v-.1c-.2-.1-.2-.2-.1-.3l.2-.3h.2l.6.3h.2Zm8.7 4.2v.2c0 .1.1.2.3.2h.2c.3.1.4.5.2.7l-.1.1s0 .2-.2.2h-.3a.4.4 0 0 1-.4-.4l.1-.4v-.3c0-.2 0-.2.2-.3Zm-10.9-.9h-.1c-.1.1-.1.2-.2 0-.1.1-.2.2-.3 0a.7.7 0 0 1-.1-.7l-.2-.2V41c0-.2.2-.2.3-.2l.3.3v.3h-.3l.3.2.2.1.2-.2.3.3-.4.4Zm-3.5-4.4c-.1 0-.2 0-.2.2l-.4.2c-.1 0-.2 0-.3-.2h-.1c-.1-.1-.2-.1-.2-.3v-.4l.2-.2h.2l.6.1c.1.1.2.2 0 .3 0 .2 0 .2.2.3Zm10.5 7v.3l.1.3h.4c.2.2.2.3 0 .6l-.2.2-.1.2-.4-.2-.2-.5.1-.3c0-.1-.1-.2 0-.4l.2-.2ZM6.7 42h-.4c-.1 0-.2-.1-.4 0h-.1v-.7c-.2-.2-.2-.3 0-.5l.3-.1c0 .2.2.2.3.3h.3v.3l.1.2-.1.4Zm25.8-5c-.2-.2-.3-.3-.3-.5l.2-.1c.2 0 .3-.2.2-.4l.2-.2c.2.2.3.2.5.1h.3l.1.3-.2.2h-.3v.2l-.1.3h-.6ZM18 40h.5c.2.1.2.3.2.5 0 0-.1.2 0 .4 0 .2-.1.2-.4.2v-.2h-.5l-.2.1-.2.2c-.1-.2 0-.3.3-.4 0-.2.2-.4 0-.6l.3-.3Zm13.7 4.5.4-.1.2-.3.1.2-.1.2s.2.2.1.3l.1.2v.3h-.7l-.3-.1-.3-.2.3-.3c0-.2.2 0 .2-.3Zm-20.4 4.7h-.5v.3l-.4.2c-.1 0-.2 0-.2-.2 0-.1-.2-.3 0-.4L10 49v-.3c.3-.2.5-.2.7 0v.2c.2 0 .5 0 .5.3ZM37.6 34c0 .4-.1.6-.5.7l-.3-.1c-.2 0-.3-.3-.2-.6l.1-.1.2-.3h.2l.5.4Zm-27 4.8.4.4h-.3c-.2.2-.3.1-.5 0v-.3l.2-.1.2-.4s0-.2.2-.2l.5-.2.2.2c0 .3 0 .4-.2.4l-.6.1Zm1 8.9h-.3v.4c-.1.2-.3 0-.5 0h-.5v-.4c-.1 0-.1-.1 0-.2l.4.2.4-.5c.2.2.3 0 .5.1.1.1 0 .3 0 .4Zm8.6-4.2v.2c.2 0 .1.2.1.3v.3c-.2 0-.4.3-.6.4l-.1.3-.2-.3.1-.2.1-.4v-.3c0-.1.1-.2.3-.2 0 0 .2-.2.3-.1Zm4.8-1.9h.3c.1-.2.3-.2.5 0l.3.1v.4h-.6l-.3.1-.1.2c-.2-.2-.4-.3-.4-.6 0-.1.3 0 .4-.2ZM4.5 48.5l-.1.3v.3a2 2 0 0 0-.9 0c-.1-.5 0-.8.3-1 .1.3.4.2.7.4Zm-1.9 1.2-.2.1c-.2.1-.4 0-.4-.3s.1-.4.5-.3c0-.4.1-.4.5-.5.2 0 .3.3.3.5l-.1.2c-.4-.1-.6 0-.6.3Zm3.9 4.5H5.4l.1-.2c.2 0 .2-.2.3-.2 0-.2-.4-.2-.3-.4 0-.2.2-.3.3-.4H6l.3.4-.3.3v.3c.2.1.3-.2.5 0 0 0 .1 0 0 .2Zm6.7-11.3c.2 0 .4 0 .5-.2h.2v.2c.1.2.2.3.1.6v.3h-.2s0-.1-.1 0c-.2 0-.4 0-.5-.2 0-.2-.2-.4 0-.6v-.1Zm1.6-4.9c-.1-.2 0-.5-.2-.6.1-.3.1-.3.3-.2h.2c.3 0 .4 0 .4.2v.3l-.1.5h-.2a4 4 0 0 1-.4-.2Zm8.2 7.8v.9c-.2 0-.3 0-.3-.3h-.2c0-.2-.2-.4 0-.7 0-.3.2-.4.4-.2h.2l-.2.3ZM20.6 48l.3-.1h.3v.4l-.1.2c.1.1.2.3.4.3 0 .4-.2.5-.5.5 0-.2 0-.3-.2-.4v-.2l.1-.2a.7.7 0 0 1-.3-.5Zm4.6-3.6.3-.2.2.3h.3l-.1.3c0 .1-.1.2-.3.2h-.2l-.2-.1-.1-.2q-.3 0-.5-.2l.2-.2c0-.1 0-.2.2-.2 0 0 .2 0 .2.2ZM5 55v-.1c.3 0 .5 0 .6.3H6l.2.1v.3c-.2.2-.3.2-.5 0-.3 0-.5 0-.6-.3v-.1c-.2 0-.3-.1-.3-.2.1-.2.2 0 .3 0Zm24.1-22.5c-.2 0-.3 0-.4-.3-.1-.1.1-.2.2-.3l-.1-.2.1-.2c0-.2-.2-.3-.1-.4 0-.2.2-.1.3-.1.1 0 .2.2.1.3v.5c.2.3 0 .5-.1.7ZM24 42.4c-.3 0-.3-.1-.4-.5h-.2v-.3h.2v-.3h.2l.2.1.1.1.2.2-.1.5-.2.2ZM6.3 49.7l.2-.3c.4.5.4.6.2 1l.2-.1.2.2c0 .2 0 .3-.2.4l-.4-.1-.2-.2.3-.2h-.1c-.2 0-.3-.1-.2-.2.2-.2.1-.3 0-.5Zm15.3 1.2-.1-.3.3-.2v.7c.2 0 .2-.1.3-.2l.2.2c0 .2-.2.2-.4 0v.3c0 .1-.1.2-.3.2-.1 0-.3 0-.3-.2-.1-.2 0-.3.1-.4l.2-.1Zm4-3.9-.3.4v.4l-.4-.1c-.3 0-.3-.3-.3-.5l.1-.1.3-.2c0-.2 0-.2.2-.2.1 0 .3 0 .4.2ZM13 47l-.4.3-.1.1c0 .2-.1.3-.3.2-.1 0-.2 0-.2-.3 0-.1 0-.3-.2-.4h.3l.1-.1c.2-.2.3-.1.4 0 .1 0 .3 0 .3.3Zm-3.2-8.3H9c-.2 0-.3-.2-.2-.5V38h.7v.3l.2.4Zm-2.4 2.6-.3-.5v-.2c0-.2 0-.4.2-.5h.2l.1.1c.2.1.2.3.2.5s-.2.5-.4.6Zm-5.7 4.2h-.1l.2-.2c0-.1 0-.2-.2-.3a.5.5 0 0 1 0-.8H2l.2.5v.1c-.2.2-.3.3-.3.5v.1l-.2.2Zm6-9.8c.3-.2.5-.1.7 0l.1.1c0 .2 0 .4.3.5-.3 0-.5.2-.7.1l-.3-.2v-.5Zm17.7-.9c-.1 0-.2 0-.3.2 0 0-.1.2-.3.2l-.3-.3v-.2c.1-.1.2-.2.1-.4l.1-.1h.4l.2.2.1.4ZM14.6 55.3v.7l-.4.2c-.2 0-.2 0-.3-.2v-.2c-.2-.2-.1-.4.1-.5h.6Zm-.9-8.3-.5-.1c0-.4 0-.5.4-.5 0-.1.2-.3.4-.3s.2.3.3.4l-.2.2c-.1 0-.3 0-.4.2Zm-4-4s0 .1-.2 0l-.3.1c-.2.2-.3.2-.4 0l.1-.1v-.1c-.2 0-.3-.3-.5-.4v-.3l.4-.1s.2 0 .3.2l-.2.2.1.3.2.1h.5Zm-.3 4H9v-.2l.2-.4c0-.2.2-.1.4-.1s.3.1.3.3v.2l-.2.3c-.2.1-.2-.2-.4-.2Zm21-16.8h-.6l-.2-.4c0-.3.1-.4.4-.4.1 0 .3 0 .4.2v.6ZM28 31c-.4-.5-.4-.6 0-1 .2.2.3.5.2.8v.2l.1.2v.2h-.4v-.1l.1-.2Zm1 13.7.4-.4.3-.2v.5h.5c0 .2 0 .4-.2.5h-.5v-.3h-.4Zm4-11.4.2.2s0 .1.2 0l.2.2-.1.1c-.2.1-.3.3-.5.2h-.2c-.1 0-.3 0-.4-.3l.3-.2c.2 0 .1-.1.2-.2ZM8.5 52.7c-.1.2-.3.2-.5.1-.2 0-.3-.1-.2-.3V52h.4c.2.2.3.4.3.7Zm14.7-1.4c0 .2.2.3.3.4l-.1.5c-.2.1-.2.1-.4 0-.3-.2-.3-.5-.1-.7l.3-.2Zm-9.7-16-.2.3.4.3c-.2.2-.2.2-.1.4h-.2l-.2-.1v-.5.1c-.3 0-.4-.1-.4-.3 0-.1.1-.3.3-.3h.3Z"/><path d="M15.7 41.4h.5l.4.2c-.1.2 0 .5-.2.6H16v-.4l-.3-.4Zm-8.3 1.9v-.1c-.1 0 0-.2 0-.2h.1l.1.1h.2v.3h.3c0 .2 0 .3-.2.3h-.2l.2.2h-.5c-.2-.2 0-.4 0-.6Zm-4.9 1.3h.7l.2.3-.5.1.1.5v.2h-.3c-.1-.2-.1-.3 0-.4 0-.3 0-.5-.2-.7ZM.4 42.9l-.4-.2-.2-.2v-.3l.3-.2h.1c.2 0 .3 0 .3.2v.7Zm4.2 10.4H5c0 .3 0 .3-.3.2h-.1c-.1 0-.2 0-.2-.2l-.2-.3v-.2h-.3v-.2h.3l.6.2c0 .2-.2.4 0 .5ZM31.5 38h.2c.2.1.3.2.3.4h.1l.2-.1c.3.2.3.3 0 .6v-.1l-.2-.1h-.3q-.3-.2-.3-.7Zm-7.9 13.2c-.3 0-.5-.1-.6-.5h-.2v-.2h.3l-.1-.3c0-.1 0-.1.1 0l.3.3c.3.2.3.4.2.7ZM33 35.5c-.1-.2-.3-.3-.2-.5h.4l.2-.2c.2.1.2.3.3.5l-.2.3c-.1 0-.3-.2-.5 0ZM18.3 51.8l.4-.1c.1 0 .3 0 .4.2 0 .2 0 .3-.2.4-.2.1-.3.1-.5-.1a.4.4 0 0 1 0-.4Zm0-10.2h.1l.2.1h.2l.1.3-.2.2-.4.1c-.3-.2-.3-.5 0-.7ZM33 30c-.3 0-.2.4-.3.5-.2 0-.3-.2-.5-.3.2-.2 0-.3 0-.5h.5l.3.3ZM.8 48.1v.5h-.9c0-.2.2-.4.5-.4h.4Zm18.5-4.9.4.3-.4.5h-.2c-.3 0-.3-.3-.2-.5l.4-.3Zm15.3-9.5v-.3c0-.1.1-.2.3-.2.2 0 .4.1.5.3v.2c-.2.2-.4.2-.6.1l-.2-.1Zm-11.5 5.6c-.1 0-.2 0-.2-.2h-.3v-.3l.3-.2h.2l.2.4v.1l-.2.2Zm-5.5 13h-.2c0 .2-.1.3-.2.2-.1 0-.2 0-.3-.2V52l.2-.3.4.2v.4Zm-1.2-15.2.4-.2.4.2v.4H17c-.1.2-.4.2-.4 0l-.2-.4Zm-1.4 16v.2c-.2 0-.4 0-.5-.2v-.5l-.3-.1.1-.2.3.2.2.1.2.3v.2ZM31.9 39v.5l-.3.1h-.3v-.2c-.2-.2-.1-.3 0-.5.2 0 .3.3.6.2ZM27 29.8c.2.1.3 0 .3.2 0 0 .1.1 0 .2h-.2L27 30l-.1-.2v-.3c0-.2 0-.2.2-.3l.2.1v.3l-.1.1Zm-6.6 20.9H20v-.3l-.1-.4c.2-.1.3-.1.4.1 0 .2.1.2.2.3v.3Zm5.4-17c0 .1.1.2 0 .4v.2h-.3c-.3-.1-.3-.3-.2-.5v-.2l.5.1Zm-19 8.7c.2 0 .4-.2.6 0l-.4.4.1.2c-.2.2-.2.2-.4 0v.2h-.1l.1-.4c.1 0 .1-.2 0-.4Zm23.9-15.8c.1-.2.4-.2.4-.5.2 0 .3.1.3.2v.3l-.1.1H31l-.2.1-.2-.2ZM0 51.8l.4-.1c.1 0 .2 0 .2.2l.2.3-.2.1H.3A.3.3 0 0 1 0 52v-.2Zm21.9-3.6-.1-.4.4-.2c.1 0 .2 0 .2.2v.3c0 .1 0 .2-.2.2h-.4ZM3.1 54.6l-.2-.1v-.3s-.2 0-.2-.2H3v-.2.2q0 .2.3.3v.5l-.1.1h-.1v-.3Zm5.4-1.9c.2 0 .3-.1.4 0 0 .2.2.3 0 .5l.1.2c-.2.2-.4.2-.7 0l.4-.2-.2-.5Zm.7-10.8c.1 0 .2-.2.4-.1.2 0 .2.2.2.4h.2l-.1.1h-.5c-.2-.1-.3-.2-.2-.4ZM34.3 32a9 9 0 0 1-.5.1c-.1 0-.3 0-.3-.3l.3-.2v-.2c.4 0 .5.2.5.5Zm-23 17.2c.1-.1.2-.3.4-.3l.4.3-.1.3h-.5l-.2-.3Zm7.7.5c-.3 0-.3-.3-.4-.5l.3-.2c0-.2.2-.1.3-.1l.1-.2h.1c0 .3 0 .5-.3.5l-.1.5ZM4.5 56.9v.2c0 .2 0 .3-.2.4h-.2c-.1-.2-.3-.4-.1-.6h.5Zm28.4-19.2-.3-.2v-.1h.2c0-.2.2-.3.4-.2.2 0 .2.2.3.2-.1.2-.3.3-.6.3Zm-6.3-.2.1.3-.6.2H26c0-.2.1-.3 0-.4 0-.1.1-.2.3-.2l.1.1h.3Zm6.4-7.3.6-.1c.3.2.3.3 0 .6-.1 0-.2-.2-.3-.1l-.2-.1v-.3Zm-6.6 21.6h-.3l-.2-.5V51l.4.2.1.2c0 .1.1.2 0 .4ZM24 43.3h.4l.1.2c.1.1.1.3 0 .4h-.3c-.1 0-.2-.2-.1-.3v-.3ZM.5 53.5h.3v-.3c.2 0 .3-.2.4-.3v.3l-.1.2v.1l-.1.2c-.3 0-.3 0-.4-.2Zm5.3-5.8h.5l.1.3s.2.1.2 0c.2 0 .2.1.3.2-.1.2-.4 0-.5.1l-.1-.2c-.3 0-.4 0-.5-.4Zm5.2-6.2-.2-.2V41c.1-.1.2-.2.3 0l.2.1-.1.4H11Zm18.4-13.3-.4.2c-.2-.2-.3-.4-.2-.5l.4-.2c.1 0 .2.2.2.5Zm2.7 6c.2.2.2.3 0 .5l-.1.2-.3-.1v-.4h.1c.2 0 .2-.1.3-.2ZM26.6 31c-.2 0-.4-.1-.4-.3-.2 0-.3-.1-.4-.3l.3-.1.3.3c.1 0 .3 0 .3.3l-.1.2ZM9.1 37.8h-.3c-.2 0-.2 0-.3-.2l.1-.2h.1c.2-.2.4 0 .4.1v.3Zm.6 7.2-.1.2c-.1.1-.2.1-.4 0-.2 0-.2-.1-.1-.3.1-.1.3-.2.4-.1.2 0 .2.1.2.3Zm4.9-4.7-.1.4-.3.1-.2-.1v-.4h.6Zm4.2 2.2.5-.1v.4l-.2.2c0 .1-.1.1-.2 0v-.5Zm14.7-16h.5v.5h-.4v-.5Zm-2.9 9.3.2.2.1.2-.6.2s0-.2-.2-.3l.2-.3h.3ZM10.7 35c.3-.2.4-.2.5 0v.5h-.3l-.2-.5ZM4.9 54.4l-.1-.1c-.2-.1-.2-.2-.2-.3.1-.2.2-.3.4-.2h.3l-.1.1v.2l-.3.3Zm8.4-12.8c.4 0 .4 0 .5.4-.3.3-.4.2-.7 0l.2-.4Zm11 6.2h.3l.2.1v.3c-.2.2-.4.1-.5 0-.1-.2 0-.3 0-.4ZM9.5 48c-.1-.2 0-.3.2-.5l.4.2v.4c-.2 0-.4-.2-.6 0Zm-3.6-4.2q-.2-.1-.2-.4l.2-.3c.3 0 .3 0 .4.4l-.4.3Zm17.8 9.7-.1-.5h.3l.3.3c-.1.2-.2.3-.5.2Zm-17.3-7-.3-.1.2-.2.4-.2h.2v.2l-.2.2-.3.1ZM23.8 49h-.3c-.1 0-.2 0-.3-.2v-.3h.2c.1 0 .4.1.4.3v.2ZM3.1 52.3l.1-.4s.1-.2.3-.1v.2c.2.1.1.3 0 .4l-.4-.2ZM3 40.1c.3-.1.4 0 .5.3l.2.2c-.4 0-.7 0-.8-.5ZM.3 56.3h.3c.3 0 .5 0 .4.3v.1H.5l-.1-.2-.1-.2ZM9.2 39l.2.4-.3.2c-.2 0-.3-.2-.2-.4 0-.1 0-.2.3-.2Zm9.4-1.7h-.2l-.3-.1c0-.2 0-.4.2-.4h.2l.1.5Zm-.4-2.3c-.3.3-.4.2-.7-.2h.2c.3-.2.4 0 .5.2Zm-1.7 10.2v.3c-.1.1-.3.2-.4.1l-.2-.3c0-.2.1-.2.3-.2l.3.1Zm13.5-2 .2.1-.4.1-.2-.2V43c.2-.2.4-.2.6 0l-.1.2Zm-4.6-.9.1.2v.1c.1.3 0 .4-.2.4h-.1v-.5l.3-.3ZM4 52c-.1-.2-.3-.3-.2-.4.1-.1.2-.1.2 0l.1.3h.2v.3H4s-.1 0 0-.1v-.2Zm19-19.6-.2-.2V32l.2-.1h.2c.2.2.2.3 0 .5h-.3Zm12-2.8h.5v.3c0 .1-.2.2-.3.1H35v-.4ZM7.1 46.2h.2c.3.2.3.3 0 .6-.2 0-.2-.3-.4-.4l.2-.2Zm18.4-16.5-.2-.4c.1-.2.2-.3.5-.4v.4c0 .2-.2.2-.3.4ZM10.2 45.2v.2l.1.3c-.1 0-.3.1-.4 0l-.2-.2c0-.2.1-.3.5-.2Zm-1.1-4.7L9 41h-.3l-.1-.1.1-.4c.2-.1.2-.1.4 0Zm5.5 10.3v.4c-.2.2-.2.2-.5 0v-.3h.5Zm17.2-15.1.1-.2.2-.2.3.5h-.2c0 .1 0 .2-.2.1 0 0-.2 0-.2-.2Zm-16.3 3.5-.2-.2c0-.2 0-.3.2-.4.1 0 .3 0 .3.2 0 0 0 .2-.2.3h-.1ZM4 53.1c-.2.1-.3.2-.5.1-.1 0-.2-.2-.1-.3l.2-.2c.1 0 .2.1.3.4Z"/><path d="M31.8 35.7h-.2c.1.2.2.3.1.5h.1v.2l-.3-.1V36l-.2-.1c0-.3 0-.3.3-.2h.2Zm.8 4.3c-.1 0-.3.2-.4 0 .1-.2.2-.3.4-.3l.3.1v.3h-.2V40ZM31 32.4c0 .3-.2.3-.5.1v-.3c.3 0 .3 0 .5.2Zm1 4.6h-.2c0 .1-.1.1-.1 0h-.3c.1-.3.2-.4.5-.3l.1.3ZM13.7 47l.3-.2c.1 0 .2 0 .2.2s-.3.2-.4.3l-.2-.1.1-.2ZM.2 52.8h-.4c0-.1 0-.2-.2-.3l.4-.2.2.5Zm2.6-.1c.2-.2.2-.2.5.2l-.5.1-.1-.1s.1 0 0-.2ZM22.4 34v.2l-.3.1s-.2 0-.2-.2V34h.3l.2.1Zm1.6 8.4.3.3v.3H24c-.2-.2-.2-.4 0-.6ZM6.6 47.9l.1-.5v-.2H7v.4c0 .3 0 .3-.3.3Zm-5.7 9c.2 0 .4-.3.6 0l-.2.3c-.3 0-.4 0-.4-.3Zm20.9-14.4c.3 0 .3.2.3.3l-.3.3c-.1-.2-.1-.2 0-.4v-.2Zm6.3-12.9v-.2c0-.2 0-.3.2-.3l.2.3c0 .1 0 .2-.2.2h-.1Zm2.9 6.9.2-.2s.1 0 0 .1l.1.4c-.2.2-.3 0-.5 0v-.4l.2.1Zm-8 13-.3-.1.1-.3c.2 0 .3 0 .4.2 0 0 0 .2-.2.2ZM6.4 44.1c.1.2 0 .3 0 .4h-.5c0-.3.3-.4.5-.4Zm8.2 5.3c0 .2.1.4-.1.4h-.3v-.2c.1 0 .2-.3.4-.2ZM26.3 39v.3c-.2.2-.3.2-.5-.1.1-.2.3-.3.5-.2ZM5.6 47.1c0-.2 0-.4.2-.4l.3.1c-.2 0-.2.4-.5.3Zm19.3-13.8-.4.3c-.2-.2-.2-.3 0-.4 0-.1.2-.1.4 0Zm-11.2 3.2c.2-.4.2-.4.6-.2v.3H14l-.3-.1Zm19.4-4.3-.1.3c-.3 0-.3-.3-.3-.5.2-.1.3 0 .5.2ZM1.9 41.8l.2.1-.1.3-.3-.1c0-.2 0-.3.2-.3Zm6.6 12.8c-.2.3-.3.3-.6 0 .3-.3.4-.3.6 0Zm19.9-14.7c-.2 0-.3 0-.3-.2 0-.1 0-.3.2-.4l.2.2-.1.4Zm-11 2.2h.1l.2.1.2.2c-.1.2-.2.2-.5.1.1-.1-.1-.2 0-.4ZM1 54.5s.2-.4.4-.2l-.1.6c-.1-.2-.4-.2-.4-.4ZM19.1 40l-.3-.1v-.3h.2c.2.1.2.2.2.4ZM4.7 56H5l.1.3-.2.1c-.2 0-.3-.1-.2-.3V56Zm-.2-6.3c0-.3 0-.5.3-.5v.3c0 .1-.1.2-.4.2ZM16.4 40c.2 0 .2 0 .3.4l-.2.2h-.2l.1-.5Zm17.4 6.1c0-.2 0-.4.3-.5l.1.3c0 .1-.2.3-.4.2ZM4.5 55.4h.1l.2.2-.1.3h-.2l-.1-.2v-.3Zm.4 1.7c-.3-.1-.3-.1-.2-.5.4.1.4.2.2.5ZM17 47.7v-.2l.3-.2.1.1v.2c-.1.1-.2.2-.4.1Zm.6-7.2c-.2.1-.3 0-.4 0v-.2c0-.1.1-.2.3-.2v.4ZM7 39.4l.5.2-.1.3c-.3 0-.3-.3-.4-.5Zm1.2 7.3c.1 0 .2-.2.4 0v.4c-.4 0-.4-.2-.4-.4Zm-1-.6c0-.2.2-.3.4-.3v.3c-.1.1-.2.1-.4 0Zm1 .6c-.1 0-.3.1-.4 0l-.2-.2c.3-.2.4-.2.5 0v.2Zm23.5-.7.1.2c.4 0 .4 0 .4.2H32s-.3-.1-.2-.4Zm-21-3.6c-.1.1-.3 0-.4 0h-.1c0-.2.2-.3.3-.4l.2.4Zm8.2 5.8c.3.1.4.3.1.5l-.1-.2c-.2-.1-.2-.1 0-.3ZM7.8 42c0-.2.2-.3.3-.3h.2v.2c-.2.2-.3.2-.5 0Zm10-4.1-.2-.1c0-.2 0-.3.2-.4l.2.1-.2.4Zm-4.7 15.3-.1-.4h.1l.3.1v.2H13Zm-2.3-15.8c.2-.4.2-.4.5-.2-.1.3-.2.4-.5.2Zm14-3.6h.3v.2l-.1.1c-.2 0-.3 0-.2-.3Zm-10.2 3.4h-.4v-.4c.3 0 .3 0 .4.4Zm17.7-5.6c-.1-.3 0-.4.3-.4.1.3 0 .3-.1.3h-.2ZM1.3 47l.1-.3c.2.2.2.2.2.6-.2 0-.2-.3-.3-.4Zm.9.2.3-.3q.2.1 0 .2v.1c0 .2-.2.2-.3.2v-.2ZM1 43.4c-.2 0-.2-.2-.2-.4.3 0 .3.1.4.4Zm2.4.6.2.1c0 .1 0 .3-.2.3l-.2-.1c0-.2 0-.2.2-.3Zm11.8-2.7-.3-.1c0-.1 0-.2.2-.3l.2.1-.1.3Zm15.2-12.8-.3.2-.2-.1c0-.2.2-.3.3-.3l.2.2ZM12.3 47.9l.2.2-.1.3c-.1 0-.2 0-.2-.2l.1-.3Zm18-5.1c0-.2 0-.4.3-.4l.1.2-.4.2ZM6.8 45.6c-.1-.2 0-.2.2-.2h.2c0 .2 0 .2-.2.3h-.3ZM1.3 55.8l-.1-.1-.1-.1s0-.2.2-.2l.2.2c0 .1 0 .2-.2.2Zm26.3-11.3c0-.3.1-.3.3-.3l.1.1v.2h-.4ZM16 37.9c-.3-.2-.3-.2-.3-.4h.1l.2.2v.2Zm-4.3 10.6c0 .2-.2.2-.3.2l-.1-.2c.3-.2.3-.2.4 0ZM2 55.8V55c0 .1.1.2 0 .4v.4Zm26.3-10.9h.1c.2 0 .4 0 .5.2h-.2l-.4-.2ZM2.6 48.6h-.3l.1-.3.3.1-.1.2ZM.1 53.7c-.2-.1-.2-.3 0-.5l.1.2v.3Zm20-4.7h-.4l.1-.2h.2l.1.2ZM35 42.8c0-.2 0-.3.2-.3v.3H35Zm-20.6 6s.1-.2.3-.1c0 0 .2.1.1.3h-.3l-.1-.2Zm12.1-17.4v-.2l.3.1v.2h-.3Zm5.2.2c.1-.1.2-.1.4 0v.2H32l-.2-.2Zm-9.2 22.9.3.1v.2c-.1-.1-.2.2-.3 0v-.3Zm-1.3-13.9h.3l.1.1c-.2.2-.3.2-.4-.1Zm-16.9 3c-.2-.2-.2-.2 0-.4.2 0 .2.1.2.3l-.2.1Zm8.2-9.1-.2.2H12v-.3l.4.1Zm16.8 4.8c.4 0 .5 0 .3.3l-.3-.1v-.2ZM.6 47.7c-.1 0-.2 0-.2-.2 0 0 0-.2.1-.1h.2l-.1.3Zm24 4h-.2l-.1-.3q.2 0 .3.3Zm-6.1-8.5-.2-.2.2-.3c.3.2.3.3 0 .5ZM30.9 37v.1h-.5V37l.3-.2.2.2Zm-19 1.9s-.2 0-.2-.2v-.2c.1 0 .3 0 .3.2l-.1.2Zm14-.9.2.1v.5H26l-.1-.1V38ZM1.3 48h-.2v-.2l.2-.1.1.1v.2Zm10.2 2.5c-.2 0-.3-.1-.2-.3 0 0 0-.1.1 0l.1.1v.2Zm19.1-14.6v-.1l-.3-.1c0-.2 0-.2.2-.2l.3.2v.1h-.2ZM1 52v-.3h.2l-.1.4Zm1.2 1.3.1-.2c.2.2.2.2 0 .4l-.1-.2Zm30.6-10.4h.1c0 .2 0 .4-.2.5v-.5Zm-20.6-6c-.1-.1-.2-.2-.1-.3l.2-.1v.3h-.1Zm3.3-.6c-.2 0-.4 0-.5.3-.2-.3.1-.3 0-.5l.5.2Zm10.3-2.6v-.2h.2c.1 0 .2 0 .2.2v.1h-.1l-.1-.2h-.2ZM1.3 46v-.3h.2v.2h-.2Zm13.2-3.4v.2h-.2l-.1-.2h.3Zm-3.9 8.3c-.1 0-.2 0-.3-.2l.1-.1.2.1v.2Zm2.6 0h.4v.2h-.2c-.2 0-.2 0-.2-.2Zm17.4-19.3h.4l-.1.2c-.1 0-.2 0-.2-.2ZM5 52.6s.2 0 .2.3H5v-.3ZM6.3 55l-.2.1s-.2 0-.2-.2l.4.1Zm15.4-6.6v.3h-.3c0-.2 0-.3.3-.3ZM26.1 32l.2-.2h.2v.2c-.2 0-.3.1-.4 0Zm6.2 5.1h.2l.1.1v.1h-.1v.1h-.2v-.3Zm-5.1 8.7v.3c-.3 0-.3-.1-.2-.4h.2Zm-7.5-.8h.2v.3l-.2-.2Zm3.8-5.8h.3v.2c-.2 0-.3-.1-.3-.2Zm6.1-6.6h-.1l-.1-.2.1-.1.2.1v.2ZM31.3 44h.2l.1-.1v.2l-.1.1-.2-.1Zm-.6-.7c-.2.2-.3.2-.3 0v-.1c.1 0 .2 0 .3.2Zm-.7-6.9c.1.2 0 .3-.1.3-.2 0 0-.2-.1-.3h.2ZM9.9 40.2v.1c0 .1 0 .2-.2.3v-.1c0-.1 0-.2.2-.3ZM5.1 52.4h.2l.2.2h-.2l-.2-.2Zm27.7-8.8q0-.2.2-.2s.1.1 0 .2h-.3Zm-3.7-.4c.3 0 .3 0 .3.3-.2 0-.2 0-.2-.3Zm1.7-7.5v-.2c.2 0 .2 0 .2.2h-.2ZM17.5 51.3l-.1.2h-.2v-.3h.3ZM6.7 53c-.2 0-.3.1-.3-.1h.2s.1 0 0 .2ZM.5 54l.1-.1.2.1-.1.2-.2-.2Zm1.1.8v-.1h.2v.2l-.2-.1Zm27.7-24.5h.2v.2h-.2v-.3Zm8.2-1.6v-.2h.2v.2h-.2ZM6 56.9h-.3v-.2q.2 0 .3.2Zm23.4-28.1v-.3h.2v.2h-.2ZM12.9 42.4l.1-.1.2.1-.1.2c-.1 0-.2 0-.2-.2Zm1.8-7.7h-.3v-.2c.2 0 .2 0 .3.2ZM31 45v.2c-.2 0-.3 0-.4-.2h.4Zm-3 1 .1-.3h.2v.1c0 .2 0 .1-.2.2ZM3.7 55.1H4v.1h-.3Zm17.1-13.3q0-.2.2-.3v.3h-.2ZM5.7 49.9q0 .2-.2.2c0-.2 0-.3.2-.2Z"/><path d="M12.2 37v.3c-.2 0-.2 0-.2-.2l.2-.2Zm11.5 9.9c.1 0 .2.1.1.2h-.1c-.1 0-.1 0 0-.2ZM8.6 51.2l-.2-.2s.2-.1.2 0c.1 0 0 0 0 .2Zm-4.3.5h.2v.2h-.2v-.2Zm8.2 2.4h-.2V54h.2v.2Zm12-23.4v-.3q.2 0 0 .3Zm8.6.3v.1h-.2l-.1-.1.1-.1h.3ZM18.2 41.2c-.2 0-.2 0-.2-.2q.2 0 .2.2ZM27 30.3v.2h-.3v-.2h.3ZM3.7 54l-.1.1-.1-.1h.2Zm29.2-8.5v-.2q.2.1 0 .2Zm-22.6-7.2-.3-.1.2-.1s0-.1.1 0v.2ZM.4 51l.2.1v.1c-.1 0-.2 0-.2-.2ZM22 49.8c.1-.2.2-.2.3 0H22Zm9.3-18.3s0-.2.2 0c0 .2 0 .1-.2 0ZM18.1 52.4q-.2-.1 0-.3v.3Zm13.7-19.5q-.2-.1 0-.3v.3ZM10.6 50s-.2 0-.1-.1c0 0 .1-.1.1 0 .1 0 .1 0 0 .2Zm16.1-12 .2.1-.1.1h-.1v-.3Zm-6.6 11.6v-.3c.2.2.2.2 0 .3ZM1.5 55.3h.4l-.3.2-.1-.2Zm.5.5h.1q0 .2-.3 0H2Zm18.4-7.2-.1.2s-.1-.2 0-.2h.1ZM7 54.7v.2h-.1s-.1-.1 0-.2Zm15.1-3.9h.3c0 .1 0 .2-.2.1ZM9.3 40.4h.2c0 .1 0 .2-.1.1l-.1-.2Zm5.9-5.4h.2v.2l-.2-.1Zm9.2 9.2c0-.1 0-.2.2-.2 0 0 .1 0 0 .2h-.2ZM5.3 43.1H5s-.1 0 0 0v-.2l.1.1v.1ZM24 51.3V51h.2c0 .2 0 .2-.2.2ZM1.4 57.4v.3-.3ZM4 44v-.3l.2.1c0 .2 0 .1-.2.2Zm9.9-2.3q-.2-.1 0-.3v.3Zm7.5-1.7-.1-.1v-.1h.2l-.1.2Zm9.6-2.8.1-.2h.2v.2h-.2Zm-11.2 6.1c.1-.2.2-.2.4 0h-.4ZM2.6 54.4l.1.1v.2h-.2l.1-.3Zm15.8-11h.2l-.1.3h-.1v-.3ZM.7 55l.1.2q-.2 0-.1-.2ZM29 39h.3l-.2.1V39ZM6.3 40.1l-.1-.2q.2 0 .1.2Zm18.1 6.5v-.2h.2c0 .2 0 .2-.2.2Zm4.7-16.9h.2v.2c-.1 0-.2 0-.2-.2Zm3.6 1.9c.1-.1.2 0 .2 0v.1l-.2-.1ZM16.7 48l.1-.1.1.2h-.2ZM26 36.9v-.4c.2.2 0 .3 0 .3ZM4.2 56h.3-.3Zm20.1-7.3h-.1v-.2h.2v.2h-.1Zm-13 .9v.3h-.1v-.3ZM24.1 47h.2c-.2.1-.2.1-.2 0Zm6.5-13.4h-.2v-.1h.3ZM4.3 53.8l.2-.2v.1c0 .2 0 .1-.2 0Zm1.1-.3-.2-.1.1-.1.1.2ZM0 54.9c.2 0 .2 0 .1.2 0 0-.1-.1 0-.2Zm34-22.1v.2-.2ZM.8 58.2s-.1 0 0-.2v.2ZM30 37.8c0-.1 0-.2.2-.2l-.1.2Zm-14.3-.9-.2-.2v-.1h.1v.2Zm16.2-8.3.1-.2v.1c0 .1 0 .1-.1 0ZM1.6 48.2V48q.2.1 0 .3Zm23.8-10.8v-.1h.2v.1h-.2Zm7.5.3h-.3.3Zm-30.3 9c-.2-.1-.1-.2-.1-.3v.3Zm.2 6h-.2v-.2l.2.2Zm17.6-1.5V51h.1v.2Zm2.8-17.4-.1.2-.1-.1.1-.1ZM.3 57.2v-.3.3ZM14.2 41l.1-.2.1.1v.2l-.2-.1Zm-6.6 8c.1 0 .2 0 0 .2Zm5.6-7.4h-.4.2Zm9.1-2.1h.2v.1h-.2Zm6.2-13.3c0 .1 0 .2-.2.1 0-.2.1-.1.2 0ZM5.7 54.9h-.2v-.1h.2Zm4.3-7.7.2-.1v.2H10ZM31.1 29l.1-.2.1.1v.1H31ZM10.4 54.4h-.2q0-.1.2 0Zm-5.9.2h-.1v-.2l.1.2ZM8.9 51H9h-.2Zm21.8-6.3.2.1h-.2ZM16 41.2l.1-.2h.1c0 .2 0 .2-.2.2ZM.8 55.7v.3-.3Zm10-12.7v.1h-.1v-.2Zm21-10 .1.2-.1-.1Zm-7 2.4s-.1.1-.2 0h.2Zm-7.1 3h-.3.3Zm12.1 5.2.1.2-.1-.2Zm-16 7.6.1-.2v.2ZM0 46.8l.1-.1h.1l-.1.1Zm5.2 3.4q.2.1 0 .2v-.2Zm26-18.4v-.1h.2v.2h-.2Zm1.3 9.9v-.2c.1.1 0 .2 0 .2ZM3 43.6l.3.2h-.1l-.1-.1ZM15 40v-.2.3Zm13.8 7.8-.2.2q0-.2.2-.2ZM1.7 57v-.2H2l-.1.2h-.1ZM22 49.3h.3c-.2.2-.2 0-.3 0Zm-11.4-2.2v-.2.2Zm-7.6.8.2-.2c0 .1 0 .2-.1.1ZM20.1 49h.2v.1L20 49Zm-.2.8v-.2c.1.1 0 .2 0 .2Zm-18.3-.2c.1 0 0 .1 0 .2v-.2ZM25 30ZM6.4 56.2l-.1-.1V56h.1v.2Zm14.4-9.9s-.1 0 0-.1v.1ZM8.7 51.4H9h-.2Zm7.7-15.8h.2q-.1.1-.2 0ZM1.6 54.8v.2h-.3l.3-.2Zm1.2.2H3h-.2Zm29.5-17.9h-.2l.1-.2.1.3ZM7.9 45.3h-.3.3ZM.1 56.6l.2-.1v.2l-.2-.1ZM9 45.3l-.1.1c0-.1 0-.1.1 0Zm9.3 3.5h.1-.1Zm11.4-3.3h.2-.2Zm-19.3-.4-.2-.1.2.1Zm9 5.6v-.2h.1v.2Zm10.7-5.1v-.2.2Zm-1.5-2.9h.2l-.2.2v-.2Zm-2.1-14.1v-.1.1Zm-5.1 20.9.2.1h-.2ZM4 54h.2Zm5.2-8.1h.1ZM9 49.6l-.1-.1c.2 0 .1 0 0 0Zm6.7-11.4c0-.1.1 0 .2 0h-.2Zm-1.1-3.1V35c.1.1.1.2 0 .2ZM1 57.4l.2.1-.2-.1Zm5.2-10.3.2.1h-.2Zm16.2-3.9-.2-.1h.1v.1ZM2.2 53.3H2Zm18.9-3.8H21h.1Zm-18.6-.6h-.2.2Zm12-12.4v-.2.2Zm7.8 3.1v.1h-.1Zm7.7 4.9h-.1ZM8.2 55.2l.1-.1v.1Zm2.1-13.4h.1Zm2.1-6.1.2.1h-.2ZM1.1 56.5l.2.1H1ZM26 40h.1Zm6.7 2h.2c0 .1 0 .1-.2 0Zm-32 1.6v-.1.1Zm21.5 1.6V45h.1ZM9.1 46.4v-.1.1ZM22 44.8v.1Zm-5.3-8.5h.1-.1ZM11.5 39h.1-.1Zm12.8 8.3h.1q0 .1-.1 0Zm2-4.7.1-.1h.1-.2ZM33 45Zm-1.4.5Zm-21.1 5.9v-.1l.1.1ZM26 34.5v.2h-.1v-.2ZM3.3 50.6c-.1 0-.1-.1 0-.2v.2Zm11.3-6.3ZM3.9 47.5v-.1.1Zm1.9 7.3v-.1ZM15 36Zm6 5.2v.1-.1ZM1.5 52.4v-.1h.1Zm29.5-15ZM3.2 56.8v-.1Zm2-12.8h.1-.1ZM5 52.3v-.1h.1Zm-.2-.1v.1h-.1Zm25.4-15.4v-.1h.1-.1Zm-7.4 2.5h-.1.1Z"/></g><g clip-path="url(#C)" fill="#26998b"><path d="M33 61.6c-.1.2-.2.2-.3.1a.47.47 0 0 0-.6-.1l-.4-.1-.2-.3V61c-.1-.3 0-.6.3-.7.2 0 .2 0 .2-.2a9 9 0 0 1-.6 0l-.1-.3c-.2 0-.4 0-.6.2-.2 0-.1-.2-.2-.3-.2 0-.3 0-.5.2l-.2.2v.3q0 .2-.3.3a.47.47 0 0 1-.6.1h-.8l-.1-.5c0-.1 0-.2.2-.2.1 0 .1.2.3.1v-.5l.3.1.2-.1.1-.5H29c-.1 0-.3 0-.3-.2s.1-.4.3-.4h.1l.6.4v-.2h.3v.3l.3.1.3-.3.2-.4h-.3c-.1 0-.3 0-.3-.2s-.2 0-.3-.2c-.2.3-.4.3-.7.3H29c-.1 0-.2 0-.2-.3l.3-.4v-.3l-.2-.2-.1.3c-.1.2-.3.2-.4.3 0-.3-.4-.3-.4-.5q-.2.1-.1.3c0 .2 0 .3-.3.3h-.1c-.6 0-.6 0-.8-.4h-.2v.6H26v.4c.3 0 .4.1.4.5l.1.4h.3l.1.2.4-.3c.2 0 .2.3.3.5-.1.1-.3.2-.2.4-.2.1-.4 0-.5-.1a1 1 0 0 0-.3-.4l-.2-.1-.4.1v.5l-.5-.6V59c-.5 0-.6 0-.6-.5h.1c0-.1.2 0 .2 0 0-.4 0-.4.5-.5l.1-.5-.4-.6c.1 0 .2 0 .3-.2-.2 0-.3-.2-.3-.3 0-.2 0-.3.2-.4h.2c.2-.3.2-.3.5-.3v-.2c-.4.2-.6.2-1 0h.1l-.3-.2-.3.1c-.2 0-.2-.2-.1-.3 0-.2.2-.2.4-.2v.2l.4-.4h-.3c0 .1-.1 0-.2 0v-.2l.2-.1.2-.2h.3v.3l.4.1c.2.2.3.2.5.2l-.1.3h.3c.2.1.3 0 .4.2h.3l.4.1.3-.1c.3.1.3.2.1.4h.2c.1-.2.3-.2.4-.1.1 0 .2 0 .2.2l.1.4c.2.1 0 .3 0 .4l.5.2c.2 0 .3 0 .4.2l.1.2.4.2h.2l.1.3c.4.1.3.2.2.4l-.1.3h.6c.2 0 .2.2 0 .4v.2l-.1.1h.5c.2 0 .3.2.3.4v.3l.3.1h.1l.2.1c.2.2.5 0 .7.2l-.3-.8V59l.2-.4-.2-.1v-.1c.1-.2.1-.3 0-.4l-.1-.4-.1-.2c-.1 0-.2-.1-.2-.3 0-.1 0-.3.3-.3h.2a.8.8 0 0 1-.2-.7l.3-.2c.2-.2.3-.2.6 0l.2.2h.2c.2-.3.3-.2.5 0l.1.1c0-.3-.1-.5.2-.7l-.2-.2c0-.1 0-.3.2-.3v-.3c.2-.2.4-.1.5 0h.4l.2.7v.2c.1.1 0 .2 0 .4l-.6-.1v.4l.3.2-.2.2-.2-.1c0-.1 0 0-.1 0v.3l-.3.2h.3c.3 0 .3.1.3.4v.2h.1l.1-.3-.1-.2c-.1-.2 0-.3.1-.5.1 0 .2 0 .3-.2.2.2.4.2.4.5v.3c-.2 0-.3.2-.3.3 0 .2-.1.2-.2.2H36v.3l-.5.1.2-.4c-.4 0-.4-.2-.4-.5h-.1c-.4.1-.5 0-.8-.3l-.2-.3-.4.2.3.3-.3.2.2.8-.2.3.5.1v.5l.2.3v.4c.2.3.2.4 0 .7l-.2.3v.1l-.5-.4-.5.3c.1.1.2.3 0 .5L33 61c-.1.2-.3.1-.6 0 .1.3.3.2.4.3v.3zm-4.7-5.8H28l-.2-.1-.2-.2h-.4l.2.5.2.5c.2-.1.4 0 .5.1l.2.4c0 .1 0 .2.2.2l-.1-.5v-.2l-.1-.2v-.5zm-1.6 1.4V57c0-.2.2-.3.4-.3h.2l-.5-.4c-.2.2-.4.3-.5.6l.4.3zm-.8 1.6l-.5-.1.2.2.3-.1zm5 0q.2 0 .1-.2l-.2.2zm10.3-4.9c.1.1.2.1.4 0 .2.2.2.5.1.7 0 .1-.1.2-.3.2h-.2c0 .2 0 .5-.3.8h-.6c-.3 0-.3-.2-.3-.5v-.4c.2 0 .3.2.5 0-.2 0-.4 0-.5-.2v-.2l-.1-.2h-.4l.2-.4c-.4 0-.7-.1-.7-.5-.1.1-.2 0-.3-.1.1-.2.2-.1.4 0v-.3l.2-.1.6-.3c0-.2 0-.3-.2-.4l-.3-.1v-.3l.6-.2v-.3l-.2-.1-.1-.2c0-.2-.2-.3-.4-.4v-.2c.2.1.3 0 .4 0h.3l.3.1-.2-.3.4-.1.4-.1.3.5V50c.1-.2.3-.2.5-.3l.3.2c0 .2 0 .2.2.3v.4l-.2-.2-.5.1c0 .3-.2.4-.3.7.1.2 0 .5.3.5v.5l-.2.2h-.7l.5.5h.4l.4.1.1-.2c0-.2 0-.4.2-.6-.4-.1-.4-.2-.4-.4s.2-.3.3-.3.2 0 .3.2v.3h.2l.3.1c0 .2.2.3.4.3l.2.1-.2.2q0 .4-.5.7l-.5-.2h-.5c0 .2-.1.3-.3.3l-.3.4zm-.8-1.2l-.3-.1-.2.4-.1.6h.4c0-.4-.2-.7.2-1zm0-1l.2.1q0-.4.4-.6l-.2-.2-.3.2q0 .3-.2.4zm-.2-1.2c-.1.1 0 .2 0 .4h.4l-.4-.4zm.7 4l.1.1h.1c0-.1-.1 0-.2 0zm-2.1-6.4h.3v-.3c0-.1 0-.2.2-.2h.1l.3-.1c0-.2.2-.2.3-.2l.2-.3h.2c.2 0 .3.2.3.3s-.1.2-.3.2c0 .2-.3.3-.1.5l-.3.1v.2h.2v.2l.2.2-.1-.4c0-.4 0-.5.4-.5l.6.2-.1-.3v-.5c.2 0 .3-.2.5-.3v-.1l-.6.2-.2.1c0-.2-.2-.3-.4-.5h-.2l-.4.2c-.2.2-.3.2-.4 0 0-.2.2-.2.4-.2v-.2c0-.2-.1-.3-.3-.3v-.2c-.3 0-.5.1-.8 0l.1-.4h.2c0-.1.1 0 .2 0l.2-.2c-.1-.2-.3-.1-.5-.2v-.5h.5c.1.2.3.2.3.4h.4v-.3h.3c0 .1 0 .2-.2.3l.3.2-.4.2.3.3h.2v-.5h.1c.3-.2.5-.2.5.1v.3l-.1.2-.3.3.1.1c.2 0 .4 0 .5-.2.2.1.4.3.4.6l.2-.1V46c-.1-.2 0-.3.1-.4.2 0 .5.1.5.4l.2.2.2.5s0 .2-.2.3c-.3.3-.3.3-.5.3.1.1.1.3 0 .4-.2.2-.4.1-.6 0 0 .2.2.3.3.5.3-.3.5-.3.7 0l-.2.3h-.3c-.1.1-.3 0-.4 0v.1c.2 0 .2 0 .3.3H42l-.1.4c-.2-.2-.2-.2-.1-.4v-.3l-.4.2-.3-.1v-.3c-.1 0-.2 0-.3.2h-.3v.3l.2-.2c.2 0 .3 0 .3.2v.3l.1.3v.2h-.3v-.2l-.2.1c-.2 0-.3-.2-.4-.4h.1l-.5-.5h-.4s0-.2-.3-.1c0-.3-.2-.4-.3-.5zm1 0c-.1 0-.3-.3-.5 0l.1.3.4-.2zM24 63.6l-.2-.3h.3c.2-.2.3-.2.4 0 0 0 0 .3-.2.4h-.4v.3l.1.1-.1.2h-.3v.5c.2.1.2.3.2.4l.3.2v.2l.3.1v.2c.4 0 .5.1.6.4l-.3.2c-.2 0-.2.2-.3.3-.3-.1-.4-.3-.5-.5l-.3-.3c-.2 0-.4.1-.4.4l-.2.3h-.2v.1l-.4.4h-.1l-.2.2.2.1.4-.2V67h.5c.1.1 0 .3 0 .4h-.5v.3h.6v.1c0 .2 0 .4.2.5 0 .1.2.2.1.4q-.2.1-.4-.1l-.4.1h-.2v-.2c-.2-.1-.2-.3-.1-.4v-.2c-.1 0-.3.2-.4 0l-.1-.3-.6-.4-.5.5-.2.3c0 .2.1.3 0 .4-.2.1-.3 0-.4 0V68h-.4v-.3l.5.1v.1-.3l-.2-.3-.3-.2c.1-.3.2-.6 0-.9q.5-.1.6-.3c.4 0 .6.2.6.5 0 .2 0 .3.2.4 0-.1 0-.3.2-.4h.6c0-.2-.2-.3-.3-.4-.2-.2-.1-.4.2-.5.2-.3.4-.4.6-.5 0-.1-.2-.2 0-.4h.2c-.2-.2-.4-.2-.4-.5h.1c.1 0 .1-.2.3-.2h.3l.3-.4-.2-.3.1-.1c.2 0 .3 0 .4.2v.2h.2zm-.5 2l.1-.4c-.3-.2-.3-.2-.7 0 .2 0 .3-.2.4 0v.4l.4.2v-.2h-.2zm-1.5-5h-.5c-.1 0-.3-.1-.3-.3v-.5c.3-.1.5-.2.8 0h.1c0 .3 0 .3.2.4.1-.3.4-.3.7-.4v-.1c.2-.3.3-.3.5-.1l.1-.1v-.2c-.2 0-.3-.2-.2-.4l-.1-.3h-1v.2c0 .2 0 .3-.2.4-.2.2-.4.3-.7.1h-.3l.5-.7v-.1H21l-.1-.2-.3-.2c-.1-.2-.2-.2-.4-.3 0-.1.1-.2.3-.1l.1-.4-.2-.2c0-.2.2-.3.3-.3h.4l.3.3.1.2.6.3c.1 0 .2 0 .3.2l.1.2.2-.2c.2 0 .2.2.3.3h.6c.1 0 0-.2 0-.4h-.8a.6.6 0 0 1-.6-.6v-.5l.2-.2h.5c.2 0 .3 0 .4-.2l.3.2-.1.3c0 .3 0 .5.2.8.2 0 .5 0 .6.3l.5.2c0 .1 0 .2-.2.3l-.3-.3h-.2c0 .3.2.4.3.6-.2.1-.2.3-.1.4v.5c.2.1.1.3 0 .4-.1 0-.3 0-.4-.3v.7l-.2.2-.4-.4-.2.1-.3.2h-.3c-.2 0-.4 0-.6.2z"/><path d="M42.4 45H42c-.2 0-.3-.1-.2-.3-.2-.2 0-.3 0-.4l-.4-.2c-.2-.1-.2-.3-.3-.4v-.2c-.4 0-.5.3-.7.5l-.4-.1v.5l-.4.1c-.2 0-.3 0-.3-.2v-.4l-.1-.1v-.2c.1-.1.3 0 .4 0l.2-.1-.2-.2h.4v-.4h-.1c-.2-.2-.2-.3 0-.4l.3-.2c.1-.1 0-.4.3-.5h.6v.7l.4.2c0 .2-.2.4-.1.5 0 .2-.3.3-.2.5.5-.2.6-.1.8.4.3-.1.7-.2.9.3l.4-.7v-.2l.2.1.3.2c0 .3-.2.5-.4.6H43c-.4 0-.4 0-.4.5h.7c.3.1.3.4.4.7l.2-.2-.1-.4c-.1-.4 0-.4.3-.6l.1-.3.3-.2c.2 0 .4.1.4.3s0 .4-.2.5l.1.3.1.3c0 .2 0 .3.2.5v.2c-.1.1-.3.2-.5 0h-.2c-.2 0-.4 0-.5.2l-.4.2V46l.3-.1c0-.1 0-.2-.2-.3 0 .2-.3.3-.3.5l.2.4h-.2c-.2 0-.3 0-.3-.2v-.9c-.3 0-.5 0-.6-.2zm-9.1 6.6c.3-.2.3-.2.5.1-.2.2-.3 0-.4 0l-.5.2v.4l.3.3c-.1.3-.3.3-.6.3 0 0 0 .2-.2.2l-.2.1h-.1c-.2 0-.4 0-.5-.2v-.3c0-.2.1-.1.3 0v-.4h.2v-.2c.2 0 .4.2.5 0h.2V52l-.9-.3.2-.1c0-.1.1-.2 0-.4l.1-.2H32v-.5l-.5-.3.3-.2-.4-.2c.1-.2.3-.2.4-.3l-.2-.2-.3-.3v-.3c.3 0 .4 0 .6.3l.3-.2.4-.1c.2 0 .2 0 .3.2v.1a.37.37 0 0 1 .3.4c0 .2 0 .4-.2.5l-.2.1.3.3c0-.2.1-.3.3-.4v-.1h.3c.3 0 .4 0 .6.2v1l-.5-.2c-.2 0-.4 0-.6-.2v.6c-.1.2.1.3.2.5zM43.4 53q0-.2.2-.3v-.4c0-.2 0-.3.3-.4 0 0 0-.2.2-.3l.1.2h.2c-.1-.1 0-.3-.2-.4l.1-.5c.3 0 .3.2.4.3v.4l.2.2c.2.1.3.3.3.6h.4c.2.2.4.4.4.7v.4c.2.2.2.3.1.5 0 .1 0 .3-.2.4h-.1c-.2 0-.5 0-.6-.2-.2-.1-.2-.3 0-.6-.4-.2-.4-.5-.3-.8h-.4c0 .2-.1.3-.3.3L44 53l-.2-.1q-.2 0-.2.2l.4.2v.4c-.2 0-.2.2-.1.3v.2h-.3c0 .1 0 .3-.2.4-.2.3-.3.4-.6.3l-.3-.2v-.2c-.2-.2-.2-.4 0-.5v-.5c.2-.2.2 0 .4 0s.4-.3.6-.5zM38 50.3c.2-.2.4-.2.5-.1.1.2-.3.3-.1.5q-.3.1-.5.4c.3.3.3.4.2.7.2.4.3.4.6.3.1.4 0 .7-.2 1-.2 0-.2-.2-.2-.3h-.2v.3c.1.1 0 .3-.1.3l-.3.2s-.1-.2-.3 0l-.2-.1-.3-.3h-.3L36 53c-.1 0-.3 0-.3-.2-.1-.1 0-.3.1-.3l.3-.1.3-.3v-.2h.4c0-.2 0-.4-.2-.5l.1-.3V51l.2-.2.4-.2h.2v-.3h-.2v-.6l.3-.2.3.3v.5zm-.8 1.7c0 .4 0 .5-.4.5v.3l.6-.2v-.2l.1-.4v-.1l-.3.1zm.6-1c-.3 0-.3 0-.3.2l.3-.1zM15.2 66H15c-.3-.2-.3-.4-.2-.6l.4-.4.5.1.1.4-.1.3q-.4 0-.4.2l.2.1h.1c.3.3.3.3.4 0h.4l-.3.3c0 .2-.2.2-.2.3 0 .2.3.1.4.2.2-.1.4-.2.4-.5.2 0 .2.2.4.3 0 0 0-.3.2-.1.2 0 0 .2 0 .3h.2v.3l-.1.2-.4.3-.1.2.2-.1c.2-.2.5-.2.6 0s.2.3.4.3v.1c-.1.2-.4.1-.3.4 0 0 .1.2.3.1 0 0 .2 0 .2.2l-.2.2H18l.2.4-.9.4v-.2c0-.2 0-.4-.2-.4l-.1-.1V69h.3l.2-.2c-.4-.2-.5-.5-.6-.8v-.2a.6.6 0 0 1-.4-.4l-.1-.2c-.3.1-.3 0-.4-.3l-.4.4-.8-.2v-.3c-.3-.1-.3-.3-.2-.6h.4c.1 0 .3 0 .3-.2zm-.2-6.4c-.1-.2 0-.1.2-.2l-.1-.3c.4-.2.6-.2.8.2l-.1.2-.1.2c0 .2 0 .2-.3.3-.2 0-.3 0-.5.2-.2.3-.5.3-.8 0l-.2.3-.4.2c.3.1.5.3.5.5v.4c.4-.1.6-.4 1-.4l-.1.2q.4.2.3.6l.4.7.4.1c0 .2-.2.3-.3.4h-.5l.1-.3h-.2c-.2 0-.2.1-.3.2-.2.1-.3.1-.4 0v-.4c.2 0 .3-.1.3-.3l.2-.1c-.2-.2-.5-.1-.6-.3v.1c-.2 0-.2 0-.3-.2a1 1 0 0 0-.4-.3c-.2 0-.3-.3-.4-.2-.1-.2.2-.2 0-.5-.1-.2-.2-.4 0-.7v-.5H13l-.2-.2.1-.3.5.1.2.1-.2.2c.2 0 .3.2.2.4h.3c0-.2.2-.3.3-.4h.6c0 .1 0 .2.2.2v-.1zm20.7-11l-.4-.2-.3.1h-.3v-.3c.1-.2.3-.3.6-.2l.3-.4-.4.1h-.1c-.3 0-.5-.2-.6-.5l.3-.2-.2-.3c0-.2 0-.4.3-.4l.2.5h.1v-.2c0-.2.1-.4.4-.5V46c-.2-.2-.1-.3 0-.4l.4-.2v-.5a.22.22 0 0 1 .3-.3h.1l.5.2-.3.7c0 .1 0 .2.2.3l-.3.3.2.4c-.2.1-.2.3 0 .4l-.3.3c0 .1.2.2 0 .3-.2-.1-.4-.4-.8-.3 0 .2.1.3.3.5l.2.2c.2 0 .3.2.2.3v.2c-.2 0-.1.2-.1.4h-.3s-.1-.1-.2 0zm3.6 7l.7.1v.3c.5.1.5.2.5.7h-.2l-.1.1c.2.5 0 .7-.5 1 .4 0 .5.1.6.4-.2.2-.2.5-.2.7s-.1.3-.3.4h-1v-1c0-.2.1-.3.3-.3.1 0 .3-.1.3-.4h.2l-.2-.3.3-.5c0-.1-.3-.1-.1-.4.1 0 .4 0 .5-.2l-.6.1c-.2.1-.4.2-.6 0l-.2.5-.2-.1h-.6c0-.2-.3-.2-.2-.5h.1l.2-.2c0 .1.2.3.4.2v-.5l.4-.2v-.2h.2c.2 0 .3 0 .3.3zm-21.8 5.6c.2 0 .3.1.3.3v.3l.2-.1v-.2c.1-.2.2-.3.4-.2h.4v.7l.2-.5-.1-.3c.2 0 .4 0 .6.2l-.2.2c.2 0 .3.2.3.4v.3H19v.3h.4c.2.2.2.4.2.6l-.4.2-.2-.2-.2.3c-.1-.2-.3-.2-.5-.2H18c0-.2.1-.3.3-.4q-.3 0-.5.2l-.4-.2v-.1l-.3-.6v-.6l.4-.4z"/><path d="M36.3 48.3c.2-.1.4-.2.7-.1l.2-.1-.1-.2H37c-.2 0-.2-.2-.2-.3l.2-.2h.2l.1-.3h-.2l.2-.4c.2-.3.4-.3.7-.2l.1-.2h.3c.3-.1.4-.1.6.1v.1h.3c0 .2-.2.4-.1.6L39 47h-.3v.3l-.1-.3h-.4l.4.5.1-.1v.3l-.1.1c-.1 0-.2 0-.3.2-.2.3-.3.3-.7.2v.4l.2.3-.3.3h-.4s-.2 0-.2-.2c0-.1-.2-.2 0-.3l-.1-.2h-.1q-.3 0-.4-.2ZM30 65.1l-.2-.1h-.1c-.1-.3-.3-.2-.5-.2-.2-.3-.2-.3 0-.5V64c-.2 0-.3 0-.5-.2 0-.1-.1-.3 0-.4l-.4-.5c-.2.1-.4 0-.5-.2 0-.1 0-.3.2-.4h.3l.2.3h.5c.1.2.2.2.3 0 0-.3.3-.4.5-.2.2.1.2.4 0 .5l-.2.1c0 .2.3.3.1.5.3 0 .4 0 .5.2l.2.2s.2 0 .2.2v.4c-.1.3-.2.5-.5.6Zm-2.3-14.8.2.2c.3 0 .5-.2.8 0v.2c0 .2.2.4.4.6.2.2.3.3.2.5 0 .1-.1.2-.5.1l-.2.2-.2.1-.1.2-.4-.3-.2-.4c-.2.3-.2.5-.5.6l-.4-.2h-.2c-.2 0-.3-.2-.2-.4v-.1c.3-.1.4-.4.5-.6l.2-.1h.4l.2.2c.2-.3.1-.5 0-.8Zm-1.8 1.2h-.1q-.4-.1-.5.2s0 0-.1 0-.1-.3-.3-.2l-.1.4c0 .3-.2.3-.3.5-.2-.2-.4-.3-.4-.6h-.4c-.3 0-.5-.1-.6-.4v-.3c.1-.1 0-.2 0-.4l.5-.2h.2c.2 0 .3.2.5.3v-.3h.3l.1-.1c.2-.4.5-.4.7 0l.4.7v.1c.2.1.1.2 0 .3Zm-1.3-.3-.3-.2v.5l.3-.3Zm2 16.8.2-.4c.2-.1.2-.3 0-.5l.1-.6c0-.1.2-.2.1-.3v-.6l.2-.2.4.2c0 .3.1.5 0 .8l.3.2c.1 0 .1 0 0 .2s-.1.2 0 .4l.2.2.1.2c.2 0 .2.2.2.4h-.2l-.2.3-.1.1-.3.3c-.4 0-.6-.2-.8-.5l-.2-.2Zm-8.4-9.2-.6-.8.2-.5c.3 0 .3-.2.4-.4 0 0 .2 0 .3-.2l.4.2h.5c.2 0 .3 0 .2.2h.2c.2-.1.4 0 .4.2v.3c0 .3 0 .4-.3.4h-.1c-.2-.1-.3-.3-.2-.5l-.5.1c.1.5-.2.7-.6.9v.7l-.3.1-.2-.1c0-.3 0-.4.2-.6Zm.6 5.2c.2.4.2.4.6.2h.3l-.2-.4v-.3c0-.1 0-.2.2-.2s.3 0 .4.2l.1.8H20v.3h.2c.2 0 .3.2.3.4l-.2.3h-.5v-.5l-.3-.1v.1c-.2.2-.5 0-.8.2-.1.2.2.4 0 .7l-.6.3-.2-.4c-.1 0-.3 0-.4-.2 0-.2 0-.5.4-.6.2-.1.4 0 .6.1l-.1-.4c-.1-.3 0-.5.4-.5Zm14.1-9.8.2.5c.1.1.3.3.1.5l.4.2-.1.1c-.1-.1-.3 0-.4 0l-.1.5-.3.1.2-.5h-.1l-.3.1v.3h-.1l-.1-.2h-.1c-.2 0-.3-.2-.3-.4l-.3-.2c0-.2.1-.3.3-.4v-.5c0-.1-.1-.3-.3-.3 0-.2.1-.2.3-.3h.2l.3-.2h.1l.4.4-.2.1.2.2Zm-10.1-1.9-.1.3c.3.1.5.4.7.7.2 0 .4 0 .5.2l-.2.2c0 .1.2.3 0 .4H23v-.4l-.6.2-.5.1.3-.6h-.6c-.2 0 0-.2 0-.3 0-.2.1-.2.2-.2h.5c-.3-.3-.3-.5-.4-.8-.1 0-.2.2-.4 0-.1 0-.2-.1-.2-.3.2-.2.3-.2.6 0 0 0 .2-.1.4 0 .2 0 .4.2.4.5Zm24.5-3.2c0 .1 0 .2-.2.3v.2h.1l.2-.1v-.4c0-.3.4-.5.7-.4l.2.1c.3 0 .5.3.4.6v.5c.1 0 .3-.1.4 0 .1.1.3.2.3.4-.4.2-.5.1-.8-.2 0-.2-.2-.2-.3-.2H48l-.1.6c-.2.2-.5.2-1 0V50l-.2-.6c0-.2 0-.3.3-.3h.3Zm-11.6-.5.1.4c.1.4.2.4.5.4h.1v.1l.1.1c.5.2.5.3.4.7l-.4.2-.3.1c-.2 0-.3-.1-.4-.3V50c.2 0 .4 0 .5-.3-.2 0-.5 0-.6.3-.1.2-.4.2-.6.2a.7.7 0 0 1-.5-.4v-.5c-.1-.2 0-.4.2-.5.3-.2.6-.2.9-.1Zm9.7 7.8-.2.4c0 .2-.3.2-.5.1l-.2-.1-.3-.3v-.1l-.3-.1c.2-.2.4-.1.5-.1l.1-.3h.4v-.2c0-.2 0-.5.2-.7l.2-.2c0-.2 0-.3.2-.3l.2.2s0 .1 0 0c.3 0 .5.3.7.3 0 .1.1.2 0 .4v.2c-.2.3-.4.5-.7.4h-.4v.4Zm-2.6-8.1c.2 0 .2-.3.3-.2l.2.8c.3.2.2.4.2.5v.1l.4.2.3-.2c.2.1.2.3.4.3l.1-.3.2-.3-.2-.2.3-.4c.1.4.1.9.3 1.3l-.6.2c0 .1-.2.3-.5.2l-.2.5c-.3-.1-.2-.4-.2-.6h.2s-.1-.2-.2-.1l-.2.1c0 .2 0 .2-.2.2l-.4-.2V50l-.2-.1c0-.2 0-.3.2-.4l-.2-.6c0-.1-.1-.3 0-.4.1 0 0-.1 0-.2ZM34 52.8h.4c.1-.2.3-.2.5-.3.1 0 .2.1.2.3l.1.2c.3.2.4.2.2.6.1 0 .3.1.3.3 0 .2 0 .3-.2.4l-.3-.1h-.3c-.2 0-.4 0-.5.3-.2.3-.4.2-.5 0l-.1-.3.2-.1v-.3c0-.2-.1-.5 0-.8v-.2Zm2.9-10.2h-.2l.2-.3c0-.3 0-.6.4-.8h.3c.1 0 .3.1.4 0l.2.1c.3.2.4.5.2.8l-.2.4c0 .1 0 .2.2.1h.3c0 .2-.1.5-.4.5-.1-.2-.2-.2-.4-.2h-.3c-.2.1-.3 0-.4-.1l-.3-.5ZM25.7 62.9v.2l-.4.4c-.2-.2-.2-.3 0-.5l-.1-.2H25c-.1.2-.2.2-.4.1h-1.1V62h.5l.3-.1-.1-.6h.6c0 .3.2.3.3.4v.5c.3 0 .5-.1.7.1l-.2.3v.1Zm13.9 1.8c-.5 0-.5 0-.5-.8-.3.1-.5 0-.7-.1v-.6c.1-.2.4-.3.6-.3l.4.2h.2c.3-.2.5 0 .7.2l.1.2.1.2v.3l-.4.2h-.3l-.2.5Zm-12.7-3.6.1-.4h.2v.1c0 .2 0 .5-.2.6l.3.4h.2v.1l-.3.2-.2.2.2.3-.2.4.3.4v.2h-.6l-.1.2c-.1.2-.2.2-.3.1v-.3l.3-.2.2-.3-.1-.1c-.3-.2-.3-.3-.2-.6l-.4-.8h.4c0-.3.1-.5.4-.4Zm20.6-6.9c0-.3 0-.6.2-.8v-.6l-.2-.2c0-.2 0-.3.2-.3h.4l.3-.1h.2c.2.2.4.5.3.8l-.2.2c-.2 0-.2.2-.4.3.2.3.1.6-.1.9-.2-.1-.4-.4-.7-.2ZM10.3 64l-.3.4-.1.2-.2.4v.3s-.1-.1-.2 0h-.2V65l.3-.3-.3.1-.2.1-.2-.1-.2-.1v-.3l-.3-.1-.2-.2.3-.4c.2 0 .2.3.4.3 0 0 0-.2.2-.3 0-.2.1-.2.3-.2l.4.1.4.3Zm22.3-21.2.5.4h.2c.2.1.3.3.2.4l-.2.4c-.1.4-.5.6-.9.4l-.2-.3-.3-.2v-.2l.1-.5c.2-.2.3-.4.6-.4Zm7.7 17.4.4.3.2.2.2.2v.2l-.2.3c-.2.2-.4.2-.7 0 0 0-.1-.1-.2 0l-.1-.2v-.3h-.4l.3-.7v-.5l.1-.3c.2 0 .3.1.4.3v.4Zm-17.5-4.5c-.3-.2 0-.4-.1-.6l-.2.1v.2c0 .1-.1.2-.3.2H22l-.4-.7.2-.2c0-.2.1-.3.3-.3h.4c.2 0 .4 0 .5.2l-.1.3.4-.2v-.3h.2v.7c0 .3-.2.5-.6.5h-.1Zm13.6 5.9c-.3 0-.5 0-.7-.2l-.3-.2c-.4-.2-.5-.4-.4-.8V60l.2-.1h.1l.3.2c.2 0 .4 0 .5.3l.1.3c.2 0 .2.1.3.3v.3l-.1.3Zm7.8-20.3c-.3 0-.3-.1-.5-.2h-.4l-.1-.3v-.4c.2 0 .3.1.4 0l.2-.3c.1-.2.3-.3.5-.2h.3c0 .2 0 .4.3.5v.3c-.2.2-.3.3-.5.3l-.2.4Zm4.4 4.7v-.4l.1-.2c.2 0 .2-.2.3-.3 0-.1.2-.2.3-.1.2 0 .4.1.4.3v.5c-.1.2-.3-.1-.5.1l.1.2c.1.1.1.3 0 .4 0 .1-.1.2-.3.1l-.5-.1c-.2 0-.3-.3-.2-.3 0-.1.1-.2.2-.1h.2Zm-14.8 3.3-.2-.4v-.1c-.3-.3-.3-.4-.2-.7l-.1-.1c-.1-.1-.2-.2-.1-.3v-.2l-.2-.2c.2-.2.4-.2.6 0l.4.3s-.2 0-.2.2v.3h.1c.3.1.4.3.5.5l-.1.5c-.2.1-.3.3-.5.2Zm-4.1 11.8.3-.4.3-.5.5.5v.1a17.4 17.4 0 0 1 0 .9l-.1.2-.1.2-.4.2c-.2-.1-.2-.1-.2-.4 0-.3 0-.5-.3-.8Zm-9.3 10.4c-.2.4-.5.6-.8.6h-.2c-.1-.3-.3-.4-.4-.5-.2-.5 0-.7.4-.8.1 0 .3 0 .4-.2h.2v.2c0 .1 0 .2.2.3 0 .1 0 .3.2.4ZM12 67.3c-.4 0-.5-.2-.7-.2-.1-.2 0-.3.1-.4l-.6-.9V65h.2l.2.6.2.1-.1-.4c.3-.3.5 0 .6 0 0 .2 0 .3-.2.3l-.2.2.2.2c.1.3.2.5 0 .7-.1.2-.1.2 0 .4.2 0 .3.2.2.3Zm19.3-16.5v.2l.5.4c0 .2-.2.3-.3.3H31l-.2-.1h-.1c-.2-.2-.4-.1-.5-.2l-.3-.1v-.1c-.2-.1-.2-.3-.1-.4l.2-.3h.2c.2.1.5.1.7.3h.3Zm10.5 4.4v.3l.3.2h.3c.4.2.5.6.2.8v.2l-.2.2H42c-.2 0-.5-.1-.5-.4l.1-.5v-.3c0-.2 0-.3.2-.5Zm-12.9-.4h-.2c0 .1-.1.2-.2.1h-.3l-.1-.2c-.2-.3-.2-.4-.1-.7l-.2-.2a.3.3 0 0 1 0-.4c0-.2.2-.3.3-.2.1 0 .3.1.3.3v.3l-.2.2h.3l.2.2.3-.3.3.4c0 .2-.2.4-.4.4Zm8.3 2.7.2.2-.2.2.2.4.4-.2c.3.3.3.4.1.8l-.2.3-.2.1-.4-.1c-.1 0-.3-.4-.2-.6l.1-.4c-.1 0-.2-.2-.1-.4 0-.1.1-.3.3-.3Zm-21-2.4h-.4l-.5.1h-.2v-.8c-.2-.2-.2-.3 0-.5l.3-.2c0 .2.2.3.4.3h.3l.1.4.1.2-.1.5ZM46.4 48c-.1-.2-.3-.3-.3-.6l.3-.1c.2-.1.2-.3.2-.5 0-.1 0-.2.2-.2.3.2.3.2.6 0h.3l.1.3-.2.3h-.3v.2l-.1.4s-.2.1-.2 0l-.6.1Zm-16.9 4.2q.3.2.6 0c.2.2.2.4.2.6v.5c0 .2 0 .3-.4.3v-.3h-.6l-.2.2-.2.3c-.2-.3-.2-.4.2-.5.1-.3.2-.5 0-.7l.4-.4Zm16.4 4.7.5-.2.2-.3.1.2-.1.2.2.4.1.2-.1.3h-1l-.4-.2c0-.1.3-.2.2-.4 0-.2.3 0 .3-.2ZM22 63.5v.1h-.6v.3l-.5.2c-.1 0-.2 0-.2-.2 0-.1-.2-.3 0-.4l-.2-.2V63c.4-.3.6-.3 1 0l-.1.2c.3 0 .5 0 .6.3Zm14.4-22.6c0 .3-.2.2-.3.3l-.3.3v.3h-.1l-.4-.2c-.3 0-.3-.2-.2-.4v-.5l.6-.2h.2c.2.2.2.4.5.4Zm16 3.3c0 .5-.2.7-.6.9l-.4-.2c-.2 0-.4-.4-.2-.6l.1-.2.3-.3c0-.1.2-.1.2 0 0 .2.3.3.5.4ZM22.3 61.7H22v.5c-.2.2-.4 0-.6.1l-.6-.2v-.3c-.2 0-.2-.1 0-.2l.4.1c.3-.1.4-.3.5-.5h.6v.5Zm10-5.4v.2c.2.1.1.3.1.4v.4c-.3 0-.4.3-.6.4 0 .3-.1.4-.2.3-.1 0-.3-.1-.2-.3l.1-.2.1-.5v-.3c0-.2.1-.3.3-.3.1 0 .2-.2.4-.1ZM6 70v.2c-.3 0-.3.2-.2.3l-.5.4c-.2 0-.2-.1-.2-.3v-.3c-.1 0-.2-.2-.3-.1l-.2-.1-.1.5c-.3-.3 0-.5.1-.7l-.1-.3.3-.2c.2-.1.4 0 .4.2l.1.3.3.2.3-.1Zm32-16.2h.1c.2-.2.4-.3.6-.1l.4.2v.4c-.3.2-.5.2-.7 0-.1.2-.2.2-.4.2v.2c-.2-.2-.5-.3-.6-.6.1-.2.4 0 .5-.3ZM13.9 63v.3c0 .2 0 .3-.2.4h-.9c-.2-.5-.1-.9.2-1 .2.2.6 0 .9.2Zm-2.2 1.5-.2.2c-.3.1-.5 0-.5-.4s.2-.4.6-.3h.1c0-.5 0-.6.5-.7.3 0 .3.4.3.6v.2c-.5-.1-.8 0-.8.4Zm4.9 5.1h-.4c-.3 0-.5 0-.7.2h-.2l.1-.3c.2-.1.2-.3.4-.3-.1-.3-.5-.2-.5-.5l.4-.5h.3c0 .2.2.3.3.5l-.3.3v.4c.3.2.3-.2.6-.1v.3ZM24 56c.2 0 .4-.1.5-.3h.3v.2c.1.2.2.4.1.7v.3h-.4c-.2 0-.4 0-.5-.2 0-.2-.2-.4 0-.7Zm1.6-5.9c-.1-.3 0-.6-.3-.8.1-.2.2-.2.4-.2h.2c.3 0 .4 0 .4.3l.1.3c0 .2 0 .4-.2.5h-.6Z"/><path d="M35.6 59c.2.2 0 .6.2 1-.3 0-.4 0-.5-.4h-.2c0-.2-.3-.5 0-.8 0-.4.2-.5.5-.3h.2v.1l-.2.3ZM33 61.7l.3-.3h.3c.1.2.2.4.1.5l-.2.3c.2 0 .3.4.6.4 0 .4-.2.6-.6.5 0-.2 0-.4-.3-.5v-.1l.2-.3c-.3-.1-.4-.3-.4-.5Zm5.2-4.6.3-.2.3.3h.3v.4l-.4.2h-.5l-.1-.3-.6-.2.2-.3.2-.2c.1 0 .3 0 .3.2v.1ZM14.9 70.6c.3 0 .6 0 .7.3h.3l.3.1v.4h-.6c-.4 0-.5-.1-.7-.4l-.1-.1-.2-.2c0-.2.2 0 .3 0Zm27.3-27.8c-.2 0-.4 0-.5-.3-.1-.2.1-.2.2-.4l-.1-.3.1-.2c0-.1-.2-.3-.1-.5 0-.1.2-.1.4 0l.1.3v.6c.2.3 0 .5 0 .8Zm-5.5 12c-.4 0-.4-.1-.5-.6l-.2.1c-.2-.2-.2-.3 0-.4l.2-.1-.1-.2c0-.1.2-.2.3 0h.2l.2.1.3.3c0 .2 0 .4-.2.6l-.2.2Zm-20.5 9.5.2-.3c.4.5.5.6.2 1.1h.3l.2.1c0 .2 0 .4-.2.5h-.4l-.3-.4.4-.2h-.2c-.2 0-.3 0-.2-.2.2-.2 0-.4 0-.6Zm18.1.7-.2-.4.3-.3c.2.2.2.3.2.5 0 0-.1.2 0 .4l.3-.2s.2 0 .2.3c0 0-.2.1-.4 0v.2c0 .2-.2.3-.3.4-.2 0-.4 0-.5-.2-.1-.3 0-.4.2-.6l.2-.1Zm4.5-4.9-.3.6v.4H38c-.3-.2-.3-.4-.3-.7l.4-.4.2-.1c.2 0 .4 0 .5.2Zm-15 .8-.4.3v.1c-.1.2-.2.3-.4.3s-.3-.1-.3-.3c0-.2 0-.4-.2-.6h.3l.2-.1c.1-.2.3-.1.5 0 0 0 .2 0 .3.3ZM17 54.3l-.4-.5v-.3c0-.2 0-.4.2-.6h.3l.1.2c.3 0 .3.3.3.5s-.3.6-.5.7Zm-6.6 5.4v-.2l.2-.1c0-.2 0-.3-.3-.4-.4-.2-.3-.7 0-1l.5.1c.1 0 .3.3.2.5v.2c-.2.2-.3.3-.2.6l-.1.1-.3.2ZM38 45.8c-.2 0-.3 0-.3.2 0 .1-.2.3-.4.3l-.3-.4v-.3s.1-.2 0-.4l.1-.1h.5l.3.2.1.5ZM26.3 70.5c-.2.3 0 .5 0 .7v.2l-.5.2c-.2 0-.3 0-.3-.2l-.1-.2c-.2-.3-.1-.6.2-.6h.3l.3-.1Zm-1.5-9.8H24c0-.5 0-.6.5-.6 0-.2.2-.4.5-.4.2 0 .2.3.3.4l-.1.3c-.2 0-.5 0-.5.3Zm-5-4.5c0 .1 0 .2-.3.1l-.3.1c-.2.3-.3.2-.5 0l.2-.2-.7-.5v-.3l.4-.2c.2 0 .3 0 .4.2l-.2.3.2.4.2.1h.6Zm-.1 4.7v.1h-.3v-.7c.2-.2.4-.2.6-.2.2 0 .3.2.4.4v.2l-.2.3c-.2.2-.3-.1-.5-.1ZM7.8 63.3l-.2.4.3.1v.3h-.4l-.3-.1-.4-.3v-.4c.2-.3.3-.3.6-.1h.4Zm.6 2.1v.3h.1l.2.1v.2H8l-.1-.3h-.2a.5.5 0 0 1-.3-.5c0-.3.5-.4.6-.2l.3.3ZM43.7 40c-.2.2-.5.1-.7.1 0-.3-.2-.4-.4-.5.1-.3.2-.4.5-.4l.5.1v.7Zm-2.9 1.2c-.5-.7-.5-.7-.1-1.2.4.2.5.6.3 1v.2l.2.2v.2h-.5v-.2l.1-.2Zm2 16.1c0-.2.1-.4.3-.5l.4-.2v.6h.6c0 .1 0 .3-.2.5s-.4 0-.6 0v-.3l-.5-.1Zm4-13.7.3.2h.3s.2.1.2.3l-.2.1c-.1.1-.2.3-.4.2l-.4.1c-.1 0-.4-.1-.4-.4l.3-.2c.2 0 .1-.2.3-.3ZM19 67.7c-.2.3-.4.4-.7.3-.2 0-.3-.2-.3-.4V67h.5c.2.1.4.4.4.7Zm17.2-2.4v.1c0 .2.2.3.3.4.2.2.1.4 0 .6-.2.1-.3.2-.5 0-.4-.2-.4-.5-.2-.7l.4-.4ZM26.9 54l.2.1.3-.1.5.2c-.1.3 0 .6-.2.8h-.5l-.1-.5-.2-.5Zm-9.8 2.7v-.4h.1l.2.2.1-.1.1.4h.3c0 .3 0 .4-.2.3-.1 0-.2 0-.2.2l.2.1c-.1 0-.2.2-.3 0H17c-.2-.2 0-.5 0-.7ZM35.7 40c.2-.3.5-.4.7-.3h.2l.3.1v.3l-.4.2h-.3c-.2 0-.3 0-.4-.2V40ZM11.4 58.6c.2-.2.4-.2.5-.2l.3.1.3.3-.6.2.1.5v.2h-.3a.3.3 0 0 1-.1-.4c0-.3 0-.5-.2-.7Zm-2.6-2-.5-.3c-.1 0-.2 0-.2-.2v-.3c0-.2.1-.3.3-.2h.1c.2-.1.3 0 .4.1.1.1.1.3 0 .4v.5h-.1Zm5.5 12.1h.3c0 .2 0 .3-.3.2h-.1c-.2 0-.3 0-.3-.2s-.1-.3-.3-.3V68h-.3v-.2c.1-.1.2 0 .4 0l.6.2c.1.2-.2.4 0 .6Zm31-19.5h.3c.2.1.4.2.4.4v.2l.3-.3c.3.3.3.4 0 .7v-.1L46 50h-.3q-.4-.1-.5-.8Zm-8.7 16c-.3 0-.5-.1-.6-.5h-.2v-.3c0-.1.1 0 .2 0l-.1-.3c0-.1 0-.2.1 0 .1.1.3.3.5.3.2.2.3.5.1.8Zm10.4-19c-.2-.2-.4-.3-.3-.6h.4l.3-.3c.2.1.3.3.3.6l-.1.3h-.7Zm-16.6 20 .5-.2.4.3c.1.2 0 .4-.2.5-.2.2-.3.1-.5-.1a.5.5 0 0 1-.2-.5Zm-.5-12.1.2.1h.4l.2.4-.3.2c-.2 0-.3 0-.4.2-.4-.3-.5-.6-.1-.9Zm16.7-14.4c-.3.1 0 .4-.3.6-.2 0-.3-.2-.5-.4.2-.2 0-.3 0-.5.1-.2.3-.2.5 0l.4.3Zm-37.1 23c.2.2.2.4 0 .7l-.2-.1q-.5.2-.8 0c0-.2.2-.5.5-.5h.5ZM31.1 56c.2 0 .4.1.5.3l-.4.6H31c-.3 0-.5-.3-.3-.6l.4-.4Zm17.7-12v-.3c0-.2 0-.3.3-.3s.5 0 .6.4v.2c-.1.1-.4.2-.6.1l-.3-.1Zm-13.3 7.2c-.2 0-.2-.1-.3-.2h-.4v-.4l.4-.3h.3l.3.5-.1.2-.2.2Zm-5.9 15.6h-.2v.1c0 .2-.1.3-.3.2-.1 0-.2 0-.3-.2v-.4l.2-.3c.2 0 .3 0 .4.2.2.1.2.2.2.4ZM27.5 49l.4-.3c.2 0 .3 0 .4.2.2.1.1.3 0 .4v.1c-.3.2-.5.2-.7 0l-.1-.5ZM7.7 67.8h.5l.2.6-.2.2h-.7l-.1-.1c0-.2.1-.1.2-.2v-.5Zm18.9.2-.1.1c-.2 0-.4 0-.5-.2v-.6h-.4l.1-.3.4.2.2.2c.2 0 .3.1.3.3v.3Zm19.3-17.5v.4l-.3.2-.5.1V51c-.2-.2 0-.4 0-.6.3 0 .5.3.8.2Zm-6.2-10.7s.2 0 .3.2c0 0 .1.1 0 .2 0 0-.2.1-.2 0l-.3-.1-.2-.2v-.4c0-.1 0-.2.2-.3h.3c.2.3.1.4 0 .5l-.1.1Zm-6.8 25h-.4c0 .1-.1 0-.2 0l-.1-.3-.1-.5c.3-.2.4-.1.5.1 0 .2.1.3.3.3v.4Zm5.5-20.4c0 .1.1.3 0 .4v.4L38 45c-.2 0-.3-.3-.2-.6v-.2l.6.1ZM16.3 55.7c.3 0 .5-.3.7 0l-.4.5.1.2c-.2.2-.2.2-.4 0v.2h-.2l.2-.4v-.5Zm27.5-20c.1-.2.5-.2.5-.5l.4.2v.4l-.2.1h-.2l-.2.1-.3-.2Zm-35 31.4.4-.1c.2 0 .3 0 .4.2l.1.4s-.2 0-.2.2h-.3a.3.3 0 0 1-.3-.4v-.3Zm25.6-5.3v-.5l.4-.2.3.1v.4c0 .1 0 .2-.2.2h-.5Zm-21.8 8.5-.2-.1-.1-.3c0-.1-.2-.1-.2-.3h.3l-.2-.3h.3v.3q0 .3.4.3v.6l-.1.2-.1-.1v-.3Z"/><path d="M18.9 67.7h.4c.1.2.2.4.1.6l.1.3c-.2.3-.5.2-.8 0l.4-.3-.2-.6ZM7.4 64.3v.3c-.1.2-.3.3-.4.2h-.6L7 64c.2 0 .3 0 .4.2ZM19.1 55c.2-.1.3-.3.5-.2.3 0 .3.3.3.5h.2l-.1.2h-.7l-.2-.6ZM35 43l-.4.4c0 .1-.1.2-.3.2H34l-.2-.1c0-.3.2-.4.4-.5h.7Zm13.3-1.1-.5.2c-.2 0-.4 0-.4-.3l.3-.3.1-.2c.5 0 .6.2.5.6Zm-10.1-5.6-.3-.1-.2-.4.4-.4.4.3v.2l-.2.2-.1.2ZM22 63.5c.1-.2.2-.4.4-.4l.6.3c0 .2 0 .3-.2.4h-.6l-.2-.3Zm9 .2c-.3 0-.3-.4-.3-.6l.3-.3h.3l.2-.3c.2.3 0 .5-.3.6l-.1.6Zm-16.6 9.2v.3c0 .3 0 .3-.2.4l-.3.1c-.2-.2-.4-.4-.2-.7h.7ZM47 48.8l-.3-.2c-.2 0-.1 0-.1-.1l.2-.2.5-.2c.2 0 .2.3.4.3-.2.3-.4.4-.8.3ZM5.2 66.4h.3v.3l-.1.4c0 .2-.3.3-.5.2l-.2-.1c0-.4.1-.6.6-.5l-.1-.3Zm34.3-17.6.1.4-.6.3h-.2l-.1-.5c0-.1.1-.2.3-.2l.2.1h.3Zm7.2-8.8.7-.3c.3.3.3.5 0 .8l-.4-.2-.2-.4ZM40 65.8h-.3c-.2-.1-.3-.4-.3-.6V65l.5.2.1.2c0 .1.2.3 0 .5Zm-3.2-9.9.2-.1.2.1.2.2v.4c-.1.1-.3.2-.4.1-.1 0-.3-.2-.2-.4V56ZM9.5 69h.3v-.2c.2 0 .3-.2.4-.3h.1v.3c0 .2 0 .2-.2.2l.1.2s0 .2-.2.3c-.3 0-.4 0-.5-.3Zm6-7h.5l.1.4h.3c.1 0 .2 0 .3.2-.2.2-.4 0-.6.1l-.1-.3c-.4 0-.5 0-.6-.4Zm5.7-7.6-.2-.3c-.1-.1 0-.2 0-.4h.4s.2 0 .2.2c.1.2 0 .4-.2.5h-.2Zm21.1-16.7-.4.2c-.2-.2-.3-.3-.2-.5 0-.1.3-.3.4-.2.2 0 .2.2.2.5Zm3.6 7c.2.2.2.4 0 .6l-.2.3c-.1 0-.2 0-.3-.2a.3.3 0 0 1 0-.4l.1-.1c.2 0 .3-.1.3-.2Zm-6.8-3.4V41c-.2 0-.4 0-.4-.3-.3 0-.4 0-.5-.3l.4-.2.3.4c.2 0 .4 0 .4.4 0 0 0 .2-.2.2ZM20 58.7l-.2.2h-.5c-.2 0-.3-.2-.1-.4l.5-.2c.2 0 .2.2.2.4Zm5.5-5.9c0 .2 0 .4-.2.4l-.2.2-.3-.2v-.4h.7Zm5.1 2.4.5-.2.1.3v.2l-.2.2c-.1.2-.2.2-.3 0a.8.8 0 0 1-.1-.5Zm16.6-19.6c.2 0 .4-.3.5 0v.5h-.5v-.5Zm-3.1 11.1.3.2.1.2-.6.3c0-.1 0-.3-.3-.3l.2-.4h.3ZM14.7 70l-.2-.1c-.2-.2-.2-.3-.1-.4 0-.2.2-.3.4-.3l.4.1-.2.1.1.2-.4.4ZM24 54.4c.5 0 .5 0 .6.5-.3.3-.4.3-.8-.1l.2-.4Zm13.3 6.7h.3c.2 0 .3 0 .4.2 0 .1 0 .3-.2.4-.2.1-.4.1-.5-.1-.1-.2 0-.3 0-.4Zm-17.4 1.2c-.2-.3-.2-.4.1-.7l.5.2v.4c-.2.1-.4-.2-.6 0Zm-4.6-5q-.2 0-.2-.3c0-.2.2-.3.3-.5.3 0 .3 0 .4.5l-.5.3ZM36.9 68l-.2-.7h.5l.3.4c-.1.3-.2.3-.6.2Zm-20.8-7.4-.4-.2.2-.2.5-.3h.2v.3l-.2.3-.3.1ZM8 60c-.3 0-.3 0-.3-.5l.6-.1.1.3-.4.4Zm28.8 2.6h-.4s-.3 0-.3-.2v-.3l.2-.1.5.3v.3Zm-24.3 5V67l.4-.2.1.3v.2c.2 0 .1.2 0 .4l-.5-.2Zm-.9-14.4c.4-.2.6-.1.8.2l.1.3c-.4 0-.7 0-.9-.5Zm-7.8 10c.5.1.5.3.3.9-.1-.2-.4-.2-.4-.5l.1-.4Zm32.7-25.8c0 .2.3.3.3.5s-.2.2-.3.2l-.4-.3c0-.3 0-.3.4-.4Zm-27.2 35q.2.1.4 0c.3 0 .6.1.5.4-.1.2-.4.2-.5 0l-.2-.1-.2-.3ZM19 51.5l.3.5c-.2.3-.2.3-.4.2-.2 0-.3-.2-.3-.4 0-.1.1-.2.4-.3ZM30 49l-.2.1c-.3 0-.4 0-.4-.2s0-.4.3-.4h.2l.2.5Zm-.5-2.7c-.4.4-.5.3-1-.2h.3c.3-.2.5 0 .7.2ZM28 58.5l-.1.3c0 .2-.2.3-.4.2l-.2-.4c0-.1.1-.2.3-.2l.4.1Zm15.9-3.1.1.2-.4.1-.2-.3v-.2c.1-.2.4-.3.6 0 .1 0 0 .1 0 .2Zm-5.5-.9.1.3v.2c.1.3 0 .4-.2.5H38c0-.1-.1-.2 0-.4l.1-.2c0-.2 0-.2.2-.3ZM13.5 67c-.2 0-.3-.1-.3-.3.2-.2.3-.2.3 0l.2.3.1.1c.1.1.2.2 0 .3 0 .1-.1.2-.2.1-.1 0-.2 0-.1-.2V67Z"/><path d="m35 43-.2-.2c-.1 0-.2-.1-.1-.2l.3-.2.2.1c.2.2.2.3 0 .6l-.3-.1Zm14.1-3.9c.3-.2.4-.2.5 0 0 0 .1.3 0 .4l-.3.1-.1-.1-.1-.4ZM17 60.2h.1c.4.2.4.3.2.6-.4 0-.4-.3-.6-.4 0-.2.1-.2.2-.2Zm20.8-20.5c0-.2-.2-.3-.3-.5.2-.2.3-.4.6-.4v.4c.1.2-.1.3-.3.5ZM20.5 58.9l.1.2.1.2c-.2.1-.3.2-.5 0H20c0-.4 0-.4.5-.4ZM19 53.3l-.1.6h-.5l.1-.5c.2-.2.2-.2.5 0Zm7 12v.4c-.2.2-.2.2-.6 0v-.4h.6Zm19.6-18.8.1-.2c0-.2.1-.2.2-.2l.4.5h-.2c0 .2-.1.2-.3.1 0 0-.2 0-.2-.3Zm-19.2 4.9-.2-.2c0-.2 0-.3.2-.5.2 0 .3 0 .4.2 0 .2 0 .3-.2.4l-.2.1ZM13.5 68.5c-.1.1-.3.3-.5.2l-.2-.4.3-.2c.2 0 .3 0 .4.4Z"/><path d="M45.6 46.5h-.2c0 .2.2.3.1.5l.1.2.1.1-.4-.1c-.1 0-.1-.2 0-.4l-.3-.1c0-.3 0-.3.3-.2h.3Zm1.2 5c-.2 0-.4.2-.5 0 0-.2.2-.3.4-.3.2-.1.2.1.4 0v.4l-.2.1c-.1 0 0 0 0-.1h-.1Zm-2.3-8.9c-.1.3-.2.4-.6.2v-.3c.3-.2.4-.2.6 0ZM46 48l-.4.1h-.5c.2-.4.3-.5.7-.4l.1.3ZM24.8 60.7l.3-.2c.1 0 .2 0 .2.2l.1.1c-.1.2-.3.2-.5.3h-.3c0-.2.1-.2.2-.3v-.1ZM9.1 68.4h-.4l-.3-.5.3-.2c.1.2.4.4.4.7ZM12 68c.4-.2.4-.1.7.2q-.1.2-.6.3l-.1-.2c0-.1.2-.1 0-.2Zm22.4-23v.2l-.3.1c-.2 0-.3 0-.3-.2V45c.1-.1.3-.2.4-.1l.2.2Zm2.2 9.8c.2 0 .4.2.4.4v.3h-.3c-.2-.2-.2-.4 0-.7Zm-20.2 7.3.1-.5s-.1-.2 0-.2h.2l.1.2v.4c0 .2 0 .3-.4.2Zm-6.3 11c.2 0 .4-.4.7 0l-.3.4c-.3 0-.3-.1-.4-.4ZM34 55c.4 0 .4.2.5.4l-.3.3c-.3-.2-.3-.2-.2-.5l.1-.2ZM3.3 69.7c-.1.2-.4.3-.5.6l-.1-.2v-.5c.2-.1.3-.2.4 0l.2.1ZM41 39.5l-.2-.3c0-.2.1-.3.3-.3l.3.3c0 .2-.1.3-.3.3H41Zm3.7 8 .1-.2.2.1v.4c-.1.3-.3 0-.6 0l.1-.2-.2-.2.4.1Zm-8.8 15.8c-.2 0-.3 0-.4-.2 0-.1 0-.2.2-.3.1 0 .3 0 .4.2 0 .1 0 .2-.2.3ZM6.3 65.2c-.5 0-.6 0-.7-.4.3-.2.5-.1.7.4Zm9.7-7.5-.1.5h-.5c0-.4.3-.5.6-.5Zm10 5.8c0 .2 0 .5-.2.6h-.3l-.1-.2c.2 0 .2-.4.6-.4Zm13.2-12.8v.3c-.2.3-.4.3-.5-.1 0-.3.2-.3.5-.2Zm-24 10.6c0-.3 0-.5.2-.5s.3 0 .4.2c-.3 0-.2.4-.6.3Zm22-17.3q-.1.3-.4.3c-.2-.2-.2-.3 0-.4 0-.2.2-.2.4 0Zm9.8-1.8-.2.4c-.3 0-.3-.3-.4-.5.3-.2.4 0 .6.1Zm-36.5 13c.1 0 .3 0 .3.2l-.1.3-.4-.1c0-.2 0-.3.2-.4ZM19 70c-.3.4-.3.4-.7 0 .3-.3.4-.3.7 0Zm22.7-18.4c-.1 0-.3 0-.3-.2 0-.1 0-.3.2-.4.1 0 .2 0 .2.2l-.1.4Zm-12.8 3.2h.1l.2.1.3.2c-.2.2-.2.2-.6.2 0-.2-.2-.3 0-.5ZM10 70.3c.2-.1.3-.4.6-.2l-.2.6c0-.2-.3-.1-.4-.4Zm20.8-18.1-.4-.1v-.3l.2-.1c.3.2.3.3.2.5ZM14.6 71.8l.3.1.1.2c0 .1 0 .2-.2.2s-.3-.1-.3-.3v-.2Zm-.6-7.4c0-.3 0-.5.3-.6l.1.4s-.2.2-.5.2Zm13.6-12c.2 0 .2 0 .4.4l-.3.2h-.2l.1-.6Zm20.9 6.3c0-.2-.1-.5.2-.6l.3.3c-.2.2-.3.4-.5.3ZM4 71v.5c-.2.1-.3.2-.5.1.1-.2.1-.5.5-.5Zm10.3.2h.1c.1.1.2.1.2.3l-.1.2h-.2c-.1 0-.2 0-.2-.2l.2-.3Zm.5 2c-.3-.2-.3-.2-.2-.6.4.1.5.2.2.6Zm13.9-11.7c0-.1-.1-.3 0-.4l.3-.2.2.2v.2l-.5.2Zm.3-8.6h-.5v-.3l.3-.2c.1 0 .2.1.2.3v.2Zm-12.6-.8.6.2-.1.4c-.4 0-.4-.3-.4-.6Zm1.8 8.5h.5v.5c-.4 0-.5-.1-.5-.5ZM17 60c.1-.2.3-.3.5-.3.2.2.2.2 0 .3-.1.2-.2.2-.4 0Zm1.2.6c-.1.1-.3.2-.5.1l-.1-.3c.2-.2.4-.2.5.2h.1ZM46 58.7l.2.2c.3-.1.3 0 .4.2h-.3c-.2 0-.4-.1-.4-.4Zm-25-3.2h-.6v-.1l.3-.3.3.4ZM1.6 67.3l-.1.4h-.3v-.3c0-.1.1-.1.4 0ZM31 62c.4 0 .4.2.1.5l-.1-.2c-.2-.1-.2-.2 0-.4Zm-13.5-6.9c0-.2.2-.3.4-.4l.2.1v.2c-.2.3-.3.3-.6.1ZM29 49.8l-.2-.1c0-.2.1-.4.3-.5l.2.2-.2.4ZM24.4 68c-.2 0-.2-.1-.2-.3l.2-.1c.1 0 .2 0 .3.2l-.1.2h-.2Zm12.7-23.4h.4c.1 0 .2.1.1.3h-.2c-.2 0-.3 0-.2-.3Zm-11.8 4.5h-.5v-.4c.3 0 .4 0 .5.4ZM46 41.6c-.2-.3-.1-.5.3-.5.1.3 0 .4-.2.4l-.2.1ZM10 61.3l.2-.3c.3.2.3.2.2.7-.2 0-.3-.3-.4-.4Zm1 .3.5-.4q.2.1 0 .3c0 .3-.2.3-.4.3v-.2Zm-5.4 1.7.4.1c0 .4-.3.3-.5.3-.1-.2 0-.3.1-.4Zm4-6.2c0 .1-.1.2-.2 0-.2 0-.2-.2-.2-.4.3 0 .4.1.4.4Zm2.8.7.2.1-.1.3-.3-.1c0-.2 0-.3.2-.3ZM26.2 54c-.2 0-.3 0-.3-.2l.1-.3.3.1-.1.3Zm17.3-16c0 .2-.2.2-.3.3l-.2-.1c0-.2.2-.3.3-.3.2 0 .2 0 .2.2ZM23.1 61.9l.3.2-.2.3-.2-.1c0-.2 0-.3.2-.4Zm21-6.9c0-.3.1-.5.4-.6l.1.3c-.1.1-.3.3-.5.2Zm-27.7 4.5c0-.3.1-.3.3-.3h.3c0 .2-.1.3-.2.3h-.3Zm-5.9 12.3-.1-.1-.2-.1c.1-.1.1-.3.3-.2l.2.2c0 .2 0 .2-.2.3ZM41 57c.1-.2.2-.3.4-.2h.2l-.1.3H41ZM8 70.5c.4 0 .4.1.4.4-.3 0-.4 0-.4-.4Zm18.9-20.6c-.3-.2-.3-.2-.3-.5h.2c.1 0 .2.1.2.3v.2Zm-4.4 12.8c-.1.1-.2.2-.4.1l-.1-.1v-.1c.3-.2.4-.2.5 0Zm-11.1 9.1-.1-.7.1-.3c.1.2.1.3 0 .4v.6Zm30.5-14.3h.2c.1 0 .4 0 .5.2h-.2l-.5-.2Zm-30.2 5.7h-.3v-.4c.2 0 .3 0 .4.2 0 .1 0 .2-.2.2ZM9 69.4c-.2-.2-.2-.4-.1-.6.1 0 .2 0 .2.2v.4Zm23.4-6.6-.4.1.1-.3h.2l.1.2Zm17.2-8.1c0-.2.2-.3.4-.3.1.2.1.2 0 .4l-.4-.1Zm-23.9 8.2c0-.1.1-.2.3-.2l.2.3c-.2.2-.3.2-.4 0l-.1-.1ZM39 41.7s0-.2.2-.3c0 0 .2 0 .3.2 0 0 0 .2-.2.2H39Zm6.3 0c.1-.2.2-.2.4-.2l.1.3h-.3l-.2-.1Zm-9.8 27.6c.2-.2.3-.2.4 0v.2c-.2 0-.2.2-.4.1v-.3Zm-2.2-16.5.3-.1.2.2c-.3.3-.4.3-.5 0Zm-19.9 4.4c-.2-.2-.2-.2.1-.4.1 0 .2.1.2.3l-.3.1ZM6 65.8l-.2.2h-.3c0-.3.1-.3.2-.4.1 0 .2 0 .3.2Zm36.8-15c.5 0 .6.1.4.4l-.3-.1v-.3ZM9.2 62.3s-.2 0-.2-.3c0 0 .1-.2.2-.1l.2.1c0 .1 0 .2-.2.3ZM38 65.8h-.4l-.1-.3q.3-.1.4.3ZM7.2 71.1l-.3.3c-.2 0-.3-.1-.3-.3.2 0 .4-.3.6 0Zm23-15.1-.2-.2.2-.3c.3.1.3.3 0 .5Zm14.4-8-.1.2H44V48l.3-.1.3.2Zm-5.9 1.6h.2v.2l.1.2v.2h-.2V50l-.1-.4ZM3.6 66l.2.1-.1.2h-.3c0-.2 0-.3.2-.3Zm6.5-3.4-.3-.1v-.2l.3-.1.2.1-.2.3ZM22.3 65c-.3 0-.3 0-.3-.3 0 0 0-.2.2-.1 0 0 .2 0 .1.2v.2Zm21.9-18.3s0-.1-.1 0l-.4-.2.3-.2.4.2v.2H44ZM10 67.4c-.1-.1 0-.3 0-.4l.2-.1c0 .2 0 .4-.2.5Zm1.4 1.4c0-.1 0-.2.2-.3.2.2.2.3 0 .6a.4.4 0 0 1-.2-.3ZM47 55h.3c0 .2 0 .4-.2.5-.2-.2-.2-.4 0-.6ZM34.8 39.1c-.2 0-.3-.1-.3-.3l.1-.1c.3.2.3.2.1.4Zm-28.3 29c-.3.2-.4.2-.4-.2q.3 0 .4.2Zm31.9-23.7v-.2h.2c.1 0 .3 0 .3.2v.2h-.2l-.1-.3-.2.1ZM4.8 65.5q.3.2.2.5c-.3-.2-.3-.2-.2-.5Zm5.2-5.3c-.1-.3-.1-.4.1-.4h.2v.3H10Zm15.4-4.7v.3h-.1c-.2 0-.2-.1-.2-.3h.4ZM6 67s0 .2-.2.3h-.1s-.1-.2 0-.2l.1-.2H6Zm15.3-1.5c-.2 0-.3 0-.4-.2l.2-.1.2.1v.2ZM3.2 69h-.4c0-.2 0-.3.3-.4v.3Zm4-1a6 6 0 0 1-.4 0v-.3q.2 0 .3.3Zm17.2-2.7.4.1v.2h-.3c-.2 0-.2 0-.1-.2ZM44 41.8v-.2c.2 0 .4 0 .4.2l-.1.2c-.1 0-.2 0-.3-.3ZM7.3 69.7H7v-.3h.2v.3Zm7.3-1.9c.2 0 .3.1.3.4h-.2c-.1 0-.1-.2 0-.4Zm1.8 2.8-.2.2-.3-.3.5.1ZM34.2 62v.4H34c0-.3 0-.3.2-.3Zm4.5-19.6c0-.1 0-.2.2-.2h.2v.2c-.2.1-.3.1-.4 0ZM4.8 73.1q.3.2.2.4c-.3 0-.3 0-.2-.4Zm41.4-24.9h.5l-.2.1v.2h-.3v-.4Zm-5.5 10.4-.1.4c-.3 0-.3-.1-.2-.4h.3Zm-9-.4c0-.2.2-.2.3-.2.2.1 0 .3 0 .4-.1 0-.2 0-.3-.2ZM36 51c.1-.1.2-.1.2 0v.3c-.2 0-.3-.2-.3-.3Zm6.9-8-.2-.2-.1-.1.1-.1.2.1v.2Zm2.5 13.4.2-.1.2-.1v.2c0 .1 0 .2-.2.2 0 0-.2 0-.2-.2Zm-.8-.8h-.3s-.1-.1 0-.2c.1 0 .3 0 .3.2Zm-1.1-8.2c.1.2 0 .3-.1.4-.2 0-.1-.2-.2-.3l.3-.1ZM19.9 53c0 .2 0 .3-.2.4v-.1c0-.2 0-.3.2-.4Zm-5.1 14.6h.3s.2 0 .2.2c0 0-.1.1-.2 0l-.2-.2Zm32.3-11.8q0-.3.3-.3v.3h-.3Zm-4.3-.3c.3 0 .3 0 .3.4-.2 0-.2 0-.3-.4Zm1.6-9v-.2c.2-.1.2 0 .2.3l-.2-.1ZM29.5 65.6l-.2.3h-.2v-.3h.4Zm-12.8 2.7c-.1 0-.3 0-.3-.2h.3v.2Zm-7.2 1.5.1-.3.2.2v.2l-.3-.1Zm1.3.8v-.1h.2c.1 0 .2 0 .1.2l-.3-.1Zm31.5-30.4h.3v.3h-.2l-.1-.3Zm9.7-2.3v-.3h.2l.1.3H52Zm-35.9 35h-.3v-.3q.2 0 .3.3Zm26.3-34.5v-.3h.2l.1.1v.1h-.3Zm-18.8 17 .1-.2.2.2-.1.2c-.1 0-.2 0-.3-.2ZM8.1 67.2c0 .2-.2.2-.4.2v-.2l.1-.2.3.1Zm37-9.7v.3c-.3 0-.4-.1-.4-.3h.4Zm-3.4 1.3v-.3h.2l.1.2-.3.1ZM13.3 70.9l.1-.1h.3v.2l-.4-.1Zm-12-.3.1-.2c.2 0 .3 0 .3.3l-.4-.1Zm.9-2.6.2.1q0 .2-.3.2v-.2Zm30.7-13.8q0-.2.2-.3c.1 0 .2.2.1.3h-.4ZM15.5 64.5l-.3.4c0-.3 0-.4.3-.4Zm-10 7.6c.2.2.2.2.1.4q-.2-.1-.1-.4Zm31-12c.2.1.3.2.2.3h-.2v-.3ZM19 66q-.3 0-.3-.3h.3v.2Zm-5 .8h.1v.3l-.3-.1.1-.2Zm9.7 2.5h-.3V69h.3v.3Zm13-28.3q-.1-.2 0-.4.2 0 0 .3Zm10.3-.2-.2.2h-.2v-.2h.3Zm-44.3 32-.1.2-.1-.1c0-.2 0-.2.2-.2Zm27.1-19.1c-.3 0-.3 0-.3-.2q.2 0 .2.2Zm9.8-13.4v.2h-.4v-.2h.4ZM13.3 69.5v.1H13v-.1c.1-.2.2 0 .3 0ZM47.4 58v-.3q.2.2 0 .4ZM9.2 66.2l.3.1v.1c-.2 0-.3 0-.3-.2Zm25.5-2.6h.3q-.2.2-.3 0Zm10-22.1c.1 0 .2-.2.3 0v.1h-.3ZM5.2 68.4l-.2-.2V68h.2l.1.4Zm25-1.4q-.2-.2-.1-.4l.2.2v.2Zm15.2-23.8q-.2-.1 0-.3.2 0 0 .3ZM6 68.5l.4.2c-.3.2-.4.2-.4-.1Zm15.3-3.9c-.1-.1-.3-.1-.2-.3h.2v.3Zm18.4-15.2c.2 0 .2.1.2.2l-.1.1h-.2v-.3Zm-7.3 14.1v-.3c.2.2.2.2 0 .3Zm-21.7 7.8.5-.2a5 5 0 0 0-.3.3l-.2-.1Zm.7.5h.1q-.1.3-.4 0h.3Zm21.4-9.4s0 .2-.2.1c0 0-.1-.1 0-.2h.2Zm-15.7 7.8.1.2v.1H17v-.3ZM4.7 66.6l-.1.2-.2-.1c0-.1.2-.2.3-.1ZM35 64.9v-.1h.2v.1s0 .1-.2 0ZM19.2 53.1h.2v.2c-.2 0-.2 0-.2-.2Zm18.1 3.8c0-.1 0-.2.2-.2 0 0 .1 0 0 .2h-.2ZM3.7 68.5q-.2 0-.3-.3c.2 0 .3.1.3.3Zm10.9-11.9h-.2l-.1-.1v-.1h.2v.2Zm22.6 8.7V65s.2 0 .2.2H37Zm-26.5 8.4q.2 0 0 .3v-.3Zm2.4-16 .1-.3.1.1c0 .2 0 .1-.2.2Zm11.6-3.2q-.3-.1-.1-.4l.1.4Zm8.8-2.4-.2-.1v-.2h.2v.3Zm11.3-3.8V48h.2v.2h-.2Zm-13 7.8c.1-.3.1-.3.4 0h-.4ZM12 70.1l.2.1-.1.3-.2-.1.1-.3Zm18.1-13.8h.2v.3H30v-.3ZM9.7 70.9c.2 0 .2.1.2.2q-.2 0-.2-.2Zm32.7-20.4h.3l-.1.2-.2-.3ZM15.7 53q-.2 0-.2-.2.2 0 .2.2Zm21.7 6.8v-.3l.2.1c0 .1 0 .2-.2.2Zm4.7-20.3h.1l.2.1-.1.1-.2-.1v-.1ZM7 65.6c-.2-.1-.2-.2 0-.3v.3Zm39.4-24v-.1h.3v.2l-.3-.1ZM28.3 61.9c0-.2 0-.2.2-.2l.1.2h-.3Zm10.5-13.8v-.3c.2.1 0 .2 0 .3ZM14 71.8l.3.1q-.2.1-.3-.1Zm-9.4-4.2-.2-.2v-.1h.2v.3Zm32.7-5.3V62h.1v.3ZM22 64c.1.1.2.2.1.3h-.2l.1-.3ZM5.8 69.8q.3 0 .3.2c-.1 0-.2 0-.3-.2Zm23.6-24.5c-.1.2-.2.2-.3-.1l.3.1ZM2.3 72.5l-.1-.2v-.1h.1v.3ZM37 60.1c.2 0 .2.1.3.2-.3 0-.3 0-.2-.1ZM44.1 44c0 .2-.2.2-.2 0 .1-.2.1 0 .2 0ZM14 69.3l.2-.3v.2c0 .1 0 0-.2 0ZM2.2 66.4v-.2l.3.2h-.3Zm13.1 2.5c-.2 0-.3 0-.3-.2l.1-.1.2.3ZM9 70.8c.2 0 .2.1.1.2-.1 0-.2 0 0-.2ZM48 43l.1.2h-.2V43ZM10.1 74.7c-.2 0-.2-.1-.1-.3l.1.3ZM43.6 49l.1-.2h.1l-.1.3Zm1.7-11c0-.1 0-.2.2-.2v.2c0 .1 0 0-.2 0ZM10.6 62.8c-.2-.1-.1-.2 0-.3v.3Zm27.4-14 .2-.1h.2v.1H38ZM8.6 69.6v.1h-.3l.2-.1ZM47 48.8v.1l-.3-.1h.2ZM11.6 61c-.2-.1-.1-.2-.1-.3.2 0 .1.1 0 .3Zm-6.1 8.1.1-.1h.2v.2h-.3Z"/><path d="M12 68h-.2v-.2c.2 0 .3.1.3.3Zm20.9-2.6V65c.2.2.1.3 0 .3Zm2.4-20.8-.1.3-.1-.1.1-.2Zm-31 24.1q-.1-.2.1-.2l-.1.2Zm5.2 4.8-.2-.3h.2v.3ZM25 53.6l.2-.1h.1v.2l-.3-.1Zm-7.3 9.9-.1-.2c.2 0 .2 0 0 .2Zm6.1-9.1v.1h-.2v-.2h.2Zm10.7-2.9h.3v.1l-.2-.1ZM3 68.5l.1-.3-.1.3Zm38.2-33s-.1.1-.2 0c0-.2.1-.1.2 0Zm-25.5 35h-.2v-.1h.2Zm4.7-9.3.2-.1v.2h-.2Zm24.1-22.6v-.2h.2v.2h-.2ZM21.2 69.7h-.3.3Zm-6.9.5H14V70h.1v.2Zm4.9-4.5h.3l-.1.1-.2-.1ZM8.5 71.8h-.3.3Zm36.2-14.6c.2-.1.2 0 .3.1h-.3Zm-17.5-3.4v-.2h.2c0 .2 0 .2-.2.2ZM10 71.7v.4c-.1 0 0-.2 0-.4ZM21 56l.2.2c-.1.1-.2 0-.2 0l.1-.1Zm24.4-12.6.2.1-.2-.1Zm-8.1 3.1s-.1.1-.2 0c0-.1.1-.1.2 0ZM3 71.1h.4c-.1.2-.2 0-.3 0Zm26-20.7h-.3.3ZM43.5 56c.2 0 .3 0 .3.2-.2 0-.2-.1-.3-.2ZM25 65.7c0-.1 0-.2.2-.3.1.2 0 .2-.1.3ZM8.6 61.3V61h.2l-.2.2Zm6.3 3.7q.2.1 0 .3V65Zm29.7-23 .1-.2h.2v.2h-.3Zm2.1 11.6c-.1-.1-.1-.2 0-.2s0 .1 0 .2ZM4 67l-.2-.1.3.1Zm8-9.7.2.2-.2-.1Zm14-4.8v-.3.3ZM42.6 61l-.2.2q0-.2.2-.3ZM11 73.1l.2-.1v.2H11ZM34.7 63l.3.1c-.1.2-.2 0-.3 0ZM21 61v-.2h.2v.2H21Zm-8.8 1.3.1-.2h.1c0 .2 0 .2-.2.2Zm20.2.5h.2v.1l-.2-.1Zm-.2.9v-.2h.1l-.1.2Zm-21.6.8v.2-.3Zm26.7-24.4h-.1V40l.1.1ZM16.5 72v-.2.2ZM4.2 66.3v.3c-.2-.1-.1-.2 0-.3Zm28.9-6.7-.1-.2c.2 0 .2.1.1.2ZM19 66.2h.2-.2Zm-8.2 4.4v.2h-.3l.3-.2Zm1.4.1h.3-.3Zm34-22.5H46l.1-.3.1.3ZM17.8 59.1h-.3.2ZM9.2 72.8l.2-.1v.2l-.2-.1ZM7.4 67l.1-.1h.1v.1h-.2Zm26.5-25.5c.1 0 .1.1 0 .2v-.2ZM19.1 59c0 .1 0 .2-.1.1 0-.1 0-.1.1 0Zm11.1 3.7q.2-.1.2 0h-.2ZM3.9 68.1l.3.2q-.2 0-.3-.2Zm39.7-9.9h.2-.2Zm-22.9.5-.2-.1.2.1Zm11 6.1v-.2h.1v.2Zm12.4-6.5V58v.1Zm-2-3.3h.2l-.1.1V55ZM39 38.4l-.1-.1Zm-5 25h.2c-.1.2-.2 0-.2 0ZM8.3 72.6v-.1.2Zm5.4-3.1-.2.1v-.2h.2Zm5.7-9.8h.1-.1Zm-.1 4.3h-.1v-.1c.2 0 .1 0 .1.2Zm7.3-13.7.1-.1h.1-.2ZM10.3 73.7l.2.1c-.2 0-.3 0-.2-.1Zm5.5-12.4h.3-.3Zm19-5.5-.2-.1s.1-.1.1 0l.1.1ZM2.6 70.6l-.1-.2h.1v.1Zm8.8-1.8-.1.1v-.2l.1.1Zm22.2-5.5h-.1.1Zm-22 .3h-.2c0-.1.1-.1.2 0Zm22.9-12v.1h-.2.2Zm9.4 5.4h-.2.2ZM18.7 70.8v-.2h.1l-.1.2Zm1.8-16v-.1.1ZM10.3 72.7h.2-.2ZM39 51.9h.1-.1Zm8 2.1.2-.1c0 .1 0 .1-.2 0ZM9.2 57.5v-.2.2Zm25.6.7-.1-.1h.1Zm-15.5 2.1h-.1v-.1h.1v.1Zm15.1-2.5v.1-.1Zm-12.7-6.3.2-.2v.2h-.2Zm15.6 9 .2.1h-.2Zm2.2-5.6v-.1h.1-.1Zm8 2.5v.1h-.1v-.1h.1ZM4.8 67.6v-.1H5v.1Zm-.5.3c.1 0 .1.1 0 .2V68ZM45.9 58v.1Zm-24.7 8.2V66l.1.1Zm17.4-20.8v.1-.1ZM6.8 65.7v.2-.1ZM3 72.4Zm9.6-6.9c-.1 0-.1 0 0-.2v.2Zm13.1-8Zm-12.6 4.4v-.2.1Zm2.7 8.5v-.1ZM33 53.5l.1.2-.1-.1ZM8.2 69.9H8h.2Zm2.4-2.2h.1Zm34.1-19.2h.1v.1h-.1v-.1ZM12.8 72.8Zm1.7-15.1.2-.1v.1h-.2Zm.3 9.8-.1-.2h.1v.2Zm-.4-.1h-.1.1Zm29.3-19.6h.2-.2ZM35 51.2V51h.1v.1Z"/></g></svg>