<?xml version="1.0" encoding="UTF-8"?>
<svg id="uuid-2a5589fc-422d-46f3-8afd-fff9a4be3c1b" data-name="Layer 2" xmlns="http://www.w3.org/2000/svg" viewBox="0 0 1287.15 38.21">
  <defs>
    <style>
      .uuid-1a52e507-37e9-4b52-9cc7-adb05650b324 {
        fill: #1d3ba9;
      }

      .uuid-a732104b-00d0-4cbd-b713-a32f5df28f9d {
        fill: #0c2b77;
      }

      .uuid-495b96dd-f27b-4d44-9e6a-c511cde5c8fc {
        fill: #4db6ac;
      }
    </style>
  </defs>
  <g id="uuid-57f0bc2a-dd81-484c-ae1a-28070ed9863e" data-name="Layer 2">
    <g>
      <g>
        <polyline class="uuid-1a52e507-37e9-4b52-9cc7-adb05650b324" points="1015.47 32.86 1015.47 16.23 1021.91 16.23 1021.91 32.86"/>
        <path class="uuid-495b96dd-f27b-4d44-9e6a-c511cde5c8fc" d="M1011.69,17.09s-4.06,3.8-6.43,.02c-2.37-3.79,1.02-3.57,1.02-3.57,0,0-1.61-3.51,.42-5.8s3.64-1.27,3.64-1.27c0,0-.76-3.81,.93-4.4s3.21,1.52,3.21,1.52c0,0,.68-3.93,3.3-3.57s3.05,3.66,3.05,3.66c0,0,2.37-1.95,4.06-.17s1.18,4.48,1.18,4.48c0,0,1.61-3.14,3.89-2.25s1.52,3.09,1.52,3.09c0,0,2.37,1.5,1.1,3.03s-3.64,2.39-3.64,2.39c0,0,3.3,.79,2.45,2.67s-3.81,1.85-3.81,1.85l-2.37,1.14h-8.12s-3.38,1.43-4.23,.5-1.18-3.34-1.18-3.34Z"/>
      </g>
      <path class="uuid-a732104b-00d0-4cbd-b713-a32f5df28f9d" d="M0,38.21V8.39c11.13,1.08,65.43,17.4,86.67,16.08s47.4,5.28,54,7.49,30.36-4.19,53.46-11.1,119.47,10.87,149.17,11.09,28.38-5.5,43.56-8.34,57.42,5.47,79.86,6.02,59.14-6.02,59.14-6.02c19.73-3.77,32.73-14.57,48.01-12.14s28.59,5.33,42.72,5.86,45.82-3.34,53.74-5.86,35.64-5.4,43.56,0,18.15,2.39,35.64,14.17c7.45,5.02,34.65,6.35,42.57,7.54s64.02,.3,69.3-1.24,34.72-6.47,43.1-5.98,92.86,4.88,107.39,5.98,66.66-2.03,89.76-2.12,46.2-.31,59.4,2.12c10.51,1.93,25.61-.92,36.33-2.2,1.3-.16,2.53-.35,3.69-.39,33.98-1.17,41.27,7.55,49,4.27s13.53-7.51,37.04-9.16c0-.08,0,13.74,0,13.74H0Z"/>
    </g>
  </g>
</svg>