<svg xmlns="http://www.w3.org/2000/svg" viewBox="0 0 57.6 57.6"><g fill="#0c2b77"><path d="m9.8 25.2-.2.3.2.4h.1c.2 0 .3 0 .4-.2a25.6 25.6 0 0 1-.5-.5ZM43 8h-.2c-.3-.2-.4-.2-.6-.5l-.2.2c.3.2.4.4.5.7L43 8Zm-.1-2c-.1 0-.2 0-.3-.2l.1.3h.2ZM20.5 0l.1.2c.4.2 1 .1 1.2 0V0h-.7l-.2.2-.2-.2h-.2Zm5.8 4h-.1l.2.1.3-.5h-.2l-.2.4ZM28 4c.2 0 .3 0 .5-.2V3a.5.5 0 0 0-.5-.3h-.3l-.4-.6h-.7l.4.3.2.2V3h.3l-.3.2-.2.4.1.3c.1.3.2.5.5.7V4h.5Zm18.5.8c.2.1.3.3.5.3h.3v-.3c.2-.1.3-.3.6-.2.2 0 .3 0 .4-.2-.4 0-.5 0-.7-.4v.3h-.9v.2l-.1.3Zm.3 1.9c.1-.1 0-.3 0-.4h-.2l.2.4Zm-4.5-2.5-.3.3c-.1 0-.2 0-.2.2l-.1.2-.4.2.2.3H41v.1c.1.2.2.3.1.4v.3l.2.2v.2l.5-.5.3-.5c-.4-.4-.4-.4-.1-.7l.2-.3v-.4ZM41.4.8V.5H41v.3c0 .1 0 .2.2.3 0-.1 0-.2.2-.3ZM32.6.7c.1-.2.4-.2.4-.4s.1-.2.3-.2v.3l.1.4c-.3.1-.4.2-.2.4l.2.3-.1.1v.3H33v-.2h-.2V2l.6.4h.2l-.3-.2c.3-.3.3-.3.7-.2v-.4c.5 0 .6.2.8.5l.3.1.3.2.5-.1.5.5v-.3l-.1-.1-.2-.2c-.2 0-.3-.2-.4-.3v-.8l.2.1v-.1h.2V1l-.5-.1c0-.2.1-.2.3-.3l.2.4.4-.6.2-.3h-.3l-1 .7V.5l.4-.5h-1l-.7.5-.3.1-.1-.3-.2-.2-.3-.1h-.7l.1.7Zm2.7.3h.1v.2h-.2l.1-.2ZM34 .8c.2-.3.4-.2.6-.1V1h-.2s0 .2-.2.3l-.3-.2V.8ZM45 6l.2.2V6H45ZM40.5.6ZM28.8 0v.1V0Zm14.5 6.8h.3v-.6h-.4v.6Zm2-.1-.8.2-.2.6c.2 0 .3.3.4.4-.3.1-.4.1-.5-.2l-.4-.2c0 .2 0 .3-.2.4v.4l.3.3h.2l.2-.2.2-.1.6.7c.1.2.5.2.6 0h.1v-.7q-.3 0-.7-.5l.5-.3h.3l-.2-.3V7c-.2 0-.2 0-.5-.3Zm-.6.4V7l.1.1h-.1ZM39.8.7h-.2l.5-.1h-.3Z"/><path d="M38 7.2c0-.2 0-.5.3-.6l.3-.2s.2 0 .3.2v-.8l-.2.2h-.5l-.2.2c.1.3 0 .5-.2.7H37c-.2.1-.3 0-.3-.1v-.2c-.4-.2-.6-.2-.9 0l-.2-.3h-.2c-.3.3-.5.3-.8.1h-.2c0 .2-.1.3-.4.2h-.5l-.1-.3-.1-.6-.4.2.3 1v.5c-.3 0-.4.4-.8.2v-.5c0-.3.1-.6-.2-.7L32 6c-.2-.3-.4-.3-.7 0l-.1.2H31l-.2.2-.1-.4a1 1 0 0 0-.4 0c-.3.1-.5.2-.6-.1l-.3-.1c0-.4 0-.7.2-1 0-.2-.2-.3-.3-.5h.8V4l-.3-.9-.3.4-.1.1c-.2.4-.3.5-.7.6v.3c0 .1-.1.3-.3.3l-.2.1-.2.3c-.3 0-.4-.3-.5-.5-.1-.1-.3 0-.4.3l.6.3-.3.1c-.2 0-.2.2-.3.4 0 .2.2.2.3.3l.5.1-.5.2-.5.5a1 1 0 0 0-.4.7c.5.2.5-.3.8-.4 0 .3 0 .7.2 1l.8-.1-.2.4c-.4.2-.4.5-.3.9.2 0 .5 0 .7.2.3.1.4.3.6.6l.1-.2v-.5l-.2-.4-.1-.6v-.4l.6.6h.4l-.1-.3.3-.1v-.8h.4v1c0 .4-.1.9.5 1 .3-.2.3-.2.6 0 .2.2.4.2.6 0h.5l.3-.2c-.2 0-.5.1-.5-.3.3 0 .6-.2 1 .2h-.2v.1h.3c.4.2.6.5.3.8l.3-.1c.3 0 .4.1.4.3h.3v.3h.2v.3c0 .1 0 .2.2.3h.6V11l.4.4q.4 0 .7-.3c-.6.3-.7-.2-1-.4l-.8.3c-.2-.2-.2-.4 0-.7v-.6s0-.2.2-.2l.2.2.3-.3V9c-.4-.1-.7.2-1 .5l.2-.4-.3-.3.1.3h-.1c-.2 0-.1-.2 0-.4a.7.7 0 0 1-.2-.5h.3l.4-1c0-.3.1-.5.4-.6.2 0 .3 0 .4.5l.3.1.1-.1.2.2.3.1v.7c-.2.1-.2.3-.3.5h.5l.9-.4V8l-.6.1V8l-.3.1v-.3h.2l.3-.2h.5l.2.4.4-.2a.6.6 0 0 1-.2-.4c-.3 0-.5 0-.6-.2Zm-8.2.3-.9-.2.1.3-.7.5v-.5c0-.6.3-1.1.4-1.7.6 0 .4.5.7.7l-.4.3c.1 0 .1.1.1 0 .3 0 .6-.2.8-.3.2 0 .3 0 .4.2-.4 0-.5.3-.5.7Zm1.5 1.7-.4-.6h.3l.2.5h-.1Zm1-.8-.3.1h-.7v-.6l.5-.2h.1c.2 0 .3 0 .4.2v.5Zm.5.2v-.3h.7v.3c-.2.2-.4.1-.7 0Zm1.6-.2c-.1-.1-.2-.3-.1-.5.1.2.2.3 0 .5Zm-.2-.7.5-.1.1.4c-.3.1-.4 0-.6-.3ZM44.7.4l.4.2.2-.1q.3-.2.6 0l.2-.5h-.7c-.1.2-.2.2-.4.3l-.2-.3h-.6c0 .3.2.4.5.4Zm-1.2 3.8.3-.2c.2 0 .2-.2.3-.3-.3-.1-.4-.2-.6-.6l-.4.1-.1.2v-.2h-.3c-.2 0-.3 0-.3.2v.4l.4-.1.6.2V4l.1.2ZM48 .6h-.8l-.4-.2v.2c.3 0 .4.1.5.3 0 .2-.2.3-.3.3a.6.6 0 0 1-.5-.3V.8h-.2l.1.4c0 .2.3.3.4.6l-.2-.6.9.7.2-.2v-.5c0-.2 0-.3.2-.3V1l.3-.1c0-.4.3-.5.5-.4l.1-.1-.3-.3V0h-.3c0 .3 0 .5-.2.6Z"/><path d="M46 2.5v-.3c-.2 0-.3.2-.5.1l-.1-.3c0-.1-.2-.2-.3-.1h-.6V2l.1.2c.1.2 0 .5-.1.6-.2.1-.5 0-.6-.1V2h-.3l-.2-.5v-.2l-.2-.4a33.2 33.2 0 0 0 .5-.1V.7h-1.1l.2.2c0 .2.2.4 0 .6-.2.1 0 .3 0 .5.4 0 .6.2.7.6v.2c.2 0 .2.1.2.2.2 0 .3.3.4.7h.7c.2 0 .4 0 .4.3 0 .2 0 .3-.2.4l.5-.1v.6a64.5 64.5 0 0 0-1-.5c-.5.3-.5.4 0 .8l-.2.2c0 .2 0 .4-.2.7l.1.3.2-.1c0-.2.2-.2.4-.3l.3-.3s0-.2.2-.2L46 5l.3-.3-.2-.2v-.2l-.1-.2-.4-.1c0-.4.3-.5.4-.8h.7l.2.2h.4l-.5-.8-.3-.1H46ZM49.4.3v.8c.2.2.5 0 .7 0 .3-.4.3-.8 0-1.1h-.6l-.1.3Z"/><path d="M43.5 4.2v.1h-.3c0 .1 0 .3-.2.4q.3.2.5 0l.2-.2c0-.1 0-.2-.2-.3Zm3.6-4 .6-.2h-1.4v.1l.8.1ZM26.5.4c0 .1 0 .2.2.2l-.2-.2Zm3.5.4V.7v.7l.2-.5h-.1ZM42.5.2l.3.1q-.1-.3-.3-.1Zm1.9 3.7-.1.3h.1v-.3ZM41 7.8c0-.2.2-.1.4-.2l-.2-.4c0-.2-.2-.3 0-.6v-.2l-.2.1v-.2c-.3-.1-.3-.1-.2-.4v-.1l-.4-.2c0-.3 0-.4.2-.4l-.2-.1c-.1-.5-.1-1-.8-1.2l.1-.4-.8-.2V3h-.5c-.2 0-.3.1-.5.3v-.5l.3-.3V2l.1-.5.2-.4-.3.2v.5c-.3.1-.5 0-.7-.2L37 2l.5.2v.3l-.7.2.3.6.4.1.2.6h.1c0-.1-.2-.2-.1-.3l.2-.5h.2l.3.3c0 .2.3.3.5.3 0 .5-.2.7-.5.7l.3.4-.6.4.3.1.1-.3c.3 0 .6 0 .8.2v-1c.4 0 .4 0 .7.5l-.2.1.1.2-.2.1h-.2l.2.2c.1 0 .2 0 .2.2l.2.3-.2.3-.2.3v.1c.3 0 .5-.3.8-.1l.1.1h.4l-.2.2v.1l-.2.4c.3 0 .4.1.2.3-.3.2-.3.6-.8.7v.6h.3v.2h.1c-.2-.4.2-.7.3-1 0 .2.3.2.4.2l-.1-.5ZM46.1 6l.2.7v-.4l-.2-.3Zm-2.2-4.5h-.1v.3-.3ZM37 6ZM41.9.4l.4-.1L42 0h-.4v.4h.2Zm-14.1.9v.2-.1Zm3.7 4.1-.2.1h.3-.1Zm.3-2.3c.2-.1.5-.1.6-.3.4 0 .2-.4.4-.6l-.2-.1-.2.6-.4-.4-.4-.2v-.3h-.2l.2.5.2.8Zm10.7 1.1v-.1.1ZM29 2.7h.3l.4.2v-.2c.2 0 .5.3.8.3-.1-.3-.1-.6 0-.8l-.2-.1.5-.3.4-.1-.4.1-.5-.1-.3-.2-.1.3h-.2c-.2 0-.2.2-.3.4-.2.2-.4.2-.7.2l.2.2Zm3.9 1.1ZM27.5.7l.1.3c0 .2 0 .3.2.3.1 0 .3-.2.3-.4h.1c.3-.3.3-.4.1-.8h-1.4v.2c.3.3.3.3.1.5V1c.2.1.4 0 .5-.2Zm9.8 4.6.1-.4v-.1c-.2 0-.2.1-.3.2l.2.3Zm.5-5.1.4.1.1-.1h.2s0-.1.1 0l.2.1-.2.5.4.3c0-.3.3-.3.6-.3l-.3-.1c-.1-.2-.4-.2-.4-.5l.2-.1h-1.2Zm1.3.7c-.4 0-.4 0-.4-.4l.4.4Zm2.4-.9ZM30.8 3.7h.3l.3.1.2-.5c-.3.2-.5.2-.8 0v.4Zm-4.7-1.3.4-.5v-.5a.6.6 0 0 0-.6 0c0 .3-.2.7.2 1ZM33 5.7l.4-.3-.2-.4.3-.1.1-.8c.2-.1.4 0 .6.1.1.1.2.3.1.5V5l.1.1.2.6c.2 0 .3 0 .3-.3l-.2-.2c.1-.4.1-.5.5-.6V5c.2.3.4.3.6.4 0-.2.2-.3.4-.4l.6-.3.2-.1-.2-.2h-.4c-.2 0-.3.2-.6 0h-.6c-.1-.2-.3-.2-.5-.2s-.3-.2-.3-.4c.2-.2.5-.2.8 0v-.2c-.1 0-.2-.1-.2-.3l-.4.2V3a6 6 0 0 0-.5.1l-.1-.6h-.3c-.1.5 0 .8.2 1.2-.1 0-.2 0-.3-.2h-.3l.3.2c-.1.2-.4.2-.6.3h.2l-.5.4h.8l-.2.3h-.8v.5L32 5v.5c.1 0 .3 0 .5.2h.4Zm3 .3v-.1Zm11.6-2ZM6 5.2l-.1.2.1.1v-.3Zm1-1.8h-.3V4c.4-.1.4-.2.3-.5Zm.7-.6h.1c.2.3.2.5 0 .6l-.5-.3v.2c.4 0 .6.2.6.6l-.1.4H8V4c0-.2-.2-.5.2-.6.3.3.5.6 1 .5.2.2.5.2.8.3.3 0 .5.3.7.7l.6-.4c0-.1 0-.3-.3-.3 0 0 0-.2-.2-.3v-.2l-.6.2c0-.3-.4-.4-.3-.6.1-.3 0-.6-.2-.8L9.5 2l-.1-.3c-.5.3-1 .4-1.5.1l-.2.3.1.4-.1.2Zm1.1.9.3.1L9 4c-.2 0-.2-.2-.2-.4Z"/><path d="M10.3 5.1h.2l-.7-.4c0 .3 0 .5-.3.7L9.3 5l.1-.2H9c-.2.3.4.5 0 .8-.2-.1-.6-.2-.7-.6 0-.2-.2-.4-.5-.5v.1c-.1.2-.4.2-.6.1-.2 0-.3-.2-.4-.3V4l-.5.5h.2l-.3.5.2-.1c.2-.1.4 0 .4.2.4.3 1 .5 1 .9l-.1.8c-.7-.2-.7.5-1 .8l.4.7v.3l.2.4c.2 0 .4-.2.4-.3v-.3l-.2-.2c0-.3.5-.2.6-.5l.2.1a83 83 0 0 1-.5-.9c.5 0 .2-.4.3-.6l.3.1h.3l.5-.1V6l1 .3c.1 0 .3 0 .5-.3l-.2-.3c0-.2-.2-.3-.1-.6Zm-2.5.1v-.5c.3.2.3.4 0 .5Zm-3.7-.4v.3h.5l.2.2.2.1v.4l.4-.5c-.2-.1-.3-.4 0-.6l.5-.2V4l-.2.2v-.7l-.6.1v.3c-.3.2-.4 0-.6 0-.1 0 0 .3-.3.2a1 1 0 0 0-.1.8Zm4 3.5H8h.2Zm3.7-3.9c-.2.4-.2.5.2.9h.5l.2-.9-.2.3c-.4 0-.6-.1-.7-.3Z"/><path d="M15.7 3.6c-.3.1-.5 0-.8-.1l-.3.7c-.4 0-.8-.2-1-.5a2 2 0 0 1 0-1.3l-.1-.3h.1v.3c.3-.5.3-.9.1-1.3l.1-.2h.4c0-.1 0 0 .1 0 0-.5 0-.5-.4-.4l-.4.1v.2l-.1.1.2.1.1.3-.3.3c-.1.2-.3.1-.5 0l.1.2.2.2c-.1.1-.2.2-.4 0l-.5-.4H12c0 .2.1.3.3.4-.2.5-.6.3-.8.3-.1-.2 0-.3 0-.4.2-.1.2-.3.1-.4h-.5c-.1.2-.2.3-.4.3 0 .3 0 .4.3.9.3 0 .4 0 .4.2v.5c-.2.3-.2.6.2.8v.2-.5c.6-.1.8-.4.5-1v-.1h.2v-.1c.3-.3.7-.3.8 0 .2.6.1.8-.4.9h-.2c.2.4.3.6.1.8l.6-.3v.3h.2c.1.1.2.3 0 .5V5c-.4.2 0 .4 0 .5 0 0 .2.1.2 0l.1-.1v-.3c.5 0 0 .7.6.8v-.4c.3 0 .7 0 .9-.2a1 1 0 0 1-.5-.4h.2l-.3-.3v-.4c.2.1.2.3.2.4h.4v-.3l.4-.1h.4c.3 0 .4-.1.4-.4l-.1-.3-.3.2a.6.6 0 0 1-.3-.2ZM13 4l.1-.2.1.1c0 .2 0 .2-.2.1Zm.7.5h-.1v-.2h.1v.2Z"/><path d="M12.9 1.5V1l-.1-.2-.5-.5c-.1 0-.3 0-.3.2l.5.3c.1.2 0 .4.4.5Zm12.8 9.2-.1.3c0 .4-.3.6-.5.9.2.6.8.6 1.2.7l1 .4c-.5 0-.6.3-.8.6 0 .2.3.4 0 .6v.2c.1.3.3.5.7.5V14l.5-.4v.3c-.1.4 0 .7.2 1v1l.5-.1.3.5.6-.4v1.6l.5-.3c.6.8 1 1 1.5.5l-.8-.6c0-.5-.4-.5-.5-.9l-.2-.6c0-.2-.2-.3-.3-.4-.3-.3-.5-.3-.8-.2 0-.2.2-.3.3-.4l-.1-.4.3-.2-.3-.3c-.3.1-.4-.3-.7-.3l.1-.2h.1c.3.3.7.1 1 0-.3-.5-.9-.2-1.2-.5l-.5.4v-.7c.1-.3 0-.5-.2-.5-.3 0-.3-.3-.4-.4l.3-.6h.4l-.3-.7c-.2 0-.4-.2-.4.2-.3-.2 0-.5-.3-.6-.3 0-.5 0-.6.3l-.5.5Zm4.8 6.3v.2h-.1V17Zm-1.8-2-.3.4h-.2c.1-.3.3-.3.5-.4ZM27 10.5c0 .2.2.3.3.4l-.7.3c0 .4.5.7 0 1.1-.3-.4-.2-1-.3-1.3l.7-.5Zm-9.8-9.4.4-.2.2-.1V.7h-.3V.3h-.7l-.3-.3h-.2l-.2.2h-.3l-.3.7h.3l.2.2h.3l.4.2-.1.5v.3V2c.2-.1.2 0 .4 0l-.2.2.1.1c.3-.3 0-.6 0-.8l.3-.3V1ZM13.8 0h-.1.1Zm.9 0h-.5c.2.2.3.1.5 0Zm.8.2.2-.1V0h-.3v.2h.1Zm20.2 12.5Zm.9.4Zm0-.9-.4-.2-.6.6.8-.2v.1l-.4.4.6.2.2-.2c-.3-.1-.4-.4-.2-.7Zm-1.6.5-.2-.3c-.3-.3-.3-.5 0-.7l.2-.1h-.6c0-.3 0-.5-.2-.5-.4 0-.8 0-1 .5l-.3-.1h-.3c0-.4.3-.6.1-1l-.4.3v-.3c-.5-.1-1-.4-1.5-.2l-.1-.3h-.5c-.1 0-.3-.1-.4 0 .1.4.2.6-.1.8l-.2.4.7.2.2-.2c.3 0 .4-.1.5-.3h.8l.4.8c.1 0 .3 0 .5.2l-.5.3-.6-.1a1 1 0 0 1-.7-.3v.3l.4.4c.4-.1.7.3 1.2.3l.5-.5.5.2.3.5.3.2-.2.1.1.2c.5 0 .8-.4 1.1-.6l-.1-.2ZM32.2 11l-.2-.2h.2v.1Zm1.5 1.2h-.2v-.1l.3-.2-.1.3Zm.6-.8-.3.4-.1-.5.4.1ZM21.4 2.6c.4 0 .4 0 .6.2v-.1l.2-.4c-.2 0-.3-.2-.3-.4v-.2l-.2-.1h-.3c-.3-.1-.2-.4-.3-.6H21l-.2-.2V.6h-.4v.1l-.4.1-.3.3-.6-.3c-.2 0-.2.2-.3.4l.1.3-.1.4c.2.2.5.3.8.2V2l-.3-.3c.3-.1.6-.2.9 0L20 2c-.1.2 0 .3 0 .4l.3.4c.2.1.1.3 0 .5v.4l.1.2c.3.5.6.5 1 .2l.4-.4-.2-.1-.3-.3h.1v-.6Zm-.8.4c0-.2.2-.1.4 0-.2.2-.3.2-.4 0Z"/><path d="M21.1 1V.6H21l-.1.1.2.2ZM38 12.8Zm-.3-3.5.1.3c.1.3 0 .5-.3.5h-.2c-.3-.2-.6-.1-1-.2l-.3.6.3.1c0-.1-.1-.3 0-.4h.9v.3l.2.1.8.7h-.4c0 .2.2.1.5.1 0 .2-.2.4 0 .5h.2l-.2-.7.5-.2v.5l.2.3h.3c.2 0 .3-.1.3-.2.1-.3 0-.5-.2-.7-.1-.2-.2-.5-.4-.6h-.8c0-.4 0-.6.2-.8.1-.4.2-.4.6 0l-.3.3q.3.3.8.1v-.2c.1-.6 0-.8-.6-.9h-.5v-.6h-.1c0 .3-.2.4-.5.5l-.2.1v.6ZM11.6 0h-.3.3Zm-.8.2h.1l-.1-.1ZM3.7 3.1c0-.3 0-.5.2-.6.1 0 .2-.2 0-.3l-.1.2c-.2.3-.5.4-.8.3V3l.5.1h.2ZM5.4.4V0h-.1v1l-.2.2h-.2L4.4.8v.5l.2.1-.3.3h.4c.4.1.8.2 1-.3H6c.2 0 .3.3.5.3h.3V1H7c.1-.4.2-.6 0-.8 0-.1-.2-.2-.4 0V0h-.1l-.2.6-.8-.2Zm1 0c.2 0 .3.2.4.4-.2 0-.5 0-.6-.2l.3-.2Zm.2.8c0 .2 0 .2-.2.2s-.3 0-.4-.2c0 0 0-.2.2-.2l.4.2Zm-2.4.6c-.1 0-.2-.1-.2-.3h.1L3.7 1c-.3-.2-.2.2-.4.3h-.4c.4 0 .7 0 .9.3l.3.1h.1ZM4.4.1v.2-.1Zm26.3 11.4-.5-.1-1 .2a.5.5 0 0 1 0-.7l-.1-.2c-.3 0-.4 0-.8.3l-.2.2v-.4c-.2.1-.4.2-.2.4.1.3 0 .5 0 .8l.6.5.6.2.3-.2h.1v.5h.5l.3.7.5.1.5-.4c-.1-.2-.2-.4-.5-.5-.2 0-.3-.2-.2-.4l.2-.5v-.5Zm-2.5-.8v.1ZM16.7 5.2 17 5v.3l.2.3.5.2.3.4.4-.6-.2-.2h-.3v-.2l-.5-.8c.3-.3.5-.6.3-1-.5-.2-.5-.2-.6 0-.3.3-.3.6 0 .9H17v.4h-.3l-.2.3.3.3Zm.2 1.2c-.1.2-.2.4 0 .7l-.1.1c-.3.3-.1.5 0 .8l.4.2c.2-.1.3-.3.2-.4l-.1-.9a.8.8 0 0 1-.4-.5Zm.1 1.3h-.2v-.3l.1-.3c.3.3.4.4 0 .6Zm1.6 8.3.1-.8c.3.2.7.4 1 .2V15l.1-.3c.2-.4.2-.4-.2-.8l-.3.4-.8.1.4.4-.7.2c-.3 0-.6 0-.8.4 0 .2.3.4.3.7 0 .3.1.5.4.7h.2l-.2-.2-.3-.2c.5-.2 1-.5 1.4 0l-.6-.4ZM1.9 10.7h-.1v.9c.2 0 .2-.1.3-.2l.7-.1c.2 0 .1.3.3.3.2 0 .2.2.2.3-.2.2-.5.1-.7.1l-.2.3c.4.2.6.2.8 0l.3-.3c.2 0 .3-.2.3-.5h-.4c0-.2-.2-.3-.3-.5l.4-.1-.2-.2c-.4 0-.5-.2-.6-.6-.2.4-.5.6-.8.6Zm21.9-6.5Zm1.4.3Zm-.4-.7-.1-.4c-.1.2-.3.2-.4.1h-.1V4l-.3.2v.5c.1.3 0 .5-.2.6.3.5.5.6.8.6l-.1-.3v-.4h.5c0-.2 0-.5.3-.7-.3-.1-.3-.4-.4-.7Zm.3 1.9ZM10 13.3l-.4.5.4.3.1.4c.3 0 .5-.3.8-.3q-.1.5.3.8c.3-.2-.1-.4 0-.6l.7-.7-.2-.7c0 .3-.1.5-.4.7-.3-.3-.4-.3-.2-.6.1-.3.2-.3.5-.3v-.1l-.4-.1-.2.5c-.6-.2-.6-.2-1 .2ZM31.1.5V.3h.1v.2q.1.4.6.5V.7s-.2 0 0-.2h.1l.2-.5H31l-.2.3.3.2Zm-1-.5ZM17.8 11.6h-1.1v.8c-.7 0-.6.5-.9.8l.4.5.6-.6c.4.1.8.1 1-.3l-.1-.4h.4c.3-.4 0-.6-.2-.8Zm31.9-8.3v-.1l-.2.2h.2Zm-1.2-1.2h.1l.4.2.4.2.2-.4v-.2l-1.3-.4-.1.8.3.3.1-.2V2ZM50 3h.4v-.3L50 3Zm-6.6 10-.2-.1c-.2-.2-.2-.4-.2-.7-.3.2 0 .6-.1.8.2.2.3.2.5 0Zm.6-.8.2.1h.2c.1-.2.3 0 .4 0v.3l-.1.4c.3 0 .5-.1.6-.4v-.2c-.1-.5-.4-.7-.8-.6-.1.2-.4.2-.6.3ZM4.3 9v-.4H5v-.8l-.2-.6c0 .3-.1.5-.4.6H4a1 1 0 0 0-.3.4l-.1.5V9h.2l.5.1Zm-.1 1 .1-.1h-.2l.1.1Zm19.6-5.8Zm-.1-.9-.5.3h-.5c-.2 0-.3.1-.3.2-.1.4 0 .6.1 1 .2 0 .3.2.4.4.2-.1.5-.2.6-.4v-.2l.1-.2-.2-.5h.3l.1.3.1-.5c0-.2 0-.3-.2-.4Zm-6.2 17.1-.3-1-.6.2c.2.4-.1.6-.3 1l-.6.4c-.3.1-.3.2-.3.6l.7.2c0-.3.2-.5.3-.8.6.1.7-.4 1.1-.6ZM35.7 14l-.9.1c.1.1.2.2.1.4l.1.4c-.6 0-.7 0-.7-.6l.3-.1V14H34v.6c.2.3 0 .6.1 1h.1v-.1c.5 0 .5 0 .6-.3l.1.1.4-.7.4.1c0-.2.3-.4 0-.7ZM22.5 6c.1 0 .3 0 .4.2.1.1.2.3.1.5v.2c-.3.2-.5 0-.8 0l-.1-.4s-.1.1 0 .2l.3.6c.1.1.3.2.5 0h.3l.1-.1.4-.1q-.7-1.4-1.2-1.5l-.1.4ZM21 13.2v.1l.3.1.2.6.4.4.2-.3v-.3c.2-.3.7-.3.7-.7l-.4-.8q-.5 0-1.3 1ZM2.5 0v.2l.2.2c0-.1 0-.3-.2-.4ZM1.3.5l.3.3.7-.8h-.8l-.1.1v.3ZM25.5.4H25c.3.6.3.6.6.6l.1-.3h-.2V.4Zm.5-.2.3-.2h-.1l-.2.2ZM23.2 8v-.3l-.1-.2h-.2c-.2.3-.1.6.2.9l.1-.4Zm.5 1.6.2-.4c-.1 0-.3 0-.5-.2-.1.3 0 .5.3.6Zm-.8-2.2Zm9.8 8.7c.2.4-.1.6-.3.8l.1.3-.3.4.5.6c.5 0 .6-.5 1-.7-.1-.1-.3-.2-.2-.3l-.3-.9c-.1-.2-.3-.2-.5-.2ZM16.8 9.9c.1 1 .4 1.2 1 1.1 0-.4-.1-.8-.5-1-.3 0-.6-.1-.7-.4v-.8h-.3l-.2.4c.2.2.3.6.7.7ZM6.5 14.2h.3L7 14v-.4l-.8-.4h-.5l-.7.5c.2.4.5.6.9.5h.6Zm.3-.4H7c0 .2 0 .2-.2.2l.1-.2Zm-1-.3.1-.2H6l-.1.2Zm30.8-.3Zm-.1.4c.1.1.3.2.4.1.2 0 .4 0 .5.2v-.3c-.3.2-.4 0-.5-.2l-.3-.2v.2c-.2.2-.2.4-.1.5v-.3Zm-.5 1.1h-.3c0 .2.3.4.5.5a.7.7 0 0 1-.2-.5ZM9.1.6c-.2 0-.4 0-.6.2V1c.3 0 .5 0 .6.2 0-.2.2-.2.2-.3L9.2.4Zm-.7.6h-.2c-.2 0-.3-.2-.3-.4L8 .6V.4c0-.1 0-.2-.2-.2h-.2v.2c-.1.2-.2.4 0 .5.2 0 .2.2.3.3v.2c.1-.2.2-.2.3 0 .1 0 .1.1 0 .2v.2l.6-.3-.4-.3Zm-2.9 9.4s0-.2-.2-.3v.6l.3.2.2-.1h-.1l-.2-.4Zm1 0v-.1Zm17.2 4.7.2-.8-.5.3c-.2-.5-.2-.5-.5-.5-.2.1-.3.2-.2.6v.7l-.3.3c.7 0 1.2-.2 1.3-.6ZM9.4 18.7a.6.6 0 0 0-.4-.1l.2.3c-.2.2-.2.5-.6.5l-.3-.1c.3.5.6.7 1 .6l.3-.4.3-.3-.5-.5ZM41 13.2c-.3 0-.3.1-.4.6h.4v-.6ZM21.8 5l.5.4c0-.6-.2-.8-1-1a1 1 0 0 0-1 .7c.6.5.7.5 1.4 0ZM15 7.3v.2l.4-.7c-.1-.2-.5-.2-.7-.5l-.2.5q-.3 0-.2-.3v-.2H14v.5c.4.2.2.4.3.7l.2-.4c.2 0 .3.1.4.3Zm-1.6 3c-.2.7 0 .9.8.9l.3-.4c.1-.1.2-.2.1-.4l-.5-.4h-.2c-.1.2-.3.3-.5.3ZM28.7 23l.1.5.8.2.2-.5.1-.3-.8-.5-.4.5Zm-1-23Zm0 0ZM26 17.8Zm-.1-.4v-.3c-.4-.2-.3-.4-.5-.7h-.1c-.3 0-.4.2-.4.5l.5.2-.2.5.3.6.3.1.2-.2v-.3c-.2 0-.1-.2-.1-.3ZM55.2.5c.1.2 0 .6.4.6l.2-.4h-.1V0l-.4.3-.2-.3h-.8c.3.2.5.5 1 .5ZM12.5 8.6h-.2c-.4 0-.6 0-.8-.3-.3.6-.2.6.5 1V9l.5-.4Zm9.7-.6-.5.6.1.7 1-.3q0-.8-.6-1Zm19 2.7.3-.4c-.4 0-.5 0-.6-.2 0-.1-.2-.3-.4-.3v.3l.1.3v.3c.2.3.4.6.7.7h.4c.3 0 .3-.2.3-.4-.3-.2-.7 0-.8-.3Zm.8.3ZM14.3 3.1c-.2 0-.2-.2-.1-.4v-.1l-.2.1-.3.8c.2.3.4.3.7.2l.5-.2-.2-.3h-.4Zm.6.4zM22.8 14l.5-.1.3.4c.3-.3.5-.6.4-1l-.3-.3-.6.5h-.4l.1.6Zm-4.4 8.5c-.2-.8-.3-.9-1.3-.5l.4.7q.6 0 .9-.2Zm21.2-8.8Zm-.5-1 .3.4c.1.2.2.4.1.5 0 0 0-.2.2-.3.1-.3.2-.6 0-.8l-.3-.2c0 .2-.1.3-.3.3ZM36.7 17c0 .6.2.7.8.7.3-.8.2-1-.7-1v.3Zm-11.5-1.2.2-.4v-.6c-.2 0-.2-.2-.2-.4s-.2-.2-.3-.2c-.2 0-.3.2-.2.3v.3c-.1.5.2.7.5 1ZM15 9.3l-.1-.2v-.3c0-.1.2-.2.3-.1.2 0 .3.2.3.4v.1l.1-.2c0-.3-.1-.6-.4-.7-.2 0-.4.1-.5.4-.1.4 0 .5.3.6Zm8.6 12c.7-.4.7-.6 0-1.2l-.4.2q.1.7.4 1ZM39 19.2c.2.8.4 1 1 1 .2-.8 0-1-1-1ZM19.7 8.8l-.6 1h.8l.4-1c-.3-.2-.5-.3-.6 0Z"/><path d="M42.3 9.7c-.3.2-.2.6-.4.8v.4h.3c-.2-.4-.2-.5.2-.8l.2.1v-.4l-.3-.1ZM42 11Zm1.2-1.7h.2a15 15 0 0 1-.4-.5c0 .1 0 .2-.2.3l-.2-.2h-.2v.3c.2 0 .3.2.4.3v.1l.3.2.2-.2-.1-.3ZM9.4 6.6c-.1 0-.3 0-.3.2v.3l.2-.1.1-.4Zm.6.7v.1l-.2.1h.1c.2-.2.2-.2.2-.6-.2 0-.2.2-.1.4Zm38.2-3.5v-.5l-.5.1-.4.5.3.1.6-.2Zm.1-.8H48h.3ZM24.6 9.6l.1.3c.1.4.3.5.7.3l.5-.4-.3-.2c-.3-.1-.6-.2-1 0ZM6 17.7c0 .2.1.2.2.3.6-.3.6-.5.1-1.4l-.3.5h.3c0 .3 0 .5-.2.6Zm34.6-5.9c-.2 0-.3.3-.2.5l.3.2c.2 0 .4 0 .5-.2v-.4l.1-.5-.7.4ZM17.8 9.7h.7c-.2-.6-.3-.7-.8-.8.2.2.2.5.1.8Zm1.6-3.8.3-.2v-.5c0-.2-.2-.3-.4-.2-.4 0-.4.4-.4.6l.2.2.3.1ZM34 17l-.2.1c.1.3.1.6.4.6.2 0 .4 0 .6-.2l.3-.2a.9.9 0 0 0-.7-.4c0 .1-.2.2-.3.1ZM25 1.4h.3l-.8-.3h-.1c-.2 0-.2 0-.1-.2V.8c-.3.3-.2.5-.1.8l.5.1c.2 0 .3 0 .4-.3ZM6 12.6v.3l.3.2h.2l.1-.4c-.3-.4-.5-.9-1.1-.7l.3.5H6Zm32 1.6-.3.1c.2.7.3.8 1 .6v-.4h-.2c-.2 0-.3-.1-.4-.3Zm.6.3Zm-14.5-4h-.7c-.2 0-.3.2-.3.4s.2.2.4.2l.3-.1h.3c.2 0 .2 0 .2-.2s0-.4-.2-.3ZM9.6 11.7a1 1 0 0 0-.6 0l-.2.4.3.3h.1c-.2-.2-.1-.3 0-.4l.4-.2c.3.3.1.4-.1.5l-.2.1c.1 0 .3 0 .6-.3l-.3-.4Zm1 6h.4v.4l.2.2c.2-.3.3-.6.1-.9-.1-.2-.3-.2-.5-.3l-.2.6Zm18.6 1.2c0 .8.1.9.7 1 .2-.6 0-.8-.7-1Zm2.6-3.9c.2.1.2.3.2.4v.2h-.3v-.3a1 1 0 0 0-.3.7l.6.2q.2-.5 0-1v-.1h-.2Zm13.4-4c0-.2 0-.3-.2-.4 0 .2 0 .5.2.6V11ZM22.1 1.3h.2l.2-.3V.8c-.2-.3-.4-.4-.5-.3l.1.5v.3Zm.8 22.6q.3-.6-.3-1.1c-.5.6-.5.9.3 1.1Zm-8.5-9.2c.5.4.8 0 1-.2 0-.4-.4-.4-.7-.4l-.3.6ZM3 15.5l.5-.5s0-.2-.2-.3a1 1 0 0 1-.4.2l.1.6Zm18 7.9.8.3.2-.7c-.3-.3-.6.2-.9-.1-.2.2-.2.5 0 .5Zm1-4.8c-.5.3-.4.6-.4 1h.8c.1-.6-.4-.6-.5-1ZM47.2 7.7h.2-.2Zm-31.9 3.1v.1h.3v.5l-.3.1.2.2.4-.3c0-.2 0-.4-.2-.6 0-.2-.3-.2-.4 0ZM.4 15l.6.2.1-.2-.5-.2H.4v.2Zm12-7.4h.4q-.2-.7-.9-.8V7c0 .3.2.4.3.6h.2Zm-.2-.4-.1-.1V7l.2.1Zm19.9 6.7c.2 0 .4 0 .4-.3 0-.2.2-.4.3-.5v-.3l-.8.5v.5h.1Zm-6.4-7.3-.4-.2c-.3.2-.6-.2-.9.1l.5.8c.2-.4.5-.6.8-.7Zm-6.5 1c-.4.2-.4.3 0 .6v.3h.3c.2 0 .2-.1.2-.3l-.3-.7h-.2ZM49 7.3l.3-.2V7c-.3.2-.5.2-.7-.1-.1.1 0 .3.1.5h.3Zm-2 3.5-.2-.2c0 .3 0 .5-.3.7h.4l.2-.5Zm-26.5 10c.1-.2 0-.3-.2-.6l-.6.5c0 .2 0 .5.4.5l.4-.4ZM47 10.3c-.1-.3 0-.4.1-.5l-.5-.3-.1.4.3.4h.3ZM27.3 8.8c.1-.1 0-.3 0-.4-.1 0-.2 0-.3-.2 0 .4-.5.2-.7.5l.6.2h.4ZM3.8 21.6H4l-.1-.3-.1-.4-.2.1v.2c0 .1 0 .3.2.4ZM24.1 25v-.3l-.2-.2c-.1 0-.3 0-.3.2v.7c.4 0 .5 0 .5-.3Zm8-10.7c-.4-.3-.6-.3-1 .2l.4.4.6-.6ZM3.4 3.5l-.3-.2v.5c.2 0 .2 0 .3-.3ZM13 18.9l.1.1v.1c.6 0 .7-.1.8-.6-.5 0-.7 0-.9.4ZM51.2 7.4c.2-.4.1-.4-.3-.8-.2.3-.3.5-.2.7l.5.1ZM12.8.5l.3.1.2-.6h-.9l.4.5ZM1 13.3.9 13l-.3.2.4.1Zm13.4-.3c0-.2.1-.3.2-.3h.2c.1-.2 0-.3-.2-.3-.3 0-.6 0-.6.2l.2.3h.2Zm3.3-11h-.2l-.2.2c.3.5.5.5.7.4V2h-.3v-.2ZM7.6 10.1v-.4.4Zm0-.7-.2-.1.2.3v-.2Zm18.9 12.2L26 21q-.4.4.2 1l.2-.4Zm-11.1-5.1-1 .6c1 .2 1.1.1 1-.6Zm36-16h-.7l.4.4c.1.2.2.3.4.1l.1-.3c0-.1-.2-.3-.3-.2ZM4 .3s0-.2-.3-.2h-.2l.2 1 .2-.2c.2-.2.3-.3.1-.6Zm-.3.8zM9.6 11h.5l-.2-.4-.3.4Zm.6 9.3c-.4.1-.5.3-.4.7l.1-.1h.5v-.2h-.1v-.4ZM9.6 8.1V8c-.1.1-.2.2-.1.3 0 .2.2.5.5.5v-.2c-.3 0-.3 0-.4-.5Zm8.2 10.6c-.3-.6-.5-.7-1-.6.2.5.6.5 1 .6ZM49.2 6H49c0 .3.2.4.4.4h.4c-.1-.3-.2-.4-.4-.5V6h-.3Zm-.1-.6c.2 0 .3-.1.4-.3-.4-.3-.7-.2-1 0l.2.2.4.1ZM3.6 6.7l.2-.1h-.2v.1Zm10.7 1v-.3l-.5.3c0 .2.1.3.3.4l.4.2v-.1l-.3-.4.2-.1Zm12.2 8.6c-.2 0-.5 0-.5.2l.3.4h.3c.2-.3 0-.5-.1-.6Zm-1.3-8c0 .1 0 .3.2.3q.1-.2.8-.4h-.3l-.3-.2c-.3 0-.4 0-.4.3Zm8.4 11.1c.1.2.4.2.6.1l.2-.4q-.5-.2-.8.3ZM52.5 1.7c-.4.4-.4.5 0 1 .3-.6.3-.6 0-1ZM8.4 10.5h-.2l.3.2v-.2ZM6 15.6l-.1.4H6a.3.3 0 0 1 0-.4Zm16.9 3-.3.5.2.2.2.2c.3-.3.1-.6-.1-1ZM9.2 16.5c0-.2 0-.3-.2-.3-.3-.2-.4 0-.5.3l.4.2c.1 0 .3 0 .3-.2Zm9.2 1.2c-.2.2-.2.5-.1.7h.4q.1-.4-.3-.7Zm15.1.3v.2l.3.1.2-.1c0-.2 0-.4-.2-.4l-.4.1ZM51.3 4v.1l.2-.1h-.2Zm-28.8-.9s-.2-.2-.3-.1H22l-.1.3.1.1c.1.1.3 0 .4 0l.1-.1V3Zm-1 14.9c-.3-.1-.3 0-.6.2-.2.2-.1.4 0 .6l.6-.7ZM18.6.4c0 .2.4 0 .4.4.2-.2.2-.4.1-.6v.2c-.2 0-.2 0-.3-.3l-.3.3Zm.4.4zM6 11.2Zm.3.6c0-.2-.2-.3-.3-.5l.3.5Zm.3-.1Zm13.2 6.6c-.4.1-.6.2-.6.6h.4l.2-.6Zm19.4-1.2L39 17l-.4.1.1.3c.2.1.4 0 .5-.2ZM50.4 2.3l.4-.1-.3-.1-.1.2Zm-.1 2h.2l-.2-.3-.2.2c0 .2 0 .4.2.5v-.4ZM11.7 14.5c-.1.3 0 .4.2.6l.3-.1c0-.3-.2-.4-.5-.5ZM27 20.4s.2 0 .2-.2l-.1-.4c-.1 0-.3 0-.4.2 0 .1 0 .3.2.3ZM21 7q-.2-.4-.7-.2c.2.3.5.3.8.1Zm20.6 2.8v.2h.2v-.2h-.2Zm0-.6.2.2v-.2h-.2ZM44 11c.2-.3.4-.5 0-.8q-.2.5 0 .8Zm-20 7.8q.3-.4 0-.7-.3.5 0 .7Zm-18.6-.6-.1-.3-.4-.2q0 .5.5.5Zm18.9-5q.2-.3 0-.7c-.3.3-.3.3 0 .7ZM5.3 16s0-.3-.2-.3l-.3.2h.1l.4.1ZM16 25.5c-.2.1-.1.3.1.5h.1c.2-.3.2-.5 0-.6h-.3Zm-.7-2.8.3.1.2-.3c0-.2 0-.3-.3-.3l-.1.5ZM30.5 1.3c.5.2.6.1.7-.3-.3 0-.5 0-.7.3ZM18.5 12l.1.4c.3 0 .4-.1.4-.4-.2 0-.4-.2-.5 0Zm8 3.3L26 15c.1.5.2.6.6.3Zm-13.8-1.7Zm.5-.2c0-.3-.2-.4-.5-.3v.5c.2 0 .5.1.5-.2Zm10-11.6V2l.2.2h.2v-.4h-.4ZM9 8h.1v-.3h-.4V8h.4Zm16.2-3.5Zm0-.1c.5.1.6 0 .7-.4-.3 0-.5.2-.7.4Zm-1.8 13.9.4-.2-.3-.2c-.2-.1-.3 0-.3.1s0 .3.2.3ZM41 14.9v.1l.2.2-.1-.3Zm-16.4 2.5v-.2l-.4-.3v.4l.3.2.1-.1ZM54 2.2l.3-.1h-.4l.1.1ZM21.2 6.5l.4.4-.1-.4h-.3ZM7.5 11.7l.2.4c.3-.3.2-.5.1-.7h-.1c0 .2-.1.2-.2.3ZM27 9.8l.8.1c-.2-.2-.4-.2-.4-.5l-.3.4ZM1.8 16.6v.4H2c0-.2-.1-.3-.2-.3ZM14 22.8l.1-.1c0-.2 0-.3-.2-.4h-.1c0 .2 0 .5.2.5ZM47.2 2.7h.8v-.1c-.3-.2-.3-.2-.8 0Zm-37 13.4H10q.2.3.5.3c0-.2-.1-.3-.3-.3Zm25.5-3.4Zm0 .7.3-.2c0-.3 0-.4-.3-.5l-.1.4.1.3Zm-5 5.6q.5.1.7-.2c-.2-.2-.4-.1-.7.1Zm-5.8-.6c0-.2 0-.4-.2-.5q-.2.3.2.5Zm-.3-2.2-.2-.2a1 1 0 0 0-.4.1v.2h.6Zm11.7 1.9c-.1-.3-.3-.3-.6-.2.2.4.2.4.6.2Zm12.3-8.7v.2h.5l-.2-.4-.3.2ZM23 20.8c-.1-.2-.3 0-.3 0-.1 0 0 .2 0 .4l.2-.1c.1 0 .2-.2.1-.3ZM15.1 10Zm.2.4h.1c.1.1.2 0 .2 0h-.3ZM31 16h.3l-.2-.3h-.3c0 .1 0 .3.2.4ZM13.1 8c.1.2.3.3.6 0-.2-.1-.3-.3-.6 0Zm26.8 6.2c0-.4 0-.4-.3-.5-.1.3-.1.3.2.5Zm-.3-.5ZM28 2h-.1l.3.2L28 2Zm22.7 1-.2.2.2-.2Zm.4 0H51h.1ZM26.4 17.4c-.2 0-.3.2-.4.4.2 0 .4 0 .5-.2v-.2Zm-.4.4Zm-.2 5v.2q.4-.2 0-.5v.3Zm10.1-7.4h-.4s-.1.1 0 .1c0 .2.2.2.4 0Zm-12.4.6v.3l.3-.1-.1-.4-.2.2Zm24.8-9.2v-.1Zm-35.6 6.8Zm0 0c-.1-.1-.2-.2-.4 0v.1c.1 0 .2 0 .3.2l.1-.3Z"/><path d="M32.4 15H32v.3h.5l-.1-.4Zm-6.8-6.2c-.1.2-.2.3 0 .5q.2-.2 0-.5Zm-7.2-.2V9l.4-.2-.2-.3-.2.2Zm-4.5 11.1c.1 0 .2 0 .2-.3h-.5l.3.3Zm5.9 3.4c-.2-.2-.4-.3-.6-.1.2.1.3.3.6.1Zm4.7.9-.3-.3-.2.2.5.2v-.2Zm14.7-9.5c-.3-.2-.3-.2-.5 0 .3.2.3.2.5 0Zm-.5 0ZM4.2 19.2h.2l-.1-.2-.1.2Zm-1.8-.1h.2-.2Zm1.4.3h.3-.3Zm2.4 1.4v-.2.1ZM25.8 5v-.2h-.3V5h.3ZM3.3 8.3v.1-.1ZM16 9.7v-.1h-.2l.2.2Zm35.6-8 .2-.4q-.3.2-.2.4ZM15.7 14.8l.4-.2c-.2-.1-.3-.1-.4.2Zm5.5 6.1-.1-.1c-.2 0-.2.1-.2.3.2 0 .3 0 .3-.3Zm-5.4-2 .1-.4-.1-.1-.2.4h.2ZM10 12.4v.2c.2 0 .3-.1.3-.2v-.1l-.3.1Zm14.4 1.1c0-.2-.3-.2-.4-.2 0 .1.2.3.5.2Zm-.4-.2zm-21.5 8 .2-.2-.1-.2-.2.1.1.3ZM52.4 3ZM29.8 14.4v-.2h-.3l.1.2h.2ZM39 7.5v-.2h-.2l.2.2Zm-20.6 9.7H18l.1.4c.3-.1.3-.2.2-.4Zm9.3-.2v.3l.2-.2-.1-.2h-.1ZM51.4 1.9l-.2-.4-.1.2v.2h.3ZM19.8 8c.1-.2.1-.4-.1-.5v.4Zm-4.3 12.1c.2 0 .1-.2 0-.3-.2 0-.3.1-.1.3ZM50.8 1.3ZM.9 18l-.2.2H1V18ZM26.5 6.7v-.3h-.2v.3h.2ZM13.6 14l-.1-.2-.2.1.1.3.2-.2Zm-.6 1.7h.2v-.2H13v.2Zm20.3-1.4V14H33l.2.2h.1ZM13.5 7.5v-.2l-.2.1v.2l.2-.1ZM40 10v-.3h-.1v.3h.1Zm-.5-3-.2.1.1.3h.1V7ZM20 17.4h.2v-.2h-.4l.2.2Zm5 1.6-.2-.3-.1.2.1.2.1-.2ZM20 7h-.2.2ZM6.7 18.3h.2v-.1h-.2Zm20.2 1v.3-.3Zm10.6-15c0-.2 0-.4-.2-.3 0 0-.1.2 0 .2l.2.1Zm-.1.5.4-.2-.4.1v.1Zm0 0Zm3.4-1 .2-.2v-.4l-.2-.4.5.2v-.2c-.2-.1-.2-.3-.2-.5h-.3l.1.3c-.2 0-.4 0-.4.4l-.1.2c-.3.1-.5.3-.3.6 0 .1.2.3.4.3s.3-.1.3-.3Zm.4-2.5-.5-.2c-.2-.2-.3-.2-.4 0l.2.3v.2c.3 0 .6 0 .7.3l.1-.1v-.4Zm-2 .8v-.7c-.5.2-.6.4-.4.7h.4ZM40 2l.1.1-.2-.1Z"/><path d="m40 2.9-.1.1v.2l.5-.2c-.1 0-.3-.2-.4-.1Zm.5.1Zm-8.9 8.8v-.1l.2-.3h-.4l-.2.2c0 .2.2.2.3.2v-.2l.1.1ZM0 18v.3l.1-.1L0 18Zm1.3 4Zm-1 1.6c.2 0 .4-.2.6-.1l.6-.1.2.4c.3 0 .3 0 .3-.3l.2-.3.1-.2v-.3h-.4l-.2.4c0-.3 0-.5.2-.8l.1.2c.2-.1.4-.2.4-.4s-.1-.3-.3-.4l-.4.5h-.4V22c-.5 0-.8.2-1 .6l-.2-.3c.3-.2.3-.2.5-.6v-.2c.2-.2.3-.3.1-.5 0-.2-.3-.3-.5-.3l.2-.4-.4-.2v3h.2c0 .2-.1.4.1.5Zm0-6.8.1.3c.2.2.3.3.2.6l.7.4-.3.2H.9l-.2-.1H.5c-.2.2-.2.3 0 .5l.7-.1c.3.4.6.2 1 0l.3.4.1.2.2.2c0 .1-.2.3 0 .5h.5c0-.3.2-.4.4-.4l.4-.2v-.1l.1-.1v-.8l-.2-.1a.8.8 0 0 0-1-.3l-.3.2c-.1.2-.5.2-.7.2-.2-.1-.3-.3-.2-.6h.4l.3-.2c.2.1.3.3.6.1v-.3c.2 0 .3.1.3.2H4c.2-.1.5 0 .8 0l.4.2.5.2.4-.1c.2-.2.3-.4.3-.7h-.5v-.6c.2 0 .3-.1.2-.3l-.6-.1L5 16h-.2l-.3-.2-.2.3L4 16l.3-1h-.7l-.5.5c0 .3-.1.5.1.7l.1.2-.6.3v.1L2 17h-.1l-.1-.2v-.2a.5.5 0 0 0-.5-.3H1V16c.4.1.6 0 .6-.4v-.2c.2-.3.5-.5.5-1l.4.4h.8l.4-.4v-.2c-.2 0-.2-.3-.3-.5 0-.2-.4-.2-.5 0l-.4.1h-.2c-.1.3-.3.5-.7.5l-.3.3-.2.4-.2.3-.5-.3v.4c-.1.2-.1.5.2.6v.2a.6.6 0 0 0-.5-.1v.5h.1l.2.2ZM1.6.8c.6.4 1 .9 1.3 1.5l.1.4c.3.1.6 0 .8-.3l.1-.3c.1.2.1.4 0 .4-.2.2-.2.3-.2.5v.4c-.1.1 0 .2 0 .2H4c0 .1 0 .3.2.4.3 0 .2-.2.3-.3.2 0 .3.3.6 0v-.2l.1-.6h.6v.5l-.1.7.2-.2h.2c0-.5 0-.5.3-.5H7c0 .3 0 .4-.2.5h-.2v.5l.5.4c.2 0 .4 0 .6-.2v-.3l.2-.4c0-.4-.1-.6-.5-.6h-.1v-.2l.2-.2.2-.1.2-.2c0-.2 0-.3-.2-.4L7.4 2l-.2-.3-.5.1h-.6c0 .3-.2.5-.3.8-.2-.2-.4-.4-.6-.1l-.3-.1C4.7 2 4.4 2 4.2 2L4 1.9l-.3-.3c-.2-.2-.5-.3-.9-.2L3 .8h.3V.5h-.2L2.7.4 2.5.2V0h-.2l-.6.8Zm8 7.2v.1c.1.4.1.5.4.5h.3v.3c.5-.2.6-.7 1-1l.2.4c.2.3.4.3.8.2h.2L12 9v.6c-.6-.2-1 0-1 .4l-.5.6c-.2.2-.3.3-.2.6v.5c.4.4.7.3 1.1-.2l-.3-.4s.3-.1.2-.4c.3 0 .5-.1.7-.3l.2-.7h.3c0 .2.2.3.5.3l-.1.3h.4c.2 0 .3 0 .5-.2v-.4c-.1-.1-.2-.1-.4 0l-.3-.6V9c0-.4-.3-.7-.5-1l-.2.2c-.2-.1 0-.4 0-.6h-.7l-.7-.1-.4-.2v.3c-.3-.2-.5 0-.8 0v-.2l.1-.5v-.1c.2-.2 0-.4-.2-.5-.1 0-.3 0-.4.2v.1l-.1.4-.3.1-.1-.4c-.2 0-.5.1-.6.3-.1.1-.3.4-.1.7l.5-.1H9l.2.2.4.3Zm1.5 2.8v-.1c.1-.2.2 0 .3 0l-.3.1ZM7 8.7l-.4-.2s0-.1 0 0l-.8-.1q0 .3-.3.5c0-.2.2-.4 0-.7l-.5.3h-.1c-.2.1-.4.2-.6.1V9l-.5-.1V9l-.2.3c.1.3.2.5.5.6h.2l.4-.2.1.4-.6.3.2.4c.1.2.3.3.5.3v.4c.3.1.5 0 .8-.2l-.1-.2-.2-.2v-.6l.1.3.2.4h.6l.2-.4v-.1l-.1-.3c0-.2 0-.3.2-.3l.2.3c.2.2.3.3.6.2l.1-.3.1-.3v-.1l-.2-.4-.2-.2-.3-.3ZM.5 29.9c.4 0 .6-.2.9-.4l.4.1c-.4-.3-.6-.5-.5-1h.8l.1-.3c0-.4 0-.7.3-1v-.2c0-.3-.2-.4-.5-.3h-.8c-.3.3-.2.7-.3 1l-.5-.2c-.1-.2-.3-.2-.4-.1v2l.4.1v.3Zm6-3.1c.2-.1.4-.3.4-.5s-.3-.2-.2-.4c0-.2 0-.3-.2-.4-.3-.2-.6-.4-1-.2l-.4.3c-.2-.3-.5-.3-.8-.4 0 .2-.2.4 0 .6v.6c-.1.2-.3 0-.4 0q0 .5-.6.6c-.1.2 0 .3 0 .4h.3c.2.4.5.5.8.7.4.3.8 0 .9-.4v-.2l.3-.2v-.4l.6.1.3-.2ZM5 26.6l.1-.4.3.5H5Zm2.1-10.3c.1.3.3.3.5.2.1 0 .2 0 .3-.2l.3-.1.5-.1.2-.4c0-.2 0-.5.3-.6v-.8l-1.3-.6c.1-.3.1-.5-.1-.7h-.3l-.2.2.1.2c.2.2.2.5.2.7-.2.4-.6.9-.2 1.4l-.5.3c0-.2-.2-.3-.5-.4h-.1l-.2.2v.5l.2.4c.1.2.5.3.7 0l.1-.2ZM4.2 7.9l.1-.1c.3-.1.4-.3.3-.5l-.1-.4c-.2 0-.3-.2-.5-.4.4 0 .7 0 1-.2v-.9h-.6Q4.1 5 3.9 5c-.3.2-.2.6-.6.7 0 .4.5.4.5.8l-.2.1c-.3.2-.6.2-.7.6v.1a3 3 0 0 0-.2 0L2.5 7l-.2-.1c-.1.3-.3.5-.6.7.1.2.3.3.5.2h.2s.2 0 .2.2l-.1.2h-.2c.1.4.4.7.6 1h.6c.1-.1.2-.2.1-.5l-.2-.4h-.1c-.2 0-.3 0-.3-.2l.3-.2c.3-.4.4-.4.7-.2h.2Zm1.1 14.8-.3-.5c-.3 0-.4.4-.7.4-.2.3 0 .3.2.5v.4c.2.2.4 0 .5 0 .5.1.9.4 1.4.3v.4c.1.4.5.4.8.5.3 0 .4-.3.5-.4.5 0 .5 0 .7-.3a.5.5 0 0 0-.5-.3c-.3 0-.3.2-.4.4-.3-.4-.5-.6-.9-.7v-.2l.6-.2s.2-.2 0-.4c0-.2 0-.4-.2-.4l-.6.4-.1-.8-.6.3c-.2.2-.1.5-.4.6ZM14.2.8V1l.1.3c.2.2 0 .4 0 .6.1 0 .1.3 0 .4v.3c.1 0 .2-.1.4 0h.2V2s0-.2.2-.1c.2 0 .3.2.2.3v.4l-.1.3H15l.5-.2h.2l-.3-.4.3-.1.1.2v-.6l.6.2h.1v-.6h-.3l-.3-.1-.2-.4h-.3c-.2.3-.4.4-.6.4l-.3.2v-.2h-.1l.1-.6h-.1c0 .2-.1.2-.2.2h-.1ZM.8 40.6V40l-.2-.2-.5-.1H0v1.7h.4c.3-.1.4-.5.4-.8Zm3.1-19.3s0 .2.2.3l.2.5h.2c.1-.3 0-.4-.2-.5l.4-.4v.5c.3 0 .6 0 .8-.2l.4-.2c.2-.1.3-.3.3-.6v-.3c-.2-.3-.6-.3-.8-.5H5v.6l-.2.3c-.1-.2 0-.6-.4-.6h-.2c-.2.2-.4.4-.4.7l.1.4Zm7.4-20.1h.2l.3.2c0 .2 0 .4-.2.5 0 0-.1.2 0 .4.3 0 .6.2.8-.3-.2-.1-.3-.2-.4-.5h.3c.1.3.4.3.6.5 0 .2.2 0 .3 0l-.2-.3v-.2c-.4-.2-.3-.5-.4-.7L12 .6l-.5-.2-.3.1H11l.1.7ZM10.7 0l.1.1h.5-.9.3ZM6.6 28.9c.3 0 .5 0 .8-.2.2 0 .4-.2.4-.3V28l-.3-.6c0-.1-.2-.1-.4 0l-.2-.1c-.2-.2-.4-.1-.6 0-.2.1-.3.3-.3.6l-.1.4c.3 0 .3 0 .3.2 0 .3 0 .4.3.4Zm8-11.2c.1-.3 0-.5-.3-.6l-.2-.2a1 1 0 0 1-.3-.7h-.2c-.1.3-.4.4-.6.4l-.4.3.1.7.2.1c.2 0 .3.2.4.4l.4-.1c.2-.1.5-.2.7.1l.2-.4ZM1.5 10.4v.3H2c.3 0 .6-.1.7-.5.1-.3 0-.4-.2-.5h-.2c.1-.3-.2-.4-.3-.6 0-.2-.3-.2-.4 0l-.5.5.2.3-.6.3v.2c.3.4.6.1.9 0Zm-.9 0Zm9.2 13.9V24l.2-.3c0-.2 0-.4-.2-.4-.3 0-.6 0-.8.3l-.2.3.5.2-.2-.3.7.4Zm.1.8-.5-.7c-.2.2-.4.3-.5.6-.3.3-.4.5-.3.7l.2.1h.5l.3-.3.3-.3ZM3.3 12c0-.2 0-.4-.2-.4s0-.3-.3-.3l-.8.1-.1.2c-.2 0-.5 0-.6.3l.4.5c-.2 0-.3.2-.4.3.1.2 0 .4.3.6.3 0 .4-.4.7-.3 0-.2 0-.5.2-.7V12h.8Zm7.2-7-.2.1c-.1.3 0 .4.1.6l.2.4c.5.1.8-.3 1.2 0 .3-.5.2-1-.5-1.5l-.6.4h-.2Zm2.1-1.4h.2c.5-.1.6-.3.4-.8-.1-.4-.6-.4-.8-.1l-.1.2h-.1c.3.5 0 .9-.6 1v.3l.1.1v.1c.3.2.4.4.8.3l.2-.3c.1-.2 0-.4-.1-.8ZM3.5.2l.2-.1V0h-.4l.2.2Z"/><path d="M4.4.2v.1L4 .8h.4L5 1s.1.2.2.1l.2-.2V0h-1l.1.1ZM2.4 21c0-.2.2-.3.4-.4v-.2c0-.4-.3-.6-.5-.7-.3-.2-.5 0-.7.1l-.3.1H1l.1.3.2.2c0 .4.3.6.6.7v.3c.3 0 .4 0 .4-.2l.1-.2Zm2.7 8.3c-.3-.1-.4-.5-.7-.8l-.7.1-.2.2.1.7.3.4c.1.3.4.3.7 0h.3c.3-.2.3-.2.2-.6Zm.8-24.8-.5.2c-.3.2-.2.4 0 .6l.4.2.2-.3v.3c0 .5.3.6 1 .9v-.5c-.2-.2-.4-.3-.3-.6v-.1c0-.2-.2-.3-.4-.2l-.2.1.3-.4-.3-.1s-.1-.1-.2 0ZM.6 14.8c.3 0 .5 0 .6-.3l.2-.2c0-.1.3 0 .2-.3-.2-.1-.4-.2-.5-.5l-.2-.2H.5c-.2 0-.3.2-.2.5v.3l-.3.5.3.2h.3Zm10.6 9.3c0 .2.2.3.3.3.4.2.8 0 1-.4l-.1-.4c0-.3-.4-.6-.8-.5l-.8.5.4.6Zm1.8-5.2-.1-.1-.8-.5c-.1.3-.3 1-.2 1.2.2.2.3.5.7.5h.2c.1.1.2 0 .3-.1.2-.3 0-.5 0-.8V19Zm3.6-9.6v.3c.1.3.4.5.6.4h.6v-.3c.1-.3 0-.6-.1-.7l-.3-.2c0 .2 0 .3-.2.4h-.3l.1-.5-.3-.3.2-.3h-.2l-.2.3v.1l.1.3v.5Zm-.6 17-.3-.3c0-.2-.1-.3-.3-.3l-.5-.1c-.2 0-.4.2-.6.4l1.5.4.1-.1ZM0 15.4v.3-.2Zm8 2.3.3-.2h.3c.2 0 .3.2.5.3l-.1.5h.6l.5-.5c0-.1 0-.3-.3-.3s-.6-.3-1-.2h-.1l.1-.3c-.4-.3-.5-.2-.6.2-.1.2-.2.3-.4.3s-.2.1-.2.3H8Zm-3-4.5c.3 0 .5-.1.5-.4V12l-.3-.3H5v.3c-.2.1-.5-.3-.7.1v.5l.1.3c.2.2.4.3.7.2ZM18.8 1.5v-.3l-.2-.2h-1c-.2-.1-.3 0-.4.1v.4h.4l.1.4v.2h.5l.3-.1-.4-.1v-.3h.3l.2.3.2-.4ZM16.2.1h.3V0h-.3v.1ZM8.4 30.3v.2c-.2-.1-.2-.4-.4-.6-.3-.2-.2-.2-.4 0l-.2.2c.3.1.3.1.2.5l.7.2c.2 0 .1.3 0 .6h.3c0-.2.2-.2.4-.3.2 0 .3-.4.1-.6-.2-.2-.4-.2-.7-.2ZM.5 24.6l-.5-.4v.6l.1-.2h.4Zm10-9c0-.4 0-.7-.4-1-.1.2-.2.3-.4.2-.2 0-.2.1-.3.2l.3.1-.1.3c-.3.1-.3.2-.1.5 0 0 .2 0 .3-.2l.4.4.1-.2.2.1h.3l-.1-.3-.2-.1Zm4.7-6.9-.3.1v.3l.2.3.3.3-.3.3-.3.3h.8c.2 0 .5-.1.6-.4l-.2-.1-.2-.2-.3-.4v-.1c0-.2-.1-.4-.3-.4Zm5.7 3.1h.5l.2-.1c.2-.1.3-.3.2-.5l-.2-.3c0-.2-.2-.2-.4-.2h-.7v.7l.4.4ZM7.6.2h.2c.2 0 .3 0 .4-.2h-.6v.2ZM7 .3Zm9.5 2.6-.1-.4-.6.6h-.3c0 .2 0 .4.2.5l.2.2.3-.2h.1v-.1c0-.2 0-.4.2-.6Zm.3.2V3v.1ZM2.5 31.5l.3-.4-.4-.4c-.3-.3-.6-.1-.7.3v.1c-.2.3-.1.4.1.6.3.1.5 0 .7-.2Zm8.6-15.8.3.2-.1.9c.4.1.5-.3.8-.5a.8.8 0 0 1-.3-.6v-.6h-.3l.1.3c-.4-.1-.4 0-.5.3Zm6.6-15h.4-.2l-.4-.4v.3l.2.1ZM9.2 18.9l-.2-.3-.3-.2h-.3c-.2.1-.3.3-.6.3v.3H8l.3.3h.3c.3 0 .3-.3.5-.4ZM.6 10.4c-.2 0-.3 0-.5-.2l-.1.1v.9h.3c.3-.2.2-.5.3-.8Zm0 0ZM8 7.8c-.1.3-.6.2-.6.5l.2.1h.3l.2-.1h.1l.3.2c.2.2.3 0 .4 0h.2l.2-.2L9 8h-.3l-.4.1-.1-.2H8Zm-1 13-.2.2c-.2.2-.2.4 0 .6l.4.1c.3 0 .4 0 .4-.3.1-.2 0-.3-.1-.4l-.5-.2Zm6.3 4.1v-.2c.2-.2.2-.3 0-.4-.1-.3-.3-.3-.5-.2l-.5.3.3.5c.2.2.5.2.7 0ZM6.5 14.2h-.3l-.2.4v.3c.1.1.2.3.5.2.2 0 .4-.2.4-.5v-.4h-.4ZM3.7 24.8l-.2-.5H3c0 .1 0 .3-.2.3-.2.3-.1.5 0 .7.4 0 .7-.2 1-.5Zm7.7 4.5.2.6c.4.2.5.2.7-.4l-.6-.6c-.2 0-.3.2-.3.4Zm-7.7-6.9V22c-.7-.2-.8-.2-1 .4.3.4.4.4 1 .2Zm-.3-10.9H4c.2-.5.2-.6-.2-.9-.1.2-.3.3-.4.3L3 11l.3.5Zm9.3 3.2v-.6l-.1-.3h-.3l-.4.6c.4.5.5.5.8.3ZM9 11.1c0 .2 0 .3.2.3l.3-.1.1-.3.2-.3v-.1c.1-.1.2-.2.1-.3h-.6l-.2.3v.5Zm11-4.5-.1-.4v.4Zm-.6.4v.1l.2-.1h-.2ZM9 .4v.1l.4.3c.2 0 .2-.2.2-.3L9.5 0h-.8c0 .2 0 .4.3.4Zm8.8 16a16.2 16.2 0 0 1 .5.4c.3.1.6 0 .9-.3-.4-.5-.9-.3-1.4 0Zm-6.1 5.9c-.2-.2-.4-.4-.6-.3-.3 0-.3 0-.3.5l.5.4c.3-.3.4-.4.3-.6ZM.5 33c.2-.2.2-.5 0-.7-.1-.2-.3-.2-.5-.1v.7l.1.2c.2 0 .3-.1.3-.2ZM2 35.4c.4.3.7.3 1 0l.2-.3c-.8-.4-1-.3-1.2.3ZM8.6 1V.8C8.4.5 8.3.4 8.1.4H8v.3c0 .2 0 .3.2.4h.2l.3.3h.1l.4-.2-.1-.1-.5-.1Zm-.4 9.6h-.3v.2c-.1.4 0 .5.5.5h.2c.2 0 .3-.2.2-.5h-.3l-.3-.2Zm-2.9 3.7c-.3-.2-.5 0-.7.3l.3.2.3.2c.5-.2.5-.3.4-.7h-.3Zm5.5 6.1v-.6h-.3l-.4.2.1.3.1.4c.4 0 .4 0 .5-.3ZM3 28.3c.1-.3.1-.5 0-.8h-.4l-.2.3v.5H3Zm4.8-19 .1.2c.2 0 .2 0 .2.2h.3c.1-.2 0-.3-.1-.4 0-.2 0-.4-.3-.7-.3.2-.3.3-.2.6v.2ZM11 13c0 .4 0 .4.3.7.3-.2.4-.4.4-.7v-.2c-.4 0-.5 0-.6.3Zm-1-3.3c.3-.2.3-.5 0-.8-.5 0-.2.5-.4.8.2.2.3.2.5 0ZM6.7 30h-.5l.2.3v.2c.6 0 .7 0 .7-.6h-.4Zm12.1-17.1v.5h.5c.2-.2.2-.4 0-.6h-.5ZM.3.5H1l.2-.1C.5.2.3.2.2.5Zm9 4.3-.1.2.4.4c.2-.2.2-.4.1-.7v-.2c-.2 0-.3.1-.4.3ZM.6 27l-.2-.7H.1l-.1.3v.2c.3.3.4.3.6.2ZM14 20.6c-.2-.3-.4-.6-.8-.4v.5h.9Zm-8-9.3.3.5h.3v-.2h.2c-.1-.5-.3-.5-.7-.4v.1Zm.8.2zm1.8 0c-.4 0-.5 0-.6.4 0 .2 0 .2.3.4.2-.2.3-.4.2-.8Zm-1.1.2.2-.2v-.1l-.3-.3c-.3 0-.4.2-.6.4H7c.2.3.4.3.5.2Zm-.7-.2zm.7 7.5h-.3c-.2.1-.4 0-.6.3l.7.4c0-.2 0-.4.2-.6Zm3.5-1.3h-.4l-.2.5v.2c.2.1.3 0 .4 0l.1-.3s.1-.2 0-.4ZM.4 31v.7h.3c.2-.2.2-.5 0-.7H.5Zm10-4.6c-.5-.1-.6 0-.5.5.5.2.5.1.5-.5Zm-5.1 3.2c.5.4.5.4.8.1v-.2l-.1-.2c-.3 0-.5 0-.7.3ZM16.1 6.3l.1-.5c-.2 0-.4-.3-.7-.2.2.5.2.5.6.7Zm-1.8.2q0 .2.2.3l.2-.5V6l-.2-.3-.2.4v.4ZM19.9.8h.4V.7l-.1-.4H20v.3l-.3.1v.1h.2Zm-.7 9.7c.3.4.4.4.7.3 0-.3-.2-.4-.4-.5-.2 0-.3.1-.3.2Zm-3.7.9c.2-.1.2-.3 0-.4a.4.4 0 0 0-.3 0c-.2 0-.2.3 0 .4l.1.1h.2ZM1.4 24.3c-.1.1-.1.3 0 .4.1.2.3.1.4 0 .1-.1.1-.3 0-.4a.3.3 0 0 0-.4 0ZM.2 12.4H0v.5l.2.1v-.6Zm9.4-.6c-.2 0-.3 0-.4.2 0 .1-.2.3 0 .4h.3c.2-.2.4-.3.1-.6ZM3 29.6v.3c0 .2.2.3.4.3l.2-.2c-.2-.3-.2-.3-.7-.4ZM.8 11.2c-.2 0-.3.2-.3.5.3.2.4.2.6-.1v-.3H.8Zm12.7-6.8h-.4c-.1.2-.1.3 0 .4.1.2.3.2.4 0 .1 0 .1-.3 0-.4Zm.9 8.6c0 .2.2.3.4.3.1-.4.2-.4 0-.5l-.2-.1-.2.2Zm-3.6 18.1-.3.1-.2.4h.6l.1-.3-.2-.2Zm6-26.5c.2 0 .2-.1.1-.3 0-.2-.2-.2-.4-.2 0 .2-.2.4 0 .5h.3Zm-9 20.9h.4V25h-.5v.4Zm7.9-21.2h-.4v.4c.1-.1.3 0 .4 0l.1-.3v-.1ZM.5 47.6v-.2c0-.2-.2-.3-.4-.2-.2.3-.1.4.4.4ZM9 28.8l.3-.3c0-.2-.2-.3-.4-.4l-.1.2.2.4Zm-3.7 1.9c0 .3-.3.5-.5.8l.7-.1c-.2-.2.2-.5-.2-.7ZM17 7.1l-.3.3v.3h.3c.3-.2.2-.4 0-.6ZM1.3 22Zm.4-.2c0-.2-.2-.3-.4-.3l-.2.2c0 .1 0 .3.2.3.1 0 .3 0 .4-.2ZM6.8.8c0-.2-.2-.4-.3-.4l-.3.2c.1.3.4.2.6.2Zm2.5 20.8.2.1c.2-.2.2-.4 0-.5l-.1-.2v.6ZM6 1.2c.1.2.2.2.4.2.1 0 .2 0 .2-.2L6.2 1c-.1 0-.2.1-.1.3Zm-1.8.6.4-.3-.2-.1H4c0 .3 0 .3.2.4Zm-.7 19.5v-.1l.1-.2c-.1-.2-.3-.1-.4-.1 0 .1-.2.2 0 .3h.3Zm3.6 11.8c.2.2.3.2.5 0 0 0 .1 0 0-.1l-.1-.1c-.2 0-.3 0-.4.2Zm.7-27.9c.3-.1.3-.3 0-.5v.5Zm.8 22.3c0 .1 0 .4.3.5v-.4c0-.2-.1-.2-.3-.1ZM3.2 5.8c-.1-.2-.2-.2-.3-.2v.3c.2 0 .2 0 .3-.2Zm5-4.5H8v.3c.1 0 .2.1.2 0h.2v-.3ZM11 24.7h-.4.3ZM.8 8.7c0 .3.1.4.2.4l.2-.2c0-.2-.2-.2-.4-.2ZM10 20.9h-.2v.3h.2l.2-.1V21l-.3-.1ZM5.8 33.3H6l.1-.4h-.3v.3Zm8.2-19V14c0-.1-.1-.1-.2 0h-.2l.1.2h.3Zm.7-1.9c.2-.1.1-.3 0-.4-.1.1-.3.2-.2.3h.1ZM3.1 23.1q0-.3-.3-.3 0 .3.3.3Zm11.7-3.8q0-.3-.4-.2 0 .2.4.2ZM.3 9.8l-.1-.4-.2.1v.1l.3.2Zm2.3 26.8h.5c-.3-.3-.3-.3-.5 0ZM5.8 0h-.3l.2.2V0ZM4.1 30.8l.2.3h.2V31H4ZM14.9 4.7c0-.2 0-.3-.2-.4v.4h.2ZM2.6 24.3h.2V24h-.2v.3ZM6 8l-.3-.3c0 .3 0 .4.3.3ZM4.2 22.1H4v.3h.2V22Zm-.4-9.7.1-.1V12h-.3l.1.4ZM0 25.4h.2c.2-.1 0-.2 0-.3-.1 0-.2.1-.1.3Zm6.2-7H6v.3-.3ZM.1 30.2h.5c-.2-.2-.3-.1-.5 0ZM18 5.2V5l-.1.1v.1h.1ZM8 4v.3h.2L8 4Zm8 7.6h-.2l.4.1c0-.1-.1-.2-.3-.1ZM2.7 26.3c0-.3-.1-.3-.3-.3 0 .2.1.2.3.3Zm.4-13.6v.2l.1.2h.1v-.3h-.2Zm9.7-6.5h.1c.2 0 .2-.1 0-.3v.3Zm.9-3.8V2h-.2c0 .2 0 .3.2.3Zm-10 30.8H4q-.3-.2-.4 0ZM8.3 13h.4c-.1-.1-.2-.1-.4 0Zm-1.3.9-.2-.1-.1.2.2-.1Zm-2 1.4h.4c-.1-.1-.2-.1-.4 0Zm.8-1.8.2-.1-.2.1ZM3.7 8.2 3.5 8l.1.2.1-.1Zm-.8 20.9v.1H3V29l-.2.1Zm3.9 3.3c0 .1 0 .2.2.3 0-.2 0-.3-.2-.3ZM9.3 9.3h-.4c.2.3.3.2.4 0Zm3.8-5.5L13 4h.2v-.2ZM6 30.6h.2l-.2-.3v.3Zm3 4 .1-.1H9v.1ZM7.6 19.8h-.1v.2h.1v-.2Zm1.5 10h.3-.2ZM19.6 10l-.1-.1v.2h.1v-.2ZM5.8 12.5v.2h.1v-.2ZM3.1 32.3H3l-.1.2c.1 0 .2 0 .2-.2ZM8 24.8l.1-.2H8v.2h.2Zm2.6-22.4.2.1c0-.2 0-.2-.2-.1ZM12.1 7l.1.2V7ZM5.8 31.5h-.2v.1h.2v-.1ZM13 12.9l-.1.1.2-.1ZM6.8 1.3v.2H7l-.2-.2Zm.5-.1V1v.2Zm32.2 16-.5.2v.1c.1.4.3.6.8.5l.2-.4v-.1l-.2-.1-.3-.2Zm17.7 19.4.3-.2v.4h.1v-1.2c-.1.3-.3.4-.5.6l.1.4Zm.4-2.1v-.4.4Zm0 18v-.6.6Zm-1.2-14.8c.2.4.2.4 0 .7v1l.3.3c0-.2-.1-.5.3-.5-.1.3.3.6-.1 1V40l-1.1.4v.1c0 .1.3.3.3.5 0 .3-.1.4-.4.4v.3c-.5 0-.8.2-1 .7 0 .3 0 .4.5.3l-.4.4.4.7c-.3-.5.1-.7.4-1l-.4-.7c.2-.3.4-.3.7-.2.1.1.4.2.6 0l.2.2-.2.3.4.3h.7v-4q-.2-.2 0-.7v-.9h-.2c-.4.1-1 0-1 .6Zm.6.4h-.1l.5-.5v.3l-.4.2Zm.5 3.4-.4.1v-.1c0-.2.1 0 .4 0Zm-1.1-7c0 .3 0 .6-.2.8l-.6.6c.3.2.5 0 .7 0l.5-.2.5-.1h.3v-.7l-.3-.1c-.2-.4-.5-.4-1-.3Zm1 12.6h.2v-.3l-.2.3Zm.1-4.1-.4.1.2.6h.3v.1-.6l-.1-.2Zm-2.8-.6Zm2.4-29.2-.7.5h-.3l-.3.3c0 .2.1.3.3.3h.3V14c.5 0 .4.5.6.5v.3l.6-.4v-1a.5.5 0 0 1-.5-.3Z"/><path d="M56.5 14.8h.1v-.2.2ZM55.6 33l-.5-.4-.3-.2c-.4 0-.7-.2-1-.4-.5.2-.5.8-.6 1.2l-.3 1c0-.5-.4-.6-.7-.8-.2 0-.4.4-.6.1h-.2c-.2.1-.4.3-.4.7h.8l.4.5h-.3c-.4-.1-.7 0-1 .2h-1l.1.6-.5.3.5.5c-.6 0-1.1 0-1.6.2l.2.5c-.7.5-.8 1-.4 1.4l.7-.8c.4 0 .4-.4.8-.5.2 0 .3-.3.5-.3.3 0 .4-.1.5-.3.2-.3.2-.5.2-.8l.4.3.3-.1.3.3.2-.3c0-.4.3-.5.3-.7h.2v.2c-.3.3-.1.6 0 .9.5-.3.2-.9.5-1.2l-.4-.5h.7c.2 0 .5 0 .5-.2 0-.3.2-.3.3-.4l.6.2v.4l.8-.4c0-.1.2-.4-.2-.4 0-.3.4 0 .5-.2 0-.3 0-.5-.4-.7Zm-4.7 2.7-.4-.3v-.2c.3.1.3.3.4.5Zm4.5-1.8-.4.3-.3-.6c-.4-.1-.7.5-1 0 .3-.3.8-.3 1.2-.4l.5.7Zm-1.8 8.7Zm-.4.9Zm1.5-1.1c-.1-.2-.2-.4 0-.6v-.6c.2.1.5 0 .4-.2 0-.3 0-.7-.5-.9v-.6c.4 0 .7.2 1 0l-.3-.4h.4c0-.5.3-1 0-1.5l.4-.1-.1-.5c0-.1.1-.3 0-.4-.4.2-.7.3-.9-.1l-.3-.1-.2.7.2.2c0 .3.2.4.4.4v.8l-.8.5-.1.5-.3-.5c0-.4 0-1 .2-1.3H54l-.4.4c.1.5-.2.7-.3 1.2l.5.6v.4l-1 .6c0 .6.4.8.6 1.2h1v.3c-.4 0-.6 0-.8.2l.3.7c-.2 0-.3-.2-.5-.3l-.2.5c.2.3.5.4.9.4 0-.5.2-1 .6-1.4Zm-.4-1.4.5-.2-.1.4-.4-.2Zm2.6 2.5-1.1-.7c-.2.4-.3.7 0 1v.4c-.4.2-.4.6-.7.8 0-.5-.5-.7-.7-1l-.2.1c0 .2-.2.3-.4.3-.3 0-.3.3-.2.6l.5-.1.2.6 1-.3.1.4h-.5c-.2 0-.3.3-.3.5s.1.3.3.4c.3 0 .5 0 .7-.3l.5-.5.1-.8.7.2c.4.1.4.3 0 .6l-.3-.2q-.2.3 0 .8h.2c.6 0 .8-.1.8-.7v-1.2l-.8-.9Z"/><path d="m54.5 37.6.1-.6-.2-.8c.2-.3.5-.3.8-.2q0-.4-.4-1h.3c-.1-.1-.2-.5-.5-.3-.2.2-.5 0-.7 0l-.4.6c-.2.2-.2.5-.3.7l.2.3v.1H53v.6l-.7.2v.5c0 .2.2.4.3.5.2-.1.4-.2.5-.5 0-.2.2-.3.4-.2l.5.1h.5ZM56.8.9c-.2.5-.2 1 .2 1l.2.1.4.1h-.1l-.2-.1c-.2-.2-.2-.4 0-.5h.3V.4h-.1c-.4-.1-.6 0-.7.5Zm.4 23.1.4.1v-.7l-.3.1c-.1.1-.2.3-.1.4Zm-8.2.9c.2.5.5 1 0 1.4l.5-.6h.7c-.2.4-.4.7-.2 1l.1.1h.6c.5.3.5.3.9-.2l-.5-.3-.2-.8c0 .2-.2.4-.3.5l-.2-.8c0-.3 0-.6-.4-.8l-.7.4c-.3 0-.6.1-.7.4v.2l.2-.2.2-.3Zm4.4-14.8v-.4l.1-1a2 2 0 0 0-.5 0 49.2 49.2 0 0 0 .3 1c0 .2-.3 0-.3.3 0 .2-.1.2-.3.2-.2-.2-.1-.5-.1-.7l-.3-.1c-.2.3-.2.5 0 .7l.3.3c.1.2.3.3.5.3v-.4l.3-.2ZM50 18.2c.3.4.5 0 .6 0l.7.7.8-.3c-.3 0-.5 0-.7-.4.2-.3.3-.3.6-.2.3.1.3.2.2.6h.2V18H52v-.2c.2-.5.1-.6-.3-.9l-.5-.3-.3.4-.4.1c0 .3.4.5.3.8q-.5 0-.7.3Zm2.1 4.5-.5.4.7.6c-.2.4-.2.8.3 1l.4-.2v.5c.4.2.6 0 .8-.3l-.2-.5c0-.2.2-.4 0-.6l-.7-.1c0-.6-.5-.5-.8-.8Zm2.2 27.7c.1-.2.2-.4.1-.5-.2-.3-.5-.1-.8-.1-.2.2 0 .4 0 .6l.6.1-.4.5c-.3.4-.1 1 .3 1.2h.2c.7-.2.9-.8.4-1.3l-.4-.5Zm2.6-38.8.6-.3c-.2 0-.4 0-.6-.3l-.3.6h.3Zm-1.2-7V4h-.3v.3H55c0 .5 0 .7.2.8h.1v-.3l.4-.2Zm-1.2 0c0-.3.3-.3.5-.4v-.4l-.5.3-.1.4v.2h.1Zm-8.7 19.3c-.5.2-.7-.1-1-.3-.3-.1-.4-.3-.5-.5-.1-.4-.2-.4-.7-.4v.8l.7.2c-.1.6.4.8.7 1.1l1-.4-.3-.5Zm6.5 18.8c-.2-.6-.3-1.2 0-1.8l-.7.1c-.3.3-.6.1-1 .2v.6l1 .5v.4c.2 0 .5.3.7 0ZM51.2 29l.3.1.3-.1c.3.3.3.7.7.7l.8-.4q0-.5-1-1.3l-.2.3-.5.2-.4.4Zm6.1.8-.4.3h-.2c-.4-.1-.5 0-.6.3.2.3.4.3.8.2l.7.1v-1.2l-.3.3Zm-8.1 9.7-.3.2c0-.2-.2-.3-.4-.4l-.5.6c0 .4.5.5.7.9l.2-.2c.4 0 .6-.3 1-.4l.1-.5c-.4.3-.6 0-.8-.2Zm5.1-14.8c.5 0 .8-.2 1-.6 0-.3.2-.6.4-.7h.8V23H56c-.2.2-.6.2-.7.6-1 .3-1.2.5-1 1.2Zm-3.7-10.9c0 .1.1.2.3.2h.3l.4-.9v-.4L51 12c-.4.2-.5.5-.5.9v.3l.1.3v.3Zm.7-1 .2.1v.1l-.3-.1Zm-.3 1v.1c-.2 0-.2 0-.2-.2l.2.1Zm2.1 29.7Z"/><path d="M52.1 43.7H52l-.2-.4-.3-.1.1-.5c-.4.2-.6.6-.5 1.2 0 .2.2.3.5.1l.3-.1c.2.3.4.5.8.5-.1-.3 0-.5.3-.6l.1-.3H53c-.4-.2-.6-.1-.8.2ZM54 12.4l-.1-.2-.3.3.2.2v-.1l.2-.2Zm.3 1Zm-3.9 17.4.8.1-.3-.5c.4-.2.5-.2.4-.5-.1-.2-.2-.3-.6-.2l-.7.1-.3-.3c0 .6.3 1.1.7 1.3ZM46 16.4c-.1-.1-.4-.2-.5-.5l.1-.3c-.5.3-.6.6-.5 1l.4.2.3.3.4-.5c.1-.1.2-.3.1-.4l-.2.2Zm7.8 31.9-.4.1c0-.8 0-.8-.7-.9 0 .2-.2.5 0 .7.3.2.4.6.5 1l1-.5-.4-.4Zm1-28.1c-.6-.1-.8 0-.8.8l.4.3.4.2.4-.6v-.2c-.3-.1-.4-.3-.4-.5ZM52 .3c.2 0 .5 0 .6-.3h-1l.4.3Zm-9.6 36v.7l.4.3h.3l.5-.8-.6-.3c-.2-.2-.5-.1-.6 0Zm5.6-3.2Zm0 0 .3-.1h.4c.1-.3.4-.3.6-.5l.1-.2c-.1-.2-.3-.3-.6-.3l-.2.5a7 7 0 0 0-.4-.1l-.6.3-.1.3.2.2h.3Zm8.5-13.9V19c0-.3 0-.6.2-.8-.5-.3-.6-.2-1 .5l.3.1c.2 0 .3.3.5.4Zm.1 10.3q.8 0 .9-.6l-.6-.5c-.2 0-.5 0-.7.2l.4.9Zm-1 19.3c.1-.3-.1-.6.2-.8l.5.2c-.1-.3-.1-.5.1-.6.2 0 .3-.1.3-.3a44.1 44.1 0 0 0-1 .1l-.6.8.1.3c0 .3.2.4.4.3Zm0 0ZM52.1 30v-.3h-.5l.2.5-.4.4c.3.3.6.5 1 .3l.3-.3-.6-.5Zm-8.8-5.5-.6.5q0 .5.2.8h.3l.3-.2c.2-.2.2-.5-.2-1.1Zm9.5 22Zm1.2 0 .3-.5-1-.4v.6c-.2 0-.4.2-.5.3h.4c.3.2.5.2.8 0Zm-5.3-1.9c.8.3 1 .2 1-.8h-.4c-.6 0-.7.2-.6.8Zm2.6-12.4c.2 0 .3-.2.2-.4 0-.1-.2-.2-.3-.1l-.3.1c-.5-.2-.7.1-1 .5l.5.1h.5l.4-.2Zm5.1-10.6c.2 0 .2.2.2.3 0 .2-.2.3-.4.3H56l.3.1c.2.1.6 0 .6-.4 0-.2-.1-.4-.4-.5-.3 0-.5 0-.6.4l.2-.2h.3Zm-11 8.9q-.8.1-1 .5c.4.7.6.7 1.2 0l-.2-.5Zm1 16.8c.7.1.9 0 .9-1-.9.2-1 .3-1 1Zm10.3-20.9-1-.5v.8l1 .3c.2-.3.3-.5 0-.6Zm.3 22.8c-.1-.6-.7-.3-1-.6l-.4.2.1.6c.5.2.9-.1 1.3-.2Zm-1.4-.4Zm1.2 1 .4.5.4-.3v-1c-.4.1-.6.4-.8.7Zm.6-33.3v.1l.2.1v-.1l-.2-.1Zm-1.8 15.6.3.6.3-.4v-.9h-.4c-.4.2-.5.4-.2.7ZM47 13.3v-.1l-.2.2c.4.6.6.6 1.4 0l-.5-.2v.3c-.3 0-.5 0-.6-.2Zm7.7 34.2c0-.3-.3-.3-.5-.2l-.2.3c0 .2 0 .4.3.4l.8.2-.4-.7Zm.9-22.9v.7c.7-.3.8-.4.8-.9-.1.2-.4.3-.8.2ZM49 42.2c.4-.4.3-.8 0-1.3-.2.2-.5.2-.5.5l.2.5c0 .2.2.2.3.3ZM50.6 6l.5-.1-.3-.2-.2.3Zm1.1 7.2v.3h.4c.4-.3.9-.5.7-1.1-.2 0-.4.2-.6.4l-.3.2-.2.2Zm.3 31.4c-.6.3-.7.4-.5 1h.4c.3-.3.4-.6.1-1Zm0 1ZM54.6 31l.3.2c.2 0 .3-.1.3-.3v-.7c0-.2-.3-.3-.5-.3s-.2.2-.1.5v.6Zm-1.8-15.3-.3.3v.1c.2-.1.3 0 .4 0 .2.1.3.2.3.4-.3.3-.4.1-.6 0l-.1-.3.3.6.4-.3v-.6l-.4-.2ZM47 18.1l-.3.3c.4.2.6.3 1 0 .2 0 .2-.3.2-.5h-.6v.2c-.1.1-.3.1-.4 0Zm0 18.3c-.7.1-.8.2-1 .8.7.2.9 0 1-.8Zm4 2.6v-.2c-.3-.1-.5-.3-.9-.3l-.2.6q.5.2 1 0h.1Zm4.8 13.3Zm-.2-.3c0 .1 0 .2.2.3.1.1.3.3.5.2.3-.2.3-.5.2-.9-.3.3-.8 0-1 .4ZM42.9 30c-.7-.5-1-.4-1.1.3q.6.3 1-.3Zm8.2-8.3-.6-.2c-.4.4 0 .7.3 1 .4-.2.4-.5.4-.8ZM54.7 0Zm-5.6 10c.3.2.4.3.5.6l.3-.2a1 1 0 0 1-.1-.4H49Zm-6.5 19.4c.3-.2 0-.4 0-.6l-.5.5.5.2Zm4.4-.3c-.3-.3-.7-.3-1-.3l.1.9c.5 0 .5-.5 1-.6Zm6.9-6.4c.2.1.4 0 .5-.1.2-.2.2-.4 0-.5l-.1.3h-.5v-.2c-.1 0-.2 0-.3.2.1 0 .2.3.4.3ZM49.5 8.2l.2-.6v-.2h-.2l-.2.7.2.1Zm8 10.8v.5h.2v-.8l-.2.2Zm-5 20.5c.2 0 .4.1.5.3h.3c-.2-.4-.3-.7-.6-.9h-.4s-.1.1 0 .2c0 .2 0 .4.2.4Zm4.7-13.7-.2.1c-.1 0-.2.2-.1.3 0 .2.2.2.3.1.2 0 .3 0 .4-.2v-.5l-.4.2Zm-1.7 28h.5l.4-.4c-.7-.5-.8-.4-1 .4ZM44.8 27c-.2 0-.5.1-.4.4 0 .2.2.3.4.4.1.1.3 0 .5-.2l-.5-.6Zm11.7 26.8q.6.2.9-.4c-.7-.3-.9-.2-.8.4ZM57 34c.2.2.3 0 .4 0l.2-.3c-.4 0-.2-.5-.5-.7 0 .2 0 .4-.2.6l.1.4ZM43.8 11.2l-.1-.2h-.2l-.4.1v.3l.3-.1.4-.1ZM41 31.1h-.4l-.3.3c0 .2.1.3.4.3h.3l.2-.3c0-.1 0-.3-.2-.3Zm10.5 7c0 .2-.2.3-.3.5l.6.5c.3-.4.3-.6-.3-1ZM46 20.4c0 .5.2.6.6.8.1-.5 0-.8-.4-1v.2H46ZM51.2 8l.3-.1-.2-.3V8Zm1.6 13.5c0-.2 0-.6-.2-.5l-.3.1v.3s.2 0 .2.2v.1c.2.1.3 0 .3-.1Zm2-7.1h.3-.3Zm.7 0V14l-.3.3h.3ZM43.9 33.7l.3.1c.2 0 .4-.2.6-.4q-.4-.4-1 .3ZM57.5 3.6l-.2.1v.4h.3l-.1-.4Zm-8.8 18.9-.6-.9c-.1 1 0 1.1.6.9Zm5.3-6c0 .1-.1.3 0 .4.2 0 .3 0 .4-.2h-.1l-.4-.2Zm-9.3 1c-.1-.4-.3-.5-.7-.3h.1v.5h.2l.4-.2ZM55 6.2h.6v-.3l-.1-.1c0 .1-.1.2-.3.2l-.2-.2-.1.3.1.1Zm1.9 10.1c0-.1-.2-.2-.3-.1-.2 0-.4.2-.5.5h.3c0-.2 0-.3.5-.4ZM46.7 25c.6-.3.7-.5.5-1-.4.2-.4.6-.5 1Zm10.4-4.2-.2.4c.4.2.5-.1.7-.3v-.2l-.1-.2c-.2 0-.3 0-.4.2Zm-7.8 12.3-.4.3v.3c.3.2.5 0 .6-.1 0-.2 0-.5-.2-.5ZM45.4 5.4h-.1l-.2.3V6c0 .2.2.2.6.1-.1-.2-.2-.3-.1-.5h-.2ZM57.1 32l.5.9v-1h-.1c-.2 0-.3 0-.4.2Zm-10.4 9.4.4.2q.1-.5-.3-.8c-.2.2-.2.4-.1.6Zm7.7-26.2v-.1l-.1-.1-.1.3h.2Zm-5.2-2V13h-.4l-.1.2h.5Zm-2.7 16.6-.2.3-.2.2c.4.2.6 0 1-.2l-.6-.3Zm1.9-14.1-.2.3c0 .1 0 .3.3.3.1 0 .2 0 .3-.2 0-.3-.1-.4-.4-.5ZM47 26q.4 0 .7-.4c-.3-.2-.5-.2-.7-.1v.4Zm1.2 14.6c-.1 0-.3 0-.4.2 0 .2 0 .4.2.4s.4 0 .4-.2 0-.3-.2-.4Zm-.8-12.5c-.3-.2-.4-.1-.6 0l.7.6c.2-.3.1-.3-.2-.6Zm6.1-15.2Zm0 .1c-.3 0-.5 0-.5.2.2 0 .3-.2.5-.3Zm-.4.5ZM47.2 27c-.1-.4-.3-.6-.7-.6v.4l.7.2Zm2.2 18.7-.3.1c-.1.2 0 .5.2.5l.2-.2c.1-.1.1-.3-.1-.4Zm.8-26.4c.2-.1.3-.3.4-.6-.3-.1-.4 0-.6.2 0 .2 0 .3.2.4Zm-4.7 14.9c0 .2 0 .3.2.3s.3 0 .3-.2V34c-.2 0-.3 0-.4.2Zm11 14.4h.5c.2 0 .4 0 .5-.3h-1v.3Zm-.8 2.3c.3 0 .5.2.8-.1q-.6-.2-.8.1Zm-8.1-19.7q-.5-.2-.7 0 .4.4.7 0ZM47 12q-.4 0-.5.6l.4-.1.1-.4Zm6.2 19.2c-.3-.3-.3-.3-.7 0q.3.3.7 0Zm-4.5-18.8.3-.2s0-.3-.2-.3v.5Zm-8.8 11.3-.1-.2c-.2-.1-.3 0-.5.2.3.2.5.2.6 0Zm3.1-.8-.4-.1-.1.2.3.2c.2 0 .3 0 .3-.4Zm10.3 2.5-.2.1c-.1.3 0 .4.3.4.1-.2.2-.4 0-.5Zm-2.8 8.2.3-.7c-.5.2-.6.3-.3.7Zm1-13.9Zm.3.4c.2 0 .3-.2.2-.4h-.5c0 .2 0 .5.3.4Zm5.3-4.7H57v.3h.3l.1-.1-.1-.2Zm-9.3 15.2c0-.1 0-.3-.2-.3l-.2.2c0 .2 0 .3.2.5 0-.2.2-.3.2-.3Zm3 17.4c.3.1.6.3.9 0-.3-.2-.5-.3-1 0Zm-2.5-16.2h.2l.3-.5h-.4l-.2.3.1.2ZM57.2 0H57h.1c0 .1.2 0 .2 0Zm-4 14.4-.4.2c.2.3.5.2.7 0h-.1l-.2-.2ZM56 34.5l.4-.4-.4-.3v.7ZM48 8.9h-.2l-.1.1v.1c.2 0 .3 0 .3-.2Zm-5 12.4-.1-.1c-.3 0-.5 0-.5.2l.1.2.4-.3Zm5.9-4-.1-.2q-.2.2-.2.5c.2 0 .3-.1.3-.3Zm4.7 25.3Zm-.6.1.1.2c.3 0 .4 0 .5-.3h-.7ZM47.1 38q-.2.4.2.6c.1-.3 0-.5-.2-.7Zm.8-6.2q-.4 0-.6.3c.3 0 .4 0 .6-.3Zm1.6-.1.2-.2-.1-.4h-.2v.6Zm-1.3 11.8c.3-.2.3-.4.2-.6-.4.2-.4.2-.2.6Zm9.2 11.9v.4l.2-.1v-.4l-.2.1ZM44.5 30.2c.1.2.2.2.4.1l-.1-.3h-.4l.1.2Zm10.4-7.8v-.3l-.2.1.1.2Zm.4-.5ZM50 38v.3c.2 0 .3 0 .4-.2l-.1-.2c-.1-.1-.3 0-.3.1Zm7.2-18.2c-.2.1-.3.3-.1.5.1-.1.4-.2 0-.5Zm-4.4 26.7c-.4 0-.4 0-.5.3.4 0 .4 0 .5-.3Zm0 0Zm-4.5-12.8v-.1c.1-.3 0-.4-.3-.4 0 .2 0 .4.3.5Zm-.3-.5Zm-4.7.1h-.5q.2.3.5 0Zm7.7 9.2h-.3c-.2 0-.1.2.2.4v-.4Zm6.3-34.8-.4-.1v.3l.4-.2Zm-7.8 23.2.3-.2-.1-.2-.3.1v.3Zm2-11.2Zm.1-.5h-.2l-.1.4h.2c.2 0 .2-.2 0-.4Z"/><path d="m50.8 39.5.5-.1-.3-.4-.2.1v.4Zm6.2-7.2c-.2-.1-.3-.2-.6 0q.3.3.5 0Zm-.2-7.3-.3.2.3.3.2-.2-.2-.2Zm-1 27.3Zm-.4.1c0 .2 0 .4.3.4v-.5l-.3.1Zm-9.6-31v-.5c-.2 0-.3.1-.3.2 0 .2 0 .3.3.3ZM41.6 32h.2l.2-.3-.2-.2-.1.4ZM52 46.2v-.6c-.2.4-.2.4 0 .6Zm0-.6Zm-6.5-34.2v.3l.2-.2h-.2Zm0-1.7v.2-.2Zm-.3 1.3v.4h.2l-.2-.3ZM44 13.5h.2-.1Zm11.6 9.4.1-.2v-.1l-.2.2Zm-5.1-.2.2.4c.1-.2.1-.3-.2-.4Zm-5.7 5.7c0-.2-.2-.2-.3-.1 0 .2 0 .2.2.2l.1-.1Zm1.6-5.4.4.1.1-.2h-.4Zm6.3-5.9-.1-.2-.2.1.2.2h.1Zm-.5 14.3c.2 0 .1-.3.2-.5-.1.2-.4.2-.2.5Zm.2-.5zM43.7 10l-.1-.3-.2.2.2.1h.1Zm7.9 26.6v.2h.2v-.4l-.2.2Zm-3.4-11.1v-.2h-.4c.1.3.2.4.4.2Zm.6 9.5h.1v-.2h-.3c0 .2.1.2.2.3Zm8.8-8.5v-.1.1Zm-12.4-3.8c0 .3.1.2.3 0 0 0-.2-.2-.3 0Zm1.1-14.6h.2l-.1-.2-.1.2Zm5 12.2-.3.1.2.2.1-.1v-.2Zm-1.8 0h.1V20h-.1v.3Zm8.1 27.9Zm-5.8-8 .1.1.2-.1v-.3l-.3.3Zm5.8-20.1V20v.2Zm-.9 26.6h-.3.3Zm-8.4-19.4V27c-.2 0-.2.1-.2.2v.2l.2-.1Zm-1.5 4.9.2-.2h-.3l.1.2Zm-.1-18.3h-.1v.2l.1-.2Zm-.4 20.2h.3-.3Zm8.1 4.4.3.1v-.3l-.3-.3c-.3.2-.2.4 0 .5ZM42.6 8.7ZM41.9.4h-.5v.4l-.2.3v.2h.1V2l-.1.2V3c.2.1.2.3 0 .5H41l-.2.3c0 .2-.1.3-.3.4-.2 0-.2.2-.2.4s.1.3.3.4l.3.1h-.3c-.2.1-.2.2-.2.5l.4.2c0 .4 0 .4.2.5l.1.1v.2c-.1.3 0 .4.1.6l.1.4s-.3 0-.4.2l.2.5.1.7-.4.1c0 .3 0 .3.3.4l.3.1.2.1h.2c.1-.2.1-.3 0-.4l-.2-.1h-.1V9h.3l.5.1-.2.2.2.2.2.1.3-.1v-.2l-.3-.3v-.7c0-.3-.2-.6-.5-.7l.2-.2c.2.3.3.3.6.4h.1l.1.1c.2.2.3.2.5 0h.1l.2-.5.4.2v-.2l.3-.6.8-.2c.2.3.3.4.5.3h.2l.2.2.1.1c.4-.2.6-.4.5-.6l-.2-.4h.2l.4-.5.4-.9-.2.1-.2.2H47l-.4-.4v-.3l.1-.2.2-.4v-.4s0-.2-.2-.3c-.2.2-.4.2-.7.1-.1.3-.4.4-.3.8h.3l.2.1v.2l-.1.2.2.2-.3.3-.1.1a1 1 0 0 0-.3.3V6h-.8c-.1 0-.3 0-.4.2h-.1l-.2-.2c.2-.4.3-.5.2-.7 0-.2-.1-.3-.3-.4v-.2l-.3-.3-.2.2H43c.2-.1.2-.3.2-.5l.1-.2h.1l-.6-.4-.4.1v-.1c0-.2.1-.3.3-.2h.8l.2-.2v-.3l-.2-.1c-.1-.4-.3-.7-.7-.6 0-.2-.2-.4 0-.6.2-.1.1-.3 0-.5l-.1-.3h1.1v.5l-.3.2-.1.1.2.2h.4v1.1c.2.1.5.2.7 0 .1 0 .2-.3 0-.5V2c.2 0 .4 0 .6-.2 0 0 .2 0 .2.2l.1.3c.3 0 .3-.1.5-.2.2 0 .2.2.1.3v.1c.2 0 .3.1.4 0 .3 0 .4-.2.5-.4 0-.2-.2-.2-.2-.3 0-.3-.3-.4-.3-.6 0-.2 0-.3-.2-.4l-.2-.2H46q-.3-.3-.6-.1l-.3.1-.4-.2c-.3 0-.4-.1-.5-.4h-2.1l.2.3H42ZM46 6l.3.2v.4L46 6ZM42.8.3l-.3-.1q.2-.2.3 0Zm.7 5.9h.2v.6h-.4l-.6-.1v-.9c0 .1 0 .2.2.3l.3.2.3-.1Zm-1-2.1v.3l-.2.2s-.2.1-.2.3c0 .2 0 .5.2.6v.1l-.4.5-.5.5v-.2l-.2-.1v-.8l-.1-.3a4.8 4.8 0 0 0 .6-.3v-.2l.3-.2.3-.3.1-.1ZM21 0h-.3l.2.2.2-.2Zm36.3 4.3-.1-.1h-.5a1 1 0 0 1-.7-.3v-.6c.3-.2.4-.5.3-.9h-.5l-.5-.4c-.2.4-.4.6 0 1l-.2.1.1.5-.2.1v.5c-.2.1-.4.1-.5.4v.1L54 5l-.2-.1v-.2h-.3v.2l-.4.1-.3-.3c-.1-.2-.5-.2-.6 0 0 .1 0 .3.2.5l.3.3.2-.4.1.1-.1.3c-.3.2-.2.4 0 .5l.2.1.3-.4h.7v.4c.1.2.3.1.4.2h.3l.1-.6.2.3c.2 0 .3 0 .4-.2l.1-.2c.3.2.5.3.9.3l.1.1c.3.3.5.2.6-.2l.3-.6.1.3V4.4h-.1l-.2-.1Zm-2 .8.2.2-.2-.2c-.3-.1-.3-.3-.3-.7h.4V4h.3v.6l-.5.2.1.3Zm2.2-1.5.1.4v-.6l-.1.2Z"/><path d="m45.8 9 .2.4-.4.4h-.1l-.2.3c-.2-.1-.4-.2-.6 0v.5h.3l.2.3v.2l.2.2.1.1h.1l.1.1h.2l.5-.2h.1c.2-.2.3-.5.3-.7v-.4l-.3-.3c-.2-.1-.2-.5-.2-.7.1-.2.3-.3.6-.2v.3l.3.4c-.2.2-.3.3-.2.5l.3.1-.1.3-.1.2v.2c.2.3.1.6.1.9l-.2.4-.1.5.1.4c.2.2.4.3.7.3V13l.6-.1c0 .3.1.3.4.2V12l.1-.2v-.3l-.2-.2.1-.3 1 .3v-.5l-.1-.2c0-.3-.2-.4-.5-.5-.3-.1-.5-.1-.6.1l-.2.1-.3-.6h-.2l-.2-.6.2-.2h.2c.2-.1.2-.3.3-.5v-.2h.3c-.2.4 0 .6.4.5h.2c.3.2.5.6 1 .5l-.3.5c-.1 0-.2 0-.1.2l.1.5.4.4h.2c0-.3.3-.3.4-.4.3 0 .3-.3 0-.5v-.6c-.4 0-.6-.2-.6-.6 0-.2-.2-.2-.3-.3l-.4-.2-.3-.1.2-.6v-.1h-.7c-.1 0-.2 0-.3.2h-.2c.3-.2.2-.4.1-.7-.2 0-.5 0-.5.4l-.2.2-.3.1-.2.2H47l-.4.7-.3-.3h.1v-.5c-.1-.1-.3 0-.4 0v.9c-.2.2-.1.4 0 .6ZM16.8.3c.2.2.4.1.6 0h.1l.4.3h.2c.2 0 .2 0 .3-.2V.2l.4-.2v.1c0 .2.1.2.3.3V0c.2 0 .2.1.3.2 0 .2 0 .3.2.4h.3V.2h.3l.2-.1.1-.1h-4l.3.3ZM30.7 2c-.1 0-.2 0-.3.2V3h.1l.2.4h.1c.3.1.5.1.8 0l-.2.5-.3-.1h-.3a1 1 0 0 0-.4 0l-.2.3-.1.2-.1.3c-.2.2-.2.3 0 .5 0 .2.2.3.4.4l.4.2-.1.4v.4l.3-.1h.2v-.1c.1-.2.2-.4.1-.6v-.2h.3l.4.2V5l.5.2v-.8h.1l.5-.3L33 4v-.2h.2l.2-.2h.3l.2.3v-.1c-.2-.4-.2-.8-.2-1.2h.4c.2.2.1.4.1.6l.4-.1.1.2.3-.1c.1.1.2.3.4.3.1 0 .3 0 .3-.2.1-.3.1-.5 0-.8l-.2-.1-.3-.2h-.3c-.2-.4-.3-.6-.7-.6L34 2v.1l-.4.2h-.2l-.6-.3v-.2c0-.1 0-.2-.2-.3v.6l.2.1c-.1.2 0 .5-.3.6-.2.2-.5.2-.7.3l-.2-.8a5 5 0 0 0-.2-.5v-.2h-.2l-.3.3h-.2Zm26.6 12.9v.9c-.2.1-.2.3-.3.4l-.1.1c-.4.1-.5.2-.5.4v.3l-.3.1c.3.4.7.5 1 .8l-.3.3c-.3.2-.3.5-.2.8v.2l-.5-.4h-.6c.2-.5-.1-1-.5-1a.9.9 0 0 1-.6-.4c-.2-.2-.3-.3-.5-.1h-.6c-.3.4-.2.7.3 1l.3-.3c.2.1.2.4.4.2h.1c0 .4.1.5.3.7l.7.2.1.3c-.3 0-.4.2-.3.5l-.3-.1v.4c0 .2 0 .4.2.5h.4c.1-.2.1-.3 0-.4v-.1l.5-.3h.2c.4 0 .6-.3.8-.5v-.1c0-.3.3 0 .5-.2v-.6l.1-.8v-.3h-.1c.1-.3 0-.5 0-.8h.1v-1.8h-.3Zm-3 3.3v-.3c.2.1 0 .2 0 .3ZM27.2 3v-.3l-.2-.2-.4-.3h.7c0 .3.2.4.3.5l.3.1h.1l.2-.1c.1-.2 0-.3 0-.4l-.3-.2-.2-.1a7.4 7.4 0 0 0 0-.7V1l-.2-.3c-.2.2-.3.3-.5.2l-.2.1c-.3 0-.3.2-.3.4V2l-.4.5c-.4-.3-.2-.7-.2-1-.3-.2-.3 0-.4.1H25c0 .1-.1.3-.3.3h-.2l-.3.4-.5-.1-.1.1-.2.2-1 .3v.6l.2.2c.2.1.4.2.6 0l.4-.3.5.2h.1c.2.1.3.1.4 0 0-.2.2-.2.3-.3.3.2.5.2.8 0h.3l-.4.6.2.2h.4l.2-.4h.2l.2.1c.2-.2.3-.3.3-.5V3ZM27 .9Zm.8.4zm28.7 10.9-.1-.3c0 .2-.2.3-.3.4l.4-.1Zm-.5 1.4.4-.2v-.8a1 1 0 0 1-.4-.2c-.4.5-1 .7-1.5.5l-.5-.5-.2.2v.1l.1.4c0 .2.2.2.3.2h.5c0-.1.2 0 .2 0 0 .2-.2.2-.3.3-.2.2-.3.4-.1.6l.3.1h.3l.1.1.4-.3.2-.1.3-.4Zm-2.1-1.4-.2-.5h-.4c-.2.4 0 .6.2.9l.1-.1.2-.3h.1ZM27 .9Z"/><path d="M23.9 0c0 .4.1.8.5.8h.6V.4h.5v.3h.3c.2 0 .3-.1.3-.4V0h.2l.1.1.2.3v.2l.4.3c.2-.3.2-.3 0-.6l-.1-.1.1-.2h.1-3.7.4Zm24.6.2.3.2v.2l-.3.3.1.2.2.1c.1.2.4.2.5 0v-.1c.2-.2.2-.3 0-.5l.1-.3.1-.3h-1v.2ZM37 8.1v-.6c0-.1 0-.2-.2-.1h-.2l-.2-.1-.2-.2c-.2-.4-.3-.5-.5-.4-.3 0-.4.2-.3.6l-.5.9h-.2v.6h.2c0 .2.1.2.2.3l-.1.4c.2-.3.5-.6 1-.5v.8l.4.1c.3 0 .6 0 1 .2h.1c.3 0 .5-.2.3-.5v-.8h-.1a.8.8 0 0 0-.4-.2h-.5c0-.2 0-.4.2-.5Zm2 3.7h-.2l-.3.1h-.2c-.2-.1 0-.3 0-.4l-.5-.1-.1-.4v-.2c-.3 0-.4 0-.4.2l-.1.3c-.3.2-.4.5-.6.8-.2.4 0 .7.2.8h.4l.3.3h.4l-.1.7.2.3c.2.2.3.3.5.3h.1l.4-.2c.1 0 .3 0 .3-.2l.2-.5v-.5l-.4-.5c.2 0 .3-.1.3-.3l.1-.4-.2-.1H39Zm-1 1 .1-.2h.5l-.5.4v-.2ZM53.3.2c0-.1 0-.2.2-.2h-.7v.1h.5Zm-4.8 14c-.3.1-.3.3-.2.5l.3.3.1.3.1.6.4.1c.2 0 .5 0 .7.2h.7l.5-1.3c.4.1.6 0 .8-.2v-.2l-.2-.2h-.3c-.1.3-.4.3-.6.3-.5-.2-1-.5-1.4 0L49 14c.2 0 .4-.2.4-.5v-.2l-.2-.1h-.5l-.4.2c-.2.1-.2.5 0 .7l.2.1ZM57 8.3a6 6 0 0 1 0 2v.4l-.1.2v.1c.2.3.3.3.5.3l.2-.1V9.8l-.2-.3-.2.1v-.3l.3-.2.1-.2v-.1c0-.2 0-.4-.2-.4 0-.1-.2-.1-.4 0ZM38.3 0h-.4.4Zm-2.2 1v.2h-.3c-.2.1 0 .4-.1.6V2l.4.2.2.2.1.1c.1 0 .3.1.4 0-.1-.2 0-.4.2-.4h.1l.4-.5c.2.2.4.3.7.2v-.5l.2-.2c.1-.1.2-.2.1-.4V.2h-.1l-.2.2-.4-.2V0h-1l-.3.3-.3.6Zm5.1 11.3.1.2-.2.7c-.1.2-.2.4-.1.7h-.4a1 1 0 0 0-.4.8c0 .3.3.4.4.5 0 .5 0 .5.4.7.2-.1.2-.3.2-.5v-.2l-.3-.1V15c.2-.3.5-.5.6-1h.2l.2.6s.2.2.4.1c.1 0 .4 0 .4-.3l-.5-.6.9-.1-.5-.6c0-.2-.4-.1-.5-.4l.4-.3c0-.3-.4-.4-.4-.7-.3-.2-.3.1-.5.2h-.3c-.2.2-.2.3-.1.4ZM29.7 0h-.6l.2.3c.2 0 .3 0 .4-.2Zm-1.4.2c.2.3.2.4 0 .6L28 1l-.3.3v.2l.7.8h.2c.3.1.5 0 .7-.1 0-.2.1-.3.3-.3l.2-.1.1-.3V1l-.1-.1a.7.7 0 0 0-.6-.4c-.2 0-.3-.1-.4-.3l-.2-.1h-.5l.1.1Zm-.5 1.1zm5.9-1v.3l.4-.1.6-.5h-1.5l.3.1.2.2ZM20.3 2.7l-.3-.4c-.1 0-.1-.2 0-.4v-.1c-.2-.3-.5-.2-.8 0l.2.2v.3h-.6c-.6 0-.7.4-.8.7v.3c.2.1.2.3.2.5s.1.3.3.4c.4.3.8 0 1.1 0h.5v-.3l.1-.3.2-.3v-.6Zm30.7.9zM52.4 6c-.1-.2-.3-.3-.3-.5 0-.3-.3-.5-.3-.8 0-.2-.2-.3-.4-.4l-.2-.1V4h.3c.3 0 .3 0 .4-.4l-.7-.4-.2.3c0 .2 0 .2-.2.2h-.4v.5l.3.3-.4.2h-.1v.1c-.1.3 0 .5-.3.7v.2c0 .2.1.5.4.5l.3-.3.2-.2.3.1.1.1.2.6.5-.2.5-.2Zm-4.1-2.5c.1.2.3.2.6 0l.2.4.5-.5v-.2l.2-.2h.2c.2 0 .3-.2.3-.3l.1-.3V2l.5.1.5.1c.2 0 .3 0 .3-.2 0-.1 0-.2-.2-.2h-.3l-.1-.3c0-.2-.1-.3-.3-.3h-.4l-.2.6h-.5l-.1.2-.2.3H49l-.4-.3h-.1l.1.3v.2l-.3.4h-.8v.4h.7Zm-25.2 4v.2s.2.2.1.3v.4l-.1.4.3.2.5.2.6-.2.2-.1.1-.5c0-.2.3-.3.2-.5 0-.5-.4-.9-1-.7h-.8l-.1.3Zm20.1 5.4.2.2.1.1c.1.2.3.4.6.3h.3c.2-.1.2-.3.3-.5l.1-.4v-.3c-.1 0-.3-.2-.4 0h-.2s-.2 0-.2-.2c.1-.1.4 0 .5-.3v-.3a.9.9 0 0 0-.7-.4l-.3.1-.4.2-.5.3.1.2c.2.1.3-.1.4-.2l.4.4h-.4v.1c0 .3 0 .5.2.7ZM28 5.3l.2-.3.2-.1c.2 0 .2-.1.2-.3l.1-.2c.4-.2.5-.3.7-.6v-.2c.3 0 .3-.2.4-.4l-.1-.3-.4-.2h-.4s-.2 0-.2.2l-.1.1c-.2.3-.2.5-.1.7v.1L28 4c-.1.1-.3 0-.4 0l-.1.6v.2c0 .3.1.4.4.5Zm6.6.8v-.3l-.2-.7v-.4c0-.2 0-.4-.2-.5-.2-.2-.4-.2-.6-.1l-.1.8-.3.1.2.4v.9l.3.2.4.2c.3 0 .4-.1.5-.3V6Zm4.9-.9zm.4 1 .2-.3c0-.2-.1-.2-.2-.3 0-.2-.1-.2-.2-.3h-.3c-.2-.3-.5-.3-.8-.3l-.1.4-.1.3h.5v.9l-.3-.2-.3.2c-.2.1-.3.4-.2.6 0 .2.2.3.5.3l.2-.1.1-.1.1-.2.1-.3.5-.3.3-.3ZM37.5 14v-.1c-.2-.2-.4-.2-.6-.1-.2 0-.3 0-.4-.2v.3h-.2c-.3 0-.4.1-.4.4v.4l.3.4v.1c0 .2.2.3.3.3h.4l.6-.2v-.7c.2 0 .2-.2.2-.2 0-.2 0-.3-.2-.4Zm10.1 6h-.2c0 .3-.2.4-.3.5v.4c.2.2.2.5 0 .7l.4.2c.4 0 .5 0 .6-.4l.1-.2c.2-.2.5-.3.7-.3v-.2l-.4-.5c0-.2-.2-.3-.3-.5l-.6.2ZM37.9 5.8c-.2 0-.3 0-.4-.2l-.2-.3L37 5l.2-.2-.3-.3-.3.1c-.1.2-.3.2-.5.3l-.4.4v.2l.2.4v.3l.6.1.3-.3h.6l.5.2s.2 0 .2-.3H38Zm-19.6.7v.2l.6.5.5-.1.1-.1c.3 0 .5-.2.5-.4v-.1l-.1-.3V6l-.1-.3-.1.1-.3.2-.3-.1h-.2c-.2 0-.3-.4-.6-.2.2.3 0 .6 0 .9Zm21.2 10.7.2.2h1.4c.3.2.5 0 .5-.2s0-.5-.3-.7l-.3-.2-.3.8h-.1c-.2-.3-.3-.6-.7-.7-.2-.3-.4-.3-.7-.2l-.1.2v.5l.4.3Zm13.2-7c.2 0 .3 0 .3-.2s.3-.1.3-.3l-.1-.8-.2-.1c-.1-.2-.1-.5-.4-.6l-.4.4a10 10 0 0 0-.3-.3c-.2 0-.5 0-.6.2 0 .3.4.4.3.7l.7.1.3.1.1.8ZM39 .2c0 .3.2.3.3.4l.3.2.2-.1.3-.1h.3l.4-.2h.4c.2 0 .2-.2.3-.4h-2.3l-.3.2Zm5.3 8.2s0 .2-.2.2H44c-.3.2-.4.4-.5.6l-.3.1c0 .2 0 .3.2.3l.7.5h.1c.4 0 .6-.3.7-.6.2-.2 0-.4-.2-.6v-.5h-.4ZM36.2 12c0-.2 0-.4-.2-.6v-.1h-.9c0 .2-.1.2-.2.3l-.2.1c-.3.1-.3.4 0 .7l.1.2c0 .2.1.2.2.3h.4l.1-.3.6-.5Zm13.5-4.4c0 .3 0 .6.4.6l.2.2s0 .3.3.3c0-.3.2-.5.5-.6l.1-.2v-.4c-.1-.2-.2-.2-.5-.2h-.3L50 7l-.2.4v.2Zm-8.3 10.7-.5.4-.3.4c0 .3.2.8.5 1l.4-.2c.3 0 .6-.4.4-.8 0-.3-.3-.5-.4-.8h-.1Zm4.2.9c-.2.2-.5.3-.5.7v.2l.1.3c.3.1.6 0 .8 0h.2v-.1l.2-.2c0-.3.3-.5.4-.8-.3-.1-1-.2-1.2 0ZM56 23.4h-.3c-.2 0-.5.4-.4.6v.1l.1.4.2.1c.4.1.7 0 .8-.2l.2-.4c0-.3.1-.4.3-.6l.3.2.1-.2-.3-.2h-.2l-.3.2a1 1 0 0 1-.5 0ZM39.6 23v-.5c0-.3-.4-.6-.6-1 0 .5-.3.6-.5.8l-.1.4c0 .3.2.7.6.8l.3-.2c.2 0 .3-.1.3-.3ZM22.5 1v.5c0 .2 0 .3.2.5h.3l.2-.2h.4c.1 0 .2 0 .2-.2L24 1c-.2-.2-.4-.2-.6-.2-.2 0-.3 0-.5-.3l-.4.4ZM49 6Zm.3 1 .1-.2c0-.3 0-.5-.3-.6V6c-.4 0-.6-.2-.7-.4H48c-.2.2-.4.3-.3.6.1.3.3.4.6.4h.1l.1.2c.3.3.5.3.7 0Zm-2.7 9.8.6.5c.1 0 .3-.1.3-.3l.2-1v-.1h.2c.3-.3.3-.5-.2-.6-.2 0-.3-.1-.3-.3 0-.3-.1-.2-.3-.2v.3l.3.3c.1.2.1.3 0 .4l-.3.4h-.4c-.2.2-.1.4 0 .6Zm5.4-4.3.7-.1.2-.3c.2 0 .1-.2 0-.3h-.3c-.1-.2.2-.5-.1-.6H52l-.3.1c-.2.2-.3.4-.2.7.1.2.2.5.5.5ZM15.5.2h-.2c-.3 0-.6.2-.7.5l-.1.5h.4c.2 0 .4 0 .6-.2l.3-.7h.3l.1-.1V0h-.5v.1h-.2Zm18.8 15.2v.1l-.2.6c0 .2-.3.2-.5.1v.2l.2.4.3.2h.3c.2-.2.3-.5.2-.7h-.2c.2-.3.4-.3.6-.5.2-.3.2-.3 0-.4l-.2-.2c-.1.3-.1.3-.5.2ZM40.9 7l-.2-.2-.1-.2-.1-.1c-.3-.2-.5 0-.7.1l-.3.1v.8l.4.2V8l.4-.6.2-.2c.2 0 .3-.1.4-.3Zm7.9 10.3.3.1-.1.2v.3l.4-.1v-.2c.4 0 .8 0 1-.5-.2 0-.3-.2-.2-.3 0-.2-.1-.3-.3-.3v.3c-.1 0-.2 0-.3-.2-.2-.3-.3-.3-.6 0l.3.3-.4.4ZM17.6 5.9l-.5-.2h-.4v.5l.2.2c0 .3.2.4.4.5l.4.2.1-.3c.2-.2.2-.4.1-.5v-.1l-.3-.3Zm37.3 16.5c.1.2.2.5.5.6l.1-.2.1-.2.4-.4h.2c.2 0 .3 0 .3-.3v-.3H56l-.2.2-.4.3-.2-.2c-.2 0-.3-.2-.4-.3v.8Zm-1.2 5.4.1.5v.1c.2.2.4.3.6.2.1 0 .2 0 .3-.2l.2-.3-.1-.8-.7.1c-.2 0-.3.2-.4.3ZM38 4.2v.3h.5c.3 0 .4-.2.5-.7a.7.7 0 0 1-.5-.4l-.4-.3v.1c-.2.1-.3.3-.3.4l.1.3.1.3Zm2.4-3.1-1-.1c-.2.3 0 .5 0 .8l.5.2h.2c.3 0 .5-.2.5-.4v-.2l-.3-.3ZM30 .5v.2l.2.2.5.1c.1 0 .3 0 .4-.2 0-.1 0-.2-.2-.3V0h-.7l-.3.5Zm3 9.2c-.2.3-.2.5 0 .7l.6.3.3-.5c.3-.3.1-.6-.3-.7a5.7 5.7 0 0 0-.3 0c-.2 0-.3 0-.4.2ZM55.7.3v.4h.3V.3c.2 0 .3-.1.5-.3h-.8v.3ZM14.2 2.7v.5h.6l.3-.3c.2 0 .3-.2.2-.3v-.4c.1-.1 0-.3-.2-.3L15 2v.6l-.2-.1c-.2-.1-.3 0-.4 0l-.1.2Zm7.2-1.1h.2c.3 0 .5-.2.5-.4V1L22 .5l-.5.1c-.1 0-.3.1-.3.3 0 .3-.1.6.2.7Zm-.3-.6ZM50 18.8l-.1-.2-.2.1c0-.4 0-.4-.3-.5l-.2.3-1-.1c0 .4.3.6.6.8l.6-.3h.6ZM7 .3l.5.2V.1l.1-.2H6.5v.2H7Zm38.6 15.3v.3c0 .3.3.3.4.5.2 0 .3 0 .3-.2l.2-.3v-.2L46 15v.3l-.3.3ZM21.8 6Zm.4.8c.3.2.5.3.8.1v-.2l-.1-.5a.6.6 0 0 0-.4-.2h-.8c.2.1.3.3.3.5l.2.3ZM12 7l-.2-.4H11c-.2.1-.2.5-.1.7l.7.2c.2-.1.3-.3.3-.5Zm42-.5v-.2c-.3 0-.5-.2-.7 0v1l.6.1.3-.6-.2-.4Zm3 8.9-.2-.4.2-.1v-.2c-.2-.1-.1-.6-.5-.6v.5l.1.2v.1l-.2.4c-.2.1 0 .2.1.4v.1l.2.2.2-.2v-.4Zm-13.8-1.2c-.1.1 0 .3 0 .4 0 .2 0 .3.2.4.3 0 .4 0 .5-.2l.2-.5-.2-.2c-.2-.2-.5-.1-.7 0Zm-32-12.7v-.4c-.2 0-.3-.2-.5-.3-.4.2-.5.5-.4.7 0 .1.3.4.5.3.2 0 .3-.1.3-.3Zm5.8.7c-.2-.2-.3-.2-.4 0l-.2.3v.4c0 .2 0 .4-.2.6h.1l.3.3c.3-.3.2-.5.1-.7l.1-.2v-.6l.2-.1Zm23.3 18.6.2.1c.2.1.3.1.4 0 .2-.2.3-.4.1-.6l-.3-.4c-.2 0-.3.2-.4.3-.3.2-.2.5 0 .6Z"/><path d="M50.2 14c.2 0 .3 0 .4-.2v-.3l-.1-.3-.3-.1-.3-.1c-.2.1-.3.3-.3.5.1.3.3.4.6.5Zm-9.8-3.5-.4-.1c-.2-.2-.4-.2-.7 0 .1.4.3.7.6.9l.5-.3v-.5Zm-2.2-8 .6.4c.2 0 .4-.2.5-.4.1-.2.1-.3 0-.4h-.8l-.2.2-.1.2Zm-2.6 17.6.6-.7c0-.2-.2-.2-.4-.3l-.6.3c-.2.4-.1.5.4.7Zm6.6-9.1v.1h.6c.2-.6.1-.8-.2-.9h-.2c-.4.2-.4.3-.2.7Zm11.2-.9-.3.2v.3l.1.4h.3l-.1-.9Zm-2 9.1c-.3 0-.5-.2-.7-.3-.5.4-.5.5-.3.9h.7l.2-.2v-.4Zm2.4-3.3-.3.1c0 .1 0 .3.2.3l.3.2.3.2h.4v-.5l-.4-.2-.5-.1ZM49 26.3c.5-.5.2-1 0-1.4l-.2.3-.1.2c-.2.4-.1.6.3.9ZM15 8v-.6c-.1-.2-.2-.3-.4-.3l-.2.4v.1l-.3.2.5.4.4-.2Zm27.8 11c.2 0 .4-.3.3-.5 0-.3-.1-.3-.6-.3l-.3.6c.2.3.4.4.6.3ZM32 7.6l-.1.1-.4.4.1.3.4.2s.2 0 .3-.2c.2-.1.2-.3 0-.5 0-.1-.1-.3-.4-.3ZM29.3 11l.3.2.1-.4c.1-.4 0-.6-.5-.7v.2c-.2.2-.2.3-.1.4v.2l.2.1Zm15.1-6.8v.1h.2c0 .2.1.2.2.2h.2c.2-.2.3-.3.2-.5 0-.2-.2-.4-.4-.3h-.4v.5ZM21.8 6ZM21 6v.3l.2.2h.2c.2 0 .2-.1.2-.2l.2-.3-.2-.4c-.4 0-.5 0-.6.3Zm32.6 9.3v.2c.1.1.3.2.5.1v-.3l.2-.3-.1-.3c-.6 0-.7 0-.6.6ZM15.3 4.8 15 5l-.3.1.5.4h.4l.4-.6-.3-.1h-.4Zm35.2 7.8v-.3c0-.3-.1-.5-.4-.6a11 11 0 0 0-.4.5c.3.5.4.6.8.4Zm-6.2 5c0 .4 0 .5.4.5h.6v-.3l-.3-.4a6.2 6.2 0 0 1-.7.2ZM54 2.2l.3-.2c0-.6 0-.6-.4-.7l-.4.3c0 .3.2.5.4.6Zm-17.6 8.5h.7v-.5H37c-.2-.2-.4-.1-.5 0-.2.1-.1.3 0 .4v.1ZM49 6.1zm.2-.1h.3v-.3c-.2 0-.3-.2-.4-.3l-.4-.2v.2c-.2 0-.2.2 0 .3l.3.4h.1V6Zm-24.8-.8V6h.6v-.5l-.1-.2h-.5Zm30.9 10c.2.1.2-.1.3-.2.2.1.4 0 .6-.2-.2-.4-.2-.4-.5-.2h-.2s-.1 0 0 0c0 .3-.2.3-.3.3v.3ZM12.9 1.5c.1.2.4.3.5 0l.3-.2-.1-.3H13l-.1.5ZM52 18c-.3 0-.4 0-.6.3.2.2.4.4.7.3h.1c0-.4 0-.4-.2-.6Zm.3-14.7.1-.3c0-.2 0-.4-.2-.4-.2-.2-.4 0-.7.2.2.4.6.2.8.5Zm3 13.1c-.2.2-.2.3 0 .5s.5.1.8-.2c-.1-.4-.6-.1-.8-.3ZM22 3v-.2c-.2-.2-.2-.2-.6-.2v.6h.5L22 3Zm12.3 11.3c0 .6 0 .6.6.6h.1v-.5a.4.4 0 0 0-.3-.4l-.2.2h-.2Zm18.3 12c.2-.2.1-.4 0-.6H52v.6h.6ZM39.7 5.1l.2-.2.1-.1c-.2-.4-.2-.5-.6-.5v.9h.2Zm-.2.1zm-4.8 0 .2.2h.1c.1 0 .2 0 .3-.2V5l-.1-.3c-.4 0-.4.1-.5.6ZM37.5 8v.2l.6-.1h.2l-.1-.4h-.3l-.1-.1-.3.3Zm9-7 .5.2.3-.3a.7.7 0 0 0-.4-.3h-.4V1Zm-9.3 5.3-.3.1-.1.2v.2c0 .2.2.2.3.2l.4-.1c0-.3 0-.5-.3-.6Zm7.4 15.1c.3-.3.5-.5.3-.9l-.4.1q-.1.5 0 .8Zm8.7-7.7zm-.3-.5.1.3.2.2c.4-.2.4-.4.2-.8l-.5.3Zm0 1.8c-.2-.1-.2-.1-.4.2.2.2.4.4.8.2 0-.3-.1-.4-.4-.5Zm.3-1.3zm-.1.7.2.2h.1l.2-.4c0-.3-.2-.4-.4-.5v.2c-.2.2-.3.4-.1.5Zm-7.4.3v-.2c0-.2 0-.5-.3-.6l-.3.6.6.2Zm.9 3.3.2.2h.4v-.4l-.4-.2-.3.1v.3ZM32.9 8.3v.3c.2.1.4.2.6 0v-.3h-.6Zm24.4-6.8c-.2.1-.2.3 0 .5l.2.1h.1v-.6h-.3ZM38.6 18c.1-.5 0-.6-.5-.5-.2.5-.1.5.5.5ZM22.4 1.8c0-.2-.1-.3-.3-.2l-.2.2V2c0 .2 0 .3.2.4.4-.1.5-.2.3-.5Zm12.9 12h.2c0-.3 0-.6-.3-.7-.4.5-.4.5-.1.8l.2-.1ZM54.9 26c-.3.3-.4.4-.2.8.2-.1.4-.3.4-.5s0-.3-.2-.3Zm-1.1-3.6h.5V22a.4.4 0 0 0-.5 0v.4ZM40 8.8l-.2.2v.3c.2.2.4.2.5 0V9H40ZM52 7c.2 0 .2-.2 0-.3h-.4l-.1.4c.3.2.5.2.6 0Zm1.2 9.5c0-.2-.1-.3-.3-.4 0-.1-.2-.2-.3 0v.3c.2.2.3.4.6 0Zm-18.4-5.8c-.2.1-.3.3-.3.5l.2.2c.2-.1.2-.2.3-.4v-.3h-.2ZM53 8h.2v-.3c0-.2-.1-.3-.4-.3-.2.3-.1.4.2.5Zm-2-5-.2-.1h-.1l-.1.3v.1c0 .2.2.2.4.3V3Zm0 .6zM17.5 2c.1-.1.1-.3 0-.4H17c-.1.1-.1.3 0 .4.1.1.3.1.4 0Zm16.7-.6c.2-.2.3-.3.2-.4 0-.1-.1-.2-.4-.3v.4l.2.3Zm18.1 20h-.1c-.2 0-.3.1-.3.3.4.2.5.2.6 0v-.2l-.2-.1Zm-18.8-3.2h-.1l.1.5.2.2.2-.3v-.3l-.4-.1ZM40 2.8c-.5-.2-.7-.1-.6.3h.4l.2-.3Zm-.2 12.9v-.4h-.4v.5h.4Zm15.6-9.5h.2l.2.1-.1-.2h-.3ZM17 9.1l.2.1.2-.4c-.2-.1-.3-.1-.4 0V9ZM36.5 17c.1 0 .2 0 .2-.2h.1v-.2s-.1-.2-.2-.1l-.4.2c0 .2.1.3.3.3ZM34 13.1a1 1 0 0 1-.3 0l-.5-.4.2.6h.5l.2-.2ZM20.7.9l.2.2.2-.1-.2-.1.1-.2V.4h-.3V1Zm.4.1Zm36.5 22.6v-.1ZM42.9 8.5c-.2 0-.3 0-.3.2v.2l.2.2.3-.3v-.1l-.2-.2Zm-.3.2ZM57 7.5v-.6h-.3v.2l.1.4h.2Zm-2.3-4.1c.3 0 .4-.1.2-.3l-.2-.3h-.2l.2.6ZM18.4 1.6H18V2l.4.1h.1c0-.2 0-.4-.2-.4ZM43.8 17l.1-.3h-.5l-.1.2h.5ZM11.1.4l.4-.1-.2-.2H11v.2l.1.2ZM43.7 11c.1-.2 0-.3 0-.4 0 0-.2-.2-.3 0v.3h.3Zm-12 4.6h.2l.1-.2c0-.1 0-.2-.2-.3l-.1.2v.2ZM35.6.8c.3.2.3.2.5.1L36 .5c-.2 0-.3.1-.3.3Zm.5.1zm1.4 15.4c-.2 0-.5 0-.6.2l.5.1s.2-.2 0-.4ZM17.8 5.2v.3l.3-.1v-.2h-.3Zm19.7.2c.3-.2.3-.2 0-.5q-.2.2 0 .5ZM16 2.7v-.3l-.2-.2h-.3a5.6 5.6 0 0 0 .3.5h.1Zm24.4 15.8v-.6c-.2.1-.4 0-.4.2l.2.2.1.1Zm3.7-1.2v-.1h-.3v.2l.1.2.1-.1.1-.3ZM31.9 14v-.2h-.3v.2h.3Zm19.3 6.8-.1-.2-.2.1v.3h.2c.1 0 .1-.1 0-.2Zm1.7.6v.3l.3-.1c0-.2-.2-.3-.3-.2Zm-11-10.9v-.3q-.3.1-.4.4h.3ZM33 2l.3-.1v-.3H33l-.1.1V2Zm6-1c0-.3-.1-.4-.3-.5 0 .4 0 .5.3.4Zm1.4 1.8.3-.2v-.1h-.4v.3h.1Zm5.7 18.9q-.2 0-.2.4.3-.1.2-.4Zm1.6-20.6c.1.1.2.2.3 0l-.1-.3c-.2.1-.2.2-.2.3ZM28.3 11l-.1-.2H28v.4l.2-.2Zm5.3 1.3h.2V12l-.2.2v.1ZM23.4 4.5l.2.1h.1v-.2h-.3Zm17.2 5.6h-.2v.3h.2V10Zm16.2 2.6Zm-14.5-1.4v.3h.3v-.2h-.3ZM32 .5h-.3l.1.3c.2-.1.2-.2.1-.3ZM9 4l.1-.2-.2-.1V4Zm43.6 6.8-.1-.3-.3.2.2.1h.2ZM39.1 7.7v.1c.1.2.2 0 .3 0 0-.2-.2-.3-.3-.1Zm7.2 5.5h-.2v.2h.3v-.2Zm-21.9-12V1c.1-.2 0-.2-.1-.2v.3Zm10 7.2V8c-.2.2-.1.4 0 .5Zm19.9-6c.1 0 .2.2.3 0 0 0-.2-.2-.3 0ZM53.5 23c.2 0 .2 0 .2-.2h-.1v.3ZM38.6 10.2V10s-.2 0-.2.2v.1l.2-.1Zm13.2.1.1-.2h-.3v.2h.2ZM16.9 5l-.2.2.1.1c.2 0 .2-.2 0-.3Zm14.7 6.8-.1-.2v.4c.2-.1.2-.2.1-.2Zm20.2 3.5v.3c.3-.1.3-.2 0-.3Zm-31-7.2s.2 0 .1-.2c-.1 0-.2 0-.1.2ZM51 14v-.2l-.2-.1c0 .1 0 .2.2.2Zm-1.6-1.9v.3c.2 0 .2-.1 0-.3ZM13.6 4.5h.1v-.1h-.1v.1Zm37.9 8.4-.2-.1.1.2v-.1Zm-16-2.3h-.1l.1.2h.2l-.2-.2ZM32.4 15v-.3l-.2.2h.2Zm23.2.7c-.2.2-.2.2 0 .3v-.3ZM34.2 14c.1 0 .2 0 .3-.2h-.3v.2ZM32.3.9V.7H32V1h.1Zm-1.8 16.3V17h-.1v.2h.1ZM45 14.8h-.2v.1h.3v-.1ZM35.2 17v.2-.3Zm20.4 9.3h-.2v.1h.1v-.1Zm-3.4-13.5v-.1h-.1v.1h.1Zm-20-2 .1.3v-.2h-.1Zm7.8 4.7v.1h.3v-.1H40Zm17.5-8.9h.1v-.1.1ZM22.2.2l.2-.1-.1-.1-.2.1ZM44.7 7h.1Zm-11.4 6.7v-.2h-.1v.2h.1ZM35.4 1l-.1.1.1-.1ZM52 19.8l.3.1v-.1H52ZM31.2.5V.3h-.1v.2Z"/></g><path fill="#fff" d="m42.1 29.3.5-.6c1.4-2 1.8-3.8 1.8-3.8s-.2.3-1 .7l-.2.1c-1.4.6-4.4 1.5-10.6 2-.5 4.6-4 7.2-4 7.2s-4.2-2-4.5-7a45 45 0 0 1-13.2-3.2h-.2l-.9-.4-.7-.4.2.3.2.2.4.7.4.6c2.5 3.5 8.7 10.6 17.3 10.4 6.2-.2 10.2-2.3 12.7-4.7l.3-.3 1.6-1.8Z"/><path fill="#0c2b77" d="M1.7 7.7A4.7 4.7 0 0 0 2.8 6l.1-.3a6 6 0 0 0 .2-2.3v-.2L3 2.7l-.1-.4A3 3 0 0 0 1 .6H0v7.8c.5.1 1.1 0 1.7-.6Zm52.2 4.5.1.2.5.5c.5.2 1 0 1.5-.5l.1-.1a3.3 3.3 0 0 0 .5-.7l.3-.7v-.3l.1-.2a6 6 0 0 0 0-2.5l-.2-.3c0-.2 0-.4-.2-.5-.2-.4-.5-.6-.8-.8h-.2l-.2-.1h-.6l-.2.2-.5.5a3 3 0 0 0-.3.5 6 6 0 0 0-.4 2.3v1.4l.3.6.2.5Z"/></svg>