<svg xmlns="http://www.w3.org/2000/svg" viewBox="0 0 57.6 57.6"><path fill="#fff" d="M27.3 34.6s-5.8-1.1-8.3-6.7v-.1c-5.4-.2-8.6-1.4-8.6-1.4s6.3 11.4 22.7 8c13.4-2.8 18.2-18.7 18.2-18.7s-12.4 8-22.2 10.8c.6 4.9-1.8 8.1-1.8 8.1Z"/><g fill="#0c2b77"><path d="M34.5 5v.3l.3-.2s-.2-.1-.2 0ZM30.8.2l.2.1.2-.1.1-.2H31s0 .2-.2.2Z"/><path d="M31.9 1.3h-.2c-.2.2-.2.4-.2.5 0 .2 0 .3.2.5v.3l-.4-.5s-.2-.1-.1-.3l-.3.4c-.3 0-.5 0-.7-.2l-.5-.3.1.3.2.4c0 .3.2.3.3.5 0 .2 0 .4-.2.5-.2.2-.3.4-.2.6v.3l-.1.5-.2.1.1.4c-.1.5 0 .5.3.6l.4.2h-.2v.1l-.2.1-.3.3c0 .2 0 .4.3.4h.2v.2h.4l-.2.1c-.2 0-.3.2-.4.3 0 .3 0 .5.2.6l.2.2c0 .2-.3.3-.2.5V9l-.2.3c0 .4-.3.4-.5.7L29 9l-.4-.2-.5-.2.1-.4H28c-.2 0-.3-.2-.3-.4s0-.3-.2-.5V7c0-.1 0-.3-.2-.4-.2 0-.3-.2-.6 0h-.2a1 1 0 0 0-.3-.7l-.6.1c-.3 0-.4.2-.5.5V7H25c-.4 0-.4.1-.4.5v.2l.1-.1v-.4c.4.3.2.6.2.8 0 .2-.2.3-.4.3-.1-.3-.2-.4 0-.5-.3-.2-.3-.6-.7-.5V7c-.2 0-.2-.1-.3-.2l-.4.4-.4-.2v-.3l-.2.2-.2.5v.2l.3.6c.1 0 .2 0 .2.2s.2.2.3.3l.5-.5.5.3-.1.5h.3v-.3l.2-.2c0 .1.1.3.3.3h.4c0 .2-.2.2-.2.3-.3.2-.3.4 0 .6l.2.2c0 .1-.1 0-.2 0l-.4-.2v-.2c0-.3-.2-.4-.6-.3l-.4.1v.7l.4.2.5.1c.2.2.3.1.4 0l.2-.2c.2 0 .2.3.4.2l.5-.3q-.2-.3-.6-.2c.4-.3.2-.6 0-.8v-.1c.5-.3.6-.5.5-1l-.1-.5.5-.1v.4h.5c.3.3.4.6.5 1h.5l-.4.6c.1.2.3.3.5.3v.6l.4.4c0 .4.1.5.6.6l.4.1h.2v-.7l.8-.2c0 .2 0 .5.3.5.2-.1 0-.3.1-.5.3 0 .5-.2.6-.5v.5s0 .2.2.3c.2 0 .3 0 .3-.2 0-.3.1-.4.4-.6.1 0 .3-.3.3-.5l-.1-.4-.2-.2c-.1-.3-.5-.5-.9-.3l-.3-.1.5-.5-.1-.4c.2-.2.4-.4.7-.3.2-.2 0-.3 0-.4.1-.3.3-.3.6-.2l.4-.1.2.2q.2.2.5 0h.5l-.1-.3c-.2 0-.2-.2-.2-.3 0-.3.1-.5.3-.7-.1-.1-.2-.4-.4-.4l-.2.3h-.3l-.5-.2.2-.2c.2-.1.2-.4 0-.6h-.6v.1l-.3 1-.2-.2-.3.1.3.4-.1.4a8 8 0 0 1-.6-.1l-.5-.2.3-.2c.1-.1.2-.3.1-.5V3.3l-.4-.4v-.6l.4.1.4.5.6.1h.3c-.3-.3 0-.6-.2-.9q.3 0 .4.2c.2.3.3.3.5 0l.1-.1V2l-.8-.2c-.1-.3 0-.5.2-.7 0-.1.2-.2.4 0h.5L34 1c.1.3.3.4.6.5l.2-.1.4.2v.2c.2.2 0 .4 0 .5v.1l.3.5-.3.2v.3h-.5c-.2.4 0 .6.1.8l.5.1h.3c.2 0 .2-.2.1-.4V3l.5-.2c.1 0 .3 0 .3.2l.2.2-.1-1-.2-.2v-.2l-.2-.2c.4-.3.4-.5.1-.8L36 1l-.2-.2c-.4-.2-.5-.2-.9 0l-.6-.3V0h-1.7a4 4 0 0 1-.5 0h-.7l.3.6.2.6Zm-9.3 6.5q.2 0 .3.2-.4 0-.3-.2Zm8.3-1.6q-.2.3-.4 0h.4Zm4.8-3.6-.2-.2v-.2l.2.1v.2Zm.2-1.3v.3l-.4.2c0-.2.2-.3.4-.5Zm-1.7-.1V1q.1.1 0 .2ZM34 .4c.2.1.2.1 0 .3V.4ZM32.5.3h.6V.2c.2-.1.3 0 .3.1v.1l-.1.6h-.2c-.2-.3-.4-.2-.6-.1l-.3.2q.3-.5.3-.8Zm-1 10.5v-.1.1zM15.8 7.6l-.3-.2.1-.4v-.2c-.2-.3-.1-.5 0-.7v-.2h-.3c0 .2-.1.2-.2.3l-.3.3-.2.4-.2-.5-.4.3-.4.2v.7l-.1-.1-.1-.1c-.2-.1-.5 0-.7.1-.1.1-.2.4 0 .6v.3l.1.3h.3v-.3l.5-.3c.2.4.6.3.9.4 0 .2.4.4.2.8l.5.4h.3c.3 0 .5-.3.7-.6v.9l-.4.3c-.1.1-.3.2-.3.5h-.3c-.1-.4-.4-.4-.7-.5.2-.5.2-.5 0-.7-.2-.1-.4-.2-.5 0l-.2.4.2.3-.1.1c-.2.2-.2.3-.1.5s0 .4-.2.6v.3h.4q.3.3 1 .1l.3-.6.5-.4h1.1c0 .3-.1.4-.4.4 0 .4.3.6.5.8h.5l.1-.3c.3.3.5.6 1 .5h.1c.3 0 .4-.3.5-.5.2-.3.2-.5 0-.7l-.5-.3c-.1 0 0 .4-.4.3.1-.2.3-.3.3-.6l-.2-.1c-.1-.1-.1-.2 0-.4l.3-.4-.5-.1c.3-.4.5-.7.2-1 .2-.1.2-.2.1-.4-.2-.1-.3 0-.3.3L18 8h-.2l-.2.1c-.4.1-.5.1-.8.4-.2-.2-.2-.4-.2-.6l.2-.4c0-.2-.3-.2-.3-.2l-.7.4Zm-.6-.3-.4.4v-.8c.2 0 .2.3.4.4Zm.4 1.3q-.3-.4-.9-.3v-.4l.5-.1q.2.3.5.3c.2.2 0 .3-.1.5Zm2.1 2.9s-.1 0 0-.1v-.1.2Zm-1-2.7q.2.2.6.2l.6.4-.3.3c-.3-.3-.5-.7-1-.5l.1-.4ZM14 3.5Z"/><path d="m8.8 6 .4.2h.2L10 6c0 .2 0 .3.3.3s.4-.2.5-.6c.2.3.1.6.3.8-.7 0-.9.2-.7.7h.4s.1-.3.3-.2c.2 0 .3-.2.4-.4v.7l.3-.1.4.2c0-.4 0-.4-.3-.5-.2 0-.2-.1-.1-.2l.5-.2c.1 0 0-.3 0-.4L12 6c.2-.1.4-.2.5-.1.2 0 .3 0 .4-.2l.2.2h-.3c-.3.1-.3.3-.1.5 0 0 0 .2.2.3 0 0 .2.1.2.3l.1.2.3-.3-.2-.2v-.1h.3c.3-.1.1-.4 0-.7h-.1v-.7l.5-.4c0-.1-.1-.3 0-.4v-.9l-.3.2-.3-.4H13v.3c-.2.2-.3.3-.5.1-.2-.1-.3 0-.4.1-.2 0-.3-.1-.4 0-.1 0-.2 0-.3.2v.4c.2.1.3 0 .4 0l.2-.1c.1.2.4 0 .5.4l.3-.1V5l.1.2v.3q-.3-.2-.2-.5c-.4-.4-.5-.4-.8 0q-.3.2-.4.6l-.1-.4-.2-.3c-.1-.1-.3 0-.4 0h-.6v-.1c.1-.2.5-.1.6-.3h.3l-.2-.9.3-.1.6-.3c.3 0 .3 0 .3-.4l-.5.2-.2-.2c-.1-.1-.2-.3 0-.5l-.2-.2c.3-.2.6-.3.7-.7l-.4-.2h-.3l-.1.2c-.1.1-.2.2-.3 0L11 1l-.4-.5c-.2 0-.3.3-.4.5 0 .2-.2.4.1.6l-.4.3-.4-.1-.2.2h.4v.5l.5-.1v.5H10l-.4-.4h-.2c-.4.2-.5.4-.3.7l.2.3h.4l.5.1v.2c-.2 0-.3.3-.6.2-.1.3-.1.6.1.8l-.3.2-.3-.4c0-.2-.2-.3-.4-.2-.4.1-.5.5-.3.8.1 0 .2.1.1.3l.3.6Zm4.7-2 .2.4h-.1l-.6.2c.2-.3 0-.7.5-.6Zm.5.8zm26.9 0s.3.1.4 0l.4-.2.3.2v.3h.2l.2-.2h.1l.4.4v.1c0 .2.2.3.3.5l-.1.4.2.2-.2.4v.2c-.3.2-.2.5-.1.9l.5-.1h.5l.1-.4-.3.1-.3-.1c0-.3.1-.4.4-.4l.2.2L44 7l.1-.6c.2 0 .4-.2.7 0h1.9l-.1.2-.6.2s-.2 0-.3-.2l-.3.4c-.1.2 0 .2.2.4.2 0 .3-.3.5-.5l.2.4-.1.1c.2 0 .3 0 .4.2V8l-.5-.2s-.1-.2 0-.2v-.1s-.2 0-.3.2l.2.1.2.7.1.4q.4 0 .4-.4l.5-.2c0-.1.1-.2 0-.4v-.1c0-.3-.1-.4-.3-.5h-.1c0-.2.3-.2.3-.4l-.1-.4.2-1c.3.2.6.1 1 0l.3.1c.1.4.2.5.4.5s.3-.2.3-.4l-.2-.3c.2-.1.3-.3.3-.4 0-.2-.1-.2-.2-.2l-.3.2v.5h-.3c-.1 0-.2 0-.2-.2l.2-.2-.1-.4.1-.4-.7-.6v-.2h-.1q-.5.2-.8.1c-.4.3-.4.8 0 1 .1.2.2.4.1.6l-.5-.3-.3.4v.2l-.4.6c-.4 0-.5 0-.6-.6l.6-.3V5c0-.3-.2-.4-.5-.3 0 0-.2.1-.2 0l-.9.1c-.1-.1 0-.4-.3-.4-.1 0-.2 0-.3.2 0-.3.2-.5 0-.8h-.2l-.4.1-.2.4c-.2-.2-.4-.2-.6-.2l-.1-.5h-.3c-.2.2-.3.3-.1.5v.4l-.2-.4-.4.2-.2.2v.3Zm3 .2c-.1.2-.3.2-.3.4l.4.3-.2.6h-.2v-.4l-.3-.2c.1-.5.1-.6.7-.7ZM37.1.7l.3.2.1.2c0 .2 0 .3.2.4l.3-.1V.9l.2.1c0 .3.2.4.5.4l.3.1V.8h.3l.4-.1V.4h.2v.2l.2-.1c0-.4.3-.5.7-.5h-1.4l-.3.1h-.2c-.4-.2-.5 0-.5.4h-.2V0h-1.6v.4c.3 0 .4.1.5.3Zm1.8.1c0 .2 0 .3-.2.3q0-.2.2-.3Z"/><path d="m7 .5-.3.1.6.5c0 .2.4 0 .5.3-.5.2-.6.4-.4 1-.4.2-.8.5-.5 1l-1-.1-.1-.2c-.2 0-.2.1-.2.3l-.1.4c.3.2.6.3.9.1h.1c.4-.4.5-.4.8 0-.2.1-.4.3-.4.6h-.2c-.1.4.1.7.3 1h-.4L6.4 5c-.3-.4-.5-.3-.8-.2h-.1l-.3-.1h-.5c-.1.2-.2.4 0 .6 0 .3.3.3.6.3l.1.4.2.3c.2.2.3.3.3.6v.3c.4 0 .6-.1.6-.5l.2-.2c.2-.1.4-.3.7-.2.2 0 .3 0 .5-.2 0 0 0-.2-.2-.2l-.4.2v-.4H8l.1.6.3-.1c.2-.1.2-.3 0-.4a1 1 0 0 1-.3-.7c0-.2-.2-.4-.5-.6.2-.2.5-.3.3-.6l.4-.6c.1-.2.2-.4 0-.5 0-.3-.3-.2-.5-.3l.3-.6v-.6l-.3-.1C8.2.8 8.5 1 9 1l.2-.4c.3 0 .3.4.6.4l.4-.3c.2 0 .2-.3 0-.4L10 0H7.2l-.3.5zM21.4.4l-.1-.1-.1.4c-.2.2-.4.2-.5.1-.2 0-.4 0-.4.2.3.2.5.5.5.8l.3-.5.4-.7.5.5c.3.2 0 .4.2.6-.4.2-.4.2-.4.6.3 0 .3-.2.4-.4l.6-.1.4.3v.6h.4v-.2c-.2 0-.3 0-.3-.2 0-.3.3-.5.6-.4l.2.1v.4h.3s.1-.2.3-.1h.2c.2-.3.2-.5.2-.7s0-.3-.2-.4l-.4.2-.3-.2-.2.2s-.2 0-.2-.2h-.1a.55.55 0 0 1-.3.5H23v-.1l.1-.4-.4-.2-.2.2-.2-.1c0-.2-.2-.2-.4-.2s-.3-.1-.4-.3l.2-.6h-.4v.4zm3.2 1.1c.3.4.3.4 0 .7-.2-.3-.2-.4 0-.7zM12 12c.1-.3 0-.4-.1-.6-.2-.3-.4-.4-.6-.4-.2.2-.1.4 0 .6l.3.4v.3c-.1.3 0 .6.3.9l-.3.4c-.2.3-.1.7.1 1h.2c.2 0 .3.1.2.3 0 .3.1.4.3.5s.4.3.6.2h.2c0-.3.4-.5.3-.8 0-.2-.1-.5-.5-.6.1-.4 0-.7-.5-1 0-.2.2-.2.4-.2h.5l.1-.4.2-.4h.4l-.3.7.5.2c.2 0 .3 0 .3.2l.2.2.2-.3c.2.2.3.3.6.2l.1.1c.4.1.5 0 .7-.3l.1-.5v-.2c0-.3-.3-.4-.5-.5-.2 0-.4-.1-.4-.3h-.1c-.4 0-.2.2-.4.4h-1q-.2-.2-.5 0l-.4-.4c-.1-.2-.3-.3-.5-.2h-.4v.3l-.2.2zm6.4-7.8h-.1zm-.5.6-.7.1h-.3c-.4-.2-.5-.6-.5-1l.1-.2h.2l-.1-.2h-.3v.9l.4.4c-.4 0-.5.2-.7.4.2.2.6 0 .7.3q.4-.2.7 0c0 .5.2.6.5.7.2.5 0 .7-.2.9v.1c.2.4.6.5 1 .5.1-.1 0-.2-.1-.3l.2-.3.1.1v.3c.2.2.4.3.6.2l.4-.1c0-.1 0-.3.2-.3l.2-.3v-.5l.2-.2.1-.3-.1-.2c.2-.1.2-.2.3-.1l.1-.1c.2-.2.2-.4.2-.6s-.3-.3-.4-.1h-.2c.2.2.3.3.3.5-.2 0-.4 0-.6-.2V5h-.5l-.1-.3-.5.4L19 5c-.2.1-.2.4-.2.6-.5 0-.8-.2-1-.7zm-.3.5c0-.3.1-.3.3-.1h-.3zm2.2.5.1.3-.6.2H19c0-.3-.2-.4-.5-.4v-.1l.4-.2c.4.4.4.4.8.2zM51.2.2h.3l.2-.2h-1c.2.1.4 0 .5.2zm.4 3c.2-.1.5-.2.7 0 0-.4 0-.7-.3-1h-.2l-.3.1c-.3.1-.5.3-.5.7v.6h.3v-.1c0-.2.1-.3.3-.3zm1.2 1-.4.4h.3l.1-.4zm-1.6-1.9zM53 0h-.1zm-2 1.6c.3-.2.6-.4.9-.4V1h.1l-.4-.3v.1h-.9c-.2 0-.1.2-.1.4.4 0 .3.3.4.4zm2 1.6-.2.3.2.2.2-.2v-.3zM52.4.4l.2-.4h-.7l.4.4zm-1.6 1.4h-.2l-.1.1c0 .2 0 .3.1.2h.4l.1.1c-.2 0-.2-.3-.3-.4zM16.1.8l.1.1v.2l.1.1.2.2c.2 0 .3.1.4.3 0-.1 0-.3.3-.4l.1-.1.1-.6.5-.1.2-.3c-.1.1-.3.1-.4 0l-.3-.2-.3.3-.6-.2h-.3v.7zm-.3-.8h-.1zm.7 1.4zm.1-1.4zm-1.8.3.2.1h.2l.1-.2c0-.1 0-.2-.2-.1l-.3-.1h-.2c.1 0 .2.1.2.3zm7.8 12.5c-.2 0-.4.2-.6 0l-.3.1v-.4l-.8-.2c-.1-.1.2-.4-.2-.5-.2.1-.3.4-.6.2l.6-.4c.3 0 .5-.2.6-.5l.6.3V11l.3-.2c.2 0 .3-.2.3-.3 0-.2.2-.5-.2-.7l-.2.1h-.2c0 .2 0 .4-.2.5l-.5-.5-.5.2c-.1 0-.2 0-.3-.2l-.2.2c-.2.2-.2.4 0 .6l-.5.7.2.4c-.3.4-.3.6.1 1l.3-.2h.2c.2.6.5.8 1.2.4-.3.4-.2.7 0 1 .3 0 .5.3.8.4.1.2.3.3.6.2l.4-.5.3-.2s.2 0 .2-.2 0-.2-.2-.3h-.2c0-.4-.2-.6-.4-.7h-.6zM16.4 1.4zm-.9.6-.1-.3-.5-.3h-.1l-.3.2c0 .1-.1.3 0 .4 0 .6 0 .7-.6 1-.2-.2 0-.4 0-.6 0-.3.1-.4.3-.5l-.5-.3a.6.6 0 0 1-.3-.5v.2l-.4-.1-.3.2c-.3.2-.4.3-.4.7v.1l-.2.3c.2.1.5.1.6.4v-.3l.3-.2.2.1.2.1-.2-.3.4-.3v.7h-.3l.3.4.3-.1h.4c.5 0 .6 0 .9-.5.2.1.3.2.3.5l.1.3h.5l.4-.2c.1-.2.2-.3 0-.5 0-.1 0-.3-.2-.4l-.1-.2c.4-.3.4-.3.2-.6-.3 0-.5.3-.7.5l-.2.1zm20 7h.4c0 .2-.1.5.2.6-.2.2-.3.4-.2.6v.3c0 .1-.2.3 0 .4 0 .2.2.4.4.4.3.1.6.3 1 0l.1-.3v-.1c0-.3.2-.5.4-.6-.1-.4-.1-.4-.4-.4-.1 0-.2 0-.3-.3.2-.1.3-.3.3-.6a.55.55 0 0 0-.3-.5l-.1-.8c.3 0 .2-.3.2-.6 0-.2-.3-.3-.5-.2V7c.2.2.3.5.2.7 0 .2-.2.3-.3.4l-.4-.2-.1.2c0 .3 0 .3-.4.2a.4.4 0 0 0-.6.4c0 .2.2.4.4.3zm4.5.6c.2.3.3.6.7.7l-.1.4c-.1.2 0 .3.1.3.3 0 .3 0 .3.3l.1.4v.4c0 .2 0 .3.2.4h.3c.1-.1.2-.1.4 0h.7c.3-.3.4-.7.3-1.2V11a1 1 0 0 0-.5-.2c-.3 0-.4-.2-.5-.4 0-.3-.3-.5-.6-.6-.2 0-.3 0-.4-.2h-.1a.5.5 0 0 1-.4-.4l-.4-.1c0 .2-.2.4 0 .5zm9-8.2h.2-.2zM47.5.8l-.4.2-.4-.1-.4.1-.3.3v-.1c-.3.1-.5 0-.6-.2V.8H45v.1c.1.3.3.7.6 1l.1-.2c0-.2.2-.2.3-.1V2c-.2.2-.1.4 0 .6 0 0 .4.2.5.1.2 0 .4-.3.4-.5l-.1-.2-.3-.3.1-.2.2.1c.4 0 .5-.5.9-.6.2 0 .2.3.3.5l.2.2c.2-.2.3-.2.5-.2V.8c-.1-.2 0-.4.2-.4h.2V.3c-.2 0-.4-.3-.8-.2-.3.2-.3.5-.5.8V.6c-.2 0-.3 0-.4.2zM25 3.8l.1.7c0 .3 0 .5.5.6l-.3.5h.2c0-.2.3-.2.4-.4l.5.4.3-.1c0-.4 0-.4-.5-.4V5h.5l.2.2v-.4l.1-.1c.2-.3.1-.4-.1-.7l.2-.4c-.3-.2-.5-.2-.8 0v-.4l-.5.5c.2 0 .3.2.4.3-.1.2-.2.5-.5.5s-.5-.2-.7-.3l.5-.5c-.2-.2-.4-.3-.5-.6l.5-.1h.5c-.1-.1-.2-.3 0-.5h-.5l-.3.1c-.1 0-.3 0-.4.2l-.1.1c0 .2-.2.4 0 .6h.3v.3zm1.2 1 .2-.1-.1.2h-.1v-.1zm-.3.1.1.3h-.2V5zM25 3.7v.2-.2zM6.6 14c0-.1 0-.3.2-.4l.3-.3.6.5c.4 0 .7-.3.8-.8l-.3-.5-.1-.1c0-.3-.2-.5-.3-.7s-.3-.2-.5 0c-.1 0-.3 0-.3.3.1.1.2.2.4.1l.2.2-.3.1c-.2 0-.3-.2-.4-.3-.3-.3-.8-.1-1 .3v.2c-.3.4-.3.7 0 1 .2 0 .3.2.5.3-.2.1-.4.2-.4.4v.6c.6-.2.7-.3.6-.9zM19.3 1.4v-.2C19 1.2 19 1 19 1a.6.6 0 0 0-.7-.4c-.4.2-.7.3-1 .7h.4c.2.2 0 .3-.2.4v.2c.3.3.3.4 0 .6l-.1.2v.5c0-.1.2-.1.3.1l.1.3.2.1h.2l.5-.2V3c0-.1 0-.3-.3-.3-.1.2-.3.3-.6.1.2 0 .4-.3.7-.2.3 0 .5-.1.7-.3l.1-.2v-.6z"/><path d="M16.5 16h-.2l.2-.4c-.3 0-.4.2-.5.4l-.4-.3c-.1.2-.2.4-.4.4V16a1 1 0 0 0-.9-.6h-.4a.3.3 0 0 0-.4 0v.5l-.4.7c0 .1.1.3.4.3l.2.2c.4.2.8.1 1-.2 0-.2.2-.2.4-.3l.2.4.5.2c.2 0 .5 0 .6-.4V16ZM10 7.4l.5.8v.2c0 .3.1.4.4.5l-.2.7h-.5c0 .3.1.5-.1.6l-.4-.1-.4-.2v-.4h-.6l.8 1.5.7-.4c.2 0 .5.1.7-.2.2.2.5 0 .7.2.1-.4-.2-.5-.3-.7l-.3.1v-.2c.1-.1.3-.1.4 0l.3-.1.2-.5-.2-.1.2-.4c-.1-.2-.4-.2-.6-.2 0-.3-.2-.5-.3-.7 0-.2-.2-.4-.4-.3-.2 0-.2-.1-.2-.2-.2 0-.4-.2-.4 0ZM22.5 6l.4-.3.1-.1c.3 0 .5-.2.8-.1.3 0 .5-.2.4-.5v-.3c-.2.2-.4.2-.6.2l-.5-.2c.1.1 0 .3 0 .4h-.3l-.2-.3h.3l.2-.1-.2-.4c-.2 0-.3.1-.4.3-.1.3-.5.5-.9.3 0 .3 0 .4.4.6v.6-.3l.6.1Zm-.4.1.3.1a8 8 0 0 1-.3 0Zm17.2-.7zM39.2 3l.2.1v.2l-.1.2c.2.3.2.6 0 .9-.3.2-.5.3-.4.7h.3c.2.1.2.2.1.3l.2.3h.7v-.4a.6.6 0 0 1-.4-.2V5c0-.2 0-.4-.2-.6v-.1h1L41 4c0-.2.3-.2.4-.4L41 3h-.5l-.3.2h-.4l-.3-.5c-.3 0-.5.1-.6.3v.2c.1-.1 0-.3.3-.3Zm-13 16.1.1.3c0 .2.1.2.3.2l.5-.1.4-.3.5.3c.4-.5.4-.5-.2-1.1.3-.2.4-.5.5-.8l-.6-.4c-.2-.2-.6-.1-.7.1l-.1.5-.3.2c-.4.1-.5.5-.5.8l.1.3ZM36.1 5c.2 0 .4.3.7.2v.6l-.1.3h.5l.3-.1.2.5c0 .2.3.1.5.2v.6l.3.1c.2 0 .3 0 .5-.4h.3l.3-.1c0-.2 0-.3-.2-.3h-.9v-.5l-.2-.4h-.2l-.4-1.1-.3.2c-.3-.1-.5-.2-.7 0l-.6-.2-.1.1.1.2ZM10.4 16.3c-.1-.2-.2-.5-.4-.6v-.3c-.2-.2-.4-.2-.5 0l-.4.2-.4.2s-.2.2-.1.3c0 .3 0 .7.4.9h1c.1.4.4.6.9.7 0-.3 0-.7.4-.8-.2-.3-.4-.6-.9-.6Zm13.4-.7-.4-.5c-.1-.2-.2-.3-.4-.2-.1.1-.2.4 0 .6l.3.4v1.4l.2.2.4.1c.3 0 .6-.2.6-.5 0-.1 0-.3.2-.4v-.2l-.3-.3.3-.3a2 2 0 0 0-1-.3Zm3.7-3.2v.3l.1.6.3.3c.2 0 .3 0 .4.2.3-.2.4-.6.4-.9v-.3c.3-.6.2-.8-.3-1.1l-.3-.3-.3-.1v.2l-.1.3c-.2.2-.3.5-.2.8ZM1.8 2c.3.1.5 0 .7-.2L3 2c.2-.2.1-.4.1-.6l.3-.1.1-.4V.8A.8.8 0 0 0 3 .3c-.1.1-.1.3-.3.3h-.5c-.3-.1-.5 0-.7.2l-.2.3c.2.2.2.4.2.7 0 .2 0 .2.3.2Zm1.8 8.6v-.1c.1-.2 0-.4 0-.4l-.4.1-.1.1-.4-.4c0-.1-.2-.2-.3 0h-.6c-.1-.2-.3 0-.4 0-.1.3-.2.5 0 .8l.4.5c.3 0 .2-.5.6-.4v.3c0 .2.2.3.3.3.2.1.4 0 .5-.1V11l.4-.5ZM19 .3h.3V0h-.8c.1.3.3.3.5.3Zm14.3 8.5.2.1.4.1h.7c.1-.4.1-.5-.1-.7a1 1 0 0 1-.5-.9l-.7-.1-.6-.2v1l.6.8Zm18.2-1.4.1.3.2.4c0 .2 0 .3.2.5.4.2 1 .1 1.2-.2l.1-.2v-.6L53 8c-.2.2-.5.2-.7 0 0-.2-.1-.2-.2-.3-.2-.1-.2-.2-.2-.4h-.2l-.2.2ZM24.2 0h-.1v.2l.1-.2Zm-6.8 13.8c-.2.4 0 .9.6.9h.2c0 .1.2.2.3.1.2 0 .4-.2.4-.4.2-.2.3-.5.1-.8l-.6-.3-.3-.4c0-.2-.2-.2-.5-.2l.1.3v.5l-.3.3ZM28.3.4v.3h.3l-.3-.3Zm.9.4zm.2-.1h-.3.3Zm0-.3c.1 0 .2 0 .3-.2l.2.1V0h-.7.2v.4Zm-5 12.2.5.1h.3l.2-.5c0-.1 0-.6-.3-.7l-.5-.3c0-.2 0-.4-.2-.5h-.6v.4h.3l.2.5-.5.3c0 .5.1.6.5.7ZM5.2 9.2c0 .4-.1.5-.5.6-.1 0-.2.1-.2.3v.3H5l.3-.2.2.2c.1.2.3.2.5.2h.2c.1-.3.3-.4.6-.5 0-.3 0-.5-.3-.7h-.3c-.3.1-.4 0-.6-.2-.1-.2-.1-.2-.4 0ZM26.5.6c.2.3.3.3.6 0l-.2-.3.4-.3h-1.4l.2.2.4.4ZM15.8 19l.3-.4.2-.6c-.2 0-.5.1-.6-.1-.2-.2-.3.2-.5 0l-.6.3-.5-.1v.3h.4c0 .3 0 .5.2.6v.3l.5.2.7-.6ZM43.3 2.7Zm.8-.2.7-.2c.2 0 .2-.3 0-.4 0-.2 0-.4-.3-.5v-.2c0-.2-.1-.3-.4-.3-.3 0-.5.2-.6.3h.2l.7 1c-.4-.1-.5 0-.7.2-.2 0-.3.1-.4 0h-.1v.3h.2l.5-.4.2.3ZM42.5.4l-.4.3c0-.2-.2-.2-.3-.3l-.3-.1c0 .3-.4.3-.5.6 0 .2.3.3.5.4l.3-.2.3.4c.2 0 .3-.1.4-.3h-.2V1h.3v.1h.2l.4-.7c0-.2-.3-.2-.2-.4h-.4l.1.2-.2.2ZM29 5.6c0-.2-.1-.3-.4-.3l-.3-.2c-.2-.2-.3-.2-.5-.1-.2 0-.4 0-.5.3 0 0 .2 0 .2.2s.1.3.3.4l.2.4c.3-.3.7 0 1.1-.2.2.2.4.2.4.1v-.5H29ZM20 9l.4-.3.3.2-.1-1c-.3-.2-.5.2-.8 0v.3h-.1c-.4 0-.6 0-.7.4l-.1.5.4.3c.3 0 .6-.2.6-.5Zm33.4-7.4h-.3v1h.7l.3.4c0 .3-.4 0-.6.4v.1h.2v.1l.4-.2v-.1c.2-.4.5-.4.8-.5l.2-.2c0-.2-.2-.3-.4-.2h-.6c-.1-.2.3-.5 0-.7l-.1.2c-.3.1-.4 0-.6-.2Z"/><path d="M26.6 10.6c0 .5.5.7.7 1.1.4-.1.4-.2.1-.7l.4-.1c-.3-.4-.3-.8-.8-.9h-.1c-.4-.3-.6-.2-.7.2H26c0 .1-.1.2 0 .2v.2h.6Zm4.1.6c0 .2.2.5.3.5h.4c0 .3.1.7-.1.9.3.4.6.4 1 0-.1-.2-.3-.4-.2-.7l-.1-.1-.4-.2a1 1 0 0 0 0-.8H31c-.2.2-.3.2-.3.4Zm.8-.4v-.1.1zm-8.5-.1c-.2-.1-.3 0-.4 0-.2.2-.3.3-.2.4l.2.2H22v.6l-.3.3.4.2h.5l.3-.2c0-.1-.1-.3.1-.4v-.3l.3-.6c-.2-.1-.4 0-.5-.2Zm33.4-8-.1.2H56c-.1.3-.4.5-.3 1l-.3.1c-.2.1-.2.3-.1.5l.3.2c.3 0 .4 0 .5-.3l.1-.2c.3-.2.4-.4.3-.7l-.1.2-.3-.1V3l.3.1V3c.1-.2.2-.3 0-.5v.1h-.1ZM5.2 1c.1.4.5.5.9.6.2-.1.3-.4.2-.7 0-.2-.3 0-.5-.2L5.6.4h-.3V0h-.8c0 .2 0 .3.2.4l.5.6Zm16.4 6.8h.3c.3-.4.2-.5-.1-1h.3c0-.4 0-.5-.4-.4h-.3v-.3c-.2 0-.3 0-.3.2l-.1.3-.2.3v.5c.2.2.4.4.7.4ZM50 .1V0h-.5c0 .2.2.3.5.1ZM32.7 16c.2 0 .3 0 .4-.3l.2.2h.6c.3-.1.3-.3.3-.6-.2-.3-.3-.4-.7-.3h-.3l-.2-.4h-.5c0 .2 0 .4.3.5.1 0 .3.2.2.4h-.3c0 .2-.2.4 0 .5Zm-7.4-2.2-.4.1c-.1.2-.3.3-.2.6.2.1.5.3.8.3l.1.1.2.3.4-.5c.3-.4 0-.6-.1-.9h-.8ZM40.8 1.7c0-.2 0-.3-.2-.4-.2-.2-.2-.5-.3-.7-.1-.1-.2.1-.3.1l-.2.2c-.4-.1-.4.1-.5.4h.1c0 .3 0 .3-.2.3V2h1.2v-.2h.4ZM12.6.6c.2-.2.3-.2.5-.1h.5V.4l.1-.1V0h-1.4v.1c0 .2.2.3.3.5Zm33.5 13 .2.1c.3 0 .5 0 .7-.2.2-.1.2-.2 0-.5v-.2c0-.4-.4-.6-.8-.4l-.3.3-.3.2c.3.2.4.5.5.7ZM38 2c-.2.2-.4.1-.5 0v-.2c-.1 0-.3 0-.4.2-.2.2 0 .4 0 .6l.4.1c.2-.1.4-.3.7-.2.3 0 .5-.2.6-.5-.2-.4-.4-.5-.6-.4.1.2 0 .3-.2.5Zm.2.5ZM2.3.4c.2 0 .4-.2.5-.4H2l.3.4ZM17.7 16l-.5.5c.2.2.4.4.6.4.4 0 .4-.3.6-.6l-.4-.2.5-.6a.7.7 0 0 0-.8-.1l-.5.1c0 .2.2.4.5.6ZM2.2 7.6h.3c.2 0 .5 0 .6-.2l.4-.2c0-.3.3-.5 0-.8l-.5.1h-.5v.4c0 .1 0 .2-.2.3-.2 0-.2.3-.1.4ZM50 3.8c.3.1.5 0 .7-.3v-.6h-.2l-.5-.1.1-.3-.4.1v.2c0 .4 0 .7.3 1Zm0 0Zm-18.1 14c0 .3.3.4.6.4.2 0 .4 0 .4-.2v-.2c.2-.4 0-.8-.5-.8h-.6v.8ZM55 .7l-.3.1.3.3-.1-.1.1-.3Zm0-.1V.5h.5V.3c-.2 0-.2-.2-.2-.3H55l-.2.3c.1 0 .3.1.3.3ZM8.7 11.3v.2h-.5c0 .5 0 .6.6.7v-.4l.5-.3q.1-.5-.4-1.2l-.2.4c-.1.2-.2.4 0 .6ZM31 15.6c-.2 0-.3 0-.2.1v.8c-.2.3 0 .7.5.8.3-.3.4-.6.1-1l.1-.2V16c0-.1 0-.2-.2-.2s0 .2-.2.3l-.1-.5ZM4.4 8.2l-.5.3-.3.1c-.2.3 0 .5 0 .8l.6.2c.1-.2.2-.5.5-.6 0-.3 0-.6-.3-.8Zm32.7 5.4c.1.2.3.3.6.3.4-.1.5-.3.5-.7 0-.2-.1-.4-.4-.5l-.5.2c-.2.1-.3.5-.2.7ZM27.3 1.7h-.1v.5l.2.1c.1 0 .3 0 .4-.2l.5-.2c.1-.6 0-.9-.7-.8v.2c0 .3-.2.4-.3.4ZM.2 2.2 0 2v1c.2-.2.2-.5.2-.8Zm27.9 1.7c0 .3-.2.5-.1.8l.9.1.2-.2c.2-.3.1-.7-.3-.7h-.7ZM1 9v-.4l-.2-.3H.2l-.2.2v.7l.2.1c.3 0 .6-.1.7-.3Zm18.7-6.6h-.4l-.2.1v.7l.3.1.4.1c.2-.1.1-.3 0-.5h.1v-.1c0-.3 0-.3-.2-.4Zm19.7 9.9v.2c.3.1.4 0 .5-.1 0-.2.2-.3.1-.5 0-.2-.1-.3-.3-.3l-.5-.2c-.2.1-.2.4-.2.6 0 .3 0 .3.2.5l.2-.1Zm4.1-2c0-.3-.2-.4-.5-.6l.2-.3a5 5 0 0 0-.3-.1v.4l-.2.4v.6c.2 0 .2.2.2.2h.3c.1-.1.4-.3.3-.6Zm-.5.7v-.1h-.1l.1.1zm-32.4.7c0-.4-.2-.4-.5-.5-.2.2-.1.6-.5.8l.4.3c.1.1.3.1.4 0l.5-.3-.2-.2-.1-.1Zm24.2 1-.4-.5c-.4.1-.5.2-.4.6v.5c.2 0 .3.2.4.3l.4-.2.2-.2-.2-.5ZM11.7.5c0-.2.2-.3.3-.5h-.8l.2.2.3.3Zm17.8 12.2h.4l.3-.4-.4-.6-.6.2c-.2.1-.2.3 0 .4 0 .2.1.3.3.4ZM57.6.6V.2l-.1.3.1.1Zm-8 3.7c0 .2 0 .4.3.5h.2c.2-.2.3-.1.5 0h.1l.2-.3h-.7L50 4c-.2 0-.4.1-.3.4Zm.4-.4ZM.4 5.3H0v.8h.3c.2-.3.3-.5 0-.7Zm42.1-2.6-.2.8c0 .2.3.2.5.2l.1-.1c0-.3.2-.4.4-.5v-.4c-.3 0-.5-.2-.8 0Zm.8 0Zm-8.9 7.4c-.3 0-.4 0-.5.2h-.3c0 .4.5.4.8.2 0 .3.4.3.6.4.3-.3 0-.6 0-.8h-.6Zm-27.3.6zm-.1.6.1-.4c.1 0 0-.1 0-.2l-.3.1a1 1 0 0 0-.7.3c-.2.2 0 .4-.1.6.4.1.7 0 1-.4Zm0 0v.1-.1zm7-6.5zm1 .2.2-.3c-.1-.1-.3-.2-.3-.4-.2-.2-.3-.2-.5 0v.3l-.4.2.2.5.8-.4Zm13.1 15.4c.1.2.2.4.5.5 0-.2.2-.3.3-.4.1-.2 0-.5-.2-.7l-.3-.3-.3.6v.3ZM22.4 9.3v.2l.1.1c0 .2.2.4.3.4.2 0 .4-.2.5-.3 0-.2 0-.4-.2-.5-.2 0-.2-.2-.3-.4-.1 0-.3 0-.4.2v.3Zm-18-2.6c0 .4 0 .5.4.5l.5.1c.2 0 .2-.2.2-.4s-.2-.4-.4-.4h-.2c-.1.2-.3.1-.5.2Zm23.9-3.4a1 1 0 0 0-.4-.6c-.3 0-.5.2-.7.3l.2.3.3.2h.5v-.2ZM7.8 7Zm0 .7.9-.3c-.1-.2-.2-.3-.1-.5l-.5-.3-.3.4v.7Zm48-5.6v-.7c-.4-.1-.6 0-.7.2l-.3.4.3-.1v.3h.7Zm-.1-.6q-.2.3-.4.3 0-.4.4-.3ZM26.5 14.9c.1.2.3.3.5.2.3 0 .5-.2.4-.6l-.4-.3-.3.2c-.2.2-.2.3-.2.5ZM43.7 0h-.4l.2.2.2-.2ZM32.6 19.7l.1.7c.3.1.5 0 .8-.3l-.4-.7q-.3 0-.5.3Zm-4.1-4.9.2.2h.2c0-.2 0-.2.2-.3l.2-.4c0-.2-.2-.3-.4-.3h-.2c-.2.2-.3.7-.2.8Zm5-11.8-.2.4.4.2c.2.1.3 0 .4-.1.2-.2.1-.4 0-.6h-.6ZM16.3 14.8v-.5l-.2-.1c-.3-.1-.6 0-.6.4 0 .2.1.2.3.2v.2l.5-.2ZM20.1 9l.1.4.2.2c.2.4.3.4.7.2h.1c0-.3 0-.4-.3-.4l-.3-.2L20 9Zm21-1.1.3.4c.5 0 .5 0 .6-.6l-.3-.2c-.3 0-.4.2-.6.4ZM6 8.7s.2 0 .2-.2c.1-.2.2-.3 0-.5h-.3c-.1-.2-.2-.2-.4 0l.2.8s.1-.2.2-.1Z"/><path d="M6.8 8.5v.4c.3-.1.3-.3.4-.5 0-.1 0-.2-.4-.3l.2-.4c-.3-.2-.3-.2-.5 0 0 .2-.2.3-.3.3h.3c0 .2 0 .4.3.5ZM6.2 8zm2.9 5.8c0 .2.2.3.4.3h.2v-.3c0-.2.5-.2.3-.5h-.6c-.2.1-.1.4-.3.5ZM4.5 3.1V3l-.2-.1c-.5.1-.6.2-.5.7.4.2.5.1.8-.4Zm2.6 6.2.3.5c.1 0 .1-.2.3-.2l.1-.1c0-.2.2-.3.3-.4-.5-.2-.7-.2-1 .2Zm31.1-6.7zm-.5.4v.3c.3 0 .5-.2.8-.3l.1-.2h-.3v-.1c-.3 0-.4 0-.6.2V3ZM21.9 8.4c0 .2.1.3.3.3.2 0 .2-.1.2-.3 0-.4 0-.6-.5-.7v.7Zm0-.7zm2.8-1.9-.2-.2c-.3.3-.1.6 0 .8h.6c0-.4 0-.4-.3-.6ZM8 8.2 7.5 8s-.2.1 0 .3l.3.4c.4 0 .4-.3.5-.6h-.2v-.4c0 .2-.2.3-.3.4Zm22 6c-.2.1-.3.4-.3.6.1.1.3.2.5 0 .2 0 .3-.2.2-.4 0-.2-.2-.3-.4-.2Zm10.3-7.6.2-.2V6c-.3.2-.6 0-.8.3.1.2.2.4.5.3ZM16.6 6c-.3-.2-.6-.1-.7.2l.2.4c.6 0 .7-.1.4-.6ZM1.2 5.4l.5.2c.3-.3 0-.6-.2-.9-.3.1-.3.4-.3.7Zm51.1 0c-.4 0-.4.2-.4.6h.4v-.6ZM14.5 9c-.1-.3-.3-.4-.5-.4l-.2.1.1.3c.1.2.3.3.5.3.2-.1.2-.2.1-.4ZM29.2.8zm.1.1-.1-.1-.2.1c0 .1-.1.2 0 .4l-.1.3h.4V.8ZM25 .1l.1-.1h-.3l.2.1Zm32.4 4.1v.2l.2-.1V4l-.3.3ZM13.7 21.6v.5c.3 0 .6 0 .8-.2-.2-.2-.4-.5-.8-.3ZM57.2 3.1v.3c0 .2.3.2.4.2V3l-.3-.1V3ZM34.5 7h.2c.2 0 .4 0 .5-.2H35c-.2.1-.4.2-.6.1ZM16.9 20.4c0-.2.2-.5-.1-.8v.4c-.5.3-.5.3-.3.6.2 0 .3 0 .4-.2ZM33.6 9.2c-.3.5-.2.7.3.7v-.3c0-.4 0-.4-.3-.4Zm11.3-.1h.3c0-.3 0-.5-.2-.6h-.2c-.3.2-.3.4-.2.5 0 .1.1.2.3.1ZM1.3 4l.3-.1c-.2-.5-.4-.5-.8-.1.2.3.2.3.5.2Zm39.5-1.6v.2-.2ZM15.1 14.5c-.2-.2-.5-.3-.8 0l.2.3c.2 0 .5 0 .6-.3Zm4.8-.7c-.3-.3-.4-.2-.6 0v.2l.2.2c.2 0 .3-.2.4-.4ZM42.6 2l-.2-.1c-.3 0-.4.1-.3.5.2 0 .4 0 .5-.2v-.3ZM19.3 15.6l.2-.7-.2.1c-.2.1-.3.5-.3.8l.3-.2Zm13.8-4.8-.2.2v.3c.3 0 .5 0 .6-.2-.1-.3-.2-.3-.4-.3Zm-.1.5ZM9.2 19.2c0 .3.1.4.3.4.2 0 .3 0 .3-.4h-.6ZM39 5.5c-.2.2-.2.3 0 .5.3 0 .4 0 .3-.4v-.2l-.4.1Zm.3-.1zM1.7 3.5c0 .2 0 .3.2.4l.3-.2c.1-.1 0-.3 0-.4-.2 0-.4 0-.4.3Zm34.5 16.9-.3-.3c-.3 0-.4.1-.4.4l.3.1c0-.2.3 0 .4-.2ZM23 3.3V3v.4c.4 0 .5 0 .5-.3l-.3.2Zm-10.3 7 .2-.5-.2-.2c-.4.4-.4.6 0 .7Zm18.2 8.4-.2-.4q-.3.2-.1.7l.3-.3ZM29 3v-.3h-.5c-.1.3 0 .5.5.4ZM8.6 8.6h.3l.3-.4h-.5l-.1.4Zm6.9-3.4v.2c0 .1 0 .2.2.2l.2-.2-.1-.2c-.2-.2-.3-.2-.3-.5l-.3.3.3.1Zm28.9-1.4H44c-.1.2-.1.3 0 .4l.3.1c.2-.2.2-.3 0-.5ZM7.8 7Zm-.2 0h.2s-.1-.1 0-.2l.2-.4h-.5l-.1.6s0 .1.2 0Zm-.2 0zm5 10.1-.1.3.6.3c0-.3-.1-.5-.5-.5ZM10.6.1c0 .1 0 .2.2.2l.1-.2h-.3Zm35 3.3c-.1 0-.1.2 0 .4h.1c.2 0 .3-.2.2-.4h-.3ZM42.8 7c.2-.2.2-.3-.1-.5l-.3.5.2.1.2-.2ZM3.3 2.2l-.2.4c0 .1.2.2.4.1 0 0 .1-.2 0-.4 0 0-.1-.1-.2 0ZM53.9.3v.3l.1.1.2-.2V.4h-.1l-.2-.1ZM55 3.8l-.2.5.4-.1v-.5l-.2.1Zm-23.8 8.6c-.2-.4-.3-.4-.5-.1l.2.3.3-.2ZM7.1 10.2Zm.1 0-.3.2v.2h.2v.1l.3-.2-.3-.3Zm-.1.5Zm14.7 3.9-.2.2.4.3c.2-.3.2-.4-.2-.5Zm7.7-8.1h-.3c-.1.3.1.3.2.5.2-.2.2-.3.1-.5ZM19.2 3.6c-.2 0-.3.1-.3.2 0 .3.2.3.3.3.2-.2.1-.3 0-.5ZM5.6 2.3l.1-.2v-.3h-.3c-.2.1-.2.3 0 .4l.2.1ZM15 17.1h-.3l.2.3h.3c.1-.1.2-.2 0-.4 0 0 0 .2-.2.1Zm.3-.1zm-.1-1.4c.3 0 .4-.1.4-.4l-.1-.1h-.2v.5ZM9.5 7.3l-.2-.4L9 7c0 .3.3.3.5.3ZM53.6.6V0c-.2 0-.2 0-.3.2v.3h.3ZM12.8 18.3c.2 0 .3 0 .4-.3q-.3-.2-.6 0c0 .1 0 .3.2.3Zm4.1-3.8c.2-.2.2-.2 0-.6-.3.3-.3.3 0 .6ZM7.4 7zm0 0-.2-.3c-.3.2-.3.3 0 .6l.2-.3Zm31.4 4.2V11h-.3l-.2.3.4.1v-.2Zm13.7-8.8c0-.1.3-.2.1-.5l-.3.2c0 .1 0 .3.2.3ZM57 6h.1Zm.3 0h-.1ZM16.8 18c.2-.2.2-.4.1-.6l-.4.4.3.1Zm4.1-2-.4-.3-.1.2v.2c.2.1.3 0 .5-.1Zm4-12.2zm-.5 0c0 .2 0 .2.2.3l.3-.3h-.5Zm2.6 9c.1-.1.1-.2-.2-.3v.4h.3Zm21.3-11c-.1 0-.2 0-.2.2s.1.2.2.3q.2-.3 0-.5Zm-1.2 7.4-.2-.1-.3.2.3.2.2-.3ZM.4 4v-.3H.1l-.2.2V4h.4Zm27-3.9q-.3.2 0 .4c.2-.1.2-.2 0-.4Zm29.4.4h-.1.3V.2c-.2 0-.2.2-.3.3ZM15 20.3q-.1-.3-.4-.3 0 .4.3.3Zm16.7-6.2c-.4 0-.4 0-.4.4q.3 0 .4-.4ZM2.6 2.7l-.3.1.1.3c.1 0 .2 0 .2-.4Zm35.9 10.4.3.1q0-.3-.3-.4v.3ZM3.3 4.5q-.2.3.1.4.1-.3-.1-.4Zm41.6-1.9-.3.1c0 .1 0 .2.3.3 0-.2.1-.3 0-.4ZM14.5 5.9v-.2l-.2-.3V6h.2Zm18.8 5.8c0 .4 0 .3.3.3q0-.3-.3-.3Zm-.7-.4-.1-.3c-.1 0-.2 0-.2.3h.3Zm21.3-6.6V5h.1l.1-.1c0-.2 0-.3-.3-.3v.1ZM32.3 15.8l.2-.1v-.2h-.2l-.1.2v.1Zm-9.1-5.5c-.1-.2-.2-.2-.4 0l.1.2c.1 0 .3 0 .3-.2Zm7.6 7.6c0-.1 0-.3-.2-.2-.1 0-.2.2 0 .3l.2-.1ZM8.2 9l.1.3.3-.3-.3-.2-.1.2Zm19.4-4.4c-.3-.1-.4-.1-.4.3.2 0 .3 0 .4-.3Zm1.9-1.1-.1-.2h-.1l-.1.3h.3ZM12.7 8.9c-.2 0-.2.1-.2.3 0 .1.2.1.2 0V9ZM25.3 13c0 .1.2.1.4 0 0-.1-.1-.3-.3-.2v.2ZM1.1 4.3H1l-.2.2H1c.1 0 .2 0 .1-.2Zm34.6 2.5V7l.3-.3h-.4ZM14 3.5Zm-.4-.3c0 .3.2.3.4.3 0-.2-.2-.3-.4-.3Zm14.3 12.1V15l-.1-.1v.4ZM43.7 3.2c0 .2 0 .3.2.3l.2-.1c0-.2-.2-.2-.4-.2ZM26.3 13v.4c.3-.2.3-.2 0-.4ZM5.4 4.5c.2 0 .3 0 .3-.2L5.5 4c-.2 0 0 .2 0 .4ZM55.9.8Zm-1.7.5.1.3c.2 0 .3-.2.2-.3h-.2ZM1.2 7H.9v.2c.2 0 .3 0 .3-.2Zm9.1 1.7c0-.2-.1-.3-.3-.2v.2h.3ZM15 3.8l.2-.2v-.1h-.1l-.2.2h.1Zm-8 7.6v-.1.1zm.3-.3-.3.2.1.2c.2 0 .3-.1.2-.4ZM34.6 14c0 .2.1.3.3.2V14l-.2-.2ZM55.3 3.5h.1c.1 0 .2 0 .2-.2h-.2s-.2.1 0 .2Zm-5.7 4.2.3-.2q-.3 0-.3.2Zm6.9-6v.1c0-.2 0-.3-.1-.2v.1Zm-9 .7c.1.2.2.2.3 0v-.1l-.3.1Zm-31 15.1.2-.3c-.3 0-.3.2-.2.3ZM3.6 5.3h.1V5c-.2.1-.2.2-.1.3Zm13 10V15c-.2.1-.1.2 0 .3Zm25.8-7.8c0-.2-.2-.2-.3-.2 0 .3.2.2.3.2ZM3 3h-.2v.2h.1l.2-.2Zm8.6 12.6c0-.2-.1-.3-.2-.2h-.1c0 .2.1.3.3.2Zm10.7 3.2q-.2-.2-.4 0h.4Zm8.8-5.1q-.3 0-.2.3c.2 0 .2-.2.2-.3Zm1.9-2v-.3h-.3l.2.3Zm0-.4Zm.8.7h.3l-.3-.2v.1ZM56 5.5h-.2l.1.2v-.3ZM29.4 8.8c-.1.1 0 .2 0 .2.2 0 .2-.2 0-.2Zm18.9-6.3v.2l.2-.2h-.2ZM7.2 10.2Z"/><path d="m7 9.9.1.3.3-.2H7Zm27.9-.4v-.2q-.2 0 0 .2Zm-16.6 7.9.1-.1.1-.2h-.2v.2Zm17.2-5h-.2v.1l.2.1v-.2ZM18 17.5v.1h.1v-.3H18v.2Zm-1-4.8-.2.2.3.1v-.3Zm15.1.6-.2.3c.2 0 .2-.2.2-.3ZM56.5.8h.1c0-.2-.1-.2-.2-.2l-.1.2h.2ZM46.3.6h-.1l.1.2V.6ZM24.6 7v-.3h-.1V7Zm7.8 5.8h-.1l.2.1v-.1h-.1ZM21.3 3v-.2.1Zm-4.1 13v.2l.1-.2Zm35.6-9.5c0-.1 0-.2-.2-.1.1.2.2.1.2 0Zm-35.6.6-.1.1h.1Zm-5.6 9.1-.2.1c0 .1.1.1.2-.1Zm15.1-7V9h-.1v.2h.1Zm.1-.6-.1-.1v.1Zm-.4 5.2q.2 0 0-.2v.2Zm-7.3-3.4h.3l-.2-.1v.1Zm-4.7 9.4h-.2l.2.1Zm1.9-.8v.1-.2ZM46.2 4.3v.2h.2l-.1-.2h-.1ZM12 .9l-.2-.2V1h.2ZM34.6.5h-.1.1ZM24.3 3.6v-.1h-.1ZM8.8 9.2l.1.1v-.1h-.1ZM9 7.7h.2s-.1-.1-.1 0H9Zm48.3-6.6Z"/><path d="M57.2 1.3h-.4l-.2-.6h-.1l-.2.1V1c-.1.2 0 .3.2.5l.2-.2V2l-.2-.3-.1-.2h-.2L56 2l.1.2v.3l.3.3h.1l.2-.3.5.2.4.1V1.3l-.3-.1v.1Zm.1 11.2-.2.2.5.2v-.7h-.3v.3Zm.1-5.5v-.4c-.2 0-.4-.2-.7 0l-.5.1c0-.3.2-.7 0-1h-.5l-.2-.2c-.3-.2-.5-.1-.6.2V7l.2.1h.3l.3.1c0 .5-.3.7-.7.9h.4c.2.1.4.5.8.5l.1-.2 1-.3h.3v-.7l-.2-.4Zm-3.9-3.6a1 1 0 0 0-.4.1s-.2 0-.2.2l-.2-.2-.2-.2-.2-.2h-.7c-.2.1-.3.2-.3.4s-.2.2-.3.4c0 .2.1.4.3.5l.2.3h.6v.4l.1.3.1.6c.2.1.4.2.7 0 .3 0 .6 0 .8-.3h.3c.1 0 .2-.1.2-.3h-.1c-.4-.3-.4-.3-.3-.6v-.1l-.5-.1.2-.5V4c.2-.1.1-.3.1-.5v-.1h-.2Zm-.8 1.2h-.3l.4-.4v.4h-.1ZM51.6.2v.1c-.2.2 0 .3 0 .4l.4.3h.1l-.1.2h-.1c-.3 0-.6.2-.9.4-.1-.1 0-.4-.3-.4h-.1l-.4.1c0 .3 0 .4.4.4h.2c0 .3 0 .5.3.5h.8L52 2v-.3h1.5c.1 0 .3.2.6.1v-.4h.2v-.1c.1 0 .2-.2.1-.3-.2 0-.2-.2-.3-.3L54 .6l-.2-.1-.4.3c-.2-.1 0-.4-.2-.6-.1 0-.2 0-.2-.2h-.4l-.1.4v.1h-.1L52 0h-.2l-.2.2Zm5.8 22.9c0 .2 0 .4-.2.5 0 .4-.4.7-.2 1 0 .3.1.4.3.4l.3.1v-1.8l-.2-.2ZM54.3 18h-.7l-.3.6c0 .3 0 .7.3.9h.7l.3.2c.3.1.5 0 .5-.2 0-.3 0-.4.2-.6.2-.5 0-1-.6-1.1l-.4.1ZM54.7.2l-.5.1v.1l.2.1.2-.2.3-.3-.2.2Zm2.9 9.8v-.6.6Zm-7.1-5.2c-.1-.1-.2-.1-.4 0-.2.2-.3.3-.3.5v.3c-.1.1 0 .3.1.4h.1c.2.2.5.3.7.3.3.1.4 0 .4-.2 0-.3.1-.3.4-.2-.1-.1-.1-.2 0-.4 0-.2 0-.4-.2-.6-.1-.1-.3-.2-.5-.1h-.2Zm4.1 18.4-.1.2c-.2 0-.2.2-.2.3 0 .3.2.5.3.7l.2.1h.9c.2-.1 0-.3 0-.5l-.1-.5.3-.3-.2-.1c-.2 0-.4 0-.5-.2-.3-.1-.5 0-.6.3ZM48.7.8v.9c-.2.1-.3.3-.2.5l.4.6.5.2.2-.1v-.2c.1-.2 0-.3 0-.4l-.1-.1c0-.3-.2-.5-.4-.7v-.1h.1l.6-.2-.1-.3c0-.3-.3-.3-.5-.4H49c-.2 0-.3.1-.3.3Zm8-.4.2-.2.5-.2h-1v.2c0 .1.1.2.3.2Zm-4.6 7.2.2.2c.3.3.5.3.7 0 0 0 .2 0 .3-.2.3-.1.3-.4.3-.6l-.1-.2-.6-.3c-.4.2-.6.5-1 .6v.1c0 .2 0 .3.2.4ZM46.5.1l-.2.3c0 .2.2.3.3.5l.5.1c.1 0 .3 0 .4-.2l.3-.2.2-.1V.4l-.4-.4h-1.1v.1Zm-2.8 2.3c.2-.1.3-.3.7-.3l-.7-.8h-.5c-.1 0-.3 0-.3.2l-.3.2c0 .4.3.6.6.7.2.1.3 0 .4 0Zm4.6 5.8h.2c0-.2 0-.5.2-.5h.6c0-.4 0-.4.4-.5l-.2-.2c0-.2 0-.2-.3 0-.3 0-.3.3-.5.4v-.2H48c-.2.2-.2.6 0 .7.1 0 .3.1.3.3Zm9.2-4.3h.1v-.2l-.2.1h.1Zm-2.8 21.9.1.2c.1.1.2.1.4 0l.2-.3-.1-.4-.3-.5h-.5l-.3.1c0 .5.1.8.5 1ZM54.5 10c.3 0 .3-.1.3-.4v-.2c0-.4-.2-.5-.6-.4l-.5.3.2.5c.1.3.3.3.6.2Zm2.9 18.4c-.2.1-.3.3-.2.5.1.2.2.2.4.2v-1l-.3.3ZM56 20.2l-.5-.2h-.2c-.2.2-.1.4 0 .7l.2.2.5.4v-.7c.1-.1 0-.3 0-.4Zm0 1.1Zm-2.5 9.6v-.3l-.4-.2c-.1 0-.3 0-.4.2v.7c.2.1.5.2.7 0v-.2l.1-.3Zm3.5-4.4.3.5h.3v-.5h-.5ZM45.4 1c.1.2.3.3.5.2l.5-.4h-.1l-.1-.2-.2-.2c0 .2-.2.3-.5.4h-.1V1ZM55 3.8h.2v-1h-.5l-.4.4c.2.3.4.5.7.6Zm-9.2 2.3.4-.6v-.2l-.2-.2-.2.1-.6.4c0 .5.2.6.6.5ZM55 .5v.1l-.1.4c.5.4.6.4 1 0-.1-.3-.2-.4-.4-.4h-.4Zm-1.6 26.9h-.6c-.4.2-.4.2 0 .7.2-.2.5 0 .7-.3.1-.1 0-.3 0-.4Zm2.4-15.6.5-.4c0-.2 0-.3-.2-.4-.2-.2-.3-.2-.5-.1-.2.2-.3.4-.1.6l.3.2ZM52.4 13l.2.2c.2.4.4.5.9.3-.1-.6-.2-.7-1-.6Zm3.6 8.3Zm-.6.2.1.5h.3c.4 0 .5 0 .5-.5l-.3-.2h-.4l-.3.2ZM56 27l-.7.2c0 .3 0 .6.3.9l.1-.2.1-.2c.4-.2.2-.4.2-.7Z"/><path d="M54.3 6.7s.2.2.4 0l.2-.4-.1-.4h-.4c-.2.2-.2.4-.2.7Zm2.5 12.2h.3l.2-.2c0-.2 0-.3-.2-.4a.3.3 0 0 0-.4 0l-.2.2c0 .2 0 .3.3.4Zm-6.3-11 .1-.2.1-.2c0-.2-.2-.2-.3-.2L50 7c-.1.6-.1.6.4.8ZM57 6h.4v-.5l-.3-.1-.3.6.3.1Zm-1.1 4.4v-.6l-.2-.1c-.3.2-.3.4-.2.7h.4Zm-8.1-6.7h.3c.2-.4.1-.6-.3-.6l-.1.5v.1Zm3.7 3.7.3-.1c-.2-.3-.4-.4-.6-.4l-.1.2-.1.1c.1.3.2.3.5.2Zm4.7-4.3c-.1.1-.2.3 0 .5h.4v-.3c-.1-.2-.3-.2-.4-.1Zm-2.9 5.1h.6v-.4c-.4 0-.4 0-.6.2v.2Zm-7.2-.4.5.2v-.4l-.3-.2h-.1l-.1.1v.3Zm3.9-5c0 .1.3.2.4.1l.1-.3c0-.1-.3-.2-.4-.1-.1 0-.2.2-.1.3Zm2 22.5c.5 0 .6 0 .6-.4l-.6.1v.3Zm-3.7-20c0 .2 0 .2.2.3l.2-.1.1-.2V5l-.3.1-.2.2Zm3.4 3.9-.2-.9c-.4.1-.1.5-.3.6l.5.3ZM57.5 1c0-.2 0-.3-.2-.3-.1-.1-.2 0-.4.2 0 .2.2.2.4.3.1 0 .2-.1.2-.3Zm-.2.1Zm-8.6 8.8v.2c.2.1.3.2.5 0 0-.2-.1-.2-.3-.3h-.2Zm.3-5.1.2-.3h-.4V5c.1 0 .2 0 .2-.2Zm7 20q-.3 0-.3.4.3 0 .3-.4ZM48.1 1.5l-.4-.2v.3c.1 0 0 .3.2.2l.2-.3Zm2.1 9.1h.2c.1 0 .2-.2 0-.3h-.2v.2Zm5.5-9.1q-.4 0-.4.3.2 0 .4-.3Zm-3.5 12.8.4.1c0-.3-.1-.3-.4 0Zm0-5.3h.1l.3-.3h-.4V9Zm5.4 11v-.3.2ZM55.5 3v-.3h-.2v.2c0 .1.1.1.2 0Zm-1-2.4v.2h.2l-.2-.1Zm1 33.1c0 .2 0 .2.3.2 0-.1 0-.3-.2-.3l-.1.1Zm1.9-29.3v.2h.2v-.3l-.2.1Zm-1 4.6s-.2-.2-.4 0c.1 0 .2.2.4 0ZM55 4.8c.1 0 .2 0 .3-.2-.2 0-.3 0-.4.2Zm.7 21.2v.2h.2c0-.2-.1-.2-.2-.1Zm-3.3-15q0-.2-.3-.1l.3.2ZM54 21.7l-.3.1c.2.1.3 0 .3-.1Zm2 7.6v-.1.1ZM54 7.5h.2l-.1-.2-.1.1.1.1Zm-4.6 2.3c.2 0 .3-.1.3-.3-.2 0-.2.1-.3.2ZM50.7 8h.1l.1-.2-.2.2ZM47 11l.2.1V11H47Zm1.1-4.5H48h.2Zm5.2 3.9h-.1v.2h.1v-.2Zm-3-8.4v.2l.1-.1-.1-.2Zm.5 7 .2.1-.1-.2V9ZM22 .8c.2 0 .3 0 .3.3l.3.1.1-.2h.1l.4.2h.5c.2 0 .3-.1.4-.3l.1-.5V.2L24 0h-2.4c0 .2 0 .4-.2.6.1.2.3.2.5.2ZM19.3.3c0 .3 0 .5.3.7l-.2.4c-.2.2-.2.4 0 .6a.8.8 0 0 0 0 .3l.3.1c.2 0 .2.1.2.4 0 .3.2.3.3.4.2.1.4.3.6.2h.2l.2-.5v-.1l.1-.2c0-.3-.1-.6-.5-.6v-.3c0-.3-.2-.5-.5-.7 0-.2.2-.3.4-.2l.5-.1V.3l.2-.2V0h-2l-.1.3Zm8.7 0h.2l.1.1c0 .2.2.3.3.4h.5c.1 0 .2 0 .3-.2v.1l-.1.2v.7l.4.1.5.3c.2.2.4.2.7.2 0-.2.2-.3.3-.4v-.2l.3-.1.2-.1v-.2c0-.1 0-.2-.2-.2l-.1-.1c0-.3-.2-.4-.4-.6h-.1l-.1-.1h-.5l-.4.2-.2-.2-.2.2h-.1V0h-2l.3.5.3-.2ZM13.7.3v.2l-.1.2-.2.4a93.3 93.3 0 0 0 .7.8c0 .1-.3.2-.3.5l.1.5c.5-.2.6-.3.5-.9 0-.1 0-.3.2-.4l.2-.2h.2l.4.3c.4 0 .6-.2.8-.6V.8l-.3-.3V.3l-.1-.2V0h-1s.2.2.3 0c.1 0 .2 0 .3.2l-.2.1-.2.1-.2-.1c0-.1 0-.2-.2-.2V0H14l-.2.3Zm9.4 4.4zm-.6-.1c0-.2.2-.2.4-.3l.2.4.5.2c.2 0 .4 0 .5-.2l.1-.2v-.3l.1-.5h-.2v-.1l.2-.1v-.2c-.2 0-.3.2-.5.4l-.4-.2s-.1.3-.4.3v-.1c-.2-.3-.5-.6-.9-.5h-.3c-.2-.2-.3-.1-.5 0v.4c-.2.2-.1.5-.3.8 0 .1.1.3.3.3l.3.2c.4.2.8 0 1-.3Zm12.7-.2-.3.2-.1.4v.2h-.3v.1l-.2.1c-.2.2-.3.5-.3.8l.1.3.2.2c0 .2 0 .3.2.3s.4 0 .6-.2l.3-.2.4.1h.1c.4-.4.4-.4-.2-1 .3-.2.3-.4.4-.7v-.3c-.2 0-.4-.2-.5-.3h-.4Zm-17.4-.8v-.3c-.2-.2-.4-.3-.5 0l-.4.2-.2.1-.2.1-.1.3c0 .3.1.7.5.9h1c.1.4.4.6.9.6 0-.2 0-.5.2-.6l.2-.2c-.2-.3-.4-.5-.8-.5h-.1l-.3-.5-.2-.1ZM31.4 5h.4c.3 0 .6-.2.6-.5l.1-.4V4l-.2-.3.3-.3-.4-.2-.6-.1-.4-.5c-.1-.1-.2-.2-.4-.1V3c0 .2.2.3.4.5v1.3l.2.1ZM35.3.6l.4.3.3.1.2-.1c.2-.2.2-.5.2-.7V0h-1.1v.5Zm-9.5 1.7h.1c.2.1.3.2.4.1l.4-.4c.1-.2.2-.5 0-.8-.1 0-.3-.3-.5-.3s-.3-.2-.3-.3c-.2-.3-.3-.3-.6-.3 0 .2.1.2.2.3v.5c-.2 0-.3.2-.3.3-.2.4 0 .9.6.9ZM32.6.1h.3-.9.6Zm-9.5 7.1.4-.3.3-.3.2-.4.2-.5c-.2-.1-.5 0-.6-.2-.2 0-.3.3-.5 0l-.2.2-.4.2-.5-.1V6h.4v.1c0 .2 0 .4.2.5V7l.5.2ZM5.7.3c.3.4.6.5 1 .3H7l.2-.6H5.8v.3ZM39.6 0h-.2.2Zm1.2 3 .2-.2.2.1c.1.2.4.2.6 0 .2 0 .2-.3.2-.5-.2-.4-.3-.4-.7-.3H41l-.2-.4h-.5V2l.3.2.2.2v.2h-.3v.5l.3-.1Zm-7.2-.4L34 2c.2-.3 0-.6-.2-.8h-.7c-.2-.1-.3 0-.4 0-.1.3-.3.4-.2.7.2 0 .4.3.7.2h.1l.1.2.2.3ZM53.9.3l.2.1h.1l.5-.2.1-.2h-1.1l.2.3ZM25.6 3H25c0 .3.3.4.5.6l-.5.5c.3 0 .4.3.7.3.3 0 .4-.3.5-.5l-.3-.3.3-.5h.1a.8.8 0 0 0-.7-.2Zm14 1.2v.1c.2.2.1.4.2.6v.2l.4.2h.2c.2 0 .3 0 .4-.3v-.5c0-.1 0-.2-.2-.3h-1ZM16.5.1V0h-.3a1.3 1.3 0 0 0 .3.1Zm22.1 2.8v.7c-.1.4 0 .7.5 1l.2-.2c.2-.3.2-.6 0-1v-.1c.1 0 0-.2 0-.2l-.1-.1c-.2 0-.2.2-.2.2h-.1l-.1-.5h-.2v.1ZM44.9.6l.1.2h.5c.3 0 .4-.2.4-.5V0h-1v.6ZM18 .2h.1l.3-.2h-1l.3.2h.4Zm23.8.1.3.4.4-.3.2-.2-.1-.2h-.8v.3ZM36.6 8l.3-.3c0-.2 0-.5-.2-.7h-.1l-.3-.2-.2.6v.3l.1.1c0 .2.2.3.4.3Zm-1.8-6.5-.4.2c-.1.2-.2.4 0 .5 0 .2.2.2.4.2h.2c.2-.1.2-.3.2-.6H35c0-.2-.2-.2-.3-.3Zm6.6 5.7-.4-.7q-.2 0-.4.3v.7c.4.1.5 0 .8-.4ZM36.3 2l.1.2h.3l.1-.2c.2-.1.3-.3.3-.5s-.3-.3-.4-.3h-.2c-.2.1-.2.4-.2.6v.3Zm-12.4-.1c-.3-.2-.7 0-.7.4 0 .2.2.2.4.2v.2l.5-.2V2l-.2-.1Zm-6.2-.8h-.3l-.3.1c-.2.1-.1.3-.2.5 0 .2.2.3.4.3l.2-.1v-.2h-.1v-.2c.2 0 .5 0 .3-.4Zm20 .4-.2.3V2c.1.1.3.2.5 0 .2 0 .3-.2.2-.4l-.2-.2h-.3v.1Zm-15.3 8c-.2-.2-.3-.4-.7-.2l.1.5c.3 0 .5 0 .7-.2Zm2.1-1.2c.2 0 .3-.1.4-.3 0-.2.2-.5-.1-.7v.3c-.2 0-.2.1-.2.2h-.1c-.2.1-.1.2 0 .5ZM23 2.2c-.3-.2-.6-.3-.9 0l.2.3c.2 0 .5 0 .6-.3Zm4.2-.5c.2 0 .3-.1.4-.4-.3-.2-.4-.1-.6.1v.2h.2Zm-.2.9-.2.7.3-.1.2-.7h-.2ZM17.7 7l-.5.1v.1c0 .2.1.3.3.3.1 0 .2 0 .2-.3v-.1Zm25.8.5.3.1c0-.2.2 0 .3 0v-.4l-.3-.2c-.2 0-.4.1-.3.4Zm-5-1.3c.1 0 .3-.1.3-.3l-.2-.4c-.2.1-.2.2-.2.3v.4h.1Zm-17.7-.7c0-.3-.1-.4-.3-.5h-.2l-.1.2.6.3ZM29.6 2l-.2.3.4.3c.2-.3.2-.4-.2-.5Z"/><path d="M22.9 4.8h-.3l.2.3h.3c0-.1.1-.2 0-.4 0 0-.1.2-.3.1Zm.2-.1zM23 3.3l.4-.2v-.3H23v.5Zm-2.5 2.5V6h.2c.2 0 .3 0 .4-.2l-.3-.1-.3.1Zm4.1-4.3c-.2.3-.2.4 0 .7.3-.3.3-.3 0-.7Zm.2 3.5-.4.4.3.2c.2-.2.2-.3.1-.6Zm3.4-1.6v.2c.2.1.3 0 .5-.1l-.3-.3h-.1l-.1.2ZM34.6.2h.2V0h-.3v.2Zm-12 7.6q0 .3.3.2 0-.2-.3-.2Zm16.8-6.5h-.1c-.2 0-.2 0-.2.3h.1c.2 0 .2 0 .2-.3ZM46.5.1V0h-.3l.3.1ZM40.1 3s.2 0 .2-.2v-.2h-.2l-.1.2.1.2Zm-1.6 1.9-.1.2c.2.2.2 0 .3 0 0-.2 0-.3-.2-.2ZM33.3.4h.1c0-.2-.1-.3-.3-.2v.1c0 .2 0 .2.2 0Zm2.2 1.8v.2l.2.2v-.3h-.2ZM34 .4v.3c.3-.2.3-.2 0-.3Zm8.4.6c0 .1 0 .2.1.1h.1V1s0-.2-.2-.1ZM24.5 4.8c-.3 0-.2.2-.2.4l.2-.4Zm-.1-2.2c-.1.2-.1.3 0 .4.1-.1 0-.2 0-.4Zm-5.2.6c0 .2 0 .3.2.2 0-.2-.1-.2-.2-.2Zm11 3c-.1-.2-.2-.2-.4 0h.4ZM38.9.8q-.3.1-.2.3c.2 0 .1-.1.2-.3ZM26.3 4.9v-.2h-.1V5Zm-.3.3v-.3h-.1v.3h.1ZM24.5.6h.3V.4c-.1 0-.2 0-.3.2ZM39.9.5h-.1l-.1.2h.1V.4Zm.3-.5H40h.2ZM25.1 3.7v.2-.2Zm-5.9.5c.1 0 .2 0 .3-.2l-.3.1v.1Zm15-3V.9v.3ZM22.4 7.5h-.2l.1.1Zm1.8-.9v.2h.1v-.2Zm20 46.6v-.8l-.8.2-.1-.6.3-.3-.3-.1-.1.1c0 .2-.2.1-.3 0v-.3l-.4-.3h.3c.4-.1.5-.3.4-.6l-.1-.3.2.1.2.4-.1.2c-.1.3 0 .5.3.6l.4.2c.2-.2.4-.4.3-.6l-.1-.4-.4-.4c0-.2-.1-.2-.3-.2h-.3c-.1-.1 0-.3-.2-.4h-.6q0 .4.4.5c-.5 0-.5.3-.5.7h-.1c-.5 0-.7 0-.9.5l-.2.5-.5-.2.2-.4c0-.2-.2-.1-.4-.3 0-.3 0-.6.2-1l-.4-.3.7-.3c0-.2 0-.4-.2-.6l.3-.4v-.6c.2-.3.2-.5-.2-.8l-.3-.4-.1-.1q0 .2-.5.6l-.7-.3c.1-.2.2-.4 0-.6-.2 0-.2.2-.4.4-.2-.2-.4-.1-.7 0 0-.2.3-.2.4-.3v-.4c-.2-.2-.3-.3-.4 0-.2.2-.4.2-.7.2-.2 0-.4 0-.6.2 0 0-.2.2 0 .4v.2c-.2.4 0 .8.4.8.2 0 .3.1.3.3l-.7.1-.2.4c-.2 0-.5 0-.7-.2-.3 0-.2.3-.3.4-.2 0-.4 0-.6-.2l-.4-.2V48q0-.3-.4-.3h-.1c-.2-.3-.5-.2-.7 0h-1a1 1 0 0 0 0 .7c0 .2 0 .2.2.3.2 0 .2-.3.4-.3.1.2-.1.5.1.6h.6c0 .3.2.4.3.6h-.3c-.2 0-.4.2-.4.4 0 .3.3.4.5.4h.1l.8-.6v.3h.4v-.4l.3-.3.3.4.4.4h-.3c-.2.1-.4.2-.4.4s-.3.2-.4.4c-.2-.4-.6-.4-1-.3H34c-.2 0-.3.2-.2.4 0 .2.2.4.4.6.2 0 .2.2 0 .3l-.2.3-.2-.4-.6-.3c0 .3-.4.4-.3.7q-.3-.1-.3-.3c0-.4 0-.4-.3-.3H32c-.7 0-.7 0-1 .6 0-.3 0-.5-.2-.7l-.3-.1-.2-.4h.1c.4-.1.5-.2.5-.6v-.6h.4l.1-.3.5.4c.3-.2.3-.5.3-.8a.5.5 0 0 1-.3-.5c-.3-.1-.5 0-.6.3 0 .2-.2.3-.3.4l-.2.3-.5-.1c-.1-.1-.2-.2-.1-.4V49l-.5.8c-.2.3-.2.5 0 .8-.7 0-.7 0-.7.8h.5c.1.4.1.4.6.4l.3.7-.4.7.4.2c-.2.2-.3.3-.3.5 0 .3 0 .3.3.4h.2c.3.3.3.3.7.3v.3c-.4-.2-.8-.1-1 0v.2l-.4.3a7 7 0 0 1-.5-.2v.5l.5.1v-.3l.6.6-.4-.1-.2.1v.3h.2l.3.2c.2.2.2.2.5 0l-.1-.4c.1 0 .4 0 .5-.2.1-.2.3-.2.5-.3.2-.2 0-.3-.1-.4l.4-.1c.2 0 .4 0 .5-.3 0-.1.2-.2.4 0l.4-.2.4.1c.3-.2.3-.3.1-.6l.3.1h.5l.2-.4v-.5c.2-.1 0-.3 0-.5.2-.2.3-.3.6-.3.2 0 .4-.1.5-.4V52l.5-.3h.3l.1-.4c.4-.3.3-.3 0-.7l-.1-.3h.8c.3-.2.2-.4 0-.6v-.3h-.4l.2-.1h.5c.2-.2.3-.4.2-.6v-.3c.1-.1.4 0 .4-.3l.1-.1.3-.1c.2-.3.5-.2.9-.3l-.3 1 .2.5.2.4-.3.3.1.1c.2.2.2.3 0 .5v.5l-.1.3c-.1 0-.3.2-.2.4.1.1.2.4.5.4h.2a1 1 0 0 0-.2.9c.2 0 .4 0 .5.2.3.1.5.1.7-.1l.3-.4h.2c.3.3.4.3.6 0l.3-.3c0 .4-.1.7.3 1l-.2.2.3.4c.2 0 .2.2.1.4h.6l.5-.3.1-.8Zm-14.8-2.3.2-.2h.4l-.6.2Zm2.2 2.8c-.2-.3-.6-.3-.7-.7.2 0 .3-.2.4-.4l.1.2c0 .3.3.4.5.4h.4q-.6.2-.7.5Zm2-.5v.8l-.3.2-.3.1c0 .2-.1.2-.2.3h-.5l.1-.7.3-.6c.2.1.4 0 .6-.2l.1-.5c0-.2.1-.3.3-.3v.6l-.1.4Zm2.7-3.4q.3 0 .3.2l-.3-.2Zm2.2-3.9zM30 55h.1Zm21.2 2-.1-.7-.3-.1c-.3-.2-.5-.1-.8 0l.4-.7h.5c.2 0 .4 0 .6-.3l.2.3.2.7c-.4.3-.4.3-.3.6.1.3.2.4.4.3.1 0 .3 0 .4-.2v-.4h.2c.2 0 .3-.1.3-.3 0-.3.2-.4.5-.4.1 0 .2 0 .2-.2l-.3-.2q0-.4-.7-.7l-.6.3h-.7c0-.1-.2-.3-.5-.3l-.4-.4c.2-.2.3-.2.5 0 .3-.4.2-.7.1-1 0-.2-.2-.2-.4-.2l-.3.1c0-.4 0-.8-.5-1-.3-.2-.5 0-.8 0-.3.2-.4.4-.3.7l.1.5c.2 0 .4-.3.6 0-.2 0-.5 0-.6.3v.2c.1.2 0 .3-.1.3l-.5.2.3.4c-.5.1-.8.3-.7.7-.2 0-.3 0-.4.2.2.2.3.1.5 0v.4h.3c.4.3.4.3.9.3 0 .2 0 .4-.2.6l-.4.2c0 .2 0 .3.2.4H50l-.2-.3c0-.3.2-.3.4-.3 0 .4 0 .5.3.7h.5c0-.3 0-.6.3-.7Zm-1-3.7v.2H50l.1-.1Zm-.9 2.8q0-.3-.3-.4l-.3-.8h.5c0 .4 0 .8.5 1a6 6 0 0 1-.4.2ZM20.8 40l.1.4c.2 0 .4 0 .5-.3l.1-.2v.5l-.1.4-.4.2c.2.4.3.8.2 1.2q.6 0 .7.4c.5 0 .8-.4.7-.9 0-.2 0-.3.2-.5l.3.5h.4l.4-.1-.3.5c-.2.4-.1.5.3.6h.1c.2.3.5.4.8.5 0 .2-.3.4 0 .6h.3c-.2.2-.4.3-.4.6h.2c0 .1.1.3.3.2l.4-.1c0 .2.2.4.4.5l-.2.4.2.1c.3.1.4 0 .4-.2l.1-.3h.2l-.1.4h.4l.4-.1c0-.2 0-.5-.3-.5h-.5l-.1-.4.2-.1-.1-.2h-.4V43l.4-.3-.1-.3.4-.1V42c.5 0 .6-.2.7-.5l-.5-.3c-.2 0-.2-.1-.3-.3-.4.2-.6.4-.6.8l-.4.3c-.2 0-.5 0-.6-.4l-.3-.3h-.2l-.1-.1-.5-.5H24l-.3-.1.3-.2.6.2.1.3.5-.1c.2 0 0-.3 0-.4-.2-.2-.4 0-.6 0V40c.2-.2.4 0 .6 0v-.3c0-.2 0-.5.2-.7 0 0 .2-.2.1-.4q-.3-.2-.5.1h-.5l-.3.1v.2c-.2.2-.1.4 0 .6v.1l-.5.1v.4l-.8.7c-.2-.3-.4-.5-.7-.6-.2 0-.2-.2-.3-.3v-.6c-.3-.1-.4 0-.5.2v.3c-.3 0-.4 0-.5.2Zm4.8 3-.1-.4.5-.4.1.2-.3.2.2.4c-.4.4-.4.4-.9.2l.5-.1Zm.4 9.6v-.3l.3.2c.3 0 .3-.3.3-.4h.4l.4-.2c.2.2.1.4 0 .5 0 .2-.4.3-.5.3h-.5c-.4 0-.6.4-.6.8v.1c.2.1.2.3.2.5 0 0 0 .2.2.2h.6c.2-.1.4-.1.5.1l.5-.2c0-.3-.2-.4-.4-.5l.2-1c.3 0 .7 0 .7-.5l.6-.3c0-.2 0-.3-.2-.3-.3 0-.4.1-.4.3H28c0-.3.2-.5.3-.7-.2-.2-.2-.3-.2-.6v-.3s-.1-.2 0-.2c.2-.2 0-.4 0-.6-.3 0-.5.2-.6.5 0 0-.1-.2 0-.2 0-.3 0-.4-.2-.6l-.3-.3-.4.6-.3-.1-.3-.3h-.4c-.3.2-.6.2-.9 0l-.1.1c-.1.1-.2.2-.4 0-.2 0-.4.2-.4.4s.2.4 0 .6l.1.1h1l.2-.3.1-.5c.2.4.6.4 1 .5v.1c.3.4.5.4.7 0l.2.2-.1.1c-.2.2-.3.4-.2.7v.3c-.2.2-.4.1-.6.2l-.1-.1h-.6v-.1c0-.3-.1-.4-.3-.6a.8.8 0 0 0-.9 0l-.4.2.8.7-.1.2-.3-.1-.3.2-.1.2-.4.3c0 .2-.2.4-.4.4.1.2.2.3.4.2l.3.4-.4.4c.2.2.3.3.5.3l.5-.1c.2-.1.3-.3.3-.4l.2-.4c.2-.1.4-.4.7-.4l.3-.3ZM39.7 57c-.1 0-.1-.2-.3-.2h-.3l-.2-.1c-.3 0-.5.2-.6.4v.4c.1.2.3 0 .5 0v.1h1.4l.3-.3c-.2-.3-.5-.3-.8-.2Z"/><path d="M56.7 53.3a.55.55 0 0 0-.3-.5h-.2c-.2.1-.6 0-.7.3s-.2.5 0 .8c-.3.3-.3.7-.2 1.1-.1.2-.3.1-.4 0-.1-.2-.2-.3-.4-.3l-.4.2-.3.3-.3-.3.6-.4-.3-.4c-.1-.1-.2-.2 0-.4l-.2-.3-.2.2-.1-.1c0-.2 0-.4-.3-.5-.3-.4-.5-.4-.8-.2l-.4.2v.3c-.2.2 0 .5 0 .6.2.2.2.4.2.6.3.2.3 0 .6-.2l.8.6q0 .4.3.4l.1.6c0 .2.1.3.4.4l.3.3s0-.2.2-.2l.2-.1-.1.6c-.1.3 0 .5.2.6.3 0 .3-.3.3-.5v-.4l.2-.3c.3-.2.4-.5.3-.9l.5-.1c.3-.2.5-.6.4-.9v-.1c-.2-.2-.2-.3 0-.5v-.5zM47.6 57c.1-.5-.1-.9-.5-1.1-.2 0-.1.1 0 .3h-.5l.1-.4c0-.2 0-.3-.3-.4l-.4-.2s-.1.3-.3.2h-.3l-.3.5h-.3a1 1 0 0 1-.8.4c-.2 0-.3.1-.4.3 0 .2 0 .4.2.4h.4l.5.4v.2h2.2c.1-.6.3-.7.7-.6zm-2 .4c0-.5-.1-.6-.6-.6l.1-.4.7.2.1.2c-.1.2 0 .4.2.5v.2l-.5-.1zM16.8 39l-.1.1v.2h.4l.4.3c-.5.2-.5.6-.6 1v.2c-.2.2-.4.4-.4.7l-.2.2c-.3 0-.3.2-.4.4l-.7-.4-.9.5v.3c-.3.3-.2.5 0 .8h.4c.2 0 .3 0 .4.2H15c-.3.2-.3.5 0 .7 0 .2.2.4.5.5.2 0 .4 0 .6-.2V44l-.1-.4q-.5.2-.6-.1l.2-.2.2-.2c.3-.2.3-.2.5.2h.5l-.4-.5c0-.2-.3-.2-.4-.3 0-.3.4-.3.5-.4.3.2.6.3.6.6.3 0 .3-.3.4-.4.1 0 .2.3.4 0l-.1-.4h.2v-.3a.5.5 0 0 1-.2-.3c-.1-.1-.3-.3-.5-.2-.1 0-.2-.1-.2-.4l.3.2c.3.1.6 0 .8-.2 0-.2.2-.3.3-.5-.1-.2-.4-.1-.4-.5 0-.1.1-.2.4-.2 0 0 .2 0 .2-.2s-.1-.3-.2-.3l-.4.1.1-.6L17 38c-.1.2 0 .3.1.4 0 .2 0 .4-.3.5zm.4 12.8-.1-.2-.2-.2c0-.2-.2-.3-.4-.3s-.5 0-.7-.2c-.3-.3-.8-.3-1 .2l-.4-.5H14v-.2c.4-.1.6-.4.6-.7v-.4c.4 0 .7.3 1.2.3l-.2-.3q.5-.3.4-.8l.3-.9.5-.2c0-.3-.3-.4-.5-.5l-.6.1.2.4-.3.1-.4-.3h-.5c0 .3 0 .4.2.5.1.1.3.2.3.4h.1l.2.1c-.2.3-.6.2-.8.5v-.2l-.3.3c0 .3-.2.4-.5.6-.1 0-.2.3-.5.2 0 .3.4.3.3.6h-.2c0 .3-.1.7.1 1v.1l.2.6h-.1c-.2 0-.3.1-.2.2l.1.3c.3.2.5.1.7-.1l.2-.2-.3-.2c.3 0 .3-.3.2-.5l.3-.1.6.4c.2 0 .4.1.6-.1h.1c0 .2.2.1.4.2l-.1.4c.6.2.9.1 1-.4zm-1.3-.2c0-.1 0-.2.2-.2v.1l-.2.1zm32.9-.7-.2-.2c.2-.6 0-.9-.8-1 .5-.1.6-.4.7-.7-.3-.2-.3-.6-.4-.9 0-.2-.2-.4-.4-.5l-.7.2h-.2c-.2 0-.3-.1-.4 0s0 .2 0 .4v.9l.5.3c.3.1.5.1.5.4h.3v.1l-.2.3.5.6c0 .2-.4.3-.2.5.2 0 .5 0 .7.3h-.7a.7.7 0 0 0-.8 0l-.3-.6-.3.2h-.3l-.4.1c-.1.2-.4.3-.2.6h.2l.2.2c.1-.1.2-.4.5-.3v.7c.2 0 .4 0 .6.2v.2h.4c.2 0 .3-.2.3-.4l.8-.4v-.4c.6-.1.7-.2.6-.8h-.3zm-30.4-3.7-.1.8v.7l.6.4c.2 0 .3-.2.3-.4v-.4l.3.1.1.3c0 .2.3.3.5.2l.4-.2v-.4c0-.1-.1-.2 0-.4l.3.6-.1.4c.3 0 .6 0 .8-.3l-.3-.3c.2-.1.3-.3.2-.5v-.4l-.6.1-.1-.4.6-.1v-.7L21 46l-.3.4-.2-.3c-.2.2-.4.2-.7.2l-.5.1c0 .3.2.4.4.5l-.6-.2-.5.4v.1zm13.4-1.7c0 .1 0 .4.3.4h.4l.2-.5h.6c.2-.3.2-.3.4 0 .1.3.5.3.7 0 .1-.2.1-.4-.1-.5l-.3-.2c0-.2.3-.4.1-.6.3 0 .5-.2.6-.4l.1-.2.3-.3v-.6c-.3-.3-.5-.6-.8-.6l-.4.2h-.1c-.1.4-.4.4-.6.4-.2.3-.2.3 0 .5.2.1.2.2.1.4-.2 0-.4.1-.5.4-.1.2-.2.4-.1.5l-.4.7c-.2 0-.4.2-.5.4zm-2.1-6.1c.2.1.2.4.1.6-.1.3 0 .5.2.8l.2.4v.6l.3.3c.2 0 .5-.2.5-.4 0-.3 0-.6-.2-.9l.4-.3v-.3c-.2-.2-.2-.2 0-.5l.1-.3c0-.1 0-.2.2-.3s.2-.3.1-.5h-.3l-.3-.3-.1-.1-.4-.3c-.5 0-.8.3-1 .8l-.1.3.3.4zM23 53.3V53c0-.4 0-.5-.5-.5h-.1c-.2.3-.2.5-.2.7h-.6c0-.6-.4-.8-.9-1l-.2-.6v-.3H20l-.1.1c0 .3 0 .5.3.7l-.7 1.1c0 .2.3.4.4.6.3 0 .4.3.6.4l.3.2.5-.2h.7c.2-.1.3-.2.2-.5h.3c.3.1.5 0 .5-.4z"/><path d="M19.6 44.2c-.2-.3.2-.6 0-.9-.4.1-.5-.2-.9-.3q-.2.2-.2.6c-.2 0-.4 0-.5.3.2.3.2.6.6.7.3 0 .5-.2.8-.3v.5c-.2.4 0 .7.5.6h.2c.2-.5.2-.5.8-.4h.4c0 .3-.2.3-.3.5v.3c.1.3.2.3.4.3s.4-.1.4-.3c0-.3.2-.7 0-1h-.4v-.4h.3c.2-.1.2-.3.2-.5 0-.1-.1-.4-.3-.4l-.5.1-.1.3v.3l-.2.2v-.2c-.4-.2-.7 0-1.1 0Zm20.2 9.4-.2-.6h-.3c-.1.2-.1.2.2.5v.1h-.1l-.4-.2v-.3l-.2.1v.1h-.2c-.3.2-.3.4-.3.7l-.4.2c0 .4.3.5.6.5 0 .3-.2.4 0 .7 0 .1-.1.4-.4.4.1.2.3.3.5.3h.2l.5.2.1-.1c.2-.2.4-.2.4-.5l-.3-.1.3-.3.2-.6c.1-.3.3-.5 0-.8l.6-.2-.3-.2c-.1.2-.3 0-.5.1ZM26 57.5v.1h1-1Zm2-.5c-.2.2-.5 0-.7.2v.4h1-.1c0-.2.2-.4-.2-.5Zm28.7-5.9c-.2-.3-.6-.5-1-.3h-.4v-.5l-.2-.4a.5.5 0 0 0-.7 0l-.2.1-.4.5h.2l-.5.2c.2.2.5.1.7 0l.2.5c.1 0 .3-.2.5 0-.1.4 0 .8.3 1 .2 0 .3.1.3.2 0 .2.2.3.4.3l.1-.2.2-.2.7-.4v-.4c-.2-.1-.1-.2-.2-.3Zm-13.3 4.1c0-.2-.1-.4-.3-.5l-.4.2-.3.1c-.3 0-.5 0-.7-.3-.3-.4-.5-.3-.7 0v.5h.2v.4c.2.3 0 .7.1 1l.1.3h.5c.2.2.5.1.8.2l.2-.4.1-.3c.4-.3.4-.3.2-.7 0-.2.3-.3.2-.5Zm-14.3-9.6H29h.1zm-2.1.2-.7.2.1.4v.6l.7-.2.4.2-.1.6c.2.2.4.1.7 0h.1c0-.4.2-.5.4-.6v-.1l-.1-.6c.3.1.6.2.8-.2l-.3-.3v-.2l.1-.4-.7-.3c-.2.2-.2.3 0 .5v.3h-.2c-.1-.2-.3-.2-.5 0l-.8.1Zm18.3-2.9c.1.2.5.4.7.3l.4-.4h.3c.4.2.7 0 1-.3v-.3l.1-.3v-.4l-.6-.2h-.4l-.3-.5c-.6.2-.6.2-.5 1-.4 0-.6.2-.8.4l.1.7Zm-13.7 3.7v-.1l-.5-.2-.3-.2.2-.5c.1-.2-.2-.3-.2-.4l.2-.5v-.3c-.2-.2-.4-.2-.8 0l-.2-.2h-.3v.3l.4.3.3.3-.1.2c-.4.3-.4.4-.2.8 0 .4-.2.7-.3 1h.4c.1.3.3.6.6.5l.3.5h.2l.1-.2c-.2-.2-.1-.5-.4-.6l.3-.6.3-.1ZM7.4 47l.3.5c.2.1.3.2.5 0h.6c0-.2.2-.4.3-.5l.1-.1-.4-.4-.2-.3c0-.2-.3-.3-.3-.6v-.3c-.1 0-.2.2-.3.1h-.2v.3l.5.3h-.4l-.3-.1c-.2 0-.2.1-.2.2l-.3.1v.4l-.3.2-.2.3.4.4c.3 0 .3-.3.4-.5ZM49 45c-.2 0-.2-.2-.3-.3-.2-.2-.6-.1-.8.1l-.3.2-.2.2v.4H47c0 .3.3.6.6.9v.6c0 .2 0 .3.3.4.1 0 .3-.2.3-.4v-.7l.4-.5.2-.2.2-.3v-.3ZM26.9 55.2h-.3c-.2.3 0 .5 0 .7h-.2v-.2c-.1-.2-.2-.3-.4-.3 0 0-.2 0-.2.2l-.5.8.3.2c0 .3.2.3.5.3h.4c.3 0 .5-.1.7-.3l-.3-.4.6.1c0 .2-.1.4 0 .4h.3l-.2-.9c0-.4-.3-.6-.7-.6Zm16.3-9.1-.1-.4-.2-.4c-.4 0-.6.2-.8.4l-.3.3c-.5.3-.6.5-.4 1l.2.5v.3l.3-.2c0-.1.1-.2.3-.2.2 0 .5-.2.5-.6l.2-.2c.2-.1.2-.3.3-.5ZM35 47.6l.4.5a22.4 22.4 0 0 0 .6-.8v-1l-.2-.1-.2-.3-.2-.2-.4-.2c-.3.2-.4.2-.3.6 0 .3 0 .6-.2 1l.5.5Zm-24.8-2.7s0-.2.2-.2v.5c.3.3.5 0 .7-.2 0-.2 0-.2-.2-.2s-.3-.2-.4-.3l.2-.3c.2-.3.2-.6 0-.9-.3-.2-.3-.2 0-.5 0-.1.2-.2 0-.4-.3 0-.4.4-.8.4 0 .3.2.3.3.4l-.6 1.3c0 .2.2.4 0 .6l.1.3v.3c.1 0 .3 0 .3-.2l.2-.6Zm41.6 5.7-.1-.1c0-.1-.1-.3-.3-.3H51c-.3.2-.5.4-.6.7l.3.6c.1 0 .1.3 0 .4 0 .3 0 .4.4.5v-.3c0-.2.1-.3.3-.3l.4-.1c.4-.2.5-.8.1-1Zm-17.7 4.6h-.4l-.1.3a1 1 0 0 0 0 1l-.2.2v.6c.1.2.3.3.5.2.2 0 .3-.3.3-.5v-.4l-.4-.1.4-.2.3-.3.4.4c0-.2.2-.3.3-.5-.1-.3-.3-.5-.6-.5v-.1h-.2c-.1-.2-.2-.2-.3-.1Zm.5.1zm10.8-5.8c.3-.5.3-.6 0-1l-.3-.4-.3-.1-.5.2c-.1.1-.3.6-.2.8l.3.5c-.1.1-.3.3-.1.6l.4.2.2-.2-.2-.2.2-.5h.5Zm-27.6 7.7H17l.2.4h1.3c0-.1 0-.3-.2-.5h-.5Z"/><path d="M36.6 57c0-.3 0-.4-.5-.3v.3h-.7l-.3-.1-.4-.3c-.2.4 0 .5.5.6l.2.4h1.3V57ZM56 48.4l-.4.2-.5.3c.1.2.5.2.4.5 0 .2.4 0 .4.3h.7c0 .2.2.3.3.5 0-.2.1-.2.2-.3l-.3-.3c.2-.2.3-.3.2-.6l.1-.2-.2-.4H56Zm-31.7-2.9zm-.8-.1V45l-.7-.2c-.2 0-.3 0-.3.2s-.2.5 0 .7v.1c-.2.3-.2.4 0 .5.5.2.8.2 1.1-.2v-.3c.3 0 .6 0 .7-.4l-.2-.2h-.6Zm.8 3c.2-.2.5 0 .8-.2l-.2-.6h-.4v-.5c-.3-.2-.6 0-.8 0-.3 0-.5.2-.7.3v.3c-.2.2-.1.3 0 .4.3 0 .4-.2.6-.3.3.1.5.4.7.6Zm14.4 4.4v-1.3c-.4 0-.6-.4-1-.5 0-.3-.1-.4-.3-.3l-.2.4.2.3c0 .2 0 .4.2.6l.2.4c0 .2.1.3.3.3.2 0 .4.2.6 0ZM.7 39.5c-.3.4.1.6.3.8l-.1.5.4.2c.3 0 .4 0 .5-.4v-.3c.1-.2.3-.3.4-.3h.4v-.2c-.3 0-.3-.2-.2-.4-.3-.1-.6-.1-.8-.4-.2.1-.2.2-.2.4v.3c0 .2 0 .3-.3.3l-.2.1q0-.4-.2-.6Zm46.1 14.6-.5-.1-.1-.3c-.2.4-.5.6-.6 1 .2.2.6 0 .7.3l.2-.2h.1c.2.4.5.4.8.1l.4-.3-.2-.5c-.3-.2-.6-.2-.8 0Zm-33.8-6c.2-.4.7-.2 1-.5V47c0-.2 0-.4-.2-.5-.4 0-.8.2-1.2.1-.2.7 0 1.2.5 1.4Zm-.9-1.5c0-.1 0-.2-.2-.3-.5.3-.9.1-1-.4l-.3-.1c-.3-.1-.6.2-.5.5.1.5.3.6.8.4h.2c0 .5.1.6.7.7.3-.1.3-.5.3-.8Zm3.8-8h-.1c-.3.2-.6.1-1 0h-.2c0 .2 0 .4.2.4s.3.3.5.3c0 .4-.6.3-.5.7l.5.5h.4l.4-.6v-.1l-.5-.3v-.6c.3-.2.4.3.7.1 0 0 .2-.2 0-.4-.2 0-.3.2-.4 0Zm13.3 14.6-.3.1-.2.1c-.3 0-.5 0-.6.3-.2.3-.3.6 0 .9v.1c.3 0 .5 0 .7.2.1.1.3.1.4 0v-.3c0-.3.2-.5 0-.9v-.5Zm12.6-4c.2.4.3.5.7.2h.4l-.1-.2c-.2 0-.3-.2-.4-.3.2-.5 0-1 .1-1.3-.4-.2-.5 0-.6.5l-.3-.1c0 .4-.2.8.2 1.1v.1ZM39.5 46v-.6l-.3-.3c.2-.2.2-.5.6-.6 0-.5-.3-.7-.8-.5 0 .2 0 .4-.3.6v.2l.2.3-.4.7c.2 0 .3.2.5.3.2 0 .3 0 .4-.2Zm-1-.1zm7.3 5.2c.1 0 .3 0 .3-.2v-.2l.4.2.3-.4c.1 0 .3 0 .4-.2 0 0 0-.2-.2-.3 0-.2-.2-.3-.4-.3h-.3c-.2 0-.1.3-.4.2v.3q-.5 0-.7.3c0 .2.3.2.2.5l.4.1Zm-31.9-14-.1.2c-.2.1-.3.2-.3.4.1.1.3 0 .4 0 .4-.1.8-.2 1-.5h.3c.2 0 .3-.1.4-.3 0-.2 0-.3-.2-.4-.2-.2-.4-.2-.6 0h-.2c-.4 0-.6.3-.7.6ZM44.5 54c-.4 0-.4.1-.4.8l-.4-.2c-.2.3-.2.4.2.5l.2.1-.1.4c.1 0 .2.1.4 0l.2-.2c.1 0 .2 0 .3-.2.1 0 .3-.2.3-.4s-.1-.5-.4-.7l-.3-.1ZM17 45.7c.5-.6.5-.8.1-1.4l.3.1.3-.3c0-.3 0-.5-.4-.5l-.5.1-.2.4.4.2h-.2c-.3 0-.4.2-.2.4s.2.5 0 .7l.4.3Zm23-5.1c0-.2-.2-.4-.4-.4-.3 0-.5.2-.5.4-.1.4 0 .5.3.7l.3.1-.2.4.5.4c.1-.2.2-.4 0-.6v-.5l.4.2c.1-.1.3-.2.3-.4-.2-.2-.4-.1-.6 0v-.3Zm4.7 6h.2c.2.1.4.2.4.4.1.2.2.2.4.2.2-.1.4-.1.6-.4l-.5-.7v-.5c-.3 0-.5 0-.7.2-.4.1-.4.4-.4.8ZM25.8 49h.2c.3.2.5 0 .7 0 .1-.2.3-.3.3-.6l-.5-.2-.1-.2c-.2-.3-.3-.4-.5-.3-.2 0-.4.2-.3.4 0 .3 0 .5-.2.8.1.1.3 0 .4 0ZM11 53.4c-.2-.2-.4-.4-.3-.7l-.1-.2-.4-.1-.1.2.4.1c0 .2 0 .4-.3.6-.5.3-.3.9.2 1.2l.5-.2c.2-.1.3-.5.2-.7v-.2Zm17.3-4.9Zm-.8.2c0 .6 0 .7.7.7.1.2.3.4.7.3.2-.1.2-.4.3-.6l-.3-.3c-.2 0-.5 0-.6-.3h-.1a.7.7 0 0 0-.7.2ZM22 55.2h.8c-.1-.3-.2-.4-.4-.3-.1.1-.3.1-.4 0-.4-.2-.5-.2-.6.3h.2v.1c-.4.2-.5.5-.8.8-.1 0 0 .2 0 .4l.7.1c.1 0 .3-.1.4-.4l-.3-.3.2-.5.2-.2Zm-.6-6.2v.5c0 .2.1.3.3.5.1.2.4.2.6 0 .3 0 .4-.2.4-.5v-.2l-.3-.4c-.3-.2-.4.2-.6.3l-.1-.2h-.3ZM5.6 47.3l-.3.2c-.2 0-.3.3-.5.4 0 .2 0 .3.2.5.2.3.4.3.7 0l.4-.1-.2-.5c.1-.2.3-.1.3-.3l-.1-.3h-.5ZM6.7 45c.1 0 .2 0 .2-.2v-.2H6v.4l-.2.1c-.3.1-.4.4-.4.6v.1c.2.3.7.3.9 0l.2-.4V45h.2Zm45.7 5.2.5.2v-.7l.6-.1c0-.2 0-.5-.3-.7-.3-.1-.5 0-.8.1l.2.5-.7.2c0 .3.2.4.5.5Zm-33.7-9.8c-.2.1-.3.3-.3.5l.2.8h.6c.2-.3.4-.7.4-1.1-.3-.2-.5-.3-.9-.2Zm.9.2Zm22-1.4v.1c-.5.3-.5.7-.1 1 .2 0 .3.2.5.3v-.1c0-.2.3-.4.4-.6.1-.2 0-.5-.3-.7-.1-.2-.3-.2-.5 0Zm-8.2 17c-.2-.3 0-.7-.4-1h-.6v.7l-.2.7.3-.2.3.2.6-.4Zm-13.5-1.9-.3-.1.2-.3c-.1 0-.2-.2-.3 0-.1.2-.3.1-.4.1-.2.4 0 .6.2 1l-.1.1v.3l.3-.1.1-.2.3.1v-.5h.4c0-.4 0-.5-.4-.4ZM12.2 53v-.7l-.1-.3h-.3c-.2.2-.2.4 0 .5v.2c0 .3 0 .6-.2.9.3.2.5 0 .8 0l.2-.1.4-.4-.8-.1ZM9 57.2l-.3-.6-.6.4c-.2 0-.2.1-.2.3v.4h1c.2-.2.2-.4.1-.5Zm3.9-15.8.8-.4c0-.3-.4-.5-.2-.8h.4c0-.4 0-.4-.4-.3h-.2c-.2 0-.3 0-.3.3 0 .2 0 .4-.3.5v.4h-.3v.2c.2.2.4.1.5 0Zm29.1.9c.1-.3.3-.5.5-.6.3-.3.4-.6 0-1-.4 0-.6.2-.6.7h-.2l-.1.2v.2c.2.2.3 0 .4 0l-.2.5s.2.1.2 0Zm-6.7-2.6c-.4-.2-.5-.1-.7.2-.1.2-.2.4 0 .7h.5c.2 0 .5-.2.6-.4 0-.2-.1-.4-.4-.5ZM36.5 55l-.6-.1c-.4.4-.4.7 0 1h.3l.2-.2c.1 0 .3.1.4 0l.1-.4V55h-.4Zm-28-6.4c.2-.2.2-.5 0-.8l-.3.2q-.8-.3-1.1 0c0 .4.4.6.8.6h.6Zm28.4 3.6c-.4.1-.5.5-.3.8l.6.4c.3-.2.5-.2.6-.6l-.6-.6h-.3ZM33.1 40v-.3c0-.2-.3-.2-.4-.1-.2 0-.3.1-.4.3v.5l.4.4c.2 0 .4-.2.5-.4.2-.2.2-.2.1-.5h-.2ZM5.8 41.3l-.6.3c0-.1-.2-.3-.4-.1v.2l.2.1.3.6h.6l.2-.8-.3-.3Zm22.6-1c.2 0 .3-.2.4-.3l.3-.2c.2-.1.3-.3.3-.5V39l-.2-.2c-.2 0-.5 0-.6.3-.1.3 0 .5 0 .8l-.4.2.2.2Zm1-1.3zm27.1 18H56v.3s.1 0 0 .1v.2h1v-.4l-.4-.2ZM37.1 41.8V43c.3.2.5.2.6-.2 0-.2 0-.3.2-.4v-.5H37ZM18.7 55.7l.1-.3c-.3-.3-.3-.3-.6 0v-.2H18v.1l.3.4c.1.2.2.4.1.7.4 0 .7.2 1 0l-.7-.7ZM7.5 42.2l-.4.1c-.2 0-.3.3-.3.5v.4h.6c.2 0 .3 0 .3-.3l.2-.5c0-.1-.3 0-.3-.2ZM41 45.3a1 1 0 0 0-.6 0v.8l.7.2c.2 0 .3-.1.3-.3l-.1-.5c0-.1-.1-.2-.3-.2Zm-29.5-7.2-.2-.1-.2.1v.3l-.3.3v.4c-.1 0-.3.1-.2.3h.3l-.2.4c.2 0 .3 0 .5-.2v-.2H11q.1-.4.5-.5V38Zm7.7 1.4.5.3-.1.8c.2 0 .4.1.5-.1.1-.2.2-.5 0-.7l.1-.4c-.4-.3-.7-.2-1 .1Zm.4 1.1ZM5.1 47.3c.2 0 .3-.1.4-.4l-.1-.3c-.1-.2-.3-.3-.5-.2-.2 0-.3.2-.5.1l-.2.1.7.7h.2ZM22.5 56l-.2.2c-.1.2-.3.4-.2.6.3 0 .4.3.7.1.3-.1.3-.4.3-.6l.2-.1-.2-.2h-.6Zm2.7-11h-.7l-.2.5c.1.1.3.4.6.4l.7-.5c0-.3-.2-.4-.4-.5Zm-.9.5zm11.5-1.9c-.4.2-.4.5-.4.8l.4.3c.2.2.3.1.5 0l.2.3h.1c.1-.4-.2-.7-.6-.6.1-.3-.1-.5-.2-.8ZM12.5 34l-.3-.1c-.2.3-.5.6-.2 1h.9v-.4c0-.4-.1-.4-.4-.5ZM2.4 43.8c-.1-.3-.3-.3-.6-.2l-.2.2c0 .5.2.7.8.5l-.1.4h.4v-.5c-.2-.1-.2-.3-.3-.4Zm44.4-3.5.1-.3v-.6l-.5.1c-.3.1-.4.4-.3.7l.1.4.6-.3Zm-2.2 11.2c-.2.1-.3.4-.2.5.2.2 0 .3 0 .5l.4.1.2-.2.2-.3-.1-.5h-.5ZM8.5 41.3v-.5c0-.1 0-.2-.3-.2v-.2l-.2-.3c-.4 0-.5 0-.7.4h.4v.3l.2.2c.2 0 .3.1.5.3Zm9.2 6.2c-.2-.3-.5.1-.7 0-.2 0 0 .2-.1.4-.5 0-.5 0-.7.6h.4c.1-.1.3 0 .4-.2V48c.2 0 .3-.1.4 0 .2 0 .3-.2.3-.4Zm7.5 9.7h-.3l-.2.3v.1h.8c0-.2 0-.4-.3-.4Zm-3.6-5c.1.2.4.3.6.2.2 0 .3-.3.3-.5l-.3-.2c-.1-.2-.3-.1-.5 0-.3 0-.3.3-.1.5ZM37.3 54l-.2-.3c-.2-.2-.3-.1-.4 0a1 1 0 0 0 0 .8l.7.1v-.3l-.1-.3ZM13.8 38.5l-.2.2-.2.4c.2.4.4.4.7.3l.4-.2h-.2l.1-.3-.6-.4Zm14.3 17.7.3.4c.6-.1.7-.2.7-.6-.4-.4-.6-.4-1 .2Zm15.9-11 .2.5h.4c.2 0 .3-.1.4-.3 0-.2 0-.3-.2-.4-.3-.2-.6-.1-.7.2Zm-22.2 2.2c-.2.4-.2.5.3.8.2 0 .4-.2.6-.4l-.1-.5c-.3 0-.5.3-.8 0ZM16.6 55l.4.5c.4 0 .5-.1.5-.7l-.6-.3-.3.5Zm25.8-17.8v.7h.5l.3-.5c-.2-.4-.3-.4-.8-.2ZM18 51c.1-.2 0-.3 0-.4l-.4-.3-.3-.1-.5.2c0 .2.2.3.3.3l.7.3h.2ZM7 52.3c-.3.1-.3.2-.2.7l.8.2v-.5l-.5-.4ZM42.9 44c-.2 0-.4.1-.5.3l.1.5h.2c.2 0 .6-.3.6-.5V44H43c0 .1-.1.1-.2 0Zm-31.3-1.5.5.2v-.5c.3-.3 0-.4 0-.7l-.6.4c0 .3 0 .4.2.6ZM1 48.5l.1.6c.6-.3.7-.5.2-1.2 0 .2-.4.3-.4.6Zm6.6-12.8v-.1c-.3-.2-.6-.1-.7.1l-.2.3-.2.3H7c.4 0 .7-.2.6-.6Zm24.3 15c0 .2.2.3.4.2l.4-.2-.1-.4c-.1-.2-.3-.2-.5-.1-.2 0-.3.2-.2.5Zm21.3.8-.3.4.1.2c.2.3.6.4.8 0 .1-.1 0-.2-.2-.3l.2-.2h-.6Z"/><path d="m46.5 53.6.3.3v-.6c.1-.4 0-.5-.4-.6h-.1c-.1.2-.2.3 0 .5l.2.4ZM12.5 43c.3 0 .3 0 .4-.2l.1-.4.2-.1c.1-.1.1-.3 0-.4 0-.1-.3-.2-.4 0-.1 0-.2.1-.1.2l.1.3c-.2.1-.4.3-.3.5Zm5.9 7.6.2-.2c.4-.2.4-.4.1-.7-.5 0-.4.4-.7.6 0 .2.2.2.4.3Zm4.9.7V51c-.2-.1-.4-.2-.6 0 0 .2-.2.2-.3.3.1.3.2.4.8.3v-.3Zm5.7-8.8V42c-.3-.3-.3-.3-.7 0v.5h.7Zm-17.1-2.1c-.2.1-.2.4-.2.5 0 .2.3.3.4.3.2 0 .4-.2.4-.6-.2-.1-.4-.3-.6-.2Zm45.5 16.1.2.2v-.4s-.2 0-.2.2Zm-29.1-8zm.7-.1v-.2c-.1-.2-.4-.1-.7-.2l-.3.1.3.3v.1l.5.1c.1 0 .3 0 .2-.2ZM7 41.5l-.6.1-.3.6.5.2c.1-.3.4-.5.4-.9Zm3.8-.6-.2.2c0 .1.3.1.2.3.4.2.5.2.8-.3q-.2-.2-.8-.2Zm0 .5Zm34.2 12c0-.2 0-.3-.2-.4h-.3c-.3.4-.3.6 0 1 .2-.2.4-.4.4-.6Zm-.5.5v.1-.1zM18 48.7v-.1l-.1-.2c0-.3-.1-.3-.5-.3 0 .3 0 .5.2.7v.3h.2l.1-.1v-.3ZM8.3 35.3l-.4-.5c-.4.1-.5.1-.5.5.3 0 .6.5.9 0Zm32.9 18.8c.4 0 .4-.4.5-.6l-.5-.3c-.3.3-.3.3-.1.6v.3Zm.6-10.1c.2 0 .5-.2.5-.4 0-.1 0-.3-.3-.3-.2 0-.4 0-.5.3 0 .1 0 .3.3.3ZM3.9 46c-.6.1-.7.2-.8.7.5.2.7 0 .8-.6Zm13.5 7.3c-.2-.2-.3-.1-.5.1 0 .4.3.5.7.4.1-.3 0-.4-.2-.5Zm11.9-8.6c0-.3 0-.6-.3-.7l-.3.1-.2.3c.3 0 .4.4.8.3ZM16 49.4c0 .4.1.6.4.7.2 0 .3 0 .4-.3-.3 0-.4-.6-.8-.4Zm-4.8 8c-.2 0-.4 0-.4.2h.7l-.3-.2Zm7.1-19.6c.6.3.6.3 1-.1-.4-.4-.5-.4-1 .1ZM51.5 57c-.2 0-.3.2-.3.3v.3h.5c0-.2 0-.4-.2-.6ZM35 55l.3-.2c-.2-.3-.3-.3-.7-.2 0 .2-.2.5 0 .7h.1c.2 0 .3-.1.3-.3Zm-.4.3zM7.8 39c.2 0 .4.4.7 0l-.3-.7c0 .3-.4.3-.4.6Zm5.7-3.5c-.2 0-.4.2-.3.5v.2l.6-.3s.1-.1 0-.2c0-.1-.1-.3-.3-.2Zm1 10.5c-.2-.2-.4-.4-.7-.3.1.4.2.7.6.7l.1-.5Zm-1.7-9.3.2.3h.2c.2-.1.3-.2.3-.4l-.3-.3H13c-.2.1-.2.2-.2.4Zm.4-1.5c.5-.3.6-.4.2-.8-.4.2-.4.3-.2.8Zm20 11.6v.5l.5.1.2-.1c0-.1 0-.3-.2-.3a.7.7 0 0 0-.5-.2Zm1.5 10.8h.3-.3Zm-14.2-7.9V49c-.5 0-.6.2-.6.6.2 0 .4.2.6 0Zm-.5 0h-.1.1zm-.8 1.4c.2-.3.2-.3 0-.4-.2-.2-.3-.2-.6 0 0 .3.3.4.6.4Zm.6-1.2.1-.2h-.6l-.2.4c.4.3.6.2.7-.3Zm.1-.2h.1-.1zm36.1-3c-.2.1-.4.2-.4.6l.2-.1v-.1c.6 0 .6 0 .7-.4H56Zm-32.3 9.2-.1.1.5.4.3-.6h-.7ZM36 45.1l-.1.3c-.2.2-.2.2 0 .5.5-.3.6-.5.2-.8ZM20 56.9c.1.2.3.4.6.4l.2-.1V57c-.3-.3-.5-.3-.7-.1Zm7-17.4-.2-.2-.3-.1c-.2.1-.3.3-.2.5l.2.1c.3 0 .4 0 .4-.3ZM9.7 50.7c.3-.4.3-.4.1-.9-.3 0-.3.4-.4.5l.3.4Zm1.6-.9h-.1c0-.3-.2-.3-.4-.3v.3l.5.4q.2-.2 0-.4ZM3.2 48c-.1.3.1.4.2.6l.5-.3c0-.4-.4-.2-.7-.3Zm6.1 7.7c-.2.2-.2.4-.1.6.3 0 .4-.2.4-.6h-.3Zm3.7-1.9-.3.3c0 .2 0 .3.3.3.2 0 .3 0 .3-.2s0-.4-.3-.4Zm18.3 3.1c-.2 0-.4 0-.4.2 0 .1 0 .3.3.3.1 0 .3 0 .3-.2s0-.3-.2-.4Zm-5-9.9-.3-.4c-.1 0-.3 0-.3.2s0 .4.3.5l.2-.3Zm28.3 6v-.4c-.2 0-.3-.3-.6-.2 0 .3.2.6.6.6Zm-36-1.3c0-.2-.1-.3-.3-.3H18c0 .4.1.4.4.4l.3-.1ZM8.1 36.9 8 37l-.2.2c.1 0 .2.3.4.2l.3-.4c0-.2-.2-.3-.4-.2Zm42.3 13.5-.1-.2h-.6c.1.4.2.5.5.3l.2-.1Zm-44.8-12c-.4 0-.5.2-.4.7.4-.3.5-.3.4-.7Zm19.4 8c-.1-.2-.3-.3-.5-.1l-.1.2.1.1c.3.2.4.1.5-.2ZM9.3 37.7c0 .1 0 .2.2.3v-1l-.3-.2v1Zm-.1-.9ZM51 49.6l.6-.4h-.3l-.6.3.2.1Zm-40-1.5c.2 0 .3 0 .3-.2s0-.3-.2-.3-.3 0-.3.2c0 .1 0 .3.2.3Zm-4.2-7.3-.1-.5c-.3.2-.3.5-.1.7.2 0 .2 0 .2-.2Zm30.9 3.7zm-.4.3h.3v-.3l-.5-.1c0 .3 0 .4.2.4Zm-7.8.9.2-.4c-.3-.2-.4-.2-.5 0 0 .2-.1.2-.2.3.2 0 .3.2.5.1Zm-.4-.1H29h.1zm11.3-10.3v.4c.3.1.5.2.6 0l-.1-.3c-.2.1-.3-.3-.5-.1Zm.2 21.7.4.1.2-.3c-.4-.3-.6-.2-.6.2Zm-26.2-2c-.2.2-.2.2.3.5 0-.1.2-.2 0-.4 0-.2-.1-.2-.3-.2ZM3.5 45.4l-.3-.2-.5.1c0 .3.3.3.4.4l.4-.3Zm50 11.9c-.2 0-.3.2-.4.3h.5l-.1-.3ZM8.2 49.2c-.1.1-.3.2-.2.4 0 0 .1.2.3.2l.2-.2c0-.3-.1-.3-.3-.4Zm35.5-9.4c-.1.1 0 .3 0 .4q.3 0 .4-.4a.3.3 0 0 0-.4 0ZM3.3 38.5c.2 0 .5.3.7-.1l-.4-.3c-.2 0-.3.2-.3.4Zm32.9 15.7c.3-.3.3-.5-.1-.7l-.2.3.3.4ZM.4 45l-.3.2c0 .2 0 .3.2.3s.3 0 .4-.2c0 0-.1-.2-.3-.2ZM9 49c0 .2.2.2.3.2.1 0 .2 0 .2-.2l-.2-.3-.4.2v.2Zm15.3-5c.1 0 .2-.1.2-.3l-.1-.3c-.4.1-.5.2-.3.5 0 0 0 .2.2.1Zm-15.6-.7c0-.3-.1-.5-.4-.7-.2.2 0 .4 0 .5 0 .2.1.2.3.2Zm1.4-2.4c.2-.3.2-.3 0-.7l-.2.4c0 .1 0 .3.2.3Zm47.5 10.9v-.6.6ZM3.7 42.3c-.4-.1-.5 0-.5.4q.4 0 .5-.4ZM2 46q.3-.3.1-.7c-.3.3-.3.3-.1.7Zm7.9 5.9-.4-.1c0 .3 0 .5.3.4h.1v-.3ZM30 54.7s-.1-.1-.2 0c-.2 0-.2.2-.2.3h.5v-.3Zm0 .3h.1ZM3 44l.3-.1-.3-.4c0-.1-.1-.1-.2 0v.3l.2.1Zm19.6-.7.1.2c.2 0 .4-.1.4-.3L23 43c-.2 0-.4.1-.4.3Zm-18.1-.9h-.4c0 .1-.1.3 0 .4q.3 0 .5-.4Zm22.5.3.5-.2v-.2H27c-.2 0-.2 0-.1.4ZM4 40.2v.4h.3l.1-.4h-.3Zm10.1.6v.5c.2-.2.4-.2.3-.5h-.3Zm1.1-3.1c.3 0 .5 0 .6-.3l-.3-.2c-.1.2-.3.2-.3.5ZM40 45.1l.1-.4h-.4c0 .4 0 .5.4.4ZM.8 35.7c-.3 0-.4.2-.2.6q.3-.3.2-.6Zm47.8 12.8.3-.1-.1-.5c-.4.1-.4.2-.2.5Zm-11 2c.1.1.2.2.4.1s0-.3 0-.5c-.2 0-.3.2-.4.4Zm18-.1.3.2v-.4c0-.1-.1-.2-.3-.2-.1 0-.3.2-.2.3l.2.1Zm-.2 0Zm-.9 1.1H54v.3h.2l.3-.3Zm-39.8-10 .2-.3c0-.1-.1-.2-.2-.1-.1 0-.2 0-.3.4h.3Zm42.9 9.3v-.1.1zM52.2 52c.4-.2.4-.2.4-.6-.4 0-.4 0-.4.5ZM33 41.2l-.2.2s.1.2.2.1h.4a7 7 0 0 0-.3-.4H33Zm-16.8-.6h.4c.1 0 .2-.2 0-.4-.1.1-.4 0-.4.4ZM7.4 40l.2-.3-.1-.2c-.1 0-.2 0-.3.2 0 .1 0 .2.2.2Zm1.7-1.8c-.2 0-.3 0-.4.2v.2H9c.2-.1.2-.2.1-.4Zm6-3.6c-.1-.1-.3 0-.4 0v.3q.3 0 .4-.3Zm12.6 20.9.2.2.3-.3c0-.2-.2-.2-.2-.2-.2 0-.3 0-.3.3ZM5.4 43v.2l.2.2c.1 0 .2 0 .3-.2 0-.2-.2-.3-.5-.2Zm49.2 5.7c-.2 0-.3.1-.4.3h.6l-.2-.3Zm-4-.4V48c0-.2-.2-.2-.4-.2l.1.4h.3ZM12 37.6v.1l.3-.1v-.2c-.2 0-.4 0-.4.2Zm27.8 17.7Zm.4.3v-.3h-.4c0 .3 0 .3.4.3ZM15.7 45.3q-.1-.4-.3-.4c0 .3 0 .5.3.4ZM1.6 37.4c.3-.2.3-.2.2-.5q-.3.2-.2.5Zm41.7 9.4c-.1 0-.1.1 0 .4.3-.2.4-.3.3-.4h-.3ZM20 42.9q-.3 0-.3.3h.3v-.3Zm-6.6-.2.2-.1-.1-.3c-.2 0-.2 0-.3.2 0 0 0 .2.2.2Zm12-4.6v-.3H25l.1.4h.3Zm10.2 18.8q.3 0 .3-.3c-.3 0-.4 0-.3.3ZM11.7 39.4v-.1.2c.2 0 .3 0 .4-.2l-.2-.2-.2.2Zm45.9 8.9v-.4c-.1.2-.1.2 0 .4Zm-50.2-4 .4-.2V44l-.1-.1c-.2 0-.3.1-.3.4ZM40.9 43q-.3-.2-.5 0c.2.2.3.2.5 0Zm-39-.4H2l.1-.4c-.2 0-.2.2-.3.3v.2Zm32.4-2.8-.2-.2q-.3.2 0 .5s0-.2.2-.3ZM3 41.9c.1-.2.2-.2.4-.3-.4-.2-.4-.2-.5.3Zm20 2.6.2.1c.1 0 .1-.1 0-.4-.2.1-.4.2-.2.3Zm14.6-.9q-.2.3 0 .4c.2-.3.2-.3 0-.4ZM8.7 37.3l-.2.3h.7c-.2 0-.3-.1-.5-.3Zm.2-.5h.3l.2-.1q-.2-.3-.5 0Zm.3 0zm29 8.2c0-.1 0-.3-.3-.2v.3l.3-.1Zm-21.3-7.7h-.2l.1.5.1-.4Zm-15.4 7c-.2 0-.2.1-.2.2.1.2.2.2.3.1l-.1-.3ZM41 41.5l-.1-.2s-.2-.2-.3 0l-.1.1.2.1h.2Zm4 9.6c0 .2 0 .3.2.3l.1-.3H45ZM0 42.3v.3-.3Zm15.7 13.4v.1l.3-.1v-.2h-.2c-.1 0-.2 0-.1.2Zm27.6-15.2v.3c.2 0 .3-.1.3-.2 0-.2-.2-.2-.3-.1ZM8 34v.5q.2-.2 0-.5Zm6 20.4.1.3.2-.1c0-.2-.1-.2-.3-.2Zm15.2 2.5q.2-.2.1-.5-.3.2 0 .5Zm8.8-3.8c.3.3.3.3.6 0H38ZM10.3 38.3l-.1.1.2.4.1-.2c0-.1 0-.3-.2-.3Zm25.6 14.6v.3l.3-.2-.2-.2h-.1ZM7.3 38.2c.2 0 .3-.2.2-.4q-.3 0-.2.4Zm37.6 9.4-.4-.1s0 .3.2.3l.2-.2ZM4.7 45.4c-.1.2-.1.3 0 .4H5c0-.2 0-.3-.2-.4Zm28.1 1.2c.1 0 .2 0 .2-.3l-.4.1c0 .2.1.2.2.2ZM12.5 36.3c.3 0 .4 0 .5-.2q-.3 0-.5.2ZM1.3 43.7c.2 0 .2-.2 0-.4l-.1.3v.1Zm42.7.6v.4l.2-.2v-.2H44Zm-19.8.5c0-.2.2-.3 0-.4H24c0 .2 0 .3.2.4ZM2.9 40c-.2 0-.3.1-.3.3q.3 0 .3-.3ZM44 47c.2 0 .3-.1.3-.3-.3 0-.3 0-.2.3Zm-30.7-7.2.1-.2c0-.2-.2-.1-.4 0l.4.2Zm1.1.2.2.2.1-.4c-.2 0-.3 0-.3.2Zm-7.9-1.9c-.1.1-.2.2 0 .4.1-.1.2-.2 0-.4Zm.6-4.8c-.2 0-.3.2-.1.3q.2 0 .1-.3Zm2.7 15v.5q.2-.2 0-.5ZM6 40c-.1-.2-.2-.2-.3-.1v.1c0 .1.1.2.3.1Zm5.3 11c.3-.2.2-.3.1-.5-.2.2 0 .3 0 .4Zm-9-9.8.1.1h.2V41h-.3Zm8.2.3v.3c.2-.1.3-.2.3-.4l-.3.1Zm.3-.1Zm27-.3v.3h.2c0-.2 0-.3-.2-.3ZM.8 42q-.1.2.2.2c0-.2 0-.2-.2-.3Zm5.8-6.6V35h-.1l-.1.3v.1h.2ZM30 57.5l.1.1h.2l-.1-.3-.3.2ZM18.7 46.1v.4c.2-.1.2-.1 0-.4ZM28 56.6v.2h.3c0-.2-.1-.2-.2-.2ZM15 37.7h-.3v.1l.3-.1Zm7.9 11.1v-.3l-.3.1v.1l.3.1Zm-.8-11.1h-.3q0 .2.3 0Zm-9.1.7v.2l.2-.1v-.3l-.2.2Zm7.5 4.6c-.1 0-.2 0-.1.1h.3l-.2-.1ZM5.2 37.3q.2.2.3 0h-.3Zm49.5 11.9c-.1 0-.3 0-.4.2.3.1.3 0 .4-.2Zm-22.1 7.6c0 .1 0 .3.2.3V57c.1-.2 0-.2-.2-.2ZM7.5 36.6c-.2.2-.1.3 0 .5v-.5Zm16.9 18.2h-.1l.1.2.2-.1-.2-.1ZM53.3 51c-.2 0-.2 0-.2.2.2 0 .2-.1.2-.3Zm-25.5-8.9c0 .2 0 .2.2.3 0-.2-.1-.2-.2-.3ZM7.7 50.9l.1-.1-.2-.2.1.3Zm7.3-6.1q.1-.2-.1-.3v.3Zm42.5 8.9v.3h.1v-.4h-.1Zm-57-9.4c.2 0 .3 0 .3-.2-.3 0-.3 0-.3.2ZM12.7 55l.2-.2h-.1c-.1 0-.2 0-.2.2Zm38-10.2q0 .2.3.2l-.3-.2ZM8.6 35.1l.1.2.1-.1V35l-.2.1Zm32 8.6q.2.1.3-.1c-.2-.1-.2 0-.3.1Zm-17.1 5v.3h.2v-.2l-.2-.1Zm-11.3.2c0-.2 0-.3-.2-.2 0 .1 0 .2.2.2ZM38 44.3h-.2l-.1.2h.2v-.2Zm-.3.2Zm-.3-.9c0-.2 0-.3-.2-.3l.1.3h.1ZM9.4 46l.1.2c.2 0 .1-.2 0-.3v.1Zm6.4-10.4-.2.2h.2v-.2ZM1 45c.2-.1.1-.2 0-.3v.3Zm38.1 3.4c-.1 0-.2.1-.1.3h.1c.2 0 .1-.2 0-.3Zm-18.9-6-.2.1.1.1h.2l-.1-.2Z"/><path d="m8.3 38.2.4.2-.1-.3-.3.1Zm.4.2Zm2.2-.6-.4.2c.2 0 .3 0 .4-.2ZM19.3 52l.3-.2c-.2-.1-.3 0-.3.1ZM6.5 36v-.3l-.2.2.2.1ZM5 43.5l.2.2.1-.1v-.1H5Zm16.2 8v.1c0 .1.1.1.2 0 0 0-.1-.1-.2 0Zm13.9-6.6-.2.2q.2 0 .2-.2ZM.3 42.8l.4-.3q-.3 0-.4.3Zm52.5 5.6h.2l.1-.1h-.3Zm-29.4 3.4c-.2 0-.2 0-.2.2l.3-.2Zm13.1-9.6V42l-.2.2.1.1h.1Zm16.8 6.2h.1v-.2l-.1.2Zm-1.9 4.4h.3c0-.2-.1-.2-.2-.3v.3Zm-11.9-9.4.4-.1-.4.1ZM5 36.4h.4l-.1-.2-.1.2Zm7.4 3 .2-.1-.3-.1.1.2Zm9.4 11.4-.2-.1.2.1Zm-1.1-5.6s-.2 0-.1.2h.1c.1 0 0-.1 0-.2Zm-13-10.9c-.2 0-.3.1-.2.3l.2-.3Zm9.4 14.9-.3.1c.2.1.3.1.3-.1Zm24.6 4h.2v-.3l-.2.3ZM9.6 40.5v.2l.2-.1-.2-.1Zm.3.1h-.1.1zM39 43.7h.1v-.2l-.2.1.1.1Zm-28.2 3.4v.1c0 .1.1.1.2 0 0-.1-.1-.2-.2 0ZM53.1 50l.2-.2-.2.1ZM19 36.9c0-.2-.1-.2-.2-.1v.2l.2-.1Zm5 19.8v.2-.2Zm-16-21-.3.1c.2.1.3 0 .3-.1Zm40.1 21.4H48v.1h.2ZM9 55.5v.1h.1v-.2h-.2Zm32.4-5.4.2-.1h-.1l-.1.1Zm-20-.1h-.2l.1.1h.1v-.2Zm19.7.5h.1v-.1H41v.2Zm3.2-4 .2-.2q-.2 0-.2.2Zm3.7 6.8.2.1h.1v-.1H48Zm-46.4-10h.2v-.1h-.2Zm-.6-.6-.1.3c.2-.1.1-.2 0-.3ZM55.7 48l-.1.1.1-.1Zm-32.8-5.6v-.2l-.1.2ZM4.5 45.3V45h-.1v.2Zm7.4-.5v-.3.3ZM30 52.3v.1h.1v-.1Zm-16.8-3 .1-.2v.1Zm2-11.3v-.2l-.1.1v.1h.1ZM40 56.1h.1l.1-.1-.1.1ZM5.4 39.8h.2l-.2-.1v.1ZM9 42v.2h.1V42Zm1.8-6.7h.2v-.1h-.2Zm5 18.9h.2-.2Zm-1.4-12.4v-.1l-.1.1v.1l.1-.1Zm-.6 0h.1-.2Z"/></g></svg>