<svg xmlns="http://www.w3.org/2000/svg" viewBox="0 0 57.6 57.6"><path fill="#fff" d="M45.6 44.4a11 11 0 0 1-7.1 3.9s-1.5-2.6-1-6.3C29.9 39.1 22 34.6 22 34.6s1.4 10 13 13.8c14.1 4.7 19.7-2.7 19.7-2.7s-3.2 0-9.2-1.3Z"/><g fill="#0c2b77"><path d="m1.5 2.5.1-.2c-.2 0-.3.1-.4.3l.3-.2Zm3.2 8.7v.2l-.2.3.1.1.3.3.5-.6-.1-.5h-.4c-.2 0-.3 0-.2.2Zm2.3-.4c.2-.1.2-.3.2-.6V10c.2-.1.2-.3.1-.4h-.5v.1c.2.3 0 .5 0 .8l-.4.5H6l.2.1c.3 0 .6-.2.8-.3ZM1 .5V.3L.8 0C.7.2.5.3.6.4c0 .2.3.1.4 0Zm-.7 6 .3.2.5-.5L1 6c0-.4 0-.6.3-.8v-.1h.2l.3-.3-.3-.2-.8.5-.6-.3v.7l.1.6.1.4Zm.5-3.7ZM3 19.2h-.4l.1.6H3l.2-.4-.2-.2ZM.4 8.3V7.2l-.4.2v.1h.2c.2.2.1.6.2.8ZM0 3.9h.1H0Zm3.3.9c0-.2.1-.4.4-.4.2-.7-.2-1.2-.2-1.7l.4-.4-.2-.4a1 1 0 0 1-.6 0c-.2 0-.3.2-.3.4l.3.2h.2v.1l.1.1-.4.5v.6l.2.2.2.2-.1.3c-.1.2-.2 0-.3 0l.1.3h.2ZM2 4.8h-.2.1Zm13.7 9c0 .1.2.4.5.3l-.2-.4.2-.2V13c0 .4-.2.6-.5.7Zm-11 3.9v-.6L5 17l-.2-.1a.7.7 0 0 1-.5-.6c-.2.1-.3.3-.4.6-.5.2-.1.6-.1 1 .2-.2.4-.3.8 0ZM4 15Zm.6-4.5-.2.2.2-.2Z"/><path d="M1 .4h.6l.6.2h.4c.1.1.3.2.4 0l.2-.1c.4 0 .7 0 1 .3v.3l.2.4-.3-.1-.2.5.4.1c.5.1.7.4.8 1h-.4l-.4.2.3.2.2-.1.8-.3c-.1.4-.2.5-.1.9l.2.4h.6V4c-.2-.3-.3-.4 0-.7.2-.3.3-.6.1-1 .2-.1.4-.2.3-.5.2.1.4.3.7.1l.1.3v-.1l.8-.1h.5c-.1.4-.3.7 0 1l-.6.2C8.2 3 8 3 8 3v.4c.1.3 0 .4-.4.5l.2.4h-.1c-.1.2-.2.4 0 .7l-.5.1c-.1.3-.3.6-.5.7V6l-.4.4c0-.2 0-.5-.3-.5l-.3.7V6l.2-.5V5H6a.6.6 0 0 0-.4-.2l-.3-.1-.2.2c-.1.2-.4.1-.6 0h-.3l-.1.2.2.2-.1.2-.6.1-.2-.1-.1.1v.7c0 .1.3.2.4 0 .2 0 .5-.2.4-.5 0-.1 0-.2.3-.2 0 .3.1.4.3.6V6l.2-.4c.1-.1.3-.1.4 0 .3.3.4 1 .2 1.4h-.1l-.2.2c0-.2-.1-.3-.2-.3-.2-.1-.2-.2-.3-.4v.1c-.3.2-.2.5-.2.7l.1.1.5-.1.2.3h.5c0 .1.1 0 .2 0 .3.6.6.7 1 .6l.2.2v.5l-.8-.2c-.3-.1-.6-.1-.8.1l-.2.2c-.3 0-.5.2-.6.4L4.5 9l-.9-.8v.2q.2.3 0 .7c-.3 0-.5-.2-.6-.5-.2 0-.3.2-.2.4h-.1l-.1.2v.1c.1.4.2.8.7 1l.2.2.3.5.5-.3c-.5 0-.6-.5-.8-.8l.4-.4v-.4h.2c.3.2.6.4.7.7v.5c.1.2.3.3.5.3v-.1l.7.1h.2V10l.2-.6h.1v-.6c.4 0 .6.2.8.4l.8.7v.5h.6l.7-.1c0 .4.3.5.4.7l-.2.1c-.3.2-.5.3-.5.7l-.1.8v.2l.1.4c.2 0 .3-.1.3-.3 0-.2.2-.4.5-.4.3.5.5 1 .5 1.5h-.2l-.1-.2-.1-.1c-.3 0-.4.2-.5.4-.1.3-.2.3-.5.3-.3-.2-.6 0-.8.1l-.2.1v-.4l-.5-.3c.5-.3.4-.6.2-.9l.3-.5.4-.3-.1-.6c-.2-.2-.4-.2-.6 0l-.7.1c-.5 0-.8.3-1 .7v.1h-.3c-.3 0-.5 0-.8-.2 0 .6-.1 1-.7 1.4.1 0 .2 0 .3-.2h.1c.4.2.4.2.7 0l-.2-.4.4-.2c0 .5 0 .6.4.5 0 0-.1-.2.1-.3v.1h.5c.3 0 .4-.2.5-.4.2 0 .5 0 .6.2l-.3.2c.2.4.3.7 0 1 .1.3.3.4.5.4l.6.3-.4.2h-.2c-.2-.2-.3-.2-.3 0s-.1.3-.3.3l-.5.1c0-.1-.2-.2 0-.5H7c.3-.2 0-.4 0-.6-.2-.2-.5-.1-.6-.5h-.1v-.1l-.3-.1-.2.4.5.2c0 .2-.2.4 0 .7l-.3.4c-.2 0-.3-.3-.6-.1-.1.2.2.3.2.5l.1.5c.4-.3.9-.4 1.3 0l.3.1.1.1.6-.2c.2-.2.2-.5.2-.8l.3.1v-1c.6 0 1 .3 1 .9.6-.2.7.3 1 .4-.3.4-.6.3-1 .4l-.1.2-.3-.1v-.2l.2-.2v-.1l-.5.3.3.4c.3 0 .4.3.6.3h.1c.1-.4.2-.4.5-.4.3-.2.3-.3.3-.7l-.2-.1c.2-.3.3-.2.5-.2v.1l.4-.1v.2c.2 0 .2.2.1.4l.7.7-.2.1.1.2.4-.1v-.2l.3-.1c.3 0 .6 0 .7-.4h.2c.2 0 .3-.3.4-.5v-.5h.5c.2.4.4.6.8.6v-.2l.3-.7a1 1 0 0 0-.5-.2l.6-.4-.2-.6h-.1l-.6.1v.5c-.2.2-.4 0-.6.2 0-.2-.2-.4-.4-.5.1-.3.2 0 .4 0l.2-.3c-.3-.1-.4-.3-.5-.6h-.3v-.1c-.2-.1-.4 0-.7.2l.3.5c-.1.1-.3.1-.4 0l-.6.1c-.2.2-.5.2-.7 0-.3-.2-.5-.2-.8 0v-.5l-.3-.2V13h.3c0-.3-.2-.5 0-.9l.2.1.4.7c.1.2 0 .3-.1.4H11c0 .1 0 .2.2.2s.5.1.8 0l-.1-.3-.2-.1.2-.1v-.3c.3-.1.4 0 .5.1l.1.2c.2-.2.4-.4.3-.7-.1-.2-.2-.3-.1-.6v-.2l-.5-.5-.3.2-.7.1v-.7a.3.3 0 0 1 0-.4c-.2 0-.2-.1-.3-.2v-.1c.2-.3-.1-.5 0-.8.2-.3 0-.5 0-.7h-.5c0 .2-.3.1-.4 0L9.7 8c.2-.5.6 0 .9-.3l.3.4c.4 0 .6.3.8.7-.2.3-.3.8-.2 1.2.3-.1.5 0 .6.2l.2.4h.3v.4c0 .4.3.8.7 1 .2 0 .3.1.2.3l.1.2c.2 0 .2.3.4.4 0 0 0 .2.3.3l.1.2h.5l.5-.5c-.2 0-.2-.2-.2-.5.1 0 .4-.1.4-.3l.3-.3c.2 0 .3-.2.2-.4v-.3c-.2-.3-.4-.1-.6 0-.2 0-.3-.1-.2-.4h1c-.3-.3-.6-.5-.4-.8h.6c.2 0 .3-.4.6-.3l-.4.6h.4l-.4.6h-.4l.1.3h.2c.2 0 .2.2.2.3l1.1-.2c.2 0 .3-.2.2-.4l-.3-.6.3-.2c.2 0 .4 0 .5-.2h.4v-.2c0-.5.3-.7.8-.8h.2V9l.2-.5v-.1l.5.5c.2-.3.4-.4.7-.4h.7c-.2.4-.8.3-.9.8.3.3.6 0 .9.2l-.3.1h-.5l-.8-.3c-.3.4-.5.7-.1 1.1h1.2l.2.3-.2.3h.4l.2.9-.3.1 1 .5-.8.1c0 .3 0 .4.2.5.3.1.3.3 0 .6v.1c.2.2.3.6.7.6l.5-.7-.2-.2.9-.4.5.7c-.1.1-.3.2-.4.1H24c-.2.3-.4.2-.6 0 0 .2-.1.3 0 .4l.2.2c.3 0 .5 0 .8.3.2.1.4.2.7.1h.2v.5c.6-.1.6-.6.9-.8v.1c0 .4-.1.4.2.5l1 .6.2-.2-.2-.2.4-.2c0 .5.4.8.7 1.1.2.2.3 0 .4.1l.4.4.2-.1v-.2l-.4-.2c.2-.4 0-.7 0-1l-.4-.2h-.2l-.4-.5c.2-.1.4-.3.3-.6-.1-.4-.4-.4-.7-.3 0-.2-.2-.3-.1-.6v-.4l-.9-.3-.5.3v.2c0 .5-.4.8-.3 1.3l-.2.2c-.1-.3-.2-.6-.5-.8 0-.4-.3-.5-.6-.5l-.1-.6-.1-.6c-.4-.1-.3-.5-.6-.6l.5-.4c.1-.1.1-.4.4-.5v.6c.3 0 .5 0 .6.3.1.3.4.4.7.4.2 0 .3-.1.3-.3v-.5c0-.2-.3-.2-.2-.5 0-.2.2-.2.4-.4.4-.4.6-1 1-1.5l-.4-.4c-.3-.3-.3-.3 0-.7v-.2c-.1-.3-.2-.5.1-.8l.1-.4-.5.1-.5.2-.1 1h-.6l.2-.4q-.4 0-.4-.3l.3-.3-.1-.9c.3.2.6.2 1 .1.3 0 .4-.3.6-.6l.5.1.4-.1c.2-.4.4-.7.2-1l-.5-.3a1 1 0 0 0-.4-.1c-.3 0-.5.2-.6.4l-.3-.1q-.4.3-.8.2c.2-.2.4-.3.4-.5 0-.3.4-.3.5-.4v-.6c.3-.3.3-.6.3-1h.5c.2.4.4.6.2 1 0 .6.3 1 .9 1h.6c.1 0 .2.1.2.3q-.6.2-.5.8l.6.5h-.2l-.5-.2-.4.2-.2.2c-.3.2-.4.6-.1 1l.6.4c-.3.3-.4.7-.1 1-.3.4-.3.4-.2.9v.2c-.2.3-.1.5 0 .8 0 .5.8.7 1.1.4l.4-.2.5-.1.2.1h.2v-.5l.2-.4c0-.2 0-.4-.2-.6l-.5-.7c-.3 0-.4.6-.8.2l.2-.3v-.3l-.2-.4c-.2-.3-.2-.3 0-.7.1-.2.3-.4.2-.7h.6c0 .3.3.6.6.8.2.1.4.2.7 0h.3l.5-.2v-.4a5 5 0 0 0-.2-.8c0-.3-.3-.2-.5-.2l.1-.5h-.2c.2-.8 0-1-.7-1l-.1-.4c-.3 0-.4-.3-.6-.5l-.2-.7c0-.4-.3-.6-.6-.7l-1.1.5c-.4-.4-.4-.5 0-.8l.2-.4V0H28l-.1.3a.5.5 0 0 1-.4-.3H23l.3.2-.3.4h-.3L23 0h-2.4v.3l-.2-.3H9.6l.1.7h-.5L8.8.2l-.2.2c-.2 0-.2 0-.2-.2L8 0s-.2.2 0 .4v.1l.2.4h-.9c0-.3.1-.8-.4-1H4.4l-.1.3h-.1V0h-.7l-.4.3A.7.7 0 0 1 3 0H1.2L1 .3Zm13 14.4h.2v.2l-.3.1.1-.3Zm-.4-.7q0 .3-.3.4c0-.2.1-.3.3-.3Zm-.7.6c.4 0 .7.2.9.5l-.6.6-.4-.5.1-.6Zm.2 1 .2.5q-.5 0-.6-.4h.4Zm-.8.5v.2l-.2-.2c0-.1.1 0 .2 0ZM11 15h.2c0-.2-.1-.2-.2-.3l.4-.1.2-.2c.3.6.3.7 0 1l-.5-.2-.2.4-.1-.2.2-.4Zm-.5 0-.3-.4.2-.3.3.4-.2.3Zm2-3v.2-.1Zm-1.1.3v.2l-.1-.2h.1Zm-.8-3.1h.3v.5l-.3.2c-.2-.3-.2-.5 0-.7Zm14.2 1c-.2-.1-.2-.3-.1-.5.1.1.3.2.1.4Zm-.5-.8c-.2 0-.5 0-.8-.2l.3-.2c.2.2.4 0 .5-.2l.8.6c-.3.1-.5.1-.8 0ZM23.5 4h.4l.3-.2c0-.3.3-.4.5-.6l.5.6c0 .3-.2.6.2.8-.2.2-.4.4-.2.7-.4.2-.7.4-1.2.3 0 0-.2 0-.2-.2 0-.3-.3-.4-.4-.5l.1-.9Zm.2 2.1q-.3.2-.5-.2c.2 0 .4 0 .5.2Zm0 1.5c-.2.3-.3.4-.5.4 0-.2.2-.2.4-.4Zm-.1 5.4.2-.5c.1.5.1.5-.2.6l-.3.2c-.2-.1-.4-.2-.3-.5.2-.2.3.2.6.2Zm-.9-7.3h.3c0 .3-.2.4-.3.6v-.6Zm.1 1.3.2.1c0 .2-.1.2-.3.3V7h.1Zm-.3 2.6c.4 0 .1.5.4.7-.2.2-.3.5-.7.4 0-.2.2-.5-.1-.6-.1 0-.1-.2 0-.2.3 0 .3-.2.4-.3Zm-7.1-.7.1-.3h.1c0 .2 0 .3-.2.3Zm6.3-4.2-.3-.4c-.2 0-.4 0-.5.3V5h-.5l-.3-.7.5.1c.2-.3 0-.5-.2-.8q-.3-.2-.2-.6l.8.3c.3 0 .3 0 .3.4v.4h.6l-.1.5Zm-.5-4h.2c.2.2.2.4 0 .5l-.3-.2V.7Zm-1.4 0c.3 0 .5 0 .6.3 0 0 .2.1.2 0 .3 0 .4.3.6.5l.2-.3c.1.2.2.4 0 .7v.4l-.5.2c0-.3.2-.5.1-.7-.3 0-.5-.2-.6-.5H20l-.4-.1.3-.5Zm-1.2.6h.1l.1.4h-.3l.1-.4Zm-.2 3.4c.3-.1.5-.4.9-.3v-.2c.2 0 .3 0 .4.2l-.4.3c-.6 0-.7 0-.7.6h-.4c0-.2 0-.4.2-.6Zm-1.5-1c.3 0 .5.2.7.3-.2.3-.5.1-.9 0l.2-.3Zm-1 3.3-.1-.4-.3-.2c.2 0 .3-.2.5-.3l-.5-1c.2-.3.4 0 .6-.1l.5-.3.7.2-.1.2h-.5c-.2.5-.2.6.2 1l.2.2c.1.3.3.3.5.2l.3-.2c0 .4.6.5.5 1l-.1.3h.1c.5 0 1 0 1.4-.3-.2.4-.6.7-1 1h-.2c-.3-.1-.5 0-.7.2-.1-.1-.2-.3 0-.4l.1-.4v-.2c.3-.2.1-.4 0-.5h-.4c-.2 0-.4 0-.4.4l-.2.3h-.9l-.2-.2V8c0 .2-.2 0-.3 0-.1-.1-.2-.2-.1-.4l-.1-.3c0-.2.3-.2.5-.2Zm-1.2 4.7c.5-.2.6-.1.6.4H15c0 .2 0 .3-.5.5l-.3-.3c.1-.2.3 0 .4 0v-.1l.2-.5Zm-1-8.3.2.5-.5-.1.3-.4Zm-.3 4.4c.1.2.3.3.5.3.4 0 .6.4.6.9-.2 0-.4 0-.4-.2a2 2 0 0 0-1-.5v-.6l.3.1Zm-.4-7c.2 0 .2.2.1.3-.4.2-.6 0-.9-.3.3-.2.6-.1.8 0ZM11.7 2l.3.2-.1.6-.4-.2c-.1-.1 0-.3.2-.6Zm-.5 2.6c.2 0 .3.2.5.1l-.3-1.3.7-.1c.2.1.4.3.7.2l.2.2-.4 1.1-.3.1c-.4.1-.7.3-1 0H11c0-.3 0-.4.2-.3Zm-2.4.6h-.2V5h.2v.2Zm.1.8h.5v.5H9V6Zm.3 4c0-.1-.2-.3 0-.6l.3.7h-.3Zm.8 2.4-.2-.3c0-.1 0-.3.2-.3 0 0 .2.1.2.3l-.2.3Zm.2-.8q-.3-.2-.2-.4l.2.4ZM10 9.9q-.2.1-.4-.1h.4ZM9 1l.1.4.3.3.7.7-.2.2c-.2-.5-.5-.7-1-.5q0-.5-.4-.7l.6-.4ZM6.2 2.4c0 .2 0 .3-.2.3h-.4c-.2-.3 0-.5.1-.7.4.1.5.2.5.4Zm-.6-.8V2c-.3-.1 0-.2 0-.3ZM5.7 3c-.2 0-.3 0-.4-.2.2 0 .3 0 .4.2Z"/><path d="m16.3 15.6-.6.2.6-.1v-.1ZM12 17.1h-.2c-.2 0-.2.3-.1.6h.2l.1-.6Zm.2.9v.2h.3c.4.1 0 .3 0 .4l.4.6c.1.2.3.4.6.4h.2l-.4.6h.2c.3.1.7 0 1-.4l-.5-.2v-.2l-.5-.4c0-.1-.1-.2-.3-.2l-.2-.1.1-.2.2-.2v-.1s0-.2.2-.3l-.3-.2c-.2.3-.5.5-1 .2Zm11.5-3.5ZM15.9 7zM.2 2.1 0 1.8V2h.2ZM.2.6V0H0v.9L.2.6ZM18.5 18l-.4-.3c0 .3.3.6.8.6l-.4-.3Zm2.3-3.5Z"/><path d="m17.2 14.6.3.1c.4-.1.7.3 1.1.1l.3-.7.2.3c-.5.5-.5.7 0 1.2 0 0 .3-.2.4-.1h.5v.1h.4c0-.2.1-.3.2-.2.1 0 .2 0 .3.2v.5l-.5.4v.8c0 .1-.1.2-.3.2V17c-.1-.3-.3-.6-.6-.7H19l-.1.4c-.4-.2-.3-.5-.3-.8h-.4v-.1l-.6-.2c0 .1-.1.2-.3.2h-.2v.4l-.5-.2h-.1l-.1-.1-.2.2h.1c.4 0 .5.3.7.5-.2.3-.5.4-.8.2h-.1c-.2 0-.4 0-.5.2q.3.4.6.3l.2.3v.1c.2.2.4.2.8 0l.3.3h.3v-.2c0-.2-.2-.3-.3-.5h.2l.2-.6c.5 0 .6.2.6.8.6-.2.8-.2 1 .2v-.3l.6.1h.1l-.1.4c-.1 0-.3 0-.4.2-.2.1-.3.3-.2.5h.6c0 .2.3.4.5.4.2.1.4 0 .6-.2.2-.2.5-.2.7-.3v.4l.2.1h.2c.2.2.5.3.6.6 0 .1 0 .2-.2.2a1 1 0 0 0-.8.8h-.5l-.1-.6c-.5-.2-1.1-.1-1.5-.7l-.3-.6c-.3-.1-.5 0-.8 0l.4.5-.3.3h.3c0 .2-.1.2-.2.3-.1.2-.3.4-.2.6v.7c.2.1.4.2.6 0 .2 0 .5-.1.7-.4l.3-.1.3-.3.5.7c-.3.1-.5.4-.8.2.5.3.9.2 1.2-.2l.3-.2.3.3.1.2c.1.2.2.2.4.2.4-.1.6-.4.8-.7v-.2c-.1-.2 0-.3.1-.4l.3-.3c0-.2.2-.3.4-.4.2-.1.3-.3.3-.5l.2.3c0 .4.4.4.7.5.2-.3.2-.5.1-.8 0-.3 0-.6-.3-.7l-.5-.2-.1-.3c-.2-.4-.4-.5-.8-.4h-.5c.3-.2.2-.5.3-.7-.3-.3-.5 0-.8 0-.2 0-.3-.2-.5-.3-.2-.2-.3-.2-.5 0l.1-.7c-.3-.3-.5-.5-.8-.6-.2-.1-.4-.3-.3-.6l-.2-.4.3-.6h.3l.3-1-.4-.3.3-.6-.4-.4c-.2-.1-.2-.3-.3-.4l-.5.1-.7.5-.2.2c-.2 0-.3-.1-.2-.3v-.1l-.5-.2-.4.3c-.2.4-.3.8.2 1l.2.2h-.3l-.3-.2c-.3 0-.4-.1-.5-.4v-.1l-.2-.1-.3.2-.5-.3c-.3.3-.1.7-.3 1l.7.5c-.4.2-.6.4-.5.7 0 .3.2.6.5.7h.3Zm3.4 3.8c-.2-.3-.3-.4-.2-.5h.4l-.2.5ZM19.1 21l-.2-.3h.2v.3Zm5.5-2.4c.2 0 .2.2.2.3l-.3.1.1-.4Zm-2.2-1v.5c.2.2.3.3.1.5l-.3-.2-.3.1c.2-.2.3-.5.3-.8l.2-.1Zm-1-.2h.6c.2.4.1.4-.3.8l-.6-.4.3-.4ZM20 14.2c.1.3.1.6-.2.9-.2-.5-.2-.7.2-1Zm-2.2-1.5h.4v.2H18l-.4.2.2-.4Zm-.5 9.8c.3.1.5.3.6.5l.4-.1v.2c-.2.3-.1.5.2.6h.3c0-.3 0-.3.5-.3l-.1.4h.8c0-.4.2-.5.4-.6-.3 0-.2-.3-.3-.5-.4 0-.7-.3-.8-.7 0-.2-.2-.3-.5-.2h-.2c-.3-.2-.5-.4-.4-.7-.6-.4-.7-.4-1.2 0 0 .3 0 .5.2.7l.5.2-.4.5Zm2.8.4v.2L20 23l.1-.1Zm12-14.1c0 .2 0 .4.2.5h.3c.4-.2.5-.1.4.3l-.4.2c.3.6.7.6 1.2.5.2-.5-.4-.5-.6-1l.6.1c.4-.3.5-.8.4-1.3 0-.3-.1-.6-.5-.6l-.3-.1c-.3-.3-.7-.3-1 0-.4.2-.3.6-.3 1 0 0 .1.2 0 .4Zm4.8-5.3c0 .7.7 1.2 1.3 1 .3 0 .5-.4.9-.6v-.7c-.2-.4-.3-.9-.8-1-.3 0-.5 0-.7.2-.2.1-.4.2-.7.1-.2 0-.3.1-.3.3l.1.2.2.5ZM2.8 24.4l-.2.2h.2c.2 0 .3.2.5.3.1-.3.3-.3.6-.4v.7c-.3 0-.4-.3-.6-.1l.1.2-.1.4-.2.2v.4l.6.3c.3 0 .4 0 .5-.2l.2-.2c.2-.2.2-.4.1-.6l-.1-.3.4-.3-.6-.8c-.2 0-.3-.2-.6-.4h-.2L3 24l-.3.3Zm.7-10.7v-.1l-.4.3.2.2.2-.3v-.1ZM1 13.6h.4l.2.2-.2.1.4.4.3-.4.3.4.3-.1c0-.3 0-.5-.3-.6l-.2-.2H2V13s0-.2-.2-.2l-.2.4A1 1 0 0 1 1 13l-.2.6Zm.8-.3H2v.3-.3Zm-.8-5 .4-.2-.2-.7c-.1 0-.2 0-.3.2-.2.1-.1.5 0 .8Zm1.1.7.1-.7c-.4 0-.4 0-.4.2V9l-.5.2.1.1h.5v-.1H2l.3-.1h-.2Zm8 8.2c-.4 0-.6.3-.9.4-.1-.2-.4 0-.5-.3l.2-.4h-.1l-.4.3h-.1v.4c.3.2.3.3 0 .4l-.2.1.1.4h.1c.1-.2.3-.4.6-.4 0-.1.2-.2.4-.1l.3.3h.5v.3h.4l.2-.3c-.1-.2-.3-.4-.1-.6.2-.1.2-.3.1-.5a4.2 4.2 0 0 1-.5 0ZM.6 22.8l-.3.1q.2.6.7.6l.3-.7c.1 0 .3 0 .4-.2l.2-.1v-.2h-.3c0 .2-.2.3-.4.2 0-.3-.2-.5-.6-.5-.3 0-.4-.1-.4-.5V21l-.2.1v1.5c.1 0 .3 0 .5-.2l.1.4Zm.4-.3s.1.2 0 .2l-.2.3v-.4s0-.2.2-.1ZM.2 22c.2-.1.3-.1.4 0l-.1.3c-.2 0-.3-.1-.3-.3Zm26.3-3.3-.7-.4c.2.3 0 .5-.1.6l.3.7c.3.2.6.3.7.6.1.3.4.2.7.2.2 0 .3-.2.3-.4l.1-.6v-.5h-.3c-.2.2-.1.4-.5.5l-.5-.7Zm9.9-8.7c.2 0 .4-.1.5-.3L37 9v-.6h-.9c-.5.3-.8.6-.7 1.2v.7h.1c.2-.2.5-.3.8-.3ZM30.5.4l.5.7c.3.2.6.3.9 0 .2-.1.3-.4.5-.7l-.1-.3h-1.8v.3Z"/><path d="M23.6 15.7c-.2 0-.3.2-.5.3l.9.6.6-.1v-.6l.2-.4-.3-.3h-.1l-.2.1c-.3.1-.4 0-.4-.3v-.5a2 2 0 0 0-.5.9l.3.3Zm.1-1.1Zm6.3-1v.5l.5.2c.3 0 .4 0 .6.4l.4-.7c.1-.2 0-.4-.1-.6a.3.3 0 0 0-.4 0c-.2 0-.4 0-.5-.2L30 13c-.2-.1-.3 0-.4.2 0 .3.2.4.3.5ZM7.9 18.7l.3.1c-.1-.2-.2-.2-.4-.3v.2Zm-1.6 1.2V19c-.1.3-.2.5 0 .8Zm1.3-.7H8l-.1-.2-.2.2Zm-1.4 7v.1c.4-.4.4-.7 0-1.2a1 1 0 0 1-.2-.4l-.2.5v.2l.4.2v.6Zm0-2.3h.2v-.2c-.2.1-.5.2-.7.1 0 .2-.2.4 0 .6 0 .2.1.3.3.3l-.1-.3c-.1-.3 0-.5.3-.5Zm17 .1v.2c0 .2.4.5.6.5l.5-.1v-.2l-.1-.2c.2 0 .3.3.5.2l-.1-1.3h-.3l-.3.1c-.2 0-.3.1-.4.3-.1.2 0 .5-.4.6ZM3.7 21.5l.1.2q-.1.3.1.4c.1-.2.1-.5.3-.6l-.4-.1h-.1Zm.3-1.2.2-.3c0-.2-.2-.2-.3-.3h-.2c-.4.3-.4.5 0 .7v.1c.1 0 .3 0 .4-.2Zm26.3-3.9.5-.1c.4 0 .5-.2.6-.4.1-.2 0-.5-.3-.7H31c0-.4-.2-.4-.4-.3-.2 0-.3 0-.5.2l.3.6-.7.4c.3.4.4.4.6.3Zm4.3 12 .5.1c.3-.5.3-1-.1-1.4l-.5-.5-.3 1.2h-.5c-.2.1-.1.3 0 .4.3.2.4 0 .6-.2l.3.4Zm-1-8.8c.3.2.5.4 1 .3v-.3c0-.2 0-.4-.2-.6-.2-.2-.4-.4-.6-.4l-.7-.2-.3.7.1.2c.3 0 .5.2.7.3Zm-31-3.1-.1-.5c-.1 0-.2.1-.2.3l.3.2ZM28.7 11l-.5-.2-.5.1v-.4l-.3-.4-.2.5-.3.6.4.5.2.2c.3 0 .5 0 .7-.3l.2-.2c.2-.1.3-.3.3-.4ZM.3 11Zm.2-.6v-.1l-.5-.1v.1h.5Zm40.9 14.1c.2-.3.5-.5.4-1l-.3-.1c-.3-.2-.5-.1-.7 0-.3.1-.6.7-.5 1.1h1.1Zm-11.8-4c-.3 0-.5 0-.5.3l-.3.6c-.1.3-.2.5 0 .9l.5-1 .8.2c.2-.2.5-.4.5-.7-.3-.3-.6-.4-1-.3Zm-4.2 1.3c.3-.4.7-.2 1-.4l-.3-.5-.3-.2c-.3 0-.4-.2-.6-.5h-.1l-.1.2-.3.6v.3l.8.5Zm5.6-2c-.1 0-.2.1-.2.3 0 .2 0 .5.3.7l.3-.2c0 .3 0 .5.3.6.3 0 .5-.2.6-.5h.3c.1-.2 0-.3 0-.4l-.4-.4-.8.4-.3-.5Zm-3.6.9c-.3-.3-.6-.2-.7.1l-.1.9.6.3.6-.5.1-.1c-.1-.3.2-.3.2-.6l-.7-.1Zm5-13.7c.4 0 .7-.3 1.1 0l.1-.8c0-.4 0-.5-.5-.7l-.2.3-.4.2-.1.1c0 .3-.2.6 0 .8Zm0-.9Zm-17 11.3-.4-.2v-.6c-.4 0-.9 0-1.2.3l.1.6c.1.2.2.3.5.4l1-.3v-.2Zm-1.3-.2s-.1-.2 0-.2c0 0 0-.2.2-.2l.3.1c-.2.4-.2.4-.4.3ZM1.9 25.8l-.3-.2-.5.1-.4.2c-.7.1-.8.3-.5 1 .6 0 .7-.1.8-.8.5.3.7.3.9 0v-.3Zm8.1-3-.3.6c0 .3 0 .6.3.7h.8l-.3-.3q-.2-.3 0-.6l.5.3c0-.2-.1-.3-.4-.4l-.7-.3Zm-2.3 7.7c-.2 0-.3-.2-.5-.3l-.1.6v.2l1 .4c0-.4 0-.8-.4-1Zm-.4.5.4-.1q-.1.2-.4.1Zm16.4-9.3.1.6.7.3.2-.6c0-.1 0-.3-.2-.4l-.4-.5c0-.3-.3-.3-.6-.2v.5h.4c0 .2-.2.2-.2.3Zm4.9 2.9c0 .4.2.5.5.3l.7-.4.4-.3-.4-.2c-.1.1-.3 0-.4 0l-.4-.5q-.3.3 0 .8h-.2l-.2.1v.2ZM.7 12.5H1c.3-.2.4-.4.4-.6l-.2-.1H.9s-.2.1-.1.2l-.2.4v.3l.1-.2Zm-.5.1v-.3l-.2-.2v.2l.1.3ZM18 20c-.2 0-.2-.2-.2-.4-.2-.2-.4-.4-.8-.2 0 .1-.2 0-.4 0v.4l.4.3h.1c.3.2.6.3.8.2.2 0 .2-.1.3-.3H18Zm13.4-8.7V11l-.1-.1c-.4-.3-.5-.3-1 0h-.2c.3.9 1 1 1.3.3ZM26 18c.2-.2.3-.2.6-.2.2 0 .4 0 .5-.3-.1-.2-.3-.2-.4 0-.2 0-.4 0-.5-.2l.3-.2c.1 0 .2-.1 0-.3h-.3l-.5.6v.2l.3.4Zm-2.5 9.5c0 .5.1.6.7.6l.4-1-.6-.1-.5.5ZM0 25.4v.3-.3Zm5.9-6v-.3h-.7l-.1.3-.1.4c.2 0 .3.1.4 0 .2 0 .3-.1.5-.4Zm24.4 6.7-.3-.4c0-.3-.3-.4-.6-.5-.4.4 0 .7.1 1 .3-.2.6.3.8 0Zm-1.9-8.3.4-.5c-.4-.6-.4-.6-.8-.6 0 .2-.2.5-.1.7 0 .1.2.4.4.4Zm-15 6.2.3-.6a.4.4 0 0 1-.4-.3h-.1c-.3 0-.4.2-.4.4v.5h.7Zm-4.6-2.2-.4-.3.2-.2.2-.1-.4.1v.4c-.1.2 0 .4.1.3h.8l-.5-.2ZM31 28c-.8.7-.8 1-.4 1.4.5-.3.6-.8.4-1.3Zm-4.2-5.4-.6.3c.1.7.2.7.5.9.2-.4.6-.8 0-1.3ZM25.1 16c-.3.3-.3.3-.2.9 0 0-.2 0-.3.2.4.1.7.3 1 0l-.5-1Zm9.6-.3c.1 0 .3.1.4 0 .2-.1.2-.4 0-.5a.6.6 0 0 0-.4-.4l-.4.4c0 .2.1.4.4.5Zm-9.6-4c-.2-.1-.4 0-.4.3l.3.4c.2.2.5 0 .8 0 0-.4-.4-.6-.7-.7Zm10.4 5.5.4-.5c-.2-.3-.3-.7-.7-.7l-.1.6c.1.2.2.5.4.6ZM28.6 28c.2 0 .5 0 .7-.2.1-.2.1-.3-.1-.6h-.1c-.2 0-.4 0-.5.2-.2.2-.1.5 0 .6ZM5.2 22.4l.2.7c.3 0 .6-.2.8-.5l-.4-.3h-.5l-.1.1Zm1.8-.8h.2v-.3c-.4 0-.2-.4-.3-.5l-.2-.4h-.2l.2.4-.4.2v.3h.2c.2 0 .5 0 .5.3Zm21.4-9.3c0 .3.3.5.6.6h.3l-.2-.4c.1-.1.3-.2.3-.4-.4-.2-.7 0-1 .2ZM1 20c0-.1.1-.2.3-.2v-.5c-.2 0-.2.3-.4.3-.3.1-.3.3-.2.6.1 0 .2 0 .2-.2Zm35.4 4.3.2-.4c-.1-.2-.2-.4-.5-.5l-.3.1c0 .4.2.7.6.8Zm-5.1-.4c-.2-.3-.4-.3-.7-.1-.1.6 0 .7.6.6l.1-.5ZM1.8 30.6l-.1-.1h-.5v.7l.2-.2c0-.3.1-.4.4-.4Zm26-1.7.4-.4c-.4-.4-.4-.4-1 0 0 .3.3.3.6.4Zm-6-15.4-.5.3c-.3 0-.3.2-.4.4h1l-.1-.7ZM2.9 26.7h-.3c-.1 0-.2 0-.2.2l.5-.2Zm-.3-7.4zm-.1-.6-.1-.1h-.1v.5l.3.2.3-.2-.4-.4Zm13.8.6h.3l.1-.5h-.6.1c.2.3.2.4.1.5Zm-8.6 3.4v.2c0 .2.2.3.3.3.2-.1.4-.2.4-.4-.2-.1-.3-.4-.6-.4l-.1.3ZM32.3 25l-.3-.5c-.5.2-.3.6-.3 1 .3 0 .4-.2.6-.4Zm-9.6-9.8H22l-.1.2.3.1c0 .4.3.2.5.2l-.1-.5ZM20 22.1l.2.4c.2 0 .4 0 .6-.3 0-.2-.1-.4-.4-.4-.2 0-.3.2-.3.3ZM2.9 7v.3l.3-.5h.1v-.2c-.3 0-.4.2-.4.4ZM8 25.6l-.4-.4-.2.6v.1c.4.2.5.2.6-.3Zm-5.5-11c0 .2 0 .3.2.4H3a.8.8 0 0 1-.3-.5h-.2Zm31.5 12c.2-.1.3-.3.2-.5h-.5c-.1 0-.2.3-.1.4 0 .1.2.1.4 0ZM2.8 21.8l.3-.2-.1-.3h-.2v.5Zm23.9-6-.4-.2q-.3.5-.2.8c.3 0 .4-.3.6-.6Zm3.6 9.2-.3.4c.1 0 .2.1.2 0l.7-.1V25l-.3-.3-.3.1Zm-4.9-1.2.2-.4c0-.1.2-.3 0-.4 0-.1-.2 0-.4 0 0 .2-.2.6.2.8Zm-22.7 5c.2 0 .4 0 .5.2l.1.1c0-.3 0-.5-.3-.6l-.2.2v-.2h-.2l.1.3Zm25.7-6.4v-.1H28c-.1.2-.3.5-.1.8l.2-.2c.2-.1.3-.3.3-.5Zm-.5.6ZM3.3 15.7v-.1c-.2 0-.3 0-.4.3l.2.1h.2v.1h.4v-.3l-.5-.1Zm8.4 7.3v.3l.4.2.2-.3c-.1-.2-.3-.3-.6-.3Zm-5.9-2.5c.2 0 .2.1.3.2.1-.2.2-.2.4-.3l.1-.3-.1-.1-.7.5Zm28.5 1.2h-.6l.4.7.3-.3-.1-.4ZM32 18.5c0 .2 0 .3.3.3.1-.2.3-.5.1-.8-.3.2-.3.2-.4.5Zm-6.1 8.7c-.4-.4-.5-.4-.7 0q.3.3.7 0Zm6.7-15v.2l.3.2.4-.2-.5-.3h-.2Z"/><path d="M22.1 15.1v.1h.1l-.1-.1zM22 15c0-.2.1-.3.2-.3-.2-.2-.3-.2-.5 0l.4.4-.1-.2Zm5.7 11h-.3c-.1.6 0 .7.4.5l-.1-.5ZM6.3 30h.1c0-.2 0-.3-.2-.4v.3H6l.1.2h.2Zm20-.2q.4-.3.3-.8c-.4.3-.5.4-.3.8ZM3 17.8l.1-.2-.2-.1-.4.2v.1l.3-.1.2.1Zm2.3 4.3V22q-.4-.1-.5.3h.5Zm26.5.3c-.4 0-.1.6-.4.7l.2.2c0-.4.5-.5.2-1Zm1.2-4.5.2-.3c.1-.2.1-.2-.2-.4v.3h-.3c0 .2 0 .3.2.3ZM9.3 20h.2v-.3c-.2-.2-.3-.3-.6 0l.3.3ZM27 22h-.4c.2.3.3.5.6.5 0-.2 0-.3-.2-.4Zm6.2-5c.3-.2.3-.3 0-.6q-.3.3 0 .6ZM12 21.4c-.1 0-.2.1-.2.3h.8c-.2-.2-.4-.2-.6-.2ZM4.3 7.5v-.2l-.2-.1c-.2 0-.2.1 0 .5l.2-.2Zm-.7 15.4.1-.1v-.2l-.1.3Zm26.7-3.3c0-.2-.2-.3-.4-.1 0 0-.2.2 0 .3l.1.1.3-.3Zm-6.7 3.2.5-.2a16 16 0 0 1-.3-.3h-.3l.1.5Zm.2-.5zm-2.6-11.6c0 .2-.1.4.1.5.3-.3.3-.4 0-.5ZM1.5 24Zm19.3-9.4Zm.6 0-.2-.1-.2-.1-.1.2.3.2c.1 0 .2 0 .3-.2ZM25 25.7v.2c.2 0 .3 0 .4-.3-.2-.1-.4 0-.4 0ZM32.9 15v-.3c-.5.1-.5.2-.4.3 0 .3.2 0 .4 0Zm-3.2 3.2q0-.4-.3-.4 0 .3.3.4ZM5 8.4c.2 0 .1-.2 0-.3h-.2v.3h.3ZM1.6 29.1v.1h.2V29h-.2Zm23.8-3.9c.2 0 .4 0 .5-.3q-.4 0-.5.3Zm.4-12.1q.1-.3-.3-.4c0 .3.2.3.3.4ZM8.9 20.9c0-.3-.1-.3-.3-.3v.2h.3ZM5.6 8.2c.2 0 .2-.1.2-.3l-.4.1.2.2Zm26.6 4.2c0-.2 0-.3-.3-.4 0 .4 0 .4.3.4ZM1.8 19.6h-.2v.1h.2ZM19 11h.3l.1-.4-.3.1v.2Zm4.4 11.2V22H23l.1.3h.3Zm3.9 3.8q.2-.3-.2-.5c-.1.2 0 .3.2.4Zm3.5.2h.3v-.3h-.3v.3Zm-2.6-13.6a8 8 0 0 1-.2-.5c-.2.4-.2.4.2.5Zm1.9-2c-.3-.2-.3 0-.3.1l.1.2.2-.3Zm-5.7 14.6q-.1.3.2.5c0-.2 0-.4-.2-.5Zm-14.2-3.6h.5q-.2-.2-.5 0Zm1.6.7q.2 0 .3-.3-.3 0-.3.3Zm14.7 3.9c-.2 0-.3.2-.2.5.2-.2.3-.3.2-.5Zm2.3-7.2c.3 0 .3-.2.4-.4 0 .1-.4 0-.4.3Zm.4 4.2q.2-.2 0-.3v.3Zm-3.4-2.8h.2V20l-.1.3ZM5.5 28.1V28c-.1 0-.2 0-.2.2h.2Zm23-4c0-.2 0-.3-.2-.3l-.1.1.1.2h.2Zm1.1-.4.4-.1c-.2-.2-.3-.2-.4.1Zm4.2-.8.2.2.1-.4c-.2 0-.2 0-.3.2Zm-27.4.5c0-.1 0-.2-.2-.3q0 .3.2.3Zm21 4.1.1-.3v-.1c-.2 0-.2.1-.1.4Zm6.3 2.2c.2 0 .3.2.5 0-.2-.2-.3-.2-.5 0ZM28 25v-.2l-.3.2h.4ZM9.7 13.5v-.4c-.2 0-.2.2-.1.4h.1Zm18.9 4.6c.3.1.3 0 .4-.2h-.2l-.2.2Zm-25-.3v-.3c-.3.1-.2.3-.2.4l.2-.1Zm16.7 3.8c-.2 0-.3 0-.3.2.2 0 .3 0 .3-.2ZM9.9 20.3v-.2h-.2v.1l.2.1ZM9 22.4v-.1h-.2v.2Zm21.4-.3c-.1 0-.2 0-.3.2q.2 0 .3-.2ZM19.7 10.2v.1h.1v-.1h-.1ZM9.4 20.5l-.2.3.2-.3ZM21 22.1l.2.2s0-.3-.2-.2Zm13.5-10.3-.1-.1v.2h.1ZM5.4 23.5l.1.1v-.1l-.1-.2v.2Zm22.9 2.7h-.2v.2h.2v-.2Zm7.8-5.8v.2-.2Zm-7.4 6.1v.1h.2l-.2-.1ZM5.3 21.2Zm19.5 5.4v-.3c-.1 0-.2.1 0 .3Zm3.1-3.5zm-.1.3c.1 0 .2-.1 0-.3v.3Zm-20.5.7v-.2H7l.2.2Zm-5-6.1h-.2l.2.2V18ZM15.9 7zm.7-.2-.2-.4c-.2 0-.3.1-.4.3l-.1.3h.2c.2.2.4 0 .5-.2Zm-3.3 6 .2-.2c-.2 0-.3 0-.2.2Zm-.9.6.3.2-.2-.2Zm11.9-9.2h-.1l-.2.2h.3V4Zm.3.8-.1.3h.1V5Zm-12.2-.8.2-.2-.2-.2h-.7c.2.4.4.4.7.4ZM21.6 20v-.2h-.2v.2h.2ZM18 57l-.4-.4c-.1-.2-.3-.2-.6-.1.3-.3.4-.5.3-.8-.5-.1-.7-.7-1.2-.6l-.2.3-.5-.2-.3.2c-.2-.3-.5-.4-.8-.3-.3.1-.4 0-.5-.3.4-.4.6-.9.7-1.4l.5-.4v.4c.2.4.4.6.8.5h.5v-.6c0-.3 0-.7-.3-1l-.6.2c-.1 0-.2.3-.5.3l.3-.5h-.7c.1-.3-.2-.4-.3-.6l.3-.6c-.2-.2-.3-.5-.6-.6-.3-.1-.3 0-.5.3l-.2-.1-.3.2-.6-.4v-.8h.3V49c0-.5 0-.5.4-.6h.2c.2-.2.3-.6.2-.8-.2-.2-.4-.2-.7-.1-.2.1-.3.3-.3.5h-1.1c0-.2 0-.5.3-.5l-.4-.8h-.4c-.3 0-.5.3-.4.6 0 .3.2.7.6.9.2 0 .3.3.3.6-.2 0-.4 0-.5-.2-.7.6-.3 1.2-.3 1.8v.1h-.2c-.3.3-.3.4-.2.8 0 .3.3.4.7.3l.4-.3.2-.4.6.3c0 .4 0 .5.4.5h.4v.5h.4c-.1.3-.3.4-.5.3-.2-.2-.6-.2-.8-.3l-.2.1c0 .3-.2.6-.5.7l-.2.2v.1l3.7 3.1.2-.1v.1h-.1l1.4 1.2h2.6c0-.2-.2-.4-.4-.6H18Zm-5-5.3v-.2c.3 0 .4.2.5.3h-.6Zm11.7 4.9c-.2.2-.1.4 0 .6.1.2.3 0 .4 0l.2.1-.4.2-.3.1h1.1c.2-.8-.2-1-1-1Zm-1 .5c-.2-.2-.3-.5-.7-.4 0-.2-.1-.4-.3-.5-.2-.2-.3 0-.4.2-.2 0-.3 0-.4-.2l-.3-.3-.3.2-.3.3c-.2.4-.2.4 0 .8.2.1.2.3.2.4h2.5V57Zm-1.3 0c-.1 0-.2 0-.3-.2h.3v.2ZM.8 55.3l.6-.4-.7-1.1c.2-.2.4 0 .5 0 .2 0 .3-.1.2-.3H1c-.4-.2-.7 0-1 .3v1.4c.3-.1.6 0 .8 0Zm-.6-.7c.3-.1.5-.1.8.1-.2.2-.5.2-.7.3l-.2-.2.1-.2ZM1.3 48v-.1Zm3.4-11 .2.2v.1H5c0-.4 0-.5-.3-.5h-.2v.2h.2Zm2.1 13.5c.3 0 .6.1.7.5.2 0 .3-.2.2-.3L7 50l-.2.5ZM1.2 40.3l.2.6-.2.2v.2H1c.2.2.4.4.4.6h.4v.2c0 .2 0 .4-.2.6l-.2.6v.5H2c-.4.5-.3.8 0 1l-.1.5c0 .2-.2.3-.3.4l.8.6.1-.1.6-.4c.4-.2.6-.5.7-1h.5v.1c.2.2.4.4.2.7-.1.2 0 .3.1.4h.7c.2-.1.3-.2.2-.4l-.1-.1.3-.8c.1-.3 0-.5-.1-.7l-.2-.1.3-.2c0-.2-.2-.4-.3-.5-.2-.2-.4-.1-.5.1v.2c-.5-.2-.5-.2-.7 0 0 .2.2.3.3.4l-.4.3c0-.5-.2-.5-.5-.4 0 .1.2.3 0 .4-.3-.4-.2-.3 0-1.7.4 0 .8.2 1.2 0l-.2-.6H5c0-.6-.3-.7-.7-.9l-.3.3-.2-.2c.5-.2.6-.5.6-1 .5-.4-.2-.7-.1-1.2l.2-.2.2.1.2-.4h-.2c-.3.2-.6 0-.7-.3l-.1-.5v.8c0 .2.1.5-.3.6l.3.2q-.2.1-.4 0c-.4 0-.4.3-.4.6 0 .5.3.7.7.8l-.3.4c-.5-.2-.9 0-1.3.3-.4-.2-.4-.3-.4-.4.1-.3.1-.6.4-.8l-.5-.7-.3.1v.2c.1.4 0 .5-.2.7Zm2 3.2v.5c-.3 0-.5-.2-.7-.3.2-.2.4-.2.6-.2Zm-1-1c.2.2 0 .3-.2.3 0-.2-.3-.3 0-.5l.3.1Zm1.6 6.2.1.4.3.2c.4-.2.7-.2 1 .2.2 0 .3-.1.4 0 .2 0 .3 0 .5-.2l-.4-.3h-.3v-.2l-.3-.3a1 1 0 0 1-.5.2h-.8ZM.6 50.4l-.1-.1c-.2-.2-.5-.4-.4-.7l-.1-.3v1.1h.6Z"/><path d="M.4 45.4c0-.2 0-.3.2-.3s.3.2.3.4c0 .3 0 .6.2.9.1.3 0 .5-.3.8l-.2.2.3.1.2-.4V47c.2-.4.3-.4.6-.3h.7c.2-.2.3-.1.4 0 .4.4.4.7 0 1.2l.8.5c.1-.2 0-.3 0-.4-.3-.1-.3-.3-.2-.5V47l-1-.7h-.5l-.3-.6L0 44.3V46h.1c.2 0 .3-.3.3-.5Zm-.4-.5h.2c0 .1 0 .3-.2.4v-.4Zm.9-1.4-.4.2h.3v-.2Zm-.6.4-.3-.4v.8c0-.3.1-.4.3-.4ZM9 52c.5 0 .6.3.5.7l-.2.6.3.1.3.1c.2.4 0 .6-.3.8l.1.4c-.3.2-.6.2-1 .1 0 .2.1.3.2.3h.7c.2-.1.4-.3.8-.2l.2-.2.6-.4-.4-.5.2-.5-2.2-1.7v.3h.3Z"/><path d="m5.3 48.3.2-.2c.3-.2.4-.4.5-.6l.4.2c.3.2.8.2 1.1.5.2.1.5 0 .5-.2v-1.2c-.2-.3-.4-.7-.9-.7l-.3-.2-.5-.3-.3.4c-.3.2-.3.3 0 .5.1.1.2.2 0 .4-.3-.4-.7-.7-1.2-.4-.3-.3-.6-.5-.8-.3l-.6.5-.1.4 1.8 1.4.2-.2Zm1.5 1.1c0-.2-.3-.2-.5-.1h-.2l.9.7c.1-.2 0-.4-.2-.6ZM4.7 38.8Zm3.8 12V50a.4.4 0 0 0-.6 0c-.1.2-.3.4-.2.7l.5.4.3-.3Zm-.3.4h.2l-.2-.1-.1.2h.1Zm6.5 5.3h.1v-.1ZM.6 57.6h.5-.5Zm8.2-6.1h.3c.3-.1.3-.3.3-.5-.2 0-.4 0-.5.2-.1.1-.2.1-.4 0h-.1l.4.4Zm5.7-.4Zm-8.9 1.6s-.2 0-.3.2c-.1.3-.3.3-.6.2h-.2l.4.3.2.3v.6c-.2 0-.4.2-.5 0-.2 0-.4.2-.5.3.3.2.2.6.3.9 0 .1.2 0 .4 0 .2-.2.4-.4.6-.4l.3-.7-.2-.3c.1-.2 0-.6.3-.8V53s0-.2-.2-.3Zm-2.7-1.4-.6.1.3.5.4-.1c0-.2 0-.3-.2-.5Zm.7 1.3v-.3l-.2.1v.2h.2ZM6.9 57c-.6 0-.6-.6-.8-.9l-.8.3.2.4h.2v.4c-.2.1-.3.2-.4 0 0-.2-.2-.3-.3-.2l-.1.3-.5-.2-.5.1.2.5h2.6c0-.3 0-.5.2-.7Zm7.8.2.3.4c.1-.1.3-.2.2-.3 0-.2 0-.5-.3-.5l-.2.4ZM3 55.3v.3l.9.5c.1 0 .3 0 .3.2 0 .1 0 .2.2.3l.4-.5q-.5 0-.6-.5c-.4.2-.8.2-1.1-.3Z"/><path d="M4.2 55.6h.1v-.1Zm6.4 1.8-.2-.3-.7-.3-.6.1c.2.2.4.4.4.7h1.3a.4.4 0 0 1-.2-.2Zm-9.5-1.7v.6h.4c.2-.2.2-.5 0-.6h-.4Zm7.1-3.8c.1-.1.2-.2 0-.3l-.5.4c-.2.2-.4.3-.6.2h-.5c-.3 0-.5 0-.7-.4l.3-.8-.3-.6v.8c-.4 0-.4-.2-.5-.5l-.3.6h.2c.3.3.5.5.4 1v.3h.6l.4-.1q.4.6.4 1.2l.7-.5c.2-.2.4-.5.8-.6v-.1h-.4c-.2-.3-.2-.3 0-.6Zm5.8 5.5c-.4-.2-.7-.4-.7-.8v-.3l-.8.4-.3-.1-.1.2c-.5 0-.7.2-.7.6v.1l-.2.1H14v-.2Zm17.4-.1-.2-.4a3 3 0 0 0-.3-.5c-.1-.2-.3-.2-.6-.1H30c0-.2.1-.2.2-.2l.3-.3c0-.3.2-.4.4-.5.3-.1.5-.4.5-.7-.3-.3-.7-.3-1 0l-.2-.4-.4.2.2.7c-.3-.3-.6-.3-.9-.3-.2 0-.4 0-.4.3v.4l.3.3c.4 0 .6.2.8.5-.1.4-.5 0-.8.2v.4c.2.1.2.3.2.5v.3h2.5c0-.2-.2-.3-.4-.4Zm-10.1-3.1h-.2c-.4 0-.5-.3-.7-.6.1-.3-.2-.3-.3-.4-.3-.2-.4-.4-.2-.7v-.2c-.4-.4-.6-.3-1 0l-.2.1-.4.3c0 .4 0 .5.4.6h.2c.2.1.2.2 0 .3h-1l-.1.4-.3.3-.1.3c-.2.4.2.9.7.8h.2v.1c-.3.1-.2.3-.1.3h.3c0-.2.2-.3.3-.3l.3-.3c.1-.3.2-.6.1-.9l-.1-.5c.1 0 .3 0 .4-.2.3-.2.5 0 .7.1v.2h-.4l.2.7-.2.8 1 .4c.4.1.7-.2 1-.1.2-.6 0-1.3-.5-1.6Zm2.4-1.7v-.2l-.2-.5c0-.4-.2-.6-.6-.6h-.8l.3-.4c.2-.1.4-.3.4-.5a1 1 0 0 0 0-1c-.3 0-.4-.3-.6-.3-.2 0-.4 0-.5.2 0 .2 0 .3-.2.4-.3.4-.1.7.1 1l.2.5.1.3-.6.4v.5l.1.2c.2.2.2.4 0 .6v.3c.2.3.3.3.6.2h.4c.8.2 1.4 0 1.3-1Zm-6.5-6.9-.1-.5v-.6l.2-.3.1-.4v-.6L17 43h-1l-.8 1.5.2.3-.5.3c-.4.5-.2 1.2.5 1.4.2 0 .4.1.5.3.2.2.4.1.5-.2l.1-.3.6-.7Zm8.4 8.4-.2-.4c0-.1.2-.3.3-.2.2.2.5.1.7 0 .5-.2.6-.3.4-.8 0-.3 0-.6-.4-.6-.2 0-.3-.2-.5-.4-.2 0-.4-.2-.5-.3h-.2l-.1.4c-.3 0-.5.3-.8.4.2.4 0 .7-.3 1 0 .3.1.6.4.8l.4.4c0 .2.3.3.5.2.2-.1.3-.3.2-.6Zm1.2-1.4-.2.4v-.4h.2Zm-12.2-6.4c-.2-.2 0-.6-.3-.8-.2 0-.2-.2-.1-.4v-.3c-.4-.2-.8 0-1.2 0-.5.1-.5.5-.8.9.3 0 .4.2.6.3.1 0 .3.1.3.3 0 .3.2.5.5.5 0 .3-.2.6 0 .8l.9-.1c.2-.3 0-.8.1-1.2ZM2 33c.3 0 .4.2.6.3.1-.3.2-.4.5-.4 0-.2 0-.3.2-.5.3-.3.3-.5 0-.8-.2.1-.5.2-.6.6 0 .2-.2.3-.5.5l-.1-.7c.2 0 .4.2.5 0v-1c0-.1 0-.3-.2-.3l-.6-.2c-.3 0-.4.1-.4.4l-.1.2c-.2.3 0 .5 0 .6l.3.3-.3.3v.2l.8.5Zm-.6-1.3v-.6c.3 0 .5 0 .7.2.3.4.3.5-.1.8l-.6-.4Zm6.9 11.1c0-.3.2-.6 0-.8h-.6c-.2 0-.3-.2-.5-.3H7c-.2.3-.4.5-.8.6-.2 0-.3.2-.3.4v1l.8-.3c.2 0 .3 0 .4-.2l.1-.5h.1l.2.6c.2 0 .4-.2.5-.3l.3-.2ZM31.6 52c0-.3-.2-.4-.4-.5-.4-.4-.7-.5-1.1-.2-.2.1-.2.2-.2.3.1.3 0 .5 0 .8-.2.3-.2.4 0 .6h.2c.2.3.4.3.7.3 0-.3.2-.5.5-.5l.3-.2-.4-.3c.2 0 .3-.2.4-.3Zm-22-5.2-.4-.3c-.2 0-.7.3-.8.5-.2.3 0 .6-.1 1 .1.2.5.1.6.4h.3l.1-.3h.1c.4.2.7.1.8-.2.1-.1 0-.5-.3-.7l-.3-.4ZM.3 40.9v-.2H0v.5l.3.1V41Zm17.3 10.9c.1-.1.3-.2.5-.1.2 0 .4 0 .5-.2 0-.2.2-.4.1-.6a2 2 0 0 0-.4-.6c-.2-.1-.4-.3-.6-.2l-.3.5-.9.6c0 .4.3.5.6.7h.5ZM6.2 34c.3 0 .4 0 .5.4v.3l.2.2.4-.7c-.2-.3 0-.5 0-.8-.3-.4-.7-.3-1.1.2l-.3-.3.2-.2L6 33h-.1l-.5-.2-.2.8-.3.3c-.2.2-.2.2 0 .5.2 0 .3-.1.2-.3 0-.2.1-.2.3-.2.2.2.4.4.8.3Zm8.3 17.1Zm.1.4v.3c.3 0 .4-.3.7-.2l.6-.2c.2.3.2.3.5.3l-.1-.2c-.2-.2-.3-.5-.1-.9v-.5l-.7-.1h-.3a1 1 0 0 0-.6.7v.4c.1.1 0 .3 0 .4Zm12.7 2.4c-.5 0-.6.1-.8.7l-.5-.1-.2.3c-.3 0-.2.3-.3.5 0 .3.2.4.3.6.8 0 .6-.7.8-1.1l.5.2c.6-.4.6-.5.2-1.1ZM11.7 40.6a2 2 0 0 1-.5-.2c-.5-.3-.7-.2-1 .3l.8.8c0 .2.6.3.8.2.2-.2.3-.4.2-.6 0-.2 0-.5-.3-.5ZM1.3 39.1v.1h.2l.2-.2a.7.7 0 0 0-.4-.1v.3Zm-.2-.4.3-.1.2-.1c0-.2 0-.5-.2-.7l-.6.5c.2.1.2.2.3.4Zm-.8-5.3.4.5v-.6a.6.6 0 0 0-.5-.2V33H0v.5s.1-.2.3-.2Zm2.5 3.1zm.9 0c.3-.5.2-.8-.3-1l-.2-.1q0-.4-.2-.4l-.1.6c-.2.3-.2.6 0 1H3l.3-.1q.2.2.1.5l-.2-.1v.2l.5.2c.4-.5.3-.6-.2-.8Zm2.6 4.2.1.2.3-.3.4-.4v-.6c0-.2 0-.4-.3-.4l-.3-.3c-.6.3-.8 1-.4 1.4l.2.4Zm4.7 4.1c.1-.3 0-.7-.4-.8H10c-.1 0-.3.2-.3.4v.8s.1.1.2 0h.6c.1.1.5-.2.6-.4Zm8 5.8c-.2.4 0 .6.2.8.3.1.6.3.8 0l.2-.1c.2-.8 0-1-.6-1.1-.3 0-.6 0-.7.4Zm18.6 6.8-.2.2h1a.8.8 0 0 0-.5-.3h-.3ZM3.7 30.6v.1c.4.4.5.4.8 0l.1-.1c-.3 0-.6.2-1 0Zm17.3 17c-.2.2-.2.4 0 .7.3.3.6.2.9.2.3 0 .5-.3.4-.6v-.4a1 1 0 0 0-.8.1l-.1-.3-.3.1-.1.2ZM8.9 43.2h-.2c-.3 0-.4 0-.4.4 0 .2.2.4.5.4.4 0 .8-.3 1-.7l-.4-.4c-.1.2-.4-.1-.5.3Zm11.7 13.3h-.2l-.5.1c-.4.1-.5.4-.4.7 0 .2 0 .3.2.3h.5l.2-.5c.3-.2.2-.4.2-.6Zm-4-8.5c0 .6 0 .7.3.9.2 0 .5 0 .6-.2.2-.2.2-.6 0-.7-.2-.3-.4-.3-.9 0ZM6 30.8h.3v.3l.3-.3.3.1-.2-.2-.4-.6h-.1l-.6.3.1.3h.2ZM2.6 38v-.5h-.3c-.2.1-.3.3-.4.6v.2c.2-.3.4-.4.7-.3Zm4.7-5.2-.4-.1c.1.3.3.3.8.2v-.1a1 1 0 0 1-.3 0ZM14.8 49c-.2.1-.2.3-.3.6.1.2.4.3.6.2l.4-.5c-.1-.5-.3-.5-.7-.3ZM11 45.2c-.1.1 0 .3.1.5.3.2.6.2.8 0 .1-.3 0-.5-.1-.6-.3-.2-.6-.2-.8 0Zm12.4 11.2c0 .2.2.3.4.4l.3-.1c0-.3.2-.1.4-.2-.4-.7-.7-.8-1.1-.1Zm-.5-1.4-.6.1c0 .4 0 .6.3.9.4-.2.5-.3.3-.7V55ZM1.1 35.4l.6-.3-.2-.3v.1l-.4.5Zm-.6 1.7.3.3H1L.6 37l.2-.1c-.3-.2-.3-.4-.2-.6l-.6.1.1.3c.3 0 .3.3.4.4Zm4.9-9.5-.2.1.5-.5c-.2-.4-.3-.5-.7-.4h.1c.3.2.4.5.3.8Zm2.9 1.3v.3h-.2.3c.4-.2 0-.5 0-.8l-.8.4.1.2c.2-.2.3-.2.5-.1Zm-1.9 8c0-.2 0-.3.2-.5.2-.1.2-.4 0-.6-.3-.2-.4-.2-.6.2v.2c.2.1.3.3.2.6l.2.1Z"/><path d="M21.3 53c0-.2-.1-.4-.3-.5l-.5.3.2.6c.3 0 .5-.1.6-.4ZM8.2 35h-.5c-.3 0-.2.3-.2.5.3.2.5.2.7 0V35Zm-5.6-5.2h-.4l-.2-.1c-.1.2 0 .4.2.4.1 0 .3 0 .4.2H3V30c0-.2 0-.3-.3-.2ZM5 37.4h-.1l-.1.2.2.3c0 .1.2.2.3.1l.3-.2c0-.2 0-.3-.2-.4l-.4-.1v.1Zm0-.1h.1H5zm8.8 5.9c.2 0 .4 0 .5-.2 0-.2-.1-.3-.4-.3v-.2h-.3c-.2.3 0 .5.1.7Zm-5.2-7.3v.4l.2.1c.2 0 .5-.2.5-.4s-.1-.3-.2-.2h-.5ZM37 56.3c-.2 0-.2.1-.2.5l.4.2c.2-.2.4-.3.2-.6 0 0-.2-.2-.4-.1ZM8 48.7c-.1.3-.3.7.2.8.2 0 .3-.2.3-.4-.1-.3-.3-.3-.5-.4Zm19.6 8.1v.5c.1.2.3.1.5 0v-.6l-.5.1Zm-1.7-.5c-.2 0-.2.2-.1.4v.2c.4 0 .6-.1.6-.3v-.3h-.5ZM6.6 41.8l-.3-.4c-.1-.1-.3 0-.4 0-.1.2-.2.4 0 .6.2 0 .4 0 .7-.2Zm-2.7-6.5.2.2h.3c0-.3.2-.5 0-.7-.3-.1-.3.3-.5.5Zm4.1.9-.5-.3q-.2.5.1.9c.3-.2.3-.4.3-.6Zm-3 4.5.3.4c.3-.1.5-.2.5-.5-.3 0-.5-.3-.8.1ZM9.6 34c.2 0 .4 0 .6-.2l-.1-.5c-.5 0-.5.4-.5.6Zm-8.3 3c0 .2-.1.3-.3.4v.5l.8-1h-.2l-.3.1Zm12.4 12.6c-.2.2-.4.3-.3.7.2-.1.4 0 .5-.3 0-.2 0-.3-.2-.4Zm10.9 5.8h-.3c0 .1 0 .3.2.5h.3c.2 0 .2-.2 0-.4h-.2ZM8.4 32.6h.2c0-.2.3 0 .5-.2l-.4-.5-.3.5v.2Zm5.8 8.9v-.1c0-.3-.2-.5-.4-.4-.2 0-.1.3 0 .4v.1h.4Zm-3.8-10.9c-.1.5 0 .6.4.6q0-.4-.4-.6Zm8.5 25.1c0 .1 0 .3.2.4.3 0 .4-.1.3-.3 0-.2-.1-.2-.5-.1ZM5.3 39l.3-.2-.2-.3-.3.3v.2h.2Zm-3.2-3.9-.4.1v.4q.5 0 .4-.5Zm6.6 14.5.3.1v-.5c-.4.2-.4.3-.3.4Zm-3-21.2c0-.2-.1-.2-.2-.3h-.2l.4.3ZM7 49v.3h.2c.2-.2.2-.3 0-.5l-.3.2Zm20 8.4-.2.3h.4c0-.1 0-.2-.2-.3ZM3.3 34.5c.2-.2.1-.3-.2-.5l-.2.3.2.3.2-.1Zm17.3 14.2h-.4c0 .1-.1.4.2.4l.3-.4ZM6.7 26.9v.2c0 .2.1.3.4.2 0-.2 0-.3-.2-.4h-.2Zm-2.3 6.8h-.1c-.2.1-.2.4 0 .6l.2-.4v-.1Zm21.7 17.7c0-.3 0-.4-.3-.4-.1 0-.2.1-.2.3.1.2.3 0 .5 0ZM4.5 32.3l-.4.1c.4.3.4.3.6 0h-.2ZM6 48.4v.3h.4c0-.2-.1-.3-.2-.3H6ZM2.8 27.7l.1.3h.2v-.3L3 28l-.2-.2Zm18.1 22.4s.2-.2 0-.3l-.3.2c0 .2.2.2.3.1ZM5.4 49h.3v-.1l-.1-.2h-.2v.4Zm3.9-19.2v-.2h-.4v.3h.4Zm-3.4 6.5h-.2c-.1.2 0 .3 0 .4H6c.1-.2 0-.3 0-.4Zm5.1 9.5-.2.3c0 .1.1.2.2 0 .1 0 0 0 0-.2Zm-4.7-.5c.1.1.3 0 .4-.1l-.2-.3c-.2.1-.3.2-.2.4Zm1.4-10.8q-.3-.1-.4.2c.2 0 .3 0 .4-.2Zm-1.2 9.9.2-.1-.3-.4.1.5Zm1.8-11.1q0-.2-.3-.2.1.2.3.2ZM34.1 54l-.4.3-.8.1c0 .1 0 .3-.2.4-.2 0-.2.3-.2.4.1.2.3.2.5.1h1.2c.2-.1.4-.2.4-.5a1 1 0 0 0-.5-.8Zm6.6 1-.6.3.2.6c.2.3.5.4.8.1l.1-.1c.3-.2.3-.4.1-.6-.2-.4-.3-.4-.6-.3ZM35 56.8l.5-.2.3-.2c0-.3.1-.5 0-.8-1 0-1 .3-.9 1.2Zm6.4.4c-.3-.3-.6-.3-1 0v.4h.8l.2-.4Zm-5.5-2.7c-.1-.3-.4-.4-.6-.4-.2 0-.4.2-.4.4v.3c.3.1.5.3.7.2h.6v-.2c-.3 0-.3-.1-.3-.3Zm2.9 1.7h-.2c-.4.1-.4.1-.4.6.2 0 .4 0 .7.2l.2-.5c0-.2-.1-.3-.3-.3Zm5.3.6c0 .5 0 .6.5.4q0-.3-.5-.4ZM37 54.6q-.3-.1-.5.2c.4.2.4.2.6-.2ZM10.8 27h-.1v.2h.2l-.1-.3Zm-8 9.5zm-.3.3h.3v-.3h-.2v.3Zm5.2-5.9-.4.1q.3.1.4-.1ZM.2 45H0v.3c.3-.1.2-.3.2-.4Zm4.5-5.8c.1-.1 0-.3 0-.4l-.2.2c0 .2 0 .2.2.2Zm0-.4Zm6.4-8.6.2.1v-.2H11v.1ZM3 28.5l-.2-.2v.4l.2-.2Zm1.7 6.1.1.2H5v-.3l-.2.1Zm-3.5-.4V34H1v.1l.2.1Zm8.6 17.4v.2h.2l-.1-.2h-.1ZM5.7 35.9h-.2v.2h.1v-.2Zm4.5-6.1H10h.2ZM2 36.1l-.1.2.2-.2H2Zm5.7-5.7H8v-.1h-.3v.2Zm-1.9 7.9-.2-.1q0 .2.2 0ZM.3 55c.2 0 .5 0 .7-.3-.3-.2-.5-.2-.8 0 0 0-.1 0 0 .1l.1.2Zm11-35.8ZM.2 23l-.1-.2H0v.9l.2-.2V23Zm.3-1.8c0 .3.2.6.5.6l.2.2.4.2.3.1v.2l-.1.2c-.1.5 0 .9-.3 1.3 0 .2.1.4.3.4l1-.1H3V24l.3-.3c0-.2.2-.4.1-.6l.1-.3.1-.3.1-.3-.4-.3c-.3-.2-.4-.2-.5.1-.1.2-.2.2-.4.2.2-.2.3-.3.3-.5v-.6l-.1-.2c.2-.3.3-.7.1-.8l-.6-.6h-.4l-.2.1h-.3c-.2 0-.3.2-.3.3 0 .1-.1.2-.3.2 0-.4.2-.7.3-1.1l.4-.2c0-.4-.2-.4-.3-.5l-.4-.6c.3-.2.3-.5.4-.8l.2.2c.3.2.5.3.9.1l.8-.3c.2 0 .3-.2.4-.4-.1-.1-.2-.2-.4-.1h-.3a.6.6 0 0 1-.3-.2l.2-.4.8-.8.2.1-.1.2v.2h-.1c0 .2.2.2.4.2h.2c.3 0 .4 0 .5.4 0 .3.2.5.5.5l.2.2-.4.2v.6c-.4-.2-.6-.1-.8 0l-.1.2h-.7l-.3-.2-.2.1-.2.3h-.1l.1.5.1.1.4.4H3v.1l.3.3.4.2h.5v.3l.1.1-.1.2c-.2.2-.3.3-.5.2h-.2c-.2 0-.3.1-.4.3l.3.6c0 .2.1.2.3 0h.6l.4.1c.2.1.4 0 .6-.2V21l.3.3.4-.4c0-.1.1-.2 0-.2 0-.1 0-.2-.2-.3h-.1c0-.5 0-.5-.2-.6l-.3.3-.4-.3H5c.2-.2.2-.3.1-.4v-.1c-.2 0-.2.2-.4 0 .2-.2.3-.2.6-.2a22.6 22.6 0 0 1 1 0l.1.6v.2l.2.2c.2 0 .4-.2.5-.3l.2.5c.5-.1.6-.5.7-.9l-.3-.2V19l.2.2c.3.3.6.3 1 .2.5.4.6-.3 1-.4l.4.2-.1.2.7.2v-.3h.4l.2-.2.3.4c.3-.1.4-.2.4-.4l-.2-.2h-.5l-.3-.5-.6.2h-.4c-.2 0-.3 0-.4-.2l-.1.3c-.2-.2-.2-.2 0-.4l-.4-.2a1 1 0 0 0-.4 0 .8.8 0 0 0-.6.7h-.4v-.3c-.1-.4-.4-.7-.6-1l.3-.5c.2 0 .5 0 .7.2h.1a13.4 13.4 0 0 0 .6-.6c-.2-.4-.4-.5-.7-.4l-.2.1-.6.3-.2-.1H7c-.4-.5-.8-.4-1.3-.1v-.6c0-.2-.4-.2-.2-.5.2-.1.3.2.6.2l.2-.4c-.2-.3 0-.5 0-.7l-.4-.2c-.6-.3-.6-.3-1 0l-.6-.4c.5-.3.6-.9.7-1.5.3.3.5.3.7.2l.4-.3.2-.3c0-.3-.3-.4-.3-.6v-.2h.4l.3-.6c.2-.2.3-.4.1-.7v-.2h.7l-.2-.3a.8.8 0 0 0-.7-.4v.5h-.2l-.1.7v.5h-.9l-.1.4v.5l-.4.7-.3-.3v-.2l-.6-.3h-.2c-.1-.3-.3-.3-.5-.2-.2 0-.3 0-.5.2l-.3-.4c.4-.5.4-.9 0-1.2 0-.2-.2-.4-.4-.6H2c0 .5-.4.9-.2 1.4a26 26 0 0 1-.6-.3c-.3.2-.2.6-.6.5 0-.2.4-.4.1-.7l-.1.2v.1H0v1.8l.2.2-.1.2v.2H0V14l.2-.6c0-.2 0-.3.2-.3V13l.2-.3v-.2c0-.1.2-.2.2-.5l.1-.2.2-.2c-.1-.3-.6-.2-.7-.5l.9.3v.6c0 .2 0 .3-.3.5v.1c0 .3.1.4.2.5l.4.2.3-.4c.1 0 .2 0 .2.2s0 .3.2.3c0 .1 0 .2.2.2l.3.6v.4l.3.4-.3.1-.9.6c0-.3 0-.5.2-.7h.2c.2 0 .3-.1.3-.3l-.1-.4A1 1 0 0 0 2 14l-.2.4-.5-.4.3-.1-.3-.2H1l-.2.1-.5.4s-.2 0-.2.2v6.2l.3-.1c0 .3 0 .5.2.8Zm2.8-7.1-.2-.2.3-.3h.1c.2.2.3.2.5 0 0 .4-.4.4-.4.7l-.3-.2Zm.2 1 .2-.5H4v.4l-.1.1h-.4Zm1.2 3.8.2-.7c.3.1.3.4.3.6h-.5ZM.7 14v.3l-.1-.1V14Z"/><path d="m.9 29 .1.2h.6l.2-.1c.3 0 .3 0 .5.3l.2.2c.1.2.5.2.6 0 .2-.1.2-.3.1-.5V29a.5.5 0 0 0-.5-.2v-.3l-.1-.3-.2-.5h.4c.1 0 .2 0 .2.2l.2-.2.4-.4V27c-.1-.3-.4-.5-.7-.4l-.5.3-.2.4c0 .3-.3.4-.6.5v-.6c-.5-.4-1-.1-1.6 0v2.2l.2-.3.7-.2Zm9.3-9.6ZM0 30v.2l.1-.1-.1-.2Zm0 .3v1c.2-.1.4-.3.4-.6s0-.3-.3-.4ZM.8 9c.2.2.3.1.5 0l.5-.1v-.4c0-.3 0-.3.4-.3V9h.5c0-.2.1-.4.3-.4.1.3.3.5.6.5q.2-.4 0-.7v-.2c.3-.4.3-.4-.1-.9v-.6h-.2l-.3.5v.1L2.5 7c.4-.2.5-.5.6-.8v-.3L3 5.5c-.4 0-.7-.2-1 0-.2-.1-.2-.3-.2-.5v-.1h.3l.3.2.7-.1-.3-.4-.1-.1c.2-.2.2-.4.2-.6l-.1-.2-.4-.3-.7-.5.4-.2c0-.4-.1-.8.1-1.2l.4.1c.1.2.2.3.4.3h.6l.2.5-.4.4c0 .5.4 1 .1 1.6-.2 0-.3.3-.4.5 0 .3 0 .4.2.5l.2.2q.2-.2.5-.1l.1-.3L4 5h.4c.3 0 .5 0 .7-.2l.2-.2.4-.1v-.2c0-.1 0-.2-.2-.3l-.8-.5h-.1l-.3-.2.4-.2h.4c0-.7-.3-.9-.8-1l-.4-.2.1-.4.2-.2V.8c-.3-.3-.7-.3-1-.4L3 .5c-.1.2-.3.2-.4.1h-.4L1.6.3a.6.6 0 0 0-.6 0l.2-.4h-1v.6L0 .8v1l.3.3H0v1.8h.1v1-.2l.6.3.8-.4s.2 0 .3.2l-.2.2h-.2v.2c-.3.2-.4.4-.4.7l.1.3.2.3.5-.1c0 .4-.4.4-.7.6l.1.4.2.6c-.2 0-.3.3-.5.3l-.2.3a.4.4 0 0 1-.3-.3c0-.3 0-.6-.2-.8H0v2.6c.2 0 .3 0 .4-.2.3-.2.4-.5.4-.9Zm.8-6.7v.3l.2.2c-.3 0-.6 0-.8.2l-.2-.1.2-.1.2-.2c0-.2.1-.4.4-.3ZM.8 0l.2.3C.8.7.7.7.6.5.6.4.6.3.8.2Z"/><path d="m.7 6.8-.1-.1-.3-.2V6c0-.3-.2-.5-.3-.6v1.8h.3l.4-.5ZM0 47.5Zm0-11.1Zm.4 4.3h.2l.4-.3h.2c.3-.2.3-.4.3-.7v-.2l-.2-.3v-.3l.4.1.1.1c.1.2.4.3.6.3.3 0 .6 0 .9-.3 0-.2.2-.3.3-.5 0-.3-.2-.4-.4-.5h-.4l-.2-.1c-.3-.1-.5 0-.7.3l-.3.2h-.2l-.3.2-.3-.4H.1l-.1.1v2.4h.4ZM6 33l.3-.2.2-.1H7l.5.1h.3l.6-.2v-1.2H8L7 31h-.2l-.2-.1-.4.2-.3-.3-.3-.1c-.5-.1-1 .2-1 .8 0 .2 0 .4-.2.5v.3l.2.2h.5c0 .1.1.2.3.2l.4.3H6ZM.3 43.9l.6-.1.4-.2.1-.3c0-.3.2-.4.3-.6l.2-.6V42h-.5c0-.3-.2-.5-.3-.6l-.2-.2c-.3.2-.5.2-.7.2l-.2-.2v2.3l.3.4Zm.5-.1-.3-.1.4-.2v.3ZM6 4.8v.6c0 .2.1.3.5.5l.1-.1c.3-.2.4-.4.5-.7l.5-.1a.8.8 0 0 1 0-.7L7.5 4l.2-.1c.3 0 .5-.2.4-.5V3l-.2-.3-.3-.4-.2-.3c-.2.2-.4 0-.6 0 .1.2-.2.3-.3.5.1.3 0 .7-.2 1-.2.2-.2.3 0 .6v.2c0 .3 0 .5-.2.6Zm.2 24.8-.2-1-.3-.2-.5-.2H5l-.2.5c0 .2-.1.3-.3.4-.3 0-.4.3-.4.5-.2.2-.5 0-.8.2l.3.8c.4.2.7 0 1 0h.2c.2-.3.6-.2.7-.6 0-.1.2-.2.4-.1h.3v-.3Zm9.1-13.7-.1.5.2.4h.8c.3.2.6.2.8-.1-.2-.2-.4-.5-.7-.5-.3 0-.4-.2-.6-.3l.6-.3v.3l.2.2h.1l.5-.2h.2l.3-.2V15l-.1-.3h-.3a1 1 0 0 1-.3-.1h-.1c-.2 0-.3 0-.4.2l-.2.2-.5-.2-.1.1-.3.8v.2Zm-5 23.4c.2-.3.2-.6 0-1h-.2l-.3-.2c-.2 0-.3-.2-.5-.1a1 1 0 0 0-1 1l-.1.5c-.1.2-.1.3 0 .4h.4s.2-.1.2 0l.8.1c.4-.1.5-.5.7-.7Zm-4-16.7H7v.1l-.7.3.4.5.3.2c.3 0 .6 0 .8-.2l-.1-.6v-.2l.1-.3v-.2a.9.9 0 0 1-.6-.6c-.1-.2-.3-.3-.6-.3l-.8.2.3.8c0 .2.2.3.3.3ZM2.8 46.7c-.1-.1-.2-.1-.4 0h-.7c-.3-.1-.4 0-.6.3v.1l-.2.4.1.3h.2l.1.1.3.3.2.2.2-.4.4.3c.2 0 .3-.2.4-.3v-.1c.4-.5.4-.8 0-1.2Zm.6-21.4v-.2l-.2-.2a1 1 0 0 0-.4-.3h-.9c-.2.3 0 .6-.3.8v.2l.2.1v.4c0 .3.2.4.5.5.2 0 .5-.2.6-.4l.2-.2.1-.3.2-.3ZM6 13.7h.3v.1h.1v.1c0 .4.4.4.7.5-.1.2.2.4 0 .7h-.4c-.2.2 0 .3 0 .4h.6l.2-.3c0-.3.1-.3.3-.2l.3.1.3-.2-.5-.3c-.3 0-.4-.1-.5-.4.2-.3.1-.6 0-1l.2-.2c-.1-.2-.4-.2-.6-.2 0 .2-.2.4-.5.4-.2-.1-.3 0-.4 0l-.2.4H6ZM.1 35c0 .2 0 .4.3.4.2 0 .4.2.6 0h.1l.4-.5c.1-.2.2-.4 0-.6h-.3L1 34l-.3-.2-.4-.5-.3.1v1.2l.2.3Zm14.5-16.2c0 .1.2.2.3.1.2 0 .3 0 .3.2-.2.2-.3.5-.1.8.1.3 0 .4-.2.6l-.4.1v.2l.7.3c.2-.3.5-.2.8-.1.3-.5.1-.8-.5-1.2l.3-.2.2.1.3-.4v-.5h-1l-.3-.1c-.3-.2-.3-.2-.5.1ZM.2 33c.1-.1.3-.2.6 0l.5-.2v-.9a1 1 0 0 0-.9-.5H0v1.7l.2-.1Zm9.1-6c.2 0 .5 0 .5-.4V26c.2-.4.1-.7-.5-.8l-.6.9c-.2.1-.2.7 0 .8.2.2.4.2.7.1ZM9 15.8h.2l.1.2-.2.2v.2l.3.1.1-.2c.4 0 .8 0 1-.3-.3-.2-.4-.7-.9-.5-.2-.6-.5-.8-1-.9a14.7 14.7 0 0 1 0 1c0 .2.1.2.4.2Zm6-2.4h-.5l-.1.2v.2c0 .1 0 .2-.2.3-.1 0-.2-.3-.4 0 .2 0 .3.3.4.5.2-.1.4 0 .6-.2v-.5h.7l.1-.1c.4 0 .5-.3.5-.7v-.2h-.6l-.4.5Zm-3 3.7zm-.1.6h-.4v.6h.7v-.4c.5.3.8.2.9-.3v-.1l.1-.3q.4 0 .4-.2h-.7a1.1 1.1 0 0 0-.9.1l-.1.6Zm-3.1 3.5-.2.1-.2.2.4.3.5.2h.6c.2-.1.3-.2.3-.5l.2-.3c-.3-.4-.8-.5-1.1-.4a1 1 0 0 0-.4.3ZM5 26.3c-.1.2.3.5.5.5.3 0 .6-.2.7-.5v-.7l-.5-.2h-.9v.3c.2.2.3.3.2.6ZM.8 36.9v.1h.8c.2-.2.3-.4.2-.8 0-.3-.2-.5-.5-.6-.4 0-.6.2-.7.5v.2c0 .2 0 .4.2.6Zm3.5-26.2.3-.2.1-.1.1-.1v-.5c-.1-.3-.4-.5-.7-.7H4c0 .2.1.3 0 .4l-.4.3c.2.4.3.8.8 1v-.1Zm14.2 6.9c0-.7-.1-.8-.6-.8l-.2.5.4.4c.2 0 .3.2.4.3l.4.4c.2 0 .4 0 .6-.5v-.1c-.2-.4-.4-.4-1-.2ZM4 38.1c0 .3.4.5.7.3h.2v-.1l.1-.4-.2-.3.1-.1.1-.1v-.1l-.1-.1-.2-.1-.2-.1c-.2 0-.3 0-.4.2l-.2.4.1.5Zm8.4-27.5c0-.1 0-.3-.2-.4-.1-.3-.3-.3-.6-.2-.2 0-.3.1-.3.2s-.1.3 0 .4v.7l.7-.1.3-.2.1-.3Zm7.5-1.8c-.5.1-.8.3-.8.9v.5l.6-.1.2-.1c.3-.2.5-.5.3-.8v-.4h-.3ZM3.6.1V0H3c0 .1 0 .2.2.3l.4-.2ZM6.3 25l.4.3.3-.5c-.1 0 0-.4-.3-.5v-.1l-.3-.3h-.2c-.3 0-.4.2-.3.5a2.2 2.2 0 0 0 0 .3l.4.4ZM4.7 6.4c0 .1.1.3.3.3l.2.3h.2v-.1c.3-.4.2-1.1 0-1.4-.2-.2-.4-.1-.5 0l-.1.4v.5ZM2.6 33.3c0 .2.1.5.3.6l.8-.1c.1-.3 0-.6-.3-1h-.3c-.3.1-.4.2-.4.5Zm16.4-14c0-.2-.2-.4-.3-.5l-.1-.2-.4.3.1.5-.4.1v.1l.1.4h.2l.3-.1.2-.3c.1-.2.2-.3.4-.3Zm-9.2-2.4v.2l.3.1h.9c0-.5-.1-.6-.7-.7-.3 0-.4 0-.5.4ZM17 20c-.7.5-.8.6-.4 1.2.5-.2.6-.4.5-1V20H17ZM2.1 31.3c-.2-.2-.4-.2-.6-.2-.2.2-.2.4-.1.6l.6.3c.4-.2.4-.3.1-.7Zm2.7-3.5h.4l.2-.3c.1-.2 0-.6-.3-.7-.2 0-.4 0-.4.2-.2.4-.1.6.1.7ZM11 8.1c0-.2-.2-.3-.3-.4-.3.2-.7-.2-.9.3l.2.3c.2.2.4.3.6.2l.3-.1h.1V8Zm0 5.2h.2c.1 0 .2-.2.1-.4l-.4-.7h-.3c-.1.3 0 .5.1.8h-.3v.2l.3.2.4-.1Zm2.8 1.9c-.3-.3-.5-.5-.9-.5v.6l.3.5.6-.6Zm-2.7-.2.4.3c.4-.3.4-.4.1-1l-.3.1-.1.4-.2.1-.2.4.1.2.2-.4ZM22 17.4h-.5l-.4.4.6.4c.5-.4.5-.4.3-.8ZM21 21a66 66 0 0 1-.4-.7c-.1.2-.3.2-.4.3v.6c.4.3.6 0 .9-.1Zm-7.8-.9-.2.1c-.2.2-.3.3-.6.3v.2h.4c.3.3.5.2.7 0v-.4l-.2-.1h-.1ZM22 15l.2.1.1.1h.4l.2-.3c0-.2-.1-.4-.3-.4l-.4.1-.2.3Zm-11.5 8.8.3.3h.4c0-.4 0-.5-.2-.6l-.4-.3q-.3.3-.1.6Zm3.6-1.6c.2.1.3 0 .5-.1v-.5c-.3-.2-.4-.1-.6 0-.1.2-.1.5.1.6Zm4.5-6.6-.1-.2v-.5c-.2 0-.3 0-.3.4l-.1.4v.3h.5v-.4Zm-7.5 3.8c-.1.2-.1.3 0 .4l.2.2c.2 0 .3 0 .4-.2v-.4l-.4-.2-.2.2Zm.6 0h.1-.1zm-.4-.2Zm-3 10V29h-.6l-.1.2c0 .2 0 .5.3.5.2 0 .3-.2.2-.4h.2ZM5.4 7.8l-.1-.4-.2-.2-.5.1c.1.5.2.5.8.5Zm7.1 5.4.1-.2v-.2c-.2 0-.3-.2-.5-.1l-.1.3v.5h.2l.3-.3Zm1.2 10.2h.2l.1-.3-.2-.5-.4.1-.1.3v.1l.4.3ZM5.5 2.6c0 .2.2.2.4.1.1 0 .2-.1.2-.3 0-.2-.1-.3-.5-.4-.1.2-.3.4-.1.6ZM.8 25c.2 0 .3-.3.3-.5-.4 0-.7-.1-.8.4.2.2.4.3.5.2Zm14.1-12.8h.3l.1-.1c0-.5-.1-.6-.6-.4l-.1.5h.3ZM8 21.4s0-.2-.2-.3c-.2-.1-.4-.1-.6.1l.4.6.4-.4Zm5.3-3.1.1.2h.6c0-.5-.3-.4-.5-.6l-.2.3v.1Zm6.7-4.1c-.4.2-.4.4-.2.9.3-.3.3-.6.2-1ZM13.3 22l.2-.4q-.5-.1-.8.3c.2.2.4.2.6.2Zm-4.7-1.2v-.3c0-.1 0-.3-.3-.5l-.2.4c0 .3.2.5.5.4Zm2.3-11.2v-.5h-.3c-.2.2-.1.4 0 .7l.3-.2Zm5 13.6c-.1.3 0 .4.2.6l.5-.2c-.1-.5-.5-.4-.7-.4Zm-4.6-7.5H11l-.1-.2c-.1 0-.3 0-.5.2h.2l.8.5-.1-.5ZM.6 30.1c.1.2 0 .5.3.5.2 0 .3-.1.4-.3-.2-.2-.4-.3-.7-.2Zm16.7-7.7.4-.4-.5-.2h-.3v.2c.3 0 .3.3.4.4Zm-7.5 6.4c-.2-.3-.3 0-.5 0v.5h.2c.3-.2.4-.3.3-.6Zm9.4-17.1.3-.3V11h-.2l-.2.2v.2c-.1.1 0 .2.1.2Zm-.4 12.1h.4v-.4c-.4 0-.5 0-.4.4Zm-8.4-3.5.2-.3-.4-.2H10v.3l.4.2Zm2.9-4.2-.2-.4h-.4q.1.6.6.5Zm7.4 9.2c0 .1 0 .2.2.2h.3c-.1-.4-.3-.6-.4-.5-.1 0-.2.2-.1.3ZM9 13.8l.2-.5L9 13l-.2.1c0 .2 0 .4.2.6ZM.8 25.6c-.3-.3-.4-.4-.5-.2v.3h.5Zm19.6-7.7.2.5c.3-.3.3-.4.2-.5h-.4ZM9.1 10.2c0 .1.2.1.4 0l-.3-.7c-.2.3-.1.5 0 .7ZM.8 23.8l-.2-.2H.3v.3c.3.2.3.2.5-.1ZM14 17l.1.2c.2.1.3 0 .4-.3h-.3l-.2.1ZM3.5 36.5c-.2 0-.3 0-.4.2l.3.2h.1v-.4ZM22.1 19c-.3.1-.3.3-.2.5.2 0 .3 0 .4-.2V19H22Zm-7.1-.8V18c0-.2-.3-.1-.5.2h.5ZM10 12c-.2 0-.3 0-.3.2l.3.3.2-.3c0-.2-.1-.3-.3-.3ZM2 42.8c.2 0 .4-.1.3-.4H2c-.3 0 0 .2 0 .4Zm14.4-25.2h-.1q-.2.4.1.6c0-.2.1-.3 0-.4v-.1ZM1 22.7c.1 0 0-.2 0-.2l-.3.1.1.3.3-.2Zm19.5-7h.4v-.1l-.2-.1c0-.1-.2 0-.2 0v.2Zm-10.5-2q.3-.3.1-.5c-.3 0-.2.3 0 .5ZM2.5 37.5l-.3-.4c-.1.1-.1.3 0 .4h.3ZM.6 22.1c0-.2-.2-.1-.4 0 0 .1 0 .3.3.2 0 0 .1-.1 0-.2Zm19.3.1.2-.1c0-.1 0-.2-.2-.3h-.2l.1.4ZM12.8 20c-.2-.2-.3-.1-.4 0v.1l.1.1.3-.1Zm-8.4 7-.2-.1c-.1 0-.2.2 0 .2h.2Zm-.3-4.8c0 .1 0 .3.2.3l.2-.2c-.1-.2-.3-.2-.4 0Zm.2-22 .1-.2h-.2v.2ZM15 21.5q0-.3-.3-.3c0 .2 0 .3.3.3Zm-4.8-9.8-.2-.4q-.2.2.2.4Zm-.6-1.9q.1.2.4 0h-.4ZM5 22.3l.2.1.3-.3h-.2c-.1 0-.2 0-.2.2Zm11.3-.4q.2-.2 0-.4-.1.2 0 .4Zm1.7-9h.2v-.2H18v.2ZM23 23h-.3v.2l.3-.1Zm-9.4-8.8c-.2 0-.3 0-.3.3q.3 0 .3-.3Zm-1.8 2.9h.2V17h-.4v.1l.1.1Zm.2 0zm6.5 3.7-.2-.3q0 .2.2.3ZM3.1 16H3c.2.3.3.2.4.1V16H3Zm6.7 3.5.3-.1-.2-.1c-.1 0-.2 0-.1.2Zm.3-.1ZM20 24h-.2v.3l.2-.1V24Z"/><path d="M5.7 3c-.1-.2-.2-.3-.4-.2 0 .2.2.2.4.2ZM9 12.8h.2v-.2H9v.2Zm11 3v-.2h-.3l.3.2Zm-8.5-3.5h-.2v.2l.2-.2Zm2.6 6.5.3-.1-.1-.1-.2.1ZM10 13v-.2a48.1 48.1 0 0 0-.4.2h.3ZM5.5 1.6c0 .1-.3.2 0 .3v-.3Zm8.7 13.2H14v.3l.2-.1v-.2ZM8 13.4v.1h.2v-.1H8Zm5.2 6.4v-.1H13v.1h.2Zm6.9 3.2H20v.2h.1Zm-7.8-6.6v-.2H12l.2.2Zm6.7 4.3v.3h.1v-.3h-.2ZM13.7 13l-.1.2h.1V13ZM11 20.1q-.2.2 0 .3v-.3ZM1 13.2.6 13c0 .3.2.3.4.1Zm1 .1h-.2v.3H2v-.3ZM3.2 2.7h.1v-.2H3l.1.2Z"/></g></svg>