<svg xmlns="http://www.w3.org/2000/svg" viewBox="0 0 57.6 57.6"><path fill="#fff" d="M43.3 51.2s-4.1-2.5-4.3-7.5c0-.7 0-1.5.2-2.1-6.9-4.5-15.9-2-15.9-2s3.5 11.1 14.9 12.6C49.2 53.6 55 42 55 42s-3.6 2.8-7.9 3c-.7 4.3-3.8 6.2-3.8 6.2Z"/><g fill="#0c2b77"><path d="M28.8 36.2h.1c.3-.3.5-.6.2-1h-.5q-.2.6.2 1ZM49.7 5.9zM28.7.7l.2.3-.5 1c.4.1.6-.3.9-.4.2 0 .5-.3.7-.5V.6l.4.4.5-.1c.1.4-.4.4-.4.6l.1.5c0 .5.4.8.9.7l.6-.2c.4 0 .5-.2.2-.6v-.1l.7-.5V.8c0-.2-.3-.4-.2-.7l.5-.1h-2l-.5.2-.2-.2H29l.1.3-.4.4ZM45.8.6c0-.3.2-.5.4-.6h-1l.1.5.5.1Z"/><path d="M40 1h-.9c0 .6 0 1.3.5 1.9 0-.3.3-.3.2-.6 0-.1 0-.2.2-.2s.2.1.2.2c0 .2.2.3.3.4-.3.2-.3.3 0 .5l.2.1c0 .4-.4.4-.5.6v1l-.4-.2h-.5l-.2-.3c-.3 0-.6 0-.7.3h-.9v-1l-.4.2v.8l-.4.3c-.4.4-.3 1.1.2 1.3q.5.1 1 .6c-.3.2-.7.1-.9 0-.4-.2-.8-.2-1.2 0-.1-.4-.7-.5-.7-1l.4-.2c.4-.2.4-.3.3-.8l.1-.6c.1-.2 0-.3-.2-.5-.3.2-.6.6-1 .6-.1.2-.3.3-.6.3-.2 0-.4.2-.3.4 0 .3.2.2.4.2h.2l.2.8h-.4c-.3 0-.5 0-.7.3-.2.2-.3.5 0 .8v.2c.1.5.4.7.9.5h.6v.6c-.1.2 0 .3.2.2l.1-.8.5.3c.2.4.5.6 1 .5.2 0 .2.1.2.3-.5-.2-.7-.1-.7.4h.7l-.2.2c-.2.2-.2.3-.1.5 0 .2.2.2.4.2h.5l-.5.3c0 .3 0 .5-.2.7a1 1 0 0 0 0 .8c.4 0 .3-.5.5-.8.2.3.2.7.6.8l.7-.3v.4c-.3.4-.2.7 0 1l.9-.1.8.3c0-.4-.1-.5-.3-.7a.7.7 0 0 1-.3-.3l-.4-.4-.1-.5.8.3s.2 0 .3-.2l-.2-.2.3-.2-.3-.7.3-.1.4.8c.2.4.3 1 1 .8.2-.4.2-.4.6-.3l.5-.1c.1-.2.3-.2.4-.3l.2-.4c-.2 0-.4.4-.6 0 .4 0 .6-.5 1-.3l-.2.1.9.9.4-.5c.2-.2.4 0 .5.1h.3c.2.4.5.7 1 .6.4 0 .4 0 .2-.5l.5.1q.4-.2.5-.6c-.4.5-.7.2-1 0l-.7.7c-.3-.2-.4-.3-.3-.6 0-.2 0-.5-.3-.6l.1-.3.4.1.1-.5-.3-.7c0-.4-.2-.7-.6-.9.4 0 .4-.4.5-.7l.3.1v1.1l.4.2-.1.3.2.3.4-.4v-.3l.7-1-.3-.2V7s.1-.1.2 0l.4.3c0-.2.2-.3.3-.4-.6-.2-.5-.6-.7-1 .3-.2.5-.6.9-.7l.3.3c.3-.3.5-.7 1-.7l-.3.3c-.2.2-.2.4 0 .6l.2-.2c.2 0 .4 0 .3.3-.2.3 0 .8-.5 1 .1.3.2.6.8.6-.4-.4-.2-.7-.2-1 .3.2.6-.3.8 0v-.7c.5 0 .6.5 1 .8-.1-.8.4-1.2.5-1.8.4 0 .5.4.7.6.2.3.5.3.7 0V5l.7.3c.3.1.6 0 .7-.1.2-.3 0-.5-.1-.6l-.1-.2q-.3.1-1-.1l.3-.6h.4v-.2h-.4V3l-1-.5-.3.5c0-.8.3-1.4.9-1.8l.5.3-.5.9c.4.6.9.1 1.3.2 0-.5-.4-.5-.6-.8 0-.4 0-.8.4-1.1L55 .5c.1-.2.2-.4.5-.5l.2-.1H55l-1.3.7-.4-.7H49l-.2.4c.1.3.3.6.5.6.5.2.8.5 1 1l.7.1c0 .3-.3.5.1.7.2 0 .2.2 0 .3v.7c.3 0 .5-.2.7-.3.4.2.4.8.6 1.2l-.5-.2c-.2 0-.3.1-.3.3q-.6-.4-.7-1.2l-.3-.2c-.5-.2-.5-.2-.3-.6.2-.4 0-.6-.2-.9 0-.2-.3-.1-.6 0l.4.3-.3.2-.4 1 .1.1.3-.2.3.2-.1.2h-1c-.4-.4-.6-1-1.3-.7v-.5l-1 .2v-.3l-.5.1c-.2.1-.2.3-.4.6v-.5c0-.3.2-.6-.2-1l-.1-.4c0-.2 0-.5-.3-.7V0h-2c0 .6-.3 1.2-.7 1.7l-.2-.2c.3-.4.2-.8.3-1.3H42a1 1 0 0 1-.8-.2h-1.5c0 .3.3.6.3 1Zm-4.7 6.6c0-.3.3-.3.5-.5q0 .4-.5.5Zm18.8-3q-.4.3-.8-.2c.4-.1.5.1.8.2ZM53.3.8l.2.6-.8-.1.6-.5ZM50.5.5V1q-.2-.2 0-.5Zm1.7 2.3c-.3-.1-.5-.2-.4-.5 0-.4-.1-.6-.4-.7v.1h-.5c0-.3.3-.1.5-.1 0-.2 0-.3.2-.3.1-.1.1-.3 0-.4q-.3 0-.8-.4c.4-.2.6-.1 1 .4h.3v.4l.3-.3c.2.2 0 .3 0 .4-.4.4-.3.5.2.7v.4l-.1.3h-.3Zm-2.3 1.6.2.2-.1.2-.2-.2.1-.2Zm-1.8-.8.3.3-.2.2c-.2 0-.2 0-.1-.5Zm-8.3 6.8-.8.2.2.2-.5.8c0-.2 0-.4-.3-.4l-.2-1.8c.5-.3.6.3 1 .4-.2.1-.2.3-.3.4h.2l.6-.6h.3c-.3.2-.3.5-.2.9Zm2.2 1-.6-.3.3-.1.3.3Zm-.3-.7-.2-.5.4-.5c.3 0 .3.1.3.3l.2.5q-.2.2-.7.2Zm2.4-1.9.4-.4.3.4c-.2.3-.4.2-.7 0Zm1.1 1.1c-.2 0-.1-.1-.1-.4l.2.3v.1Zm1.9-2-.1-.2v-.2l.3.1-.2.3Zm-5-1.3c.4 0 .7 0 1 .2h.5c.2-.2.3-.4.1-.6l-.2-.3.4-.2c.3.4.7 0 1 .2.1.1-.1.6.4.5l.1-.5.6.2c.1-.5 0-.9-.1-1.3l-.9-.3-.3.1c-.1.2-.3.4-.5.4s-.4.2-.7.1H43c-.2.1-.4 0-.5-.2.2-.2.4-.4.8-.3.1-.3.2-.6-.1-.8-.2 0-.2-.2-.3-.4l-.5.2c.1-.3.3-.2.5-.2 0-.2.3-.2.5-.4l.7.3-.2-.7h-.3l-.7-.7 1.3-.3c.2.2.3.4 0 .6h.7l.2.3-.7.5.6.5.4-.2.5.5.4-.4q.2.5.9.8l-.5.6h.5l.4.2v.3l-.5.1c-.2.1-.3.3-.1.4.2.3.2.5.1.7-.4.2-.7.2-1.1.2-.3 0-.6 0-.7.3h-.6c0 .3-.3.4-.7.4l-1.3-.3-.5.5.7.8c.2.2.3.3.1.5-.1.2-.1.6-.6.5l-.1-.5c-.1-.2-.2-.5-.6-.5l-.3-.2c-.3-.2-.5-.1-.6.2v.3c-.4 0-.8 0-1 .3-.2.2-.4.3-.7 0l-.3.1-.2-.9c0-.3-.3-.2-.5-.4.3-.2.7-.2.8-.6-.3-.5-1-.6-1.2-1.1.4-.1 1 .1 1.2-.6a28 28 0 0 1-.8-.4l.3-.4.2.1c0 .3.3.2.5.3v.7c-.2.3-.2.5 0 .7l.6.6.2-.5.4.3v.5l.1.6c.5-.2.8-.4 1.3-.3l.3-.2.4-.6-.3-.2Zm0-.6-.1.5-1.3.4c.3-.6.8-.6 1.3-.9Zm-.3-.7c0 .3-.4.4-.5.7l-.3-.6h.8ZM41.4 2l.3.3-.7.1c0-.3.2-.4.4-.4Zm.3 1.6-.1.4h-.7q.2-.5.8-.4ZM39 0h-.6.5ZM14.6.4 14 1h-1.1c-.3.3 0 .8-.2 1.3-.2 0-.5 0-.7-.2-.3 0-.4 0-.6.2-.2.3-.4.6-.3 1l.1.2.5.2v.5l.1.1.2-.4q.8-.3 1-1v-.3l1 .5c-.3.2.1.5 0 .7l-.5.3.1.3c0 .4.4.5.6.7.2.2.5.1.7 0l.8-.5-.4-.3c.2-.1.4-.1.3-.4l-.1-.2-.5.3-.2-.2c0-.3-.2-.7 0-1 .1-.6 0-1-.2-1.6.5.1.9 0 1-.7l.8.3.3-.3.5.6-1.1.7.7 1H16l.4.4c0 .1-.1.4.2.4.1 0 .6-.2.7-.4 0-.2-.3-.3 0-.5.5.3.7.3 1 0 .2-.3.4-.6.4-.9 0-.4.2-.6.4-.9.3-.4.8-.2 1.1-.5.3.6 0 1 0 1.6H20c-.2 0-.3.2-.3.2V3c.5.1.4.8 1 .8l.1.2c0 .5.2 1 0 1.5l.2.7.5.4c.1 0 .2 0 .3.2l.2-.5c.2-.4.7 0 1-.4h.3c.3.3.5 0 .7 0l.6.3.2-.1h.1c.3.3.7.3 1 .3l-.3.3.1.4.3-.1c.2-.6.7-1 .5-1.6h.1l.5.5c.1.3-.3.5 0 .7.2 0 .2-.2.3-.3.2-.5.2-.5.7-.5l-.1.3c-.3.2-.3.5-.2.8.1.2.2.5.5.5.4 0 1-.2 1-.5.1-.1.2-.3.1-.4-.2-.5-.4-1.1-1-1.2-.2-.5-.6-.7-1-1 0-.5-.3-1-1-1 0-.4-.4-.6-.7-.8l.3-.3c.2-.1.3 0 .4 0l.1.3c.2-.4.2-.4.6-.5l.2-.5c-.1-.3-.1-.5.2-.7.4-.3.6-.5.5-.8h-2.1l-.5.5.8.7v.5l-.8-.2.3-.4c-.5-.5-.6-.5-1.2-.2V1c-.3.3-.2.7 0 1l.4.5h-.6l-.1.6q-.5.1-.8-.2l-.1-1.2c-.4.2-.6.2-.9 0v-.2c-.2-.5 0-1 .1-1.4l.2-.2h-1.1l-.1.6-.2-.6H18l-.1.5c-.3.2-.5.2-.8 0l.3-.5h-2.8V0l.1.3Zm8.8 4 .2.3c.2 0 .4-.2.5-.3l1 .6.8-.5.3.6c-.6.4-1.2.4-1.9 0l-1.2.6-.2-.9.5-.4Zm-.5-.5-.4.5c0-.3 0-.5.4-.5Zm-1.3-2 .2.2c0 .4.3.8.1 1.3l.2.4v.6l-.4-.6c0-.4-.1-.7-.3-1-.2-.3 0-.7.2-1ZM34 .4V0h-.7q.2.6.7.4Zm-1 .9Zm-6.1.6V2v-.1zM47 11.8Zm-31 7.4v-.6h1l-.1-.4.2-.2c.5.2 1.2 0 1.4.4l.2.9c-.7 0-.3.7-.6 1l.7.6v.3c.1.2.3.3.5.3s.3-.4.2-.5l-.1-.3v-.1l.4-.3v-.5l-.9-.5c.4-.3 0-.5 0-.7h.3l.4-.2.3-.3v-.4l.9-.1c.2 0 .3-.2.4-.4l.1-.6c0-.3.1-.6 0-.8 0-.3 0-.5-.4-.5l-.3-.2h-.1c-.2 0-.3.2-.5.3-.1-.3-.5-.2-.5-.5s-.3-.5-.5-.6l-.4-.4-.3-.2c-.3.5-.7.8-1.3.7-.3.7-.3.7.3 1 .2 0 .3.2.2.4h-1.2v.4l.4.5c0 .4-.2.7-.3 1-.4 0-.3-.3-.4-.5l-.3-.7-.7.5c-.7.4-.9 1-.4 1.7l.2.2.4-.1c.3 0 .4.4.7.4Zm2-2.6c0-.3-.5-.5 0-.8.3.1.6.4 1 0 .3.2.6 0 1 0 .3-.1.6 0 1 .4h-1l-.9.6c0 .3.6.2.4.7-.3 0-.7 0-1-.3-.2-.2-.5-.4-.9-.1h-.3c.2-.3.5-.4.8-.5Zm7.3-4.2c-.5.6-.6.6-1.1.5v.9H23c-.3-.5-.5-.9-.4-1.4 0-.4-.2-.9-.5-1.2V11l.5-.2c-.3-.5-.3-.5-.6-.2l-.3.2v.2c0 .5-.1.6-.6.4l-.6-.2c-.2 0-.3.2-.3.3.1.3.3.4.6.3 0 .3 0 .4-.2.6-.4-.2-.6.2-1 .3 0 .7 0 .7.6 1 .3-.1.5-.1.6.1v.5c0 .4.2.6.6.7l.2.1q0 .5.7.7l.4-.2-.2-.9.4-.5c.1.2.1.5.4.6l.2.3c-.3.3.1.3.2.4h.3v-.2l-.2-.3c.5-.1.4.6 1 .6l-.2-.4c.3-.2.6-.3.7-.7l-.8-.3c.4-.1.7-.2.8-.6l.3-.3c.2-.1.2-.3.1-.5 0-.2-.2-.4-.4-.3Zm-3.5 1c-.1.1-.2 0-.4 0l.4-.2.2.1-.2.2Zm15.8 1.1-.2.7v.3c.2.4 0 .7-.1 1 .4.5 1 .3 1.4.2l1.1-.1c-.5.2-.4.6-.5 1 0 .2.5.2.3.5v.2c.3.2.6.3.9.1l-.3-.7.3-.6.2.3c0 .4.2.7.5.9l.1.2.3.7.5-.3.5.3.3-.6.8 1.4.3-.3c.9.5 1.4.4 1.6-.2l-1-.3c-.1-.4-.6-.3-.8-.6l-.5-.4c-.1-.2-.2-.3-.5-.4-.3 0-.5 0-.8.2l.1-.5-.2-.3.2-.4-.4-.1c-.3.3-.5 0-.8 0v-.2h.1c.4.1.7-.2 1-.4-.6-.4-1 0-1.4 0l-.4.5-.2-.7c0-.2-.2-.4-.4-.3-.3 0-.4-.1-.5-.2v-.6l.3-.3-.5-.5c-.2 0-.5 0-.4.3-.3 0-.1-.4-.4-.4-.3 0-.5.2-.5.6ZM42 18l-.2.4h-.2c0-.2.2-.3.3-.4Zm-3.5-3.6c.2 0 .3 0 .5.2l-.5.5c0 .5.7.5.4 1l-.9-1 .5-.7ZM13 8.4Zm-.8.9-.6-.1c-.2.7-.9.9-1.4 1.2 0 .3.3.5 0 .8 0-.3-.2-.5-.3-.8a.5.5 0 0 0-.8 0l-.1.3c0 .3-.2.4-.4.5-.5.3-.5.7-.2 1.3-.3.6-.8.8-1.4 1-.1.5 0 .7.3 1 .2.2.4.2.6 0l.4-1.2 1 .2.7-.8-.3-.1c.1-.4.4-.4.6-.4.2 0 .4 0 .5-.2l-.5-.2.4-.3c0-.2-.2-.6.2-.7l.7.6c0 .2-.1.5.3.5l.2-.3.5-.6c0-.1.3 0 .4 0l.2-.2v-.5l-.5.4c0-.3.1-.5.3-.6l.5-.7V9h-.2l-.2-.5c-.5 0-.7.5-1 .9Z"/><path d="M21.6 9.5v-.2h.3c.2.2.2.5.1.8.5 0 .5-.5.8-.8.8.3.7 1 .6 1.7l1.4-.4c.3.1.3.7.8.5.1-.4-.3-.5-.4-.7 0-.5.6-.7.5-1.2-.2-.3-.6-.5-.7-.8-.1-.4-.4-.6-.6-1l-.6.3-1.1-.2v-.1c-.3-.3-.6-.4-.9-.3l-.2.3.2.2h.7c.3.5.7.5 1.2.4q.1.4-.2.6c-.4-.2-.7-.6-1.2-.5v.3l-1.2.5c-.5.2-.5.7-.2 1 0 .2.2.3.3.4l.5-.2c.1-.2 0-.4-.2-.6Zm-.4.8Zm26.3 2.5Zm1.1.2ZM47 11.9c-.2.2-.3.3-.6.2l-.5.2c0-.2-.2-.5-.4-.3-.3.2-.7.3-.7.8h-.3l-.3.2c-.2-.3 0-.7-.3-1 0 .2-.2.3-.3.5l-.1-.3c-.5.1-1 0-1.5.5l-.3-.3-.3.2c-.2 0-.4 0-.5.3.3.2.5.4.2.8v.3h.8c0-.2 0-.3.2-.3.2-.1.3-.3.2-.5l.8-.3.7.5h.5l-.3.5c-.5 0-.9.3-1.4.2v.2c.3.1.5.3.6.2.4-.3.8 0 1.3-.1l.3-.8h.5l1 .7c.5-.2.5-.7.8-1l-.4-1h.4c0 .3.1.5.4.6l.6-.6-.1.6h.6c.1-.3.2-.6 0-1-.5.1-1 .2-1.6 0Zm-1.2.4v.4l-.4-.3h.4v-.1Zm-19-3.1.2.7c.4.1.8 0 1.1-.5l.4.4.5.2-.5.1-.3-.1H28l.5.8c.4-.1.6 0 1 .2.3.3.7.2 1-.3l.1-.5h-.3L30 10l.4-.3v-.5c.1-.5 0-.6-.5-.8-.2 0-.6 0-.7-.4l-.5-.2h-.3c-.3.3-.9.4-1 1l-.6-.1c-.2.2-.1.4 0 .6Zm3 .7c-.2.3-.3.3-.5.2 0-.2.2-.2.4-.2ZM29.3 8Zm20.1 2.3.4-.3.2.4c0 .2.3.3.5.2.2 0 .3-.3.3-.5s-.2-.4-.5-.5l-.7-.4-.8.3v-.8c0-.4 0-.5.5-.3v.4q.3.2.8-.2l-.1-.2c-.2-.6-.5-.7-1-.5h-.5l-.3-.4h-.1c.1.3 0 .5-.2.7l-.1.2-.5 1c-.2.3-.4.9-.3 1.3.4 0 .7 0 1-.4l.3-.1c.3.2.7 0 1 .3-.4.2-.4.7-.8 1l.3.2c.2 0 .3 0 .4.2.2.3.4.2.6 0l-.3-.4.5-.5-.6-.7Zm-31.3.6.9.6.8-.6q0-.9-.3-1.1l-.6.5v-.8l-.7-.6-.2-.2-.3-.3c-.5.3.1.8-.3 1-.4 0-.8-.3-1.1-.2-.4 0-1 0-1.1.5.5.2.8.8 1.4.8a1 1 0 0 0 0 .9c.5 0 .9.2 1.4.3l.1-.8Zm-5.5 2.7zm1.4 2c.3 0 .7-.2.7-.7l.2-.1c.3 0 .6.3.9 0l-.3-.7h.2c-.1-.9-.3-1-1-1v.8l-.7.2-.2-.4h-1c0-.1-.1 0-.2 0 0 0 0 .2.2.2l.1.2c0 .3.1.5.3.8l.2.3v.3H13l-.4-.1c-.4 0-.2.3-.3.4-.8.3-.8.4-1 1l.3.4c.1.3.4.4.7.4l1-.2c.3-.1.4-.4.4-.7-.1-.3-.3-.5-.7-.4-.2 0-.3-.1-.3-.4h.5l.6-.3Zm-1-7.2Zm.5-1.6-.4.6-.7.3.4.4.3.3.8-.1.1-.1v-.5c.4.1.4.7 1 .6 0-.2.1-.4-.1-.7l-.5-.5c.3-.3.6-.1.8 0 .2.2.4.1.6 0l.3.8q.5 0 .8-.5.4 0 .4.5l.6-.6c-.3-.5-.9-.3-1.3-.4l-.2-.5c-.4-.3-.6 0-.9.2l-.2-.5c-.1-.5-.3-.5-.7-.3L14 6l-.5-.7-.8.4.6.5.1.6Zm16.4-1.5c.2.1.3.3.2.6l.2.2.7-.6.5-.7c.1-.3-.1-.6-.3-.9-.2-.2-.5-.3-.9-.2L30 3c0-.6 0-.7-.5-.9-.4.3-.5.8-1 .8l.3.7c0 .2-.2.3-.3.4l.4.3.4-.3.3.3c-.6.3-.7.4-.6.7h.5l.3.4Z"/><path d="M42.4 13.9h-.6l-.7.6c-.4-.1-.5-.4-.4-.7q-.5 0-.9.7l-.1-.3c0 .2-.3.4 0 .6.2.1.1.4.2.6l.8.3h.7l.2-.3h.1l.2.3.5-.1.5.5.5-.1.4-.6c-.2-.1-.4-.3-.7-.3-.2 0-.3 0-.4-.3v-.7c0-.1 0-.3-.3-.2zM5.2 23.8l.1-.2c0 .4 0 .4.3 1v.3c.1.3.4.5.8.4.6 0 1-.2 1-.6v-.2c-.2-.4-.1-.7 0-1-.3-.3-.6 0-.8-.1h-.8c0-.3.2-.6 0-.9-.4 0-.6.2-.6.5-.1.3-.4.4-.7.6v.3c.1.2.3.3.5.2.2 0 .2-.1.2-.3zm21.4-12.1c-.5 0-.5 0-.5.2-.2.4 0 .7.3.9 0 .3-.2.5-.3.8l.7.3c.3 0 .6.4.5.7 0 .4-.1.7.2.9v.2c-.1.3.1.5.4.7.1.1.3.1.4 0 .2-.2.2-.3 0-.5l-.7-1c.6-.4.6-.9.7-1.3l-1.5-.8c.2-.4.3-.8-.1-1.1zm-24.9-2c.5 0 .5 0 1 .5.3.2.5.3.8.3s.5-.1.7-.4c0-.2.3-.3.5-.4-.2-.1-.3-.3-.2-.5v-.4c-.3.1-.3.4-.6.4s-.5.1-.5.3C3 9.3 3 9 2.7 9s-.4-.2-.5-.5c-.9.5-1 .7-.5 1.3zm30.4 13.9c.2.3.3.5.7.5l1-.8-.9-.2-.2-.7c.4 0 .8 0 1-.3v-.4l-.2-.2c0-.6 0-.6-.5-.8l-.1.6-.7.4.5.2c-.3.4-.3.4-.6.5-.3 0-.6.3-.6.7l.6.5zM11 .8c-.9.3-1 .6-1 1.4h.8c.4 0 .6-.4.7-.8l.2-.6h.7l.1-.4c.1-.2.1-.3 0-.4h-1.4c-.2.2-.3.4-.1.8zm6.1 24.4c0-.4-.4-.6-.8-.5-.4 0-.6 0-.8-.4h-.2l-.3.7v.3c0 .5.7 1.2 1.3 1.2.3 0 .5-.1.6-.4l.1-.3a.47.47 0 0 0 .1-.6zM7.9 4c0 .3.2.5.5.6.4-.3.8-.1 1.2-.1.5 0 .5 0 .7-.5l-.7-.3c.1-.3.2-.6-.1-.8H9l-1-.1c-.2 0 0 .4-.3.4s-.3.3 0 .5l.2.3zm.8-.9.2.1v.3l-.3-.2.1-.2zM3.1 19.2c.2.2.3.5.6.5.4-.3.4-.3.2-.7l-.1-.5-.3.4c0-.2-.1-.4 0-.4V18l-.2-.1v.2c-.9-.2-1.1 0-1.2.7-.6.1-.8.1-.4.8.2.4.6.5.9.3.2 0 .3-.2.5-.3 0-.2-.3-.3 0-.5zm29.8-9.4zm1.3-.3zm-2.1-1c.6 0 .8.2.8.5l.2.6-.2.2c0 .2 0 .4.2.5.3.2.2.4.1.7.7.4.8.4 1.5-.3-.5-.2-.6-.6-.5-1.2-.3 0-.4-.2-.6-.4l-.8-1c-.2.2-.6 0-.7.4zM25 24.7q0 .5.5.6c.3-.4-.2-.4-.3-.5l.5-1-.7-.8h-.5v.6c-.6 0-.7 0-.8.6l-.1.6.4.2c.2 0 .2.2.3.3.3-.2.3-.6.7-.6zm8-23.4c0 .2 0 .4-.2.6s-.2.3 0 .5l.5.2.1-.3c0-.7.3-.9 1-.8.3 0 .6-.1.8-.4l.3-.6-.6-.5h-.6v.7l-1.3.6zm0 0zm3 .7h.3l.2.3-.2.2c.2.3.7.3.7.8h1.2q.3.4.7.2V2.4l-1 .5c-.7-.3-1-.8-1.5-1.3a.74.74 0 0 0 .3-1c-.6.2-.6.6-.6.9l-.3.3.2.2zm-5.7 17.3-.4.3c-.2 0-.4 0-.6.3l.2.7c-.5.2-.3.7-.4 1l.5.4.4-.9c.4 0 .7-.1.8-.6l-.3-.4h.5c0-.6-.3-.7-.7-.8z"/><path d="m4 8.1.1.2c.4.4.5.4.9.1l.2-.1c.5-.3.6-.5.3-1l-.7.1c-.2.2-.4 0-.6 0l-.2.4c0-.3-.2-.6-.6-.6-.3.5-.2 1 .3 1.5L4 8zm51 .6-.2.6-.1-.1-.4.1c-.3.3 0 .6.2.8.3.1.4 0 .5-.2v-.6l.6.2c.4.1 1-.3 1-.8l-.1-.2c-.5-.5-1-.4-1.4.2zM27 2.8c0 .3.2.6.4.9.1.3.4.3.7.3.2 0 .3-.2.1-.5v-.9l-.2-.8-.4.2h-.7l-.3.4.3.4zm-.1-.8zM16.6 21.2l-.4-.5-.4.7c-.3.4-.2.8 0 1.2l.1.2c.4 0 .4.3.6.5l.4.3c.1-.5 0-.7-.3-1 .4-.4.4-.9 0-1.4zM32.9 9.8zm-1.1-.5-.3.5-.1.3c0 .3.2.6.5.8l.5.3.4-.7c.1-.4-.2-.5-.4-.8h.3l.2.1-.2-.4c-.2-.5-.6-.5-.9-.1zM10.6 24.7l-.9-.3v.6c-.2.9 0 .8.6 1.3h.5c.1-.3.4-.5.4-.8-.1-.3-.3-.6-.6-.8zm23.1 3L33 27l-.4.3c.3.4.1.7 0 1 0 .3-.1.5-.3.7-.3.3-.3.3 0 .8l.7-.2v-.9c.5 0 .5-.6.7-1zM48.1 14a2 2 0 0 1-1.6.7c.1.3.1.6.3.7.3.2.3.5.5.8l.7-.1v-1.3h.4c0-.3.1-.6-.3-.7zm-15.9-1 .6.4.5-.1.6-.7q-1.2-1-1.7-.9c0 .4.2.8 0 1.1v.2zm-28-2s0 .2-.2.3c-.4.4-.4.6-.1 1l.8.2.7-1-.4-.2c0-.4-.3-.5-.4-.7l-.4.3zm30.7 7q-.4.3-.9 1.5v.1h.4l.4.4.6.2V20l-.2-.3c.1-.3.5-.6.4-1l-.7-.5zm-24.7-2.2c.3.1.6.5 1.1.3v-.3c.3-.6.1-1-.5-1-.2 0-.5 0-.7-.2l-.2-.2h-.3v.4l.6.2-.1.5v.3zm23.1-9.7-.2-.7c.2-.2.5-.5.2-.9-.3 0-.5 0-.9-.2 0 .2-.2.3-.4.5l.2.3-.2.4c.9.7.9.8 1.3.6z"/><path d="m34 14 .3.3.2.2c0 .4.2.5.5.5a1 1 0 0 0-.1-.9c-.2-.2-.4-.5-.1-.9-.3 0-.4-.2-.6-.3-.2 0-.3.2-.5.3h-.4c0 .5.2.8.6.9Zm-.7-.7Zm12.9 4.9.3.2-.2.5.8.4c.4-.3.3-.8.6-1l-.3-.2c0-.5-.5-.5-.7-.8h-.5c.4.3.1.6 0 .9Zm-17.7-1c-.3 0-.6 0-.7.2-.1.1-.1.3 0 .4.2.1.4.5.8.4.6.8 1 1 1.5.6-.2-.5-.6-.8-1.2-.8v-.3c0-.3-.1-.5-.4-.6Zm-7.7 9.5c.3 0 .4-.3.4-.6l-.1-.4h-1c-.2 0-.4 0-.5.2l-.4.8c.3.3.6.3 1 .1l.5-.1ZM19.5 6c0 .3-.2.5-.5.5-.4.1-.7.4-1 .7l.3.7q.5 0 .6-.5l1-.6c.2-.2.2-.4 0-.7l-.2-.3-.2.1Zm.2-.2ZM16.5 5l1 .1h.3l.3-.9c-.5-.4-.7 0-1 .3l-.3-.3c-.2-.2-.4-.2-.6 0-.1 0-.2.2-.2.5 0 .2.3.4.5.3Zm32.1 8Zm.6.9c0 .2-.2.3-.3.4v.3l-.5.1c.4.4.8.4 1.3 0 .2 0 .2-.2 0-.4l-.3-.3c.3-.3.4-.6.2-1-.2.3-.4.2-.7 0h-.3v.2c0 .4.2.6.6.7Zm-32.9-.3c.2 0 .2 0 .3.2l.6.4c.3-.3.6-.6.5-1l.2-.3v-.4l-.3.1-1 .8c0-.2 0-.4-.2-.5h-.3l-.1.2c0 .2 0 .5.3.5Zm-11 1.9.2-.3c0-.2-.1-.3-.3-.3h-.6l-.3-1 .2-.2.2-.2c-.5-.7-.7-.7-1-.1.5.4.5.4.2.9l.6.8c.2.5.4.6.8.4Zm12.5 7.1v.5c-.2.6.1 1 .8 1l.7-1-1.5-.5Zm-5.5-9.5c-.1 0-.3 0-.5-.2.3 0 .4 0 .5-.2l.2-.3-.3-.2-.8.2c-.3.2-.3.5-.1.7l.3.3c.3.5.4.5 1 .2 0-.2 0-.4-.3-.5Zm.3.5zm24.8 6.7-.1-.8a9 9 0 0 0-.4.4c-.3-.3-.4-.3-.6-.1-.2.2-.2.3 0 .6l.4.6-.2.5c.6-.3 1-.7 1-1.2Zm-30-2.9h1c.2.1.4 0 .5-.2l-.3-.3c0-.3-.4-.4-.6-.5 0-.1-.3-.1-.4 0a1 1 0 0 0-.5.6c-.1.2 0 .4.3.4Zm12.5-9.6c-.3.1-.4.3-.3.5.3.4.2.8.3 1.2 0 .5 0 .5.5.6l.2-.8V9c-.1-.4-.1-.9-.6-1l-.1-.2Zm6 22.8v-.4l.2-.4-.7-.2c-.4-.2-.7 0-.7.5v.5c.4.3.8.3 1.2 0ZM11 6.9l1 .8c.1-.4.7-.6.8-1.2l-.9-.3-.8.7Zm42 3.6.2.4c-.7.2-.8.3-.6 1 .2 0 .6 0 .7-.3.1-.4.4-.6.7-.8v-.1l-.8-.8-.3.6Zm-22.4.7c-.4 0-.7.5-.6 1 .7.2.8.1 1.3-.7l.6.2c-.2-.6-.5-.7-1.3-.5Zm-6 4.8c0 .1.1.4.3.4.4 0 .3.4.6.6l.5-.4v-.7c-.2-.2-.6 0-.8-.3-.2-.1-.5.2-.6.3Zm2.1 4.5c0-.2 0-.4.2-.5v-.5H26l-.5.3c.1.9.4 1 1.1.7ZM7.1 29.6l-.6-.1-.1.8c0 .3.1.4.3.5h.6c.1-.1.3-.4.3-.7 0-.2-.2-.4-.5-.5ZM6 13c.2 0 .5 0 .7-.2.3-.3.4-.5.4-1l.1.1h.2c0-.3-.2-.5-.5-.4l-.4.2c-.5.2-.7.7-.5 1.3Zm12.6-8.9c.1.4.4.6.8.5.3 0 .6-.4.6-.7 0-.3-.5-.5-.9-.4-.3 0-.6.4-.5.6ZM6 10.7c.1.3.5.5.7.4h.4c.3 0 .4-.1.6-.4a2 2 0 0 0-1.3-.6c-.3 0-.5.3-.4.6Zm39.3 14.7c0 .2.1.5.4.5.2 0 .5 0 .7-.2l.1-.5-.1-.4h-1v.6ZM33.7 3.6c-.2.2-.3.2-.5.1H33c0 .4 0 .5.3.5h1l.5.2v-.8c-.6-.3-.6-.3-1 0Zm1.1.8Zm5.8 17.3Zm-.3-.2-.2-.4c-.3 0-.4-.3-.6-.4h-.2c-.2.2-.3.4 0 .7h.5v.4l.5.5h.3l.1-.3-.1-.3c-.2 0-.2-.1-.3-.2Zm-32-14c.2-.6.2-.6-.2-.9l-.4-.4c-.5.3-.6.5-.3 1.1l1 .2Zm15.6 12.2c.4-.4.4-.5.1-1.1-.3 0-.7-.1-1 .1q0 .9.9 1ZM9 16.9h1.7c.2-.1.5-.2.4-.5-1-.4-1.7-.2-2 .5Zm24-2.7-.3.7c.1.2.2.5.5.6l.7-.6q-.3-.8-.9-.7ZM51.4 9c.3.1.6.3 1 .3l.2-.2c.3-.1.3-.3.1-.5-.3 0-.5.4-.8 0v-.4c-.2.2-.4.2-.6 0 0 0-.2-.1-.4 0l.3.6.2.2Zm1.3-.4ZM6.2 4.2c.2 0 .4-.4.3-.6L6 3.2c-.4.3-1 .3-1 .9v.3c.4 0 .7-.3 1-.2Zm17.6 8.5-.3-.6-.5.5v.9c.4.2.6.1.8-.1l.4-.5c-.2 0-.3 0-.4-.2Zm.4.2v.1-.1zM36.1 19h-.4l.3.5c.2 0 .3-.2.4-.3l.5.2c.2-.4.2-.7-.1-1l-.4-.3c0 .3-.2.5-.3.8Zm-.7 10.4c-.4-.8-.6-.8-1.4 0l.7.5q.5-.2.7-.5Zm16.2-17.2Zm-.4-1.2h-.6v1l.6-.1.4.3v-.5c0-.3 0-.5-.4-.6Zm-1 5.2.2.3c.2.5.4.6 1 .3 0-1-.2-1-1.2-.6Zm-12 3.2c0 .6.4.7.8.8v-.5c0-.2 0-.4-.3-.5l-.2-.3c-.2-.2-.3-.2-.5 0v.3l.2.2ZM11 18.7c0-.2 0-.5-.2-.7l-.4-.6H10c0 1 .2 1.2 1 1.3Zm15.5-1.4c-.2 0-.4.3-.3.7 0 .3.2.4.5.4.4 0 .5-.3.5-.6s-.4-.5-.7-.5Zm-11.1-7c-.2.2-.4.3-.3.6v.5h.5c.1.1-.1.5.3.4 0-.3.2-.6.1-.8 0-.3-.3-.5-.6-.7Zm-9.6 8-.7.5-.1.4c0 .2 0 .4.3.4.3-.1.5-.4.7-.7.1-.3.1-.3-.3-.6ZM39.9 26c.5-.7.4-.9-.5-1.2l-.4.4q.4.7.9.8Zm14.9-8c-.2-.7-.4-.8-1.4-.5.6.8.7.8 1.3.5Zm-23.4-2.4c-.3 0-.5 0-.5.3l-.1 1.2.8-.3-.2-1.2Z"/><path d="M52.6 7.1c-.5.4 0 .8-.2 1.2l.3.3.6-.3c0-.6-.4-.8-.7-1.2Zm.1 1.5Zm.6-1.6.3-.5-.7-.4-.2.2-.5.1c.3.5.6.6 1 .7ZM21.1 18.1h-.6c-.2 0-.4.2-.4.4 0 .3.2.3.4.3l.7.1v-.8Zm-8.9 1.1v-1c-.2 0-.5 0-.6.2l-.4.6c.3.5.6.2 1 .2ZM2 3.8c0-.7-.6-.6-.9-.9-.4.4-.2.7 0 1h.8Zm1.6 1c0 .2.3.3.5.3.5 0 .4-.4.5-.7-.4-.3-.6-.4-.9-.2-.2.2-.1.4 0 .6ZM36 14.6l.1.3c.3.3.5.3.7 0l.4-.6-.4-.1c-.3 0-.6.1-.9.4ZM21.6 28.9c-.1 1 0 1 .5 1.3.4-.5.3-.7-.5-1.3ZM51.8 10c-.2.1-.1.3 0 .5 0 0 .3.1.4 0 .2 0 .4-.1.3-.3l-.2-1v.1l-.5.6Zm-22.9 7c.3.7.6.8 1.3.3-.5-.6-.7-.6-1.3-.3Zm.1-4.5c-.5.2-.2.5-.2.8.5.1.7 0 .8-.1.1-.2 0-.5-.1-.7-.2-.2-.4-.1-.6 0Zm19.3 5.7c.2 0 .3-.3.5-.4l.1-.4c-.6-.3-.9 0-1.2.4.2.2.3.5.6.4ZM33.2 7v-.3c-.5-.2-1 .2-1.4-.2 0 .4.1.6.3.8l1.1-.2Zm-5.5 3.9c-.3.2 0 .5 0 .8.4 0 .7 0 .8-.3 0-.2 0-.4-.2-.6h-.6ZM13 28.6c-.3.5-.3 1 .2 1.4.5-.6.5-.8-.2-1.4Zm7-3 .3-.1v-.4c-.5-.3-.8-.6-1.4-.2l1 .6h.2Zm30-12c.6.5.8.5 1.3 0l-.2-.3c-.4-.2-.8-.1-1 .3Zm1-.3h.1Zm-16 3.2h.5l.2-.3v.1h.3c.2-.2.2-.3.1-.5 0-.1-.2-.3-.3-.2l-.7.4c-.2 0-.2.3 0 .5Zm-11.9 6.7c-.2-.1-.3-.3-.5-.3l-.5.3v.4l.4.2c.3 0 .4-.3.6-.6ZM18.4 5.9h.3l.2-.4.2-.6-.3-.1h-.3l-.2.2c-.2.3.4.6.1.9Zm-18 5.5v.4c.7.3.9.3 1-.3-.4-.4-.8-.4-1-.1Zm26.6 17c0-.4 0-.7-.3-.9H26c0 .7.1.8 1 .9ZM8.3 8.7 7.8 8c-.3 0-.5 0-.6.4 0 .2 0 .4.2.5.3.2.5.1.9-.2ZM10 21.9l.9-.4c.1-.3 0-.5-.3-.7l-.7.4.1.7Zm1.5-16.5c.5.5.7.5 1-.2V5c-.5-.2-.5-.2-.8 0-.2 0-.2.2-.3.3Zm32.5 16c.4.7.5.8 1.2.7 0-.7-.3-.8-1.2-.7Zm1-3.7h.6q0-.6-.3-1h-.4v1ZM56 7.1Zm-.1.4c0-.2.1-.2.2-.3v-.7c-.3-.1-.6 0-1 .2.4.2.3.7.8.7Zm-25.6-.2-.2-.1c-.5-.3-.7-.1-.7.4l-.1.4 1-.3v-.4Zm-1 .7ZM2.8 16.8c-.3 0-.3.2-.3.4 0 .3.2.4.4.4h.6l-.2-.6c0-.2-.3-.2-.5-.2Zm37.4 12q0-.7-.7-1c-.2.9 0 1 .7 1Zm-11.7-5.2c.6.2.7-.2.8-.6-.2-.3-.5-.2-.8 0v.6ZM5.4 27.8c0 .2-.1.4 0 .4l.7.2.1-.4.1-.4q-.5-.1-.9.2Zm12.4.4c-.2.7 0 .9.5 1.2.3-.6.2-.8-.5-1.2Zm20.6.8h.8l-.1-.8c-.5-.1-.5.5-1 .4 0 .3 0 .5.3.5Zm-.4-4.2c-.1-.5-.6-.3-.9-.6-.2.5 0 .7.1 1 .3 0 .6-.1.7-.4ZM57.3 3.1c-.3.2-.7-.2-1 .3l1 .5c0-.2.2-.4 0-.8ZM28.4 20c0-.3-.1-.4-.3-.5-.3-.1-.5 0-.5.2 0 .3.1.5.6.7l.2-.4Zm-13.2 9.6c.4.7.8.7 1.5.1-.5-.3-1 0-1.5-.1ZM9.4.5C9.2.2 9 .2 8.5.1l-.3.6c.5.3.8 0 1.2-.2Zm7 5 .2.4q.7 0 1-.3c-.4-.2-.8-.4-1.2-.1Zm7 12.5.6-.3q-.6-.6-1.2-.4c0 .3.3.5.6.6ZM35.2 3.1c.3-.3.2-.6 0-1 0 0 0-.3-.3-.2-.2.8-.2.9.3 1.2Zm9.5 12.4c.2-.1.3-.2.3-.4v-.9c-.3.3-.5.5-.6.8l.1.4s.2.1.2 0Zm-10.3-3.7.8.5c0-.4.2-.7.4-1h-.4c-.2.3-.7.1-.8.5Zm-4.3 3.8.2.2c.2.1.3 0 .4 0v-.4l-.6-.5H30c-.4.5-.3.5.1.7ZM38.2 1V.4c-.2-.1-.5-.3-.8-.2q.2.7.8.8Zm19.4 1.4v-1c-.5.5-.5.8 0 1Zm-.7 3.8c-.2.8-.1 1 .7.7l-.1-.6-.6-.1ZM36.4 27.4c.2-.1.2-.4.3-.6 0-.2 0-.3-.4-.4l-.4.7c.1.2.3.4.5.3ZM57.2 5.8q0-.5-.7-.6c0 .8.1.9.7.6Zm-41.1 3c.1-.3 0-.6-.4-.7 0 .2-.2.2-.2.3v.3c0 .2 0 .4.3.4.2 0 .3-.1.3-.3Zm21.9 4c.1-.3 0-.4-.2-.4h-.3c.1.3-.4.3-.4.6h.6c.2 0 .3 0 .4-.2ZM20.9 34.2l.4.4c.3 0 .5-.2.5-.5-.6-.3-.7-.3-1 .1Zm20.6-4.4c.4 0 .5-.2.4-.5l-.2-.3s-.2-.2-.3-.1l-.2.3.3.6ZM6.3 17.2l.2.2h.1c-.3-.6.5-.5.4-1-.3-.2-.6 0-1 .1.3.2.4.4.3.7Zm38.6-1.3c-.5-.2-.7 0-.8.6l.5.2.3-.8Zm-31.5 1.9-.6-.2c-.4.4-.1.6 0 .9q.6-.4.6-.7Zm16.2 9.7c-.6.1-.8.3-.7 1 .7-.4.8-.5.7-1Zm-9.2-16.8c.1.2.3.3.5.3h.4l-.1-.7-.4.2-.5-.2v.4Zm.8-.4ZM15 27.8c-.2.4-.3.8.1 1.2.4-.4.4-.7 0-1.3ZM5.6 21q-.5.6 0 1c.5-.3.5-.5 0-1Zm22.4.6c0-.2-.2-.2-.3-.2-.3 0-.6.3-.5.5l.3.2c.3 0 .5-.3.5-.5Zm-1.3-10.8c0-.2 0-.4-.2-.5-.3-.1-.4 0-.6.5.5.2.7.3.8 0Zm-6.9 10.7-.5.1.1.4v.4l.4.1v-.3h.3l-.3-.7ZM2 2.5C2 2 2 2 1.7 2a1 1 0 0 0-.4 0H1c.3.4.6.5 1 .4Zm40.6 23c0-.2.1-.4 0-.4l-.5-.4q-.3.5.6.8ZM8.5 22.9c-.1 0-.2.2 0 .4 0 .2.2.3.4.5l.4-.1-.5-.7-.3-.1ZM30 25c0 .3-.3.5-.5.9 1-.2 1-.3.6-1ZM12.7 14.5H12c0 .4.4.6.6.9V15c.2-.3.2-.4 0-.6Zm0 .9zM9.4 9c-.6 0-.8 0-.7.6q.7-.1.7-.5Zm13.4 13c-.3-.4-.3-.4-1 0 .3.3.6.3 1 0Zm4 9.6.4-.4-.3-.5c-.5.3-.5.5 0 .9Zm-15.1-7c-.1 0-.2.3-.1.4 0 .2.3.2.5.2l.2-.4c-.2-.3-.4-.4-.6-.2Zm6.1-20.9h.5l.1-.3-.2-.2-.7.2c0 .3 0 .3.2.3ZM21 19.2l.1.6c.2.1.4.3.7.2 0-.3-.2-.7-.8-.8Zm11.2 6.7c.3.3.6.2 1 .1-.5-.4-.6-.5-1-.1ZM57.6 1.2V.7l-.3.2.3.3ZM56.4.4c.7.2.8.1 1-.4h-.7l-.3.4ZM19.7 5.1v.6h.4q.1-.6-.2-1l-.2.4Zm0 .6Zm-3.9 15.2c-.3-.4-.5-.5-1-.3l.5.5.5-.2Zm9.4-3.9-.3.3c0 .2.2.3.4.3h.5c.1-.5-.4-.3-.6-.7Zm15.3 3.8.3-.2c0-.3-.1-.4-.4-.5-.2 0-.4.2-.3.4l.4.3ZM15.1 34.2c-.1.1-.2.3 0 .4.1.2.3.2.4 0 .2 0 .2-.2 0-.6l-.4.2Zm21.1-20.8q0-.3.6-.7H36c-.3 0-.4.2-.3.4 0 .2.2.3.4.3ZM48.4 20c.2.2.4 0 .6 0v-.6q-.5 0-.6.6Zm-26.9 2.8-.4-.5h-.2c0 .1-.1.3 0 .4 0 .2.2.3.5.3 0 0 .1-.2 0-.2Z"/><path d="m11.5 5.9-.1-.6h-.5c0 .6 0 .7.6.6Zm-.1-.6Zm10.4 22.8h-1l.2.4c.3 0 .6 0 .8-.4Zm16.7-3.5c.1-.5-.1-.6-.5-.8v.6l.3.1.2.1ZM24 27.3c-.4 0-.4.2-.3.6h.4l.2-.4-.4-.2Zm9.4-2.4c0 .2 0 .4.2.6h.5q-.1-.5-.7-.6ZM48 19c.2 0 .3-.2.3-.3 0-.2-.2-.3-.3-.3-.2 0-.4.1-.3.3 0 .2.1.3.3.3ZM4.5 22l-.1-.4-.4.1-.3.5.6-.1c.1 0 .3 0 .2-.2Zm-1.2 2c0 .2.2.3.4.3L4 24c-.3-.5-.6-.2-.8 0Zm4.3-1.4.5.2s.2 0 .2-.2v-.3c-.3-.1-.5 0-.7.3ZM31.2 9.7v-.3h-.4l-.3.3.4.2c.1 0 .3 0 .3-.2Zm-.7 0zM5.8 4.6c.2.3.4.3.6.3l.3-.2q-.5-.4-.9-.1Zm33-2.9q-.4-.5-.7-.2c.3.5.4.5.7.2ZM36 24.2c0 .3 0 .4.3.5l.2-.8c-.4 0-.4 0-.5.3ZM27 8.7c0-.3 0-.5-.3-.7q-.3.2-.4.5c.2.2.5-.1.6.2Zm-.1 0ZM19.1 24c.4.5.4.5.8 0-.2-.2-.5-.2-.8 0ZM12 21.8l-.2-.4c-.4.2-.3.5-.2.9l.5-.5Zm22.7 3.8.4-.1-.1-.7c-.3.3-.5.5-.3.8Zm17.4-9.9.2.2c.3 0 .5 0 .4-.3l-.3-.2c-.1 0-.3.1-.3.3Zm-26.3 8.9c0 .3.2.4.4.5.2 0 .3 0 .3-.3-.2-.2-.4-.3-.7-.2ZM11.4 8v-.2l-.2-.1s-.2 0-.2.2 0 .3.5.4V8Zm31.4 15.4c0-.1-.1-.3-.3-.2-.2 0-.3.2-.3.3 0 .1.1.3.3.2.2 0 .3 0 .3-.3Zm-11.4-9.8q-.4-.2-.8.2c.4.1.6 0 .8-.2Zm20.8-5.8-.2-.4c0-.2-.1-.4-.4-.4 0 .4.2.6.4.9h.2ZM7 16l.3-.4c-.4-.2-.6-.1-.9.1l.6.3ZM4 1.8v-.2s0-.2-.2-.2h-.4l.3.5H4Zm32.2 2.7v.2c0 .2.3.2.5 0h.1l-.1-.2c-.2-.1-.4-.2-.5 0ZM7 18.2c-.4.3-.4.4-.1.8.3-.2.1-.5 0-.8ZM54.8 7.8c-.1-.3 0-.7-.5-.8q0 .6.5.7ZM39.1 23.5q.2-.5-.2-.7 0 .6.2.7Zm-18.3 7q.2.4.7.3l-.3-.3h-.4ZM37 18q.2-.3-.2-.6c-.1.4-.1.5.3.7ZM20.4 28.7l-.2-.2c-.2 0-.3.2-.3.4l.2.2c.1 0 .3-.2.3-.4Zm14 4.5c0 .2 0 .3.4.4.1-.4 0-.6-.2-.6l-.2.2Zm-22.6-13 .3-.3-.3-.5c-.2.4-.3.7 0 .8ZM10.2 5.3c.3 0 .4-.2.4-.4l-.1-.2h-.2c-.2.2-.3.4-.1.6Zm22.3 25 .2.5h.2c0-.1.1-.3 0-.4 0-.2 0-.3-.3-.1Zm5.5-26c.4 0 .6 0 .4-.5-.2 0-.4.2-.5.5Zm-6.4 14.9c-.2 0-.4 0-.4.3 0 .1 0 .2.2.2.3 0 .3-.2.3-.5Zm8.4-.1h-.7c.4.5.5.5.8 0Zm-13.6 4.3Zm.3-.4c-.1-.3-.3-.3-.5 0l.2.4c.1-.1.5-.1.3-.4Zm4.7-15 .2.1h.2c0-.3-.2-.5-.5-.5V8ZM20.3 19.3l-.1.3c0 .1.1.3.4.2v-.2c0-.2-.2-.4-.3-.3Zm14-9.8Zm.4-.7c-.3.1-.4.4-.5.7.5-.1.6-.2.5-.7Zm-28 11.8c0-.1-.1-.3-.3-.2l-.2.2.3.4.2-.4ZM38 23.1l.3.2.4-.3-.4-.2c-.2 0-.3.2-.3.3Zm15.5-10.5c0 .4-.1.6.3 1 0-.5 0-.7-.3-1Zm-15 9.1.2.3h.4v-.3h-.6Zm-7.2-8.9c0 .3 0 .4.6.5l-.6-.5ZM5.5 25.4v-.2c-.4 0-.4.2-.5.4.4.1.5 0 .5-.2ZM9.5 3l.3-.4c-.5-.2-.5-.2-.5.2l.2.1Zm11.3 20.3q-.2.4.2.7c.2-.3 0-.5-.2-.7Zm1.4-7.1c-.1-.1-.2-.3-.5-.2v.3c.1.2.3.1.5 0Zm16.2-2.9-.2.5.7-.2c-.1-.1-.4 0-.5-.3Zm-21 17.5-.3.3.3.1.2-.3c0-.1-.1-.2-.2-.1Zm14 .6.1-.1a2 2 0 0 0-.3-.3l-.2.1c0 .2.3.4.4.3ZM4.7 10.2c0 .4.2.5.5.5 0-.4 0-.5-.5-.5Zm23.7 18.5.4-.3-.5-.1-.2.2c0 .2.1.2.3.2Zm-18-20.3-.1-.1-.6.1.3.4.4-.4ZM24.9 27h.5c-.2-.4-.2-.4-.5 0ZM8.2 17.8v.6c.5-.4.5-.4 0-.6Zm39.3-5Zm.4.7c0-.1.2-.2.1-.3 0-.3-.2-.4-.4-.3v.4l.3.2Zm-2.4 7.3q.5 0 .6-.4c-.3 0-.5 0-.6.4Zm-5.7 2c0-.3 0-.4-.4-.5q0 .5.4.5Zm-26.6-9.4c.3 0 .5 0 .5-.4q-.4 0-.5.4Zm25.4 7.4h-.2a1 1 0 0 0-.3.2v.2l.4-.2.2-.2ZM12.4 8.3c0-.3-.2-.3-.4-.2v.2c0 .3.3.1.4 0ZM1.7 21.7v.5l.4-.1c0-.3-.2-.3-.4-.4Zm48.7-4c-.2-.2-.4-.1-.6 0 .4.3.4.3.6 0ZM5.3 13.3l-.1.3.3.3.1-.3-.3-.3ZM39 25.8c-.1-.1-.2 0-.3.2l.1.4.3-.3v-.3Zm-11.4-6.5c.2 0 .2-.2.1-.4h-.6l.3.3.2.1Zm-23.9-3c-.3.3-.2.4 0 .7.3-.3.3-.5 0-.7Zm40.6 1.5c0 .1.1.3.3.2l.2-.2-.3-.2s-.2 0-.2.2Zm-19.9.1c.2.1.4.2.5-.1-.2-.1-.3-.3-.5.1ZM9 19.3c-.3-.3-.5-.1-.8 0 .3.1.5.2.8 0Zm.5 0 .4-.5q-.5 0-.4.5ZM52 12.5c-.1-.3-.1-.3-.4-.3 0 .3 0 .3.5.3Zm-.4-.3ZM35.8 6c0 .3 0 .5.4.6 0-.3 0-.5-.4-.6ZM41 21.3l-.1-.1c-.3 0-.3.3-.3.5.2 0 .4-.1.4-.4Zm-.4.4Zm2.1 5q.2-.4-.2-.5v.3l.2.2Zm6.2-11.4-.4.1v.3c.2 0 .3 0 .4-.4ZM13 23q0-.6-.3-.7c0 .3 0 .5.2.7Zm24.6-2.1s-.2.1-.1.2c0 0 0 .2.2.2l.2-.2-.3-.2ZM57 2q0-.4-.3-.6c-.3.4 0 .4.2.6ZM26.4 23.4Zm-.4.1c0 .1 0 .3.3.2v-.3c0-.1-.3-.1-.4 0Zm19.6-6.9-.3-.3-.2.3.2.2.3-.2Zm-9.1-3.1c0 .2-.1.3.1.5q.2-.4-.1-.5ZM9.4 0ZM5.5 14.6c.2-.2.1-.4-.1-.7-.1.3-.2.5 0 .7Zm24.3 1.9.2-.3-.3-.2-.1.3.2.2ZM56 7.2h.1Zm.3.2c.2 0 .3 0 .2-.3h-.4c0 .2 0 .4.2.4ZM30 28.6c.2 0 .2-.1.1-.4l-.5.2.4.2Zm7 .7c-.3-.1-.4 0-.6.1.2.1.4.2.6 0Zm-18.3-6.7h.3c0-.1 0-.3-.2-.4-.1.1-.3.2 0 .4ZM37.6 1.3c-.1-.2-.3-.2-.5 0l.4.4c0-.2.1-.4 0-.4ZM19 2.6v-.2c-.2-.1-.3 0-.4.1.1.3.3.2.4.1Zm22.8 25.5h-.4v.1h.4v-.1ZM51.6 13c-.3 0-.3 0-.5.3.4 0 .4 0 .5-.2Zm-.5.3ZM4 17.3c-.2 0-.2.2-.4.3h.7l-.4-.3ZM6.6 5.8V6c.3 0 .4-.1.4-.3-.2-.1-.4 0-.4.1Zm1.6-4.4.2.5c.2-.5.2-.5 0-.6h-.2Zm22.1.4v-.2c0-.2-.2-.2-.4 0 .1.1.2.3.4.2ZM20.5 32v.2h.5q-.2-.3-.5-.2Zm.1.2ZM17.7 6.3c-.1.3 0 .4.1.4l.2-.1c0-.3-.2-.3-.3-.3ZM0 18.6h.6c-.1-.2-.3-.2-.5 0Zm19 14.3c.2 0 .4-.1.4-.4q-.2.1-.3.4Zm1.6-.7zm-.3.3c.2.1.3.2.5 0l-.2-.3-.3.3ZM49.4 6.3l.2-.4c-.3 0-.3 0-.2.4Zm.2-.4ZM23.3 32.7h-.5c.2.3.4.4.5 0ZM4.5 24.4l-.1.4h.2l.1-.2-.2-.2ZM34.8 10l.2-.3v-.1l-.3.1.1.2ZM15.4 22.9q.2-.4 0-.6v.6Zm12.3-4.7-.1.2.2.2.1-.3-.2-.1ZM4.8 2h-.2l-.2.2.2.2.2-.2Zm24.9 21.2.3-.4c-.2 0-.4 0-.3.4Zm7.5 3.4v.3c.2 0 .3-.1.2-.3h-.2ZM9 14l.3.1V14l-.1-.2-.1.1Zm22.3 13h.2v-.4h-.3l.1.4Zm-21.1-7.6v-.3l-.2.2.2.1Zm13.4 3.8h-.1l-.2.2.2.1.1-.3Zm13.8-4.8c-.2-.2-.4 0-.6 0 .2 0 .4.2.6 0Zm-.6-.1zM20 34.5l-.2.2.2.1s.1-.2 0-.2v-.2ZM42.8 17l-.2-.2h-.3l.3.2h.2Zm5.4-10.5.3.1v-.2h-.3v.1ZM1.5 24c-.2.1-.2.2 0 .4.2-.2.3-.3 0-.5Zm-.9-6.6c0-.1 0-.2-.2-.3v.2l.1.2.1-.1Zm32.6 7H33l.2.4c.2-.2.2-.3 0-.4Zm8.6-4.1.2.2.1-.2-.2-.1Zm-11.5-5.6.3.4c.1-.2 0-.3-.3-.4Zm1.4 13.6c.2-.1 0-.2 0-.3-.2.1-.3.2-.1.4h.1Zm-14.4 4.5-.2-.3c-.1.2-.1.3.2.3Zm19.2-21.7V11l-.3-.2.1.3h.2Zm-9.1 12.3-.2-.2-.1.2.2.2v-.2Zm0 1.8.3-.1v-.2l-.3.2v.1Zm24-18.3v-.3h-.1v.3h.1ZM4 6.5v-.1l-.3-.2v.2H4Zm10.7 3.9.3-.2-.3-.1v.3ZM5.2 18l-.1-.1v.2ZM46 15.3l-.2-.1-.2.1.3.1h.1Zm-32.1-4h.2L14 11l-.1.3ZM23 7l-.2-.2h-.1l.1.3.2-.2Zm1.3 10.3.1.2.1-.2v-.2l-.2.2Zm26.2-8.7-.1-.3h-.1l.1.3h.1ZM6.3 14.7H6l.1.1h.2Zm42.6-8.4v-.2l-.1-.1-.1.1.2.2ZM34.6 23.8h.3l.1-.1-.2-.1-.2.2Zm5.3-.8v.3l.1.1s.1-.1 0-.2l-.1-.1Zm-9.5-9-.1.2v.1l.1-.1V14Zm-7.6 16-.2.1v.1h.2V30ZM42 22.8l.1.3v-.4H42ZM10.7 7.2l.2-.1-.2-.1-.1.1.1.1Zm33.6-4.9v-.1c-.2-.2-.4-.1-.4 0v.4c.2 0 .4 0 .4-.3Zm-4.7 5.5V8c.2.1.4.1.4 0v-.2c0-.2-.2-.1-.4 0Zm-.4-.1v.5c.2-.2.2-.4 0-.5ZM45.4 4v.3h.4c-.1-.3-.2-.4-.4-.2Zm.5.7.2-.3c-.2 0-.3.2-.2.3Zm0 .1ZM24.3.8l.6-.8h-1.2l-.2 1c.3.1.5 0 .8-.2Zm0 0ZM48 2c-.2.2-.3.5 0 .7 0 .1.4.2.6.1.2 0 .3-.3.2-.5l-.2-.6-.3-.3q.4 0 .7-.3c-.3-.3-.7-.2-1-.2l.2.3c-.1.2-.4.3-.2.5V2ZM47 .4c.4.1.9-.2 1.2 0l.1-.4H47v.4Zm-.5 1.4c.1-.4 0-.7-.4-1-.5.5-.3.8.4 1Zm.8-.7c-.1-.4-.2-.5-.6-.5 0 .4.2.4.6.5Z"/><path d="M48 1.8c-.3 0-.5-.2-.7.2l.3.1.3-.4Zm0-.1Zm-4.6 11.9v-.3H43l-.1.5c.3.1.4 0 .5-.2Z"/></g></svg>