<svg xmlns="http://www.w3.org/2000/svg" viewBox="0 0 57.6 57.6"><g fill="#0c2b77"><path d="M52.5.8V.7h-.1l-.1.2h.2Z"/><path d="m52 .2-.3.1.2.4h.5V.6l.1-.3c.2-.3.3-.2.5 0h.2c.3 0 .3-.1.3-.3h-.9l-.4.6-.2-.4Zm.5.6Zm4.1 5.7-.1.3v.5c-.2.4-.2.6.2.8l.8.3c-.1.2-.3.3-.5.3a1 1 0 0 0-.6.3 1 1 0 0 0-.3 1c.2 0 .1.4.3.5.2.2.4.1.6 0l.3-.3c.2 0 .3-.2.3-.3V7.5a1 1 0 0 1-.7-.1c-.2-.7-.1-.8.5-1h.2v-.6c-.5-.1-.8.1-1 .7ZM56 4c-.3 0-.4.1-.5.4v.2c0-.2 0-.4.3-.6h.3Zm.4.8h-.2V5l-.3.1-.4-.4c0 .2-.3.3-.4.1 0 0 0-.2-.2-.2-.2.2-.5.3-.9.2v.4c-.2 0-.3-.1-.3-.2 0 0 .2 0 .3-.2h-.2l-.1.2v.2h.5l.2.1-.2.2-.3.1V6l.2.4c0 .2.2.3.3.5l.1-.2.3.2.1-.2.3.1c0-.5.3-.7.6-.8l.5-.2.2.2.1-.7V5l-.2-.2Zm-3.9 9v-.2h-.2l-.1.2v.3l-.4.2-.4.4c-.1.4 0 .6.2 1 0 .3.3.6.7.6l.3-.2h.3l.3-.4-.1-.2V15c.1 0 .2 0 .3.2 0-.4-.1-.8-.4-1a1 1 0 0 1-.3-.5h-.2Zm.3.4.2.3-.3-.2v-.1Zm0 .6q0 .3-.4.2c.1-.1.2-.4.5-.2Zm-3-10.1-.2-.1-.4-.1c.2.3.5.3.9.3l.2-.1h-.5Zm5.5-1V3l-.2-.3-.2.3c-.2 0-.2.1-.3.3h.4l.4.3Zm.7-.3Zm1 8.6v-.5c0-.2-.3-.3-.5-.4-.3 0-.7.1-.7.4l-.1.3c.2.3.4.4.7.3v.3h.6v-.5Zm.6-9.3v-.2.2Zm-3-2.2.1-.4.2.2h.2c-.1-.2-.3-.2-.4-.2-.2 0-.3.2-.4.4l.2.2h.1V.5Zm2.8 2.9V3H57c-.2-.1-.3 0-.2.2l.1.2c0 .2.1.2.2.2l.2-.2ZM56.7 33h-.3l-.1.4c.3.1.5 0 .6-.1 0-.1 0-.3-.2-.3ZM54 7l.2-.1c0-.3-.2-.3-.4-.4 0 .3 0 .5.2.5Zm3.1 29.4h.1V36s-.1.2 0 .2ZM43 .5h-.3c-.2.2-.3.2-.5.2l-.5.3.2.4h.5V2c.2 0 .3-.1.3-.2l.5.2c-.1.1-.3.3 0 .5h.3c0 .2.2.2.3.1.2 0 .3-.1.2-.3h-.4V2h.4l.3-.9c0-.1 0-.3-.2-.3-.3-.2-.2-.4-.1-.6V0h-.6c0 .4-.1.5-.5.5Zm.3 1.3-.1.2-.3-.3V1h.5c.1.3.2.5 0 .7ZM22 6.3v.4-.4Zm-.9 12.5.2.1v-.1l.1-.2c-.2 0-.3 0-.3.2ZM27.4 0h-.6l-.2.3c.4.2.5-.1.7-.3Zm4.1 15.8h.6l-.1-.3-.5.3ZM22.5 0c.2.1.4.3.5 0h-.7l-.2.3.4-.2Zm3.8 3.4h-.5c.2.2.3.4.3.8l.2.2.5-.4.2-.6.5.2V3l-.5.2c-.2.3-.4.2-.7.2Zm-4.9 15.2Zm9.9-17.4.2-.2c-.2 0-.3-.2-.5-.3l-.4.2v.4l.5.2c0-.2 0-.3.2-.3Zm17.2 8.2H48v.6c.3-.2.6.1.8-.1-.3 0-.3-.3-.3-.5Zm-12.7-4v.2l.5-.1v-.2h-.7ZM25.6 3c0-.3.4-.5.7-.5l.1-.3h-.7l-.7.4c.2.2.2.6.6.5Zm-.8 8.2-.4.2c.2 0 .4.2.4-.2Zm2.4 2.3-.2.1h.2Zm9.2-3.7v-.1c-.2 0-.2.1-.3.2l-.2.4c-.7-.1-.7-.1-1-.5h-.2l-.1.8v.3c.3 0 .4 0 .5-.3 0 .5 0 .5.3.5h.2c0-.2.1-.3.3-.3.2-.1.3-.2.3-.4l.2-.1.3-.4.1.2h.1l.5.9.6.1-.3-.2-.2-.2h.1l-.1-.1c.1-.4.4-.1.6 0l-.2-.7h-.1c-.4.2-.7.1-1-.2h-.4Zm-6.7-3.3c-.3 0-.5-.2-.7-.5l-.3-.3-.1-.2h.7l.1-.3-.3-.9c-.1-.3-.4-.3-.7-.5L28 4v.2h.4l.2.6h.3l-.3.8c-.2 0-.4.2-.5.3l.1.5c.4.3.4.6.3 1v.3h.3c.6-.1.8 0 1 .6h.2l.3-.3-.7-.8.1-.5Zm-.9.6q.4 0 .4.4-.4 0-.4-.4Zm0-4.7-.2.2c0 .4.4.4.7.5v-.3l-.5-.4Zm-6.3 4.5h.1c0-.3.3-.4.6-.5l.2-.2-.6.2-.3.5Zm11.2-4.6.3-.5h-.1l-.3.1.1.4ZM39.1 8l.4.2.3-.5-.5-.1-.2.4Zm8.3 2.3.1.4h.5v-.1l-.2-.4-.5.1Zm-11-8.5c0-.1-.2-.2-.4 0-.2.1-.4.3-.3.7.4-.1.7-.3.7-.7ZM44.8.3c.1 0 .3.1.3.3 0 .2.2.2.4.2-.1-.3-.1-.6 0-.8-.1.1-.3.3-.5.3l-.2-.3h-.3l.1.1.1.2ZM17 1c0-.3.1-.5-.2-.5l-.1.7h.2L17 1ZM33.2.6V1h.4l.2-.5.1.2V.6c-.4-.3-.4-.3-.2-.5l.1-.1h-.5v.6Zm-3.7 9.1h.3l.7-.3.4-.6c-.4.1-.8 0-1.1-.3l-.1.2-.1.3v.6Zm-9.1-7.1v.1h.1-.1ZM44 4.5l.4-.3c-.5-.3-.9-.2-1.1.1-.1.2-.3.3-.5.3s-.3 0-.2.3l.5.3c.2-.3.5-.6 1-.7Zm-12-4-.2.4-.2-.2V1c.3-.2.6-.3.9-.2V0l-.2-.1h-.7v.2c.2 0 .4 0 .5.3Zm-5.8 12.8c.2 0 .3.3.5 0V13H26v.3ZM32.3 2l-.1.6.2-.2v-.8h-.2v.5Zm-9-1.3-.4.7-.2.4c0 .3.2.5.5.7l.3.2.2-.3h.1l-.1.4.3.2h.2c.2-.2.3-.3.2-.5H24c.5-.5.9-1 1.6-.7q.3-.3 0-.6v.2c-.2.2-.5.3-.7.2-.2-.1-.3-.3-.1-.6 0-.3 0-.3-.2-.5l-.1.7-.6-.1c-.3-.2-.5-.5-.6-1h.4-.6c0 .2 0 .5.2.6Zm21.5 13 .4.3c.1-.1.3-.3.3-.6l-.7.3ZM16.4 1.3l.1-.2c-.1-.4-.4 0-.6 0V.6c.3-.2.3-.2.2-.6-.4.1-.6.3-.9.5l.1.5c.3 0 .4 0 .6.2h.5Zm1.3-.7Zm21.6 1.8-.4-.1h-.1l.2.4.3-.3Zm-.4 2.8c-.1.2-.1.3 0 .4l.2-.2c.5-.2.5-.6.6-1V4l-.8-.8-.3.1c0 .3-.3.4-.6.6l-.1.6 1.3.3c0 .3-.2.3-.3.4Zm-.3-.6v-.3h-.3l.3-.6h.3V4h.5v.5c-.3.1-.5.2-.8 0Zm-3.4 1.8-.1.2h.2c.2.2.1.4 0 .6l-.4.2c0 .3.2.5.3.8h.3l.1.1v-.2l.2-.2v-.1c0-.2 0-.5.3-.4V7l.1-.3c-.4 0-.6-.2-.9-.4Zm9.8.7 1-.1h.3c.1.3.3.3.5.3.3 0 .5.2.5.5l.1.3L47 8v.6h.4c0 .3 0 .5-.2.7-.2.2-.4.2-.5 0l-.1-.2a1 1 0 0 0-.7.3l1.3.6c0-.3 0-.6.4-.7.2-.1.4-.4.4-.7V8c.2-.1.2-.3.1-.5l-.5.1c-.2-.5 0-.7.3-1 .4.1.6 0 1-.2v-.2c0-.3.1-.7-.2-1-.2.3.3.7 0 1h-.5l-.5.1c-.2.2-.4 0-.5.2H47c-.2-.1-.3 0-.4 0-.4.3-.8.4-1.3.2l-.2-.1-.2.2v.3Zm2.8.8-.2.2.2-.2Zm-.5-1.2.1.3c-.2 0-.2-.1 0-.3Zm-9.1 1-.1.1.2.2v-.2s0-.1-.1 0Zm-1.5-4.1c.1.3.3.5.5.4l.3-.3c-.2 0-.3-.2-.5-.3l-.3.2Zm.3 4.6Zm9.4-.8h-.2.2ZM31.3 4.6l.4.8v1c.3 0 .7.3.7.8.4-.5.8 0 1.2 0l.2-.6c-.2 0-.3-.1-.3-.3h-.2c-.1 0-.2 0-.2-.2s0-.3.2-.3h.3v-.6c.2-.3.5-.3.7-.3v-.1c-.2-.1-.5-.3-.8-.2l-.3.4c-.3.5-.7.5-1.2.1l-.3-.3c-.1-.2-.3-.2-.4-.2ZM32.9 7c-.2 0-.3-.2-.3-.4.2 0 .3.1.3.3ZM25 8l-.1.5V9l-.5.3.4.2c.4-.3.8-.5 1.3-.3-.2 0-.4 0-.5-.3l.1-.1c-.3 0-.4-.1-.4-.5l.6.2c.2-.2.5-.4.8-.3V8c-.2 0-.2-.1-.2-.2l-.2-.1c-.2-.1-.3 0-.3.1 0 .2 0 .3-.2.3s-.3 0-.4-.2v-.2c-.3 0-.5.2-.5.4Zm17.9-.6c.2.3.6 0 .7.3l.1.1h.3c.2-.3.4-.3.7-.1l.2-.5h-.5l-.2.2-.6-.3-.3.3-.2-.7-.2-.1c-.4 0-.8.1-1 .6h.2c.2 0 .6 0 .8.2Z"/><path d="m47.3 6 .4-.1c0-.7 0-.7-.4-.6l.1.3c0 .2-.2.3-.1.5zm-2.7-3h-.1l.2.3V3zM24 6.4l.8.8c.2-.1.4-.3.6 0v.5l.3-.2c0-.4-.3-.6-.6-.7L25 6c-.2-.3-.1-.7 0-1l-.1-.3c-.1-.2-.3-.1-.5 0-.1 0-.2.1-.1.3v.3l-.1.4-.2.5v.2zm6.5-2.5-.2.1q.4.6.7.5v-.3h-.1l-.3-.4h-.1zm-2.7 5.2-.5.3h.1c0 .3 0 .6-.2.9l-.1.2-.3 1.1c.1 0 .3 0 .5.2v.3c.3 0 .5 0 .7.2l.3.1c-.1 0-.4 0-.4-.3l.5-.8h-1l.5-.8c.2-.2.6-.2.7-.5l-.6-.3c0-.3.2-.4.4-.6L28 9l-.3.2zm-14 2.4c-.2 0-.3 0-.3.2l.3.2.3-.1.1-.2-.4-.1zm.2-1.2h.2l-.2-.1zm.5 2.9-.8-.3.1-.2h-.2v.1c0 .1 0 .3-.2.4l-.2-.3-.7-.5-.7-.6v-.2l-.1-.8c.4 0 .4-.1.6-.4h-.1v.2H12c-.2 0-.3 0-.4-.2v-.1l-.2-.4-.3.3-.2-.2c-.2 0-.3.4-.6 0l.3-.5c-.1 0-.3 0-.5-.3L9.8 9h-.2c0 .3 0 .6-.3.9-.2.2-.5.2-.7.1a.55.55 0 0 0 .3.5l-.4.2.1.6c.4 0 .5.3.7 1H9l.2.4h.4c.3 0 .3-.1.4-.4 0-.2-.3-.2-.4-.3.1-.2.2-.2.4-.2l.4.2c-.2-.5-.3-.9-.1-1.3l-.5-.1c.4-.2.7 0 1 0l.3-.1c.4 0 .5 0 .6.2.2.6.2.8-.3 1L11 11c0 .2 0 .4.2.6l.4.4c0 .3.2.4.3.5V12h.2v.3l-.1.1.4.2.4.2-.1.2h.2l.1.1c0 .3 0 .2.2.3l.1.2-.1.1c-.2.2-.3 0-.4-.1v.2l.1.2.2.1.2.2c.1.1 0 .3 0 .4l-.3-.1-.3.1c0 .2.1.4.4.4.2 0 .2.1.3.2l.2.2c0-.2.1-.3.3-.3v-.4l.4-.2.5-.1c0-.2 0-.3.2-.4-.2 0-.3.1-.4 0 0-.3-.5-.6-.2-1h.6v-.5c0-.3.2-.5.4-.6a.6.6 0 0 1-.3-.3c-.2 0-.4.2-.5.4.2.4.1.7 0 1zM14 1.4zm-1.7 3.8V5l-.1.1h.1zm.5-3.9h-.4v.2c.2 0 .4 0 .5.2.2.2 0 .3-.2.5.5-.3.6-.4.5-.9h-.4zm-2.3 6 .2.2V7l-.3-.2c-.4-.1-.7 0-1 .4v.2c.1.3.4.3.7.4 0-.2.2-.4.4-.5zm1 1.7c-.1-.3 0-.4.3-.5V8h-.1v-.1l-.2-.3-.2.2c-.4.5-.4.5-.2 1V9l.2.1h.2zm0-1c.1 0 .2 0 .2.2l-.1.1c-.2 0-.2 0-.1-.2zm2.9-5.3-.2.5c0 .2-.3 0-.4.2l-.2.1c-.3-.2-.2-.5-.3-.8l-.2.3c-.4.2-.4-.2-.6-.4-.3.3-.6.5-1 .5h.2l.4.4c0 .3.2.3.4.2-.2 0-.2-.2 0-.5l.3.1c.1 0 .2.1.2.3l.1-.1v.3l-.2.4v.1h.3l.1-.3c.2 0 .3.1.3.3h-.3c0 .3-.2.6.1.8l-.7.3v-.1h-.1l.1.3.7-.4.3.2.4-.7h.2l-.1-.6.2-.6.2-.2v-.5l.4-.1h-.6zm-.5-1.2v-.1h-.1zm-2.6 5v.3l.1.2c.2 0 .3-.3.4-.3l.1-.8c0-.2-.1-.3-.3-.4-.4 0-.5.2-.7.4h.2c.2.2.3.3.2.6zM12.5 9zm2.9 3v.1c.2.2.2.3.2.5h.1l.1-.6-.1-.2h-.1l-.2.1z"/><path d="M14.3 4.6c.3.3.3.5.2.8l-.3.3.4.1V6h.2v.3c0 .3 0 .3.2.5l-.6.3H14c-.3.2-.4.1-.5-.2l-.1-.2c-.2 0-.3 0-.4-.2-.2.3-.4.5-.7.5l.6.5V8l-.4.2v.2l.4-.2c.3.1.6.2.7.6l-.3.7.5.1.3-.6c0-.2.2-.4.4-.2l-.1.2.2.1v.1l.1-.1h.1l.2.1.2-.3c-.4 0-.6 0-.8-.4h.2l-.1-.2v-.1l.2.2c.1-.3 0-.6.3-.8l.5.3V8c.1.1.1.3 0 .4v.3c.1-.1.1-.4.3-.4h.5V8l.3.2-.1.2.2.4h.2c.2 0 .4-.2.5-.3l.4-.2.2-.2.2-.2c-.2 0-.3-.2-.3-.4s.1-.3.2-.3l.1-.3c-.2-.3-.5-.6-.6-1-.2.2-.4.3-.3.6H17v.2h-.4l-.3.2v-.2l-.2.1-.1.8h.1l-.2.4v-.3c-.2 0-.3 0-.4-.2 0-.3-.3-.1-.3-.3l.2-1c.3-.1.2-.6.6-.8l.4.3c0-.3.3-.4.4-.5h.3c.3-.3.1-.6 0-.9H17l-.3-.2c-.5.3-.6.3-.8-.2l-.2-.2-.5.1v.5c-.3.3-.6.2-1 .2zm-1 2.6h-.1V7l.2.1v.1zm.6.8-.5.1c0-.3.2-.4.4-.4l.2.1V8zm.5-.2h-.1l.1-.3.2.1-.2.2zm3-1.1q.1.1 0 .4-.2-.2 0-.4zm-.2.9h.1v.2H17l-.1-.2h.2zm-1.6-1.9v-.2c0-.2.1-.3.4-.2l-.3.4zm.2-1.2c.2.3.2.5-.2.7h-.2l-.1-.3c0-.2.2-.4.5-.4zm33.5-4c0 .2-.1.3-.3.4l-.4-.1a2 2 0 0 0-.5.5l.2.5c.3.4.6.6 1 .3l.2-.1v.2h.2c.3 0 .5.1.8 0 .3 0 .4.2.3.5 0 .1-.1.3 0 .4v1c-.1.4-.6.4-1 .5h-.2.7l.5-.1c0 .4.6.3.7.7L52 5c.2-.2.2-.2.4.1l-.6.4.3.6c.2-.2.4-.2.5 0-.2.2-.2.5 0 .8q.4-.2.4-.5h.1c.7 0 .7 0 .8-.6l.1-.2h.3l.2-.3-.2-.1h-.6a11.8 11.8 0 0 0 .2-.5h.2c.4.2.7.1 1-.1l.2-.4c-.2-.2-.2-.6-.5-.8l.1-.4h.2v-.2h.1l.1.3v.4l.1.2.4.3.2-.6c.3 0 .5-.1.7-.3v-.6l.1-.9.4.2.2-.2h-.1l-.2-.3-.1-.1h-.2v.4l-.2-.3c-.3.3-.5.5-.8.6-.2 0-.4 0-.5-.2H55c-.4 0-.6-.2-.5-.6l.1-.4V.6l-.3-.1-.2-.2H54l-.7.4v.2c0 .2-.3.4-.5.4s-.2-.2-.3-.3V.8h-.2a1 1 0 0 0-.2.5l-.2.4c-.3.1-.6.3-1 .1v-.2c0-.3 0-.4.2-.6 0-.2.3-.3.5-.3h.3l-.3-.4c0-.1 0-.2.2-.2l-.1-.1h-2.5l.1.4zM51.7 3l-.5-.6.3-.1c.3.7.5.8 1.2.7v-.5l.3-.3c.3-.3.4-.6.5-1l.5.1.1.7.8.3.1.5-.5-.2c-.4-.1-.7-.1-1 .2v.3l-.1-.1-.2.3.4.4c-.3.2-.6 0-.9-.2l-.7.9c-.1-.2-.5-.1-.6-.3H51c-.1-.5.6-.6.6-1zM55.1.2h-.2l.2.2.6-.2.4-.2h-.6l-.4.2zm1.4.8h.3l.1-.2c0-.2.3-.4.4-.5l.3-.2V0h-1.3c-.1.3.1.6.2 1zm-8 2.2c0-.2 0-.3.2-.5h-.5v.5l-.4.3c.1.4.5.5.8.7l.3-.1v-.4c-.2-.2-.4-.3-.4-.5z"/><path d="m57.2 3.6-.7.5c-.1-.2-.3-.1-.4-.1h-.3l-.3.6v.1c.2 0 .2 0 .4.4h.3v-.4l.2.1.1.2.1.2c.1.2.2.3.4.3.3 0 .4.1.5.2l.1.1V3.1l-.2.3-.2.2ZM13 23.4c.1.5.5.7.7 1l-.3.6c.5.5.6.6 1.1.3l.5.2.5.1c.3 0 .4 0 .6-.3l.1-.2v.7l.1.4.2-.2h.5c.2.2.2.4 0 .6-.2.2-.5.2-.6 0l-.1-.2c-.1.4-.1.7.2 1 .4 0 .7-.3.7-.7l.4.1.2-.5-.7-.3c.5 0 .6-.3.9-.5.2-.1.2-.3 0-.5l-.3-.3h-.4c-.3.3-.6.3-1 .3-.2-.5.4-.5.5-.7 0-.2-.2-.3-.3-.3-.2 0-.4-.2-.5-.3-.6-.4-1-.3-1.4.2l-.3.5a.5.5 0 0 1 0-.7v-.4c-.1-.2-.3-.5-.6-.5-.3.1-.3.6-.7.6Zm9.8-3.9c.3.4.9.6 1.3.5l.2-.1c.3-.3.6-.2.8-.1l.2.1v-.5H25l.3-.3-.2-.1-.2.2c-.4.2-.7.1-1 0-.2 0-.3 0-.4-.2a3 3 0 0 0-.3-.6l-.1.1c-.3.2-.3.6-.6.8l.2.2Zm3.2.3c.2 0 .3 0 .4.4h.1c.6.1.7-.1.8-.6v-.8c-.3-.3-.3-.3-.7 0h-.2l-.2-.1c.3-.3.6-.5.7-1l-.1-.2V17l-.2-.3a.6.6 0 0 0-.6-.4l-.4.2h-.1l-.2.2v-.2l-.3-.1s-.2.1 0 .3v.8c0 .3.2.6.5.7l.5.3-.2.4-.2.4h.3v.4Zm-2.3 1.5c-.7.5-1 1 0 1.7l.1.2c.2 0 .3 0 .5.2.3.3.6.3.8 0l.6-.7c.1.2.2.4.1.6l.1.7c.2.3.4.5.8.6.2-.2.5 0 .7-.1.1-.2.2-.4.1-.6l-.1-.4c0-.5-.4-.6-.8-.7a1 1 0 0 1-.6-.2l-.3-.1q.2-.3.2-.8c-.2 0-.3-.2-.5-.3h-.1c-.3-.1-.4-.2-.5-.5l-.2-.3c-.2 0-.4 0-.5.2.1 0 .1.1 0 .4l-.2-.1-.2.2Zm-13.1 1Zm1.8 1.1h.1v-.2c-.2-.3-.4-.3-.5 0 0 .2-.3.2-.4.2.2.2.5.1.8 0Z"/><path d="m10 22.9-.5.2v.2h-.2c-.1 0-.2.2-.1.4L9 24l-.2.3v.1H9l.1.3c.2.2.4.4.8.3h.3c.1.2.3.1.5.1s.2-.3.4-.4l.2.3c.2.2.4.3.7 0h.3l.8.2-.1-.4c-.6.3-1.3 0-1.3-.6 0-.4-.2-.5-.4-.7l-.4.3v-.2l.3-.3c-.1 0-.3-.2-.2-.3.3-.3 0-.5.1-.8h-.5c0 .4-.2.6-.5.6zm.4 1c-.2.4-.4.3-.6 0l.3-.3h.3v.3zm.3-1.1-.2.1v-.2h.2zm-3.4-9.7h-.6v.3l.1.2c-.4.2-.8.2-1 .4h-.3l-.2-.1a.55.55 0 0 0-.3.5q.2-.2.6-.2c0 .7 0 .8-.4 1 .1.2.4.2.6.3a.55.55 0 0 0 .5-.3c0-.2.2-.2.4-.3h.8l.2-.1.5-.1c.3-.3.6-.6 1-.4h.1c.2 0 .3-.2.2-.3l-.2-.3v-.1c-.2 0-.4 0-.4-.2V13H9l-.1-.3-.3-.2v.2h-.4v-.4a1 1 0 0 0-.6 0l-.2.1v.7zm1.3 0h-.3.3zM8 13c-.2.4-.3.4-.6.1q.2-.2.6 0zm25.3 8.8.2.4c-.2.3 0 .6 0 .9l.5.2.1.2c0 .2.2.2.3.3l.1.4.2.3.5.4h.3l.7-.7-.4-1.7-.5-.1.1-.6c0-.6-.7-1-1.3-.6a1 1 0 0 1-.6.2c-.3 0-.4.2-.2.4zM.1 6.4l.3.2h.5s.2-.1.2 0h.1c.5-.1.9-.6.8-1.3.2-.3.6-.5.3-1-.4 0-.8.3-1-.2H1l-.6-.2a.55.55 0 0 0-.5.3v2l.1.2zm22 16.2h-.6c-.2-.1-.4 0-.5.2s0 .5.2.6l.4.1c.1.1 0 .4 0 .4-.4 0-.5.3-.6.5-.2.5-.2.7.3 1 .2 0 .5.3.8 0h.6l.7-.2V25l-.1-.3c.2-.3.1-.6.2-1-.4 0-.6-.4-.5-.8-.3-.2-.5-.4-.9-.3zm-.8 2.7-.1-.4.3.2-.2.2zM56.9 7.4c.2.1.5.2.8.1v-1l-.3-.2c-.6.3-.6.4-.5 1zM10.3 4zm-.5.1c.1.1.2.3.1.5.2 0 .3-.1.4-.4v-.1h-.4zm.5-.6v-.7h.2l-.2-.4-.3.4-.2.5H9c0 .2.1.4.4.5l.5-.1.3-.1.2-.2h-.2zm-.1.3H10zm23.9 16c0 .4.7.5.8 1 .3 0 .5.3.9.2.2 0 .3 0 .4.3v.2c.6-.1.8-.5 1-1 .3-.3 0-.7 0-1.1l-.7.2H36a.5.5 0 0 0-.7 0c-.2-.2-.3-.5-.7-.6l-.5.7zM53 21.5c.3.3.3.3.4.7 0 .3.2.6.6.6.1-.3.3-.6 0-1v-.6l.6.3c-.1.2-.4.2-.4.5l.7.6c.1.1.3.1.4 0l.6-.3c.2-.2.1-.3 0-.6l-.1-.2c-.1-.3-.3-.4-.5-.4h-.4v-.6c-.5.2-.8.1-1 .3l-.7.3-.2.4zm-11-3.1c.2.3.3.6.7.6l.3-.4c.2-.2.4-.2.6-.2l.2-.2c0-.3-.1-.6.1-1v-.6L43 16l-.4.8c-.2.1-.2.3 0 .4l.2.5v.1l-.7-.4-.2.6v.4zM38.4 16l.4-.2v-.4c-.1-.3-.5-.4-.6-.7-.3 0-.5.3-.8.2 0 0-.2 0-.2.2v.3c-.4.2-.5.5-.4.8 0 .2.4.4.7.3h.8V16zm10.5-2.6.3.4c.1 0 .3.1.4 0 .3-.1.3 0 .3.2v.3h.5l-.1-.5V13c.4 0 .7-.2.8-.6l.4.2c.1-.3 0-.5-.2-.7-.2 0-.5 0-.6-.2-.1-.4-.3-.4-.7-.3v.6c-.3.3 0 .6 0 1-.2 0-.2.4-.6.3l-.2-.4c-.3 0-.3.2-.3.4zm-20.6 6c-.1.2-.3.3-.2.5s.1.5.4.6h.7c.2 0 .5 0 .6-.3l-.2-.6.2-1c-.3-.3-.6-.2-1-.1-.2 0-.3.1-.3.4s0 .4-.2.6zm-17.8-.8v-.2h-.3v-.2l.2-.2c-.1-.3-.2-.5-.5-.6v-.2l-.4.2c-.3 0-.4.3-.6.5-.1.2-.5.1-.6.5l.4.3c.2 0 .3-.3.4-.1.2 0 .3.2.4.3l.2-.2h.2v-.1c.2 0 .3.2.4.3s.2.1.4 0c0 0-.2 0-.3-.2l.1-.1zm-.5-.2-.2-.1.1-.1.1.2zm39.2 5.5c.3 0 .5.3.6.6.5 0 .8-.4.7-1h.3v.3q.7 0 1-.4l-.6-.6v-.4c0-.3 0-.3-.4-.4v.4c.3 0 .2.2.1.3-.3 0-.6 0-.8.4-.1.3-.3.3-.6.2l-.3-.2H49l.2.8zM6.1 27c-.2.2-.5.2-.7.1l.1.6c0 .3 0 .4.2.5l.5.3c.4.2.6 0 .8-.3l.1-.3v-.3c0-.4-.2-.7-.6-.8h-.2L6 27zm25.2-9.9zm-1.2 1.2h.2l.5.3.2.4.5-.3.1-.2a1 1 0 0 0 0-1c-.2-.1-.2-.2-.3-.4-.2 0-.3 0-.4-.2l-.2-.2c-.2.2 0 .5-.3.7 0 .3 0 .6-.3.9zm-11.8-4h.1l-.4-1.1h-.2c-.2.2-.2.4 0 .8.1.2.2.3.5.3zm-6 1.5h-.1v-.3h-.4v.3c.2 0 .2 0 .2.3h.1c.2 0 .2-.1.3-.3zm-2.3-1-.2.1h.1zm.4.8h.2-.2zm.8-.4h.2l.1-.3-.2-.2-.6-.4.4 1h.1zm8.4 6.9c-.6.6 0 1 .3 1.5l-.5.2c-.2.7-.1.9.7 1 .2-.5.2-.6 0-1.1l.4-.3c0-.2-.1-.3 0-.4.1-.3 0-.4-.2-.6s-.5-.2-.7-.2zM3.9 19.6l-.2-.2a1 1 0 0 0-.1.8l.5.1.7.5c.2 0 .3-.3.5-.2s.4 0 .4-.2 0-.3-.2-.4l-.8-.5a.5.5 0 0 1-.2-.4H4c.2.2 0 .3-.1.5zm.4.5h-.2v-.2c.1 0 .2 0 .2.2zm3 1v.3c.2.3.6.4 1 .3l.4-.4-.3-.3.2-.2v-.4l-.5-.3h-.3c-.5 0-.7.6-.5 1zm10-10h.2v-.2l.2-.1v-.1c-.1-.1-.3-.2-.4 0h-.2l-.6-.1c-.2.2-.5.3-.6.6 0 .4.1.7.4.9V12h.9c.1-.3.3-.6 0-.9zm-.5-.2h-.2v-.2h.2v.2zM41 21.3c-.2 0-.6.3-.7.6l.3.6c.2.1.4.3.6.1l.6-.3c.5-.1.6-.4.3-.9h-1zm8.7-5.5h-.2v.4h.4c.2.3.3.7.8.6 0-.3.3-.7-.1-1 .4-.5.4-1 0-1.4l-.5.4c-.3.2-.4.3-.2.6.1.2.2.3 0 .4h-.2zm4.6 2.7-.1.7c.2 0 .2.3.4.3s.4 0 .5-.2l.4.4c.4.5.7.5 1.3 0-.2-.4-.5-.6-1.2-.5a.47.47 0 0 0-.5-.5c-.2.1-.3.3-.6.1 0-.1.1-.3-.2-.3zm-4.3 1c.2.6.5.8 1 .5h.3q.2.2.4 0l-.4-.5c-.1-.3-.3-.5-.6-.7l-.6.3-.2-.4-.6.3c.2.7.3.7.8.5zm.7-.7zm-37.8 0c.2 0 .4.1.4.4h.5l-.1.3v.4h.2l.2-.9c0-.5 0-.5-.5-.6H13l-.1.4zm31.9.1v.5c.1.3.3.4.5.5h.9c.2-.7-.1-1.2-.8-1.3l-.4-.1-.2-.1v.5zM7.6 3.3l.7-.3v-.2c-.4-.1-.6.2-.8.5H7h.5zm-.3.7c0-.2-.1-.3-.4-.4v.2l.2.3.3.2.3.1-.4-.4zm-.6-.2-.4-.2v-.2c-.2.3-.2.4.2.8l.1-.3v-.1zm32.3 14c0 .3 0 .4-.4.5-.2 0-.2.6 0 .8.1.3.5.4.8.2l.5-.4v-.5l-.7-.7-.2.1zM27.1 21v.3c.4.7.6.7 1.2.3.3-.2.3-.5.2-.8-.2-.3-.5-.4-.8-.3-.3 0-.6.2-.6.6zM52 8.6c.3 0 .5 0 .6-.3.2-.3.2-.7.2-1l-.1-.2-.4.3c-.2 0-.3 0-.5-.2-.2.4-.5.8-.3 1.2l.6.2zM9.1 30.1l.1-.5c0-.2.2-.3.5-.3l-.6-.1c-.3-.1-.4 0-.5.2v.2l.3.1v.7c.3.1.6 0 .9-.2h-.7zm4.8-13.7c-.3 0-.5.2-.7.3l-.3-.2c-.5.3-.5.6-.2 1.2h.1c0-.3.1-.5.3-.6 0-.4 0-.4.5-.4v.1l.3-.1v-.2zm40.2 8.2c.6-.4.6-.5.3-1-.6 0-.7.2-.6.7v.5c-.2.7 0 .9.7.9.3-.6.2-.7-.4-1zm-26.1 0c-.2.2-.1.6.1.7l.3.2c.4-.1.5-.3.5-.6h.3l.1-.1v-.2c0-.4-.2-.5-.5-.5-.5 0-.6.2-.8.5zm27.6-9.4c.3.2.6.3.8 0l.3-.3c.1-.3 0-.5-.2-.7-.4-.2-.5-.2-.8 0l-.5.6.4.4zM.5 18.3v-.1H.4h.2zm-.2-.6v.1h.4v-.2c.2-.4 0-.7-.5-.7H0v.7h.3zm.1 6.7v.2H.1v.4l.2.1H1v-.3l.3-.3.1-.3L1 24c-.4-.2-.6 0-.7.3h.2zm40.2-5.2h.5c0-.2.4-.3.2-.6l.1-.1c.2-.3.2-.4 0-.6s-.4-.2-.6 0c-.3.4-.4.8-.2 1.3zM55.9 6c-.4 0-.7.2-.6.6v.1l-.1.3.1.1h.2c.4 0 1-.6 1-1V6l-.2-.1-.4.1zM10.6 22.3z"/><path d="M9.8 21.7h-.5v.2c.2 0 .3 0 .4.4h-.2c.1.2.3.3.7.4.1-.3.1-.3.4-.4l.2-.3c-.3-.3-.5-.7-1-.3Zm12.7-5v-.3l-.1.1-.2.2c.2.2.4.4.4.6-.1.3.1.4.3.5h.1l.3-.6v-.6c-.3.1-.5.2-.8.1Zm-18.2.9v.6c.2 0 .4-.2.7-.7l-.6-.2H4c-.2 0-.4.2-.5.6.1 0 .2 0 .3-.2.2-.1.3-.2.5 0Zm3-11 .1.5h.2l.2-1c.2 0 .4 0 .5-.3-.2 0-.4-.1-.4 0-.3.3-.7.2-1 0-.3.4-.3.6 0 .9l.4-.1Zm24 13.9c-.2.1-.4.4-.3.6 0 .3.3.6.5.6v-.4l.4-.6c-.2-.2-.4-.3-.6-.2Zm-19.9.5.5.3c0-.2 0-.3.2-.4.2-.3.2-.5 0-.8H12l-.1.2V20c-.2 0-.3 0-.5.2-.3.3-.3.6.1.8Zm.6-.4.1.1-.1.2h-.1l.1-.2Zm40.5 5-.4-.4c-.2.1-.4.2-.3.5 0 .2.2.3.4.3h.8l.3-.7-.4-.1-.4.3ZM7 2l-.2-.7-.6-.4c-.4.4-.4.6 0 1.1h.7Zm10.5 7.7v.1l-.2.3h.2c.2-.1.1-.3.4-.3l.1-.2c-.2.2-.4.2-.6 0Zm2.7 4.7h-.1c-.2.2-.2.3 0 .5h.2l.2-.2.5-.1.4-.3-.2-.2c-.2-.1-.3-.2-.5-.1v.1l-.5.3Zm-19-1.7c0-.1 0-.2-.2-.3l-.3.1v.4c.2-.2.3-.3.5-.2Zm1.4 6.1v.1l.2.4h.6l-.1-.1c-.1-.4-.5-.3-.7-.4Zm46.9-1.4.5.6c.4-.3.4-.5.1-1-.1-.3-.2-.3-.8-.1l.2.4Zm.4 7.7c.5.4.8.4 1.3-.2-.9-.5-1-.4-1.3.2Zm-18-6.6v.7c.5.2.7.2.8-.3l-.2-.7c-.3 0-.5.1-.6.3Zm5.4.5c0 .3.3.5.5.4.3 0 .6-.3.5-.6 0-.3-.2-.4-.4-.3-.4 0-.6.3-.6.6ZM57 11.5v.4c-.1.2 0 .4 0 .4h.1c.3.1.3.4.4.4h.1v-.8c0-.2-.2-.5-.5-.4ZM53 15l.1.5.2.1.1.2c.2.1.3.1.4 0l.3-.9v-.3c-.4.1-.5.4-.7.6l-.2-.2H53Zm-32.4 5h-.3v.3l-.2.5c.7.2 1 0 .9-.7h-.4v-.2ZM13.2.4 13 0v.2h.2Zm.1.2V.5v.1Zm-.6.2V.7h-.3.3Zm1.7 20.1c.2 0 .4-.1.4-.5V20c-.1-.2-.3-.2-.5-.2-.2.1-.3.3-.3.7.1.3.2.4.4.4ZM7.6 25v.4c-.1 0 0 .2 0 .2H8l-.1-.4.2-.2v-.5h-.5c-.2 0-.3.2-.2.5h.1v.1Zm15.1-4.9v.1Zm30-1.7c0 .2 0 .4-.2.6l.8.1c.2-.3.2-.6 0-1l-.6.3ZM1.5 15.2v-.4.5h.3c.3.3.3.3.5 0-.3 0-.5 0-.8-.2Zm7.4 5 1 .2-.3-.3-.1-.2-.6-.5c-.3.4-.3.7 0 .8Zm43-3.6h-.4l-.1.3h.5v.4c.5.1.6.1.9-.5l-.3-.2c-.2.3-.4 0-.6 0ZM55.5 27v.7c.6.2.7.1.9-.2l-.3-.5h-.6Zm-2.9.9-.5.4c0 .4.4.4.6.6l.3-.8-.4-.2Zm-4-6.4c-.2 0-.4 0-.6-.3h-.2c.1.2.3.3.3.5 0 .3.1.5.5.5.2 0 .3-.2.2-.6h-.2ZM5.6 7.6l.3.3-.1.4c.3-.2.4-.5.4-.7l-.5-.2-.1.2Zm3.1 9.8ZM44 21.5c0 .4 0 .5.3.8.4-.4.4-.4.3-1q-.4 0-.5.2ZM25.6 21v-.6l-.4-.3c-.3.3-.4.5-.2.7.2.2.4.3.6.2ZM52 .2c0 .2 0 .3.2.4l.4-.6H52v.2Zm-3.6 23.4c0-.3-.2-.4-.4-.5-.3 0-.4.3-.4.6 0 .1.1.2.4.3l.4-.4Zm7.6-.1v-.2h.2l.2-.2c0-.3-.2-.3-.5-.2l-.4.3-.2.2.1.2c.2.2.4.1.5 0ZM4.2 3c.2.1.3 0 .4-.1l.2-.4c-.2-.2-.3-.4-.5-.3l-.2.3c-.2.3-.1.4.1.5Zm12.5.2c-.3-.1-.6-.6-1 0l.7.6v-.5l.3-.1Zm31.1 16.4v.4c0 .1.2.2.4.1l.3-.1v-.6H48c-.1 0-.3 0-.3.2Zm.6-.2Zm.1.6ZM38 22.7l.2.2.2-.3c0-.3-.3-.3-.6-.4-.1.2-.3.3-.2.6.1.1.3.1.4-.1ZM54.4 6.8c-.2.3-.1.4.2.8.2-.1.3-.4.3-.6l-.1-.2-.3-.2-.1.2Zm-.6 10 .5.1c.1 0 .3 0 .3-.2l-.1-.5c-.3.2-.7 0-.7.6ZM53.9 0h-.2v.1L54 0Zm-7.1 23.3h-.3c-.3.2-.3.6 0 .8h.3l.2-.4-.2-.3ZM10.6 30c0 .3 0 .5.2.5s.3 0 .4-.2c.1-.1.1-.2-.2-.5l-.4.2Zm26.8-16.4h.2c-.1-.2-.3-.2-.6 0 0 .2 0 .3.2.4l.2.1v-.5Zm19.4 4.9h.1c.4-.3.4-.4 0-.7l-.6.3.5.4Zm-39.5 4.8.3-.4-.3-.5c-.3 0-.4.2-.4.4 0 .3.1.4.4.5Zm1.4-1.2.2.2.4-.4-.3-.3h-.2c-.2.2-.2.4-.1.5Zm26-4.5c0-.2-.1-.4-.4-.4l-.3.6c.2 0 .4.2.5.1.2 0 .3-.2.2-.3Zm6.2 2.9h-.4l-.2.3c.1.2.2.5.5.5.3-.2 0-.5 0-.8Zm6.1 3.7h.6v-.5c-.2 0-.3.1-.6.5ZM47.2 23l.5-.2q-.1-.5-.7-.5c0 .2 0 .4.2.6Zm-32.4-3.2.3.4q.4-.2.5-.5l-.5-.2-.2.3Zm30.7-1.7c.2-.1.6-.2.5-.7h-.5c-.2.3-.3.5 0 .7Zm-36.3 3v.1c.3-.3.5 0 .7 0h.2l-.1-.4h-.5v.2l-.3.1ZM56.8 13l-.2-.2c-.3 0-.4.1-.5.4l.2.2c.2 0 .4-.1.5-.3Zm-9.4 13.3c.2 0 .3.2.5.3.3-.4 0-.6-.1-.9-.3.2-.3.4-.4.6ZM5.5 4.8l.3-.1v-.3c-.4-.2-.6-.1-.8.2l.2.1h.3Zm3.9-3.5.3.1V1c-.2 0-.2.1-.3.2v.1ZM51 16.6v1.1c.3 0 .5-.2.4-.4V17c0-.1-.2-.3-.5-.3ZM11.8 4.2c.3.2.3.1.4-.2l-.4-.4-.1.3h-.3l.1.2.3.1Zm-7.7 7v-.5h-.4v.5H4Zm28.4 6.2c.1.3.3.3.5.2 0-.3 0-.5-.2-.7-.1.2-.4.3-.3.6Zm-11.9 3.8-.2.2c-.1.2 0 .4.2.3 0 0 .1-.1.2 0 .2 0 .2 0 .3-.2-.1-.3-.3-.3-.5-.3ZM4 9.6c.1.5.3.5.5.4.2 0 .2-.1.2-.2l-.1-.2H4ZM49.8 26l-.2-.2s-.2.1-.1.2c.1.2-.2.3-.2.6h.6l-.1-.7Zm3.4-26H53h.2ZM39.4 23.8c.1-.2-.1-.2-.2-.3H39l-.3.3.1.1c.3.2.5.2.6 0Zm-29.2-3.9h.2l.3-.1-.4-.4h-.1v.5ZM49 28.6q.2.4.6.1c-.2-.4-.3-.4-.6 0Zm-37.5-2 .2-.4-.4-.2s-.2.2-.1.4c0 .1.1.2.3.2Zm12.8-9.1c.2 0 .3 0 .4-.4l-.4-.2c-.2.4-.2.5 0 .6ZM19 15l-.3-.2h-.3v.4h.3c.1 0 .2 0 .3-.2ZM2.4 7.3q-.4-.3-.7 0l.2.2c.1.1.3 0 .4-.1Zm44.8 11.4-.2.2v.4h.3V19l-.1-.2Zm5-.1q-.3.4 0 .7l.3-.4-.3-.3Zm-3.4 12.8.2.2c.3-.3.3-.5.2-.6h-.4v.4ZM7.7 18.5c.2 0 .2-.2.2-.3 0-.2-.2-.2-.3-.2-.2 0-.3.2-.2.4 0 0 .2.2.3.1Zm44.6-4.6h-.1l-.1-.1c-.3 0-.4.1-.4.5h.1l.4-.2v-.2Zm-15.7-.1-.3.1c0 .2 0 .3.4.5v-.6ZM55 26.4s-.2.1-.3.5c.4 0 .5 0 .5-.2 0 0 0-.2-.2-.3ZM15.8 9.6l.1-.1h.1V9l-.2.1-.1.3.2.2ZM55 12.5l.4-.7c-.3 0-.4.2-.6.4 0 .1 0 .2.2.3ZM38 13c-.1.2 0 .3.3.3v-.4l-.2-.1-.2.2Zm-20.6 8.5-.3.3c0 .2.2.3.5.2 0-.2 0-.4-.2-.5Zm34.5-.8c0 .2 0 .3.4.2v-.4h-.4v.2ZM29 23.1s-.2-.3-.4-.1v.5l.5-.4ZM7 18.8c.2-.1.2-.2.1-.4v.3l-.1.1ZM5.4 6.6c-.1 0-.2 0-.3.3h.2v-.1l.1-.2Zm49.7 22.1v-.2c-.3-.1-.4 0-.5.1 0 .2.2.3.4.2l.1-.1Zm-53.3-11c.2.3.2.4.4.3l-.2-.4-.2.1Zm49.5 3.8.1.5h.3c.1-.3 0-.5-.4-.5Zm2.5-7.5c0-.2-.2-.2-.3 0l-.2.3h.5s.1-.3 0-.4ZM15 21.9c.2-.1.3-.3.2-.5h-.3v.5Zm7.8 3.8c.2.1.4.2.5 0l-.1-.3c-.3-.1-.3 0-.4.3Zm-11.1-7.3v.2l.2-.1-.2-.1Zm-9-14.9c.2 0 .3-.3.3-.6l-.5.4.2.2ZM21 12.2h.4V12h-.1l-.2.2Zm31.8 10.5q-.5.1-.4.5c.3 0 .5-.2.4-.5ZM52.4.5Zm.1.3Zm0 0zM39 12.8h.3c.1 0 .2 0 .2-.2h-.3l-.2.2Zm18 12.4v.2l.3.1v-.3c0-.1-.1-.2-.3-.1ZM18.2 5.4l-.2.1h.3l-.1-.1Zm.5 13.5h.2v-.3.2h-.2ZM8.1 8.4h-.2l-.1.1.1.2v-.1l.2-.2ZM12 14c.1-.1 0-.2 0-.2h-.2v.4c.1 0 .2 0 .3-.2Zm40.4 1q.4 0 .5-.2c-.3-.2-.4 0-.5.2Zm-24.6 7.5-.3.1.1.3.2-.4Zm11.7-10.4c.2-.2 0-.3-.1-.4-.2.1-.3.3-.1.4h.2Zm11.8 16.5.1-.2-.1-.3c-.2.1-.3.2-.2.4 0 .1.1.2.2.1Zm-3-7.6c0 .2.2.3.3.3l.1-.2c0-.2-.1-.2-.3-.2Zm-35.5.3c-.2 0-.3-.1-.5.1q.3.2.5-.1Zm25-3.1V18c-.2 0-.3 0-.3.2l.2.1h.1ZM48.3.8l.1-.2-.2-.3v.4Zm-6.5 14.7c0-.2 0-.4-.2-.4s-.3.2-.2.4h.4ZM.8 7.2c-.3 0-.4.1-.4.4.3 0 .4-.1.4-.4ZM48.7 24q.3-.2.1-.5c-.2.1-.2.2-.1.4Zm5.5-10 .2-.4q-.3 0-.2.4Zm1.4-1.2-.1-.4q-.2.2 0 .3ZM42.1 16v.2h.4c-.1-.2-.2-.3-.4-.2ZM8.6 22c-.2-.2-.2 0-.4.1.2.2.3.1.4 0Zm40.9 3.1q-.3 0-.3.2.2 0 .3-.2Zm-34.2-2.5h-.1v.2l.2.1c.1-.2 0-.3-.1-.3Zm-8.7-3.5-.2.2v.1l.3-.1V19ZM6 13.4c-.2 0-.2-.2-.4 0v.1c.2.2.3.1.3 0Zm2.3 12.2v.2h.3c-.1-.2-.2-.3-.3-.2Zm3-21.3c0-.1-.2-.1-.4 0h.4ZM13.5 1l-.3-.2V1h.3Zm38.4 30.6.3.1v-.1l-.2-.1-.1.1Zm-49.4-7v-.2h-.3l.2.2ZM7 9.8l.3.2v-.2l-.2-.2v.2Zm47.1 8.6c-.1-.1-.3-.2-.4 0q.2.2.4 0Zm-3.4 0h-.1v.4s.2 0 .2-.2l-.1-.2Zm0 .4zm.7 7.7.2-.4q-.3.2-.2.4ZM22 13v-.3h-.2c0 .2 0 .3.3.3ZM3.7 5.6l-.3.3c.2 0 .3-.1.3-.3Zm11.9 5.5-.1.1Zm30.7-.3c0-.2-.1-.2-.2-.3 0 .2 0 .3.2.3Zm1.3 7.8Zm0 0v-.3h-.3c0 .2.2.2.3.3ZM.6 9.7l.1.2h.1l-.2-.2Zm48.6 20 .2.1.2-.1-.2-.1h-.2Zm3.4-16.1v.2l.2-.1-.2-.1ZM6.3 5l.1.2-.1-.3Zm50.2 19.5v.3h.3c0-.2-.1-.2-.2-.3Zm-2.3-9h.2v-.2h-.1l-.1.2Zm-3.7 6.2h.2l-.2-.1ZM4.2 3.5 4 3.4c-.1 0-.2 0-.1.3l.2-.2Zm48.8 11-.2-.3.1.3h.1Zm.7 4.9.2-.1-.1-.2-.3.2h.2Zm-2.2-6.1-.1-.2v.2h.1Zm-17.2-.1-.1-.1-.1.1h.2ZM3 8.2h-.2l.1.2.1-.2Zm3.3 17h.3c-.1-.1-.2-.2-.3 0Zm42.7-4v.2h.2l-.2-.2Zm1.4 8h.2l-.1-.1h-.1Zm1.1-10.6v-.1c.1-.1 0-.2 0-.2v.3Zm.1 8.5c.1 0 .2 0 .2-.2l-.2.2Zm-39-7.1h-.1v.2-.2ZM55 18l.2-.1v-.1h-.3v.1Zm-7.8 1.9.3-.2q-.3 0-.3.2ZM42.8 1.1l.1.6.3.3.1-.2c.2-.2.2-.4 0-.6h-.5Zm.4.9zM25.9 8.7l-.6-.3c0 .4 0 .5.4.5l.1-.1v-.1ZM47.4 7v-.3c-.3.2-.3.3 0 .3Zm.4 1v-.1l-.2.1v.1l.2-.1Zm-9-3.9L39 4v-.2h-.3l-.3.6h.3v-.1h.2Z"/><path d="m10.2.8-.1.3-.4-.1v.4h.6l.2-.2.2-.2h-.5V.8Zm-1-.3h.1l.3.2c0-.1 0-.3.2-.4L10 0c0 .2.3.2.3.3l.3-.3h1-2c-.2.2-.4.3-.4.5ZM10.6 3h-.3v.6h.8l-.2-.1s-.2-.1-.3-.4Zm-2.4-.5.6.4-.1-.6c-.2 0-.3 0-.5.2ZM5.4.3c.2.3.6.1.7.4l.1.1h.3c.2-.3.4-.2.7 0 0-.2.2-.3.3-.5L7 .2l-.2.3L6 0H4.6c.3 0 .7 0 .8.3ZM7 7.2c.2-.2.4-.3.3-.5v-.1H7l-.3.2.1.2.2.2ZM7.6.3h.2L7.7 0v.3Zm2 3.6.3.2h.3l-.1-.2v-.2h-.5V4Zm-.2-2.6v.3l.1-.1h.2l-.2-.3ZM23.3.7c-.2-.1-.2-.4-.2-.6-.3.2-.5 0-.6 0a1 1 0 0 1-1 .3c-.3-.1-.5 0-.6.3l-.1.1c-.3.2-.6.3-.8 0-.7.3-.7.4-.7 1 .2.2.5.3.7.3.2-.2.3-.4.6-.4v.2c.3 0 .3.2.2.4h-.1v.1l.3-.2h.4l.2-.5.1.2c.2.3.5.3.7.1l.3-.3.2-.3.4-.7Zm-9 14.8-.3.1c.2.2.2.3.2.6v.1c.2-.2.4-.3.6-.1h.2V16c-.2-.3-.2-.5 0-.8l.5.5c-.1.2-.4.1-.4.3l.1.2h.2c.2.1.3.3.3.5s.2.2.4.2.4-.2.5-.3c.3-.2.3-.3.1-.6v-.3l-.5-.4H16s-.2.1-.4 0c0-.3.1-.4.2-.5h-.6s0 .2-.2.3l-.7.4Zm-2.6-7.8v.2h.1l.3.2L12 8c0-.3 0-.5-.2-.6v.3Zm-.3-.7h.1l.3-.1v-.2c-.1 0-.2.3-.4.3Zm.5-.4.3.3c.4 0 .6-.2.8-.5l-.3-.2c-.2-.1-.2-.3 0-.5v-.1l-.1-.3h-.1l-.2-.1H12v.6c-.3.3-.2.6-.2.8Zm-.4 10.5v.4q.6.1 1-.3l-.5-.7v-.2c-.3.4-.8.5-1 .9l.1.1v-.2h.4Zm-1.2.9h.3v-.2c0-.3 0-.5-.2-.8v-.1h-.2l-.2-.3h-.3l.1.6v.2c.4 0 .5.3.5.6Zm1.5-2.2v.2h.2c0-.2 0-.3-.2-.3Zm.5-7.6-.5.2c-.3.2-.4.3-.3.5v.2c0 .1.2.2 0 .4h-.4v.3h.3v.1l.2.3.3-.4c.2-.2.3-.5.2-.8h.4l-.1-.5h.1v-.3h-.1Zm-.1 2.2-.2.1h.2Zm3.3 2.4c0 .2 0 .3-.2.5l.2.2.2-.1c.3-.1.3-.1.5.2.2 0 .3.2.4.4.3.5.6.6 1.2.2-.1-.5-.4-.7-1-.7-.1-.3-.2-.5-.5-.6-.2.1-.3.3-.6 0v-.3l-.2.2Zm1.6.9v.4c-.2-.1-.2-.2 0-.4Zm-5.2-1.2zm-.3.2c.1.2.2.3 0 .5l-.1.4.1.2h.5l.3-.1c.1.3.2.3.3.2v-.2c-.3 0-.5 0-.8-.3l.4-.4c0-.2-.2-.3-.4-.5l-.6.2a5 5 0 0 0-.2-.3l-.6.2c.2.6.2.7.7.6 0-.2.1-.5.4-.5Zm-5.2-.9H7l.4.5c-.1-.3-.3-.5-.7-.6l-.4-.2h-.2v.8c.2 0 .2 0 .3-.5Zm.8 1.2H7l.2.1c.1-.3.2-.5.1-.7 0 .2 0 .5-.2.6Zm7.4-11.3.1-.3-.4-.3-.3.5.4.3.2-.2Zm.4-.1v.1h.2l.1-.4-.1-.1-.3.1.1.3Zm-.2 18.2h.1l.2-.3c.1-.3 0-.5-.4-.8.6-.4.6-.5.4-1-.6 0-.7 0-.7.7v.5c-.4.6-.3.8.5.9Zm2.6-11.2L17 9h.3c.2.2.3.4.3.7h.5c.2-.1.2-.3.3-.4.2-.3.2-.5 0-.7l-.5-.2c-.1 0-.2 0-.3.2Zm4.8 6.8-.4.1a14 14 0 0 0 .5.7h.7l.2-.1.3-.3-.1-.2-.3-.3-.5.4c-.1 0-.4 0-.4-.3ZM18.3 1l.4.2c.2-.2.4-.4.4-.6.1-.2 0-.3-.2-.4h-.2c0 .4-.2.6-.4.8Zm11.2 1v.3c.3.2.5.3.9.2 0-.3.1-.5 0-.8a.9.9 0 0 0-.8-.4v.2c-.2.2-.2.3-.1.5ZM12.3 19.5c0 .2.1.3.3.3h.3l-.6-.3Zm1-.3v.1h.3l-.2-.2h-.1Z"/><path d="M13.6 19.2v.3l.2-.2h-.2Zm-2.3-7.5c.5-.3.5-.5.3-1-.1-.3-.2-.3-.6-.3h-.2v.5l.5.8Zm0-.7-.3-.3c.3 0 .3 0 .3.3Zm-.1 7.7c-.2-.3-.5 0-.7-.1l-.1.1.3.3h.5l-.1-.1.1-.2Zm.5-.1ZM19.4 7v.2c.3-.2.4-.4.4-.6-.1 0-.2-.1-.2-.3a1 1 0 0 1-.6.2c.1.3.1.3.4.5Zm-4.7 2v.2c.2.1.3.3.2.5h.5l.1-.3.2-.3v-.3c-.3 0-.5.3-.7.5l-.2-.3h-.1Zm-.7 3.6h-.2v.3l.7.3c.2-.4.2-.7 0-1l-.4.1v.3Zm1.8 8.7v.6c.5.2.5.2.8 0 0-.3-.2-.4-.3-.6l-.3-.1c0 .1-.1.2-.2.1Zm-2.8.6-.2-.1h-.1l.2.2.1-.1Zm-.7.2c0 .4.3.4.5.7v-.2c0-.2-.3-.3-.5-.5Zm-3-7 .3-.1a.7.7 0 0 1-.6-.4h-.2l.2.5v.3l.3-.3Zm9.4 5.9c.2.3.3.4.6.3.2 0 .3-.2.2-.4 0-.3-.1-.3-.6-.4l-.2.5ZM5.6 14.2q-.4 0-.5.2c-.2.4-.2.6 0 .8h.1c.4-.3.4-.3.4-1Zm3.1 3.1c.2 0 .3-.1.4-.3 0-.2 0-.3-.2-.4l-.2.7Zm7.9.5.1-.3v-.3l-.5.2-.2.2.1.2c.2.2.3.2.5 0Zm-7-4.4Zm0-.5Zm-.7.5c0 .1.2.2.3.1h.4v-.6H9c-.1.2-.2.3-.1.4ZM17.2 1V.8L17 1l-.2.2.1.4.1-.3.2-.3ZM16 10.8c.1-.1.1-.3 0-.4-.3 0-.7 0-.8.5l.5.1c.1 0 .3 0 .4-.2Zm-8.8 5.8c-.2.1-.3.5-.1.7l.4-.7h-.3Zm11-4.3-.6.1.3.4h.4c.2-.1.2-.3-.1-.6ZM6 10.8v-.2c0-.2 0-.3-.3-.4l-.4.6h.5Zm5.7 4.2c.4-.2.1-.5.2-.7h-.1s-.2 0-.2.2v.2l-.1.1v.1l.2.1Zm5.9 3.6h.2v-.2l-.2.2Zm-9.1-2.5q0-.5-.6-.5v.5h.6Zm-1.2-5.5h-.4c-.2.2-.3.4-.1.7l.4-.2V11l.1-.4Zm10.8-3.3-.2.3s0-.2.2-.2v-.1ZM7.8 19.6c.2 0 .3.2.4.3.4-.3.2-.6 0-.8-.2 0-.3.3-.4.5Zm2.4.3v-.4l-.1-.1h-.2c.1.3-.2.4-.3.7h.6V20Zm10.3-3.5h.5l.1-.1V16h-.6v.5ZM9.3 22l-.2.1c.2.3.2.3.4.3l.2-.1c-.1-.4-.2-.5-.4-.4Zm-1.1-9.4h.3V12c-.2 0-.3.1-.3.2v.4Zm5.5.2-.5.1c0 .1 0 .2.2.3l.3-.4ZM9 24.5h-.3v.3l.1.3.3-.4v-.2Zm4.8-16.8c-.2 0-.4 0-.4.4h.6v-.3l-.2-.1ZM15.6 21l-.2-.4c-.1-.1-.3 0-.4.4h.6Zm1.2-14.3h.1Zm-3.9 7.8v.2h.4v-.3l-.3-.1-.1.2Zm2.1 8.1-.4.1c.1.2.2.3.4.2h.1v-.3Zm-2.6-7.2-.2-.1v.2l.2-.1Zm-.1.4ZM15.6 8l-.1.3V8Zm-2.5 9 .4-.1.1-.2c-.5 0-.5 0-.5.3Zm4.7 2.7c0-.2-.1-.2-.3-.2h-.1v.3l.3.1v-.2ZM14.4 9l.1-.2c-.2-.2-.3 0-.5.2l.1-.1.3.1Zm-3.2 13.2.2.2.2-.3-.1-.2c-.2 0-.3.1-.3.3Zm-1.6-7.8h-.2c0 .2 0 .3.2.3l.1-.1v-.1h-.2v-.1Zm0 2.6c-.3 0-.3.2-.2.4q.3-.1.2-.4ZM16 7.8V8l.2-.4H16Zm1.5-.8-.1-.3q-.2.2 0 .4ZM9.7 18.7q.2.2.3 0h-.3Zm9.2-2.7c.1-.2 0-.2-.1-.2v.3Zm-7.2 9.4.2.1v-.1l-.1-.2-.1.2Zm.2-12.9zm.1-.1V12h-.2v.4h.1l.1-.1Zm-.2 7.9.1-.3h-.1v.3Zm-2.2 2.9h-.1V23h-.3l.1.1.1.1h.2Zm4.7-15.5h.3l-.2-.2-.1.2ZM17 18.8v.3h.3l-.2-.3Zm-1.2-9.2h.2l-.1-.1h-.1Zm-4.4 5.6.2.2-.2-.2Zm3.1-7v.2h.1v-.2Zm-1.3-1.1.1.1V7l-.1.1ZM10 14.7v.1-.1Zm.4 8.1.1.1.2-.1s-.1-.1-.2 0Zm1.7-2.1-.2.2.2-.2Zm4.2-8.7v.1h.2V12h-.2Zm-8 1.2.3-.1h-.3ZM9.8.3l.2-.1h-.2ZM56.2 46c-.2 0-.4 0-.5.2h-.2c-.2.1-.3.3-.2.5l.2.3c.1.2.2.2.4.2h.7v-.9c-.1-.1-.2-.3-.4-.3Zm1.4 5.6v-.8l-.3.4.3.4Zm0-10.1Zm0 3.5v-.5.5Zm-.1 12.4.1-.1v-.6h-.3c0 .3 0 .5.3.7ZM57.2 47c0 .3.2.4.4.4V47h-.4Zm.4.9v-.2h-.1v.2h.1Zm-7.4 9.4-.7-.5c-.2-.2-.4-.1-.5 0l-.2.2c-.2.1-.3.3-.3.5v.2h1.8l-.1-.4Zm-4 .1h-.8l-.3.3h1.4l-.3-.3Zm-2.5-.3c.1 0 0-.3 0-.4-.1-.3-.6-.5-1-.4l-.1.3c-.2.3-.2.8.1 1h1v-.4Zm7-1.7-.3-.6c0-.2.1-.3.3-.5v-.1l-.5-.1c-.2-.1-.5 0-.6.3 0 .2.1.4.4.6h.1c0 .2-.2.3-.1.6 0 .3 0 .3.2.3h.3c-.1-.3-.1-.3.2-.5Zm-7.8-.2h-.2c-.2 0-.3.1-.3.3 0 .3 0 .5.2.5l.6.2v-.6c.1-.2 0-.4-.4-.4Zm3.9-2.4v.8c.1.2.3 0 .4 0l.4-.6c-.2-.4-.3-.4-.8-.2Zm10.1 2.7c.2.7.3.9.7.7v-.6H57Zm-6.3.7.2.3c.1.1.2.3.4.2l.1-.2.1-.2c-.4-.5-.4-.5-.8-.1Zm-11.3 1.3v.1h.4l-.4-.1Zm6.6-1.2c.2.4.4.3.7 0-.2-.5-.3-.5-.7 0Zm5.1.7v.4l.1.2h.4c0-.5 0-.5-.4-.6Zm-2-4.5v.3l.3.2.3-.2-.4-.3H49Zm-.9 3.1v.6l.3-.1v-.5h-.3Zm4.2 1.4c.3-.2.6-.2 1-.2l-.6-.4c0 .3-.5.2-.4.5Zm.2-3.3h-.2v.3h.5c0-.1-.1-.3-.3-.3Zm-4.8 2.8.1.3c0-.2.3-.3.3-.6l-.4.3Zm-3.2.5h-.2l.3.4c0-.2.2-.3.2-.3 0-.2-.2 0-.3 0Zm9.1-2.3-.2.2.2.2c.1 0 .2 0 .2-.2l-.1-.2Zm-.4 2.6-.1.1v.2h.1v-.3Zm2-.9-.3-.2q0 .3.3.2Zm-2.7-2c0 .1-.1.2 0 .4.1-.1.1-.2 0-.4Zm-.9 2v.3l.1-.2v-.1Zm.9-4.8h-.1l.1.2h.1v-.2ZM49 54.7v.2h.1l-.1-.3Zm6 2.7v.1h.2l-.3-.1Zm-2.2-1.3h-.2l.1.1Zm-52.4.4-.2.5.7-.3c-.1-.3-.3-.1-.5-.2ZM0 57v.2-.2Zm3.6.6h-.1.3-.2Zm.7-1.8Zm-1.1.5zm1.6.8c-.2 0-.2-.2 0-.4v-.5l-.6-.1.1-.3c-.2 0-.4.3-.7.2 0 .3-.3.2-.4.3v.5l-.7.5-.1-.2c-.3 0-.6 0-.7.4l.2.1h1.3H3l.2-.1h.2l.2-.2H4l.1.3h1.1H5c0-.2 0-.4-.2-.5Zm-.9 0-.1-.6.4-.1c.3.4-.1.4-.3.7Zm3.6.3.1-.2v-.3l-.4-.2c-.3.2-.3.6-.4.9h-.2 1v-.2Zm-1.7-.2c-.3 0-.3.1-.2.4h.3c0-.1.1-.3 0-.4Zm2.2 0c0 .1-.1.4-.3.4h1v-.3l-.6-.1Zm-6-9.5c-.2.1-.4.2-.3.5.4-.2.4-.2.4-.6.2 0 .4-.4.6-.1l.7.2-.5.7-.3.6.7.3h.3l.6-.6.1-.5h-.1c0-.3-.2-.5-.5-.5l.5-.2v.2l.6.4h.6l.2-.1c.3 0 .3-.1.4-.4v-.5l-.1-.5c.2 0 .4-.2.5-.5h-.2l-.2-.2c-.2 0-.4.1-.5.3 0 .1-.1.2-.3.2 0-.2 0-.4-.2-.6l-.4.3-.2-.4-.5.5-.7-.2c0 .2.2.3 0 .5l-.3-.2-.4-.2v-.4c-.2.5-.4.8-.7 1h-.1l-.1-.2c0-.2.1-.4.3-.5l-.4-.2.1-.3-.3-.1c0-.2.2-.3 0-.5a.4.4 0 0 0-.4 0c-.2 0-.4.2-.5.5v.5c0 .2.2.3.3.4-.1.3-.2.5 0 .8l.5-.3.6.2.1.7Zm-1 5.9q.3.3.3.7c.3-.1.3.4.6.4.1-.2.3-.4 0-.8l.6.1h.3l.5-.3-.2-.3-.9-.3v.4l-.3-.2.1-.3-.1-.5-.2-.4h-.3l-.3-.2H.5l.1-.6H.3l-.2-.5v-.1 2.8c.2.3.4.3.9.1Zm0-.2V53c.3.1.3.2 0 .4Zm4.1-.8Zm-.3-.9h.1-.1zm4.7 1.7-.5-.2-.2-.6-.4-.2H8c0-.3-.2-.5-.4-.6h-.2v-.2H8c.1-.4 0-.5-.3-.7l-.4.2-.2-.4c-.4 0-.6.2-.9.5v.7l-.4-.5c.2-.3.2-.6 0-.8l-.3-.2c-.2.1-.3.2-.3.4l.1.5-.4.3c0 .2 0 .3-.2.4v.2c.1.1.4 0 .4.3h.2c.2.2.3.2.5 0l.3-.3.7-.1c0 .5-.4.6-.7.9.1.2.3 0 .4.1l.2.4c.3-.1.5 0 .6.2h.5l.3.3h.4l.9.5.4-.4v-.2c.1-.2 0-.6-.3-.6ZM4.7 53h-.3c-.1-.1-.3 0-.4 0-.2 0-.4 0-.4.2-.1.2-.2.4 0 .6l.1.4.4-.1h.6c-.3.5-.3.7 0 1.1l.2.3v.3l.5.1-.1-.2.6-.4v.6h-.4l.1.1h.2v.4l-.3.2c.3 0 .5.2.6.4l.2-.4h.1c.4-.2.5-.3.5-.7v-.4l-.2-.2c.2-.3.3-.6 0-1l-.3-.3-.2.3-.4-.4.2-.2-.2-.2c-.2-.2-.3-.1-.5 0v.1H5v-.2c.1-.2.2-.5.1-.9-.4 0-.4 0-.4.4Zm.3-.4h.1Zm.7-11.5c-.4 0-.7 0-1-.3l.3-.2c0-.1 0-.2.2-.3v-.1l-.1-.3c-.2-.3-.5-.5-.5-.8l-.1-.2c-.3-.2-.5-.1-.6.1l-.1.3-.4.3c0 .5.3.6.5.9l-.5.1c-.3 0-.3.3-.5.4v.3l.2.1.2.5c-.2.4-.2.5 0 .6.2.2.3.1.6-.1s.6-.2 1-.3H5c.3-.2.2-.5.3-.8l.3-.2Zm1-3.8h-.1v-.4l-.3-.3.6-.4v-.9c-.2-.1-.4 0-.5-.2-.1-.2-.3-.2-.4-.1-.4 0-.7.2-.8.6v.5c-.4-.1-.7.1-1 .2.2.2.2.5.5.5l.5.4c0 .2-.3.1-.4.2v.1q.4.3.1.7v.2h.5l1-.2c.5-.1.6-.5.3-.9Zm-1-.4-.2-.4.6.1c-.1.2-.2.2-.4.3ZM.3 28.3l.1-.4v-.3l.4-.5-.2-.3-.2-.3-.4.4v1.6c.2 0 .3 0 .3-.2ZM3 34.9l.2.3c.3-.1.3-.4.3-.5.5-.2 1-.3 1.2-.7l.2.3c.4 0 .7-.1 1-.4v-.5c.4-.3.4-.4.2-.8-.2 0-.3 0-.5.2-.2.1 0 .3 0 .6l-1 .1h-.3l.3-.6c0-.1 0-.3-.2-.4-.1 0-.3-.2-.5 0v.7l-.7-.5-.1.6c0 .3.2.4 0 .7l-.5-.1c-.2.2 0 .6-.2.7 0 .4.3.2.5.3Zm1.9 16.8h-.1.1zm.1-1.2c0-.3-.3-.5-.6-.5h-.6c-.4 0-.6.2-.7.4-.1.3-.2.6 0 .8.3.3.2.5.2.8-.4-.2-.3-.4-.2-.7l-.5-.1c-.2 0-.4.1-.5.4l.1.5v.4c.6.4.7.4 1-.2h.4V52c.1-.4.2-.4.6-.4h.6c.2-.4.2-.8.2-1.2Zm-4.9-2v-.3l.2-.2-.3-.1v1.5l.3-.1c0-.3 0-.6-.2-.8Zm12.3 6.9c-.2 0-.3-.1-.3-.3H12l-.1.2-.7.3c-.2 0-.4.2-.3.4v.4l-.3.4h-.2c0 .4.2.5.6.7V57c0-.2 0-.2.2-.1.2 0 .3.2.4.3.4.4.8.3 1 0 .1 0 .2 0 .2-.2s.1-.3.3-.4v-.5c0-.4-.4-.5-.7-.8ZM.7 33.2c0 .4.1.7.5.8l1 .3v-.2c0-.2-.3-.1-.5-.2v-.5l.4.3c.2-.1.4-.3.4-.6v-.4c.1-.3.1-.5-.1-.6l-.3-.3c-.3 0-.5.3-.8.3l-.2.3c0 .1 0 .3.2.3h.1l.1.4c-.3 0-.4-.4-.7-.1v.2ZM5.5 49h-.8c-.2.3 0 .5.1.7.1.2.3.3.6.3s.5-.1.7-.4h.4c.2 0 .2.3.3.4l.6-.5c.2-.2.2-.4 0-.6H7c-.1-.1-.2-.1-.4 0l-.2.1c-.4-.2-.5-.2-.8 0Z"/><path d="m2.8 45.8.7-.5h.3l.1-.2c.3-.2.4-.6.6-.8v-.2l-.2-.5c-.2-.2-.3-.2-.5 0h-.2c-.2 0-.2.2-.3.3 0 .2 0 .5-.3.6v.1l-.2.3c-.2 0-.3.2-.3.4s.1.4.3.5ZM.7 41.3.4 41l.3-.2.3-.4v.4l.5.1c.2 0 .4-.1.5-.3V40c-.1-.1-.4-.2-.6 0H0v1.5l.2.1c.2 0 .3-.2.5-.3ZM9 36.4l-.1-.4-.3-.2c-.1-.2-.3-.2-.5-.3l-.4.2-.2.2c-.2 0-.3.2-.4.4 0 .3 0 .5.3.6l.1.4c.2-.3.3-.3.4-.1.3.2.4.2.5 0 .2-.2.4-.4.4-.7H9ZM3.9 25l.6.3h.2c.2-.2.4 0 .5 0l.2-.4c.1-.2.2-.4.6-.4l-.2-.5c-.1-.3-.3-.3-.6-.1h-.3a1 1 0 0 1-.5-.1h-.2v-.2l-.1.2v.6l-.2.5ZM1.3 42l-.1.7H.8c-.1.4 0 .5.3.5l.6.2h.7q0-.5.3-.8l-.3-.5c-.4.1-.6 0-.9-.3 0-.5-.1-.7-.5-.5 0 0 0 .2.2.3 0 .1.1.2 0 .4Zm13.6 12.9.2-.2-.1-.8c-.1-.1-.2-.3-.4-.2h-.2c-.3-.3-.5-.3-.6 0l-.4.4-.1.3h.4l.2.5c.1.2 0 .4.3.5.1-.3.5-.3.7-.5ZM7.7 32.1c-.3 0-.3-.2-.5-.4v-.3c-.2-.2-.4-.3-.6-.1-.2.1-.4.3-.2.7v.3c.3 0 .5-.2.7-.3v.1l.1.8v.2c0 .3.1.4.4.5h.2l.3-.4v-.8c0-.2-.3-.2-.4-.3ZM0 34.3v.2-.1Zm.1.8-.1-.3v.7c.2-.1.2-.3.1-.4Zm7.8 4.2v-.2c.2-.4.2-.4-.1-.6-.4.2-.7 0-1.1 0a9 9 0 0 0-.4.6v.2c.1.2.3.4.6.4h.4c.4.2.5 0 .6-.4ZM9 29.7l-.4-.1c-.4-.2-.7-.1-.9.2l-.2.8v.1h1.1l.3-.4v-.6ZM5.4 26l-.8.2.7 1c.3 0 .6 0 .8-.2l.2-.1v-.3c0-.4-.3-.5-.6-.6h-.3Zm-4-9.8c.3 0 .3.2.3.4 0 .4.1.4.5.4l.2-.4c-.2-.5-.8-.8-1.2-.4-.2.3-.4.2-.6.2V16l-.3.1.1.4.2.1c.3 0 .4.2.6.5.2-.2 0-.6.2-.9Zm7.2 39.1.2-.5-.2-.2c-.2 0-.4 0-.5-.2 0-.2-.2-.2-.3-.1l-.6.2c0 .3.1.5.3.6.2.1.2.3.1.5h.6l.4-.3ZM1.3 29v-.2l.1-.4.3-.3h.5l.3.3c.2 0 .3-.2.4-.4v-.7c-.2 0-.3-.1-.4 0l-.3.1v.4h-.6v.1l-.1-.2c-.5 0-.6.2-.3.6v.4c-.2.2-.1.3 0 .4Zm8.5 8v.4c.3-.1.3-.1.5.2l.6-.4c.2 0 .3.1.5.4l.1-.2.1-.4c.1-.2 0-.5-.3-.5s-.5.1-.6.3v.2c-.2 0-.4-.2-.6-.1-.3 0-.3 0-.3.2ZM.7 39.9l.5-.6V39c0-.1 0-.2.2-.3H0v.8l.7.4Zm.1-14.2v-.3l.2-.2H.7c0 .2 0 .3-.2.4-.2 0 0 .2 0 .4l.2-.2c.1 0 .2.1.1.3 0 .3 0 .4.4.4v-.3h.6v-.3h.1c.1-.1.2-.2.1-.3-.4 0-.8.2-1.2.1ZM15.4 55c-.3-.1-.4 0-.4.3v.9l.4.2c.2 0 .3-.1.3-.3V56c.3-.3.3-.7 0-1h-.3ZM.6 18.2v.7h.2-.1l.4-.2.2-.2c0-.3.2-.5 0-.8a2 2 0 0 1-.6.1H.4l-.1-.1-.3-.1v.7h.6Zm-.6 24v.3l.1-.1-.1-.2Zm2.9 8.6v-.3l-.2-.6c-.1-.2-.2-.2-.4-.2l-.2.3v.2c-.2 0-.3 0-.4.3l.3.3.1.1.8-.1Zm4.7-8.9-.1-.6h-.6c-.4.1-.5.4-.3.8l.1.1c.1.2.3.3.5.2.4 0 .5-.2.4-.5Zm1.5 14.7Zm.3-.6-.2-.2c-.3-.3-.6-.2-.8 0l-.2.6.4.1H9c.1-.1.4-.2.3-.5ZM2.2 24.6v.5h.2v.1-.5l-.2-.4H2l-.1.2h.2Zm.2 4.1-.2.2-.1.7v.2l.2-.2c.3 0 .5 0 .7-.2.2-.2 0-.5 0-.7-.2-.2-.4 0-.6 0Zm9.2 23.1.1.5.5.5c0-.2 0-.4.2-.6v-.3c0-.3 0-.6-.4-.7l-.2.2c-.2 0-.2.2-.2.4Zm.6 1Zm-9 3.5zm0-.4.3-.2c0-.2 0-.3-.3-.4h-.5l-.1.2v.9h.6v-.5Zm.2-24.6-.5.2v.3c0 .3.2.4.5.4l.4-.2v-.5c0-.2-.2-.2-.4-.2Zm6.3-2c-.3 0-.4 0-.5.3v.5l.4.1h.2c.2-.1.3-.3.2-.5v-.1c0-.2-.1-.3-.3-.3ZM3 36.4l-.3.2.2.4c0 .3.2.4.5.4.2-.3.3-.6.2-.9-.2 0-.3 0-.5-.2Zm8.8-2.8v.4l.7.3c.4-.2.5-.3.2-.8h-.9ZM2 35l-.5-.4c-.6.3-.6.5-.3 1 .4 0 .5 0 .7-.7Zm-.5-12v.4l.2.4c.6 0 .6 0 .7-.4l-.4-.5-.5.1Zm-.2-9.3h.2v-.4l-.3-.2v-.4c-.2 0-.3 0-.4.2v.4l.2-.1c.2.2.3.3.3.5Zm16.9 42.4-.5.4.1.5c.3 0 .5-.3.8-.2 0-.6 0-.6-.4-.7ZM7.3 29.9c0-.5 0-.6-.2-.7-.2 0-.5 0-.6.2-.1.2-.1.3.2.6l.6-.1Zm-.2 14.6.1-.3c0-.2-.1-.4-.4-.5-.2 0-.4.1-.4.4v.4h.7Zm3.5-.5v-.3c-.8.4-.9.5-.6 1 .5 0 .6-.2.6-.6Z"/><path d="m12.7 53.3.2-.2v-.5h-.4l-.3.2-.2.3c.3.3.4.4.7.2zm-.5-.5zm3.1 4.8h.8l-.2-.2-.7.2zM5.2 28.5c0-.2-.3-.2-.5-.3l-.2.1v.5l.6.3c.3-.3.3-.3.1-.6zm.1 11.2c.2 0 .2-.1.3-.3a.47.47 0 0 0-.5-.5l-.4.2.1.3c.1.2.3.3.4.3zm4.9 11-.3-.1c-.1 0-.3 0-.4.3l.1.3.3.2.3-.2v-.5zM.5 23H.4c-.3.1-.3.2-.2.5.1.2.2.3.4.2a.8.8 0 0 1-.1-.6zm.1 32.3H1c.2-.3.2-.5 0-.7-.6 0-.7.2-.4.7zm9.8-.6c-.1-.2-.3-.3-.6 0q0 .3.3.6c.4-.2.5-.3.3-.6zm-.9-17.2-.3.3-.2.4h.3l.2.2c.4-.5.4-.5 0-.9zm-6.6 6.3h-.4l-.3.5c.2.2.3.2.7 0v-.5zm-.4-3.3c.5 0 .5 0 .6-.3a16 16 0 0 1-.6-.4l-.2.3.2.4zm-.2 1.3.3-.1-.1-.4-.3-.1c-.2.1-.3.3-.2.5l.3.1zm4.4-15.1.4.3q.4-.3.4-.6c-.3 0-.7 0-.8.3zm-4.8 3.4c-.1.3-.3.4-.2.7l.7-.2L2 30l-.1.2zm1.7-2.7c.1 0 .2 0 .1-.2 0-.2 0-.5-.3-.5-.3.2-.3.3 0 .6 0 .1 0 .2.2.2zm2.7 16 .3-.2-.5-.5-.2.3q.1.3.4.4zm2.9-10.6c-.4.3-.4.5 0 .7.5-.2.5-.3 0-.7zm-.3 22.7.4-.1c0-.1.1-.3 0-.4-.3-.2-.4-.2-.5.2v.3zM8.5 38h-.2c-.2 0-.3.3-.3.6.6-.1.7-.1.7-.5h-.2zM3.8 15.7v.3c.4 0 .5 0 .7-.3h-.7zm-2.1 3.8c.2 0 .3-.1.3-.3s-.1-.3-.3-.3-.3.2-.3.3.1.3.3.3zm.6 18.3c0-.2-.2-.3-.3-.3-.2 0-.3.2-.3.3 0 .2.2.3.4.3.1 0 .2-.1.2-.3zm4.4 2.7c.2 0 .4 0 .5-.2V40c-.3 0-.3 0-.7.3l.2.2zM.2 47.8l.3-.2v-.4c-.4 0-.5 0-.3.5zm2.3-27.1h.2c-.1-.1-.2-.1-.4 0v.4c.3-.1.1-.3.2-.4zM12.7 36l.2.4c0-.2.2-.3.3-.5v-.2h-.4l-.1.3zm-5.9-1.9.3-.3c0-.1-.2-.3-.3-.2-.1 0-.3.1-.3.3l.3.2zM2 55h-.3v.2l.2.1.3-.1.2.1.1-.3H2zm15-1c.2.3.3.3.7 0l-.1-.3c-.3 0-.4 0-.5.3zM9.5 35.3h.4c.1 0 .2-.2 0-.3h-.5v.3zm-.1 4.3c-.2 0-.2-.4-.5-.3.2.3.1.6.2.9l.3-.6zm-.3 17zm-.2.4-.1.1.2.1c.2 0 .2-.2.3-.3 0 0 .1-.2 0-.2l-.2-.1v.2L9 57zM.3 15.7v-.3H0v.4l.2-.1zM0 36.4zm.1-.4H0v.4c0-.2.2-.3.1-.5zm1.3 15.3c0 .2.2.3.3.2.2 0 .2-.1 0-.4-.1 0-.2 0-.3.2zM4.7 30c.1.2.2.4.4.4h.2c0-.3-.2-.4-.4-.5h-.2zM.8 34c-.2 0-.2.1-.3.3 0 0 0 .2.2.2l.3-.2-.2-.3zm11 5.6c.2 0 .3-.1.3-.3v-.2h-.3v.5zm-3.1-4.8c.2 0 .3.3.6.2l-.2-.4c-.2 0-.3 0-.4.2zm5.3 21q.3.3.6 0H14zM1.1 42.1c-.3 0-.3 0-.4.3q.4 0 .4-.2zm7.2-10.8-.3.3.3.2c.2 0 0-.1 0-.2v-.3zM2 56.4v.1l.5-.1-.3-.1H2zm3.3-26.7v-.3l-.3.1v.3l.3-.1zm5.5 10.7c0 .2.1.2.2.2l.2-.1-.2-.3-.2.2zm-9-20.2c0 .2 0 .3.2.3l.1-.1c0-.2 0-.2-.3-.2zm-.2 15.6q.2.2.4 0-.2-.3-.4 0zm-.1 12h.2v-.2l-.2-.1h-.2c0 .2.1.3.2.3zM7 25h-.3q.2.2.4 0zM4.8 56c-.1-.2-.2-.3-.4-.3v.1c0 .1.2.3.4.1zm-.5-.2zm7.3-11c-.4 0-.5 0-.3.3l.3-.3zM8.5 40l-.3.2h.4l-.1-.1zM3.7 54.7v.2l.2-.1-.1-.2-.1.1zm6-2.3c0 .2.1.3.3.2l-.1-.3-.2.1zM2.5 37l.2-.2-.2-.2-.2.2.2.1zM2 34.4l-.1.2.1.1s.2 0 .2-.2l-.2-.1zm-.4 15.1c.2 0 .1-.2.1-.3-.1 0-.2 0-.2.2h.1zm-.1-10.3.1.3.1-.1c0-.2 0-.2-.2-.2zm-.6-8.5-.2-.2v.4l.2-.2zM7 54.2c-.2 0-.2.1 0 .2 0 0 .1 0 0-.2zM5.3 42.3c-.2 0-.2.2-.2.4.2-.1.2-.2.2-.4zM2.6 19h-.3v.2l.3-.2zM4 38.2c-.2-.2-.3 0-.4 0 .1.1.3.1.4 0zm11 18.4c-.1 0-.2 0-.2.2h.3v-.2zM9.6 42.1l.2-.3q-.3 0-.2.3zm4.8 9.9H14h.3zM6.1 40h.1l-.1-.1v.2zm5.3-.6c-.1-.1-.2-.2-.3 0h.3zm-2-.8h-.3.3zM1.6 49v-.1h-.2l.1.2s.1-.1 0-.1zm12.5-10v.2-.2zM2.8 30.6l-.1-.2v.1l.1.1zm8 5.4.2-.2-.3.1zM3.5 15.4h.2-.2zm5 26.6v.2-.3.2zm-2.2-8.6.1.1h.1v-.3l-.2.2zm1.3 23.1h.2v-.1h-.2zm2.2-17-.2.1.1.1.1-.2zM1.4 22.2V22h-.2v.2h.2zM2 50h-.2l.1.1zM28 .3c.2.2.4.3.4.5.1.3.1.6-.2.8l.5.6.1.2.4.4v-.2l.4-.2v-.1l-.1-.3v-.7l.1-.2-.7-.3-.1-.2-.3-.3-.4-.3h-.2l.1.3zm-4.3 2.2a4.8 4.8 0 0 0-.3.3v.4l.3-.4v-.3zm3.7.5h.4q-.2-.4 0-1l-.2.3c-.3.2-.5.4-.8.2h-.2v.7h.3l.5-.2zM7.8.2v.1c.1.4.4.4.6.4l.2.1c0 .2-.4.3-.3.6l.3.4A84.3 84.3 0 0 1 8.8 3h-.5l-.7.3h-.5c-.2-.3-.4-.4-.5-.3-.2.1-.3.2-.3.4v.2l.4.1V4l-.2.3v.2c0 .2.2.2.4.1l.2-.4-.1-.3v-.2c.2 0 .3.2.3.4l.4.4V5c.4 0 .9.3 1.3.6q.4-.5.8-.5l.2-.4-.1-.5-.3-.3c-.3-.2-.5-.3-.5-.6l.7.1.3-.5.2-.5.3.5V3c.1.2.2.4.4.4l.4-.2V3h.1c.4 0 .7-.3 1-.5.3.2.2.6.6.4l.3-.3c0 .3 0 .6.3.8l.1-.1c.2-.1.4 0 .5-.2v-.6c.3.2.5.1.7 0h.2l.3.5.3-.2c.2-.2.3-.4 0-.5l-.2-.4.1-.1.3.4.4-.4c.2-.2.3-.4.2-.6h-.7l-.4.5H15v-.4h-.2l-.2.3-.1.1c-.2 0-.3-.2-.5-.3h-.1v-.1l-.4-.4h-.2V.3H13V0h-1l.1.7c-.2.2-.4.4-.8.3h-.5l-.2.2-.2.1-.6.1h-.2v.2h-.2l-.3.2v-.4l.4-.2.2-.2h.5V.9l.2-.3V.4l-.3-.2h-.2l-.2.5v.2L9.2.6V.5c0-.2.2-.4.3-.5H7.8v.2zm5.4 1v.1c0 .5 0 .6-.5 1 .1-.3.4-.4.2-.6l-.6-.3V.7h.4v.4h.5zM18 7.4v.2c-.1.2 0 .3.1.4.3 0 .5 0 .5.3h.3c.2-.3.6-.6.6-1v-.1l-.1-.2c-.3-.2-.3-.2-.4-.5.2 0 .4 0 .6-.2l.6-.4s.1-.1.2 0c.5 0 .6-.2.5-.7h.2l.1.2c0 .3.2.6.6.6l.2.2v.5l-.3.3h-.1l-.4.7-.2-.2c-.2-.2-.4-.2-.7 0-.4 0-.7.4-.7.8v.6l1.1-.4.1.3-.2.3v.6c.1.2 0 .4.2.6v.7c.3 0 .5 0 .5-.3h.6l.1.6c.3 0 .5 0 .7-.2l.2-.6c0-.2 0-.5-.2-.7l-.2-.4v-1c.2-.1.2-.3 0-.5 0 0 0-.2-.2-.3l.4-.1c.2-.3 0-.4 0-.5l-.2-.1.3-.5V6c.4-.2.6 0 .7.3.1.1 0 .6-.1.7a1 1 0 0 0-.4.5c-.2.4 0 .9.3 1.1l.2.1c.2 0 .4 0 .6.2h.3c.2-.2.5-.4.5-.7s.2-.4.4-.5l.1-.6h-.6l-.9-.7.1-.2.2-.5c0-.1 0-.3-.2-.4v-.8c-.1-.2-.3-.2-.4 0-.3.2-.1.4 0 .6l-.2.3-.5-.8c-.3 0-.5 0-.7-.2l-.3-.1-.2-.2c0-.4-.4-.3-.6-.4-.1.3-.2.6 0 .9H21c-.1-.4-.4-.4-.7-.4h-.5l.3.9-.3.2-.5.2c-.1.1-.3.2-.3.4 0 .4-.2.7-.7.8v.6l-.1.1zm22.2-7 .1.6c.4.1.4-.2.6-.3.2 0 .2.2.2.4l.1.7h.3l.2.1.2-.5c0-.1 0-.3-.2-.4l.5-.3.5-.5.1-.2h-3v.6l.4-.2zM3 6l-1 .8c0 .2.2.2.4.1.2.2.3.4.3.7V8l.1.2L3 8v-.4l.7-.2c-.1.7.3 1 .6 1.4l.2.1c0 .3 0 .5.2.7l.1.2.1.3c-.3.3 0 .5.2.7l-.9.4-.2 1.2.2.3c.1.4.4.5.8.5.2 0 .2-.3.3-.4.1-.2.3-.4.5-.3v.2c0 .4.2.6.6.5h.4l.4-.1h.1c.2-.2.3-.5.2-.8l-.4-.5h-.5c-.2.4-.2.5-.4.5H6v-.7c0-.5 0-.5.5-.4l.3-.5-.6.1H6c-.2-.1-.3 0-.4 0h-.2c-.2-.1 0-.4 0-.6.3-.2.7-.4 1-.2.3-.4 0-.5 0-.7 0-.1.4 0 .3-.3 0-.3-.3-.2-.5-.3v-.3c0-.1 0-.2-.2-.1h-.4c-.3 0-.5 0-.6.3-.1.2-.3.2-.5 0l.4-.2a.74.74 0 0 0 .3-1l-.1-.6h-.2c-.2 0-.3.4-.7.1v-.5c.2-.1.2-.3 0-.4h-.4l-.1.5-.6-.6zm12.2 10.2h-.4c-.2-.2-.4-.1-.6.1 0 .2-.2.3-.3.3l-.3.2h-.1l-.4.2a1 1 0 0 0-.3.7l.2.4h-.8l-.4.4-.1.1v-.2c0-.4 0-.7-.3-1l-.3-.1-.1-.1c.3-.4.7-.5 1-1h.1-.3v-.8h-.2l-.2-.1h-.2v-.1l-.6-.8v-.8c-.2-.1-.5 0-.7.2-.2.1-.2.3-.4.6h.1l.5.1-.1.2v.1h-.1l-.1.1h-.2l-.3.2c-.2 0-.3.2-.3.3v.2c.2.2.4.3.6.2s.4-.3.6-.1h.1l.2-.2c0 .4-.2.7 0 1.1h-.3l.1.3c.2.3.3.6.2 1v.6c.2.2.5-.1.7.2l-.2.1.2.2c.2.2.5.4.8.4h.2l.7.3-.1.2v.3h.5c.2 0 .3-.2.3-.3v-.7l-.3.1v-.2c0-.2-.2-.3-.5-.3l.2-.4.3-.1.5-.2c.2-.2.4-.4.3-.7l.1-.1c.3.2.3-.1.5-.3l.3.4c.4-.2.6-.5.6-.7s0-.4-.2-.6H15zm-1 1s-.2 0 0-.2h.2l-.2.3zm.8-7.5a.55.55 0 0 0-.3-.5h-.1l-.2-.2H14l-.3.6-.5-.1.3-.7c-.1-.4-.4-.5-.7-.6l-.4.2h-.1V9H12c.1.4 0 .6-.2.8l-.2.5v.1l.3.1h.2l.2-.1c-.2.3-.2.3-.6.5 0 .2.1.5 0 .8l.7.7.7.6.5-.2h.2l.2-.2v-.3s0-.2-.2-.3l-.3-.3c0-.2.1-.2.3-.2l.3.1h.1c.2 0 .4 0 .4-.3l.2-.6-.4-.3H14v-.2h.7l.4.5c.2-.3.4-.6.3-1h-.5zm18.7-4.3v.4l-.2.3v.2c0 .2.1.3.3.3h.2c.4-.2.7-.2 1.1-.2h.1l.3-.2.2-.2c-.1-.1 0-.3 0-.4v-.3h.4c.3 0 .5.3.7.5l-.1-.5c.2-.3.6-.5.5-1l-.3-.1-.6-1c0-.5 0-.7-.4-.7-.2 0-.3 0-.5.6l-.5.2h-.3l-.2.2c0 .3-.2.5 0 .8.2.1.2.3.3.5h-.5c-.2 0-.4.1-.6.4v.2zm1.2 4.4c.3-.2.3-.5 0-1-.1-.2-.3-.6-.6-.8l-.1-.3c0-.2-.2-.2-.4-.2v.2q-.2.5-.8.5c0 .3.3.4 0 .6h-.7c-.3-.3-.5 0-.8 0 .2.3.2.8.6.9l-.4.6c-.3.4-.1.8.1 1.1.1.2.2.3.5.2.2 0 .3.2.5.3.3-.1.4-.3.5-.5l.3-.3v-.9h.4l.3-.3h.4l.2-.1zm-1.6.2-.6-.4h.5c0 .1.2.3.1.4zm-14.9 4.3.2.3c.2.2.5 0 .8.1.2-.3.5-.3.7-.3h.1l.5-.2V14l.1-.5.2-.3.3-.4c0-.2 0-.5-.3-.5v-.1c.2 0 .2-.1.3-.2.2-.3.2-.6 0-.7l-.4-.2c-.4-.2-.6-.2-.9.2v.1c0 .4.2.6.5.6l-.5.6c-.6-.4-1.1 0-1.6.3h-.5l-.3-.3h-.3s-.2 0-.3.2v.3c.3.2.5.3.8.2h.2l.4 1z"/><path d="M9.3 9.8c.3-.3.3-.6.3-1l.2.1.3.3c.2.2.3.3.5.2.2 0 .4-.1.5-.3v-.2h.1v-.1c-.3-.5-.3-.5.2-1v-.2l.3-.2c.3 0 .2.4.2.6l.2.1h.3v.1c.3 0 .4 0 .5-.2.1-.2.2-.5 0-.6l-.6-.5-.4-.3v.1l-.1.2c0 .1-.2.2-.3.1l-.2-.2v-.3c.2-.3 0-.4-.2-.6h-.6c-.2.2-.3.6-.3.8l.2.2.4.2v.4l-.2-.2c-.3.1-.4.4-.5.6 0 .2-.2.4-.3.5-.5 0-.5-.5-1-.5 0 .3-.4.4-.7.5l-.2.1v.1c0 .2 0 .3.4.5 0 .3-.2.5 0 .8h.4c.2 0 .4 0 .7-.2Zm19.3.2c-.1.3-.5.3-.7.5l-.5.7 1 .1-.5.7c0 .3.3.3.5.3.2.2.4 0 .5 0l.2-.9.2.1c.1.5.4.8.8 1-.2.2-.5.2-.5.6 0 .2.1.4.3.5.5-.2.6-.2.5-.8.2-.2.5-.3.4-.6 0-.4 0-.8-.5-1H30c0-.5-.2-1-.4-1.5.1-.2.3-.4.1-.7h-.5c-.1 0-.2-.4-.6-.2l-.1.3c-.1.2-.3.3-.3.6l.5.3ZM17.4.4c.1 0 .2 0 .3.2h-.1l-.2.2-.2.1-.2.4v.3l-.3.6c0 .3-.2.5-.4.8a22.4 22.4 0 0 1 1.1.4l.3-.7.5-.3.5.6c.4 0 .5-.4.6-.6V2c-.4-.2-.3-.5-.3-.7v-.1c-.2 0-.2-.1-.3-.2l-.4-.1c.2-.2.5-.5.4-.8V0l-.5.1L18 0h-1.1c0 .4.1.5.5.4Zm2.9-.4H20l.1.2.2-.2Zm-16 22.7c.2 0 .3 0 .4-.3 0-.3.3-.4.2-.7l-.1-.7v-.2L4 21c0 .1-.3 0-.4 0-.3 0-.5.2-.7 0l-.2-.1-.2-.1c0 .1.1.3-.1.3v.3c0 .1 0 .2.2.1l.6-.2-.3.4a1 1 0 0 0-.4.2v.4c.1 0 0 .2 0 .4l.4.2v.4l.1.4h.7c.2-.4 0-.6-.1-.9h.7ZM49.9 4.6c.3 0 .7-.1 1-.6-.2-.2 0-.6-.2-.9l.1-.4c.1-.3 0-.5-.3-.4h-1c-.4 0-.7.1-.8.4l-.2.5c0 .3.3.3.3.5l.1.4v.2l.3.2h.4l.3.1Zm-24 4.1h-.1V9h-.2c0 .3.3.4.5.4l.2.2-.2.2-.2-.1-.5.1c0 .1-.1.3 0 .4.1.3.1.7.5 1h.4c.3 0 .5-.1.6-.4a4.2 4.2 0 0 1 .3-.4c.3-.3.3-.6.2-1h-.5l.4-.4c.2 0 .3.3.5.2L28 9l-1-.5-.3-.1c-.3 0-.6 0-.8.3ZM45 .3c.2 0 .4-.1.5-.3h-.7l.2.3Zm-42.7 3c.2-.2.3-.4.5-.4s.2-.2.2-.3l-.2-.3c-.2 0-.3-.1-.4-.4L2 1.4c-.6 0-1.1.3-1.4.8v.2c.2.3.1.7.3 1 .5.5 1 .4 1.4-.1Zm-.4 14 .1.3.2.4.4.7c.2.2.6.1.7.5h.1l.2.1h.1l.2.2c.2 0 .3-.2 0-.4-.1-.2-.1-.5-.4-.7l-.1-.3c.3 0 .4.3.6.5.2-.1.3-.2.3-.4v-.6c-.2-.1-.3 0-.4.1l-.4.2h-.2l-.1-.4c-.2-.4-.5-.6-1-.5-.4 0-.4 0-.4-.4 0-.2 0-.4-.4-.4-.2.3 0 .7-.1 1 .2.3.4.1.6.1ZM37.5.4v.1c0 .4-.2.6-.3.9v.4l.1.2c0 .3.2.4.5.4l.6-.2.2-.3c0-.4.2-.7.1-1.1l.2-.4-.3-.2V0h-1v.4Zm-6 .6zm.1 0-.3.2c-.1 0-.2 0-.2.2v.2c-.1 0-.3.1-.2.3 0 0 0 .2.2.3.2.4.4.5.9.6v.4c.2.3.4.5.6.4.3 0 .5-.1.6-.3 0-.3 0-.6-.2-.7l-.4-.3-.2.2h-.2v-.9h.2l.4-.1-.2-.7h-.1c-.3 0-.6 0-.9.3Zm3.8 10c-.3 0-.3 0-.3-.3l-.4.2h-.1c-.3 0-.5 0-.6.3-.2.2-.3.5 0 .7v.7c.3.2.5.3.8.3h.4c.2 0 .3-.2.4-.4v-.1c.2-.3.2-.6.2-1 0-.2 0-.3-.2-.3h-.2Zm-14 7.6v.2l-.2.4c-.2.2-.2.5-.5.6v.3h.3c.2 0 .3.2.5.3l.1.2c.1.4.3.6.7.4l.6-.2c-.3-.2-.3-.4-.3-.6l.1-.2.1-.4v-.1l-.1-.2a.4.4 0 0 1-.2-.3l-.3-.2c-.2 0-.4 0-.7-.2ZM34 .4l.3.2-.4.8-.5.2-.4.2c.1.3.3.4.6.1l.3-.1c.4 0 .8 0 1 .3l.7-.1q0-.6.3-1c0-.3-.2-.5-.5-.6a1 1 0 0 1-.7-.3l-.2-.1h-.2l-.3.4ZM14.3 4.6Zm-1.6 1.6.3.2.4.2v.2c.2.3.3.4.6.2.5-.2.7-.5.6-1v-.2l-.3-.1.2-.3c.1-.3.2-.5-.1-.8H14c0 .3-.2.5-.4.8l-.3-.2-.6.4-.1.1c-.2.2-.1.4 0 .5Zm43-6-.6.2-.2-.1-.2-.2-.1.4V1c-.2.4 0 .6.4.6h.2c.1.3.3.3.5.2.3 0 .5-.3.8-.5V1c0-.4-.3-.6-.1-1H56l-.3.2Zm-26 15.3.4-.2h.7c.2.1.4.2.6 0l.7-.6V14l-.1-.2c-.3-.1-.5 0-.8.2v.1c-.4.2-.7.4-.8.8h-.1l-.4-.9-.3.3c-.4.2-.4.5-.4.9 0 .2.2.3.5.2ZM15.5 6.3l-.2 1c0 .2.3 0 .3.3l.3.2h.1c.2-.3.2-.6.2-.9h.1l.5-.2h.5c0-.4.1-.5.2-.7l.1-.3c0-.2-.4-.2-.7-.2l-.3.4-.2-.2-.3-.2c-.4.1-.3.6-.7.8Zm-7.3 9.9L8 16h-.2l-.2.5-.4.7H7c.5.8 1.1 1 1.7.5v-.4l.2-.8v-.2l-.6-.1-.1-.1Zm-3.5 3.3h.1c.6.3.8.1 1-.5v-.2c.6.3.8.3 1.2 0l.2-.1v-.3c-.1-.3-.4-.5-.6-.7h-.4c-.2.7-.6 1-1.1.7l-.4.2c-.2.2-.2.3-.2.5s0 .3.2.4ZM2 10.4l1-.1.2-.2v-.3c-.2-.2-.3-.5-.3-.8-.3 0-.6.2-.8.3l-.5-.4c0-.4.5-.2.6-.7 0 0-.1-.2-.4-.2-.1.2 0 .4-.3.4v.1c-.1.5-.4.7-.8 1l-.1.2.2.2.3-.1c.2-.2.5 0 .7-.3.2.3-.2.8.3.9Zm24-5.1-.1-.1-.3-.2-.1.4-.1.3c-.2.2-.4.5-.2.8.2.3.4.6.8.6h.2c.2-.3.4-.5.8-.6.1 0 .2-.1.2-.4H27c-.2-.4-.4-.7-.8-.8ZM35.7 8l-.1.3-.1.6.8.7v.1h.5l.2-.3.2-.3c.3-.3.3-.6 0-.8H37v-.1c-.2 0-.2-.2-.3-.2-.3-.3-.6-.3-.9-.1l-.1.1ZM8.6 11.2 8 11l.3-.3-.1-.4c-.2-.3-.5-.3-.8 0l-.1.2-.1.4.2.5.5-.3-.2.3c-.1.2 0 .4.2.4.5-.1.7.1.9.4h.1l.4-.1c-.2-.7-.3-1-.7-1Zm10-7h-.3c-.3 0-.5 0-.6.3-.1.3 0 .6.2.7l.3.2.1.1.2.3c.3 0 .3-.2.4-.3l.2-.2c.4 0 .4-.4.4-.7 0-.2 0-.5-.2-.7l-.7.3Zm10.8 14.2h.4c.1 0 .2 0 .3-.2.2-.2.3-.5.3-.8 0-.2-.2-.4-.3-.5-.3 0-.4-.3-.6-.5h-.1l-.5 1c-.2.5 0 .9.5 1Zm-5.4.8c.3.1.6.2 1 0 0 0 .2-.1.1-.2v-.3c0-.5-.3-.7-.6-.8-.3-.1-1 0-1.4.2l.2.3.3.6.3.2Zm-13 4.6.3-.2c.2.1.4.3.4.6 0 .7.6 1 1.3.6l.2-.6c0-.3-.2-.6-.5-.7h-.3l-.8-.1h-.4l-.4.2.1.2Zm20.6-2.2v.3c0 .2.2.3.4.3l.4.2c.5-.1.6-.5.7-1l-.2-.4c-.2-.2-.5-.3-.5-.8l-.4.5-.4.6v.3ZM20.3 2.7Zm.7-.5c0 .2-.2.5-.4.5h-.3v.1c-.3.2-.5.5-.5.8.6.5.8.5 1.2-.2.3 0 .7 0 .8-.5.2-.3-.1-.5-.3-.7h-.4Zm1 11.9v.1l.2 1.1v.1c0 .2.3.2.4.3l.5-.4.2-.2v-.7l-.6.1-.4-.5c-.1-.1 0-.3 0-.4l.3-.4.2-.4c-.3 0-.5 0-.5.3l-.3.4c-.5.1-.6.3-.3.7h.3Zm-4.5-4.4c0-.3 0-.5-.3-.7h-.9c-.4 0 0 .4-.1.7h-.3c-.2 0-.3.3-.1.4l.3.3h.8c.2 0 .3-.1.4-.3l.1-.3v-.1Zm-15 14.9V26c.2.2.4.2.6.2.5 0 .6-.2.6-.7l.1-.5-.6-.1v-.5c-.2-.1-.3-.2-.5-.1l-.2.2v.2Zm-1-1.6-.2-.5a8 8 0 0 1-.3-.2V22c0-.1.1-.3 0-.4H.7c-.1 0-.3.1-.2.3v.2l-.3.2.4.4-.1.2c0 .3 0 .6.2.7l.1.2H1c.3 0 .6-.3.6-.5V23ZM5.4 6.6V7c0 .2 0 .4.3.4l.5.2.3.1.5-.5-.1-.2-.2-.3a2 2 0 0 0-.6-.6c-.3 0-.6.2-.7.5Zm.7-.6ZM37 13c.1.3.5.3.6.6h-.2v.5l.3.3c.2.2.6 0 .7-.2 0-.1 0-.3.3-.4v-.3H38l-.2-.9c-.4.2-.4.2-.6-.2l-.3.2c-.2.2-.1.2 0 .5Zm-6.4-9.2.3.3s0 .2.2.2V4l.4-.2v-1c-.4 0-.6-.4-1.2-.1L30 3l.6.6h.1ZM20 14.8l-.2.3c-.1.2-.2.2-.3.2V15c-.3 0-.5 0-.4.3.1.2 0 .3-.2.5.2.4.7.4 1.1.5v.2c.2.1.3.1.4 0h.1v-.4l-.1-.2c.1 0 .2 0 .3-.2l-.5-.4.3-.4h-.2c-.1-.1-.2-.2-.3-.1ZM57 .7l-.2.2v.3l.2.1.2.4h.2l.2-.2V.1s-.2 0-.3.2l-.4.5ZM11.8 21.4c-.1.1-.2.3-.1.4 0 .2.2.4.4.4h.2c.2 0 .4.2.5.4l.3.4.6-.7V22l-.1-.6-.6.6-.1.1-.2-.2-.5-.4h-.4Zm3.2 7.9V29c.3-.2.2-.4.1-.7 0-.2-.2-.3-.4-.3l-.8-.1-.1.9c0 .2 0 .3.2.4l.3.2c.3.1.5 0 .6-.3ZM1.2 12.7v.4c.1 0 .2 0 .3.2v.3c0 .1.1.2.2.1.2 0 .3-.2.3-.3l.1-1.1c-.1-.3-.7 0-.8-.5l.3-.3c-.4-.2-.5-.2-.6.1l-.2.3c0 .2 0 .3.2.5l.2.3ZM32.5.1h.7V0h-.9l.1.1ZM4.4 23.8c.4 0 .8-.1 1-.4l.5-.7c-.1-.3-.4-.5-.8-.5v.4c-.8.6-.8.6-.9 1v.1h.2ZM39.1 6.6c.3-.2.4-.4.2-.7-.1-.3-.3-.4-.6-.3h-.2c-.5.2-.6.6-.4 1 .2 0 .3.2.4.4l.6-.4ZM19.4 17.7h.7c.2 0 .5.1.7.4.3-.3.7-.5.6-1-.7 0-.8 0-1 .2L20 17c-.4 0-.5.1-.4.6l-.2-.2-.1.3ZM6.1 6Zm-.6-.6.6.6c.2-.2.4-.3.3-.6-.1-.2-.3-.5-.6-.5h-.2v-.1l-.1-.2-.3.1c-.4.2-.5.6-.4 1l.7-.3ZM1 24.9v.3s0 .2-.2.2v.3l1.1-.2.3-.2v-.1l-.1-.6h-.2a2 2 0 0 0-.3-.1h-.3l-.2.4Zm23-10.3c.2-.2.5-.2.5-.6 0-.4-.2-.5-.4-.7v-.4l-.3.2-.4.7v.2c.1.3.2.5.6.6ZM52 .7h-.4c-.2 0-.4.2-.5.3-.2.2-.3.4-.2.6v.3c.4.2.7 0 1-.2l.2-.4c0-.1 0-.3.2-.4V.7H52Zm.4 0ZM14.3 4.6Zm.1-1.1c0 .3 0 .5-.3.6l.3.5c.3 0 .6 0 .9-.2V3.2c-.3-.2-.5-.1-.7 0l-.2.2Zm-2.9 11.3.1-.1v-.2l.2-.3v-.3l-.2-.1-.1-.2.1-.4c.2-.2.1-.3 0-.5-.3 0-.3.3-.4.4l-.2.2c0 .3.2.3.3.4-.2.5-.3.6 0 1l.1.1Zm15.3-3.2c-.1 0-.2 0-.3.2l-.2.2c0 .2 0 .4.2.6 0 .2.3.3.5.2.2 0 .4-.2.4-.5v-.2l-.1-.3c-.2-.2-.4-.2-.5-.2Zm4 7-.5-.3-.4.6c-.1.2 0 .4.2.6.2.2.3.2.5 0l.2-.1.2-.4c0-.1 0-.3-.2-.4ZM19 12c.3 0 .6-.2.7-.5 0-.3-.1-.4-.3-.6H19c-.3.1-.4.4-.5.6 0 .4.2.6.5.5Zm12.8-4.9c-.3-.2-.6-.2-.8 0l-.5.2v.5l.7.3c.3-.2.5-.6.5-1Zm3.8 10.4.7.7c.7-.2.7-.4.5-.8L36 17c-.1 0-.3.1-.4.4ZM1 10.8l.1-.6-.3.2-.1-.3c-.3 0-.5.2-.7.3v.7l.2.1c.5 0 .6 0 .8-.4Zm27.5-3.6-.3-.2c-.7.2-.7.4-.5 1.1h.6l.2-.5v-.4Zm-13 .8-.6-.4c-.2.2-.1.5-.3.7v.1l-.2.1c.2.4.4.5.8.4l.3-.1V8Zm2.4 10.7.2.2h.8v-.3c.2-.3.1-.4-.3-.7l-.8.4v.4Zm-4-3.7v.3l-.1.3h.2l.3-.1.7-.5.2-.3c0-.2-.2-.2-.4-.2l-.6.1-.3.3ZM9.2 26.4l-.7.3c-.2.5-.2.5.4.8l.8-.7c-.1-.3-.3-.4-.5-.4Zm-7-11.8c0-.4-.3-.3-.6-.4v.9l.7.3c.2 0 .3-.1.4-.3a10 10 0 0 0-.3-.4h-.2Zm18.5 10.2c-.3.5-.6 1 0 1.6.5-.5.6-.7.2-1.3l-.2-.3ZM1 30.5c0-.8 0-1-1-1v.3c0 .2 0 .4.2.5.2.2.4.3.8.2Zm26.9-13c.2 0 .4 0 .7-.4l-.4-.6c-.6 0-.6 0-.7.3 0 .3 0 .5.4.7ZM40.8 4.2l.2-.4-.5-.5c-.3 0-.4.2-.5.4-.2.2-.1.5 0 .6.3.2.6.2.8 0Zm2.8 2.9c.4-.3.4-.6 0-1-.4.1-.6.2-.6.6l.3.7.3-.3ZM25 .5c.3.1.5 0 .6-.2l.1-.3h-1c0 .3 0 .5.3.5ZM3.3 14.8c.3-.2.3-.2.2-.5L3 14v-.3c0-.2-.1-.3-.3-.2-.2 0-.4.1-.4.3 0 .2 0 .3.2.4H3c0 .3 0 .6.3.7ZM53.2.4 53 .2h-.5V1c0 .2.2.3.3.3.2 0 .5-.2.5-.3V.4Zm-.8.3Zm-38 12.5c-.4.4.1.7 0 1h.5l.2-.1v-.3l-.1-.6h-.6Zm4.3-2.7c.4.1.5 0 .9-.5l-.3-.3-.2-.3c-.3.2-.6.3-.4.7v.4Zm6.9 6.1.4-.2V16l-.8-.2-.3.5v.3h.7Zm9.7-9.4c.1-.2.2-.4 0-.5l-.2-.1h-.4l-.4.2.1.5h.9v-.1Zm-34 6.5c0-.2-.1-.3-.3-.5H.8c-.2.1-.4.2-.4.5 0 .2.2.5.3.5.2 0 .5 0 .6-.2v-.3Zm19-11z"/><path d="m20.4 2.6.3-.2v-.1c.2-.1.2-.3 0-.4l-.1-.2c-.3 0-.4.2-.6.4l-.2.2v.4h.6ZM.5 15.4Zm-.4 0h.4c.5-.2.5-.3.2-1-.3.1-.3.1-.7.7v.3ZM48.5.2v.6h.1l.4.1c.2 0 .3-.2.3-.5V0h-.6l-.2.2ZM12.3 13l-.4.4c.3.2.5.3.8.3.2 0 .2.3.4.1l.1-.2v-.1c-.2 0-.3 0-.3-.3h-.3l-.3-.2ZM.4 26.5c0-.3 0-.5-.4-.9V27l.4-.4Zm16.3-8.9c.5.2.7 0 1-.5-.3-.3-.3-.3-.7-.2l-.3.3v.4Zm-4.5-2.1v.2l.2.1c.2.2.5.2.7 0 .2-.2.2-.3 0-.5h-.7l-.2.2ZM37 12c.7 0 .7 0 .8-.7l-.3-.1-.3-.1c-.2 0-.2.3-.2.4v.5ZM17 26.6c.2-.2.2-.4 0-.6-.1-.1-.4-.2-.5 0l-.2.2v.4c.2.2.5.2.7 0ZM2.5 5.4c.7-.3.8-.4.6-1-.7 0-.8.2-.6 1ZM30.9.6h.1c.2.2.3.4.5.4l.1-.2c0-.2.1-.3 0-.4V0h-.3c-.2 0-.3.2-.4.6Zm.6.4Zm5.7-.3C37 .2 37 0 36.6 0l-.2.8.4.3.4-.4ZM7.5 14.9c-.2 0-.4.1-.5.5.4 0 .7.2 1-.2l-.3-.3v-.1h-.2ZM33.6 3.7l-.5.2v.4l.7.1c.2-.2.2-.3-.2-.7Zm.7-.7c.2 0 .3-.1.4-.3 0-.2 0-.3-.2-.4l-.3-.1c-.3.1-.3.3-.3.6l.4.2Zm-9 16.9.5.4.1-.5v-.4h-.5v.5ZM15.4 12c0-.1 0-.2.2-.3 0 0 .2-.1.2-.3l-.2-.1-.1-.1-.4-.2c-.2.3-.2.5 0 .7 0 0 .1.2.3.2Zm0 0zm.4 1.3c-.2 0-.2.1-.3.2-.1 0-.2.2-.2.5.4 0 .7 0 1-.4h-.1c-.2-.3-.2-.3-.4-.3Zm-.4-1.3c-.3.1-.5.3-.5.6v.2l.3.2.3-.2.1-.2c0-.1 0-.3-.2-.5V12Zm0 0zm9.6.4-.4-.8c-.3.2-.3.5-.4.8v.2l.8-.2Zm-2.4 3.9v.1l-.1.3c.3.1.5 0 .7-.2.2 0 .2-.2.1-.3l-.1-.1H23c-.2 0-.4 0-.4.2ZM39.4 4.2h-.8v.4c.2.2.5.1.8 0v-.4ZM32.7 16c.8 0 .8 0 .7-.6-.6-.1-.8 0-.7.5Zm3.7-5.7v.4l.2.1.2.1c.3-.3.3-.4 0-.8l-.1-.2-.3.4ZM8 22.2c-.1.4.2.6.3.8h.5c-.1-.6-.2-.6-.8-.8Zm.4-1.2.3.3.5-.2.3-.1v-.2c0-.1-.2-.1-.4 0h-.5l-.2.2Zm-6.3 6.8.1-.4v-.2c-.5-.2-.5.3-.7.4 0 .2 0 .2.2.2.1.1.3 0 .4 0Zm11.6-1.3c-.2 0-.3.1-.3.3 0 .3.2.5.6.6.1-.4 0-.6-.3-1Zm.6-4.8v.5c.2.2.4.2.6 0 .1-.1.1-.2 0-.4v-.1h-.6ZM31.1 5.9c.2-.2.2-.3 0-.5 0-.1-.3-.1-.4 0-.2.2-.2.4-.1.5.1.2.4.1.5 0ZM16.7 3.6v.5c.2.2.4.2.7 0l-.1-.4h-.6ZM16 15.3l.2-.2c.1-.2.3-.3 0-.5l-.4.1-.2.5c.2.2.3.2.4 0Zm20.8-8.1c.1.5.1.5.5.8l.2-.3c0-.3-.2-.5-.4-.6h-.3Zm-21.1-2c.3-.2.4-.4.1-.7-.3 0-.5.2-.5.4l.1.3h.3ZM6.8 19.4c-.1.2-.2.4 0 .5h.5v-.5h-.5Zm9.6 1.7c.2.4.2.4.8.1 0-.2-.1-.3-.3-.3-.2 0-.4 0-.5.2Zm22.4-4.7v-.6l-.4.2-.1.4v.1l.2.1s.2 0 .3-.2ZM6.5 23.9l.4-.1v-.4c-.2-.2-.4 0-.6 0 0 .2 0 .4.2.5Zm24.9-11c-.2 0-.2.3 0 .5 0 0 .2.1.4 0v-.5h-.5ZM7 22h-.4l-.1.5h.2c.2 0 .3 0 .3-.2.1-.1.1-.3 0-.4Zm5.8-18.7-.4-.1.1.5h.1c.2 0 .3.1.4 0v-.2s0-.2-.2-.2ZM.7 19v-.1a.7.7 0 0 0-.7-.2v.3l.4.2c.1 0 .2 0 .3-.2ZM57.6 4v-.4.4ZM35.2 14.6c.2 0 .3-.1.3-.3l-.4-.3-.3.2c0 .2.2.4.4.4Zm3.6-4.5.2-.7c-.4.2-.6.5-1 .5.2.5.6 0 .8.2ZM10.1 23.6l-.3.3c.2.3.4.3.6 0v-.2h-.3ZM28 5.3Zm0 0c-.1-.2-.2-.2-.4-.2l-.2.3c-.1.2 0 .3.3.4.2 0 .2-.3.2-.5Zm-16.7-.5c.1 0 .1-.3 0-.4l-.3-.1c-.2.2-.2.4 0 .6h.3ZM2.8 12c0-.2 0-.5-.3-.6l-.2.3c0 .1.2.3.5.4ZM.2 7.6l-.2.1v.7c.3-.2.4-.5.2-.8ZM26.6 15c.2.2.4.2.7 0l-.2-.2h-.6l.1.3ZM3 11.3c0 .2 0 .3.2.5.2 0 .2 0 .3-.2 0-.2 0-.3-.2-.4l-.3.1ZM4 9c0-.1 0-.3-.3-.2 0 .2-.3.4 0 .6L4 9Zm22.6-1h.4v-.4c-.2-.2-.3 0-.4 0v.5Zm14 4.7.2-.1v-.5c-.3 0-.3.2-.4.4l.2.2Zm-33.3.5c.3.4.5.3.6 0q-.4-.2-.6 0Zm26.9 1.1.5-.2c-.1-.3-.4-.2-.6-.3-.1.2 0 .4.1.5ZM8.7 7.7c.2 0 .3-.1.3-.3 0-.2-.3-.1-.4-.2q-.1.3.1.5Zm-5.4 5.7v.3c.1.1.2.2.4 0v-.3c-.1-.1-.2-.1-.4 0ZM33.6 1h.2c.2-.1.2-.2.1-.3l-.1-.2c-.2.3-.3.4-.2.5Zm-3 15.6h.1l.2-.2c.1 0 .3-.1.2-.3h-.4v.5ZM.8 20.8c.2-.2.2-.3.1-.5H.6l.1.5ZM12.5 5.3h.1l.1-.1c.1-.2 0-.2-.4-.3v.4l.2.1ZM1 6.5l-.1.2c0 .2.2.3.5.2l-.2-.3H.8Zm25.3 9c0 .1 0 .2.2.3l.2-.2-.1-.3c-.1 0-.3 0-.3.2Zm14.7-5h-.3l-.1.3h.4v-.3Zm-22.9 9.4v.2c-.2.1-.1.2 0 .3h.2c.1-.2.1-.3 0-.4l-.2-.1Zm-2.3 1.4h.2V21c-.2-.2-.3 0-.4.2l.2.1ZM28.8 7q0 .5.4.5 0-.3-.4-.4Zm-4.6 14.2-.1-.4h-.2v.3l.3.1Zm-24 3.4h.1l.1-.2s-.1-.1-.2 0H0c0 .2 0 .2.2.2ZM13.6 4.3c0-.2-.1-.4-.3-.3l-.1.2v.1h.4Zm31.4 3v-.5c-.4.1-.4.2 0 .5ZM.6 11.6c-.2 0-.2.1-.3.4l.5-.2-.2-.2Zm1.2-.7.3-.1-.3-.4c-.1.2-.2.3 0 .5ZM38.5 9v-.2l-.3-.3.1.4h.2ZM6.6 21.2c0 .3.2.3.4.3q0-.3-.4-.3Zm3.4 0c0 .2.1.2.2.3v-.3l-.3-.1ZM.5 15.4Zm-.1.4.3.2c0-.3 0-.4-.2-.6 0 .2-.1.3 0 .4Zm29.9-8.9v.3h.3v-.3h-.3Zm-19 4.1c0-.3 0-.4-.3-.3l.3.3ZM28 8.7h.2v-.3H28v.3Zm-28 0V9v-.2Zm16.3-.6v.2l-.1.2h.2l.2-.2c-.1 0-.2 0-.3-.2ZM5.2 1.5l-.3.3q.3 0 .2-.3Zm4.2 5.2c0-.1-.2 0-.2 0V7l.2-.3ZM32 4c-.2-.2-.3 0-.4.1.1.1.2.2.4 0Zm-8.2 6.8h-.2v.3h.2v-.3Zm13.8-6.9c-.1.2-.2.3 0 .5.1-.2.2-.3 0-.5ZM7.5 25.1v-.2l-.3.2h.3Zm-.8-11.7h-.2l.2.2h.1v-.2Zm8.5 9.2H15v.3h.1v-.3ZM32.9 7c0-.3 0-.4-.3-.4 0 .2 0 .4.3.4Zm-15.6.8v-.1l-.1-.1H17v.2h.3ZM8.9 19.2v-.1c-.2-.1-.3 0-.4.1.2.1.3.1.4 0ZM4 20h.3c0-.2-.1-.2-.3-.1v.1ZM8.5 6.7h-.2v.2h.2v-.2ZM41 8.5V8q-.3.2 0 .5ZM17 14l.1-.3c-.2.2-.2.3 0 .4ZM53.4 3l.2.1-.1-.2h-.1Zm-35.3 9c.2 0 .2 0 .2-.2l-.3.1.1.1Zm1.9-1.8v-.4c-.3.2-.3.3 0 .4Zm-2.4.8.2-.2h-.3v.2Zm-6-2.7h.1c0-.3 0-.2-.2-.2l.1.2Zm24.4-1h.4l.1-.2h-.2l-.2.1Zm4.2 4.7c0-.3 0-.3-.3-.3 0 .2.2.2.3.2Zm-27.5 2.4v.4l.2-.1c0-.1 0-.2-.2-.3Zm-6.7 5 .2.1c.1 0 .2 0 .1-.2l-.2.1ZM37.8 11h.1v-.2h-.3l.2.1Zm-36-6.7H2V4c-.2 0-.3 0-.3.2Zm40.7 9.9h-.2v.3l.1-.1v-.2Zm-17.1-1.5h-.2.2Zm11.4 1.8v.3-.3ZM13.1 26.9H13v.1h.2v-.1Zm3.5-16.2v.2h.2v-.2h-.2ZM40.2 7l-.2.2v.1l.3-.1V7ZM31 13.1h-.2l-.1.2h.3V13ZM10 3.9l.2.1h.1l-.1-.2H10ZM4.6 16.7l-.2-.2c0 .2 0 .2.2.2ZM25.3 3.5v.2h.1v-.2h-.1ZM9.8 18.3l.2.1-.1-.2ZM.1 8.6l.1.2h.1v-.2H.1ZM39 10.5v-.2.2ZM0 17.6v.1ZM16.9 19h-.2v.2l.2-.1v-.2ZM3.4 12v.3h.2V12h-.2Zm-.2.6H3v.1h.1v-.1Z"/></g><path fill="#fff" d="M37.7 40.8c-9 .6-22-2.2-22-2.2s2.1 7.4 8.2 11.1c.2-4.6 4.3-8.2 4.3-8.2s5 3.3 4.8 8.7c0 .6 0 1.1-.2 1.6 14-.6 17.4-13 17.4-13s-4.2 1.5-12.5 2Z"/></svg>