<svg xmlns="http://www.w3.org/2000/svg" viewBox="0 0 57.6 57.6"><path fill="#091742" d="m19.1 2-.2-.1c0 .3.2.7.5 1.1l.1.1c.2-.2.5-.3.7-.1.2 0 .4.2.5.3.2.3 0 .7-.3.8.7.6 1.8 1.1 2.5.8.3-.1.4-.4.5-.8h-.2l-.1.5-.6-.7H22V3l.9-.2h.1c0-.2-.2-.4-.3-.5A5 5 0 0 0 21.1 1v.2l.5.7c-.2.4-.4.4-.7.4h-.2c-.1-.4-.5-.4-.7-.6l-.3.2-.3-.2h.6c0-.6.1-.7.7-.9-.5-.1-1-.1-1.4.2l-.2.2V2Z"/><g fill="#0c2b77"><path d="M16.5 5.3v-.1l-.3.3c-.3-.4-.3-.5.1-.7l.3.4h.1c.6-.8-.2-1.4-1-1.5-2.2-.2-.4 2.6.8 1.7Zm0-1.2.1.2v.1H16c.1-.3.3-.3.4-.3ZM2 28.5l-.2.4H2c.3.1.6.2.7-.2l-.1-.3H2Zm28.7 3.3zm19.7-16.9ZM35.5 3.3Zm-9.2 4.3-.2.1c-.3.2-.5.3-.6.6l-.5.2h-1.6V8c-.3-.3-.7-.6-1.1-.3-.2-.1-.4-.3-.3-.5h1l-.4-.6-.7-.4.3-.5c-.2-.5-.6-.6-1-.4l-.2.2h-.6l-.4-.9c-.4-.1-.6.3-1 .3l-.1-.5c0-.2-.2-.3-.4-.3-.3 0-.6 0-.8.2v.5l-.4.2h.3q.5.4 1.1.2h.2v1c0-.1-.1-.1-.2 0v.2-.2l-.2.1c-.2 0-.3-.1-.4-.3l-.2.3-.2.2V7c-.1.3 0 .4.2.5.2.2.4.2.7.3v-.3c.2.1.3.3.4 0v-.1l-.3-.2v-.4l.1.1.7-.4c.4 0 .7-.4 1-.7.1.4.4.6.8.5l.1.6.4.1-.2.6-1-.5c0 .3-.2.6-.4.9l-.2-.6v.4c-.2.1-.4 0-.3.3v.1h.1c.2.2.4.3.5.2 0 0 0-.3.3-.2 0 .5 0 .7.4.7h.7c.3-.2.5-.2.8-.1.4 0 .5.4.8.6-.3.4-.8.4-1.1.6l-.2-.3h-.2c-.2 0-.4.2-.5.3 0 .3-.4.5-.2 1l-.1.1c-.4.2-.6.5-1 .6v.2c0 .2-.1.1-.2.1l-.2.5h-.1v.3h.3c.4 0 .3.5.7.5l.1.3.2.4.1.5.1.1.1.1v.3h.5c0 .2-.2.3-.4.3v.2H21l-.2.1.4.2c.4 0 .7 0 1-.3v-.3c-.4-.3-.5-.7-.5-1.2l-.2-.1-.2-.1-.5-.4.6-.5.5.2-.2.2.4.3h.5l.2.2c0 .4-.2.5-.7.3v.4l.7.3a11.6 11.6 0 0 0-.4.8l-.2.5c-.2.2-.5 0-.5.4h.3c.4 0 .4-.1.6.3h-.2c-.3-.1-.4 0-.6.2-.2.1-.3.3-.2.5 0 .3.5.6.8.6l.2-.1c0-.2 0-.4.3-.8l.1.3c.1-.3.2-.5 0-.7.4-.3.3-.7.3-1 .2-.2.4-.3.4-.5 0 0-.2 0-.2-.2 0-.1 0-.2.2-.2v-.3c.3-.1.2-.5.3-.8l.3.2.1.2-.1.2.6.1h.4c.2-.2.3-.2.5 0 .6.2.8.1 1-.4.1-.2.2-.3.4-.3.2.4 0 .8-.4 1l.3.3-.2.3h-.5l-.1.2h-.9c0 .3.4.3.6.5l.6.3.4-.2-.1.4.2.3c-.2.3-.4-.1-.6 0l-.2.2c-.4.3-.4.6-.2.9l.3.4c.3.2.4.2.5-.1v-.1c.3 0 .5.2.7.3.1 0 .3 0 .4-.2l.3-.4.3.3q-.3.4 0 .7c.3-.3.8-.3 1-.6l-.2-.4-.3-.2v-.1c.3-.2.2-.4 0-.6 0-.1-.2 0-.4 0l-.3.3-.9-.8.2-.3c.4-.4.5-.5.2-1l.4-.7.3-.2.2.6.6.1c0-.5 0-.9-.5-1.1l.1-.1h.1c.2.3.5.3.8.3h.4v.4c-.3.2-.2.5-.2.7-.4 0-.7 0-1 .3-.4 0-.3.5-.6.7l.4.1h.3c.5 0 .6.2.5.7v.6c.3.1.2.4.3.5l.2-.2.2.3-.2.2-.3.3.5.4c-.2.3-.5.5-.1.9l-.2.4h.3c.2-.2.6-.2.6 0 0 .3.3.4.5.5l-.2.3c-.2-.3-.4-.2-.6 0v.4c-.1 0-.2.1-.1.2 0 .1 0 .3.2.3l.3.2.5-.2c.3 0 .4-.1.4-.4v-.3c0-.2 0-.3.3-.3l1.1-.2.2-.2-.1-.2c-.2-.2-.4-.2-.7 0 0-.4.2-.3.3-.5.2.2.4.4.7.2.2-.3.3-.7.7-.9l-.5-.8 1-.3c.1.3-.2.4-.3.5v.5c.2 0 .4 0 .4.4.4-.1.4.1.6.2h.4l-.4.4-.3-.3v.5l-.3-.2c0 .3 0 .4.2.6l.4.3c.2.1.4.2.4.4l.2.6c-.3.3-.5.4.2.8l-.3.3-.2-.5-.1.2c.1.3 0 .4-.3.5l-.1-.5-.1.3H35v-.6q.3 0 .5-.4l-.3-.5-.4.1c0-.2 0-.3-.3-.3v.7c-.4 0-.5.2-.6.4q-.4-.1-.5-.5l1-.3-.5-.4s-.2-.1-.2-.3c0-.2-.1-.2-.3-.2l-.3.1-.1.4-.5.1.2.3v.5c-.2.4 0 .6.4.7h.3l-1 .4-.4-.2-.3.4v.1h.8c0 .3.4.2.5.3.2.2.4 0 .6 0l.2-.1c0 .2.5.1.4.5l-.4-.2-.1.2v.6c-.3 0-.3.6-.8.6-.3-.3 0-.6 0-.8l-1-.8c-.2.3-.2.3 0 .5.2.1.3.2.2.4-.5.2-1 .2-1.5.1v-.2c.5 0 .7-.2 1-.3v-.3c-.2-.2-.2-.4-.2-.7 0-.4 0-.8-.3-1-.4 0-.6.4-.8.7l-.3-.7c-.5.3-1 .5-1.2 1.1h.5c0-.1.1-.1.2 0v.2c-.2.1-.2.2-.2.3-.3 0-.4 0-.4.2v.2c-.3.2-.4 0-.6-.1l-.6.4v-.4l-.3-.3.2-.3c-.2-.1-.2-.4-.5-.3L27 23l-.2-.2.8-.5h-.3c-.2 0-.4 0-.6.2l-.4-.2c-.4-.1-.8.2-.8.6v1c-.3-.2-.3-.5-.4-.7a1 1 0 0 0-.4-.8c.3-.2 0-.6.4-.9l.3.2c.3.2.4.2.7 0l.4-.2c.2 0 .3-.1.3-.3-.2-.2-.6-.2-.8-.5-.2 0-.3 0-.4-.3 0-.2-.3-.2-.4 0-.2 0-.1.2 0 .3v.2l-.4.4-.1-.3-.5-.4c-.3 0-.5 0-.6.3l-.1.2c-.3.2-.3.5 0 .8l.2.3-.4.2c-.2 0-.2.2 0 .3l.5-.2v.4c-.1.3-.2.6 0 1l-.1.1c0-.4-.2-.5-.5-.3l.2.5h-.2c-.2-.1-.3 0-.4 0v.4l.3.3c-.2 0-.4-.2-.5-.1h-.5l-.6.3c.2.4.5 0 .8.1-.2.3-.4.4-.4.7l.5.4c-.1 0-.2.2-.3.1-.3 0-.5.2-.6.4l.4.6v.7c.3 0 .4-.3.4-.5l.1-.4.2-.4.2-.2.1.7.3.1v-.2h.3l.4-.4.2.2-.4.6c-.2.3-.5.6-.2 1 .3 0 .3 0 .4.2 0 .2.1.3.3.4l.4.2h.3c-.1-.2-.4-.2-.2-.5.2.3.5.2.5.6h-.1l-.3.8.5.1c.2.1.2.3.1.5l.2.1c-.3.3-.3.6 0 1h-.1c.2.2.2.2.5-.1v.4q.3.2.6.1c-.4 0-.3-.4-.4-.7l-.6-.2c0-.2 0-.3.2-.4.1 0 .4-.2.3-.5h.3v.3h.5c0-.3.2-.5.3-.6.3-.1.4-.3.4-.7.2.3.5.1.7 0v.3l-.7.5v.3h-.2l-.2.2.5.2.1-.2 1 .2v-.3l.2-.2.2.2-.1.4h.4c-.2-.4.2-.5.4-.8.2.2.6.1.8.4l-.1.3c.3.1.7 0 .8.4h-.3c-.2-.1-.3 0-.4.1l.3.1-.1.3c-.3 0-.6.3-.9 0-.2.3-.3.5-.1.8 0-.4.4-.4.7-.5-.2.3.3.3.2.6l.4-.3c.3.3 0 .6-.1 1 .5-.4 1-.2 1.4-.3.1.3 0 .4-.1.6-.1.3 0 .5.3.5h.2v.6c0 .2.3.4.4.4.3 0 .3 0 .4-.3V35l-.2-.7h.5l.2.2v-.3l.3-.2v-.8l-.5-.1c.5-.2 1-.3 1.6 0v.4h-.8c-.3.5.2.6.3 1 .4-.2.2-.5.3-.7.3-.2.6-.3 1-.2v-.2l.5.1c0 .2.2.2.4.1-.3-.2-.3-.2-.3-.6l-.2.2-1-.7c0-.2.3-.4.5-.6l.2.2c.2.1.3.2.3.4h.3V32c-.2-.1-.1-.5-.3-.6V31l.3-.3c0 .1 0 .2.2.3l.3.2.1-.5.2 1h.3l.3-.4h.3c.4-.2.6 0 .8.2h.3c0 .3-.3.2-.3.4 0 .4.2.4.4.5.4-.1.7-.4.5-.9l.2-.2c0 .4.3.6.6.7l.5-.3-.2-.6 1 .3.6-.6c.5.1.6 0 .8-.5l.4.1q-.3.5 0 .8v.2h.6c0-.4-.3-.7-.2-1h-.1c-.1-.4-.3-.5-.6-.3h-.6l-.3-.1v-.3l.2-.2-.4.1c-.4 0-.4 0-.3.5h.4l-.3.2c-.2.1-.2.2 0 .3l.2.2c-.2 0-.2.1-.3.2l-.2-.2c-.2-.1 0-.4-.2-.5l-.5.3-.3-.4-.3.1c-.2-.4.3-.7.1-1l-1.6-.3-.2.2-.3-.3-.6.3c.2-.4.2-.6-.2-.7l-.4-.4c0-.2.2-.3.3-.4.1.2.2.3.4.2h.6c-.4 0-.5.4-.6.6h1c.2-.2.4-.1.6 0l-.1-.6c0-.1 0-.3.2-.4l-.3-.1v-.1l-.1-.5-.2-.1-.3-.3v.2c-.5.1-.7-.2-1-.4l.3-.7c.5.3.5.5.5 1l.4-.2c.2 0 .3.4.6.2v.7l.5-.2.2.3.1.3.2.2.8.6-.2.1c.2.5.4.6 1 .4h.2l.4-.8c0 .1.1.3 0 .4v.9h.4v.3h.1l.5-.1c0-.3 0-.3-.3-.4l-.1-.2c0-.5.4-.6.8-.7l-.1-.3-.3.3-.4-.4c.3-.2.3-.4.2-.7v-1h-.4v.4a.5.5 0 0 1-.5-.3c0-.2-.1-.3-.3-.4a1 1 0 0 1-.3-.5c.1-.2.2-.4.5-.4.2 0 .3-.2.2-.4 0-.2-.2-.3-.3-.3-.2 0-.3.2-.3.3l-.2.7c-.2-.4-.6-.5-.9-.8-.3-.3-.7 0-1-.2l.1-1-.4-.1c0-.2.1-.2.2-.3.1.1.4 0 .5.3 0 0 .3.1.4 0l.2-.2c0 .3.1.5.5.6l-.1-.3q.8 0 .8-.5l-.8-.5-.5.2-.1-.3c.2 0 .4-.2.5-.4 0-.3-.2-.2-.4-.3 0-.2 0-.4.4-.4 0 .3.1.5.4.6l.7.3.4-.3-.3-.4c0-.2 0-.3-.3-.4l.3-.4h.4v-.9h.1l.3.5c.3-.3.3-.3 0-.7l.2-.7c.2.3.3.1.5.1.4 0 .4-.4.2-.7l-.2-.2.5-.4s.2.1.2.3c.2.2.3.4.7.5-.4.2-.4.2-.3.6v.3l-.4.1c-.1.3 0 .5.2.6.1 0 .3 0 .4-.2v-.5l.8.3.2-.4c.1-.2 0-.4-.2-.4l-.4-.1.4-.4c.3 0 .3-.2.4-.4l.1-1h.3c-.2.3-.3.5-.2.8.3-.1.5 0 .7.2.3.2.5.1.8 0l.1-.2c-.2-.2-.5 0-.7-.2v-.2l.1-.1c.3-.1.2-.4.4-.7-.3.1-.4.3-.6.1l-.1-1.2h.4l.6.2.4-.5c.2-.1.4-.3.5-.6l.3.3.3-.3c.1-.1.2-.2.4 0q-.3.4 0 .7l.9-.9-.1-.5c.3-.2.4-.4.5-.7l-.1-.3c0-.2.3-.2.2-.5l-1-.4-.4.2c-.2 0-.4-.2-.5-.3l-.5-.2h-.3c-.1-.2-.3-.2-.4 0l-.4.2c.3.2 0 .6.3.6l-.2.3.2.8c-.3 0-.6-.3-1-.1l.3.4-.3.3H48c.2-.2.3-.4 0-.6-.1-.2-.3 0-.5.1l-.2.5.2.3h.3l.6.7h-.8c0 .3 0 .5-.2.7-.5-.3-.4-.6 0-1q0-.2-.4-.6l.4-.6v-.2c0-.5 0-.7-.6-.8l-.1-.4h.4c.4 0 .5 0 .5-.4 0-.3 0-.3.3-.3h.8V11l.5-.1c.2 0 .3-.2.5-.4l.1.7h.4l.4.2h.2l.3-.3.3.3c.6-.6.6-.9 0-1.2l-.4.6c-.4-.3-1 0-1.2-.7l.2-.2.2-.4.3-.3.3-.2c0-.3 0-.5-.3-.7l-.1-.3c0-.1.3 0 .2-.3 0-.2-.2-.2-.4-.1H50c-.2.1-.4.4-.7.4l-.1.1-.3.1-.2.1c.1.3.3.1.5.2.4 0 .3-.3.5-.5l.2.5-.1.2.4.6c-.6.1-.5.7-.7 1-.2 0-.4 0-.5-.2 0-.3-.2-.5 0-.7l.2-.2c0-.4-.3-.5-.7-.4v.4h-.2c-.4-.2-.7-.4-1-.8h.5v-.3l.4.4h.2v-.3c.2-.4.2-.5-.3-.6H48c-.2-.3-.6-.3-.8-.5v-.7c.3-.1.5-.2.5-.6h-.3c-.3-.1-.6 0-.9.2-.2.3-.3.5 0 .7l.1.3c0 .2.2.2.3.3v.1c-.2.2-.2.5-.5.5v.3h.3c0 .3 0 .8.3 1.1v.3c-.2.3-.2.3-.4.2H46l.3-.5c-.3-.3-.3-.3-.8-.2v.6c-.1.2-.3 0-.5 0v.7l-.4.2v.4l.4-.1.3.4.4-.5.1.5-.5.2c-.3.1-.3-.2-.5-.3v.2c-.2 0-.3-.2-.5-.3v-.8H44l-.3.2c.1-.2.1-.4.3-.5l.2-.2c-.1-.3 0-.3.2-.5.2 0 .4.2.6 0l-.1-.6h-.4c-.3 0-.3 0-.3.4H44c-.2 0-.4 0-.5-.2-.1-.4-.4-.4-.7-.4h-.3l-.3-.2V9c.1.2.2.4.4.4l.7.2c0 .4-.4 0-.4.3l.2.4h-.3c-.3-.3-.4-.2-.4.1v.2l-.8-.2V10h.5l-.4-.7.2-.4c0-.5 0-.5.5-.7.3-.1.4-.4.2-.7-.1-.2-.4-.1-.5-.2v-.6c-.3-.1-.6 0-.8 0h-.1l.6-.4 1.1.6v.4l.4.1h.3c.2.1.3.2.2.4-.7 0-.8 0-.8.4l.3.1.3.2c.3.2.6.2.8-.1h.1l.9-.1c.2 0 .3-.2.3-.4-.2-.2-.4-.3-.6-.2-.2.2-.4.1-.5 0l.2-.5.2-.5c0-.2 0-.3-.2-.5-.2-.1-.3-.4-.3-.7-.5 0-.9-.4-1.2.2l-.5.2-.3-.2c.2-.3.4 0 .6-.2 0-.3 0-.3-.3-.3h-.3c-.4 0-.5-.3-.2-.6v-.1l-.2-.8h-.3l-.8.5-.4-.2c-.2.3-.2.4 0 .4.3.1.4.3.6.5-.2.2-.3.3-.3.6h-.2c-.2-.1-.3-.2-.4-.1v.3l-.3.1.5.8c-.1.3-.3.6-.6.7h-.1c-.2.4-.5.5-.8.6v.9l.1.4h-.5c-.2-.2 0-.4 0-.5l-1.2-.2c0-.3.2-.5.3-.7q.1.3.6.5V8c-.2-.1-.2-.4-.2-.6l1.2-.7-.1-.5-.4-.3.6-.4v-.3c0-.2-.2-.4-.4-.5l-.6.2.2.5-.7.2v.2l-.1.2c-.5-.2-.3-.7-.6-1l-.8.3c0-.3 0-.3.3-.4.2 0 .3-.2.2-.5-.2.3-.4.2-.7.2h-.4c-.1.2-.3 0-.4 0 0-.3.3 0 .4-.2 0-.2.3-.3.4-.4l.4-.3.3.4h.3c.2.1.6.2.5.7l.5-.2.2.1.4-.4.2-.2c0-.3.3-.5.3-.8q.4.2.8 0 0-.6-.6-.7l-.3.4c-.5.5-1 .2-1.3-.3l-.1.4c-.3-.1-.5-.3-.4-.6.2-.3 0-.6 0-.9-.6 0-.8.1-.9.7v.2c-.2.1-.2.3-.2.5l-.9.2-.1.6c0 .2-.2.3-.3.2l-.3-.6c-.2-.3-.5-.2-.7.2l-.2.2c-.1 0-.2-.1-.2-.3 0-.3-.2-.7-.6-.8v-.2c0-.3 0-.5-.3-.6h-.3v.3c0 .1 0 .3.2.4.2.2.2.4.2.7 0 .3 0 .6.2.9.1.1.2.2.2.5-.3 0-.4.1-.4.4v.1l-.1.1h-.2v-.2l.2-.5c.1-.1.2-.3 0-.5-.2 0-.5-.2-.8 0-.2.1-.3.4-.5.7l-.2-.2c-.4-.3-.6-.3-1 0l-.2.3c-.5-.2-.8.1-1 .4-.2-.3-.4-.5-.7-.6H28c-.2-.4-.7-.4-1-.6h-.2l-.2.7c.2.2.3.4.1.6l.2.5c0 .2-.2.4-.3.5v.4l-.2.4c-.2-.1-.3-.4-.6-.2l.3.4ZM18.5 5q-.2 0-.1-.3c.1.1.2.2 0 .3Zm.2 2.3q-.1-.2-.4 0c-.3 0-.5-.3-.4-.6.2-.2.5-.1.6 0l.1.3.1.3Zm4 1c-.1-.1-.1-.1 0-.4q.2.2 0 .5Zm-2 4.7q-.3-.1-.4-.4h.4v.4ZM24 28.6V28l.1.2v.4Zm19-1.2.3-.1.4-.2.3-.2v.3c-.3.2-.4.5-.3.9l-.4-.2c-.3-.3-.5-.3-.9 0l-.2-.5.3-.3c.3 0 .3.2.5.3Zm-.6-1.3q0 .2-.3.3 0-.3.3-.3ZM52 13.8c-.2.1-.4.3-.7.1.3 0 .4-.2.6 0Zm-.9-1.4.7.1-.4.6-.4-.2.1-.5Zm-1 0v.4c-.2 0-.2-.2 0-.4ZM49 14.2c.3 0 .6-.2.7-.6l.3-.5h.5v.7c.2.3.2.3 0 .4l-.3.2c-.4-.4-.5-.4-1 0l-.5-.2h.2Zm-5-8v.3q-.3 0-.3-.6l.4.3Zm-8 8.5c0-.2.1-.3.3-.5v.4h-.4Zm2 .6c.4 0 .7-.2 1-.3l.4.3c-.5.1-.5.4-.6.7l.3.3-.2.1c-.3-.2-.7-.3-1-.2l-.2-.2.8-.4-.4-.3Zm1.6 1.1.5-.2.2.3c.3.3.3.3.1.6 0 .3.3.4.2.5l-.5.2-.6.3c-.2 0-.3-.2-.4-.4-.2-.1-.3-.1-.4.1 0 .4-.2.4-.5.1.2-.2.2-.6.4-1l.3.4c.2 0 .4 0 .5-.3l.3-.2-.1-.4Zm.2 2.8-.4-.3.4-.1v.4Zm-2-2.6q-.4.3-.7.2v.5h-.2c-.1-.2-.1-.3 0-.4l.2-.4-.3-.3.4-.3.6.7Zm-.8-3.4h-.3l-.3-.7h.4l.2.4v.3Zm-.5.2v.3c-.3 0-.3.2-.4.4v-.4l.4-.3Zm-.1 7.4v-.7c.3 0 .6-.2.6-.5v-.2c-.3-.5-.3-1 0-1.5h.4l.2-.5.4.4v.4h-.4q-.1.4.4.7l-.1.6-.5.5H37c-.2 0-.3.2-.3.4s.1.3.3.3c.3 0 .4.2.6.3v.3c-.2 0-.4 0-.6-.2V21c-.2-.3-.3-.3-.6-.2Zm.9 1.5v-.7c.2.4.2.5 0 .7Zm.1.2v.2H37l.1-.3h.1Zm-7.1 2.2-.1.2-.4-.4c.3-.1.4 0 .5.2Zm-1 .7-.3.1-.2-.5q.3 0 .5.4Zm-1.4.3.3.5-.7-.2.4-.3Zm-.1.9a8 8 0 0 0-.3.1l-.9-.7c.6 0 .8.3 1.2.6Zm-3.1-4q-.3.2-.5-.1l.5.2Zm-.8 4.1-.4-.5-.1.2h-.7c.1-.1.2-.2.1-.4l1.2-.8c.4.3 0 .5.1.8h-.4v.1l.7.2c.1 0 .2.1.1.3-.2-.2-.4-.1-.6.1Zm1.2 1.5-.2.3q-.3 0-.5-.4l.3-.3.5.1c.1.2 0 .2-.1.3Zm1.3 2.1h-.1c0-.2 0-.2.2-.3v.3Zm.5-.7c-.3-.1-.3-.3-.2-.5l.4.1-.2.4Zm1.8 1.2h-.3l.1-.2h.2v.2Zm2.3-1.4h-.6l.1.3.1.3-.2.1-.3-.2h-.3c0 .3-.2.3-.4.4-.3-.2-.5-.4-.6-.7 0-.3-.2-.4-.5-.4v-.3H28c-.3 0-.4-.2-.5-.4-.2-.3-.2-.7-.3-1l-.6-.2-.2.8c0 .2-.2.3-.3.3-.2 0-.5 0-.6-.2l.3-.3c.1-.2.3-.4.1-.6V27c0-.3 0-.4-.3-.4l-.2.1a.9.9 0 0 0-.6-.6c-.2 0-.4-.1-.3-.4l-.2-.2.6-.5c.2-.1 0-.3.1-.4.2.1.4.4.7.3.2-.4 0-1 .3-1.3.3.3.3.7.9.6l-.1-.7h.4v.3c-.1.1 0 .2 0 .4l-.5.2c-.2 0-.3.1-.4.4l-.2.6.4-.1v.4c-.2 0-.3 0-.4.2l-.3.3c.3.2.5.4.6.7l.3.2h.5l.1-.2c.2.2.3.4.3.7 0 .1 0 .3.2.3.2.2.3.1.4 0l.1-.4.3.2c-.1.4.2.5.3.8 0 .2-.5.1-.2.5l.4-.2v.5c.4 0 .7-.3 1-.6l-.2-.6-.2-.2c-.2 0-.4 0-.5-.2 0-.2-.3-.2-.3-.4l-.2-.4c-.2-.1-.2-.2 0-.4.2 0 .4.1.5.4.2 0 .4 0 .4-.4l.2-.3-.3-.3c.3 0 .3.2.3.3.2 0 .3 0 .5.2v.6l.5-.5-.2-.1.3-.8.7.8c-.1.2-.2.3-.4.3l.3.4-.2.3-.6-.3v.6l.2.2-.2.5.5.2q-.3.3-.3.9Zm.4.7c0-.1 0-.2.3-.3v.4h-.3Zm.4 1.5h-.2l.1-.2h.2v.2Zm1.4 2.2c.2.2 0 .4.1.6q-.3-.2-.1-.6Zm.3-2.2c0 .1-.1.2-.3.2-.2 0-.3 0-.4.3l.4.3c0 .4-.4.5-.6.9v-.5c0-.2-.2-.1-.4-.1q0-.5.6-1v-.2c0-.4 0-.4.3-.4s.4-.3.5-.5c.1-.1 0-.3-.2-.4v.4l-.3-.2-.9.1v.1l.3.1v.4h-.2l-.5-.8c.2-.4.5-.7.1-1l.3-.3-.4-.6.1-.1c0-.1-.1-.3-.3-.3H31l.3-.3c.3 0 .5 0 .6-.4l.3-.3c.1 0 .4-.1.3-.4l.4-.3h.2v.2l-.4.3.1.3c.4-.2.6.2 1 .2 0-.3.2-.3.4-.5l-.4-.7.2-.2.6.2c0 .3-.1.5-.4.7.2.3.2.4-.2.7.3 0 .5 0 .7.2h.4l-.2.3-.5-.2-.2.1v.7c0 .2.2.4.4.5H34l-.2.7c.1.4 0 .7-.2 1l.1.5c-.2.1-.5 0-.4.4Zm1.3-1.3-.4.2q0-.2.4-.2Zm.1 1.7c-.4-.1-.5 0-.4.4H34l-.2.2-.1-.3.1-.4c.3-.1.4-.3.4-.6-.2 0-.3-.1-.3-.3.3 0 .2.2.3.3h.6q-.1-.3 0-.8c.2.2.2.4 0 .8l.2.2-.3.2.3.2c0 .2-.2.1-.3 0Zm.4.7-.2-.6.5.2-.3.4Zm.9-2.3h-.3l.2-.2h.1v.2Zm.4-1.5-.3.2.1.1v.3h-.5v.2l-.2.4-.1-.2c0-.1 0-.4.2-.5V29l.3.2h.2v-.4l-.1-.3.3-.3.1.1v.5Zm.2-1c0 .2 0 .3-.3.3v-.4l.2-.3v-.4q.4 0 .7.5c-.1.3-.4.2-.6.3Zm.5 1.6V29c0-.2 0-.2.3 0v.7h-.4Zm.1-3.5.4.4-.2.3c-.3-.2-.2-.4-.2-.7Zm2 3.5v.4c0-.2-.2-.3 0-.4Zm-1.2.3v.3l.4.4.8.2v-.2c0-.2-.4 0-.2-.5l.7.3-.4.6c-.1.1-.2.3-.4.3s-.4-.2-.6-.4l-.1-.3-.3.2c-.1-.3-.4-.3-.7-.3v-.3h.3c.2 0 .3-.2.5-.3Zm-.9-5.7.2.6h.4v1.2c-.3-.1-.4-.2-.3-.5l.1-.3V25c-.3.3-.3.5-.4 1a1.2 1.2 0 0 1-.1-.9c0-.2-.1-.3-.3-.3h-.4c-.3.1-.4.4-.3.7v.7c0 .2-.3.2-.6.2-.1-.2 0-.5-.2-.6V25l-.4-.3-.6.2.3-.8c0-.1.2-.2.4-.1.3 0 .4.1.6-.1.3-.2.5-.1.7.1l.1.1 1.5-.7v.3c-.3 0-.5 0-.7.3Zm1-4.9.4.2-.4.5H38l.2-.7Zm2.5 6c0 .4.3.4.6.4h.1c.1.3 0 .7.4.7-.3.4-.6 0-.8 0l.2-.1.1-.2-.2-.2H41v.7c-.3-.3-.4-.5-.7-.5l-.4-.2.2-.2.3.1c.2-.1 0-.4 0-.6.2-.1.3 0 .4.1Zm0-2.7v-.2h.1v.2h-.1Zm.8-3.5h.6l-.3.3.3.6c-.2 0-.5 0-.7.3l.1.2v.3l-.1.1c0-.3-.3-.5-.3-.7 0-.2-.2-.3-.3-.2-.3.2-.6.4-.7.7h-.3l-.2-.2-.6.1.1.5.8.3v.5s-.1.2-.3.2l-.3.4v.2l-.4.2v.3l.4.4-.1.2c-.1.4-.1.4.2.6l.2.2h-.4l-.3.4c-.2 0-.3-.3-.5-.1l-.2-.5.4-.1c.3-.2.4-.4.3-.7-.1-.2 0-.3.1-.4h-.5c0-.3-.5-.3-.3-.6.3 0 .5.2.7.3l.4-.4-.1-.1.2-.4-.1-.5-.6.3-.3-.3v-.1l.3-.1v-.3l-.4-.3c.3 0 .6 0 .8-.2l.1-.6-.4-.3c.2-.1.3-.2.4 0 .3.2.3.2.5 0 .3 0 .3.2.4.4h.3l.3-.2c.2 0 .4-.1.4-.3 0-.2 0-.4-.3-.5l.2-.1c.3-.2.3-.3.2-.6-.1-.2-.3-.4 0-.6v-.4l.2.3c.1.3.3.4.6.2l.6-.2c0-.2-.3-.4 0-.6l.3.3-.3.8-.3-.1c0 .3-.2.5-.3.8h-.7l.2.3Zm-.1-3.5.2.1c.3.3.6.5 1 .2l.2.3-.6.3h-.1l-.7.5-.2.3c-.2-.3-.2-.6 0-.8l.3.1-.1-.4H41v-.4h-.5v-.1c.3-.2.6-.3.9-.1Zm.2-3.6c0 .2 0 .5-.3.6-.2-.4.3-.4.3-.6Zm.6 9 .2-.4v.4h-.2Zm.8-1c-.2 0-.3.2-.5.1q0-.3.6-.5c.2 0 .4.2.3.4-.1.2-.2 0-.4 0Zm1.5-1.2c-.6.1-1 0-1.6 0v-.5h.2l.1.2c.2.2.3.2.6 0l.2-.1.5-.2h.2c-.1.2-.4.4-.2.6Zm2.2-7.9q.5 0 .8.4l-.7.6-.2-.4c.1-.4 0-.6-.4-.7q.3-.2.5.1Zm.3 5.3v.7c-.2-.2-.4-.5-.8-.5.3-.3.6 0 .8-.2Zm-2.2-3.5.6.1.5-.2.1.1-.4.4c-.2.1-.3.2-.4 0l-.4-.2v-.2Zm1.3 1.5q-.3.3-.6.2l.4-.5.2.4Zm-1-.3c0 .1-.1.2 0 .4v.3l-.5-.3v-.6l.5.2Zm-1.1-.3c0 .3.4.4.5.8H44c-.2-.2-.3-.4-.3-.8h.3Zm.7 2.5-.1-.4c0-.3 0-.5-.3-.7v-.1c.2-.1.4.1.6.2l.6.3v-.6c.4-.1.4.2.6.4a6 6 0 0 0-.3.1l-.2.6v.4c-.1.2-.3.3-.3.6l-.3.7c-.3-.2-.4-.4-.4-.7l-1-.1 1.1-.7Zm-1 1.5c-.3 0-.4-.1-.6-.3.5-.3.6-.2.6.3Zm-.2-1.2-.3.2c-.2-.1-.3-.3 0-.5l.3.3Zm-.1-3.3-.2.4.2-.4Zm-.1 2.7-.6-.2v-.1l.1-.2c.3 0 .4.2.5.5Zm-1-4.9.2.2h.3v.1l-.3.2a57.8 57.8 0 0 1 0 .8l.1.2c0 .2-.1.1-.2 0H42v-.7c0-.1.3-.2 0-.4l-.4-.1.6-.3ZM42 14c-.1-.1-.1-.2 0-.4q.2.3 0 .4Zm.7.3c.2.2.5.4.3.7l-.6-.4-.5.1-.2-.1 1-.3Zm-2.3-6c.3-.2.6 0 .7-.4-.2-.3-.4-.6-.3-1h.5l-.2.4.3.1c-.1.3.2.3.3.5-.2.3-.1.8-.4 1.1-.3-.2-.7 0-1-.4l.1-.4Zm-1 2.3.1-.5 1.5-.2h.4c0 .3-.1.6.1.8v.4c-.4-.4-.9-.3-1.3-.3l-.4.4-.3-.1-.2-.5Zm0 1.8.6.3.1-.3c.2 0 .2.3 0 .5l.2.6.8.1-.1.3.1.3c-.4-.3-.8-.2-1.2-.4 0 .3.1.6-.3.7-.2-.5.1-1 .3-1.4-.2 0-.4 0-.5-.3l-.4-.1c0-.3 0-.4.3-.3Zm-1.3 1 .3-.3c.2.1.4 0 .6.4h-1Zm-.5-6.8h.3v.2l-.2.3-.3-.1.2-.4Zm-.3.7c-.3.1-.4.2-.5-.1h.5Zm-.5 3.2.1-.3c.2.3.4.1.6.1l.4.5.5-.2V10c-.2-.1-.4-.2-.7 0h-.3c.2-.4.5-.3.8-.4.4.2.5.6.7 1-.1.2-.5.2-.5.5 0 .2 0 .5.3.6-.3.2-.5-.2-.7-.2-.1.1-.2.4-.4.3 0 .2-.2.3-.3.4l-.2.1c-.2-.1-.2-.3-.2-.5l-1-.2.1-.5c.3 0 .5.2.8.3q.1-.4-.2-.8l.2-.2Zm-.4-.4c.1.3.2.5 0 .7H36l-.2-.4.6-.3ZM26 8l.1.2h-.3L26 8Zm-.6.5h.1v.1h-.1v-.1Zm-.3 1.4-.3-.1c.2-.1.2 0 .3.1Zm-.8-.6h.5c-.2.2-.3.5-.6.5 0-.2-.1-.3.1-.5Zm-2.4 1.5q-.2 0-.2-.3c.1 0 .2.1.2.3Zm-1 1.6c.4 0 .4 0 .4.4q-.3 0-.4-.4Zm.5 0c.2 0 .3-.1.5.1h-.5Zm1 .4h-.1v-.4l.2.3v.1Zm.1.6v-.1h.1v.1Zm.3 1c0 .1-.1.2-.3 0l.2-.2c.1 0 .2.1.1.2Zm.1-.7c-.1 0-.2-.1 0-.3v.3ZM23 15v-.4c.2.2.1.3 0 .4Zm.3-.8c.2 0 .2 0 .2.2-.2 0-.2-.1-.2-.2Zm.9-1.2c-.2 0-.3-.1-.2-.3q.2 0 .2.3Zm2.2 1.4H26c0-.2 0-.4.2-.5.1 0 .3 0 .3.2v.3Zm1.3 0s-.2-.2.1-.3l.2.5-.3-.2Zm2.3-1-.8.3-.1-.4h-.4c0-.4-.4-.6-.7-1 .6.4.7.3 1 0 .2 0 .1-.3.2-.3.2-.1.1-.3 0-.4h.5c.2 0 .3 0 .4-.2h.3v.5l.7-.1.1-.2.1-.7c-.3-.3 0-.4.2-.7.1.2.3.3.4.3.2-.2.2-.2 0-.5l.4-.4.4.5-.1.1c-.1 0-.2.1-.2.3l-.1.5-.4.4v.4c-.3 0-.6 0-.7.4v.4l-.5-.4c-.3 0-.4.2-.4.4l-.3.8Zm1-3.7.2.1-.1.4-.1-.1v-.4Zm.3 4.7-.2-.2-.3-.1-.3-.1v-.3c0-.1 0-.2.2-.3l.2-.5.2.2c0 .3.2.4.5.4h.4c.4 0 .5.3.7.6-.4.3-.7.3-1.1 0l-.3.3Zm.2 1.1-.3.3c-.4-.2-.6-.4-.5-.8v-.1h.3c.2 0 .3.3.5.6Zm1-2.6-.5-.5c.3 0 .5-.4.8-.2-.1.3 0 .6-.3.7Zm-2 3.9-.6-.1.6-.7v.4l.5-.4c.2.2 0 .4 0 .4-.3 0-.1.3-.2.3h-.4Zm1.6 2.7-.2-.6-.5.2v.5c-.2 0-.5 0-.6-.3 0-.1.4-.1.3-.4l.1-.1c.3-.1.4-.3.5-.6q-.3-.4-.1-.7c.2.3.7.4.3 1l.6.4c0 .3-.1.4-.3.6Zm2.1-2.1-.3.4c0-.4-.2-.5-.5-.5-.2 0-.2-.3-.5-.3-.2.3 0 .5.1.8l-.2.2c-.2-.5-.1-1 0-1.4h-.4v-.2c.2-.4.5-.8 0-1.3.6 0 1-.2 1.3-.3.2.2 0 .5 0 .6-.1.2-.3.3-.2.5v.6c.2.1.5.1.4.4h.6l-.1.3h.5l.2.2c-.4.2-.4.2-.8 0Zm1.4-2.8c-.2.1-.2.5-.5.6l-.4-.7-.8-.2.2-.7c0-.2 0-.4-.3-.5l-.5.2v-.1c0-.3.3-.3.2-.6l.3.5c.3-.1.6-.1.8 0 0 .5.4 1.3 1 1.5Zm-2-3.3c.2.1.2.3.3.5l-.7-.2c.1-.3.2-.4.5-.3Zm0-.8c.2 0 .3 0 .3.2h-.1c-.2 0-.2 0-.2-.2Zm.4-1.1h.6v.2c-.2 0-.3 0-.5.2l-.1-.4Zm1.3-.2v.1h-.2l.2-.1Zm-.1 1.4h-.6c-.1.2-.3.1-.4 0l-.1-.5c.4 0 .8 0 1 .5Zm-.3-5.8V5h-.3l.3-.2Zm-.4 1 .3.4-.2.5c-.3 0-.3-.1-.4-.4q0-.3.3-.5Zm-1-1.4h.1c0 .2 0 .3-.2.3l.1-.3ZM29 6.8h.2c0 .3 0 .4.2.5l.2-.2-.1-.5c.2.2.4 0 .6 0 .2.2.4.2.7.3-.1-.4.3-.5.5-.7-.2-.5-.3-.5-.8-.1v-.2l.3-.3h.4l.2-.2.5.1V6c0 .2.1.3.3.4.3 0 .6.2.8.3V6c.3 0 .4 0 .5.2.2.3.3.7.7.8.1.5.4.6.8.6 0 .4-.4.8-.2 1.2a2 2 0 0 1-1.2-.3c-.3-.2-.5-.3-.8 0H32c-.4-.3-.8-.1-1.1 0l-.4-.1.1-.4c.2-.1.3-.3.3-.6l.3-.2c.2-.1.2-.3 0-.4H31c-.2 0-.3.2-.5.4l-.5-.1c-.2 0-.3 0-.3.3v.2l-.3 1.1c-.3-.2-.3-.5-.4-.8l-.5-.2.2-.8Zm-.2 2.5h-.4l-.2-1h.5l.1 1Zm-1-4.2-.4.4c0-.3 0-.4.4-.4Zm-1 1.9c.3-.2.5-.5 1-.4l.1-.2h.5c-.4.3-.5.7-.7 1-.1.3 0 .5.2.7l-.2.2c-.1.2-.2.2-.4 0-.2-.3-.2-.5 0-.9l-.2-.3-.3-.1Zm0 2-.1.4.4.4.3-.2c0 .2 0 .5-.3.4-.2 0-.3 0-.3.2s0 .3.3.3l-.1.2v.1c.3.2.5.3.8 0 .2 0 .4 0 .6-.2.4-.2.5-.6.7-1 0 0 0-.2.3-.1l-.1.5c.4-.2.4-.6.5-1l.5.5-.1.8H30c-.2.3-.5.3-.8.3-.5 0-.6.2-.6.7v.2h-.2c0-.3-.1-.4-.3-.4-.3-.2-.5-.2-.5.3h-.2c-.1-.3-.4-.4-.6-.5l-.1.2c-.2 0-.2-.2-.2-.3h-.1l-.3.4c0 .2.2.4.3.5.4.2.7.3 1 .6l.4.2v.2l-.6.3H27c-.3 0-.6 0-.7.3l-.2-.3c-.2.2-.3.2-.5 0l-.1.4-.3-.1c0-.2.1-.3.4-.2l-.5-.2-.2.8-.3.3-.2-.7h.4c0-.4.1-.5-.1-.7-.2 0-.2-.1-.2-.2h-.2c-.3 0-.5.2-.7.5l-.2.4-.2-.4v.2c-.1 0-.1-.1 0-.2l-.4.2q-.3-.3-.2-.7l.8-.5c-.3-.1-.3-.3-.3-.5H23c-.3 0-.4 0-.4-.2l-.5.4H22l-.1.1-.3.3-.4.2.1-.3-.1-.1h.2l.1-.1.6-.6c0-.2.2-.3.4-.3l-.3-.3h-.3v-.1c.3 0 .2-.2.2-.4.2 0 .5 0 .6-.2.2 0 .2 0 .2.2v.4s0 .2.2.2h.2l.2-.4.5-.5.6.3h-.3c-.3 0-.5 0-.8.2.2.4-.2.5-.3.7v.2c.3-.2.7-.2 1-.3h.3c.4.2.4.2.7-.2h.3c.3 0 .7 0 1-.3v-.6l-.1-.2c-.2-.2-.2-.3-.2-.5H26v-.3h.1c.2 0 .3.3.5.3Zm-2.3 4c0-.1 0-.2.2-.2q0 .2-.2.2ZM37 33.2Zm-9.5-14.7Zm-2.7-3.9h-.1.1zm.7 17.6Z"/><path d="M45.5 24.6c.3 0 .4-.2.5-.4-.2-.4-.5-.3-.8-.2l-.2-.4h-.5l-.2.2c-.2.5.2.8.3 1.2h.3l.6.6c.4 0 .7.4 1.1.4 0 .4 0 .4.4.3l-.2-.4q.3-.2.2-.8l.2-.2H47l.1-.3v-.2c.4-.2.4-.2.4-.5v-.3h.4v-.8c.2-.3.2-.6.2-1 0-.3-.2-.6-.5-.8-.2-.1-.4-.3-.3-.5l-.2-.6c-.4 0-.7.3-1 .6l-.8.1-.3-.3-.4.4c-.2 0-.4 0-.5.2.2.4.2.4.5.5.2 0 .2.3.3.4l-.4.4c0 .2.3.2.3.4 0 .1-.1.3 0 .4.3 0 .4-.2.4-.4s.1-.2.3-.2q.2.4-.2.6v.2c.1.2.3.3.4.2.2 0 .2-.2.1-.3-.1-.2 0-.3.2-.4l.4.3c-.2.4-.3.6 0 .9 0 .5 0 .5.4.5l-.2.5c-.3.3-.3-.2-.4-.2l-.5.2-.3-.1c0-.1 0-.2.2-.2zm-.3-2.5q-.4-.4 0-.8c.2.1.4.2.4.6l-.4.2zm.8-1c-.2-.2-.2-.3 0-.5v.5zm.9 3.1c-.3-.2-.3-.3 0-.7v.7zm.2-3 .2.6-.2.2h-.4q0-.6.4-.8zm-.6 2c0-.3 0-.4.3-.4l.2.2c-.2.2-.3.1-.5.1zm-1.3.8.2.3c-.4 0-.4 0-.2-.3zm2-3.5zM9.4 16.7l-.1-.1zm.2-3h-.3l.1.1.1-.2zM11 13l-.1-.2-.2.3c.2.1.3 0 .4-.1zm-1.5 3.3.1.2.1-.1v-.8c.4.2.4-.1.5-.2l.2.2.2.2.4.1.2-.2.4.6c.1.1.3.2.5.1v-.3c.1-.2 0-.3.2-.4h.3l-.4-.5c0 .1-.2.3-.5.3V15l.2-.1-.3-.2c-.3 0 0 .5-.4.5 0-.2-.2-.4-.1-.8L11 14c-.2.1-.4 0-.5-.1l-.1-.5.1-.2H10v.3l-.3.1h.2c.2 0 .3.2.1.4.1.4.4.7.2 1l-.5.5c-.3-.5-.6 0-1 0v.7l-.3.1v.4H9v-.4c.1-.2.4.1.5 0zm1.5-2.1c0 .3 0 .4-.3.3q.1-.3.3-.3z"/><path d="M12 12.8h-.2v.2c0 .2 0 .3-.2.3l-.2-.4-.1.1c.3.3.3.5.1.7l-.3.2.2.1c.1-.2.2-.4.5-.2 0 .2 0 .6.3.7 0 .3.3.4.5.6.2.2.2.5 0 .8h.7v-.7l-.5-.2c.2-.2 0-.4.1-.5.3-.2.3-.4.3-.6l.1-.5v-.2c-.4 0-.8-.2-1-.6h-.2v.3Zm-3.2.5-.1.2.4-.1c0-.2 0-.4.3-.4l.4.1.2-.3h.1-.2l.3-.4-.4-.3c-.1 0-.2 0-.2.2-.3 0-.2-.3-.3-.4-.1 0-.2.2-.3 0a1 1 0 0 0-.5.6v.2l.2.2v.2l.1.2Zm4.9 2.7c-.4.1-.4.1-.3.6l.3.3.6-.5h-.4c-.2 0-.2-.2-.2-.5Z"/><path d="M15.8 14.6v.5c-.2 0-.3 0-.3-.2s-.2-.3-.1-.6h-.2v.4c-.3.2-.5 0-.6-.2 0-.2 0-.3.2-.3.1 0 .2 0 .3-.2l-.6-.3c-.4.2-.4.2-.4.8.2 0 .2.2.1.3l-.2.3c-.3.1-.4.3-.3.6v.2-.2l.1-.2c.5.3.8.1.8-.3h.4c.3-.2.6 0 .5.4s-.3.5-.7.3l-.1-.1-.3.6h.5l-.2.2.2.2-.2.3h-.2c-.3 0-.2.3-.2.4v.2h.2l.2-.3c.2.3-.3.5 0 .8l.2-.2c.2.1.4.3.6.2v-.7l.1-.2v.3l.2.2s.2 0 .2-.2l.3.2.2.2.4-.1.1-.3h-.3v-.3c-.3 0-.4-.1-.5-.4-.2 0-.4.2-.5.3-.3-.3-.5-.5-.5-.8.2-.4.4-.7.7-.8v-.3l.1.1v.1c.3-.1.5-.4.6-.7l.1-.1.3.2h.1c.2-.3.2-.3-.1-.4l-.3-.1h-.1c-.4.2-.5.2-.5-.2l-.1-.6h-.3l.2.4c0 .2-.2.4 0 .6zm-1 1.7c0 .1-.1 0-.2 0 0 0 .1-.1.2 0zM20 29.8c.1.4.4.4.6.5.1-.5-.3-.6-.4-1h-.5l.4-.4c0-.1.1-.3 0-.4-.1-.2 0-.3 0-.4l.4-.3.3.2c0-.2 0-.4.2-.6-.1-.1-.2-.3-.4-.1-.1-.2.2-.3.1-.5-.1-.1-.3-.2-.6 0h-.5l-.2.1c-.2.3-.5.3-.8.3-.1.5.2.8.4 1.1l.5.7c-.3-.2-.6 0-.8 0-.1.2 0 .5-.3.5-.1.3-.1.5.1.7l.4-.5h.5l-.1.3c-.3 0-.4.3-.4.6l-.1.2-.4.4.4.3v.4h.5l-.7 1.1.4.1c0 .8.2 1.1.7 1l-.2-.8c.3-.2 0-.5.1-.8l.1-.5c.2-.1.1-.2 0-.4 0-.3-.1-.4-.3-.5l.4-.1v-.3h.4v-.3c-.3-.1-.2-.4-.3-.6h.2zm-.6 1.3H19l-.2-.1h.5zm.1-2.8c0-.5.3-.8.4-1h.7v.4l-.6-.1c-.2.2 0 .7-.5.7zM15 7.5zM8.9 6.2l1-.2.2.8.8.1v-.2c.3 0 .4.1.5.3h.3v-.2l.3.2c.2 0 .4-.4.6-.1l-.2.6.1.2.1.2.2.1h.3l.2.4h.2l.3-.1-.5-.2h.5L14 8l.3.1h.7l-.1-.3.2-.3c-.2-.4-.5-.3-.9-.3l-.1-.5a1 1 0 0 1-.8 0L13 7c-.1 0-.3 0-.4-.2 0 0-.1-.1 0-.2v-.2c-.3 0-.3.4-.6.3l.4-.5c.1-.3 0-.6-.3-.6h-.3v.3c-.2 0-.2 0-.3-.3h-.1c-.4-.3-.7-.2-1 .3-.5 0-.9-.3-1.3-.6-.4.2-.5.3-.5.6 0 .2 0 .3.2.4zm4.8.9c-.2 0-.3 0-.4-.2q.3 0 .4.2zM13 7h.2c.1 0 .2.2.1.3l-.1.2H13l-.2-.3c0-.2.1-.2.2-.3zm-2-.7.1.1h-.2l.1-.1zm11-3.2v.7h.6l.5.8.1-.5h.2c.1.2.3.2.4.3l.6.1c-.2.3-.3.5-.6.4h-.3l-.7.4v.1c.3.2.2.4 0 .7l.4.2.2.3c.5.2.5-.3.7-.5l.3.1h.2V6l-.2-.2-.1-.7.4.3c.4.3.8 0 .9-.4v-.2c.1-.3 0-.7-.3-.9.2-.1.4-.4.5-.7-.5-.1-.9 0-1.2.4 0-.3-.4-.3-.6-.4-.2-.2-.5-.1-.7 0 0-.2-.1-.3-.3-.3l-.9.2zm3.3.8c-.3.2-.3.2-.5-.1l.5.1z"/><path d="M18 15.6v.3l.1.3.2.2-.3.3c-.2.1-.2.2-.1.4.4 0 .3-.3.4-.5h.3l.1-.2.4.1h.2l-.1-.2.1-.3.2-.2.3-.5c0-.1 0-.2.2-.3l-.4-.4-.3-.8c.2-.3.2-.5 0-.7v.2l-.3-.2c-.1 0-.2 0-.1.1l.2.5c-.2.4 0 .7.2 1l-.1.1.1.4v.1c-.1.2-.6.2-.7 0l-.2-.4v-.3h-.1c-.1 0-.2 0-.2-.2v-.2h.4v.1h.3v.3c0-.3.2-.6 0-.9h-.3l-.8-.5c-.3-.2-.7 0-.8.2l-.1.4.3.3c.2 0 .2-.2.3-.3v-.1s0-.1 0 0h.2l.1.2c0 .2-.2.3-.4.4.2.3.5.1.8.2 0 .5-.2.7-.5.9l.3.2zm-1.2-1.8zM25 33zm.4.7zm.1-1.5c-.2 0-.3-.1-.4-.3l-.3-.3c.1-.1.2-.3 0-.4s-.4-.3-.8-.1l-.1-.3-.2-.1c.1-.2.5-.3.5-.6h-.4l.2-.2c-.3-.3-.5-.7-1-.8l.2-.4-.3-.1c-.1-.1-.2-.3-.4-.2 0 .3 0 .5-.5.4l-.2.2.3.4h.3c.2.2.3.2.5 0l.4.5v.7s0 .2.2.3H23c-.2-.3-.6-.5-.7-.9l-.1.2v.4c.4.2.4.6.7.8h.6l.2.3-.2 1c.4.2.8 0 1.1 0l.5-.5.2.2c-.2.2-.3.3-.3.6l.6.1v.1h-.4l.2.5c.3 0 .5-.1.7-.3-.3-.4-.5-.7-.6-1.2zm-.7-.6h-.3v-.3l.3.3zm-5.5-13.9c0 .3.3.6.7.6v.8l-.3-.3v-.3h-.1l-.3.6c.2.2.2.4.2.7 0 .4.2.6.6.6h.4V20l-.1-.3.4.2.4-.2c.3-.1.4-.3.3-.7 0-.2-.2-.4 0-.6V18l-.2-.3-.3-.1-.3-.1h-.4l-.2-.5-.4.1v.3l-.4.2zm1 1.8c-.2 0-.3 0-.3-.2.2 0 .3 0 .3.2zm1.1-1zm5.4 15.3.4.2.3-.7.4.1-.2.3v.5h.5l.2-.6V33l-.5-.4.5-.4c.3-.2.4-.1.4.3h-.3q0 .4.4.6l.2-.2c.3-.3.3-.5 0-.9-.2 0-.2-.2-.3-.3l.2-.3v-.1a.37.37 0 0 1-.6 0l-.1.1h-1c-.2 0-.7.1-1 .3.2.3.4.6.7.6l.2.2.2.8c-.4-.3-.7 0-1-.2v.7c-.2.2 0 .3.2.4l.2-.4zm-11.6-24H15v.9c-.2 0-.4.2-.5.4.1-.2.1-.2.6-.1l.1.2s-.2 0-.1.2l.2.1v.2c-.2 0-.2-.2-.2-.3-.3.1-.4.1-.6-.1l.2.8.7-.2-.1.4c.2.1.3.3.5.3 0 .2-.1.3-.2.3l.4.2q.5-.4.6-.7l-.6-.1v-.1l.6-.3c0-.2 0-.5.2-.7v-.5c-.3-.3-.4.4-.7.2l-.2-.2c0 .2 0 .3-.2.3-.2-.3-.2-.3 0-.6l.2.3h.1c0-.3 0-.6-.2-.7-.1-.2-.3-.5-.6-.5 0 0 .2.1.1.3zm-.1 3h.1v-.1zm-3.5-3a1 1 0 0 1-.2-.3h-.1c0 .2.1.2.2.3zm-2.1 1.1c.1 0 .2 0 .2-.2h-.3c-.2.2-.5 0-.6-.2l-.3-.3V10c.1-.2.4 0 .4-.3 0-.2-.1-.3-.3-.2 0 0 0 .2-.2.3v.5l.2.2c0 .2.2.3.4.5h.1l.4-.2zm.3-.6.2.2v-.3h.2l-.1-.4c-.1-.2-.3 0-.4 0l-.3-.2c.3.1.4.4.4.6zm1.4.2H11l-.1-.1-.3-.4-.1.3h-.1v.2h-.3l.3.3c.1.2.4.5.8.3h.1c0 .2 0 .4.2.6h.1l.4-.4.1.2c.4-.3.5-.5.5-.7l-.1-.4-.6.3-.4-.4.2-.3-.5.5zm.8.2h.2v.5c-.1-.1-.3-.2-.3-.5zm-.3.3.2.3c0 .1-.1.1-.2 0-.1 0-.2 0-.2-.2l.2-.1zM11 9.6zm4-2.1zm.6.5.3-.2c0 .4-.3.6-.1 1l.4-.3v-.7l.2-.2-.1-.1q.2-.2.4 0l-.3.1V8v-.1c.2 0 .3.1.3.3L17 8l.1.2h-.3v.2c0 .1 0 .2.2.3v-.1l.2.1H17l-.5.6q.2.3.6.3.2.3-.1.5l.6.2c.2-.4 0-.6-.1-1-.2.2-.3.4-.6.1l.3-.6c0 .2.2.2.3.3l.2-.2c0-.4-.2-.4-.5-.5l.3-.3V8s0 .1-.2 0c-.1 0-.3-.1-.2-.2 0-.2 0-.2.3-.2v.2l.2.1c.1-.2 0-.3-.2-.5l-.3-.2.3-.7-.5-.3h-.1l-.1.6c-.2 0-.3.2-.4.3l-.6-.1-.4-.4-.2.4-.1.4.4.5h.1zm41.8 2.5c0 .2-.1.4-.4.5 0 0-.2.2 0 .3.2-.2.4-.3.6-.2v-1l-.3.4zm-.7 3.7c-.2.3-.1.7.3.8l.1.1c-.2.1-.3.3-.3.6v.5h.1c.2-.4.5-.5.7-.5v-1.4l-.3-.2c-.2-.2-.5-.1-.6.1zm.8 1-.3-.1.2-.1v.2zm-.7 1zm-33.6 2.1v.2l.7.2c.2 0 .4.2.6.1.3 0 .4-.3.5-.5s.1-.5-.2-.7l.5-.5c.4-.3.4-.3.4-.8-.3 0-.7 0-1-.3 0 .2-.2.4-.3.5H24v.3l.3.1v.4c-.5-.3-.7-.4-.8-.2l.2.3-.1.4c0 .3-.1.4-.4.5zm27.9.1c-.1-.1-.1-.5-.5-.4-.3.4-.3.4 0 .7l.1.2c0 .2.2.3.4.3s.3-.2.4-.3v-.3c.6-.2.4.5.7.6.5 0 .5 0 .6-.6v-.4l.3-.3c-.6-.2-.6-.3-.6-.9-.2 0-.5 0-.6-.2-.2-.1-.3-.2-.5-.1-.2.4-.2.4.3.6l-.1.7-.5.5zm-.3 5.3c-.5 0-.7.2-1 .4l-.1-.6c-.2-.2-.7 0-.8-.4l.3-.4c0-.3-.3-.2-.5-.2s-.3.2-.3.4l-.2.5-.3.5c.2.3.3 0 .4 0l.2.5c.2.3.5.1.6.2.3.1.4-.1.6-.2 0 .2.2.3.3.5.5 0 .7-.4 1-.6l-.2-.6zm-1.5-5.1zm.8-.9h.4c0-.4.2-.7.5-.7 0-.6 0-.9-.6-1l-.2-.2h-.5c-.2 0-.3.2-.4.4 0 .3 0 .7-.4 1v.3h.3c.2 0 .3-.2.4-.3.2 0 .3.1.3.3-.3 0-.5.2-.6.4 0 .2-.2.4 0 .7l.3-.1c.4-.1.6-.3.5-.8zm3.4 3.1zm.6-.9v-.1c-.4-.1-.4-.1-.3-.4V19c-.2.2-.5.3-.8.2v.3l-.2.6h-.7l-.3-.3-.3.5c0 .2-.2.3-.3.4h-.5c0 .2.1.4.4.4h.3c.1.3.3.3.5.4h.5l.2-.4.5-.8.4.5c.2-.4.3-.7.6-1zm-.6 0-.1-.1.2.1h-.1z"/><path d="m22.4 29.8-.3-.4-.6-.3c0-.3 0-.4.3-.5q-.2-.3-.8-.4l.1-.2c-.1 0-.4 0-.4.2 0 .3-.2.3-.3.5l.1.6.3.5h.3l-.1.4.2.2v.6s0 .2.2.3h.5l-.1-.6v-.3l.4-.3.1-.1c.1 0 .2-.1.1-.2zm7.4-27.3.6.1.2.4-.2.4c.3.2.5.5 1 .3-.3-.2-.5-.4-.3-.7s0-.8.2-1.1c-.2-.3 0-.5-.1-.7-.4-.4-.8-.2-1.2-.1-.2 0-.2.1-.3.3 0 .3 0 .7-.2 1l.3.1zM1.6 9.7l.2-.1c.2-.2.4-.3.7-.3.1-.3-.2-.4-.2-.6L2 8c.2-.1.4 0 .5-.3 0-.3-.3-.3-.5-.3-.3.1-.5 0-.7-.2l-.2.2v.3c.1.2.2.1.3 0h.3l-.7.7c-.2.3-.3.5 0 .8.2.4.4.6.7.4zm0-.6L2 9c.1.1.2.3 0 .5h-.1c-.2 0-.3 0-.3-.3l.1-.1zM18 18c-.3-.2-.3-.3-.4-.2-.4 0-.5.2-.5.5-.1.2-.2.3-.3.2h-.4l.1.5c0 .3 0 .6-.3.7-.3 0-.5.1-.5.4h-.2c-.2.1-.3.4-.3.6s0 .3.2.3l.3-.1.5-1c.4.3.7.2 1 0v-1.3c.4 0 .7-.2.8-.5zm-2.6 2.6v-.3h.3c0 .2 0 .3-.2.3zM53.8 7.5c-.3.4-.2.8 0 1 0 .2-.2.3-.3.2-.4 0-.6.2-.8.4-.1.2 0 .5.1.6l.6.4.4-.6c.3 0 .5 0 .7-.2-.1-.3-.4-.5-.4-.9.3 0 .6-.1.7-.4-.2-.6-.7-.4-1-.5zM28.2 4h.2v.2l.4.3c.4-.1.5-.4.3-.7h.1l.3.2c.4-.2.4-.5.3-.8l-.8-.1v-.3a.9.9 0 0 0-.7-.4c-.2 0-.3.3-.4.6v.4c-.3.4-.2.5.3.5zm.8-.6-.1.2h-.3l.4-.2zm20.4 25.2c.2.3.4.4.7.4.1-.2.4-.4.4-.6l-.3-.7v-.3l-.9.3-.2-.3-.2.2q-.3-.2-.6 0c.5.2.7.5.6 1s0 .7.5.7v-.7zM52 6.3l.3.3c.1 0 .3 0 .3.3l-.1.4c.4.1.8 0 1 .2.3-.2.4-.4.3-.7 0-.3-.1-.4-.4-.4H53l-.2-.4c-.3.1-.6 0-.8 0-.3-.2-.7-.3-1 0-.2 0-.3.2-.5.3.5.3 1 .5 1.5 0zm-4.7-1.5c.1 0 .2.2.3.1.1 0 .2-.1.1-.2v-.4c-.5-.2-.8-.3-1.2-.2h-.9v.4l-.3.1-.2.8c.4 0 .8 0 1-.4.5.3.9.1 1.2-.2zM9.9 1v.7c.2.1.3.3.6.3l.5.2c0-.2 0-.3.3-.3l.2-.2c-.2-.1-.4 0-.5-.3 0-.2-.2-.2-.4-.2l.2-.6.1-.6h-1v1.1zM14 25.9l-.4.1-.5-.3.1.4c-.4 0-.4 0-.6-.2s-.4-.3-.7-.1l-.1.6c-.1.2-.2.4-.1.7h.2l-.1-.2-.1-.3c.4.1.8.2.8.7h.1l-.2-.6.4-.4c.2.3.3.6.6.6h.1l.2-.2.1-.2c.4-.2.4-.2.3-.6zm6.7-22.5-.5-.4c-.3-.2-.5-.1-.7.1h-.1c-.5-.4-.8-.4-1.2-.1l.3.6c.2.2.5.2.8.1h.5l.1.2.2.2h.2c.4 0 .6-.5.4-.7zm27.9 3.8.1.2.1.6.5.1c0-.4.3-.4.6-.4l.1-.3-.2-.5c0-.2 0-.2-.4-.2h-.3l-.5-.3c.2-.2 0-.3 0-.4-.2-.1-.4-.2-.6 0v.2a1.1 1.1 0 0 0 .6 1zM4.3 16.8h.3c.2 0 .3 0 .4-.2l-.2-.2V16h.4H5c-.2-.3-.2-.5-.1-.7-.3.1-.6.1-.8 0a1 1 0 0 0-.4.5H4l.6.3c0 .1-.2.2 0 .3v.3l-.6-.2h-.2v.1c0 .3.2.3.5.3zm49.1-2.4zm-1.5.6v.3h.4l.1.6c-.2.2-.3.4-.2.7l.3.1h.6c.3-.4.3-.7-.1-1h-.3c.1-.4-.2-.5-.3-.7h.6l.4-.5c-.2-.2-.5-.3-.6-.1a1 1 0 0 1-.7.3c-.2 0-.2.1-.3.2zM16.4 3.6c.2.3.2.3.6.3v-.6c.2 0 .5 0 .5-.4v-.2l-.2-.1-.3-.7-.4-.1c-.2-.1-.3 0-.3.1 0 .2 0 .2-.2.3-.2.2-.2.4-.2.6.4.2.4.6.5.8zm.5-1.2h.2v.2l-.3.1.1-.3zM3 4.7l.5.1s.1-.2.3 0c0 0-.2.3-.1.5.4.1.4.1.6-.1l.3-.3h-.4l.2-.3h.3v-.2h-.1c-.2-.6-.4-.7-1-.5-.3-.4-.3-.5-.6 0h-.1c-.2.3-.1.6.2.8zm18.6 17zm.7.8zm.5-1.5c-.3 0-.3-.4-.6-.3.1.4.2.5 0 .7-.3 0-.2.3-.4.3h-.2l-.3.3c0 .3-.2.3-.4.4 0 .6 0 .6.7 1 0-.6.3-.8.7-.9-.2-.2 0-.4 0-.6l.5-1zM9.3 21c-.1 0-.3 0-.3.2l-.1-.1c-.3-.4-.3-.4-.8-.3l-.4.2v.6c.2.1.4 0 .6.2q-.3.3-.2.7c.4 0 .2-.3.3-.4h.8l.2-.7c0 .2-.3.3-.6.3 0-.3 0-.4.2-.5s.3-.1.5.1v-.1l-.2-.3zM27 18.6c-.2 0-.3 0-.3.2v.4h.3c.5-.2.7-.2.9.3 0 .3.3.4.6.5h.5c0-.3 0-.5.2-.7 0-.2 0-.3-.2-.4l-.6.2-.9-.6H27zm.5-.1zm.5 2.7c-.2.3 0 .7-.4.8l.5 1q-.1.2.1.5l.8-.5-.7-.5c-.1-.6.1-1 .3-1.5.3.1.5.1.7-.2-.2-.3-.5-.2-.7 0l-.4-.2v.7h-.3zM12 24h.7c.2.3.4.4.7.3l.2-.4c0 .2.2.2.2.3.4-.2.4-.4.3-.7-.2 0-.3 0-.4-.2-.1 0-.1-.2-.4-.3l-.4.4c-.4-.3-.6 0-1 .1v.5zm-.3-22.7c-.1.4 0 .5.3.6l.2.1c.3.3.5.3.8-.2l-.4-.4c-.2 0 0-.3-.2-.4a6 6 0 0 0-.4 0c.2-.2.4-.4.3-.6-.6 0-.8.2-1 .7h.5v.2zm38.6 18.2.3-.3-.4-.7-.3.1-.2.2c.1.3 0 .6.3.8-.2.6-.7.2-1 .4l.2.2h.1c.4 0 .7.2.9.5.2-.2.4-.3.4-.6.1-.3-.2-.4-.3-.6zm-.3 2.4-.8.6c.5-.1.6.3.9.2l.8-.4c.5 0 .6 0 .9-.6l-.3-.1c-.3-.3-.6-.2-.8-.1 0 .2.3.2.2.5l-.5-.1H50zm7.1-4.7zm-1.3.3zm.9.3-.9-.2v.3l.3.2c.2.4 0 .7 0 1l.3-.1c0-.4.4-.5.7-.6 0 .2.1.4.4.4v-.4c-.3-.2-.2-.4-.3-.6v-.6c-.5 0-.4.4-.5.6zM38.9 33.2l.4-.4-.7-.9-.4.4.1.7-.4.4.7.4.2-.3.5.4c.2-.5-.2-.5-.4-.7zM20 1.8zm0 0c.3.2.6.2.7.5l.2.1c.3 0 .5 0 .7-.4l-.5-.7V.9h-.4c-.6.2-.6.3-.7.9zm3.8.7L25 3l.3-.6V2a2 2 0 0 0-.4-.4l-.5.1.2-.3-.6.1-.2.4c-.1.2 0 .4.1.5zM48 28.4c-.8-.5-.8-.4-1.1.2h-.7l-.5.5c.2.1.3.4.6.2h.5c.3 0 .2-.2.4-.4.4 0 .6-.3.8-.6zM42.7 3c.1-.3.6-.4.8-.8-.3-.2-.4-.4-.3-.7 0-.2-.1-.3-.5-.3 0 .2-.2.3-.3.4-.3.4-.3.7 0 1 0 .2.2.3.3.5zM30 37l.3-.3.1.6c0 .3.6.5.9.4l.1-.2c.2-.5 0-1-.6-.9h-.5v-.1l-.2-.2c-.4 0-.4.3-.6.4a.37.37 0 0 0 .4.3zm24.7-19.5v.7c.2.2.1.3 0 .5-.2.1-.4.3-.4.6l.3.3h.3c.2-.3.5-.5.3-.8.2-.1.5-.2.4-.5 0-.3 0-.5-.2-.8l-.1.4h-.4l-.2-.4zM24.2 15l-.5.6v.5c.2.2.4.2.5 0l.2-.2.3-.2.6-.5H25l-.2-.1-.2-.6h-.4c0 .2 0 .3-.2.4zm.5-.4zM6 15.9h.2l-.2-.1zm.6-.6.2-.3c0 .2.2.2.4.2l.3-.4.2-.5-.5.2h-.1v-.1l-.1-.1-.4.1-.3.3-.1.2v.1h.2l.2.2zm15 6.4z"/><path d="M21.8 21.4c.2-.3.1-.6-.3-.7a4 4 0 0 0-.4 0h-.3a1 1 0 0 0-.3.7v.5h.6c.3 0 .3-.3.3-.6l.2.2v.2l.2-.3ZM2.5 12.3l.1-.5-.4-.3-.1.2.2.2-.2.3c.3.2.4.3.6.2l-.2-.1Zm-.5-.2-.3-.2v.4l.1.4H2V12Zm6.7 16.4h-.6c-.3 0-.3 0-.5.3l.4.4.6-.3c.2.3.6.1 1 .1l.2-.8-.4-.1c-.1.3-.4.3-.7.4Zm15.7 5.3c-.4-.1-.8-.4-1-.9l-.4.5c0 .3-.2.4-.3.6 0 .2.2.3.3.5l.9-.5.1.3h.1c.1-.1.4-.2.3-.5ZM20 23.5q.3-1.3 0-1.6c-.3.1-.4.4-.8.4v.7c0 .2 0 .3.2.3l.6.2ZM10 3.4V3c.2-.1.2-.4.3-.6h-.7c-.4-.2-.6-.1-.8.2l.2.7 1 .1Zm41.2 5.9c0 .1 0 .4.2.5l.6.4c.3.1.6 0 .8-.3 0-.3-.4-.3-.5-.4l-.1-.5h-.4c-.2.3-.4.1-.6.3Zm-35.9 18h.3l.1-.3c.3 0 .6.2.8 0l.1-.8q-.3-.2-1.3 0l.1.2-.1.5v.4Zm39.1-2.6-.2-.3H54l-.4-1-.3.2H53l-.2 1h1v.1c0 .2.2.2.3.2l.3-.2ZM24.7 6.3l-.1.2-.4.5q.5.3.8.1l-.1-.3c.6.1.9-.4 1.2-.7l-.6-.1c-.3 0-.6 0-.8.4Zm-14.9 2a1 1 0 0 1 0-.5v-.3l-.2-.1-.2.2V8h-.3c-.1.1-.3.2-.2.3v.4l1-.3h-.1Zm-.1.4v.2l.2-.3-.2.1Zm37.5 11.8Zm.8 0h.2l.3-.5c-.4-.1 0-.4-.1-.6a4 4 0 0 0-.5 0c-.5 0-.7.4-.7.8v.3c.2 0 .3.2.5.3l.2-.3Zm-23.3-1.3v.2h-.5c-.2.9-.2 1 0 1.1l.5-.4c.2.1.5.2.7-.1l-.2-.7-.5-.1Z"/><path d="M19.4 24.7c0-.2.2-.5.6-.4v-.5l-.4-.3-.2-.2c-.3.1-.4.4-.4.7v.6c-.3.1-.3.3-.2.5.3 0 .4-.1.6-.4Zm0-1.4zm2 10.4c0 .4-.3.3-.5.4v.2l-.5.1v.6c.4.2.7 0 1 0v-.2c.3-.2.2-.5.3-.7l-.2-.4Zm-7.1-12.1v-.1l.4-.4h-.5c0 .3-.2.6 0 .8-.4.7-.3 1 .2 1.3.2-.3.2-.6.1-1-.2 0-.3-.4-.2-.6Zm43.3-9.3V12v.3ZM6.1 19.6l-.4-.8-.2-.2h-.8c0 .4 0 .6.3.8l.2.2h.3l.2.2h.2l.2-.3Zm-.7-.7h.1-.1Zm.3.8c0-.1.1-.2.2-.1 0 .1-.1.1-.2 0Zm51.5.5-.8-.9c-.2.2-.1.3-.2.5l-.3.3-.1.2-.1.6.2.4h.2l-.1-.6v-.5h.2l.3.3c.2-.2.5 0 .7-.3Zm-39.3-9.4h-.3v.3c0 .1.1.1.4 0l.8.4c.2.2.3.1.4-.1l.2-.4h-.2c-.2.1-.4 0-.6-.1v.4c-.2 0-.3-.2-.3-.3l.1-.3-.6-.3.1.4Zm1.5.2Zm31.1 14.6c-.2 0-.4 0-.4.3s-.3.4-.6.4l-.4.1.4.3-.2.1-.1.1c.3.5.3.5.8.3v-.4l.3-.1v-.4c.2-.1.3-.4.2-.7ZM19.2 8l-.5.1v.5l.3.6.1.3h.3V9c.3 0 .4 0 .4.3.1-.5-.2-.5-.6-.6l.2-.3c0-.2 0-.3-.2-.4Zm6.2 25.7Zm-.4.8-.4-.1-.2.2-.3-.4c-.1.4 0 .7.5 1 .2 0 .3 0 .3-.3l.1-.3c.3.2.5.1.7-.2-.2 0-.3-.2-.2-.4v-.3l-.3.1c-.2.2-.3.4-.2.7ZM13 11.3c-.2 0-.4.2-.3.4v.3l.2.2-.1.2h-.2v.1l.6.1-.1-.4-.2-.1v-.4h.2l.1-.2v-.2H13Zm.5 1.2h.3V12l-.5-.1v.2l.2.3Zm-6-7.7c.1 0 .2-.2.1-.3l-.2-.4.6-.6h.2l.2.2c.2-.7.2-.8-.4-.8 0 .5 0 .5-.5.5l-.4.7c-.2.3-.2.5.1.7h.3Zm48.8 5.4c-.2.1-.3.3-.2.5.2.4.1.6-.1 1 .1.2.3 0 .5.1l.2-.3-.2-.4.5-.3v-.4c-.2-.2-.4-.3-.7-.2Zm-11.9 22 .2-.3-.8-.5-.5.6c0 .3.3.4.5.5v.3h.2l.2-.3c.2 0 .2-.2.2-.3ZM7.3 17.3Zm-.7-.4v-.3l-.2.4v.2h.2V17ZM49.3 5.7c.2 0 .3-.1.3-.3 0-.1 0-.3-.2-.4h-.6l-.7.4.2.2c.3.3.7.3 1 .1ZM11.4 9v-.8l.1.1.3.3h.2s.1-.2 0-.2c0-.2-.2-.4-.4-.5h-.3V8h-.2v.2c-.2.4-.2.5 0 .7h.3Zm.2-1c.1 0 .2 0 .2.2h-.2V8ZM16 28.8l.6-.4-.5-.1v-.5c-.3 0-.4 0-.5.2l-.3.5h-.4c.4.4.9.5 1.2.3Zm38.5-16.7-.4.4-.3.5.2.3h.3l.6-.8v-.9h-.1c0 .3-.2.4-.4.5ZM7 7.2v-.6h-.1c-.2 0-.3.2-.3.4l.4.7c0 .2.2.2.4.2l.1-.3c.2-.1.1-.3.1-.5l-.3.1H7ZM54.3 15l-.4-.2q-.4.3 0 1c0-.4.2-.6.5-.7l.5-.3.2-.2-.2-.4c-.6 0-.5.4-.6.8Zm-37.6-1.9h.6l.2-.2v-.1l-.1-.4c0-.1.2 0 .3-.2l.3.1V12c-.1-.2-.3-.2-.4 0-.2.3-.5.4-.8.6-.2.2-.2.2-.1.5Zm.3-.6c.2.2 0 .3 0 .5h-.3c0-.2 0-.4.3-.5ZM4.9 24c-.2 0-.4.2-.6 0l-.1-.1H4c0 .4 0 .7.4.8l.3-.1h.4V24l-.3-.3v.3ZM16.2 6.6v-.8l-.9-.3-.1.7v.2c.3 0 .6.4 1 .2ZM28 36.4c.4 0 .7 0 1 .2l.2-.9h-.5l-.1.4c-.5-.4-.6-.4-1 0 .2.1.2.3.5.3Zm-8.2-15.2.1.5c.3-.4.3-.6-.1-1-.2-.3-.6-.4-1-.1.2.5.3.6 1 .6Zm-5.5-1.7.5-.2c0-.3-.2-.5-.1-.7a6 6 0 0 0-.5.2v-.3h.2v-.2h-.2l-.2.4c.2.2-.1.3-.1.6l.4.2Zm-.2-.4c.2.1.1.2 0 .3v-.3Zm-2.3 1.5c-.4.3-.4.5.1.9l.4-.1c.1 0 .2 0 .3-.2l-.2-.5h-.1l-.5-.1ZM10.3 4.2c-.4-.2-.7-.2-1 .1 0 .2 0 .4.3.5l.8-.1V5c.3-.2.3-.3.1-.5l-.2-.2Zm9.7 6.2.6.2h.2c.2-.2.1-.6 0-.8-.2-.2-.5-.3-.7-.1-.2.2-.2.5 0 .7Zm-9.2-6.3.1.3c.1.2.3.2.5.2v-1c-.2-.3-.5-.3-.6 0-.2 0-.2.4 0 .5Zm23.7-2.8c0 .3 0 .5.3.6.2.1.3 0 .5-.2l-.2-.3-.5-.5c-.1-.2-.3 0-.5 0-.2.1-.2.3 0 .4h.4ZM15.8 37h.3l.2-.3c0-.3-.2-.5-.3-.7-.1 0-.3 0-.4.2-.2 0-.3.2-.3.4l.4.4Zm28.8-11.6c-.2.2-.2.6-.2.9 0 0 0 .2.2.3h.2v-.3l.4-.1c.2-.7 0-.8-.6-.8Zm12.8-4.7c0 .3 0 .5.2.6v-1.2l-.2.6Zm-31.3-.8c-.1 0-.2-.1-.2-.3l-.1-.2c-.3.2-.3.2-.2.4 0 .2.1.5.3.7l.1.4.5-.3c0-.5 0-.6-.4-.7ZM26 21v-.1Zm-9.7 10.5Zm.1-.3s.2-.2.1-.3v-.7c-.2 0-.4 0-.5.2l.2.4-.3.2-.1.5.1.2h.3v-.2c0-.1 0-.2.2-.3Zm27.2 4c.3 0 .5-.3.6-.7h-.4v-.8l-.3-.2c-.1 0-.3.1-.2.3 0 .3 0 .6.3.8 0 .3-.2.4 0 .6ZM14.4 3.4l.1-.4c-.4-.3-.6-.3-.9.1l.3.7c.4 0 .5 0 .5-.4Zm39.5 13.1-.4.2c-.2 0-.3.1-.3.3 0 .2 0 .4.2.5.7 0 .8-.3.5-1ZM12 19v-.1c-.3-.1-.4-.3-.4-.6-.5.2-.5.3-.2.9l.2-.1.5-.1ZM8.8 9.2c0-.4-.2-.7-.4-1-.2.1-.2 0-.4-.2h-.3l.6 1 .2.2h.3Zm37 17.2c-.2.1-.3.2-.4 0-.2 0-.3 0-.3.2l-.2.6.6.3c.4-.3.2-.7.3-1.1Zm-28-2.4.7.3q.4-.5.1-.9l-.6.1c-.1.2-.3.3-.2.5Zm11.8 11c.2.2.3.1.3 0 0-.3-.4-.3-.3-.6l.4-.2c-.3 0-.4-.2-.4-.4v-.3l-.3.4-.1.2.1.8.3.1Zm.4-.1ZM15.4 1.1c0 .2.3.2.4 0l.2-.4c-.4-.2-.6-.5-1-.4l-.2.2c.2.3.5.3.6.6Zm35.1 14.6.9.4v-.6h-.2l-.2.2q-.1-.4-.5-.7l-.1-.1h-.2c-.1.4 0 .7.3.8Zm-.1-.8Zm-4.9 4.3.2-.2v-.2h-.4l-.3.4c-.2.1-.4.1-.5.3 0 .1 0 .3.2.2.2 0 .6.1.8-.2v-.3Zm0 .3ZM16 16c-.3 0-.5.2-.7.3 0 .3.2.4.4.5h.4v-.3c.1 0 .2 0 .2-.2a6.2 6.2 0 0 1-.2-.2l.1-.1h-.3Zm.1.9zM57 2.4c-.7 0-.9.2-.8 1 .7-.3.8-.4.7-1Zm-2.6 2.8c.4-.9.3-1-.4-1.2-.2.2-.2.4-.1.6 0 .2.3.4.5.6ZM16.5 28c.3 0 .6 0 .7-.4v-.3h-.7l-.2-.2-.2.4.3.1v.5Zm36.9-13.6Zm.6 0 .1-.3-.6-.7c-.3.5-.3.6 0 1v.1c.3.2.3.2.5 0ZM8.5 29.9v.7l.6.2c.3-.6.2-.7-.6-1ZM49.3 31c.2-.7.1-.8-.7-1v.7c.2.2.4.3.7.3Zm6.8-23.2L56 7h-.7c-.1.1-.1.3 0 .4.3.4.6.3 1 .3Zm-8.1 25c.2.2.3.3.6.2.2-.6.1-.7-.7-1 0 .4-.1.6.1.9ZM41.8 3.5l-.7-.4-.5.4c.2.3.3.5.7.3l.4-.1h.2v-.2ZM27 35.5Zm.7-.7-.2-.5-.8.4.4.4v.4l.2-.2c.3-.1.4-.3.4-.5ZM23.8 37c.6-.3.6-.4 0-1l-.2.3c-.3.3-.2.5.2.8Zm-6.5-8.4c-.1 0-.2 0-.3.2v.2c-.4.2-.3.5-.2.8l.3-.1c.2-.1.2-.2.2-.4l.1-.3c.1-.2 0-.3 0-.4ZM7.2 9.7v-.3h.5L8 9l-.2-.3c-.6.3-.7.6-.6 1h.1v-.1Zm6.3 10.6h.3v.5h-.1.2c.2-.2.2-.5 0-.6 0-.2-.3-.2-.5 0-.2.1-.2.3 0 .5v-.2l.1-.2Zm41.3 4.1-.2.8h-.3c0 .2.2.3.3.4l.4-.4-.2-.3.5-.1c0-.2.1-.4-.1-.6l-.5.2ZM13.8 10l.1.3c0 .2-.2.2-.2.3.1 0 .2-.1.4 0l.3-.1.3-.6a.6.6 0 0 0-.5-.1H14l-.3.2ZM4.5 6l-.2.3c.3.2.6.2.8.2.3 0 .3 0 .4-.3l-.6-.3h-.4Zm9.2 25.9-.4-.2q-.3.6-.2 1c.6 0 .7-.1.6-.8ZM53 21.8c-.5-.2-.4-.3-1 .1l.1.5c.8 0 .8 0 .9-.6ZM24.2 39.9c.5-.4.4-.6-.2-1.1-.3.6-.2.8.2 1Zm-7.9-16.5.7-.6c0-.2-.1-.3-.4-.2l-.8.3.5.5Zm38.4-1c-.2 0-.4 0-.5.3l.7.8c.3-.4.2-.6-.2-1.1ZM31 34.3c-.5-.2-.6.3-1 .3v.3l.4.3c.4-.2.4-.6.5-1Zm-1 .6Zm18.3-16.5c-.1-.2-.3-.5-.6-.3-.1 0-.3.1-.2.3 0 .3.1.4.3.4.3 0 .4-.1.5-.4Zm-16.5-15 .4-.6-.2-.4c-.2 0-.4.2-.5.3v.7h.3Zm0 30.6h-.3l-.3-.3a1 1 0 0 0 0 1h.5V34ZM11.1 17h-.2c.2 0 .3 0 .5-.3-.2 0-.3 0-.3.2Zm-.1-.8h-.3v.1h.1l.3-.1Zm-3.4-5.8h.1l-.1-.2v.2Z"/><path d="M7.6 10.4c-.2 0-.3.1-.4 0v-.2H7c-.2.4.1.5.3.7l.4-.1v-.4Zm29.9 23 .5-.6c-.2-.2-.2-.1-.6 0l-.6.1.2.3c.1 0 .3 0 .5.2Zm17.8-12.7V20c-.3 0-.6 0-.7.3v.3l-.1.2c.4.2.6 0 .8-.2ZM48.7 13l.3-.4c-.1-.3-.1-.7-.6-.6-.1.4 0 .7.3 1ZM52 6.8l-.6.2c0 .6.5.5.8.6.2-.4 0-.6-.2-.8ZM14.6 0h-.7c.2.3.5.1.7 0Zm5 26.3h.5V26c-.2-.2-.4-.4-.7-.4l-.1.2c-.1.3 0 .5.3.5ZM3.5 21.7v.3c.4 0 .6 0 .7-.8l-.4.1.1.2c-.1.2-.2.3-.4.3Zm25.8 13.2-.6-.1c-.2 0-.3 0-.4.2l.1.3c.1.1.3.2.4 0 .2 0 .3-.2.5-.4ZM15 22.3l.4.4c.2-.5.2-.7-.2-1 0 .3 0 .5-.2.6Zm3-1.6c.2 0 .3-.1.4-.3 0-.2 0-.3-.2-.4-.3-.2-.4 0-.6.2.1.4.2.5.4.5ZM50.6 8.5Zm1 0c.2 0 .2-.2.2-.4-.5-.1-.5-.1-.9.2l-.3.2h1.1ZM22.1 35.7h.3c0-.6-.3-.7-.7-.8 0 .2-.2.4 0 .6l.4.2Zm1.5-14.8.3-.2c0-.4-.5-.6-.4-1-.3 0-.4.3-.4.5l.5.7Zm-4.7-2.4c-.3 0-.4.1-.5.3 0 .3.1.5.4.4.2 0 .3-.1.3-.3 0-.2 0-.4-.2-.4Zm36.6 3.9H55l.2.4h.6V22c-.3 0-.2.2-.3.4ZM.8 15.7l.2-.3H.7v.3ZM50 21.9Zm.3-.4c0-.2 0-.4-.3-.4-.2 0-.3 0-.4.2 0 .3 0 .4.3.6l.4-.4ZM5.9 17.8v1l.1.2.3-.2c0-.4.1-.8-.4-1ZM54 11.5c-.3 0-.7.3-.7.5v.2h.4c0-.3.3-.2.5-.3 0-.2 0-.4-.3-.4Zm-6 13.8c-.2 0-.4 0-.6-.2 0 .3-.3.5-.2.9.6 0 .6-.1.7-.7ZM25.5 35c-.1.5-.1.6.4.8l.2-.2c0-.4-.2-.6-.6-.6Zm.5.6Zm-7.6-9.3.3-.1v-.3l-.5-.4c-.2 0-.3 0-.4.2 0 .1 0 .2.2.3h.2v.1c0 .1 0 .2.2.2ZM8.3 19.4H8v.4l.3-.2h.3c0 .3 0 .3-.3.3h-.2l.6.1v-.4l-.4-.2Zm11-9.1h.5v-.2l-.1-.3h-.3c-.3 0-.3.5-.6.4v.2h.3c0-.1.1-.1.2 0Zm.3-.2v.2h-.2l.2-.2ZM8.5.6V0H8c0 .6 0 .7.5.6ZM6.4 24.4l.1.3c.3-.2.5-.3.5-.6 0-.2 0-.3-.2-.4l-.4.3.2.1c0 .1 0 .2-.2.3Zm6.4-21-.2.4c0 .2 0 .4.4.5l.3-.6c-.1-.2-.2-.3-.5-.3Zm-7.6 6.8H5c-.1 0-.2 0-.3.2l.2.1.3-.3Zm11.4-5v.1c-.2.5 0 .6.4.5h.1c0-.4 0-.4-.2-.6h-.3Zm1.2 28.6c-.3.5-.3.6 0 1 .4-.3.4-.5 0-1Zm2.9-.8.2.4q.5-.2.6-.5v-.2s-.1-.1-.1 0c-.3 0-.5 0-.7.3Zm11.5 3.7Zm0-.8c0 .3-.5.4-.3.7h.3l.4-.1c0-.3-.1-.5-.4-.6Zm3-33.2h-.3l-.1.3c0 .3.3.4.6.3.1-.4 0-.6-.2-.6Zm.3.6ZM22.3 19v-.2c0-.5-.1-.6-.5-.4l-.3.1.5.6.3-.2Zm-.8-.5ZM52.7 5.2c.2-.6.1-.8-.4-1 0 .6 0 .6.4 1ZM47 2.4l.5-.1-.2-.6-.4.1c-.1.3 0 .5.2.6Zm6.2 8.5-.3.3.3.5.4-.4c.1 0 .2-.2 0-.3 0-.1-.2-.2-.4-.1ZM5.1 4.3c.2 0 .2-.2.3-.3.2-.1 0-.3 0-.4-.1-.2-.3-.1-.4 0-.2 0-.3.2-.2.4l.3.4ZM11.7 33c-.7.3-.7.4-.4 1q.5-.3.4-1Zm-.6-8.7c.1-.4 0-.5-.3-.7l-.4.3c0 .5.4.4.7.4Zm36.7-11 .6-.4c-.3-.2-.4-.5-.8-.4 0 .3 0 .5.2.8ZM2.6 18.8H3v-.3l-.3-.1-.2.4Zm52.8-8.5c.1-.1.3-.2.2-.5-.2.2-.4.1-.5 0h-.3l-.2.2c.2.3.5.3.7.3Zm-.6-.6ZM11.2 33c0-.4-.5-.2-.5-.6h-.1c-.2 0-.3.2-.2.4l.4.5.4-.4Zm2.1-3c-.4 0-.6.3-.7.5l.5.4c.3-.3 0-.5.2-.9ZM52 22.9l-.1-.2h-1l.3.3.5.1.3-.2ZM35.5 36c-.3-.1-.1-.6-.6-.6v.8c.2 0 .4 0 .6-.2ZM12.9 22c0 .2 0 .3-.2.3h-.2v.2h.4l.2-.5c0-.2-.2-.3-.4-.2l.2.2ZM1.6 17.6l-.2-.4-.2-.1v.1l.2.5.2-.1ZM18.9 1.9h.2v-.7h-.6c0 .4.2.5.4.7Zm8.5-.9c.1-.2 0-.5-.3-.7-.4.3-.4.4-.2.6.1.2.3.2.5 0Zm13.7 23.2c.4.3.5.2.7-.5l-.6-.1v.6ZM18.3 8.6l-.2.4q.3.4.6.5V9s-.1-.1 0-.2l-.4-.3ZM43 25.5q.4.4.8.5l.2-.1v-.3c-.4 0-.6-.2-1 0Zm-30.5-7.2.3.2q.2-.6-.2-1c-.2.2-.2.4-.2.7h.1v.1Zm.1-.5v.1-.1ZM27 20.7c.4.1.6 0 .8-.3v-.3c-.6.1-.7.2-.7.7Zm20.3 11.8c-.1-.3-.3-.2-.6-.3v.6l.4.1c.2 0 .3-.3.2-.4ZM23 31.8l.2-.2h-.8l-.3.2v.2c.2 0 .3.1.4 0l.5-.2Zm-1.6-8c-.3 0-.3-.4-.6-.3v.7c.2-.2.5-.1.8 0l-.2-.4ZM25.2 8l-.2-.2h-.3c-.2.1-.3.2-.2.5h.4c.1 0 .3 0 .3-.2Zm-8.6 14.4.3-.1.1-.7c-.5 0-.5 0-.5.4v.2l.1.2ZM30 21.1q-.5.4-.3 1l.4-.3c0-.2 0-.5-.2-.7ZM56.8 8l.2.1.5-.2-.3-.6-.2.3-.1.2-.1.2Zm-5.6 18.3c0 .2.2.3.3.2.2-.2.6-.4.6-.8-.5 0-.5.5-.9.6ZM36.6 36l.1-.5c-.6-.1-.7 0-.6.5h.5ZM33 37.6l.3-.3-.1-.4c-.6.1-.7.2-.3.7ZM28 .2c.3.2.6.3.9 0l-.2-.2h-.5l-.2.2Zm21.2 20.4c0 .3 0 .4.4.4v-.4c0-.2-.2-.3-.3-.4l-.2.4ZM10.8 30.8h.5c.1-.1.2-.2.2-.5h-.7c0 .2-.2.4 0 .5ZM33.5 37q.4-.3.2-.8c-.5.3-.6.4-.2.8ZM16 9.7c.2 0 .3-.2.2-.5h-.4c-.2 0-.3.3-.2.4 0 .2.2.2.4.1Zm5.5 16.7c.2 0 .2-.2.2-.3v-.3c-.3.2-.5-.1-.7 0l.2.4c0 .2.2.2.3.2ZM.1 23.1l.2.1V23c0-.2.1-.3.2-.3H.2l-.1.4ZM42 31.7c-.2.3 0 .6.2.8h.5a58 58 0 0 0-.6-.8Zm-30.6 3.1-.4.4c.3.3.4.3.6.1l.1-.2v-.3h-.3ZM6.9 6.3v-.2L7 6l-.2-.2c0 .3-.1.4-.4.4v.2c.2-.2.3-.2.5 0Zm14.3 25.6v.5l.7-.2c0-.4-.2-.4-.7-.3ZM50.4 4c-.4 0-.4.3-.5.5l.3.3c.4-.3.2-.5.1-.8Zm-42 7.3h.3l-.1-.5-.2.5Zm47.4 10.4c-.1-.2-.1-.5-.4-.5-.2 0-.3.2-.4.4v.2c.2-.3.5 0 .8-.1ZM7.3 26.1c.4.2.5.2.8 0-.2-.3-.4-.3-.7-.2v.2Zm30.5 10.4c-.5.2-.6.3-.3.7q.4-.2.3-.7ZM16.5 13.6v-.4l-.3.2v.5l.2.2c.2 0 .3-.2.4-.3 0-.2-.2-.1-.3-.2Zm.3.2Zm40 2.4Zm.4 1Zm-.5-.7Zm.5.7c.2-.4 0-.7-.4-1v.3c0 .3.2.5.4.7Zm-54.9-.8.2-.2h-.3l.1.2Zm1.2-9.3q-.6-.1-.7.4c.5.2.6.2.7-.4Zm51.2 8.6-.2.2.1.4c.2 0 .3-.2.4-.3v-.3h-.3Zm1.7-.5Zm-.4.3c-.1.2 0 .3.2.5.4-.3.4-.4.2-.8l-.3.3Zm-44.4 7c-.1-.2-.4-.3-.5-.2v.3l.1.1h.4c.1 0 .1-.1 0-.2Zm7.1-5.3h-.4c0 .5 0 .6.3.6l.2-.3-.2-.1.1-.2ZM57.1 23c-.2 0-.4.1-.3.4l.3.2q.3-.3 0-.7ZM8.6 17h-.2v.3l.2-.2Zm-.4.6.2-.2-.2.1v.1Zm48.4-5.3h-.3c-.2.2-.2.4 0 .6h.4v-.6ZM14.8 34.2v-.6q-.5 0-.3.7h.3ZM3.4 10v-.2L3 10l.4.1Zm-.4.3-.1.1.2.2.1-.2-.3-.1Zm7 15.2h-.8c.6.5.6.5.9 0Zm31 7.7.2-.2v-.3c-.3 0-.3-.2-.5-.3v.5c0 .1 0 .3.2.3ZM10.7 9.5l-.1-.3h-.2c-.2.1-.2.4-.3.6h.2c.3 0 .3 0 .4-.3Zm-.6.4zM12.6 5q.3.3.6.2c-.1-.5-.3-.6-.6-.3ZM9 19.2l.3.2c.1-.2.2-.3.1-.4l-.4.2Zm36.5 12.6.3.1h.5l.1-.2c-.3-.1-.6-.2-1 0ZM4.9 25.4c-.4-.1-.5 0-.6.3h.1l.1.2h.2v-.1l.2-.3ZM3.2 13H3l.1.2h.3v-.7h-.2v.3Zm17.3-3.7V9l-.3-.4c-.2.1-.2.2-.1.3l.2.4h.2Zm-10 8v-.1l-.2.1v.6l.2-.1c-.2-.2-.2-.2 0-.6Zm-.2 10c-.2.3 0 .5.3.8 0-.6 0-.7-.3-.8ZM37 35.7l.3.1c.1-.4 0-.6-.3-.7v.6Zm.6-.9c0-.3-.3-.5-.6-.4.1.5.2.6.6.4Zm-17.4-24h-.4l-.4.2.3.3q.4-.2.5-.5Zm-.8.2ZM7.5 13.4l-.2-.1v.2h.1Zm5.9 6 .1.4c.4-.2.1-.5.3-.7h-.4c-.2 0-.1.2 0 .3Zm35.4 1.8v.3c0 .2.2.2.3.1v-.3c0-.2-.2-.2-.3-.1ZM17 30.7l-.1.4s.2.1.2 0c.3 0 .3-.1.3-.3-.2-.2-.3-.2-.5-.1ZM47.7 29s0 .2.2.2h.1c0 .2.2.2.3.1V29l-.6-.1ZM21 25.4v-.2l-.2-.2c0-.2-.2-.2-.4 0v.3l.7.2Zm-.6 10.8c0 .2.2.3.3.4l.4-.2q-.3-.3-.7-.2ZM41.2 34c-.4.1-.4.2-.4.7.5-.2.5-.2.4-.6ZM8.4 18.1h-.1l.1.3.1-.2Zm7.8-12.6.4-.4-.3-.3c-.4.2-.4.3-.1.7Zm.4-.4v.1-.1zM4.5 20.4v-.1c-.2 0-.2.1-.3.2l.1.2c0-.2 0-.3.2-.3Zm42 8 .2-.6c-.2 0-.4 0-.6.2.1.1.1.4.5.4ZM38 38.5c-.3.4-.4.5-.1.8.2-.2.3-.4.1-.7Zm-24.1-8-.5.2v.3l.1.2c.4-.1.4-.4.4-.7Zm-7.9-8c.2-.1.2-.2.1-.3-.1-.3-.3-.2-.5 0l.2.2c0 .1.2.2.3 0Zm48.3-.8c.1-.1.4-.2.3-.5H54l.1.5Zm-43 6.7q.2-.2.1-.6c-.2 0-.3.2-.4.3l.3.3Zm17.4-13.1c-.3 0-.5 0-.6.2q.2.3.5.2l.1-.4Zm-7.4 20.4c.1 0 .2-.3 0-.4H21v.3h.3ZM57 8.8c-.2 0-.2.2-.2.2l.2.4.2-.2V9l-.3-.1ZM39.8 35c-.2-.1-.1-.5-.5-.4v.5l.5-.1ZM2.5 6.7l.1-.2c0-.1 0-.2-.2-.2H2l.3.3c0 .1.1.2.2.1ZM.6 6.6c-.2.2-.2.3-.1.4l.4.2c.2-.4-.1-.4-.3-.6Zm55 .1c0-.2.1-.3 0-.4 0-.1-.1-.1-.2 0l-.1.4h.4ZM20.8 20.3l.2.2s.2 0 .2-.2v-.2h-.4v.2Zm0-.3zM15 1.6h.2q0-.4-.3-.5v.5Zm14.4 21.1q.2-.5-.1-.6c-.2.4-.2.4.1.6Zm21.4 2-.3.2.3.2.3-.1v-.3h-.3Zm-38.2 5 .7-.2c-.1-.3-.2-.3-.5-.2-.2 0-.3.1-.2.4Zm7.9-12.9q-.2-.2-.5-.2c0 .2.2.3.1.5.2 0 .4-.1.4-.3Zm-.4.3Zm34.5-.5h-.4v.7q.4-.4.4-.7Zm-2.9 11.3c-.2 0-.3 0-.3.2s0 .2.3.2c.1-.3.1-.4 0-.4ZM6.8 18.1Zm-.3-.1v-.4.4Zm.1-.5Zm50-4.2.1.3h.1l.2-.3s0-.2-.2-.3l-.1.3ZM5 11.6v.1ZM11.4 29l.2.1.4-.3c-.3-.1-.5-.1-.7.2ZM42 24.4l.4.2c.2-.3.1-.4 0-.5-.2 0-.3.2-.4.3ZM24.8 37.2v.2c0 .2.2.3.3.2v-.3c0-.1-.2-.2-.3-.1Zm15.4-3.8Zm0 .1-.2-.3c-.1 0-.3 0-.4.3.4.2.4.2.6 0Zm-.2-.3zm7.5-8.9.4.5c.2-.1.3-.2.2-.4-.1-.2-.3 0-.6-.1ZM56 11.5c-.1-.1-.1-.3-.3-.2-.1 0-.2.2 0 .3 0 .2.1.2.3.1v-.2ZM45.5 9.3c.3-.4.2-.5-.1-.5-.1.2-.2.4.1.5Zm-7 25.3c-.2 0-.2.2-.1.5l.2-.4h.5c-.2-.2-.4-.2-.6-.1Zm-30-11.7h.3l-.1-.5c-.2.1-.2.3-.2.5Zm6-16.6.2-.1.1-.1v-.2h-.2c-.1 0-.1 0 0 .4Zm1.2 27v.3c0 .1.1.2.2 0 .1 0 .2-.1 0-.3h-.2ZM18.4 22q0-.2-.4-.4c0 .3.2.4.4.5Zm25.6.9c-.3.2-.3.3 0 .8v-.8Zm6 2.5c0-.1-.2-.2-.3-.1l-.4.1.4.2c.2 0 .3-.1.3-.2Zm-19.8 8.7v.2l.3-.4c.1 0 .2-.2.1-.4-.2.1-.3.4-.4.6ZM7.5 5.7ZM26.4 22c-.1.2 0 .3 0 .4h.2v-.1c.1-.2 0-.3 0-.4h-.2ZM6 7c-.4-.2-.5-.1-.6.2.3.2.4 0 .6-.2Zm25.6 28.4q-.4.2-.3.6c.2-.2.4-.2.3-.6ZM15 30.7q-.5.2-.5.5.4 0 .4-.5Zm39.2-12.1c-.3-.2-.3-.2-.6 0q.3.3.6 0ZM2.8 21.8l.1-.4-.2-.2q-.2.3.1.6Zm15 5.5c-.3 0-.3 0-.3.4q.3 0 .3-.4Zm-14-7V20h-.3l.3.3ZM57 26v.2c.1.1.3.2.4.1v-.1c0-.2-.2-.3-.3-.2ZM6 31.6c-.1 0-.1.2 0 .4.2 0 .3-.2.2-.3l-.1-.1ZM6.4 11l.4.2.2-.4c-.4 0-.6 0-.6.3Zm10.2-6.6v-.3c-.3 0-.4 0-.5.2.1.2.3.2.4.1ZM7 29.5l.1.2.3-.1c.1-.1.1-.2 0-.4-.2 0-.3.2-.4.3ZM27.3 23c.2.5.3.5.5.2-.1-.1-.3-.2-.5-.1Zm-13 1.2c-.1 0-.2.1-.1.2.1.2.3.1.4 0 0-.2-.1-.3-.3-.2Zm3.6 6-.3-.5c-.2.4-.1.5.3.5Zm-8.1-7.9Zm.2-.3-.2.3c.1 0 .2.3.4 0 0 0 0-.2-.2-.3ZM46.5 7.8s.1-.2 0-.2l-.1-.3-.1.2v.2h.2ZM22.2 20v.2l.2.1c.2-.2.2-.3.1-.6l-.3.3ZM10 16.6v.1l.1.3.2-.2v-.2H10Zm38 9.8-.2.5h.6l-.4-.5Zm4.6-15.6c-.3.1-.3.3-.3.5.4 0 .4 0 .3-.5ZM22.3 22.5Zm.7.1a.5.5 0 0 0-.7 0c.3.2.4.2.7 0Zm33.7-6.2Zm-.3-.3v.5l.3-.2c-.1 0 0-.3-.3-.3ZM48 30.5v-.2l-.3-.2v.3c0 .1.1.2.2.1ZM4 7.4l-.1.3h.3s.2-.2 0-.3H4Zm10.7 23.3v-.4h-.3v.2l.3.2ZM24 7.9c0-.2 0-.3-.2-.4l-.2.5c.2 0 .4 0 .4-.2Zm33.6-2.2q0-.3-.4-.4 0 .3.4.4ZM27 37.5c.2-.1.4-.2.5-.5-.3 0-.5.1-.5.5Zm-11.5-6.9h.1l.1-.1c0-.2 0-.3-.2-.4l-.1.2v.3ZM42 34.8v.4h.2c.1 0 .2-.3 0-.4h-.1ZM18.8 22.3l.1-.6c-.2.1-.2.2-.1.6ZM.6 8.6c-.1-.3-.3-.2-.5-.1 0 .2.2.3.4.2v-.1ZM17.5 3h.3c0-.4 0-.4-.4-.3V3ZM7.4 18.6v.3c.2 0 .3-.2.3-.4h-.3ZM33.6 2.2c-.2 0-.4-.1-.4.2q.3 0 .4-.2ZM20.9 26.9l.4.4v-.5h-.4Zm28.3-8.3Zm.2.4c.1-.2 0-.3-.1-.4l-.3.3c.1.2.2.2.4 0ZM1.3 19v-.1l-.1.1v.1c.2 0 .2-.1 0-.2Zm54.1-5.7v-.6c-.3.4-.3.4 0 .6ZM6.1 28.9h.2v-.4h-.1c-.1 0-.2.3 0 .4Zm4.5-26.5c-.2.2-.2.3-.1.5.3-.1.3-.2.1-.5Zm40.7 22c0 .2.1.3.3.3l.1-.2c0-.2-.2-.3-.5-.1ZM53.2 13l-.2.4c.3 0 .4 0 .4-.2l-.2-.2Zm-18.4 7c0-.1 0-.3-.2-.3q0 .3.2.4Zm20-10.3Zm0 0 .2-.2c0-.1 0-.3-.2-.3v.5ZM37.4 32.1l.5.4c-.1-.3-.1-.3-.5-.4ZM6.9 22.7h-.2q0 .2.2.3c.1-.2.2-.2 0-.3Zm-.2-15-.4.2c.4.2.5.2.4-.2ZM25 33Zm-.2.4h.2c.2-.1.2-.3 0-.4l-.2.2v.2Zm-6 1.1q.2.4.5.3c0-.2-.2-.3-.5-.2ZM15.4 31q-.3 0-.1.4c.2-.1.2-.3.1-.5Zm37.2-7.4c.2-.1.4-.2.3-.5-.2 0-.4.2-.3.5ZM12 9.4h-.3c0 .2.1.4.5.3l-.1-.2h-.2.1Zm3.8 20.2.2.2h.2v-.2l-.3-.1-.1.1ZM14.7 6.7c-.1.2 0 .2.2.3.1-.1.1-.3 0-.4h-.2Zm-13.1-2-.3.1c0 .2.1.2.2.3.2 0 .1-.2 0-.4Zm21.2 32.1c0-.3 0-.4-.3-.5 0 .4 0 .4.3.5Zm25.4-15.5zm.2-.4H48l.2.4c.2 0 .3-.2.1-.5Zm-3.1 13.4c0-.2-.2-.3-.4-.4q0 .3.4.4ZM8.4 4.3h.2l.1-.3h-.2v.3Zm45.1 16.5Zm.1.4c.1-.2.1-.3-.1-.4-.2.2-.2.2 0 .4ZM35 37.3l.3.2v-.3H35ZM12.4 32l.3.1.2-.1c0-.2-.1-.2-.2-.2l-.3.3ZM42 29.6Zm-.2-.4v.2l.2.2c.2-.2.2-.2-.2-.4Zm5.4-2c0 .2 0 .4.2.5.2-.3-.2-.3-.2-.5ZM13 21.6c.1.1.2.1.2 0H13Zm.1-.5ZM6 4c-.2 0-.3 0-.4.3.3 0 .4 0 .4-.2Zm40.1 23q-.2.3 0 .5c.2-.1.1-.3 0-.4Zm-3-3.7v.3h.3v-.2H43ZM28.1 2h.1c0-.2-.2-.3-.3-.2V2c0 .1.1 0 .2 0Zm-7.5 31v-.4h-.2c-.1 0-.1.1 0 .2l.2.1Zm-7.8-14.1c0 .2 0 .3.3.3 0-.2 0-.4-.3-.3ZM6 8.8c0-.3 0-.4-.3-.5 0 .2 0 .4.3.5Zm.2.3.4.1q-.1-.3-.4 0Zm47.5 13.4q0-.3-.2-.4l.2.4ZM27 36c.2-.3.2-.3 0-.5-.2.2-.2.2 0 .5Zm0-.5Zm-2-12.8c.3 0 .4-.2.3-.5-.2.1-.3.2-.2.5Zm14.4 11.6h.4l-.3-.3-.2.1.1.1Zm-22.6-2.7v-.1c-.2-.2-.3-.1-.5 0 .1.1.3.3.5.1Zm-.5-.1Zm-2.3 3c-.2 0-.2 0-.3.2v.1q.3 0 .2-.3Zm9.8.3-.2-.2h-.1c0 .2 0 .3.3.2ZM32.3.7l-.1-.2-.3-.1.1.3h.3Zm-27 11.8c-.1.1-.3.2-.3.4q.4 0 .3-.4ZM27.4 2.1l.2-.4-.6.2.5.2Zm30 6.5.2-.2v-.3c-.2.1-.2.3-.2.5ZM15.8 29.1h-.3v.2l.2.1v-.3Zm20.6 5.8c-.3 0-.3.2-.3.4q.2-.1.3-.4ZM9.8 22.3Zm-.3-.3v.4h.3c0-.2 0-.3-.3-.4Zm12.2 11 .2-.3h-.4v.1l.2.3Zm-1.3-7.4c-.1 0-.3 0-.3.2q.3 0 .3-.2ZM20 1.8Zm-.6 0c.2 0 .2.1.3.2l.3-.2h-.6ZM8.3 4.3c-.2 0-.4 0-.4.3.2 0 .3 0 .4-.3ZM19.4.5h-.2v.2h.2V.5Zm7.4 3.3h-.3V4c.1 0 .2 0 .3-.2Zm12 3.6s-.1.1 0 .2h.2v-.2h-.2ZM15.9 21.9l-.1.2h.3v-.2H16Zm16.3 14.8Zm-.1.3s.2.1.4 0l-.3-.3s-.2.1 0 .2Zm19.7-21.4c0 .2.2.2.3 0-.2-.2-.3-.1-.4 0ZM7.9 26.8l-.4-.3v.3c0 .2.2.1.4 0Zm1.5 4.8c0 .1 0 .3.3.3 0-.2-.1-.3-.3-.3Zm42.7-5.2h.5c-.2-.2-.4-.2-.5 0Zm-17.5-5.2.2-.1v-.3l-.2.2v.2Zm-5.6.2v.4l.2-.1c.1-.2 0-.3-.1-.3ZM21.2 9.3h.1c0 .1.1 0 .1 0v-.2.2h-.2ZM12 34.5l.2.3h.2l-.2-.3h-.1ZM41.9 30h.3l-.2-.3s-.3 0-.2.3Zm.1-.4Zm-15.6 6.2c0-.2 0-.2-.3-.2.1.3.1.3.3.2Zm-.4-.2ZM5.4 4.5h-.3l.3.4v-.4Zm9.2-2.2c0-.2-.1-.3-.2-.3l-.1.2h.3ZM39.7 1c-.1-.1-.2-.3-.3-.2v.1c0 .2.1.2.3 0Zm9 24.7.3.3v-.5l-.3.2ZM18.2 1.6l-.1-.1-.3.3c.3 0 .4 0 .4-.2Zm8.1 15.2c.1-.1 0-.2-.1-.3-.1.1-.2.2 0 .3h.1ZM21.4.3l-.3.4q.3 0 .3-.4ZM1.5 21.8l.2.1v-.2h-.2ZM18 10.1h.2c.1 0 0-.1 0-.2-.1 0-.2 0-.2.2ZM3.3 2.7c0-.1 0-.2-.2-.3l.1.4h.1Zm44.9 18.6zm.2.1-.2-.1-.1.4.3-.3ZM40.9 29l.3-.5c-.3.1-.3.2-.3.4ZM.4 20.9h.1Zm55.4-3.5Zm0-.4-.1.2v.3l.2-.3-.1-.1ZM1.2 21.7c0 .1 0 .2.2.2v-.1h-.2Zm29.1 10.1h.4c-.2-.3-.2-.3-.4 0Zm.4 0zm18.6-5.7h.3V26h-.2v.2ZM2 23.7h.2H2ZM.5 7.8h.2v-.2H.5V8ZM52.9 26l.2.2h.2c-.1-.2-.2-.3-.4-.1Zm-1-21.8v.4q.2-.2 0-.4Zm5.7 13.6Zm-2.8-4.5-.1-.1v.2h.2v-.2Zm-32.3 9.8-.2-.2v.2h.2ZM6.3 14.3v.1-.1ZM46.2 31q-.2 0-.1.3l.1-.3Zm-32.4-9.5v-.2.2Zm26.9 12.2.3-.2q-.3 0-.3.2Zm14.6-19.8h.2l-.2-.1v.1ZM11.1 24.6h.4c0-.2-.2-.2-.4 0Zm.6 6.5c-.2-.2-.2 0-.3 0 .1.2.2.2.3 0Zm39.6-11.5q0-.2-.3-.2l.1.2h.2ZM9.8 6.8l-.2.2h.2v-.2Zm-.6 20.4.2-.1v-.2l-.3.2v.1ZM6.3 9.7h.2v-.2h-.2v.2Zm2.3 10.7h.2v-.1h-.2v.1Zm8.8 7.6-.2-.4c0 .1 0 .3.2.4Zm-.2-.4zm23.4 7.3-.3-.2c0 .2.1.3.3.2ZM52.8 12c0 .2.1.2.2.2V12c0-.1-.1 0-.2 0ZM47 9.8h-.2c-.2-.1-.2-.1-.2.2l.4-.2Zm0 0ZM20.4 31.2v-.4l-.1.3.1.1Zm23.5-28-.4-.1c.1.2.2.3.4 0Zm-4.1 2.4-.1.2h.2v-.2h-.1Zm-10 25.6V31h-.1v.2h.1ZM4.2 2h-.1v.3l.1-.2Zm42.2 29.7.3-.3c-.2 0-.5.1-.3.3Zm0 .1Zm-34.7-4.4-.2-.1-.1.3c.2 0 .3 0 .3-.2Zm6.2 4.6s-.1-.1-.1 0l-.1.1h.2Zm34.7-18.5v.2h.2v-.2h-.2ZM40.5 33.3c-.2 0-.2.1-.3.2l.3.2v-.4Zm-.3.2ZM17 22.1c.3 0 .3-.1.2-.3l-.1.3Zm39-5.5c.1-.1.1-.2 0-.4v.4ZM8.6 27.7l-.3.1c.2.1.3 0 .3-.1ZM40 33.2c.2 0 .3 0 .4-.2-.2 0-.3 0-.4.2Zm0 0Zm-18-8.6h.2v-.3H22l-.1.3ZM10 23h.1s0-.1 0 0l-.2.2Zm-.8.8-.2-.1.1.2Zm21.6 9.4h-.2v.2l.2-.1v-.1Zm23.4-10h-.1v.1h.1v-.1ZM13 .5V.2h-.1v.3h.1Zm1.3 8.9h.2v-.1h-.2v.1ZM5.4 5.7h.2v-.2h-.2v.2Zm18.2-4h-.2l.1.1h.1Zm-.8 31.1v-.2h-.2v.2h.2ZM13.4 9.2l.2-.1h-.2v.1Zm32.4 19.5.1-.1h-.1v.1ZM44.9 5c-.1 0-.2-.1-.2 0l.1.1V5Zm-25.1 8.7v-.1l-.1.1h.1Zm-6.7 5h.2l-.2-.1v.1ZM56.4 15c-.1 0-.1.1 0 .2 0-.1.2-.2 0-.3Zm0 .2ZM29.1 33.4l.1-.2-.1.1ZM8.1 5.2V5H8v.1l.1.1Zm22.2 26H30v.2h.1v-.2ZM24.3 8h-.2s.1.1.1 0h.1Zm11.5 13.6v-.1l-.2.2.2-.1Zm-23 6.8v-.1l-.2-.1v.2h.2Zm38.1-8.2h.1s.1 0 0 0V20s-.1.2 0 .2ZM15 31.7v-.2.2Zm2.6-10 .1-.1h-.1Zm-13.8.7-.1-.1v.2ZM16.2 33v-.1H16l-.1.2.2-.2Zm-1-27.7H15v.1h.1Zm42 4.7.3.1v-.2h-.2ZM28.7 2.1h-.2v.1h.2Zm2.4 24.6c.1-.3 0-.3-.2-.3l-.2.1c.1.2.2.3.4.2Zm-5.5-1.1h-.2v.1c0 .2 0 .2.2.2h.1l-.1-.3Zm-.5-.2c.2.1.3 0 .3-.2l-.3.3Zm5.2 2.7-.1.1.1.2c.1-.1.2-.2 0-.3Zm-.3.6h.3c-.1-.1-.2 0-.2 0Zm0 0Zm-5.2-16.5h.2v.2h.6c0 .2 0 .5.2.5.3-.4-.4-.5-.2-.8l-.6-.4-.2-.1-.7.2c0 .3.3.4.4.6l.1-.2h.2Zm-.3.1Zm1.1-1.5h-.2c-.1.1-.1.3 0 .4 0 .1.3.1.4 0 .1 0 .1-.3 0-.4h-.2Zm8.6-2.5.2-.6c0-.2-.3-.2-.5-.3l-.3.2-.3-.2-.2.4c.5.4.7.5 1 .5ZM33 7.4v-.3h-.4q0 .3.3.3Zm.5 21.3-.2.3c-.1 0-.3-.2-.4 0 0 .1 0 .2-.2.2-.2-.1-.4 0-.5.2 0 .1 0 .3.2.4 0 .2.3.1.4 0l.3-.4.1-.3q.2.3.5.3c.1-.3 0-.5-.2-.7Zm0-.8c0 .3.4.5.3.8l.5-.1-.3-.7c-.1-.2-.2-.2-.5 0Zm.8.7Zm-1.5-1.2c-.5-.2-.7.1-.5.7.3-.2.4-.4.5-.7Zm.4.3c-.3.2-.2.3-.1.6.2-.2.2-.4.1-.6Z"/><path d="M32.5 28.7v.2l.4.1c-.2 0-.1-.4-.4-.3Zm.4.3Zm-3.4-15.9h.2l-.1-.1v.1Zm8.2-2.1v-.3.3Zm.1-.3Zm-.7 7.7c.1-.1 0-.2-.1-.2 0 0-.1.2 0 .2h.1Zm8.1-1.9v-.2h-.1v.1l.1.1Zm-14.4-2.9.3.4h.4c-.2-.4-.2-.5-.7-.4Zm.3.4Zm19.1.1h.2V14h-.2v.1Zm.1-.7-.3-.1q.1.2.3 0ZM23 30.4l.2-.2-.2-.2-.3.1c0 .3 0 .3.3.3ZM2.8 13.6c.1.1.2 0 .3-.1h.1c0-.3-.2-.4-.3-.6h.3v-.4c.2-.1.5-.2.6-.4H4c.3 0 .3-.2.2-.5l-.3-.5h.4l.4.2.2-.5c.1.2.2.3.1.5v.3l.1.2.5.2q.1-.2.6-.3c0-.3 0-.6.2-1l-.3-.1v-.4c-.1-.1-.2-.2-.1-.4v.1c.2.2.3.3.5.3.1 0 .2-.2.1-.3l-.3-.1h-.1v-.3c0-.2-.2-.3-.3-.2-.2.1-.2.2-.1.5l-.3.2-.3.2-.3.3-.2-.1-.4-.4v-.4c-.2-.2-.3 0-.5-.1v-.1c.2-.2.2-.3 0-.5v-.1c0-.2 0-.2-.2-.2h-.4q-.1-.2-.4 0v.3c.2.2.2.4.2.6v.2c.1 0 .3-.2.5 0v.3h-.1c-.1 0-.2-.1-.4 0 0 0-.2.2 0 .3h.2l.2.1v-.3h.1L4 10l.2.2H4l-.2.1-.4.4h-.3l-.2.3c-.1.3-.3.3-.5.3S2 11.1 2 11c0-.3-.1-.5-.4-.6l-.3.2-.5.2c.1.3.2.5.6.5v.2l.4.2v.2l.2.2v1.1h-.5l.1.2v.3h-.4c-.2 0-.4.2-.3.4 0 .1.2.2.4.1h.3V14c.2 0 .2.1.1.3 0 .2.1.2.4.2l.2-.1-.2-.4c.2 0 .3-.2.4-.4l.3.1Zm0-1.2c-.3.1-.4 0-.7-.2l.2-.3-.2-.2.1-.2.4.4c0 .1-.1.3 0 .4 0 .1 0 0 .1 0H3l-.2.2ZM.5 20.9v.3s-.2.1-.2.4l.3.2c.2-.2.3-.2.5 0h.5l.1-.1v-.1l.3-.4V21c0-.3-.2-.5-.5-.6H1a.5.5 0 0 1-.5-.3l.1-.4.3.1h.3c0 .2 0 .4.3.4l.2-.1v.2c.1.2.2.2.4.3.2 0 .3.2.5.4l.1.3.3.3.3.1h.1c.2 0 .3 0 .4-.2l-.1-.2-.1-.1.2-.4c.2.1.2 0 .3-.1a.5.5 0 0 1-.3-.4l-.3-.3-.1-.1-.2-.2H3v-.1l.6-.6c-.1 0-.2 0-.3-.2h-.7c-.2.1-.3.2-.3.5v.2l-.5-.2v.1c-.3 0-.4 0-.6-.2v-.3l-.1-.4-.1-.2.1-.1c.2.3.4.3.6 0 .4-.2.7-.2.9-.5l.1.5.1.1.4.2h.4l.1-.2V18c.1-.2 0-.4-.2-.3H3v-.2c-.3.2-.5.2-.8 0H2l-.3.2h-.3l-.2-.3-.1-.1-.2.2c-.2.2-.3.3-.2.5v.2c0-.3-.2-.4-.5-.5 0 .2-.2.4 0 .6v.4c0 .2 0 .3-.2.4v.2l.2.5H0v.5l.5.2v.5ZM9.3 12c.1 0 0 .3.3.3l.1-.2c.1-.2.3-.2.5-.3 0 .1.3.1.3.3l-.2.2c0 .2-.3.3-.4.4h.4c.2-.2.2-.2.4 0h.2l.2.3c-.1.2-.2.2-.4.1h-.2l-.1.3v.4c.2.2.4.3.5.2l.2-.1.3-.3c.2-.2.2-.4 0-.6h-.1v-.2h.7l.1-.3v-.3l-.1-.3c-.1 0-.3 0-.4-.2h-.1l-.3-.2-.6.3c0-.2 0-.4-.3-.4l-.1-.1c0-.3-.2-.5-.4-.6v-.5c0-.2-.1-.4-.4-.6l.3-.2h.3c.1 0 .1 0 0-.1v-.1a.6.6 0 0 1-.2-.3v-.5l-1 .3.1.5h-.4v.1c-.1.1 0 .2 0 .2h.1c.2 0 .3 0 .3.2 0 .3-.3.2-.4.3v.1l.3.4c.1.2.4.3.6.2l.3-.1c0 .2 0 .2-.2.2s-.3.1-.4.3l-.2.2s-.1 0 0 .2H9c-.1.2-.2.3-.1.4.1.2.2 0 .3 0Zm1.7 8 .4-.4.3.1v.5l-.1.1.1.1.1.1c.1.1.3.2.5.1l.1-.2-.1-.2h-.1v-.5l.1-.2c.2-.2.2-.5.1-.8-.2-.2.1-.2.1-.4-.2 0-.3-.2-.4-.3a1 1 0 0 1-.4-.5l-.2-.2v.2c-.1-.3-.4-.3-.6-.4l.1-.1h.1c0-.3.1-.3.2-.4h.1c.2 0 .2-.2.1-.4 0-.1-.2-.2-.3 0H11l-.3.2h-.2l.1-.4-.5-.1c-.2 0-.4.1-.4.4l.4.2v.1l.1.2.2.4c-.2.4-.2.5 0 .6l.2.1-.1.3 1-.2v.3c0 .3 0 .5.4.6l-.4.2-.2.1-.1.3c-.2-.5-.7-.5-.9-.3-.2.2-.4.2-.6.2-.2 0-.3 0-.3.3l-.1.1-.2.2c.1.4.3.5.8.4V20c.1 0 .3 0 .3-.2h.1c.1.2.3.2.5.1Zm-.9-.3.2.1h-.2Zm-1.7-3.3V16c-.3-.1-.4-.3-.5-.4l-.5.1c.2 0 .4-.1.3-.4h-.5l-.4-.3-.2.2-.2-.3-.2.1-.2.1v.7h.5l-.1.4-.5-.1v.8l-.1.2c.1.3.3.3.6.3V17l.2-.4v.6l.3.2h.3v-.1h.1V17h.3v.2c0 .3 0 .4.3.5l.3-.2a2.6 2.6 0 0 0 .2-.2v-.9ZM0 27v.2-.1Zm4.3-6.3v.3c-.1.3 0 .5.3.4h.2c0 .2 0 .3.2.3h.6l.4.3.3-.1c.1-.2.2-.4.5-.3l.3-.6-.5-1c.3 0 .4-.2.3-.5l-.1-.1h-.3v.2l-.2.6c-.4.1-.9.2-.8.8H5c0-.2 0-.4-.2-.6h-.3c-.1 0-.2.1-.2.3ZM7 14.4h.2c.2.1.4 0 .5-.1v-.8c.2.1.3.3.6.3.2 0 .3-.2.4-.3l.1-.2-.1-.2-.3-.2-.1-.4c-.3 0-.5.3-.8.2v.7h-.2c-.3 0-.5-.1-.8 0v.2l-.2-.1v-.6s-.3-.2-.5-.1l-.2.3c0 .2 0 .3.2.4h.1v.3l-.1.1h-.2v.9l.3.2c.2 0 .3 0 .3-.2l.1-.3v-.1c-.2-.1-.3-.2-.2-.3h.3c.4 0 .5 0 .6.2v.1ZM.7 25.8l-.2.2c0 .4.1.6.3.8h.5c.3.3.3.3.6.1 0-.2 0-.3-.2-.4-.1-.2-.3 0-.4 0 0-.3 0-.6-.3-.9v-.1l.6.2s.2 0 .3-.2c0-.2.1-.3 0-.4h-.6l.3-.7h-.5l-.6.2V24H0v.8c.2.4.3.7.7 1ZM0 13.7v.5c.2-.2.2-.2 0-.5ZM.1 16l.2.1h.5v-.6a2.5 2.5 0 0 1 .3-.2l.5.2v-.4l.2-.4-.5-.1-.7-.2c-.1-.1-.3 0-.4 0H0v1.2l.2.4ZM17 14.8l-.1.3-.2.4-.3.3-.2.2v.2a6.2 6.2 0 0 1 .3.4l.5.1h.3l.3-.4.3.4.4-.3-.2-.3-.2-.2v-.3l-.2-.1v-.1l-.2-.1h-.2l-.4.1.4-.2V15c0-.1 0-.2-.1-.1H17v-.1ZM.3 23.2l-.1.5h.2v-.3H1l-.2.2c.1.2.3.3.5.3h.4c.2 0 .4 0 .5-.2l.1-.2-.3-.7-.2-.1c-.1 0-.2 0-.3.2v.1l-.2.1c0-.2.2-.4 0-.6H1c-.2 0-.4 0-.5.2l-.1.3-.1.2ZM6.9 6.3v.3L7 7v.2h.7c.5-.1.7-.3.6-.9 0-.2-.3-.3-.3-.5l-.2-.1h-.3a1 1 0 0 0-.7.4v.2Zm8.8 6.3c-.2 0-.3-.2-.5-.3H15v.3h.1l.1.2-.1.2c-.3.3-.3.5-.1.7v.3c0 .1 0 .2-.2.2-.1 0-.2 0-.3.2.2.2.4.4.7.2v-.4l.2.1.1.6c0 .2.1.2.3.1v-1l-.1-.5-.3-.5v-.1c.2 0 .3-.1.3-.3ZM9 25.1c0-.2 0-.4.2-.6h-.7l-.4-.1-.2.5v.2c.1.1 0 .2 0 .4l.4.1c.2.1.3.2.3.5l.4-.2c.2-.2.3-.3 0-.6v-.2ZM3.5 14.4v-.1.1zm1.5.8c.1-.1.1-.2 0-.4v-.7c0-.1 0-.2-.2-.2l-.6.1v.3h-.7c0 .4.3.4.6.4v.4c.3.2.5.2.8 0Zm-2 12c0-.1-.3-.3-.5-.2h-.3a25.7 25.7 0 0 0 .3.7l-.7.1h-.1c-.3 0-.4.1-.5.3v.2l.4.2h.6l.2-.1V28l.4-.4H3c.2-.2.2-.3 0-.5Zm1.5-10.6V16l-.5-.3h-.7v.5h-.4l-.2.5c.3 0 .5 0 .7.2l.4-.4.2-.1.5.3Zm18.8-5.5V11c0-.2.4-.3.2-.7q-.2.2-.2.5l-.1-.1c-.2 0-.3-.1-.3-.2V10l-.1-.2c-.2.2-.5.2-.7.3 0 .1 0 .3-.2.3v.1h.3c.2 0 .3.2.3.3l.1.3c0 .3.1.4.4.3l.3-.1v-.1Zm-10.7 4.6h-.3l-.1.4-.1.3v.1c.2.3.6.2.8.5.4-.1.6-.6.4-1.2h-.7Zm2 .1h.1c.4.3.6.2.7-.2 0-.3-.2-.5-.5-.5l-.2.1c-.1.5-.4.6-.9.4l-.1.1v.2c0 .3 0 .5.3.6h.3c.2-.2.2-.3.3-.7Z"/><path d="M10.6 9.2c.1 0 .3-.2.4 0v.4l-.5.2v.1l.2.1.2.4v.1h.3l.4-.4v-.2c-.1-.1-.3-.2-.3-.4h.1l.3-.2c.2 0 .2-.2.2-.4h-.2l-.3.1h-.3l-.2-.1c-.2.1-.3 0-.4 0-.2 0-.1.2 0 .3ZM0 21.1v.9-.1c.2-.2.1-.5 0-.8ZM12.6 7.9v-.2l-.2-.2A.6.6 0 0 0 12 7h-.6l-.2.3c0 .2.2.3.3.3h.3c.2.3.5.4.7.5h.4V8l-.2-.2Zm-2.8 5.2a.9.9 0 0 0-.4 0c-.3 0-.4 0-.3.3l.2.3h.3l-.2.2c-.2.3-.1.5.2 1l.3-.3V14h.1c.1-.1 0-.3-.1-.3h-.3l.4-.2v-.2l-.2-.1Zm-8.4 4.1c.1.1.3.3.5 0h.5v-.8l-.2-.2H2c-.1 0-.2 0-.3.2l-.2.2c-.1 0-.3 0-.4.2l.1.3h.2v.1ZM4.6 29v-.3c.2-.3.1-.6-.2-.7l-.7-.2v1c.2.3.6.4.9.3ZM7 26.6c.2-.1.3-.3.3-.5l.1-.2v-.2l-.3-.6c-.3.1-.6.4-.7.6 0 .3 0 .5.2.7v.1H7Zm8-4.3c.2-.1.3-.4.2-.6l-.1-.3c-.2-.1-.2-.3-.2-.5h.3l-.1-.2-.3.1-.1.1v.2c0 .2-.2.3-.3.4l-.1.2c-.1.2 0 .5.1.5h.1l.3.2h.2Zm-9.6 8.8h-1c.3.2.2.5.2.7l.2.2c.3.2.6.3.9 0v-.5l-.3-.3ZM.4 6h.3l.4.1c.3 0 .5-.3.3-.6v-.2C1.3 5 1.2 5 1 5l-.5.1v.2L.3 6ZM0 16.8Zm.7.2a.5.5 0 0 0-.6-.2H0v.8l.1-.1c.5 0 .6 0 .6-.6ZM6 23.4l-.5-.6v-.1h.1c-.1-.5-.2-.5-.5-.3-.1.1-.2 0-.4 0-.1-.1-.2 0-.3.2H5l.3.2v.4l-.2.3c0 .2.3.3.4.3H6v-.4Zm-1-5.1c.2 0 .4.2.6 0l.2-.5v-.3c0-.1-.1-.2-.2 0h-.1c-.2 0-.2-.4-.5-.2l-.2.3-.1.2c0 .3 0 .4.3.5Zm13.7-1.8v.2c-.1.2.1.1.2.3l-.2.2v.2h.1l.2.2.3.1c.1 0 .2 0 .3-.2l.1-.2V17l-.3-.3-.2-.2c-.2-.2-.3-.2-.5-.1Zm-.1-2.2h-.4l-.1.1.2.2h.1v.4l.2.4h.7v-.1l-.1-.5H19l-.2-.1v-.4h-.3Zm-10.2-4a.5.5 0 0 0-.7 0v.5l.2.6h.5l.1-.6v-.2l-.1-.3Zm-.8.1zm-.4 12.4s.1.2.2.1c0 0 .1-.1 0-.2v-.2c.1-.2.3-.5.2-.8h-.3c-.1-.2-.2-.1-.4 0l.2.1c0 .1 0 .2-.2.1-.3 0-.3 0-.4.3H7v.5h.2Zm5.8-1.3.2.2h.6v-.4l-.1-.4v-.1c.2-.2.2-.3 0-.4 0-.1 0-.2-.2-.1 0 0-.2 0-.2.2v.6h-.2l-.4.1.3.3Zm3 3.6c0 .2.1.3.3.3h.1c.2 0 .4 0 .4-.2v-.6l-.6-.3-.3.4v.4Zm-3.4-14.3v.1l.4.3h.2v.1c.1 0 .3.1.4 0v-.2h-.2v-.4c-.2 0-.3-.2-.3-.4s0-.2-.2-.3h-.2c-.2 0-.2 0-.3.3h.3c.1.1 0 .3-.1.5Zm5.3 6.2h-1l-.2-.1-.1.4v.3h.6c.3 0 .6-.2.7-.5Zm1.9-5 .2-.1v-.2c-.2-.1-.3 0-.4 0l-.4-.2-.3.3.2.7h.4l.3-.5ZM.4 9.7a8 8 0 0 1-.3-.2v-.8 1l.1.2.2-.2ZM8 23.8c0-.2 0-.4.2-.6l.2-.3v-.1h-.2v.1c-.2-.2-.2-.2-.5 0l.1.3c-.2 0-.2.1-.5.5.2.3.5 0 .7 0Zm9.4-11.4v.4h.1c0 .2.1.3.3.3h.4v-.4c0-.2 0-.3-.2-.4h-.6Zm-2.5-2.8-.2.1v.2h.2l.1.2v-.3h.2l-.1-.4v-.3l-.3-.2v-.3l-.1-.1-.2.1v.6l.4.4Zm-7.3.8Zm0 0v-.6l.4-.2a1 1 0 0 0-.3-.3l-.6.1.1.2v.2c-.1.1-.1.3 0 .4v.1c0 .2.2.1.4.1ZM19.3 16l-.1.3.1.2.2.1h.2c.2-.2.5-.3.6-.6h-.2l-.4-.2h-.2l-.2.2Z"/><path d="m4.2 23.9.1.2H5v-.7l-.2-.1-.6-.1H4l.2.2v.4Zm-1.3-10h-.2c-.1 0-.3.1-.3.3l.6.5c.2 0 .3-.2.5-.4l-.2-.3-.4-.1Zm.6.5v-.1.1zM14 5h-.2c-.3.2-.3.2-.3.5v.3h.7c.2-.2 0-.5-.1-.8Zm7.7 9.1v.4h.3v-.4c.4.2.6.1.6-.3l-.2-.2c-.1-.1-.3 0-.4 0v.1l-.3.4ZM17 11v.4l.4-.2.1-.1.1-.3h.3c0-.2 0-.3-.2-.3h-.3l-.3.2.1.2-.3.1Zm-7 5.7h-.4v-.4c-.2.1-.5-.2-.7 0v.2h.3l.2.1.1.4c0 .2.3 0 .4.1v.1h.3v-.3l-.3-.2Zm-7.7 8.2h.4c.1-.1.1-.2 0-.4l-.1-.4h-.3c-.2.1-.3.3-.3.5l.3.3Zm2.4 5c.3-.1.3-.2.3-.4s-.1-.3-.3-.3h-.4v.4c0 .2.1.3.4.3Zm.8-10.2-.3-.1-.2.1-.2.2c0 .1 0 .3.2.4l.6-.1v-.3l-.1-.2ZM1.3 31.8l-.2.5c.2.3.3.4.7.1l-.1-.7h-.4ZM12.6 8.9l-.6.3.1.2h-.2l.2.1.2.1c.2.1.4 0 .5-.2.1-.1 0-.2 0-.4l-.2-.1Zm-7.8 7.5.2.2.3.2c.3-.3.4-.4.2-.7h-.3l-.3-.1-.1.4Zm4.6 5.8c-.2 0-.4.2-.5.3 0 .4 0 .5.3.5.2 0 .3-.2.4-.4v-.2l-.2-.2Zm-.8-3H9l.2-.1.1-.1c.1 0 .2 0 .2-.2l-.4-.2h-.3l-.3.3v.3Zm9.1 1.5-.5.3v.4h.8c0-.5 0-.5-.3-.7Zm-3.8-8.3h.3l.2-.5-.5-.4c-.1.2-.3.3-.1.5v.5Zm-2.2 14.2v.3l.2.2c0 .3.2.3.6.3 0-.6-.4-.7-.8-.8ZM22.5 18l.3.2c.2-.1.2-.3.2-.4l-.1-.4-.2-.2c-.2.4-.3.6-.2.8Zm-4-11.2c-.1-.2-.4-.3-.6-.2v.1c-.1.3 0 .6.4.5l.4.1V7l-.2-.2ZM4.2 27.1l.1.5c.4 0 .5 0 .5-.2s0-.4-.2-.5l-.4.2ZM13 11.7c-.2.2-.2.3 0 .4l.1.4v.1c.1.1.2.1.4 0l-.2-.4v-.5h-.4ZM8.1 18v.1c-.4.3-.4.4 0 .6l.2.2c.1 0 .2 0 .3-.3l-.1-.2-.2-.2-.2-.1ZM4 19l.1.3.1.3c.5 0 .6 0 .7-.3l-.2-.2c-.2-.2-.4-.1-.6 0Zm1.3 6.8.2-.5h-.1l-.4-.1-.1.2-.1.3c.2.2.2.3.5 0Zm-5-14.4A1 1 0 0 0 0 11v.7h.2v-.4Zm13.4-.8-.1.1c0 .3.1.5.3.5 0 0 .3 0 .3-.2v-.4H14c-.1-.1-.3 0-.4 0ZM0 16.8zm0-.1.3-.2-.3-.2v.5-.1Zm18.2-5 .2.7c.2 0 .3 0 .5-.2l-.2-.4-.5-.1Zm-3.2-.3c-.1-.1 0-.1.1-.2L15 11h-.6v.4c.1.2.2.3.5.1Zm0 0zm-5.8 5.5c-.3-.1-.4-.1-.4.2v.1c-.1 0-.1.1 0 .1v.4h.1c.2 0 0-.2 0-.3.3-.1.3-.3.3-.5ZM18 6.3c0-.2 0-.3-.4-.3l-.3.4c.2.3.3.2.5.1h.3v-.2Zm7.2 5.3.1-.5v-.2c-.2.3-.5.2-.7.4l.2.3h.4Zm-4.5 4c0 .6.2.7.6.5 0-.2-.1-.3-.2-.3l-.4-.2ZM9 21.2c-.2.1-.3.2-.2.5.3 0 .5 0 .6-.3-.1-.3-.2-.3-.4-.2Zm-9-7.9Zm10 5.2c.2 0 .3-.2.3-.5-.3-.2-.4.2-.6.3 0 .2 0 .2.3.2Zm4.4 6.5s-.1-.2-.3-.2c-.2 0-.3.2-.3.4l.3.2c.2 0 .4-.2.3-.3ZM8.5 8.3l.3-.2c-.4-.4-.5-.4-.8-.1.2.2.3.3.5.3Zm8.7.7c0 .2-.2.4-.3.5.3.3.4.1.6 0h.1v-.3c-.2 0-.3-.1-.4-.3Zm-4.6-2.5v.2l.5.2v-.3c0-.1 0-.2-.2-.3h-.2v.2Zm-.7 8.5h-.2v.5c.3 0 .4-.2.5-.3V15H12Zm12.9-5.7h-.5c-.2.1-.2.3-.1.5.3 0 .4-.3.6-.5ZM13 7.5l.3.2.1-.3V7H13s-.2 0-.2.2c0 .1 0 .2.2.3Zm.2-1.4c.2-.5.2-.5-.2-.6-.3.3-.3.4.2.6ZM6.9 26.9l-.2.3q.3.3.5.3c0-.3 0-.6-.3-.7Zm.1-8.8zm-.3-.5h-.1v.4c0 .2 0 .2.2.2H7c0-.4 0-.5-.3-.6Zm.8 1.7c.3 0 .5 0 .6-.4h-.5c-.2.1-.2.1 0 .4ZM7 18.1zm.4.5.2-.1V18H7v.1c.1.3.2.4.4.4Zm-3.8 4.5H3l.3.5.4-.3V23Zm22.6-9.3c-.2 0-.2.2-.2.4.2.2.3.2.4 0 .1 0 .1-.1 0-.2l-.2-.2Zm-20 10.7.2-.1.2-.3-.2-.1-.3.1-.1.2c0 .1.1.2.2.1Zm-4.4-15H2L1.9 9h-.3v.3c0 .1 0 .2.2.2Zm-.4 20.1c.3.3.3.3.6-.2-.2-.3-.4-.2-.6.2ZM15.8 19c0-.2 0-.4-.3-.5-.1.5-.1.5 0 .8l.3-.3Zm-1.5-.5q-.2.1 0 .3l.4-.2v-.4l-.3.1v.1h-.1Zm6.7-.8c0-.1.2-.2 0-.4-.1 0-.4-.2-.5.2h.1l.3.2Zm-5.6 5.8c0 .4.1.5.4.6v-.6h-.4Zm-2.7-1.2c.1 0 .2-.1.2-.3l-.2-.2c-.2 0-.3.2-.3.3v.1l.3.1ZM2 15.2l-.2.4.2.2c.2 0 .3-.2.3-.4l-.3-.2Zm6.7 4.4h-.4c-.1 0-.2 0-.2.2l.2.1c.2 0 .4 0 .3-.3Zm8.7-11.9c-.2 0-.3 0-.3.2l.2.3.3-.1-.1-.2-.1-.2Zm2 1.3v.4l.4.2v-.2c0-.2-.1-.3-.4-.3ZM3.3 15.3s.1 0 0-.1V15l-.5.1c.1.3.2.3.5.2Zm13.1-7.7-.1.2-.1.4v.4l.2-.2v-.8Zm0 0Zm-1.6 9.2-.1-.1h-.2c-.1 0-.2 0-.2.2l.2.2c.2 0 .3-.2.3-.3Zm3.7-5.5.1-.4-.1-.3-.1.1v.3l.1.3Zm-7.3 11.4v.4c.3-.1.4-.2.3-.3v-.1h-.3ZM0 32.8v.1-.2ZM21.6 15l-.3-.1H21l-.1.1.1.2.1.1c.2 0 .4 0 .4-.3Zm-4.8 3.6.2-.2-.1-.3c-.2 0-.3 0-.3.3l.2.2Zm4.4-9.3h.2V9l-.3-.2-.3.2c0 .2.2.2.4.2Zm-20 18.2-.3-.2s-.2.2-.1.3l.2.2c.2 0 .3-.2.2-.3ZM23.3 15c0 .2.2.3.3.3.1 0 .2-.1.2-.3l-.2-.1c-.2 0-.3 0-.3.2Zm-7 2.8-.3-.2-.2.2.1.2h.3v-.2ZM3.5 13v.2c.1 0 .2 0 .2-.2.1-.2 0-.3-.2-.3v.2c-.1 0 0 .1 0 .2ZM17 13c0-.2.2-.3 0-.5-.2.2-.3.3-.3.6l.3-.1Zm-1.4-2.6c-.2.3-.2.3 0 .6l.2-.3s0-.2-.2-.3ZM.3 30.2v-.4L0 30v.4h.3ZM21 12.4q0 .4.3.3c0-.3 0-.4-.4-.3Zm1.3 2.9c0-.1 0-.2-.2-.3v.1c-.1.2 0 .3 0 .4h.1l.1-.2Zm-6.9 5-.1.2h.1c.3.1.4 0 .3-.3h-.3Zm6.2-6.6c.1 0 0-.1 0-.2s-.1-.1-.2 0l-.2.2c0 .2.1.2.2.2l.2-.1Zm-16.7-.9.1-.2c0-.2-.1-.3-.3-.2v.1c0 .2 0 .3.2.3Zm20.1-.4v-.2h-.4v.4h.1l.3-.2Zm-4.8.1q.1.3.4.4v-.4h-.4Zm-19-.9H1v.1l.4.2c.2-.2.1-.3 0-.3Zm19.4-1h-.2v.3l.1.1h.2v-.3l-.1-.1Zm-8.4.6v-.5h-.3c0 .3.2.4.3.5Zm-.9-3.4h-.4c0 .2.1.2.2.3h.3l-.1-.3ZM23.5 7l.2.5c.2-.4.1-.5-.2-.5ZM3.7 25.8v.2c.2 0 .3-.2.3-.3v-.2l-.3.3Zm8-14.5c0 .1.2.1.2 0 0-.2 0-.2-.2-.3l-.2.1c0 .1 0 .2.2.3Zm-1.6-.7h.3v-.2l-.2-.1H10v.3Zm7.6-.6c0 .2.1.3.2.3l.1-.2c0-.1 0-.2-.2-.2l-.1.2Zm-1.2-1.2V9h.3c0-.2-.1-.3-.3-.2Zm-4.5-3v-.3h-.4c.1.3.1.3.3.3ZM.2 22.7l-.1-.3H0v.4h.2Zm19.1-9.4v-.2l.2-.2-.4.1-.1.2.3.1ZM13.9 8l-.1.1c0 .1.1.2.3.2V8c0-.1-.1-.2-.2-.1Zm12.6 2.6v.1c0 .2 0 .3.2.3l.2-.1-.4-.3Zm-.9 2.4c-.3 0-.3 0-.4.2l.3.1.1-.2ZM11 14.2q-.2 0-.3.3c.3 0 .3 0 .3-.3ZM.3 29.3c0 .1-.2.2 0 .5l.2-.3c0-.1 0-.2-.2-.2ZM22.7 8c-.1.2-.1.2.1.4q.1-.3-.1-.5ZM7.5 12.6q0-.2-.3-.3v.3h.2Zm5.4-.4-.2-.1-.1.2.2.1.1-.2ZM3.2 8l-.3-.1-.1.2H3V8Zm22.9.2V8c-.2 0-.2 0-.3.2h.3ZM14.2 9.8l.1-.2-.1-.1H14v.2l.1.1ZM2.8 28.6c0 .2.1 0 .2 0h.2l-.3-.3-.1.3Zm14.6-14.9v.2h.3v-.2h-.4Zm4.8-1.3v.3h.2s.1 0 0 0v-.3h-.2Zm-.7-.6h-.3l.1.1a8 8 0 0 1 .3.2l-.1-.3ZM4.4 13.7h.2c.1-.2 0-.3 0-.4l-.2.4ZM17 8.3V8h-.2l-.2.2h.5Zm-.6-.7h.1-.1zm-.1-.1.1.1h.3q-.2-.3-.4-.1Zm-6.2.3h-.2l.1.4c.2-.2.2-.3.1-.4Zm12.4 6.6h.3v-.2c-.2 0-.3 0-.3.2ZM4.4 25.7h-.2l.1.2h.2v-.2ZM24 12.6c0 .2 0 .2.2.3q0-.3-.2-.3ZM10.4 23.3l-.1-.2H10v.2h.2Zm7.1-18q-.1.3 0 .4c.1-.2.2-.3 0-.4Zm-5.7 17-.2.1.1.1c.2 0 .2-.1.1-.3Zm3.6-13.1.2-.2-.1-.1c-.2 0-.2 0-.2.2l.1.1Zm2.6-.3q.1-.3-.1-.4l.1.4ZM8.2 26.7q0 .2.2.3 0-.2-.2-.3Zm11.6-11.4h.1c.2 0 .1-.2 0-.3v.3ZM13.7 7q-.1-.2-.4-.1l.4.2Zm9.1 6.7h.1v-.4c-.2.2-.2.3 0 .4Zm-19.2-.2v.3c.1-.1.2-.2.1-.3h-.1ZM22 10.8l-.3-.3q0 .2.2.3Zm4.2-2.1V9l.2-.1v-.1h-.1ZM12.8 9.8v.1l.4-.1c-.2 0-.3-.2-.4 0ZM25 15.2h.1L25 15l-.1.1.2.1ZM11.7 10l.1.2h.2c0-.2 0-.3-.3-.3Zm7-1v.1c.2-.1.1-.2 0-.3l-.1.1v.2Zm-.3-4.3V5c.2-.1.1-.2 0-.3Zm-2.8 12.6-.2.2.1.2c.1-.1.2-.2 0-.4Zm3.5-6.8h.2v-.1c0-.1-.2-.1-.2 0Zm-4.9 8.9v-.3c-.1.1-.2.2 0 .3Zm7.8-8-.2.2h.4l-.3-.2Zm-6.8.3v-.1l-.2-.2c0 .1 0 .3.2.3Zm-.2-.3Zm8.2 1q.3 0 .2-.2c-.2 0-.2.1-.2.2Zm-4.4-5.9v-.3.3ZM8.2 15.4v-.3c-.3.2-.2.2 0 .3ZM.1 23.7l-.1-.1v.2l.1-.1ZM24.5 13q.2 0 .2-.3c-.1 0-.2.1-.2.3ZM11.8 8.3v-.1l-.2-.1c0 .2 0 .2.2.2Zm-7.2 8.9h.1l.1-.1-.2-.2v.3Zm1.3-9.3a3 3 0 0 1-.3 0q.2.2.3 0ZM13.2 9v-.2l-.1-.1V9Zm-6.6 3.5H7l-.2-.1s-.1 0 0 .1Zm13.1-4.4h-.2q.1.2.3 0ZM18 7.5c-.2.1-.2.2 0 .4v-.4ZM3.2 22.3l-.1-.1-.2.1.2.1v-.1ZM24.8 9.8l.3.1s-.1-.2-.3-.1ZM.5 11.7c.1-.1.2-.1.2-.3-.1 0-.3 0-.2.3Zm16.7 7.8c.1 0 .2 0 .2-.2h-.1l-.1.1v.1Zm-5.8-5.7-.1.2v.1l.1-.3Zm11.9.2c0 .2 0 .3.2.2 0 0 0-.2-.2-.2Zm-10.5 8.6.1.2v-.2h-.2ZM17 6.3v-.1h-.1v.1ZM4 17.2v-.1l-.1.2h.2Zm9.7.3-.2.1.2-.1Zm2.2-2v-.2c-.1 0-.1.1 0 .2Zm-4.8-9-.1-.1v.2l.1-.1ZM23 14.8c.1 0 .2-.1 0-.3v.3ZM7 12l.1.1h.1l-.1-.2-.1.1Z"/><path d="m17 8.7-.1.1V9h.3l-.3-.2Zm-.2.3ZM15 8.4c0 .1.1.2.3.2q-.1-.2-.3-.2ZM7.5 20c0-.2-.1-.2-.3-.2l.3.2ZM18.7 7h.3-.1l-.2-.2V7Zm.8 6.4v.1h.3l-.3-.1ZM5.9 19.6h-.2c0 .1.1.1.2 0Zm17.5-6.9.2.2c0-.2 0-.2-.2-.2ZM4 19.7l.2.2c0-.2 0-.2-.2-.2ZM19.9 7.3h-.1l.1.2v-.2Zm-6.2 2.4v-.2h-.2l.2.2Zm-8.3 9.2h.2-.2Zm1.2-4.5v-.1c-.1 0-.2 0 0 .1Zm11.2-8.8.2.2c0-.1 0-.2-.2-.2ZM9.4 17.7c0 .2 0 .2.3.2l-.3-.2Zm16.2-6.9v-.2l-.1.1v.1Zm-9.6.1v-.2h-.2l.2.2Zm-.2-.1v-.1.1zm-1.2 5.5s.1.1.2 0c0-.1-.1 0-.2 0ZM8.4 7.2l-.1.1c.2.1.2 0 .1 0ZM3.3 24l.1-.2-.1.2ZM17.5 6.7c0 .1 0 .2.2.1l-.2-.1ZM16 23.3h-.1v.1h.1Zm-10.1-5h-.1v.1H6v-.1Zm-4.6 9 .2-.1h-.2v.1Zm21.2-13.9h.1v-.1h-.1Zm.6-.4.1.1v-.2ZM4.9 11.7h-.1v.1-.2Zm15.3 3.1v.1-.1Zm5.3-6.3h-.1v.1h.1ZM13.9 14v.2c.1 0 .1-.1 0-.2Zm-1.2 4v-.2h-.1v.2Zm-1.3-9.8v.1h.1Zm8.2 2h-.2.2Zm-3.2 1.9V12v.1Zm-1.2-5.8-.1-.1v.1h.1Zm-5 15.7h.1Zm1.7-10.4v.1h.1v-.2l-.1.1Zm.4 0h.1Z"/></g><path fill="#fff" d="m41.9 41.6-.1.5c-1 6.2-6.1 9-6.1 9s-3.7-3.3-3.4-8.5c-13 .5-21.8-4.2-21.8-4.2s8.4 14 21.4 13.5c16-.7 19-13.1 19-13.1s-1 1.6-9 2.8Z"/></svg>