<svg xmlns="http://www.w3.org/2000/svg" viewBox="0 0 57.6 57.6"><path fill="#fff" d="M14.1 41.2c-5.8 1.1-9 1-9 1s3.7 3.5 9.5 6c-.6-1.3-1-2.8-1-4.6l.5-2.4Zm7.7-2c.8 1.7 1.3 3.7.9 6a11 11 0 0 1-2.3 4.6c3.4.6 7 .6 11-.6C42.8 45.7 38 32 38 32s-8.4 4.6-16.3 7.3Z"/><g fill="#0c2b77"><path d="M54.8 4v-.6h.3l-.4-.6h-.2c0 .2 0 .4-.2.5.1.3-.1.6-.1.8l.3-.1.1.5.5.1.1-.2c.2-.2.4-.2.5 0l-.4-.7c-.1.2-.2.4-.5.2Zm2.8-.3-.2-.5v-.4q-.2.4-.6.6c-.4.2-.5.2-.8-.3V3q.1-.3-.1-.6l-.1.3V3l-.1.2v.3h.4c0 .4.3.4.4.6h.5v.2c.1-.2.2-.2.5-.2v.2h.1v-.5ZM53.3 1l.2.1-.1-.3V1ZM57 5.2l.4-.1v-.6h-.3v-.1l-.2.1-.3.2-.4-.2h-.5l.5.6h.1c.3.2.5.2.8 0Z"/><path d="M55.4 3.5h-.3l.2.2.1-.2Zm.5 2c.2.2.3 0 .5 0l-.2-.4c-.2 0-.3.1-.3.4ZM53.5.1V0h-.7l.6.8c.2-.2.2-.4.1-.7Zm3 5.7v.8c-.3 0-.7.1-1 .5l.4.3h.5c.1-.1.3-.1.4 0 0 .2-.2.3-.3.4l-.2-.2a1 1 0 0 1-.7.5h-.2c-.4-.1-.5 0-.6.4V9c0 .1 0 .3.2.4l.3.2.3-.1h.6l.3-.1.5-.5.1.3.2.1-.2.3.2.3.3-.1V8.3l-.4.1c-.2.1-.3.2-.2.4l-.2-.2.4-.4c0-.2.3-.3 0-.6l.4-.1-1.1-1.8v.1Zm-.1-.3.1.2v-.2h-.1ZM54.5.3V0h-.2c0 .1 0 .2.2.3Zm.7.5-.6.2V.4l-.3.3-.4.2c-.1 0-.3 0-.4.2l.8 1.1h.2v.4l.1.2.5-.2.3-.7-.2-.1c0-.3 0-.7.4-.8l.2.2.1-.1-.1-.3.3-.2.2.2c-.2.2 0 .4 0 .5l.2.4c0 .2 0 .4-.3.4h-.3v.2c.2 0 .4-.2.5 0h.6l-.3-.3c.2 0 0-.4.3-.4h.6v-.3c-.4-.2-.4-.2-.2-.6l.2.3V0l-.1.2c-.2.2-.5.2-.7.2l-.7-.1V.2l-.2-.2-.2.8h-.5ZM54.5 2l-.2-.3v-.2h.3l-.1.5Zm2.7 18c0 .2-.3.1-.4.2v.7l.2.4.6.2v-1.8c-.2 0-.4 0-.4.3Zm.3 2.2v.1c-.2.4-.1.7.1.8v-1.6l-.2.3.1.4Zm-.1-4.8c-.2-.1-.4-.2-.6 0 0 .4 0 .4.5.6v.6l-.3.5c0 .4.1.5.6.4V18c-.1-.2 0-.4-.2-.5ZM56.9 42h-.1c0 .3 0 .4-.3.5-.2.3-.6.5-.6 1 0 .2 0 .4.3.5.1 0 .3.1.3.4l.2.2c.3 0 .7.1 1-.2v-2.1H57l-.2-.3ZM55 37.4l.2.2c.2.2.4.2.5 0 0-.3.2-.4.4-.6.4-.4.3-1-.2-1.3h-.5l-.5-.2-.3.1-.4.5c-.1.3-.3.6 0 1 .2 0 .4.3.7.3ZM56.2 21H56c-.1-.1-.3-.2-.4-.1-.2 0-.4.1-.5.4l-.2.3c-.1.1 0 .3 0 .4l.2.1c0 .3.3.4.6.6.2.1.3.1.4-.1.2-.3.2-.3.5 0V22c.2-.2.3-.4.1-.7 0-.2-.2-.4-.5-.3Zm-1.3 20.8.4-.1-.2-.3c-.2 0-.3-.1-.5-.3-.2-.3-.5-.2-.6.1l-.2.1c-.2 0-.3.2-.3.3-.1.3 0 .6 0 .8l.3.2c.3.2.6 0 .8.4.3-.2 0-.4.2-.6v-.6Zm2.3-18.2h-.1v.2h-.4c-.2.4-.2.4 0 .6l.1.3h-.3c0 .4 0 .5.3.5.1 0 .2 0 .2-.2.1.1.3.1.4 0h.2v-1.4h-.4Zm-2.5-8.9-.4-.1-.1-.5-.3.2c0 .2-.2.3-.4.4v.2l-.4.2c0 .4.3.9.6 1h.4l.7-.1.2-.2c.2-.3.1-.7.5-.8l-.1-.2c.3-.4.3-.5.1-.7h-.7c-.1.1-.2.3 0 .6Zm2.8 36.5c-.4.4-.4.5-.1 1l.3.3v-1.2h-.2Zm-.9-2.5c.4.2.7.2 1 0V48c-.7 0-.8.1-1 .8Zm-4.3-25.4c.1.1.3.2.2.5h.2c.1-.2.2-.4.4-.4l.7.2c.1-.4.1-.4.5-.4V23h.5c-.3-.4-.4-1-1-1-.1.4-.2.7.1.9-.3 0-.4.3-.7.3V23c-.2-.2-.4-.3-.7-.2-.2 0-.4.4-.2.6Zm1.3 21c.2 0 .3-.1.4-.3v-.5l-.2-.5c-.1-.2-.3-.3-.5-.2H53c-.2.4-.1.8.2 1v.3l.4.2Zm2 3.3c.2.1.2.3.5.3l.2-.1-.1-.4c-.2 0-.3 0-.4-.2h-.3l-.5.2c-.2 0-.3.2-.3.5 0 .2.2.3.4.3.3 0 .4-.1.5-.4v-.2Zm-1.3 8.2v-.3l-.4-.1h-.2c-.1.3.1.7-.2 1 .1.2.3.2.5.3l.4-.2c.1-.2.1-.3 0-.4v-.3ZM56 38.2l-.2-.1c-.3.1-.3.5-.3.7l.1.4.4.5.3-.6v-.5c0-.2 0-.3-.3-.4Zm0 1.5Zm-6.5 8.4c-.2.1-.3.6-.2.8.1.2.5.3.7.2l.1-.2.2-.2.1-.3-.4-.4-.5.1Zm4.6 3.6.1.7c.2.1.4.1.8-.1v-.7c-.4-.2-.7-.1-.9.1Zm1.3-6.3v.5l.7.1c.2.3.4.5.8.3.1 0 .2-.2 0-.4l-.1.1c-.2-.3-.4-.4-.7-.3-.2-.2-.4-.4-.7-.3ZM52.8 15c-.1-.2-.3-.2-.6-.1-.1 0-.2 0-.2.2h-.2v.6-.2h.2c0 .2.2.4.5.3l.5-.2-.2-.6Zm-1.5 30-.6-.2c-.4.1-.4.2-.2.8.3-.2.5 0 .8 0 .2-.2 0-.3 0-.5Zm4-5.3v.5l.3.2c.4.1.5 0 .7-.4l-.3-.3h-.7Zm-2 6.8.3-.2.1-.1c.5 0 .4-.4.4-.7h-.7c-.2.3-.3.6 0 1Zm4.2-9.5.1.5V37l-.1.2Zm-1.4 13c.2 0 .3-.2.2-.4l-.1-.3-.5.1c-.2.1-.3.3-.2.6.1.1.5.2.6 0ZM55 23.5a.5.5 0 0 1-.3-.3l-.1.1c-.3.5-.3.5.2.9l.3-.2.2-.1c0-.2-.2-.3-.3-.4Zm-.7-11.7.3-.4c-.3-.4-.6-.2-1 0l.7.4Zm-.5 7.3c.4-.4.4-.6 0-.7-.5.5-.5.6 0 .7Zm2.6 4.9c0-.4-.2-.5-.4-.6l-.2.2h-.2c.1.5.2.5.8.4ZM56 53.4h.3l.1-.5-.3-.2c-.3.2-.3.4-.2.7Zm1.6-28.1Zm-.4 20.6.4.2v-.5s-.1-.1-.2 0c-.1 0-.2.1-.2.3Zm-6.5-23.6h-.3v.3l.5.4c0-.2.1-.3 0-.4 0-.1 0-.3-.2-.3Zm6-3.6-.4-.2-.2.3c0 .1.2.3.4.3l.2-.4Zm-6 23.5v.3c.4.2.5.1.6-.2-.2-.2-.4-.2-.6-.1Zm2.8-21.4.1.4.4-.2v-.3l-.5.1Zm1.8 4.6.4.5v-1c-.4 0-.2.5-.4.6Zm.7 26.7V52c-.3 0-.4 0-.4.2v.2h.3l.1-.1Zm-1.3-31.8c-.1-.2-.3-.2-.4 0l-.2.4c.4 0 .4-.3.6-.4Zm-.3 23.3q.3.2.4-.3-.2 0-.4.3Zm1.6 3v.1c0 .2 0 .3.2.5l.2-.2c0-.2-.2-.3-.3-.4H56Zm-1.9-30 .1.3.1.2.3-.3-.4-.2Zm2.7-2.8v.3h.3v-.3h-.3Zm-3 12.7v.3l.1.1.2-.2-.3-.2ZM57.3 51v-.3s-.1-.1-.2 0H57v.2h.3Zm-2.8-19.7.4.3c0-.4 0-.4-.4-.3Zm1.8-5.5h.4l-.3-.1h-.1Zm1.1 30.1h.2v-.3c-.2 0-.3.1-.2.3Zm-5.9-3.7h-.1c-.1.2 0 .3.2.3v-.3Zm5.9 2.2h.2v-.2l-.2.2Zm.2-21.6v-.5.5Zm0-1.4Zm-.1-2.3c-.2.2 0 .4 0 .6h.2V29l-.2.1Zm-.5 2.2c-.3.1-.5 0-.7-.1h-.1c-.3.3-.4.5-.1.9.1.2.2.4.5.5 0-.2.2-.3.4-.3l.5-.1c0-.4-.2-.6-.4-.9h-.2Zm-.1-3.4h-1.1l-.3-.1.2.2c-.2.1-.3.3-.4.6.5.3 1 .3 1.4-.2l.1-.2h.2l.3.1c.2 0 .3-.1.3-.3l-.4-.4H57l-.1.2v-.1l-.1-.1v.3ZM53.2 36l-.1-.2v-.3l-.5-.2h-.2c-.1.4.1.8-.2 1 .1.2.3.3.6.3.1 0 .3 0 .4-.2V36Zm-5-8c-.1.2-.2.6-.1.8 0 .2.4.4.6.3l.2-.2.1-.3.1-.3-.3-.3-.6.1Zm5.6 4.2v-.6c-.5-.2-.7-.1-1 0 0 .2 0 .6.2.7.1.2.4.2.8 0Zm.5-2.2h.6c.2 0 .2-.2.1-.5l-.1-.2-.4.1c-.3 0-.4.3-.2.5Zm.7 3.4.2-.5-.4-.3c-.2.3-.2.5-.1.7 0 .2.2.2.4.1Zm2.2-2.9-.1-.2c-.2-.1-.3 0-.4.1l.3.3s.2 0 .2-.2ZM54.4 32v.3h.2l.2-.2-.1-.3c-.3 0-.3.1-.3.2Zm.8-2v.4c.1.3.3.5.7.5h.2v-.2c0-.5 0-.6-1-.7Zm1.1 5.5c-.2 0-.3.2-.1.3h.2c.1-.1 0-.2-.1-.3ZM50 32.2c0 .2.1.2.3.3 0-.2.1-.3 0-.4l-.2.1Zm6.3 1.9-.1.2.1.2.2-.2-.2-.2Zm-1.9 10.5c0-.1-.1-.2-.3-.1 0 .2.2.2.3.1Zm-.9-5.1h.3-.3Zm-.3 8.3h.2-.2Zm.3-22.2-.3.1.3-.1Zm1.5-1.2h.2l.2-.1H55v.1Zm-4.7 1.7v.2h.1l-.1-.2ZM53 22l-.3-.1.2.2V22Zm3.6-3.7h.1V18l-.1.3ZM55 25.5l-.1-.1v.2h.2ZM31.4 1l.5.1v.7c0 .2 0 .2.4.2h.2c.4.2.4.2.8 0l.1.4c-.5 0-.8.1-1.1.5h.1c0 .2-.2.4-.3.5h-.5v.5h.6v-.3l.7.3h-.4l-.2.2c0 .2 0 .3.2.3h.2l.4.1c.2.1.2.1.5-.1l-.3-.4.5-.5c0-.2.3-.3.4-.4.1-.3-.1-.3-.2-.4l.4-.3.4-.4c0-.1.1-.3.3-.2.3 0 .3 0 .4-.3l.1-.1h.5c.2-.3.2-.3-.2-.6h.4l.5-.1c.1-.2.2-.3 0-.5V0h-1.4v.1l.3.6-.3.2-.3.3v.4h-.4l-.2.1V.2c.2 0 .3 0 .4-.2h-2v.1c.2.3.4.3.7.3l.4-.1q-.5.4-.6.7c-.3-.2-.7-.2-1-.5l.4-.5h-1.3l.1.1-.2 1Zm.9 1.9ZM27 .6l-.1-.1-.6.3-.1-.2c0-.3-.2-.4-.5-.5-.4-.1-.7 0-1 .3l-.3.3 1 .5v.2h-.3l-.2.4-.1.2-.3.5c0 .2 0 .4-.3.5.2.2.3.3.5 0l.4.4-.2.5c.2.2.4.3.6.2L26 4l.2-.6v-.5l.6-.7c.2 0 .3-.2.3-.4v-.3l.3.1c.3-.1.2-.4.2-.6.2 0 .3 0 .4-.2l.3-.2c.4 0 .4.3.3.5 0 .2-.3.5-.5.5s-.3 0-.5.2a1 1 0 0 0-.4 1l.1.1c.2.1.3.3.3.5l.3.2c.2 0 .5 0 .7-.3.1-.1.3-.2.6 0l.3-.4c0-.3-.3-.3-.5-.4 0-.3 0-.7-.2-1 .4-.2.8-.4.7-.9L30 0h-.6v.2l-.4.1V0h-1.4v.2l-.6.4Zm15.3 2.1.2.3c.1 0 .2 0 .3-.2l.3.4c0-.2.2-.4.5-.4h.2V3a1 1 0 0 1-.8.8V4l.2-.2c.2.2.4.2.4.5l.2.2c0 .3-.3 0-.5.2l.4.6-.5.8h.5l-.3.6c.2.2.5 0 .6 0 .1.2 0 .3 0 .4a1 1 0 0 0-.3.7h.2v.4c.4-.2.5-.4.6-.8h1.1c.2-.1.3-.2.3-.5v-.2c.2-.3 0-.5 0-.7a1 1 0 0 0-.6-.5h-.2l.1-.6c.2.3.4.4.6.5l.1.1.4-.2c.3-.2.5-.4.6-.7v-.4l-.4-.7-.7.5-.6.6c-.2-.3-.4-.4-.4-.7-.3-.3 0-.5 0-.8.4 0 .5 0 .6-.5-.3 0-.4.2-.5.3H44l-.3-.5.2-.6c-.3-.2-.6-.1-.9 0-.1 0-.2-.2-.4 0l-.3-.1H42a1 1 0 0 0-.5.6c0 .2 0 .4.2.5.2.1.3 0 .5-.1ZM47.5.3h.4l.7.3v.3l.7-.2v.6l.3.3V2l.5.1h.9l.3.3h-.4l.5 1h.3l.3-.6v-.3l-.3-.5c.4.1.6 0 .8-.2 0-.3-.5-.2-.5-.6q-.5 0-.8-.3c.1-.4 0-.6-.1-.8h-1v.1h-.5V0h-2.4c0 .3.2.4.3.3ZM51 1c-.2.3-.2.3-.4 0h.4ZM13.6.3c.2 0 .4 0 .5.3h.3c-.1.4-.5.5-.6.8l-.1-.2-.2.4c0 .3-.1.5-.3.8-.2.1-.2.4-.5.4 0 .4.5.2.5.6H13c0 .4.1.7.4 1l.1.1.3.6c-.2.1-.3.2-.2.4 0 0 .1.2.3.2.3 0 .5 0 .6-.4l.2-.2-.4-.1c.3-.2.2-.4 0-.7l.4-.2c.2.2.4.3.7.3.2 0 .5 0 .6-.3h.1c.1.2.3 0 .5 0v.5c.7 0 1-.2 1-.8l-.3-.1-.2-.2c0-.3-.3-.3-.5-.2a1 1 0 0 1-.8 0c-.4-.2-1 0-1 .6l-.6-.4h-.6v-.1c.4-.3.5-.5.4-.9l-.2-.4 1.4-.1-.2-.3q.4-.5 0-1V0h-1.7c0 .2.1.3.3.3Zm2.6 3.5h.2L16 4l.1-.2ZM48.9 6c-.2 0-.3.1-.3.3 0 .2 0 .3.2.4.2.1.5 0 .9-.2l.6.4h-.6l-.2.1c-.3.3-.5.6-.3 1l.4.2-.1.5c.1.2.3.4.7.2v-.7h.1l.1.1c.2.3.4.5.7.4l.1.4c0 .3.2.4.3.4l.7.1.2.6c0 .3.5.4.7.3l.1-.1.5-.5L53 9v-.4l-.5-.3v-.5c-.3-.1-.4-.3-.3-.6l-.4-.2c-.1-.1 0-.4-.2-.4-.3.3-.4.8-1 .8l.1-.7.3-.4c.1-.2.2-.4 0-.5l-.1-.2c-.3 0-.3-.3-.4-.5-.2 0-.3.1-.3.2 0 0-.2.2-.3.1l-.4.6H49ZM18.4.4c.3 0 .3-.2.3-.4h-1.1v.2l.8.2Zm32.4 5.1Z"/><path d="M52 5.6c-.3.2-.3.3-.1.5l.3.2.2-.3.4.4-.2.2.5.4c.4.2.6 0 1-.3l.2.3.4-.2c.5 0 .6-.1.7-.5V6l.3-.2c-.2-.2-.4-.3-.4-.6l-.2.3-.4.1v-.2l-.2-.1v.3l-.6.2.3-.7h.3l-.2-.5h-.7c-.5-.3-.7-.3-1.1.1-.2-.2-.3-.3-.2-.6v-.4l-.5-.1h-.6l-.2.6c0 .1 0 .3.2.4V5h-.1c-.4.1-.4.1-.3.5.3 0 .5 0 .8-.2 0 .2.2.3.3.3Zm-12.5-.3c0-.2-.2-.1-.6.1h-.5l-.2-.2h-.3c-.1.2-.4.3-.4.6v.6c-.4-.2-.6-.5-1-.4l-.4.4-.2.2c-.3.2-.3.4 0 .6l.1.1c.4 0 .7.3 1 .5h.5c0-.2.1-.2.2-.3l.2-.3c.5.2.5.6.5 1l.2-.4c.3 0 .7 0 .9-.5l-.2-.2.2-1c.2-.4.3-.6 0-.8Zm-7.7 4.3c0 .2 0 .3.2.4.2 0 .1.3.3.5h.6l.4-.1.4-.7.3.3.4-.1c.6.4 1 .2 1-.4 0-.4.2-.7 0-1.1V8c.1-.1 0-.2-.1-.3h-.1q-.4.4-.8 0c-.2.2 0 .5-.3.5l-.5-.4c0-.3-.4-.3-.6-.4 0 .3-.3.6 0 1-.3 0-.5 0-.7.2-.4.1-.5.5-.5.9Zm2-.6c0 .1 0 .3-.2.4l-.2-.6.4.2ZM21 3l-.4 1.5c0 .2.4.3.6.5l.8.2.4.1.5-.4.2-.1c.2 0 .3 0 .4-.2.2 0 .3-.2.1-.5h.4c.3 0 .5-.3.3-.6l-.2-.3c-.1-.4-.2-.5-.6-.4l-.2.1v.7l-.6.2c-.1-.7-.7-.7-1.3-.7-.2-.2-.4-.4-.4-.7l-.1-.2h-.4l-.1.3c0 .3.2.5.5.6Zm20-2c.3.2.4.3.6.2h.8l.2-.2c0-.2.3-.3.2-.6h-.3l.2-.4H41l.1.5c.1.1.1.4-.1.5Zm-9.5 5.5-.4-.2c0-.2.1-.5-.3-.5-.1.2-.5 0-.8.3l.2.6c-.2.2-.5 0-.7 0l-.7.2.7.7-.8.2c-.1.3 0 .4.2.5 0 .3.3.2.4.2l.6-.5v.3c-.1.4 0 .7.1 1.1-.2.1-.5-.1-.6.2-.1.2-.2.4-.1.6.5 0 .5 0 .7-.4.3 0 .5 0 .7-.2.2-.3.3-.6.2-1l-.4-.2c.4-.4.4-.9.6-1.4.2 0 .4-.1.4-.5Zm18.3-1.1zm-2.1-.9v.2c.2.1.2.3.2.5 0 .3.3.6.6.6.5 0 1 0 1.3-.4-.1-.2-.2-.3 0-.5l-.1-.2c-.1-.3 0-.5.3-.6l.2-.1v-.4c.5-.5.5-.6 0-1.1h-1c-.3.1-.3.4-.4.6 0 .2 0 .4.3.5.2-.1.5-.3.7 0-.3.1-.6.3-.8 0-.4-.1-.7 0-1 .1a1 1 0 0 0-.4.9ZM45 1.1l.2-.2h.3c.3.1.6 0 .8 0 .2-.2.2-.3.1-.5l.1-.3V0h-2l.3.9.2.2Zm10 11.3-.2.1v.2c.2 0 .4 0 .4.3.3.2.5.6 1 .7.2 0 .4 0 .5-.2v-.1h.2l.5-.5v-.1c.1-.3.2-.7-.3-1l-.4-.4c-.2-.1-.1-.2 0-.3h.4a1 1 0 0 0-.5-.6v-.2h-.9l-.3.1c-.2.2-.5.4-.5.8 0 .2 0 .3.2.3v.9ZM5.6.1l-.1.2v.3l.7.1-.5.1h-.4l-.1.3-.3.3.2.3-.2.4-.2.4.6.3c.3-.2.2-.5.3-.7l.5.4h.5c.1-.3.4-.2.5-.4l.3-.6v-.2L7 1c-.1 0-.3-.1-.3-.3C6.4.6 6 .6 6 .3V0h-.2c0 .1 0 .2-.2.2Zm44.8 14.2.1-.7h-.3s0-.3-.2-.3l-.5-.4.4-.1c0-.4-.3-.4-.6-.6l-.4.3c-.2 0-.5.1-.7.4-.2.2 0 .4-.1.6l-.3.4.1.3.5.5c.2.1.4.3.7.2l.1.2-.3.2c-.1.4.2.7.4 1h.4c.3 0 .5-.2 1 0-.3-.4-.3-.8-.6-1.1L50 15l-.4-.2c0-.3.3-.4.3-.7l.2-.2v.4l.4.7c.1.4.5.5.8.2l.4-.2c0-.7-.3-1-1.2-.7ZM28 6.2c.2.2.4.2.7 0h.5c.3-.1.4-.4.6-.6l-.4-.3.5-.1c.1.1 0 .4.3.4l.2-.1-.5-1c-.2-.3-.5-.5-1-.3h-.2c-.2.4.2.6.2.8h-.3c-.2-.2-.3-.2-.5-.2l-.2.3c0 .3-.3.6-.2 1 .1 0 .3 0 .3.2Zm19 .2v.2c-.2.4-.2.6.1 1v.2c-.2.1-.2.3 0 .4v.6c.4.1.6 0 .8-.2l.4-.8c-.2 0-.4 0-.4-.2l-.2-.4c.3-.3.4-.6.4-.9 0-.3-.2-.5-.4-.6-.3 0-.6-.2-.8 0v.7Zm-6-.2.4.2h.3c.2-.4.5-.5.7-.8l.3-.2V5c0-.3.2-.6.3-.8-.2-.2-.3-.3-.6-.3-.2 0-.3.1-.4.4l-.2.2h-.2c0 .4-.3.4-.6.5l-.2.4v.2c-.2.2-.1.4.1.5Zm-4.6-2.6c-.1.3 0 .6.1.7h.6c.2-.1.3-.4.3-.6l-.2-.4h-.4l.3-.4.2-.4c.2 0 .3.2.5.3L38 2c-.2-.2-.5-.4-.8-.3h-.3c-.1-.1-.2-.2-.3 0l-.4.1v.4c0 .4 0 .6.3 1l-.1.4ZM34 12.4c.3 0 .5-.3.7-.5.1-.3.2-.4 0-.5h-.1c-.2-.2-.2-.3 0-.5l-.4-.1c-.2-.2-.4-.3-.7-.2-.3.1-.5.2-.4.5l-.1.2c-.2.1-.3.3-.2.5 0 .2.1.4.3.5l.4.2c0 .1.3.1.4 0Zm-13.2-1.6.3-.3v-.8l-.5-.6-.5.2c-.3.1-.5.3-.7.2l-.2.2c.2.2.4.4.4.7v.2c-.1.4 0 .6.3.8h.5c0-.3.1-.5.4-.6Zm17.7-7.3c.2.3.5.5.5.9l.6.3q.2-.4.7-.5c.1-.3 0-.5-.1-.8l-.3-.6c-.1-.4-.2-.4-.6-.2V3l-.7.3-.4-.1-.4-.2c-.1.5 0 .6.7.5ZM29 12l.4.2h.9l.3-.5v-.2c0-.3-.3-.3-.6-.3h-.1c-.4 0-.7 0-1 .2 0-.3 0-.6.2-.9h-.4c-.4 0-.6.2-.8.5-.1.2 0 .4.3.4l.3.1.5.4ZM4.8 8.6v-.4l.2-.5h.5l-.1-.3c-.4.1-.4-.1-.4-.3-.3 0-.6 0-.9-.2-.2.2-.2.3 0 .4v.5c0 .1 0 .3-.2.3l-.2.2q-.1-.4-.4-.5c-.2.5.3.5.5.8L4 9l.5.1c.4 0 .5-.2.4-.5Zm7.1-7.3c0-.5.6-.5.9-.9l-.3-.4h-1.6c0 .8.4 1.3 1 1.4ZM8.2.4c.3.5.5.5 1 .1l.1-.1c.3.6.4.7 1 .6.3-.3.2-.6.1-1H8.1v.4Zm21.9 2.9c.3-.2.6-.2.8 0 .2 0 .3 0 .5-.2l-.3-.3a1 1 0 0 0-.1-1l-.1-.2-.2-.3-.2.2-.2.2c-.3 0-.6.2-.6.5s0 .7.3 1h.1Zm6.8 7.6c.3-.1.5-.3.3-.6v-.6l-.6-.5h-.3l-.5.5c0 .5.3.8.2 1.2.3.3.3.3.6.1l.3-.1Zm-10.5 2.5.2.3c.4 0 .9-.2 1-.5v-.5c-.2-.2-.1-.5-.1-.7h-.1l-1 .4c-.3.2-.3.7 0 1Zm-3.2-3.1c-.2-.3-.8-.6-1.1-.7 0 .4 0 .7-.2 1l.1.3c.2.3.4.6.8.6.1 0 .2 0 .3-.2v-.2c.3-.3.2-.6 0-.8ZM10.3 6.8V7h.4v.7c-.5.5-.1 1.1.6 1.2l.4-.3c.2-.2.2-.6 0-.8 0-.1 0-.2-.2-.2-.3-.2-.5-.3-.6-.6l-.2-.2h-.4Zm5.5 3c-.2.1-.2.3-.3.5l.1.5.1.3c.5.2.8 0 1-.3.2-.1.2-.3.2-.4 0-.3-.2-.6 0-1l-1.1.4Zm37.5-1.3c.2.1.3.2.3.5l.2.1.6-.2.3-.5-.2-.7c-.2.2-.4.2-.5 0-.2-.2-.4-.3-.7-.2l-.2.7c0 .1 0 .3.2.3ZM24.1 5.4c0 .2-.2.2-.4.2-.5-.2-.6-.1-.6.4h.2v.1l-.5 1 .1.5h.8l.4-.6-.5-.3v-.6l.2-.2.5-.2.3-.2c-.2-.1-.3-.2-.5 0Zm-2.4-5c.2.2.5 0 .7-.1l.2-.3h-1.4l.5.4ZM3.5 4.3c.3.2.5.2.8-.1 0-.2.2-.3.3-.4l-.3-.4c0-.2.2-.2.2-.5 0 0-.1-.2-.3-.2-.2 0-.4 0-.5.2l-.2.4c-.2.1-.3.4-.4.6 0 .2.2.3.3.4ZM35 15.4c.1-.1.3-.3.5-.2V15c-.2-.1-.4-.2-.4-.5l.4-.6c-.4-.2-.4-.2-.4-.6h-.3c-.3 0-.2.1-.2.4 0 .3.3.5.3.8l-.2-.1c-.3.2-.4.4-.3.7 0 .3.4.4.6.3ZM35 4l.3-.4h.4l.5-.6c-.3-.2-.2-.7-.7-.8-.2 0-.4 0-.6.2l.1.7V4ZM20.7 6.7c0 .1 0 .2.2.3s.2-.1.3-.2v-.2h.3l-.1-.6.4-.2c-.1-.3-.2-.4-.6-.2H21v-.4l-.3.1c0 .2-.2.2-.4.3 0 .4.3.6.5 1v.1Zm35.8 9h-1c-.2.2-.4.3-.3.6v.3l.2.1c-.1.2-.1.4-.3.5h-.2c-.3.1-.2.4-.1.7 0 .2 0 .4.2.6l.4.3h.2c.2-.2.3-.4.2-.7V18c0-.3 0-.6-.2-.9h.8v-.6h.2l.2-.4c0-.2-.2-.3-.3-.4ZM12.2 6.5v1.1c.4.1.6 0 .9-.2l.2-.2.2-.5h-.9l-.1-.7c0-.2-.2-.2-.3-.3-.2 0-.3 0-.3.2-.1.2 0 .4.1.6h.2Zm-2.5 6.7c.1.2.3.3.6.1h.1c.3 0 .3-.3.4-.5l-.1-.5-.5-.5-.6.6c-.1.1-.1.3 0 .4v.4ZM38.9 2c0-.2 0-.2.2-.3l.2-.2.3-.1V.7H39c-.2.2-.4.2-.7 0-.3.7-.2 1 .5 1.2ZM6.6 3.6l.7-.2c0-.4 0-.6-.4-.9l-.2.3q-.9 0-1.2.4c.2.4.7.5 1.1.4Z"/><path d="m47.4 3.4.7.1h.3c.1-.2.2-.8.1-1h-.2c0-.2-.2-.2-.4-.3-.2 0-.2.3-.2.5h-.2c-.2 0-.2.1-.3.3 0 .2 0 .3.2.3zm-7.3 6.3c0-.3 0-.5-.3-.6h-.2c-.4-.2-.7 0-.7.4v.6h.7c.3 0 .5 0 .5-.4zM20 7.7c.2 0 .4.3.4.6.4 0 .8 0 1-.4-.6-.3-.7-.4-1-.4V7c-.3-.2-.3-.2-.5.2V7l-.3.1v.1l.5.4zm4.4-.9c0 .2-.1.5.1.7.3 0 .5.1.8-.1.2-.3 0-.5 0-.8l.2-.2-.3-.1c-.1.2-.4.2-.6.3l-.2.2zm26.9 6.9.4-.2c.1-.2.3-.2.5-.3l-.6-.4a.7.7 0 0 0-.5 0c-.2 0-.3 0-.4.2l-.2.2c.2.4.5.4.8.5zm.9-.5zm-45.5-.5.4-.1c0-.2 0-.4-.2-.5l-.4-.4c-.2-.2-.4-.2-.7 0 0 .2-.1.2-.2.3.2.6.5.7 1 .3l.1.5zM54.5 2.2h-.9c.1 0 .2-.1.2-.3-.1-.2-.3-.4-.5-.3h-.1c0-.1 0-.2-.2-.2h-.2v.4c.2.2.2.2.2.5h.4l-.2.2c.1.2.3.3.2.5.1.2.3.3.5.2l.2-.3h.4v-.7zM15.4.6h.3V.5c.2-.1.4 0 .5-.3V0h-.7v.6zm12.2 7.3c.2 0 .4 0 .6-.2l.2-.4c0-.3-.3-.5-.6-.5h-.3l-.1.6c0 .2 0 .4.3.5zM26.5 14c-.2.2-.3.3-.2.6 0 .2.1.3.4.3h.2c.3 0 .5-.2.4-.5l-.2-.5-.6.2zM22.3 2.8c.3.2.6.1.8 0 .2-.2.1-.4.1-.6L23 2c-.3 0-.5 0-.6.2-.3.2-.3.5 0 .6zM34 6.3c0-.3-.2-.4-.5-.4l-.5-.1-.2.4.3.6c.4 0 .7-.2 1-.5zM40 0h-1l.1.1h.9zm-7.8 16.8-.4-.6c-.1 0-.3-.2-.5 0l.1 1c.6.1.7 0 .8-.4zm-1.6-12 .5.4c.6-.4.6-.5.5-1-.6-.2-.7-.1-1 .6zM18 6.8v.6l.6.4c.4-.2.5-.3.3-.9l-.8-.1zm.2-4.2c0-.1 0-.2-.2-.3l-.5-.2h-.4l-.4.4c0 .2.3.2.4.2h1.1zm-11.3 6 .9-.1v-.6c-.3 0-.5 0-.8-.2-.4.3-.4.4-.1 1zm9 5.8c.6 0 .8-.2.8-.8v-.4c-.5.3-1 .5-.8 1.2zm10.6-3.1c-.4-.3-.5-.3-.7-.2-.2.2-.2.5 0 .8 0 .2.3.2.7 0v-.6zm15.5-2 .4-.2-.1-.7h-.5c-.3.1-.4.3-.3.5 0 .3.3.5.6.4zM52.2 14h.5l.2-.4c.2-.3.1-.4-.3-.6l-.4.2v.7zM18.4 2.1l.2-.2c.3-.4.3-.6-.2-.8-.5.1-.3.6-.5.8.1.3.3.3.5.2zm5.4-.5V.9c-.3 0-.6 0-.7.3l-.2.3c.2.3.4.4 1 0zm.5 7.6-.1.2c.1.2.2.4.5.5s.4.1.6-.2l-.5-.7-.5.2zm12.3-.8c.1 0 .3-.2.2-.4 0-.2-.2-.3-.4-.4h-.3l-.2.4c0 .2.3.4.6.4zm13.6 2.9.2-.4-.3-.2a.3.3 0 0 0-.4 0c-.2 0-.3.3-.3.4l.3.3.5-.1zM17 .5l.1.3h.2V0h-.8c0 .2.1.4.4.5zm-15.7 9c.1.2 0 .5.3.6s.5 0 .6-.2v-.3c-.2-.2-.6 0-.9-.4v.3zm17.4-3.6c0-.4 0-.5-.4-.6-.3 0-.4 0-.6.4.3.3.6.3 1 .2zM53 .6V.2c-.7-.3-.8-.1-.7.5.2.2.5.2.8 0zM15.5 1.7c0 .4.3.6.6.6s.3-.1.3-.5c-.3 0-.5-.5-1-.1zm38.3 8.6c0 .4 0 .5.3.6.2.1.4 0 .5-.4q-.4-.3-.8-.2zm-17.7 2.5-.1-.2-.1-.2c-.2 0-.4 0-.4.2l-.3.3v.1c.5.3.5.3 1-.2zm-23.4-.6c0 .2.2.3.5.3.2 0 .3-.2.3-.4s-.2-.4-.4-.3c-.3 0-.4.2-.4.4zM37.1 1.7h.1-.1zm.4-.4.2-.4c-.3-.2-.4-.2-.8.1.2.2 0 .5.2.7l.2-.1.2-.3zm3.9 3.3c.1-.5.1-.5-.1-.8l-.5.5v.4h.6zm-4.2.2-.5-.1-.2.2.5.6c.3 0 .3-.1.2-.7zM2.3 7.5c0-.3 0-.5-.3-.6l-.6.1c.2.3.4.6 1 .5zm36.2-2.8c.2 0 .2-.2.1-.4l-.1-.2c-.3-.1-.5 0-.6.3l.2.3c.1.1.3.2.4 0zm-15.7 8.1q.3-.1.5-.6l-.3-.4c-.4.3-.3.6-.2 1zM19.8.7zm0 0c.1 0 .4 0 .5-.2 0-.2 0-.3-.2-.5h-.3c-.2.2-.2.4 0 .7zm-1.2 1.5c.3.3.5.3.9.2 0-.3 0-.4-.2-.4-.3-.2-.4-.1-.7.2zM19 .9v.5c.5.2.7 0 .7-.5V.7c-.2 0-.4 0-.6.2zm7.5 4.7c-.3 0-.4.3-.7.4v.2l.6.2.1-.8zM1.1 13.3c-.1 0-.3.1-.3.3 0 .1 0 .3.2.4.1 0 .3 0 .5-.3 0-.2 0-.4-.4-.4zm22.1-5c0-.1 0-.2-.2-.2-.3-.2-.5-.2-.7.2.2.2.4.3.7.2.1 0 .2 0 .2-.2zm17.8.1-.5-.4-.2.3c0 .3.3.4.6.5l.2-.4zm-10.2 5c-.3-.4-.5-.4-.7 0 .5.5.5.5.7 0zm23.4-3.6.4-.2V9h-.3c-.4.2-.4.3-.2.6-.2-.1-.2-.1-.4 0 .3.2.3.2.5 0zM35.7 12c.4 0 .4-.1.4-.8-.4 0-.5.2-.7.4l.2.2v.2zM9.2 5.2c.2-.5.2-.5-.1-1-.3.1-.2.5-.3.7l.4.3zM10 4l.8.1q0-.3-.2-.4h-.1c-.2-.3-.3-.2-.6-.2l.1.4zM1.9 5l.4-.4c-.3-.5-.6 0-.8 0-.1.3.2.3.4.5zm8.9 5.5c-.1 0-.2 0-.3.2v.7c.4-.2.5-.4.4-.9zM14 8c.2 0 .3-.1.3-.3s-.3-.4-.5-.3l-.2.4c0 .1.1.2.4.2zm20.3-3c.1 0 .3 0 .2-.2 0-.2-.1-.4-.3-.3-.2 0-.4.1-.3.3 0 .2.2.3.4.3zM18.6 3c-.2 0-.3 0-.4.2 0 .4.2.4.5.3.1 0 .3 0 .3-.3 0-.2-.2-.2-.4-.2zm19 6.2c-.2.5-.2.5 0 .9h.2c.2-.3.2-.5.1-.7l-.3-.2zM9.7 2c.2 0 .3-.2.3-.4 0-.1-.1-.2-.3-.2s-.4.2-.3.3c0 .2.2.3.3.3zm34.9-.5V1c-.5-.2-.6 0-.5.4h.5zM16.1 8.6v-.5h-.5c0 .4 0 .4.5.5zm18 8.6.4-.4c-.2 0-.3-.2-.4-.1l-.3.2v.3h.3zM7 4.6c.1 0 .3.2.4 0l.2-.2c0-.3-.2-.3-.4-.3-.2.2-.3.3-.2.5zm-1.1.7c-.2.1-.3.3-.2.6.2-.2.6 0 .7-.5L6 5.3zM31 10.7c0-.2-.1-.3-.3-.3l-.3.3c0 .2.2.3.3.3.2 0 .3-.2.3-.3zM5.2 14c0-.2-.2-.3-.3-.3-.2 0-.3.2-.3.3 0 .2.2.3.3.3.2 0 .3-.2.3-.4zM8.3 3.7l.2-.3-.3-.2-.4.3.1.2c.1.1.3 0 .4 0zm46.1 14.6c-.2.1-.2.3-.1.6h.3c.2-.4.2-.5-.2-.6zM33 13.8l-.2-.5h-.3v.6h.5zm4-1.8c0 .4.4.3.5.5l.5-.4-1-.1zM9.8 6.8l.2-.2-.2-.2h-.4c0 .4.1.5.4.4zm22.5-4zm-.2-.3h-.3v.6c.2 0 .3-.2.5-.3 0-.1 0-.2-.2-.3zM2.6 10.7l-.3.1H2c.2.3.4.5.7.4v-.5zm55 1.1v-.4l-.2.2.2.2zM2.1 3.6c-.3.2-.3.3 0 .7q.3-.3 0-.6zM49 2c.1-.1 0-.2-.2-.3-.2.1-.3.3-.2.5l.5-.1zM26.2 9.1v.3c0 .1.2.3.5.3v-.3l-.5-.3zm3.7-4.9.3.1.2-.3c0-.3-.2-.2-.3-.2s-.3.2-.2.4zm7.7 11.3c.2 0 .3-.2.3-.4l-.5.1v.3h.2zm-36-3.3.2.3.4-.3q-.3-.2-.6 0zM43.2.2V0h-.5c.2.2.2.2.5.2zM32.1 12.6c-.2.1-.2.3-.1.4l.5.2c0-.3-.3-.4-.4-.6zM3.6 5.2c.2-.3.2-.4 0-.6q-.3.3 0 .6zm52.3 9.5q-.1.3.2.5.2-.3-.2-.5zM38.8 3q.3 0 .2-.4c-.4 0-.4.1-.2.4zm-10.5 9.8h.2l.3-.1-.3-.3-.3.3v.1zM5.6 10.7l.2-.1V10h-.2l-.1.4.1.2zm48.8-9.2-.1.2s0 .2.2.3c.2-.2.2-.3 0-.5h-.1z"/><path d="M5.7 12.6v.3H6c0-.3-.1-.3-.3-.3ZM26 9.8v-.3h-.3v.3h.2Zm12.4 4.3.3.2.2-.2-.3-.2-.2.2Zm-35-2.7c.2-.1.3-.2.2-.5q-.3.2-.2.5Zm13.9-3.2v.3h.1l.2-.1V8l-.3.1ZM15 7.7c0 .2.1.3.3.3l.1-.2c0-.3-.2-.2-.4-.1Zm17-2.5q.2-.3 0-.5-.3.2 0 .5Zm12.8-2.5h.1v-.2l-.2-.2v.4Zm-23.7 9.9q.3-.3 0-.5v.5Zm33.1-8.5Zm-.2.2.4.3-.2-.4H54ZM5.4 12l-.1-.4-.1.4h.2Zm.4-4.5c-.2 0-.3.2-.3.4q.3-.1.3-.4ZM43.5 14c0-.2.2-.3.3-.5-.4 0-.4 0-.3.4Zm-40.6.6.2.1.2-.2-.2-.1-.2.2Zm35.1-3V11l-.2.3.1.1ZM8.7 3q.2-.1-.2-.4c0 .3 0 .4.2.5Zm44.3.8.2-.2s0-.1-.1 0h-.2l-.1.1.2.1Zm-42 .6c-.2.2 0 .3 0 .5.3-.2.1-.3 0-.5ZM6 9l-.2-.2-.3.2.2.1c.1 0 .2 0 .2-.2Zm45.7 1.9c0-.3-.1-.3-.3-.3v.1c0 .3.1.2.3.2Zm-47.5-.6q0 .3.3.2l-.3-.2Zm29.1-4.8-.2-.1-.1.2h.2c.1 0 .2 0 .1-.1Zm-2.4-.2h-.2l-.2.1.2.1.2-.2Zm15.9-3-.1-.1c-.2 0-.2.1-.2.3.2 0 .3 0 .3-.2ZM2.6 11.4q.1.3.4.3c0-.2-.2-.3-.4-.3Zm33.3-7.2v-.1c0-.2-.1-.2-.3-.2 0 .2 0 .4.3.3Zm-9.5.4h-.3l.2.2.1-.2Zm26.4 2.6.1.2c.1 0 .2 0 .3-.2-.2 0-.3-.1-.4 0Zm-51.3.5c-.3-.1-.3.1-.4.2.3 0 .3 0 .4-.2ZM40 7.3c-.2 0-.3 0-.3.3.1 0 .3 0 .3-.3ZM7.2 6 7 5.7c0 .3 0 .3.2.3Zm-2.5 7c.2-.1.2-.2.2-.4-.2 0-.2.2-.2.3Zm9.1-4.2.2-.3h-.2v.3Zm21.1-2.4V7c.2-.2.2-.3 0-.5Zm-23.6-4c0-.2-.1-.2-.3-.1 0 .1.1.2.3.1ZM7.4.2v.1l.1.2c.2-.2 0-.2 0-.3ZM57 15.6c.2 0 .2-.1.1-.2-.1 0-.2 0-.1.2ZM5.5 13.5c.1-.2 0-.3-.1-.4-.1.3 0 .3.1.4Zm34.5-1 .2-.2q-.3 0-.3.2ZM20.1 3c-.3 0-.3 0-.3.3l.3-.3Zm1.9-.8h-.3v.1h.3ZM4 11.3l.3-.4q-.3.1-.3.4Zm20.2-9.6c-.3 0-.3 0-.2.3l.2-.3Zm-2.1-.5H22h.2ZM37.2 9h.2l-.1-.2H37l.1.2Zm.4 5.7-.1-.3v.3ZM16.3 1.3c.2 0 .3 0 .3-.3l-.3.3ZM1 9.1.9 9l-.1.2H1ZM9.4 1H9v.2c.2 0 .3 0 .3-.2Zm27 11.7v-.2l-.1-.2v.4Zm9.8-10.3.1-.1v-.1H46l.1.2ZM38 17.6h-.2l-.1.1h.2ZM26.4 6.7V7h.1v-.2Zm7.2 8.2.2-.3h-.1l-.1.3Zm-23.4-4.4-.1-.1v.2l.1-.1ZM21.5.6l-.1-.2-.2.2h.2ZM40.1 11H40v.2h.2V11Zm-9.8-.6-.1-.1H30l.3.2v-.2Zm-24.6 1h-.2l.2.1ZM4.6 11v.4c.2-.2.2-.2 0-.3Zm50.7-3.3.1.2v-.3ZM.1 6.3l.2.1v-.2l-.2.1ZM31.4 0l-.1.1v.1l.2-.1ZM12.6 2.4v-.1h-.2v.1h.2Zm24.9 10.4-.1.1h.2v-.1ZM43.4.5h-.1v.2-.2Zm1 9.5-.6-.5c-.4 0-.4.4-.6.6l-.5-.6c-.1-.2-.3-.3-.6-.2-.3.2-.6 0-.8.2l-.6.7-.1.1c.1.3.2.5.5.6.2.1.3.3.3.5.1.3.5.4.4.7l.1.6c.1 0 .2-.4.4-.2l-.1.6h.3c.5-.1.7-.3.7-.9h-.6V12l-.7-.4h.6l.4.2c.2 0 .3-.2.4-.3l.4-.2v-.5l.3-.4.4-.4Zm8.3 11.2c.4-.6-.2-.8-.4-1.2l.2-.6-.6-.3c-.5-.2-.7 0-.7.4v.4c-.4 0-.6 0-1 .2v.4H50v.2c.4 0 .3.4.3.6.4.2.8.2 1 .6.3-.1.4-.3.3-.5v-.6c.1-.1.2-.4.5-.3l.3-.2q0 .6.3 1ZM45 9.5l.1.5.7-.1c0-.2.3-.3.4-.4.3-.1.5-.4.7-.6 0-.2 0-.4-.2-.6-.4-.5-.5-.5-1-.2l-.7.3.3.7c0 .2-.4.1-.4.4Zm1 2.5c-.2-.4-1-.4-1.2-.1l-.4.6v.6h-.2c-.2 0-.3.1-.4.3l.2.3c.1.2.3.2.5 0h.6l.1-.6.3-.1c.3-.1.6-.6.5-1Zm.5 5.8-.3-1h-.9l-.3 1.3.5.4.7-.3c.2 0 .4.3.6 0l.1-.2c0-.3-.3-.2-.4-.2ZM44 16.3v-.5a1 1 0 0 0-.9-.1c-.3 0-.4.1-.5.4l-.2.8c0 .1.4-.1.5.2l.6-.1c.3 0 .5-.4.5-.7Zm3.8-5.5c-.2-.4-.7-.7-1-1h-.3c-.2 0-.4.2-.6.5l.2.6c.1.2.5.4.7.2.3-.1.5-.2.7-.1l.3-.2Zm-5.6 9.4c.6 0 .8 0 1-.7h-.6v-.4l-.2-.2c-.4 0-.5-.2-.7-.4h-.2v.6c0 .3 0 .3.5.3l-.2.3.4.5Zm1.5-2.1.8-.1.5-.8-.8-.3c-.1.4-.6.7-.5 1.2Zm12 2.1.2-.4c0-.2 0-.6-.2-.8-.2-.2-.5-.3-.7 0l-.3.3c.3.4.8.4 1 .9Zm-6.2-9.4c-.7-.4-1.1-.1-1.2.8.9 0 1-.1 1.2-.8Zm-8.1 10.8c0 .4.2.7.4 1.1.1-.4.7-.3.7-.8-.4-.1-.6-.7-1.1-.3Zm16.1-7.3h-.2c-.2 0-.3.2-.3.5h.3c0 .1 0 .4.3.4v-.8h-.1v-.2Zm-8.3-5.5c.3-.4 0-.5-.2-.8l-.7.4c.1.7.6.3 1 .4Zm-3.6 13.9c.6 0 .7-.2.6-1-.6.4-.7.4-.6 1Zm-1.4-3.8c-.2 0-.3.2-.3.4s0 .5.2.7c.4-.4.4-.7.1-1.1Zm4.8 3.6c-.4.2-.8-.3-1.1.3l.6.3c.2 0 .5-.2.4-.6Zm4.6-9.5c0-.3 0-.5-.2-.5s-.5 0-.5.3c0 .2.1.4.3.4.2 0 .4 0 .4-.3Zm-11.8 3.6c.3-.3.1-.6 0-.8 0-.2-.1-.2-.5-.2 0 .4 0 .7.5 1Zm6.7.5c.6.2.7.1.7-.5q-.6 0-.7.5Zm2.5-5.3q-.4.4-.2 1c.5-.4.5-.5.2-1Zm-3 4.5q-.6.1-.8.7h.7v-.7Zm-.1 3.3-.2-.1-.2.1-.1.6h.5v-.6Zm4.9 6.4-.1-.4h-.3v.3l.1.1c-.2.3-.2.3 0 .7.4 0 .5-.2.3-.6ZM43 20.4s-.3.2-.3.4 0 .3.2.3.3 0 .4-.3c0-.2 0-.3-.2-.4Zm2.2-4.7c.2.3.4.5.8.4l-.1-.3-.2-.4-.4.3Zm6.1 8.6c-.4.3-.4.3-.2.7q.4-.3.2-.7Zm-8.8-9.9v.2l.2.1c.2 0 .4-.2.4-.5-.3 0-.5 0-.6.2Zm8.2 2.9h.1l.4-.4-.1-.3-.3.1-.1.6Zm-1.2.5-.6.4c.5.2.6.2.6-.4Zm2.2-3.5c.2 0 .3-.2.2-.4-.1-.2-.2-.2-.4 0-.1.2 0 .3.2.4Zm2.4 2.3c-.3.1-.5.2-.4.6q.4 0 .4-.6Zm-11.2 6.9q.4 0 .3-.6c-.3.1-.5.3-.3.6ZM47 12l-.2.1c0 .2 0 .3.3.5.1-.2.2-.4 0-.5Zm2.5 8.5c.3 0 .4-.2.5-.4q-.4 0-.5.4ZM44.3 23c.2 0 .3-.2 0-.5-.2.2-.2.3 0 .6Zm.8-2.7v.2c.1.1.2.2.4 0v-.1c0-.2-.2-.2-.3-.1Zm5.4-1.5-.2-.3c-.2 0-.3 0-.3.2v.2l.5-.1Zm2.2-1.1q.1-.4-.3-.4c0 .2 0 .3.3.4ZM55 17q0-.5-.3-.5c0 .3.1.4.3.4Zm-9.4 7.3h.5q-.2-.2-.5 0Zm7.1-9.7c.3 0 .4-.1.4-.4-.3 0-.4.1-.4.4ZM41.3 23l.4-.1-.6-.2.2.4Z"/><path d="m41.1 22.7-.1-.3h-.4c-.2.1-.2.3-.1.5.3.1.4 0 .6-.2Zm5.1-7.4h.4l-.3-.3-.2.2.1.1Zm7.1 1.2-.5.4q.3 0 .5-.4Zm2.9 4.2.2-.2-.1-.2-.2.2v.2Zm-5-5 .1.1h.2l-.1-.2h-.1Zm1.2.9.1-.4c-.3.1-.2.2 0 .4ZM47.5 13v-.2h-.1v.2h.1Zm8.3 11.2v.1h.2l-.2-.2ZM46 20.7h-.3l.2.2h.1v-.2ZM16.9 6.8h.2-.2Zm30.6-4.3h-.2v.2l.2-.2Z"/></g></svg>