<svg xmlns="http://www.w3.org/2000/svg" id="Layer_2" viewBox="0 0 719.92 777"><defs><style>.cls-12,.cls-8{opacity:.14}.cls-8{fill:#1a73e8}.cls-12{fill:#ef4fa6}.cls-17{opacity:.6}</style></defs><g id="Layer_2-2"><path d="M505.74 758.09h19.54v10.42h-19.54z" style="opacity:.28;fill:#4db6ac" transform="rotate(-30 515.516 763.292)"/><path d="M82.93 258.11h19.54v10.42H82.93z" style="fill:#4db6ac;opacity:.6" transform="rotate(-30 92.704 263.32)"/><path d="m662.01 147.802 17.502-15.533 7.023 7.913-17.502 15.533z" class="cls-8"/><path d="M30.08 758.65H56.8v9.29H30.08z" style="fill:#6c27a8;opacity:.14" transform="rotate(94.82 43.449 763.29)"/><path d="M136.13 303.19h14.59v10.19h-14.59z" style="opacity:.6;fill:#1a73e8" transform="rotate(83.23 143.428 308.28)"/><path d="m678.464-.006 1.72 14.488-10.119 1.201-1.72-14.488z" class="cls-8"/><path d="M8.02 220.67h14.59v10.19H8.02z" style="fill:#ee0290;opacity:.6" transform="rotate(120 15.313 225.768)"/><path d="M661.06 358.03h14.59v10.19h-14.59z" style="opacity:.14;fill:#47127f" transform="rotate(170 668.342 363.147)"/><circle cx="18.65" cy="61.34" r="3.34" style="fill:#0254c2;opacity:.6"/><circle cx="715.41" cy="16.86" r="4.51" class="cls-12"/><circle cx="242.64" cy="83.07" r="4.51" style="opacity:.6;fill:#82b1ff"/><circle cx="660.89" cy="753.9" r="4.51" class="cls-12"/><circle cx="461.71" cy="710.11" r="4.51" style="fill:#b2dfdb;opacity:.14"/><circle cx="4.51" cy="343.08" r="4.51" style="opacity:.18;fill:#b2dfdb"/><circle cx="577.45" cy="346.48" r="3.4" style="fill:#9961e2;opacity:.14"/><circle cx="440.67" cy="12.35" r="4.51" style="opacity:.28;fill:#26998b"/><g style="opacity:.14"><path d="M569.04 661.16c-2.38 5.63-8.95 2.86-11.33 8.49-2.38 5.64 4.18 8.41 1.8 14.05-2.38 5.64-8.95 2.86-11.33 8.5" style="stroke:#ff8dd6;stroke-width:4.07px;fill:none;stroke-linecap:round;stroke-miterlimit:10"/></g><path d="M257.53 292.72c-5.8-4.57-.76-10.97-6.56-15.54s-10.85 1.83-16.65-2.75-.76-10.97-6.57-15.55" class="cls-17" style="stroke-width:4.07px;stroke:#9961e2;fill:none;stroke-linecap:round;stroke-miterlimit:10"/><g style="opacity:.2"><path d="M5.46 557.84c3.53 1.72 1.64 5.62 5.17 7.33s5.43-2.18 8.97-.46c3.54 1.72 1.64 5.62 5.18 7.34s5.43-2.18 8.97-.46" style="stroke:#9961e2;fill:none;stroke-linecap:round;stroke-miterlimit:10;stroke-width:3.47px"/></g><path d="M273.73 152.76c-4.39-1-3.25-5.97-7.64-6.97s-5.52 3.96-9.91 2.96-3.25-5.97-7.64-6.97-5.53 3.96-9.92 2.95" class="cls-17" style="stroke-width:4.07px;stroke:#5eccbe;fill:none;stroke-linecap:round;stroke-miterlimit:10"/><path d="m647.79 716.83.94-3.49c.03-.11.19-.11.21 0l.94 3.49a9.19 9.19 0 0 0 6.49 6.49l3.49.94c.11.03.11.19 0 .21l-3.49.94a9.19 9.19 0 0 0-6.49 6.49l-.94 3.49c-.03.11-.19.11-.21 0l-.94-3.49a9.19 9.19 0 0 0-6.49-6.49l-3.49-.94c-.11-.03-.11-.19 0-.21l3.49-.94a9.19 9.19 0 0 0 6.49-6.49Z" style="fill:#82b1ff;opacity:.12"/></g></svg>