<svg xmlns="http://www.w3.org/2000/svg" viewBox="0 0 60.05 60.09"><path fill="#82b1ff" d="M40.96 26.96c0-7.23-4.9-13.09-10.94-13.09s-10.94 5.86-10.94 13.09c0 4.85 2.2 9.08 5.48 11.34l.99 7.29s3.14 7.01 4.48 6.99c1.37-.02 4.51-7.22 4.51-7.22l.96-7.05c3.27-2.26 5.47-6.49 5.47-11.34Z" opacity=".92"/><path fill="#0c2b77" d="M50.93 32.66s-4.55-7.24-5.23-9.94c-1.99-8.01-7.02-14.91-15.68-14.91-.23 0-.46 0-.68.02-.2 0-.39.02-.58.04h-.05c-7.86.66-12.49 7.25-14.38 14.85-.67 2.7-5.23 9.94-5.23 9.94 2.22 4.21 7.42 8.42 15.98 9.6l-.54-3.97c-3.1-2.15-5.24-6.06-5.46-10.6.37-10.43 15.92-6.25 17.76-10.96 2.5 2.4 4.1 6.08 4.1 10.22 0 4.85-2.2 9.07-5.47 11.34l-.54 3.97c8.56-1.18 13.76-5.39 15.98-9.6z"/><path fill="#1a73e8" d="M54.81 60.09 48.36 48.6l-7.37-1.35-6.21-3.75-.25 1.85s-3.14 7.2-4.51 7.22c-1.33.02-4.48-6.99-4.48-6.99l-.28-2.08-6.21 3.75-7.37 1.35-6.45 11.49"/></svg>