<svg xmlns="http://www.w3.org/2000/svg" viewBox="0 0 60.05 60.05"><path fill="#82b1ff" d="M44.1 28.88c-.25-8.17-7.01-12.55-15.32-12.55S13.7 20.71 13.46 28.88c-.74.03-1.33 1-1.33 2.2s1.16 2.64 1.91 2.64h.04c1.43 4.8 5.14 8.62 9.88 10.18-.84 1.74-1.69 3.86-1.69 4.49 1.86 0 4.29 6.83 6.01 6.83s5.14-6.83 7-6.83c0-.63-.85-2.75-1.69-4.49 4.74-1.57 8.46-5.38 9.88-10.18h.04c.75 0 1.91-1.42 1.91-2.64s-.59-2.18-1.33-2.2z" opacity=".92"/><path fill="#1a73e8" d="M36.53 48.35c-.63-.81-1.23-1.25-1.65-1.47-.69.09-3.41 3.58-3.41 3.58l-2.68 2.69-2.98-3.02s-2.43-3.15-3.12-3.25c-.42.22-1.03.66-1.65 1.47-4.54.9-7.59 2.56-7.59 4.46v7.24h30.67v-7.24c0-1.9-3.05-3.56-7.59-4.46z"/><path fill="#0c2b77" d="M28.75 11.78c-11.34 0-14.58 3.64-14.58 8.19v12c.52-2.6.88-10 4.21-12.42.47 3.06 7.8 4.04 11.86 2.5 6.16-2.34 8.06.6 6.83 3.68 1.5-.32 3.6-2.35 3.36-4.74 2.11 3.15 2.45 8.78 2.89 10.98v-12c0-4.55-3.24-8.19-14.58-8.19z"/></svg>