<svg xmlns="http://www.w3.org/2000/svg" viewBox="0 0 60.05 60.05"><path fill="#bebec0" d="M42.95 22.28v-5.17c0-4.03-2.87-7.26-12.93-7.26h-.75c-9.45.16-12.18 3.32-12.18 7.25v5.17s-1.99.15-1.99 1.49v5.5c0 1.34.5 2.45 1.99 2.45 0 5.07 3.4 10.68 8.05 13.14l-1.3 4.04a.57.57 0 0 0-.04.22c-.47.37-.75.79-.75 1.23 0 1.51 3.12 2.73 6.96 2.73s6.96-1.22 6.96-2.73c0-.44-.27-.86-.75-1.23 0-.08-.02-.16-.04-.23l-1.3-4.04c4.65-2.46 8.05-8.08 8.05-13.14 1.49 0 1.99-1.11 1.99-2.45v-5.5c0-1.34-1.99-1.49-1.99-1.49z" opacity=".28"/><path fill="#0c2b77" d="M30.03 9.85h-.74c-9.45.16-12.18 3.32-12.18 7.25v10.64c.46-2.3 1.78-8.86 4.73-11 2.35.67 5.17 1.06 8.2 1.06s5.84-.39 8.2-1.06c1.44 1.04 2.49 3.14 3.24 5.27.79 2.25 1.26 4.55 1.49 5.73V17.1c0-4.03-2.87-7.26-12.93-7.26z"/><path fill="#1a73e8" d="m53.36 60.05-.25-1-.1-.31-.22-.63-.15-.34-.25-.53-.19-.34-.28-.48-.22-.32-.31-.43-.24-.3c-.11-.14-.23-.27-.35-.4l-.26-.27c-.12-.13-.25-.25-.38-.37l-.28-.25-.42-.34-.29-.22-.46-.32-.29-.19-.51-.31-.28-.16-.57-.3-.24-.12-.7-.32c-.05-.02-.1-.04-.15-.07a17.49 17.49 0 0 0-1.8-.66h-.03l-.88-.26c-.06-.02-.13-.03-.19-.05l-.73-.18-.25-.06-.67-.15-.28-.05-.64-.12-.29-.05-.63-.1-.3-.04-.62-.08-.29-.03-.61-.06c-.09 0-.18-.02-.28-.03l-.62-.05h-.1c.12.2.19.41.19.62 0 1.51-3.12 2.73-6.96 2.73s-6.96-1.22-6.96-2.73c0-.21.07-.42.19-.62-6.48.48-15 2.48-16.56 10.31"/></svg>