<svg xmlns="http://www.w3.org/2000/svg" viewBox="0 0 60.05 60.05"><path fill="#0c2b77" d="M42.96 21.59c.25-6.78-5.76-12.24-12.88-12.24-4.22 0-13.81 3.09-12.96 15.79.84 12.71-4.22 15.47-6.9 15.39.88 1.5 2.94 2.91 4.1 3.22-2.99 1.88-5.56 2.38-9.55 1.99 2.47 8.44 21.17 10.05 21.17 10.05l1.89.13c.67.1 1.42.15 2.26.15 16.34 0 24.05-1.32 19.56-11.59-1.8-4.13-7.21-8.68-6.69-22.9z"/><path fill="#bebec0" d="M19.45 21.04v13.3c0 1.69 2.02 5.5 4.79 8.2v9.92c0 1.18 2.62 2.13 5.86 2.13s5.86-.95 5.86-2.13v-9.92c2.78-2.7 4.79-6.51 4.79-8.2v-13.3h-21.3Z" opacity=".28"/><path fill="#1a73e8" d="M38.24 47.73c-.66-.85-1.3-1.32-1.74-1.55-.73.1-3.59 3.77-3.59 3.77l-2.82 2.83-3.13-3.18s-2.55-3.32-3.28-3.42c-.44.23-1.08.7-1.74 1.55-4.78.95-7.99 2.69-7.99 4.7v7.62h32.28v-7.62c0-2-3.21-3.75-7.99-4.7z"/></svg>