<svg xmlns="http://www.w3.org/2000/svg" viewBox="0 0 60.05 60.05"><path fill="#fff" d="M47.44 24.92c0-9.22-7.8-14.17-17.41-14.17S12.61 15.7 12.61 24.92c0 1.11.12 2.2.33 3.25.94 6.72 3.4 19.9.99 22.31.77.77 2.42 1.09 4.39 1.16a15.89 15.89 0 0 1 .69.02h.8c.22 0 .44 0 .66-.02h.09c.22 0 .44-.02.66-.03h.09c.23-.01.45-.03.68-.04h.07l.72-.06h.03c1.26-.11 2.48-.26 3.55-.41h.05c.19-.03.38-.05.56-.08.03 0 .07-.01.1-.02.16-.02.32-.05.47-.07.04 0 .07-.01.11-.02.15-.02.29-.05.43-.07.03 0 .06 0 .09-.01.14-.02.28-.05.41-.07h.05l1.41-.25s5.13 1.02 9.68 1.16c.14 0 .28 0 .42.01h.76c.23 0 .45 0 .67-.01h.21c.1 0 .2 0 .3-.02.09 0 .18 0 .27-.02.09 0 .18-.01.28-.02.1 0 .2-.02.29-.03.08 0 .16-.02.23-.02l.47-.06c.06 0 .11-.02.17-.03l.31-.06c.06-.01.12-.03.18-.04.1-.02.2-.05.29-.07.05-.01.1-.03.14-.04.14-.04.27-.08.39-.13.02 0 .04-.02.07-.03.1-.04.2-.08.29-.13.04-.02.07-.04.11-.06.08-.04.15-.09.22-.13l.09-.06a2.76 2.76 0 0 0 .25-.21c-2.41-2.41.06-15.62 1-22.33.2-.96.3-1.94.32-2.95v-.28zM35.18 42.13c.94 1.92 1.93 4.35 1.93 5.06-2.02 0-5.2 2.53-7.08 2.53s-5.06-2.53-7.08-2.53c0-.71.99-3.15 1.93-5.07-4.56-1.85-8.09-6.08-9.36-11.34 0-5.92 15.53-3.75 16.16-12.69 1.09 1.33 5.66 7.68 13.38 8.63-.1 7.09-4.18 13.1-9.87 15.41z"/><path fill="#1a73e8" d="M38.46 47.13c-.68-.88-1.34-1.36-1.8-1.6-.75.1-5.27 1.65-5.27 1.65l-1.36 2.53-1.36-2.53-5.27-1.65c-.46.24-1.12.72-1.8 1.6-4.94.98-8.26 2.79-8.26 4.86v7.89h33.38v-7.89c0-2.07-3.32-3.88-8.26-4.86z"/><path fill="#bebec0" d="M45.05 26.72c-7.72-.95-12.29-7.29-13.38-8.63-.63 8.94-16.16 6.77-16.16 12.69 1.27 5.26 4.8 9.49 9.36 11.34-.94 1.92-1.93 4.36-1.93 5.07 2.02 0 5.2 2.53 7.08 2.53s5.06-2.53 7.08-2.53c0-.71-.99-3.14-1.93-5.06 5.68-2.31 9.76-8.32 9.87-15.41Z" opacity=".37"/></svg>