<svg xmlns="http://www.w3.org/2000/svg" viewBox="0 0 60.05 60.05"><path fill="#bebec0" d="M45.43 26.95c-.25-8.21-7.05-12.62-15.4-12.62s-15.16 4.4-15.4 12.62c-.74.03-1.34 1.01-1.34 2.21s1.17 2.66 1.92 2.66h.04c1.44 4.83 5.17 8.66 9.94 10.24-.84 1.75-1.7 3.88-1.7 4.51 1.87 0 4.31 6.86 6.04 6.86s5.17-6.86 7.03-6.86c0-.63-.86-2.77-1.7-4.51 4.76-1.57 8.5-5.41 9.94-10.24h.04c.76 0 1.92-1.43 1.92-2.66s-.6-2.19-1.34-2.21z" opacity=".09"/><path fill="#fff" d="M40.01 17.03c-1.67-2.03-5.18-3.56-9.63-3.56-6.13 0-12.85-.82-14.13-4.15-.69 2.12.41 6.65 1.6 9.54-2.03 2.13-3.24 5-3.24 8.56 0 .9.08 1.78.23 2.63.45-2.29 1.68-4.63 4.68-6.6 2.75 1.01 6.45 1.63 10.51 1.63s7.75-.62 10.51-1.63c3 1.97 4.23 4.31 4.68 6.6a15.31 15.31 0 0 0 .23-2.63c0-4.7-2.11-8.2-5.43-10.39z"/><path fill="#1a73e8" d="M37.81 46.52c-.63-.81-1.24-1.26-1.66-1.48-.69.1-3.43 3.6-3.43 3.6l-2.7 2.7-2.99-3.04s-2.44-3.17-3.13-3.26c-.42.22-1.03.66-1.66 1.48-4.56.9-7.63 2.57-7.63 4.48v9.05h30.83V51c0-1.91-3.07-3.58-7.63-4.48z"/></svg>