<svg xmlns="http://www.w3.org/2000/svg" id="Layer_2" viewBox="0 0 65.25 136.84"><defs><clipPath id="clippath"><path d="M54.05 33.97v94.39H11.2V33.97h42.85Z" style="fill:none"/></clipPath><style>.cls-4{fill:#1a73e8}.cls-5{fill:#0c2b77}.cls-6{fill:#448aff}</style></defs><g id="Layer_2-2"><path d="M61.64 78.71H3.52C1.06 78.71-.12 69.43 0 60.6.1 52.62 1.28 45 3.51 45h58.12c2.29 0 3.49 7.61 3.6 15.6.13 8.83-1.07 18.11-3.6 18.11Z" class="cls-6"/><path d="M61.64 78.71H3.52C1.06 78.71-.12 69.43 0 60.6h65.23c.13 8.83-1.07 18.11-3.6 18.11Z" class="cls-4"/><path d="M27.09 9.57h11.07V1.62c0-2.16-11.07-2.16-11.07 0v7.95Z" class="cls-6"/><path d="M54.05 24v104.36H11.2V24c0-10.08 8.19-18.26 18.27-18.26h6.32c10.09 0 18.27 8.18 18.27 18.26Z" style="fill:#1d3ba9"/><g style="clip-path:url(#clippath)"><path d="M34.95 85.18c.12.26.18.51-.21.57-.47.08-.68.41-.83.8-.12.34-.34.59-.67.74-.24.11-.46.16-.69-.05a.926.926 0 0 0-.41-.2c-.64-.11-1.04-.69-.86-1.34.09-.33.03-.48-.3-.54-.21.31-.41.62-.62.94l-.65.03c-.25.37-.45.78-.18 1.21-.25.38-.54.16-.78.15-.33.33-.38.64-.13 1.05.11.18.03.48.04.74l.39.24q.46.29.32.8c-.02.09-.06.19-.04.26.15.46-.08.77-.42.99-.35.23-.31.69-.62.93-.12.09-.15.3-.24.51-.38.07-.76-.05-1.11-.29-.21-.14-.24-.36-.25-.57.19-.24.59-.11.65-.46-.22-.3-.7-.13-.86-.59.13-.13.28-.26.42-.4.16-.17.13-.43-.01-.48-.37-.13-.42-.49-.66-.83-.08.21-.11.33-.17.43-.17.32-.66.46-.94.28-.31-.2-.45-.66-.28-.96.04-.07.12-.14.19-.18.44-.23.88-.45 1.36-.7-.12-.12-.28-.21-.31-.34-.04-.13.05-.29.09-.49.26.11.46.2.68.3.19-.1.39-.2.62-.32-.12-.29-.23-.56-.34-.82-.11-.24-.23-.47-.4-.81-.14.23-.22.35-.29.47-.18.28-.38.54-.77.42-.37-.12-.48.29-.82.34.44.6.17 1.08-.19 1.54-.07.09-.13.18-.18.27-.19.34-.42.39-.7.14-.32-.28-.5-.64-.59-1.06-.08-.36-.22-.42-.56-.31-.19.06-.38.12-.6.18.21.23.47.41.57.65.11.28.06.62.09 1.06-.57-.35-.95.3-1.45.01q.04.53.44.64c.53.14.58.31.21.73-.07.08-.17.16-.21.26-.45 1.03-.51 1.07-1.57 1.02-.06.11-.11.23-.18.37.07.05.12.1.17.11.44.05.67.33.85.7.09.19-.09.34-.04.43.1.22.29.4.44.58.08-.04.13-.05.15-.08.45-.58.55-.6 1.23-.29.29.13.6.21.93.32.06-.18.12-.35.18-.55.19-.01.38-.03.57-.04-.07-.34-.14-.64-.21-.95.46-.38.88-.07 1.32-.04.1.42.23.79.65.9-.1.55-.4.77-.88.74-.33-.02-.62.03-.92.16-.15.06-.33.05-.53.07-.04.3-.13.61-.11.91.01.19.1.46.44.37.06-.01.15.14.27.25-.57.06-1.06.08-1.54.16s-.84-.1-1.17-.42c-.39.85-.63.9-1.65.34.02-.11.04-.24.08-.36.05-.12.13-.23.2-.34-.52-.49-.52-.54-.21-1.28-.26-.26-.52-.53-.84-.86-.41.04-.89.09-1.39.14-.02-.27-.04-.47-.06-.75-.35.23-.67.2-.98.05-.35-.16-.41-.29-.33-.73.02-.1 0-.22-.02-.33-.14-.62-.14-.65.14-1.18-.12-.07-.25-.14-.44-.25-.04.75-.34 1.28-.92 1.64l.03-.02c-.06-.06-.12-.13-.19-.2-.22.12-.41.23-.61.34l-.09.86c-.31.13-.54.1-.71-.15-.21-.32-.07-.61.12-.93.11.06.22.11.4.21-.15-.47-.28-.87-.41-1.27h-.07c0 .2 0 .4-.02.6-.02.22-.17.31-.37.33-.22.03-.35-.11-.4-.3-.04-.13 0-.27-.01-.41 0-.17.01-.35-.02-.52-.07-.35-.08-.35.31-.73.19.17.38.34.55.49.24-.23.45-.59.72-.65.43-.09.57-.41.77-.65.4-.06.35.31.53.47.17-.19.34-.37.5-.56.2-.24.31-.53.73-.53.17 0 .42-.21.38-.54-.04-.42-.02-.42.46-.52.04 0 .07-.05.16-.11-.02-.21-.05-.45-.07-.69.59-.31.68-.29 1.01.3 0-.23.02-.37.01-.51-.01-.3.1-.51.34-.71.25-.21.48-.26.74-.08.23.16.46.27.76.17.38-.12.56.24.81.4.41-.03.68-.2.85-.58.16-.37.46-.55.88-.53.16 0 .32.01.43.01.28-.17.53-.32.79-.47.05-.12.08-.39.2-.44.15-.06.37.06.69.13-.09.01-.04.02 0 0 .64-.41.71-.31.99.31.14.32.15.32.46.51.08-.26.14-.52.25-.75.09-.2.21-.42.38-.53.36-.24.66-.06.77.39.02.06.05.12.07.19.11.01.21.03.34.05v.57c.11-.14.24-.23.23-.3-.08-.37.14-.56.4-.72.34-.22.69-.24 1.03 0 .13.09.25.19.4.31.23-.15.3-.62.73-.43.03.01.12-.12.19-.19.11-.11.21-.29.35-.32.6-.14.61-.75 1.03-1.14-.67-.1-1.25-.18-1.73-.25-.25-.26-.46-.44-.63-.64-.17-.21-.31-.45-.49-.71-.16.09-.34.2-.55.32-.08-.09-.16-.14-.19-.22-.13-.34-.4-.44-.71-.4-.29.03-.53 0-.79-.15-.13-.08-.35-.04-.51-.02-.24.04-.51.2-.7-.06-.2-.28-.54-.54-.34-.97.04-.08.06-.17.12-.34-.58.11-1.04-.07-1.43-.36.01-.31.04-.6.02-.88-.02-.58.09-.8.63-.99.23-.09.48-.13.78-.21 0-.1-.02-.23-.03-.36-.06-.64.03-.76.64-.87.14-.03.28-.08.5-.16-.47-.4-1.18-.36-1.23-1.09-.17.02-.3.03-.48.04-.17-.2-.42-.38-.43-.71 0-.35-.25-.39-.5-.41-.1-.43.2-.66.42-.9.19-.21.45-.46.71-.51.47-.09.95.06 1.35.32.16.1.27.18.48.16.3-.03.42.27.62.44-.25.31-.49.6-.76.94l.77.64c.22-.1.42-.18.71-.31 0 .23.05.39 0 .5-.04.09-.21.18-.31.17-.27-.03-.24.13-.25.31.19.13.44.23.58.41.11.15.1.41.17.76.18-.27.28-.4.36-.55.31-.52.58-.57 1.02-.19.12.1.23.22.34.34.19-.13.11-.27 0-.4-.12-.16-.26-.3-.43-.5-.09 0-.25.04-.4.02-.53-.06-.7-.27-.69-.82 0-.25.01-.5.02-.76.39-.19.77-.41 1.17-.15.18.12.41.32.42.49.02.36.26.6.44.78.25.25.19.42.09.65-.06.14-.16.27-.24.4.05.28.49.2.44.55-.03.21-.18.65-.38.91q-.54-.2-.49-.82c-.38.69-.87.52-1.37.25-.05.07-.09.11-.12.17-.31.8-.53.94-1.38.94-.31 0-.62.06-.92.09v.86c.27-.03.5-.05.73-.08.29.2.06.48.17.79.48.28 1.07.37 1.73.45.06.24.12.52.18.79.31-.27.63-.54.93-.8.39.04.54.34.73.61.29-.04.6-.15.87-.1.27.05.52.25.82.4.73-.11.95.03 1.25.82.09.23.25.43.37.65.05.08.07.18.12.3q-.45-.1-1.26.34c0 .38-.02.78-.03 1.21.36 0 .76-.04.94.43-.21.31-.56.18-.88.29.13.49-.19.81-.53 1.2.4.05.41-.35.77-.38.14.09.37.23.59.37v-.02Zm-15.88 1.99c-.13.12-.32.23-.41.4-.12.2-.26.3-.48.33-.2.03-.39.09-.56.14 0 .17.03.34-.03.47-.04.11-.19.17-.29.25.42.1.78.22 1.14.28.36.06.73.05 1.14.07 0-.5.35-.71.73-.78.27-.05.57.06.84.14.33.09.45.05.56-.22-.31-.11-.64-.19-.93-.33-.18-.09-.32-.23-.55-.11-.07.04-.22-.01-.31-.06-.27-.16-.52-.34-.87-.57Zm.61 4.4c-.09-.11-.13-.2-.19-.24-.43-.24-.43-.6-.29-1.01.05-.15.1-.3.19-.55q-.64.7-1.19.71c.28.48.15 1.08.57 1.5.3-.14.58-.26.91-.41Zm2.09 3.31-.09-.05c-.2.25-.39.51-.66.86.28-.09.43-.13.56-.18.07-.22.13-.43.19-.63Zm5.56-9.01q.28-.49-.1-.64c.03.19.05.35.1.64Zm2.65-24.54c.47-.1.65-.33.52-.76.66-.13 1.11.2 1.5.55.19.17.11.48-.03.7-.08.13-.2.23-.33.38.57.32 1.14.63 1.28 1.47.03-.06-.04.02-.04.1.01.49-.32.76-.63 1.06-.46.44-.74.46-1.24.05-.21-.17-.41-.34-.62-.52.05-.27.65-.29.35-.77-.26.25-.41.62-.86.63-.08-.07-.18-.16-.28-.24-.26-.19-.39-.16-.61.08-.16.18-.35.35-.61.61-.13-.29-.23-.51-.33-.75-.55.66-1.03 1.05-1.6.69-.03.36-.26.42-.57.38-.26-.35.04-.5.34-.7-.26-.08-.45-.13-.65-.19 0-.06-.03-.13-.01-.19.03-.13.11-.25.1-.38-.06-.82-.06-.82.27-1.55-.31-.17-.64-.15-.99-.12l-.6.6c-.4-.09-.42-.42-.48-.56.15-.46.26-.81.38-1.18-.17-.15-.33-.28-.52-.44-.18.12-.34.25-.52.33-.13.06-.33.12-.44.07-.46-.25-.82-.11-1.17.2-.05.04-.11.06-.17.08-.16-.15-.26-.38-.07-.46.29-.11.22-.32.3-.51.08-.2.23-.39.38-.56.13-.15.29-.28.51-.49-.33-.02-.56-.03-.84-.05.12-.31.24-.57.32-.84.08-.25.13-.52.19-.78.42-.02.77-.04 1.29-.06-.21-.15-.29-.2-.37-.25-.06-.04-.13-.06-.17-.11-.23-.38-.1-.76.02-1.12.08-.25.52-.45.82-.36.21.06.35.06.56-.03.16-.07.44.04.62.14.08.04.06.27.1.46-.25 0-.42 0-.6.01l-.23 1.03c.62.17.58.82.88 1.29.46.02.91.52 1.42.05.28.23.56.41.78.66.11.12.13.34.13.51.01.5-.22.9-.64 1.25.49-.08.9-.15 1.42-.23.17-.12.34-.38.42-.71.08-.34.21-.66.67-.74-.11-.2-.17-.42-.27-.44-.51-.13-.69-.58-.97-.92-.62.45-.77.46-1.12.13-.31-.3-.38-.53-.16-.84.12-.17.34-.34.54-.37.2-.03.42.1.66.17.05-.08.11-.15.14-.23.13-.3.38-.41.67-.34.46.12.73-.06.91-.48.08-.19.24-.26.5-.16l.03.63q.66.38.68 1.58c-.27.22-.6.42-.84.7-.22.26-.34.6-.55.97.21.22.27.55.21.96-.04.28.15.6.25.91Zm-2.96.03c-.23.16-.41.28-.58.4q.41.26.52.81l.98.95c.13-.29.22-.5.31-.71-.59-.35-1.31-.52-1.23-1.45Zm-2.1-1.01c.45.17.6-.1.75-.39q-.75-.39-.79-1.29c-.19.06-.38.12-.53.17-.02.27-.04.5-.06.71q.57.31.64.8Zm-2.19-1.12c.08.46.52.29.7.51.21-.25.39-.46.58-.69-.46.06-.84.12-1.29.18Zm8.21 3.22s.04.07.05.07c.1-.03.2-.05.29-.11.02-.01 0-.12 0-.18-.08.02-.17.02-.23.06-.05.03-.07.11-.1.16ZM16.9 59.11c.07-.14.15-.27.24-.44-.24-.11-.46-.21-.73-.33-.02-.19-.04-.42-.07-.68.07-.05.2-.11.3-.19.29-.24.34-.43.08-.69-.3-.29-.2-.52-.03-.75-.11-.23-.27-.42-.27-.61 0-.17.16-.37.29-.51.24-.25.48-.27.73-.1s.19.38.1.61c-.03.08-.06.17-.1.28.32.16.27.71.78.65v.55c.13.03.26.09.38.07.12-.02.23-.15.35-.17.1-.01.21.1.32.09.13 0 .25-.07.42-.12q-.41-.38-.78-.14c-.06-.04-.14-.08-.2-.13-.62-.48-.64-.6-.22-1.26q.34-.52.85-.81c-.24-.03-.42-.03-.58-.08-.21-.06-.42-.15-.62-.26-.22-.12-.15-.34-.16-.55-.01-.35-.25-.67-.19-1.04 0-.01-.11-.04-.19-.07-.2.39.02.88-.32 1.23-.04.04.07.24.12.4-.49.03-.93.06-1.43.09-.03.09-.09.26-.17.42-.17.36-.22.71-.13 1.12.1.43-.03.54-.57.57-.24-.31.03-.55.13-.83-.15-.06-.31-.09-.44-.18-.26-.17-.49-.2-.75-.01-.07.05-.22-.03-.4-.06-.21.47-.35 1.07-1 1.28-.12-.15-.29-.33-.4-.53a.66.66 0 0 1-.02-.44c.03-.12.16-.21.24-.33.11-.17.12-.34-.05-.5-.43-.02-.55.45-.87.56-.34-.16-.66-.31-.99-.47.08-.43.36-.67.7-.8.32-.12.59-.52 1-.08.16-.35.27-.6.38-.82-.15-.19-.32-.33-.39-.52-.03-.08.13-.24.27-.48.12.29.2.47.28.68.21-.03.45-.07.68-.1 0 .28.02.53.02.8.29-.05.55-.09.86-.15.01-.1.02-.23.03-.32-.3-.18-.58-.35-.85-.51 0-.17-.02-.28-.01-.39.03-.63.39-.91.99-.75.19.05.35.2.51.31.18.13.18.3.17.53-.01.25.17.53.29.77.02.04.29.03.29 0 .1-.34.41-.66.13-1.11.46-.23.91-.39 1.45-.11l.11-.51c-.07-.06-.1-.11-.14-.12-.22-.06-.45-.08-.66-.16-.36-.14-.49-.38-.43-.75a.85.85 0 0 1 1.19-.63c.19.09.33.16.6.06.31-.12.72-.06 1.04.17.22.15.4.31.39.6 0 .09 0 .19.03.27.19.55.19.55.06 1.06.32-.02.6.06.67.41.1.51-.19.8-.76.95.5.35.92.05 1.31.25-.23-1.03.04-1.43.88-1.39.03.03.05.06.08.1.03.17.07.35.11.6-.09.15-.39.27-.24.63.13.32-.27.43-.42.74.13-.03.22-.02.29-.06.23-.14.23-.15.64-.04-.02.12-.03.25-.05.39.13.15.28.33.45.52-.6.2-.61.2-.87-.28-.14-.26-.31-.21-.46-.12-.01.31.02.6-.05.86-.08.34-.5.08-.66.31-.14-.16-.26-.3-.45-.52-.11.39-.2.68-.03.93.18.26-.02.42-.09.65.1.08.19.16.3.25.03-.05.07-.08.07-.1-.01-.13-.06-.27-.05-.4.04-.44.29-.57.71-.39.17.07.34.14.49.24.22.14.38.41.71.21.03-.02.16.13.28.22-.12.16-.22.3-.35.48-.13-.09-.23-.17-.35-.25-.07.08-.15.16-.23.24.1.12.19.22.28.33-.29.52-.76.4-1.2.42-.05-.14-.08-.24-.12-.34-.36.12-.71.24-1.18.41-.1.19-.25.49-.4.79h.02c-.22.16-.63-.11-.74.31 0 .02-.1.05-.12.04-.39-.28-.78.04-1.17-.02v.03Zm1.19-1.82c-.3.29-1.01.23-.78.93l.73.16c.04-.08.09-.11.09-.15 0-.31-.02-.63-.03-.94Zm10.23 46.54c-.29-.03-.5-.06-.72-.09.1-.26.21-.45.24-.66.07-.39.24-.63.5-.6.32.03.62.49.52.83-.07.24-.17.47-.26.74.13.14.26.28.41.45.05-.04.09-.1.15-.12.09-.04.2-.1.29-.09.17.04.19.2.13.33-.05.12-.16.2-.23.32-.05.09-.07.2-.1.29.3.14.56.27.82.39.08.04.18.1.25.07.38-.13.59.15.85.3.25-.12.49-.24.71-.35.14.11.24.19.36.28.19-.18.37-.36.56-.55l.44.1c.16-.75.68-.7 1.26-.66.01.34.09.64.02.91-.09.33.09.52.22.74-.47.5-.91.58-1.51.34-.3.16-.55.29-.85.45-.09.37-.2.77.21 1.14.17.15.23.43.31.66.03.09-.02.21-.03.32 0 .11-.03.22 0 .32.11.34.25.66.36 1 .03.09-.05.21-.05.32 0 .14.01.28.03.53.24-.15.38-.24.46-.29 0-.37 0-.68.01-.98.05-.02.09-.04.14-.05-.16-.14-.31-.28-.49-.44.21-.28.33-.5.51-.66.26-.24.42.11.63.16.14.47-.29.67-.51 1.02.24.09.44.16.61.22.42-.19.28-.63.48-.94.13.07.23.15.35.19.35.14.68.31 1.1.19.23-.06.53-.19.77.05q0 .64-.58.74c-.06.28-.11.57-.19.85-.07.22-.22.34-.48.27-.09-.03-.19-.08-.26-.05-.41.16-.65-.07-.86-.36-.04-.05-.1-.08-.19-.15-.19.21-.12.63-.48.66-.22.02-.44-.03-.72-.06-.44.19-.96.42-1.51.66.39.44.44.98.46 1.53 0 .21.14.41.21.61.61.05.83.17.87.48.05.39-.22.51-.53.63-.14-.1-.29-.21-.44-.32-.05.06-.11.1-.13.16-.09.28-.23.5-.55.54-.25.03-.39-.12-.36-.37.06-.4.3-.6.73-.62.08 0 .15-.03.33-.06-.28-.28-.52-.24-.79-.23-.24 0-.48-.09-.71-.14-.19.14-.35.26-.57.42-.46-.53-1-.94-1.67-1.15q.28-.87-.03-1.3c.38-.7 1.07-.9 1.69-.48.33.22.58.26.98.13-.21-.26-.42-.51-.64-.79.15-.23.28-.42.4-.61.11-.17.21-.33.38-.61-.42.02-.73.01-1.03.07-.63.11-.87-.11-.72-.72.02-.09.09-.21.05-.25-.34-.46-.27-1-.23-1.51-.32-.11-.76.16-.89-.34.07-.19.15-.38.22-.57-.42.16-.73.46-1.23.23.02-.09.04-.19.06-.29.05-.22-.27-.41-.06-.63.15-.16.32-.31.53-.5-.36-.22-.46-.58-.49-1.01-.29 0-.56.02-.84.03 0-.16-.03-.3-.01-.44.05-.43.26-.58.65-.4.21.1.37.15.56.02.04-.03.06-.11.11-.23Zm3.1 2.91c-.14-.18-.28-.35-.4-.52-.88.33-.92.39-.95 1.28.15-.3.14-.7.45-.64.25.05.46.31.72.5.26-.15.55-.32.89-.52-.08-.14-.15-.26-.22-.39-.14.08-.29.17-.49.28Zm-10.68-2.65c-.13.06-.24.1-.33.15-.2.11-.35.23-.37.51-.04.39-.48.58-.75.34-.24-.21-.42-.47-.81-.36-.04.01-.22-.22-.19-.29.19-.52.33-1.07.84-1.43.17-.12.29-.11.43-.06.39.16.39.17.83.1-.37-.57-.09-1.18-.12-1.77 0-.1 0-.22-.05-.3-.39-.56-.29-.82.43-.97-.05-.1-.09-.2-.15-.33-.12.03-.23.05-.33.08-.41.13-.8.2-1.08-.26-.1-.16-.28-.13-.49-.07-.42.12-.53.47-.73.77.06.06.13.12.17.16-.2.29-.4.57-.63.89.16.1.24.19.34.2.46.05.57.35.65.75.11.59-.05 1.02-.56 1.34-.2.12-.36.31-.58.51-.17-.57-.32-1.09-.48-1.65-.09.01-.24.03-.41.06-.03.19 0 .41-.1.51-.1.11-.33.1-.49.16-.12.04-.24.11-.36.16-.25.1-.5.27-.75.28-.35 0-.63.1-.88.36-.24-.26-.36-.47.07-.71-.2-.24-.37-.45-.53-.64-.32.09-.55.16-.79.23-.22-.3-.28-.64-.18-.94.09-.27.27-.57.5-.71.25-.15.62-.23.9-.16.25.05.45.06.64-.05.39-.22.89-.26 1.14-.72.13-.23.36-.33.64-.3.16.02.31 0 .52.01-.05-.2-.1-.37-.14-.53.25-.39.59-.27.86-.16.13-.23.22-.44.36-.6.14-.17.32-.3.46-.42-.11-.5-.46-.53-.8-.53-.26 0-.75.41-.77.69-.02.3-.14.52-.32.74-.4.49-1.02.65-1.6.42-.08-.03-.21-.07-.23-.13-.09-.33-.35-.44-.62-.58-.11-.06-.21-.26-.21-.39 0-.39.08-.77.44-1.03.28-.21.46-.46.19-.87.26-.18.49-.33.68-.46.42.18.41.49.42.77l1.61.47c.3-.51.57-1.1 1.3-.81.31-.25.58-.47.83-.68.34.11.49.31.42.58-.11.4-.44.41-.8.31-.07.18-.12.31-.2.54.48 0 .9.01 1.36.02.06.4.32.58.66.69.16.05.29.2.45.29.11.06.27.17.36.13.48-.21.65.14.92.43-.31.31-.6.59-1.12.47.08.08.16.23.23.23.48 0 .68.29.84.67.08.18.18.36.29.56-.33.06-.71.13-1.16.21-.01.15-.06.32-.04.49.02.25.1.49.11.74 0 .23-.02.47-.24.61-.48.31-.63.75-.45 1.31Z" class="cls-5"/><path d="M15.33 49.12c-.33.36-.57.66-.86.91-.19.17-.45.36-.71.05-.03-.03-.08-.08-.11-.07-.4.12-.47-.22-.6-.51-.31.24-.56.52-.87.64-.31.12-.67.1-1 .14-.09-.1-.17-.2-.29-.33-.5.67-.12 1.24.08 1.86-.21.16-.41.32-.63.49.25.34.79.25.94.76-.09.23-.19.53-.32.82-.15.32-.41.38-.74.21-.12-.06-.24-.14-.34-.23-.08-.07-.14-.17-.24-.28-.15.06-.29.12-.44.18-.12-.1-.24-.2-.35-.3-.04-.34.18-.49.44-.61 0-.18.01-.36.02-.59-.16.06-.3.11-.43.15q-.09-.34.24-.66c-.16-.15-.33-.3-.52-.48-.1.06-.18.13-.28.16-.42.13-.68-.04-.71-.48-.01-.24.06-.49.09-.79-.2-.31-.72-.55-.58-1.03.12-.41.15-.94.73-1.09.18.1.39.18.55.31.17.14.3.32.43.47.24-.19.49-.37.75-.57.32.29.54.64.85.75.38.14.16.74.64.74.28-.92.48-1.04 1.62-.99.21-.69.41-1.45 1.53-1.18-.24-.54-.44-1-.67-1.51-.07-.03-.23-.1-.38-.17.04-.26.21-.4.38-.37.33.06.51-.13.68-.33.49.34.7.9.56 1.38-.03.11-.08.21-.13.32-.38.77-.36.85.44 1.27.16-.37.32-.77.77-.85 0-.17 0-.3-.01-.45.61-.31 1.17-.02 1.8.12-.02-.2-.04-.38-.06-.57-.35-.1-.66-.21-.99-.28-.84-.2-.7-.55-.66-1.16 0-.07.04-.13.07-.23-.15-.12-.31-.24-.47-.37-.01-.25-.03-.5-.04-.75.22-.34.55-.53.92-.43.46.13.65.53.66 1.02.26.02.49 0 .71.05.22.04.47.07.63.2.34.26.66.35 1.07.21.13-.04.3.04.47.07.03.5-.02.88-.56 1.05-.14.04-.33.25-.34.39-.03.42-.25.83-.08 1.27.11.27.1.54-.13.81-.1-.04-.25-.06-.32-.15-.2-.24-.03-.47.11-.76h-.72c.2.46.09.93.51 1.21.28 0 .57-.02.91-.03-.03.23-.03.39-.08.53-.12.32-.49.44-.71.2-.32-.36-.66-.48-1.15-.39-.44.08-.84-.17-1.21-.51-.26.39-.39.93-.9.73Zm1.54 24.07c.11-.69.13-.71.84-.8.12.48-.35.51-.53.69-.02.4-.04.76-.06 1.14.2.13.43.28.76.49.2-.04.53-.12.9-.2.29.52.03.93-.26 1.36.06.19.31.33.18.59-.09.18-.18.36-.03.58.04.06-.02.22-.07.32-.22.39-.59.57-1 .65-.26.05-.5-.08-.65-.31-.18-.3.05-.5.23-.72-.16-.12-.3-.23-.47-.35.09-.12.17-.22.31-.39-.17-.14-.34-.27-.55-.44.34-.12.69-.27.77-.66.03-.13-.08-.29-.12-.41-.1-.01-.14-.03-.18-.02-.63.19-1.08.6-1.41 1.16-.01.02-.08.02-.19.04.09-.17.15-.3.24-.47-.19-.18-.22-.54-.63-.54-.09 0-.17-.27-.25-.41-.43.09-.16.47-.3.72-.33-.24-.63-.44-.94-.66-.36.17-.73.34-1.14.53-.03-.22-.05-.41-.07-.63-.29.1-.58.19-.83.27-.34-.36.01-.66-.05-.96-.23-.17-.41-.06-.56.09-.27.26-.6.32-1 .32-.04-.1-.07-.24-.15-.33-.09-.08-.23-.11-.38-.17.27-.42.65-.59 1.16-.63 0-.26.03-.51 0-.75-.05-.34.05-.63.21-.92.22-.38.31-.42.78-.35.13.02.3.06.39 0 .35-.22.67-.1.96.09.32.21.63.47.68.9.01.11.01.22.02.42.27-.04.5-.07.86-.13-.49-.27-.6-.61-.57-1.03 0-.04-.13-.08-.2-.12.14-.2.28-.41.42-.62.27-.4.67-.62 1.12-.73.15-.04.35.06.49.14.36.21.71.44 1.1.69-.28.3-.55.62-.86.9-.31.29-.66.54-1.06.86.43.21.59.64 1.03.68.3.45.69-.01 1.06.1Zm14.18-16.88q-.49-.29-.4-.8c-.25-.16-.49-.32-.74-.48-.3-.2-.51-.43-.48-.84.01-.2-.15-.4-.25-.66.21-.03.4-.03.55-.1.12-.06.2-.22.27-.39-.4.14-.73-.08-1.08-.15-.41-.08-.63-.4-.84-.72.35-.4.71-.36 1.09-.19.23.1.45.21.69.26.17.04.4.05.52-.04.53-.37 1.01-.32 1.51.08.21-.22.41-.44.62-.64.39-.35 1.11-.41 1.53-.12.09.06.14.17.2.26.21.31.32.39.67.26.4-.15.64 0 .88.29.24.28.55.5.53.92 0 .11 0 .29-.05.32-.42.18-.53.76-1.04.8-.48.04-.92-.04-1.19-.56-.71.28-1.31.06-1.8-.48-.35.18-.35.41-.2.69.15.27.22.55.09.85-.2.11-.4.21-.58.32-.18.11-.35.24-.56.39q.02.3.21.57c.29-.18.59-.37.91-.57.32.07.5.32.58.65.06.27.16.46.5.44.11 0 .22.18.34.28-.15.14-.26.24-.36.33.03.08.04.13.07.16.26.19.56.34.47.75-.01.06.08.15.13.23.34.5.26.83-.27 1.17-.21.13-.4.27-.67.45-.07-.02-.23-.09-.37-.07-.5.05-.78-.33-.96-.63-.19-.31-.39-.48-.71-.56-.06-.02-.11-.07-.18-.11-.07-.54.47-.4.73-.7-.1-.48-.21-1.03-.34-1.65Zm-11.21 6.78c-.14-.62.16-.89.43-1.17.52.12.21.9.79.91q-.11.7.28 1.26c.82-.2 1.1-.01 1.35.48.96.14 1.18-.1 1.33-.69.82.12 1.17.7 1.39 1.4-.21.31-.39.13-.6-.02-.1.19-.18.37-.27.54.05.04.08.09.12.09.16 0 .32-.03.47 0 .37.08.54.38.49.77-.03.22-.02.44-.04.73-.1.1-.45.06-.4.43.01.1-.21.3-.37.35-.27.09-.57.11-.89.17-.06.15-.14.34-.21.52-.47.16-.83.41-1.03.88-.15.34-.49.47-.85.47-.29 0-.51-.34-.34-.58.16-.23.1-.4.04-.63-.09-.3-.13-.62-.2-.99-.09-.03-.23-.07-.45-.13.15-.3.28-.57.43-.88-.33-.16-.63-.36-.99-.21-.14-.16-.25-.33-.4-.45-.11-.09-.35-.09-.4-.19-.09-.2-.12-.43-.13-.66-.01-.29.01-.58.02-.95l.28-.28c-.15-.16-.29-.3-.47-.49-.05.17-.09.31-.14.49-.5-.19-.94-.44-1.26-.85-.11-.14-.09-.37-.12-.53.35-.09.63-.18.91-.22.14-.02.31.01.44.07.21.08.4.2.77.4Zm2.27 3.44c.69.51.73.6.49 1.32l.6.06c.06-.42.14-.77.16-1.13 0-.09-.14-.28-.22-.28-.44.02-.59-.27-.74-.6-.02-.05-.1-.07-.2-.14-.04.28-.07.52-.1.77Zm-1.07-2.16c-.43.28-.43.32-.04.62.01-.21.02-.4.04-.62Zm1.79 58.21-.18.12c-.48.32-.92.18-1.11-.36-.13-.36-.25-.72-.41-1.16.08-.35.36-.61.76-.76.29.06.6.07.84.2.21.12.34.38.51.57q-.56.57-.18 1c.15-.08.3-.16.46-.25.12-.07.22-.16.35-.22.57-.26.57-.25.09-.82.1-.18.22-.38.41-.72.15.41.18.79.36.9.32.2.14.51.3.74.43.11.58-.32.91-.44-.08-.53-.05-1.04-.52-1.31.17-.55.59-.24.88-.38.02-.2-.3-.5.11-.63.36-.11.46.2.67.44.1-.09.19-.18.29-.25.18-.11.35-.04.36.14.01.22.08.38.22.55.21.26.31.53.14.88-.1.21-.03.43.33.57-.01-.25-.03-.42-.03-.59 0-.58.3-.98.87-1.06.32-.04.62-.1.91-.23.05-.02.13.03.2.06.12.32-.26.76.26.98.29 0 .53-.09.62-.46.05-.2.26-.3.5-.18.23.12.31.28.2.5-.08.16-.21.29-.36.49l1.09.24-.29 2.02c-.27.15-.35-.08-.41-.35-.39-.19-.74-.1-1.09.13-.07.05-.16.11-.25.11-.1 0-.22-.04-.28-.11-.04-.04-.03-.19.02-.24.09-.12.22-.22.35-.33-.07-.29-.14-.57-.21-.84-.04 0-.08-.02-.08 0-.62.64-1.33.4-2.03.18-.09-.03-.16-.08-.28-.14-.38.27-.79.41-1.27.26-.13-.04-.4.04-.43.12-.15.52-.53.38-.93.3.06.49.1.92.14 1.28-.47.38-.89.74-1.31 1.08-.19-.04-.38-.15-.52-.1-.54.17-.87-.07-1.16-.48-.07-.31.18-.5.3-.73.14-.26.22-.51-.08-.72Zm-11.87-6.71c-.41-.16-.12-.44-.08-.71l-.72-.16c.06-1.07.42-1.41 1.34-1.29.05.12.1.27.16.4.06.12.11.29.21.34.42.2.4.48.24.85-.16.37-.24.74-.08 1.18.23.61-.16 1.36-1.07 1.41.16.3.4.57.44.87.05.28-.11.6-.19.95.11-.04.23-.04.29-.11.41-.42.83-.53 1.33-.33.21.08.4.19.64.31.22-.67.01-1.37.38-2.05.12.18.2.29.27.4.04-.01.09-.02.13-.04q.7-.52 1.33.08s.1.09.1.08c.55 0 1.04 0 1.53-.01.23-.18.46-.38.71-.58.39.28.44.68.37 1.01-.06.33-.33.62-.52.94-.18-.23-.33-.42-.51-.63-.13.18-.23.33-.32.45.08.32.17.6.2.89.04.37-.11.55-.42.58-.4.04-.66-.13-.66-.5 0-.33.03-.64-.35-.8-.03-.01-.01-.13-.01-.19v-.26c-.48.15-.67.73-1.27.75l.29.25c-.25.07-.43.17-.62.17-.42 0-.8.12-1.15.36-.28.19-.72.17-.73.6-.52-.06-.23-.78-.77-.74-.02.09-.05.17-.07.25-.55-.12-1.06-.29-1.38-.8-.04-.07-.14-.11-.21-.16-.25-.19-.5-.37-.77-.58-.01.02-.08.1-.15.17-.13.15-.27.25-.48.14-.19-.1-.33-.25-.33-.48 0-.47.22-.75.72-.9.1-.03.2-.08.33-.13.04.18.07.3.11.48.35-.33.66-.22.94.11.15-.18.26-.32.37-.46-.19-.34-.28-.67-.23-1.06.05-.41.11-.77.56-.91.04-.01.05-.12.07-.18.16.03.36.18.43-.11.01-.05-.07-.13-.12-.21-.13.13-.22.23-.31.33Zm3.32-50.44c-.31.13-.63.27-.94.41-.02.28-.01.55-.06.81-.05.28-.26.43-.54.44-.25 0-.36-.16-.46-.35-.21-.43-.09-.86.38-1.29-.15-.33-.31-.67-.47-1.01-.04 0-.07.01-.11.02-.02.27-.03.54-.07.8-.02.12-.06.29-.15.35-.5.33-1.01.61-1.66.34-.03-.21-.06-.41-.1-.67-.24.02-.46.05-.75.08-.22-.27-.49-.58-.2-1.05.35.05.69.1 1.07.15.01-.14.05-.23.02-.3-.03-.07-.13-.13-.2-.17-.41-.24-.67-.55-.53-1.09-.21-.09-.39-.22-.58-.24-.33-.02-.44-.22-.49-.48-.05-.33-.06-.67-.08-1.04-.27-.08-.49-.34-.84-.43-.39-.1-.49-.77-.22-1.1.04-.05.09-.11.14-.15.28-.21.57-.41.85-.61.38.43.74.84 1.15 1.31l.65.05c.11.29.22.56.32.84.25.03.5.06.79.1.09.44.38.63.85.47.09.28.17.52.24.76.13.17.49-.03.52.36-.48.33-1.25.37-1.42 1.17.32.01.63.03 1.08.04.12-.06.38-.2.64-.32.32-.15.61-.19.83.17.05.08.2.1.3.15l-.02-.03c-.07.43.33.48.65.67-.13.17-.19.31-.31.38-.18.12-.35.21-.32.47h.02Zm16.71 1.27c.37-.37.72-.72 1.07-1.08.23.07.44.14.65.2.62-.69.81-.71 1.67-.18-.08.14-.2.29-.23.44-.02.14.07.3.1.45 1.1.05 1.43.54 1.14 1.83.43-.62.94-.65 1.54-.56.12.58.63.85 1.01 1.22.28.26.49.54.51.98-.24.28-.52.57-.76.89-.09.11-.1.29-.14.44-.05.19.02.43-.25.51-.28.09-.42-.1-.57-.28l-.19-.22c-.53.1-.9-.21-1.24-.56-.25-.26-.21-.61-.16-.91.06-.38.13-.73-.29-.93.08-.21.13-.36.19-.5-.04-.03-.08-.08-.11-.07-.17.03-.35.06-.54.1-.24-.4-.46-.77-.68-1.14-.26-.12-.6.41-.83-.1.04-.35.46-.69.07-1.17-.16.4-.45.67-.42 1.12.04.5-.15.94-.65 1.24.22.28.42.53.65.81-.16.13-.28.25-.41.31-.17.08-.24.18-.23.37.01.29-.18.5-.42.56-.36.09-.74.51-1.13-.06.01-.09.05-.21.05-.34 0-.11-.02-.22-.03-.38.26-.12.71-.03.74-.53-.3-.16-.62-.32-.94-.49.03-.36.05-.67.08-1.02-.1-.07-.23-.17-.4-.29.06-.18.09-.4.21-.54.24-.29.56-.38.94-.12ZM16.7 112.97c.21-.37.57-.39.97-.21.18.08.36.16.54.23.2-.21.2-.36.03-.51-.12-.11-.25-.2-.36-.32-.26-.27-.29-.58-.04-.85.2-.21.45-.38.67-.56.22.12.42.2.58.32.15.11.21.37.52.31-.23-.29-.43-.57-.62-.81l-.72-.16c.2-.52.39-.93 1-1 .08.19.15.37.24.58.32-.23.63-.21.95 0 .18.12.38.21.61.33l-.62.87c.18.16.36.32.5.45.24-.31.45-.58.63-.82.5-.06.8.2 1.18.41.02.26.04.55.06.88-.26.07-.49.14-.74.2.09.15.19.31.32.51-.45.13-.68.39-.8.79-.08.27-.31.49-.47.71-.44-.12-.47-.49-.52-.91q-.21.52-.07 1.08c-.34.12-.72.19-.99.49-.04.04-.14.05-.2.04-.43-.11-.87-.21-1.29-.36-.4-.14-.78-.32-1.12-.46-.08-.42-.15-.76-.24-1.22Z" class="cls-5"/><path d="M14.26 63.95c.04-.53.24-1.01.59-1.4.14-.15.16-.32.04-.41-.1-.08-.29-.04-.44-.04-.03 0-.06.07-.09.09-.34.25-.5.24-.73-.04-.1-.12-.15-.28-.25-.46.14-.07.27-.14.43-.22-.15-.26-.3-.52-.45-.77-.13.1-.27.21-.46.37-.16-.28-.31-.53-.44-.79-.3-.63.08-1.03.53-1.38-.11-.21-.2-.38-.29-.54.09-.21.19-.38.25-.57.17-.61.34-.76.98-.84.09-.01.18-.03.24-.04.12-.15.24-.28.38-.46.23.32.31.7.81.81-.22.12-.37.17-.46.27-.1.11-.14.27-.23.45.1.08.19.14.27.21.06.05.09.13.2.28l-.56-.12c-.11.22-.23.46-.4.81.47-.11.83-.2 1.22-.29 0-.15-.01-.28-.02-.43.22.12.43.23.66.36-.03.16-.04.31-.08.47-.05.21-.04.38.05.59.35.81.28 1.08-.36 1.69.21.26.46.4.82.35.21-.02.43.05.66.09.05.28.05.51.13.72.12.34-.05.6-.24.81-.19.21-.42.36-.78.22-.23-.09-.53.07-.64-.31-.02-.07-.24-.09-.41-.14-.04.09-.08.16-.11.24q-.2.58-.83.42l.02.03ZM38.04 94.3c-.24.17-.42.29-.6.42-.05.04-.11.12-.16.11-.55-.06-.66.4-.84.73-.62 0-.64 0-.79-.45-.08-.26-.2-.4-.52-.38-.2.33-.47.58-.93.61-.39.02-.73 0-.95-.28-.43.03-.82.05-1.25.07-.06.51-.51.54-.93.58-.32.03-.57-.4-.49-.76.03-.13.13-.24.17-.37.03-.1.04-.21.05-.29.34.04.66.07.98.11.06-.22.11-.41.17-.6.05-.16.14-.24.33-.29.45-.11.45-.17.15-.57a.727.727 0 0 1 .43-1.17c.38-.08.78.13.76.55 0 .18.03.35.06.53 0 .04.06.06.11.11.31.05.7-.37.96.18.17-.49.52-.62.92-.68.16-.02.32-.02.46-.08.23-.09.44-.3.7-.16.28.14.63.27.79.51.3.46.65.96.42 1.57ZM8.22 81.89c.21-.06.41-.11.64-.17.22-.44.24-1.06.91-1.28.11.1.23.22.29.28.56-.02 1.05-.03 1.67-.05.49-.31.77-.32 1.09.03.22.24.16.43-.31.99.01.25.01.49.04.74.02.12.06.28.15.34.2.14.14.35.04.4-.31.17-.55.51-.99.42-.25-.05-.53.01-.84.03.19.55.65.94.43 1.58-.21.12-.47.24-.71.41-.12.08-.21.23-.31.35-.33.4-.73.37-.99-.08-.05-.08-.11-.17-.11-.25.01-.55-.28-1-.48-1.48-.07-.17-.13-.35-.13-.53 0-.1.14-.3.2-.29.23.03.3-.17.45-.25.14-.08.28-.14.44-.22-.22-.76-.81-.86-1.47-.96Zm.22 4.76-.17.17q-.58.52-.15 1.19s0 .04-.03.11c-.19.14-.62-.12-.67.3.18.25.35.48.52.72.03.04.03.11.06.12.45.12.35.54.48.88-.5.09-.97.38-1.44 0-.14.3-.24.58-.39.82-.33.58-.9.67-1.49.63-.24-.02-.5-.08-.58-.39-.08-.33-.47-.22-.65-.44-.14-.34-.03-.65.14-.96.1-.18.13-.4.19-.58.31-.12.65-.26 1.05-.42-.14-.19-.25-.34-.38-.52.07-.18.15-.36.22-.55-.04-.07-.08-.13-.11-.19-.39-.77 0-1.37.86-1.31.54.03 1.09-.1 1.61.17.1.05.27-.02.4-.05.24-.04.39.06.51.32Zm-2.06 2.02c-.23.07-.46.02-.62.22.33.15.61.28.92.42-.11-.23-.19-.41-.3-.64Zm33.02 15.12c-.21-.21-.39-.42-.46-.73-.1-.42-.4-.62-.83-.63-.54-.02-.92-.25-1.1-.76-.09-.26-.14-.54-.49-.58-.05 0-.11-.08-.14-.14a.899.899 0 0 0-.8-.44c-.09-.23-.16-.44-.24-.64.26-.25.55-.5.86-.38.46.19 1.04.25 1.3.82.27-.04.49-.12.7-.33.21-.21.4-.12.51.18.18.45.18.45.65.38.2-.03.42-.05.61 0 .22.05.4.02.58-.1.33-.22.6-.11.87.17-.03.17-.04.35-.09.52-.07.22-.04.39.11.57.08.1.13.23.17.35.07.23.12.47.2.78-.38.68-1.06.95-1.87.98-.18 0-.36-.01-.54-.02l.02.03Zm-26.25 5.04c-.69.08-1.38.16-2.15.26-.34-.14-.43-.59-.69-.9-.03-.03-.05-.1-.03-.13.25-.41-.06-.72-.18-1.07-.07-.21-.05-.45-.08-.69.25-.2.5-.39.72-.61.1-.1.14-.26.21-.4.1-.2.17-.42.3-.59.19-.26.45-.39.8-.07.02-.21.03-.33.05-.45.07-.48.57-.7.97-.44.15.1.29.22.44.3.58.28.67.5.42 1.07-.04.08-.1.15-.15.21-.41.14-.77.1-1.07-.19-.13.32-.25.59-.39.91 1 .36.92 1.23.89 2.07.25.31.46.63.88.71.11.02.27.16.29.27.04.19.03.41-.05.58-.04.08-.28.11-.42.09-.49-.08-.67-.32-.79-.92Zm10.08 4.9c.09-.02.11-.03.13-.03.83-.02.83-.02 1.05-.88.06-.21.16-.42.24-.62-.32-.32-.55.03-.88.11-.15-.11-.37-.23-.54-.39-.29-.28-.31-.42-.15-.71.15-.28.39-.54.7-.45.55.16 1.14.29 1.65.66-.09.13-.13.24-.21.31-.17.14-.14.34-.03.42.12.09.33.1.49.08.09 0 .18-.13.26-.22.26-.31.56-.25.87-.11.2.09.43.52.42.74-.02.27-.36.69-.64.75a.87.87 0 0 1-.39-.04c-.19-.08-.35-.2-.56-.32-.13.09-.27.19-.43.29.12.06.22.11.32.15.08.7-.62 1.05-.74 1.68.27.54 1.03.15 1.34.7-.39.44 0 .98-.13 1.47q-.37.21-.98.03c-.25.16-.44.51-.88.46-.27-.37-.7-.67-.6-1.3.09-.59.63-.71 1.01-1.07-.35-.08-.63-.14-.92-.2-.69-.16-.89-.65-.54-1.27.04-.08.09-.15.14-.24ZM21.26 76.9c.39.02.77.09 1.16.06.48-.03.91-.04 1.15.52.26-.23.47-.42.74-.66.05.19.08.31.11.43-.4.07-.21.52-.49.73.27.25.53.49.81.76l-.12.54c-.55-.04-.56-.04-.7-.75-.04 0-.09-.03-.13-.01-.06.02-.12.06-.16.09-.01.04-.02.06-.02.08.03.2.07.4.11.64.09.03.2.05.29.1.07.04.11.12.16.19-.08.04-.16.1-.25.13-.09.04-.21.03-.29.08-.07.04-.1.16-.17.21-.38.3-.69.28-1.16-.06-.2.15-.4.31-.61.47-.45-.31-.47-.71-.39-1.15-.37-.1-.73-.06-1.03-.35-.19-.19-.6-.23-.81.17-.28-.31-.31-.57-.16-.88.06-.13.08-.3.1-.45.03-.24.04-.49.09-.73.02-.09.15-.19.24-.21.32-.07.54-.46.96-.26.01.13.02.29.04.51.19-.08.37-.15.54-.22l-.03.02ZM6.53 93.12c.07.19.13.36.21.58.65-.5 1.4-.47 2.17-.6.13-.27.27-.63.79-.61.09.17.19.37.3.6.26.11.74-.03.68.57-.4.19-.21.79-.66 1.09-.25-.11-.52-.24-.82-.38-.28.33.04.75-.14 1.09-.16.31-.28.65-.43 1.01l-.84-1.06c-.18.4-.34.76-.5 1.11-.38.15-.51-.2-.73-.36-.3-.21-.14-.5-.17-.65.28-.27.5-.5.77-.76-.14-.1-.25-.22-.31-.2-.61.17-1.17.02-1.76-.24-.12.33.15.75-.3.92-.31.12-.6.2-.9.03-.09-.7-.04-.76.76-1.06 0-.33-.07-.76.27-.93.48-.24 1.01-.42 1.61-.14ZM28.22 44.8c.25.11.41.26.36.58-.03.2 0 .2.32.31.03-.08.08-.16.1-.25.03-.15.05-.31.07-.45-.27-.15-.52-.26-.74-.42-.56-.41-.48-1.32.13-1.66.15-.09.32-.18.43-.31.44-.5 1.05-.55 1.54-.11.22.19.44.37.71.6.14-.33.2-.71.59-.79.32-.07.63-.32.98-.08-.1.95-.31 1.16-1.27 1.21-.28.01-.47.13-.6.37-.09.18-.22.34-.37.57.26.24.55.5.91.82.16.66-.14 1.2-1 1.66-.25-.13-.53-.28-.81-.41-.1-.05-.23-.09-.32-.07-.42.11-.76-.14-1.11-.26-.44-.14-.5-.36-.29-.79.1-.19.09-.47.38-.53ZM14.26 65.44c.25.11.48.25.78.15.07-.02.17.02.25.05.55.21.74.14 1.03-.37.04-.08.09-.15.15-.26.11 0 .22 0 .33.02.09.01.17.05.24.06.85-.71 1.05-.7 1.73.07-.06.23-.15.49-.2.76-.04.26-.04.53-.05.86-.2.32-.6.35-.99.37-.26.01-.5-.09-.58-.42.18-.33.41-.7-.04-1.13-.11.45-.41.81-.17 1.27.25.49.08.95-.22 1.32-.31.38-.77.57-1.29.51-.08 0-.19-.06-.23-.12-.17-.27-.45-.26-.72-.31-.5-.09-.84-.56-.78-1.09.08-.67.26-1.29.78-1.77h-.02Zm25.13-9.01c.16.25.32.5.47.76.24.42.09.93-.34 1.16-.14.07-.29.13-.44.18-.29.09-.59.17-.91.26v-.3c-.04 0-.11 0-.12.02-.21.36-.21.36-.49.51-.18-.46.2-.7.42-1.04-.17-.18-.34-.34-.52-.53.15-.25.49-.4.37-.77-.04-.03-.1-.08-.16-.09-.62-.1-1.12-.54-1.15-1.14-.01-.25-.06-.43-.25-.59-.26-.2-.28-.45-.1-.77.12-.02.27-.04.42-.06.11-.02.28-.02.31-.08.23-.43.74-.5 1.04-.83.29.04.59.01.71.41.04.15.27.23.4.36.46.49.44 1.2-.08 1.61-.25.2-.29.44-.34.77.25.07.5.14.76.21v-.02Zm-17.63-4.4s-.06-.06-.08-.1c.08-.22-.27-.48.08-.68.51.15 1.02.31 1.54.47.08.02.19.05.26.02.46-.21.73.02.96.39.02.03.07.05.14.09.3-.21.61-.43.93-.64 0-.26 0-.52-.01-.79.35-.08.73.02.88-.38 0-.28-.24-.38-.43-.55-.15-.14-.23-.35-.37-.58-.16.03-.39.07-.61.11-.11-.33-.2-.6-.31-.9.92.21 1.77.62 2.68.69l-.29 1.33c.12.29.32.74-.13 1.21.43.22.31.69.57 1.03-.59.36-.91-.08-1.29-.3.05-.15.09-.27.16-.5-.18.07-.34.07-.38.14-.12.22-.11.44.11.61.24.2.19.39-.03.56-.21.17-.43.33-.67.53-.12-.12-.21-.21-.34-.35-.18.14-.37.29-.56.44-.41-.09-.45-.45-.54-.81-.43-.1-.86-.18-1.26-.31-.27-.09-.58-.17-.62-.54-.02-.23-.21-.2-.36-.2ZM19.92 73.3c.14-.16.24-.25.31-.36.07-.11.19-.27.15-.35-.18-.46.1-.87.07-1.31.28-.16.51-.22.8-.09.14.06.37.05.51-.02.67-.33.72-.33 1.25.29.3-.06.63-.32.93-.07.24.2.46.44.46.86-.18.13-.39.26-.57.42-.14.13-.35.3-.35.46-.01.43-.2.84.07 1.29.32.54.01.94-.61.91-.2-.01-.4-.08-.63-.13.01-.17.08-.38.01-.5-.08-.13-.3-.17-.44-.28-.48-.39-1.09-.5-1.6-.84-.11-.07-.2-.17-.37-.31ZM4.67 56.51c-.09.13-.16.24-.23.35-.07-.03-.13-.04-.14-.07-.05-.26-.03-.56-.39-.63-.32-.52-.94-.86-.9-1.6.02-.33.07-.56.39-.72.26-.13.52-.27.57-.62.02-.11.21-.24.34-.29.58-.22 1.24-.26 1.67.58.12.24.25.49.42.69.21.24.38.18.48-.12.05-.16.11-.32.18-.53.45.38.85.68.67 1.3h-.32c-.29-.01-.47.12-.56.4-.08.23-.2.45-.26.68-.09.39-.43.47-.72.53-.39.08-.81.06-1.2.08Zm24.32 43.34c.22.03.44.06.64.09.02.47.04.87.05 1.28-.58.14-.64.12-.86-.32-.09-.18-.18-.31-.46-.22 0 .11-.01.24-.01.36 0 .33-.06.58-.35.83-.33.28-.49.75-.82 1.04-.28.25-.38.56-.61.9-.22-.16-.45-.33-.68-.49-.22-.15-.44-.29-.72-.47.27-.29.48-.52.72-.78 0-.2-.02-.45-.04-.76-.33-.09-.71-.19-1.1-.29-.17-.45.11-.75.33-1.06.06-.09.29-.17.36-.12.43.26.74-.04 1.08-.18.04-.02.09-.01.16-.02.23.18.47.37.78.61.09-.59.2-1.07.9-1.04.07.16.16.37.25.57.09.19.23.2.4.09h-.02Zm19.05-23.52c-.62.86-.67.86-1.91.16-.18.52-.66.72-1.1 1-.3-.23-.6-.46-.9-.71-.36-.31-.38-.94 0-1.25.2-.17.46-.27.77-.45.02-.08.09-.25.12-.43.11-.69.63-.98 1.21-1.17.18-.06.38-.08.57.09.11.1.33.08.5.08.25 0 .39.11.45.33.09.31.12.63-.03.94-.1.22-.19.46-.28.68.21.26.39.48.59.72ZM27.18 95.74c-.24-.33-.43-.57-.62-.82.11-.12.16-.2.23-.25.07-.05.16-.06.29-.1.14.43.71.59.64 1.15.39-.03.77-.05 1.14-.08.1-.13.2-.27.3-.4.08.06.14.09.14.12 0 .27-.04.55-.03.82 0 .19.05.38.08.56.37.01.66-.01.95.04.38.06.28.48.43.7.34-.04.66-.11.99-.09.11 0 .24.2.32.33.2.37.11.57-.48 1.08.06.16.13.32.19.49.1.3.06.45-.14.51-.25.07-.44-.05-.52-.3-.07-.24-.14-.47-.2-.71l-.19-.76c-.15.04-.31.05-.45.11-.68.29-.85.25-1.29-.31-.62-.09-1.2-.17-1.85-.26.11-.27.19-.44.28-.65-.34-.33-.58-.71-.19-1.15Zm10.68-45.66c-.69-.3-1.26-.55-1.33-1.28-.42-.15-.88-.13-1.2-.5-.07-.08-.31 0-.46-.03-.38-.06-.52-.35-.27-.62.21-.23.36-.43.29-.78-.04-.22.05-.5.16-.72.07-.15.26-.31.41-.33.59-.06 1.2-.08 1.64.43.1.11.23.31.19.41-.17.44.12.79.15 1.19.77.06 1.21.47 1.44 1.19-.4.28-1.04.27-1.01 1.03Zm-24.2 79.2c.18.29.39.5.39.85 0 .19.16.43.32.56.25.21.2.64.61.75.17.04.31.22.49.36-.09.14-.42.05-.36.36.03.17-.11.22-.26.24-.19.02-.32-.05-.36-.23-.05-.24-.09-.48-.16-.88-.15.32-.21.48-.19.69.01.18 0 .36-.05.53-.07.22-.28.15-.45.18-.15.03-.27.21-.44.34-.17-.1-.34-.19-.52-.29-.18.08-.36.17-.55.24-.19.07-.38.12-.58.18-.11-.28-.22-.55-.34-.84.23-.41.68-.26 1.02-.41-.16-.25-.35-.5-.48-.76s-.14-.54.15-.73c.29-.19.26-.65.63-.77.3-.1.61-.18.91-.27.06-.02.13-.03.24-.06ZM.17 64.53c.42-.02.7-.47 1.2-.44.12 0 .27-.22.38-.35.31-.35.72-.34.83.09.09.37.31.56.56.81.64.64.48 1.56-.28 2.02-.31.19-.57 0-.84.03-.26.03-.49.21-.75.27-.11.02-.27-.07-.36-.16-.25-.23-.57-.45-.68-.74-.18-.47-.44-.98-.06-1.53Zm40.38 5.46c.33-.06.73-.11 1.12-.2.17-.04.31-.19.47-.25a2 2 0 0 1 .58-.12c.25-.01.33.18.42.38.09.2.31.34.38.54.17.54-.1 1-.68 1.24-.2.08-.45.04-.53.34-.02.06-.24.1-.35.08-.19-.05-.37-.16-.57-.25-.17.2-.31.36-.44.53-.27-.2-.59-.73-.84-1.4-.34-.16-.68-.29-.99-.47-.21-.12-.44-.29-.34-.6.08-.23.54-.38.83-.27.29.11.57.27.94.45ZM12.6 97.05c-.55.21-.72-.35-1.12-.47-.02.16-.03.29-.05.47.08.04.18.08.26.15.23.18.26.45.16.68-.06.14-.27.29-.41.29-.51-.01-1.02.28-1.54.09-.08-.18-.12-.39-.24-.5-.34-.32-.28-.63-.08-.98.12-.22.26-.44.33-.67.13-.48.5-.67.94-.84l.38.66c.08-.31.15-.56.22-.84-.23-.15-.6-.13-.61-.48 0-.09.14-.19.2-.27.46.29.89.54 1.3.81.6.39.73.95.4 1.58-.06.12-.11.24-.15.33Zm26.14-18.23c-.19.63-.68.83-1.18.99-.22.07-.4.15-.6.29-.81.57-1.21.5-1.93-.17-.2-.19-.39-.36-.62-.51-.1-.06-.15-.2-.25-.34.17-.07.29-.12.42-.16.19-.07.32-.16.47-.33.29-.36.68-.69 1.21-.5.23.08.39.04.57-.08.27-.17.56-.17.86-.11.27.06.52.11.63.44.06.17.26.3.42.48ZM10.5 41.71c-.29.4-.69.36-1.01.45-.04.19-.03.38-.12.51a.87.87 0 0 1-.44.31c-.14.04-.32 0-.47-.06-.3-.11-.58-.26-.75-.58.08-.25.47-.31.39-.67-.05-.25-.13-.47-.26-.69-.26-.43-.17-.86.19-1.22.13-.12.24-.27.38-.43.38.17.74.22 1.15.05.3-.13.37.02.51.34.21.46.18.86-.09 1.22.19.28.36.53.51.76Zm13.64-2.78c-.34-.16-.6-.28-.86-.41-.23-.12-.35-.32-.27-.57.12-.35 0-.62-.21-.89-.18-.24-.11-.44.08-.67.32-.4.69-.49 1.15-.34.34.11.7.19.95.48.07.46-.74.51-.42 1.09.15-.02.32-.04.49-.05.34-.03.57.13.74.4.18.28.07.53-.11.76-.07.09-.16.17-.24.25-.24.23-.59.34-.7.7-.02.07-.13.13-.2.18-.2.11-.6.05-.69-.11-.12-.2-.1-.39.08-.55.06-.06.1-.14.19-.26ZM13.31 69.74c-.3-.11-.68.06-1-.2-.06-.05-.18-.04-.26-.03-.61.1-.85.02-1.36-.48-.11.03-.24.05-.37.1-.26.11-.47.11-.66-.16-.06-.09-.22-.13-.34-.15-.15-.03-.31-.03-.49-.04-.13-.47 0-.8.4-1.06.37-.24.75-.42 1.18-.42.15.21-.02.49.27.62.2.09.36.25.55.39.05-.03.13-.04.17-.09.35-.41.77-.46 1.3-.38.48.07.7.32.78.72.07.39.23.81-.17 1.19Zm17.11 20.74c-.17-.41-.29-.75-.45-1.07-.16-.32-.36-.61-.58-.98.5-.16.91-.3 1.34-.42.13-.04.29-.05.4 0 .46.23.92.48 1.36.75.08.05.13.18.16.29.06.22.13.42.33.58.09.07.1.28.11.42.01.24 0 .48-.02.77-.46.37-.56.4-1.01.05-.48-.37-.98-.57-1.65-.4Zm8.38 28.83c.47.66.52 1.53.11 2.09-.08.11-.2.28-.28.27-.46-.04-.88.25-1.3.2-1.07-.13-1.29-.73-1-1.65.09-.28.25-.52.15-.83-.07-.21.08-.37.25-.43.12-.04.31.01.42.09.24.16.43.25.75.16.25-.07.56.05.91.1Zm-17.21 10.7c-.2.59-.95.47-1.15.95-.5-.1-.39-.48-.51-.73-.76.04-1.53.09-2.31.13-.29-.18-.47-.6-.95-.51-.11.02-.25-.23-.4-.31-.13-.07-.3-.09-.47-.14.04-.28.14-.49.44-.4.39.12.81-.08 1.19.14.08.05.25-.06.4-.11-.23-.36-.59-.34-.9-.38-.14-.78.45-.85.87-1.06.28.16.28.38.21.61-.09.28.04.48.24.7.15-.01.33-.03.51-.05.62-.08.99.12 1.27.69.26.52.28.54.82.32.26-.11.51-.23.73.12Zm-8.39-54.1.44.24c.46-.15.86-.28 1.23-.41.33.25.38.51.27.87-.09.32-.21.53-.56.6-.13.03-.24.18-.35.29-.06.06-.1.2-.16.21-.47.08-.55.52-.79.82-.13.16-.27.3-.52.26-.1-.02-.22.05-.32.08-.41.12-.66.02-.81-.37-.1-.25-.17-.52-.2-.79-.01-.13.06-.37.16-.41.49-.22.78-.69 1.27-.91.13-.06.2-.28.33-.48Zm20-14.15c.23.05.39.07.54.12.37.11.53.05.72-.25.12-.19.25-.39.42-.52.63-.52 1.45-.23 1.69.57.03.1.08.21.15.29.15.18.37.34.27.59-.12.29-.26.61-.49.79-.37.29-.79.56-1.37.42-.11-.32-.5-.47-.65-.86-.07-.19-.44-.31-.7-.36-.43-.07-.57-.31-.57-.79ZM17.8 84.87c-.01.13-.07.28-.03.39.07.19.09.3-.13.36-.05.02-.12.09-.12.14 0 .19 0 .4-.21.46-.16.05-.35 0-.52 0-.68-.05-.92-.15-1.41-.61-.19.04-.39.09-.59.12-.35.06-.77-.11-.9-.35-.17-.33-.16-.69.02-.9.24-.26.65-.36 1-.22.19.07.37.17.57.26v.68c.2-.2.33-.38.51-.48.17-.1.39-.12.62-.19-.1-.26-.19-.51-.3-.8.35-.07.67-.14 1.01-.21.28.37.54.75.37 1.28 0 .02.06.06.09.08v-.02Zm14.47-12.2c.14-.02.29-.05.49-.08.05.14.11.28.18.46.29.02.6.03.9.05l.19-.88c.06-.03.1-.07.14-.07.79-.08 1 .04 1.33.74.12.24.24.49.34.74.06.17.08.35.12.51-.26.22-.48.43-.74.6-.25.17-1.05.06-1.29-.17-.21-.2-.38-.44-.61-.72-.31.05-.74.13-.98-.24-.16-.25-.27-.58-.07-.92ZM4.14 108.44c-.16.24-.31.48-.46.72-.19.3-.43.57-.38.97 0 .05-.16.13-.28.23-.25-.4-.58-.65-1-.75a.74.74 0 0 0-.36-.02c-.58.16-.87.01-1.01-.55-.06-.23-.03-.48-.05-.81.54.2.8-.07 1.06-.37.15-.17.31-.32.47-.48.29.09.52.28.81.15.09-.04.28.04.38.12.29.24.55.51.83.78ZM25.09 45c-.44.09-.87.36-1.31-.07.02-.18.05-.38.05-.58 0-.49-.17-.72-.68-.92-.27-.1-.28-.15-.15-.68.68-.19.76-.28.83-.94.03-.27.13-.44.38-.49.19-.04.39-.04.61-.07.09.29.16.52.24.76l-.37.54c.05.26.22.32.41.36.35.06.48.33.57.62.04.11.02.33-.05.38-.38.27-.4.7-.54 1.09ZM13.71 80.79q.68-.33.84-1c.44-.16.82-.06 1.19.24.25.21.49.43.84.55.53.18.54.39.2.96-.16-.06-.32-.12-.54-.2-.19.37-.38.72-.55 1.08-.1.21-.1.41.03.64.1.18.12.42.18.64-.68.09-.83-.21-.63-1.09-.28-.45-.57-.89-1.19-.88-.12-.31-.23-.61-.36-.95Zm27.06-24.71c.12-.36.25-.73.37-1.09-.14-.25-.27-.5-.45-.83.23 0 .38-.01.55-.02.08.18.17.36.26.56.35-.11.66-.18.97.1.09.08.3.01.47.01.17.21.34.42.5.62-.23.42-.51.83-.69 1.29-.11.29-.34.41-.55.56-.23.16-.48.3-.78.48-.22-.26-.04-.84-.48-.9-.26-.28.32-.58-.17-.77Zm-14.79 51.13c.04.1.08.21.11.3-.17.31-.34.61-.52.93.16.09.3.16.48.27-.05.39-.07.79-.15 1.18-.06.29-.34.4-.63.26-.31-.15-.76-.04-.91-.51-.12.03-.23.06-.34.08-.43.06-.57-.05-.62-.49-.09-.78.19-1.19 1.03-1.5.11.09.21.19.36.32.28-.5.47-1.12 1.21-.82v-.02ZM.93 55.41c.51.24.16.62.27.9.11.27.11.57.17.87.2.08.4.16.68.28-.14.16-.22.34-.34.36-.34.06-.54.27-.76.51-.39.4-.73.31-1.03-.18-.05-.08-.16-.18-.22-.17-.38.04-.49-.22-.56-.48-.12-.43.04-.85.17-1.25.04-.12.21-.2.34-.27.43-.21 1-.07 1.27-.55Zm24.1-25.42c.87.49 1.14 1.06.93 1.96-.25.15-.52.28-.74.53-.39.43-1.18.28-1.48-.23-.1-.17-.2-.38-.21-.57-.02-.28-.1-.52-.25-.76-.14-.22 0-.5.2-.45.58.12.96-.29 1.43-.45.04-.01.09-.02.13-.04Zm-1.96 74.8c-.08.21-.15.39-.23.62.3.13.56.25.83.37.11.56-.54.8-.51 1.3-.33.29-.66.59-.97.86-.28.06-.33-.35-.63-.22-.25.11-.44-.03-.54-.3.2-.38.58-.57.93-.77-.03-.55-.24-1.02-.49-1.51.55-.14.44-.69.82-1 .4-.03.53.39.8.65Zm1.39-24.51c.12.06.28.19.4.17.39-.06.63.11.89.37.14.14.4.17.66.27-.3.62.15 1.2.07 1.82.02.02.03.04.04.05.36.25.47.44.33.62-.15.19-.6.23-.82.02-.14-.13-.21-.33-.34-.55-.36-.05-.66-.21-.74-.69-.03-.18-.29-.34-.48-.46-.31-.18-.39-.44-.33-.75.06-.3-.08-.66.31-.87Zm1.67-13.13c.21-.11.35-.18.48-.24v-.15c-.31-.58-.22-.91.35-1.22.26-.14.53-.26.84-.41l.67.58c0 .57-.18 1.03-.6 1.24-.05.33-.08.55-.13.83.04.05.13.16.29.35-.64.09-1.17.42-1.76.22-.23-.41.28-.82-.13-1.21Zm-10.27 54.31c.21.18.4.42.65.55.26.14.56.2.65.59-.41.49-.78 1.05-1 1.67-1.24-.13-1.89-.72-1.85-1.67.75 0 .87-.84 1.55-1.15Zm.48 5.76c-.01.2-.02.4-.04.6-.06.59-.67.86-1.16.51-.7-.5-.71-.87-.05-1.46.08-.07.15-.15.23-.24-.94-.52-1.03-.7-.83-1.61.54-.42 1.08-.18 1.6.03.12.05.17.28.25.42-.77.69-.75 1.33 0 1.76Zm14.82-3.19c-.13.23-.45.29-.35.6.02.05-.03.15-.08.18-.54.34-.58.88-.62 1.43 0 .11-.08.21-.12.32-.36-.02-.58-.24-.5-.52.11-.41-.27-.64-.13-.99-.55-.12-.81.68-1.29.26-.19-.39-.38-.74-.52-1.12-.04-.12.02-.31.09-.44.07-.12.21-.07.34-.07.37-.01.73-.13 1.1-.21.06-.01.13-.03.19-.05.03.38.06.74.09 1.09.29.13.54.23.8.35.51-.26-.12-.79.42-1.14.14-.05.41-.06.58.32Zm-16.79-28.9c.25-.4.38-.79.18-1.24-.1-.23.02-.45.29-.6.11.11.24.23.39.38.5-.1.99 0 1.39.42.08.09.25.09.37.15.11.06.21.14.36.25l-.31.31c-.11.11-.25.21-.31.34-.18.37-.34.81-.82.79-.51-.02-1.07-.04-1.4-.56-.04-.06-.07-.12-.14-.24Zm-8.79-9.54c-.67-.08-1.11-.57-1.71-.42-.37-.52-.37-.53-.07-.96.09-.13.21-.25.26-.39.21-.56.56-.75 1-.45.24.16.47.19.72.27.43.13.65.48.73.91.02.1-.03.24-.1.31-.28.27-.58.51-.84.74Z" class="cls-5"/><path d="M32.96 77.28c.83-.13 1.38.55 2.1.66-.09.71-.29.81-1.15.54l-.12.54c-.62-.2-1.35-.19-1.65-.97-.02-.06-.09-.1-.14-.15-.53-.53-.48-.84.19-1.15.01-.13 0-.27.05-.39.04-.09.19-.22.22-.2.1.05.26.19.25.26-.09.34.07.58.26.87Zm2.01 7.91c.07-.28-.12-.54-.02-.86.09-.32.18-.55.5-.64.25-.07.77.15.9.38.1.18.15.37.25.61.42-.25 1-.07 1.31-.57.79.47.88.99.29 1.66-.35-.06-.72-.22-1.1-.03-.06.03-.24-.09-.33-.18-.15-.16-.27-.36-.42-.55-.44.28-.91.28-1.39.17v.02Zm-2.36-14.81c-.02-.27-.03-.47-.05-.72.28-.1.57-.16.83-.29.18-.09.32-.27.52-.45.15.15.33.29.46.47.17.25.29.51.07.82-.1.14-.1.34-.16.53-.12.21-.5-.01-.6.37-.07.26-.34.05-.51-.01q-.36.57-.92.76c-.18-.19-.12-.54-.47-.68-.21-.08-.14-.4 0-.61.14-.22.27-.44.59-.32.07.03.14.07.25.13ZM31 128.37a1.93 1.93 0 0 1-.16-.21c.5-.38.83-.93 1.51-.9.08-.22.15-.42.23-.6.12-.27.37-.39.67-.33.31.05.52.23.57.5.1.5.01.7-.44.99-.07.04-.14.11-.17.19-.29.62-.79.8-1.44.7-.12-.02-.26.04-.37.1-.22.13-.44.24-.69.15-.19-.36.21-.4.3-.58ZM10.91 46.88c-.19.49-.52.74-1 .69-.5-.05-.33-.58-.55-.86-.21-.01-.43-.03-.66-.04-.07-.21-.14-.39-.2-.59-.4.05-.83.15-1.06-.26-.18-.31 0-.61.22-.87.29-.05.54-.04.75.19.3.33.79.29 1.13.56.8.02 1.1.59 1.37 1.17Zm15.67 23.7c-.45.52-.57.53-1.55.11 0 .23-.01.44-.02.65-.6.09-.75-.03-.7-.58.01-.15.02-.3.03-.48h-.58c-.02-.26-.09-.47.26-.54.15-.03.28-.2.41-.31.14-.11.26-.28.42-.32.25-.08.51-.29.78-.12.38.25.77.51.88.99.05.19.03.4.04.61l.02-.02Zm-5.67 48.28c-.1-.28-.18-.5-.25-.73 1.34-.32 1.6-.24 2.24.77.03-.19.05-.33.09-.53.2-.03.41-.11.63-.11.54 0 .76.31.56.81-.11.28-.31.56-.55.74-.17.13-.47.08-.76.12v-.85c-.11.21-.16.3-.2.39-.18.33-.55.38-.67.05-.2-.56-.61-.63-1.1-.66ZM42.57 86.4c-.28-.02-.53-.04-.78-.06-.08-.29-.15-.56-.23-.88.39-.11.69-.17.96.23.14.21.42.42.79.32-.02-.21-.03-.41-.05-.63.25-.11.45-.33.78-.18.11.36-.03.64-.37.87.14.12.24.2.34.28.3.23.44.64.31.96-.15.4-.49.61-.9.56-.63-.08-.8-.29-.79-.94 0-.17-.03-.35-.05-.54Zm-3.84-13.7c.21.41.62.67.68 1.17 0 .08.2.16.31.22.15.08.31.14.55.24-.29.34-.52.62-.77.87-.47.47-.95.29-1.45 0-.02-.12-.07-.26-.06-.39.03-.31 0-.59-.23-.82-.22-.22-.17-.45.03-.67.25-.26.44-.6.94-.61ZM23.3 100.98c.02.34.02.66.07.96.02.14.11.28.2.39.28.35.33.58.15.85-.26.4-.59.52-.98.25s-.8-.28-1.23-.26c-.21-.27.11-.41.14-.62.02-.13.16-.28.13-.36-.23-.53.13-.75.49-.96.29-.17.59-.36 1.05-.26Zm-19.78 5.15c-.49 0-.94-.06-1.37 0-.24.04-.42 0-.55-.14-.33-.36-.75-.67-.76-1.23 0-.23.05-.4.32-.43.11-.01.23-.03.32-.1.48-.34.92-.12 1.32.14.35.23.71 1.19.73 1.75Zm2.43 17.94c-.15.02-.25.04-.4.06.01-.24.02-.43.04-.66-.36-.11-.64-.24-1.06.02-.77.47-1.6-.15-1.66-1.15.21-.2.42-.4.63-.59.27-.25.89-.2 1.2.09.1.09.21.2.25.32.14.44.31.84.81 1 .07.02.11.19.13.29.03.18.03.36.05.62Zm5.64-66.11c-.22.37-.25.6 0 .89.19.23.41.57.12 1-.29.06-.64.16-.99.21-.25.04-.44-.06-.53-.33-.11-.31-.27-.56-.66-.59-.07 0-.2-.29-.16-.38.13-.27.3-.56.52-.75.21-.17.51-.31.78-.32.27 0 .55.15.91.27Zm32.11 49.47c.28.44.77.42 1.16.62.13.07.32.19.32.28 0 .35 0 .73-.13 1.06-.13.37-.36.44-.77.38-.13-.02-.27-.04-.4-.03-.7.06-1.13-.45-.9-1.11.07-.21.25-.37.35-.57.09-.19.14-.41.2-.61.05 0 .11-.02.16-.03Zm-19.75-8.41s-.07.08-.07.11c0 .47-.22.81-.64 1.02-.99-.3-1.12-.58-.62-1.49-.2-.4-.44-.85-.03-1.29.33-.36.72-.14 1.1-.13.11.19.2.36.32.57-.19.39-.44.8-.04 1.22V99Zm-13.85 4c.24.26.38.44.05.67a.58.58 0 0 0-.25.65c.17.71.02.85-.75.81v-.37c-.08 0-.13-.02-.16 0-.47.36-1.07.37-1.59.59-.27.12-.46-.12-.61-.24.07-.39.13-.74.2-1.16.22-.18.49-.42.91-.44.1.26.19.51.26.71.32.04.6.07.89.1.24.03.38-.12.48-.3.1-.19.15-.41.26-.6.08-.15.2-.27.32-.42Zm8.52 5.47c.06.12.14.23.18.35.08.27-.1.47-.36.41-.2-.04-.43-.09-.56-.22a3.78 3.78 0 0 1-.65-.84c-.24-.44.04-.75.34-1.07.35-.38.64-.41 1.1-.23.14.05.26.18.35.3.14.19.26.4.41.63.13.61-.57.36-.81.66Zm-9.13 24.55c.21.24.41.46.58.65.31.01.34-.4.65-.26.2.09.36.19.37.44 0 .29-.13.57-.41.63-.25.05-.38.22-.56.34-.29.19-.64.29-.96.42a.977.977 0 0 1-.61-.53c-.29-.6-.23-.81.33-1.17.2-.13.37-.31.62-.53Zm4.62 1.29c.18.1.37.2.56.3.09-.08.16-.11.19-.17.1-.21.24-.36.48-.26.11.04.22.18.25.29.05.23.01.46-.26.56-.06.02-.13.05-.18.07-.01.16-.02.31-.03.53l-.78-.17c-.08.09-.16.19-.25.28-.29.27-.87.31-1.21.1-.04-.02-.07-.06-.1-.09-.27-.37.04-1.17.49-1.26.28-.06.57-.11.86-.16ZM7.52 41.11c.11.59-.29.93-.6 1.31-.04.05-.2.09-.25.06-.39-.26-.69 0-1.02.14-.04.02-.09 0-.13 0-.48-.57-.52-.8-.15-1.39.19-.3.32-.67.77-.78.15.3.37.46.74.45.21 0 .42.14.65.21Zm-1.05 6.53c-1.75.2-1.93.11-2.33-1.08.76-.46 1.59-.31 2.08.37.06.09.12.19.19.27.06.06.15.1.23.14.2-.09.38-.18.56-.26.25.1.39.26.37.52-.02.2-.37.6-.58.62-.09.01-.24-.04-.29-.11-.1-.14-.16-.32-.23-.47Zm31.64 14.59c-.4-.33-.55-.7-.5-1.17.03-.31 0-.63 0-.98.38.09.73.29 1.09.65.22-.33.42-.64.63-.97.25.29.67.48.76.95.1.53-.31.75-.65 1.08l-.54-.54c-.27.33-.52.65-.79.99Zm-20.6-22.78c.25-.1.48-.2.72-.28.25-.08.44-.15.5-.47.06-.29.33-.33.6-.29.04.18.1.35.12.52.04.38.19.77-.19 1.12-.14.13-.12.45-.18.75-.35.12-.67.51-1.23.31 0-.3-.22-.6-.05-.94.16-.32-.26-.39-.29-.72Zm12.75 78.23c.24.54.19 1.01-.27 1.42-.29.26-.72.34-.98.07-.3-.29-.56-.61-.98-.73-.03 0-.05-.07-.07-.12.1-.24.21-.49.34-.8.66-.09 1.33-.13 1.99.18l-.02-.03Zm15.1-34.29s.13-.06.2-.03c.37.16.7-.05 1.05-.07.04 0 .09-.04.13-.04.34-.03.72.36.87.91.1.38 0 .57-.36.74-.08.04-.16.07-.24.12-.63.4-1.27.14-1.43-.6-.07-.3-.13-.61-.22-1.04Zm-31.19 4.25c.23-.15.35-.22.49-.31 0-.19.02-.39.03-.62.31-.22.64-.44 1.01-.69.28.51 1.07.47 1.13 1.26-.1.24-.23.56-.36.89-.45-.05-.78-.3-1.13-.35-.33-.05-.68-.04-1.16-.17ZM8 108.5c-.11.02-.2.05-.29.05-.21 0-.36-.12-.38-.32-.02-.2.15-.26.31-.3.11-.03.22-.04.37-.06 0-.15-.01-.29-.02-.46.3.1.59.19.89.29.11-.23.19-.4.28-.58.57.27.64.4.32.89-.15.22-.07.31.04.45.14-.05.27-.09.45-.15.03.28.13.53-.22.57-.32.04-.29.3-.39.53-.66.04-.96-.48-1.38-.91Zm-2.98 12.56c-.09-.5.21-.81.36-1.15.06-.13.28-.2.44-.27.24-.11.5-.19.8-.3l-.28 1.29c.38.12.75.25 1.13.37.24.07.3.24.29.47 0 .24-.1.39-.34.45-.31.08-.58-.02-.74-.31-.05-.1-.08-.21-.1-.26a3.26 3.26 0 0 0-1.56-.28Zm21.86 6.12c.06-.18.12-.37.18-.56.58.3.59.32.27.79-.06.09-.12.19-.18.29-.17.26-.35.39-.68.22-.35-.19-.7-.09-.99.18-.17-.07-.31-.12-.55-.22-.08.09-.21.23-.33.37-.13-.11-.22-.15-.26-.22-.16-.29.04-.49.22-.65.35-.3.74-.56 1.18-.89.47-.04.53.8 1.13.69Zm-.77-78.73c.22-.17.41-.3.57-.45.28-.27.57-.45.98-.31.1.03.21 0 .4 0-.12-.29-.21-.51-.31-.73.93-.19 1.07-.14 1.48.68-.11.04-.24.09-.36.14-.11.04-.21.07-.33.11-.07.24-.15.49-.22.72q-.87.42-2.2-.16Zm19.58 34.01c-.4.68-.94.89-1.65.58-.07.11-.12.23-.22.29-.09.05-.23.07-.32.03-.11-.04-.24-.14-.28-.25-.13-.32.27-.27.36-.46q-.32-.16-.88-.08c-.15-.2-.1-.4.13-.37.46.06.82-.09 1.2-.31.6-.35 1.22-.14 1.67.56ZM22.55 42.14c-.53-.08-1 .16-1.42-.29.11-.27.25-.55.33-.85.05-.2 0-.42-.01-.67.41-.27.88-.18 1.35-.06.25.06.27.13.53.71-.32.31-.76.55-.77 1.16ZM40.4 94.83c.08-.37.12-.7.23-1 .11-.31.71-.58 1.01-.5.43.11.65.42.65.9 0 .7-.18.85-.85.94-.43.06-.75-.03-1.04-.34ZM17.76 82.29c.11-.08.24-.17.36-.27.1-.08.23-.17.27-.28.08-.18.07-.45.31-.48.26-.04.53 0 .8.03.06 0 .11.07.2.14-.05.23-.04.51-.17.7-.22.33-.25.65-.15 1-.97.42-1.46.18-1.63-.82ZM10.3 35.32c-.17.68.64.67.71 1.25-.27.37-.75.47-1.28.56-.17-.57-.73-.32-1.1-.52-.11-.5.11-.82.56-1.02.33-.14.64-.34 1.11-.27Zm.24 93.85c.51-.07.91.13 1.19.67-.15.09-.3.18-.44.26q-.15 1.32-.71 1.74c-.57-.39-.76-1.12-.46-1.68.16-.29.26-.61.43-.99Zm11.97-47.12c.41-.22.7-.55 1.24-.46.17.42.35.88.54 1.37-.07.14-.13.32-.24.46-.42.51-1.05.44-1.3-.17-.15-.36-.16-.79-.24-1.19ZM20.5 36.26c-.18-.14-.35-.27-.5-.4-.37-.32-.4-.44-.23-.89.22-.59.79-.87 1.37-.66.13.05.27.18.33.31.18.39-.03 1.02-.39 1.27-.17.11-.34.22-.58.37ZM18.79 68.7c-.19.36-.49.29-.81.24-.03.11-.08.19-.08.27 0 .29-.15.41-.42.44-.28.03-.45-.16-.51-.37-.1-.34-.16-.7-.18-1.06 0-.15.14-.33.26-.45.14-.14 1.07-.1 1.23.03.09.07.16.17.21.26.1.19.18.4.29.63Zm21.87 28.38c-.08.1-.15.2-.25.33.1.06.19.11.27.18.26.25.26.53-.01.74-.21.16-.41.32-.73.31-.33 0-.56-.09-.71-.4-.12-.24-.26-.47-.4-.73.13-.44.52-.5.88-.61.45-.13.45-.13.96.16ZM5.56 80.79c.02-.34.03-.63.05-.92.03-.5.23-.69.8-.73.44-.03.65.14.76.57.02.09.06.17.08.26.18.63-.16 1.05-.8.96-.29-.04-.57-.1-.88-.15Zm33.82 22.98c.05.15.1.29.16.47-.29.28-.46.71-.98.7-.46-.01-.81-.25-1.1-.59-.18.15-.34.28-.53.44-.09-.14-.17-.26-.29-.44.26-.12.48-.23.7-.33.18-.09.37-.16.53-.27.32-.22.63-.33 1.01-.12.16.09.34.12.52.17l-.02-.03ZM29.12 48.93c.29.22.54.37.74.57.18.18.25.41.1.68-.14.26-.2.55-.32.9-.15-.08-.29-.17-.44-.25-.07-.04-.17-.13-.22-.11-.62.22-.77-.24-.97-.62.32-.45 1-.45 1.1-1.17ZM2.59 48.2c.28-.15.38-.48.71-.43.17.03.38-.04.44.2.06.21-.09.54-.29.54-.29 0-.44.11-.6.33-.12.15-.35.15-.48 0-.18-.21-.4-.25-.64-.31-.39-.1-.51-.34-.45-.78.04-.31.22-.45.57-.45.45 0 .65.15.72.54.02.1.02.2.03.37Zm38.09 40.68c-.09.27-.15.49-.24.69-.08.18-.19.34-.26.44-.3-.09-.56-.2-.83-.24-.35-.04-.67-.12-.93-.38-.01-.03-.04-.08-.04-.12 0-.63.14-.81.74-.67.33.07.57.03.85-.17.21.13.42.27.69.44ZM9.58 55.74c.36-.04.65.06.9.34.14.16.35.25.57.4-.22.24-.41.48-.63.69-.45.42-.94.33-1.27-.22-.08-.13-.18-.25-.27-.36 0-.51.49-.58.73-.85l-.03.02Zm-4.3 53.09c.16-.54.05-1.16.72-1.38.45.81.52 1 .51 1.4l.58.03c.19.58.17.63-.42.89.11.04.2.07.35.13-.1.12-.18.23-.26.33-.08-.03-.13-.04-.15-.06-.15-.25-.31-.49-.44-.75-.14-.26-.47-.51-.89-.59Zm-5.5-72.74c-.23-.51.16-1.1-.35-1.5.2-.36.52-.43.86-.49.3-.05.46.09.63.3.19.23.12.4-.02.61-.07.11-.11.24-.14.37-.04.17 0 .41-.09.49-.18.14-.44.2-.67.27-.05.02-.13-.03-.22-.05Zm18 99.35c-.09-.39.09-.63.23-.89.17-.31.41-.39.74-.34.28.05.57.06.91.09.16.17-.31.45.02.65-.14.2-.27.41-.43.6-.23.27-.6.33-.92.17-.18-.09-.36-.18-.55-.28ZM36.97 82.6c-.43-.19-.78-.34-1.12-.49.06-.38.11-.73.19-1.07.08-.37.34-.5.66-.32.25.14.49.29.71.47.18.16.22.38.14.62-.11.34-.33.59-.57.78Zm-9.04 49.51c-.22.1-.4.25-.58.26-.22.01-.45-.13-.68-.13-.21 0-.41.22-.66-.03.05-.14.1-.3.18-.52-.23.03-.41.05-.58.07-.02-.04-.04-.08-.06-.11.18-.15.34-.33.53-.44.08-.04.27.03.35.12.07.08.05.24.07.36q.52.01.98-.48c.18.15.36.29.64.28.18 0 .4.11.54.24.09.08.12.29.08.42-.02.07-.22.15-.33.14-.15-.01-.3-.1-.47-.17Z" class="cls-5"/><path d="m30.27 117.71.06-.12c.09-.27.08-.61.49-.64.42-.03.83-.04 1.06.42.02.04.06.07.11.12h.49c.25.81-.16 1.21-.86 1.51-.03-.36-.06-.71-.09-1.03l-1.27-.28.02.03Zm-19.18 17.15c.16.16.33.31.47.48.2.24.19.69-.06.87-.25.18-.47.33-.49.67 0 .07-.16.14-.27.23-.4-.45-.43-1.02-.65-1.5-.04-.09.05-.26.12-.37.18-.25.46-.36.89-.38Zm-4.01-32.04c.12-.36-.09-.79.34-1.1.41-.29.77-.1 1.15.03.11-.09.21-.17.38-.3.04.19.14.41.09.45-.29.25-.37.61-.55.92-.06.11-.2.23-.31.23-.35 0-.74.14-1.09-.25ZM3.04 60.49c.19.33.39.65.56.99.12.25.12.53 0 .79-.1.26-.23.48-.55.53-.12.02-.22.14-.32.21-.49-.29-.5-.77-.51-1.21 0-.17.14-.39.29-.5.29-.22.44-.51.56-.83l-.03.02Zm13.13-25.76L16.03 36c-.23.23-.51.54-1.04.31-.03-.27-.04-.56-.11-.83-.05-.18-.19-.34-.29-.51.6-.7 1.05-.77 1.59-.24Zm9.83 72.5c-.16-.39-.48-.73-.33-1.25.42-.22.86-.45 1.29-.67.4.13.43.47.47.78.01.09-.05.26-.13.29-.32.14-.46.42-.55.73-.28.04-.52.07-.77.1v.02ZM36.55 90.8c-.49.59-1.02.24-1.47.18-.04-.34.02-.69-.12-.93-.21-.35-.05-.54.17-.79-.06-.15-.13-.31-.21-.49.07-.04.13-.1.18-.09.54.08.79.69.48 1.28.51.07.61.57.97.84Zm-1.93 40.96c.18.1.36.22.56.32.49.26.55.35.5.91-.02.17-.07.34-.11.53-.63.04-1.23.23-1.62-.43.23-.45.44-.89.67-1.34Zm-7.44-86.77c-.22.07-.48.08-.6.34-.1.21-.25.1-.38.02v.02c.14-.19.11-.36.04-.57-.15-.44-.04-.83.24-1.21.25-.33.65-.08.87-.37.38.66.3 1.2-.18 1.78h.02ZM18.9 58.74c.29.04.58.08.91.12-.09.5-.16.99-.27 1.48-.03.14-.18.25-.3.39-.29-.15-.47-.52-.82-.3-.27-.27-.33-.56-.17-.84.06-.1.31-.1.52-.16-.13-.24.11-.45.16-.71h-.02ZM10.76 35.4c.18-.56.32-1 .47-1.48.83-.22 1.15-.06 1.35.74-.22.22-.63.26-.7.67-.01.08-.22.18-.33.18-.24 0-.47-.07-.79-.12Zm39.69 41.44c-.14.19-.26.45-.46.61-.32.26-.84.21-1.22-.07-.18-.13-.35-.27-.56-.44.3-.23.57-.47.89-.66.13-.08.36-.06.52-.02.32.08.69.13.83.58ZM28.7 71.67c.03-.25 0-.5.11-.65.09-.13.35-.17.54-.21.15-.03.32-.01.47-.02.37-.01.72.21.8.5.06.23-.12.66-.32.78-.25.16-.73.16-.86-.12-.17-.35-.42-.25-.74-.29Zm-6.58 64.73c.12-.21.2-.36.29-.51-.16-.11-.32-.19-.45-.31-.08-.07-.17-.23-.14-.29.16-.33-.01-.61-.09-.91-.01-.05.04-.12.07-.19.23.09.46.16.68.26.24.11.26.25.08.67h.39c.1.18.2.37.31.6-.27.67-.44.78-1.14.68Zm-6.2-18.91c.03-.16.03-.28.09-.36.04-.07.15-.1.22-.15.19-.14.09-.55.45-.52.22.02.44.09.72.15.11-.13.29-.26.34-.43.11-.34.34-.39.65-.37.32.52-.45.75-.31 1.2-.31.2-.53-.09-.78-.11-.45.73-.5.75-1.38.6Zm-7.4-19.08c-.27.04-.54.09-.8.11-.35.02-.55-.14-.65-.47-.09-.31.01-.57.3-.75.21-.13.41-.28.69-.21.45.11.68.44.58.89-.03.13-.07.26-.12.43ZM1.78 40.94c0 .32 0 .68-.01 1.01-.68.27-1.12.21-1.36-.14-.17-.24-.09-.79.14-1.02.24-.24.65-.2 1.24.15Zm16.79 1.5c.66-.25.93-.12 1.09.45.07.24.18.46.28.72-.06.33-.34.44-.65.45-.34.01-.61-.18-.79-.46-.06-.1-.08-.33-.02-.37.33-.24.1-.54.08-.8ZM4.69 50.83c-.12-.06-.19-.09-.3-.15-.22.46-.58.65-1.1.47-.26.37-.54.65-1.06.45.03-.24.06-.48.09-.79.31-.04.64-.09 1.04-.15.26-.35.61-.65 1.17-.39.24.11.29.26.16.56Zm10.2 54.76c.05.22.07.38.13.52.16.39-.03.66-.28.91-.34.34-.8.25-.98-.2-.17-.42-.08-.83.19-1.16.24-.28.58-.17.93-.08Zm-4.52-16.84c.44.2.69.4.58.87-.05.2.06.43.11.72-.23.09-.47.2-.67.28-.29-.19-.53-.34-.82-.52.06-.55.38-.96.8-1.35Zm10.1-6.62.26-1.19c.25-.13.42.05.62.14.23.1.35.25.37.51.02.17.15.32.22.49.15.35.04.49-.35.49-.46 0-.82-.2-1.12-.44ZM3.32 29.67c.13-.39 0-.95.64-1.03.38-.05.77.25.88.61.06.2-.25.79-.48.91-.28.14-.65-.03-1.04-.49Zm16.97 18.14c.23-.1.46-.21.69-.28.13-.04.28-.02.45-.03-.04.58-.08 1.07-.12 1.63-.29-.13-.6-.27-.92.04-.19-.26-.36-.49-.53-.72.17-.25.31-.46.46-.66l-.03.02Zm9.26 80.09c-.14.07-.23.12-.33.16-.47.2-.68.18-.84-.06-.34-.51-.33-.77.02-1.15.16-.17.34-.33.58-.56-.03.2-.04.3-.06.45.18 0 .35 0 .54-.01.03.37.06.74.1 1.17ZM11.61 93.38c.63-.86.77-.91 1.51-.61.25.88.09 1.11-.97 1.35-.16-.22-.35-.47-.54-.73ZM38.98 76.6c.09-.22.17-.43.27-.64.13-.29.42-.43.72-.37s.5.31.53.63c.07.55-.23.93-.84.9-.31-.02-.49-.28-.69-.52Zm-17.64 33.15c-.76.01-.91-.14-1.11-1.03.34-.22.67-.43.99-.64.25.15.5.29.77.45-.08.49-.81.59-.66 1.22ZM7.2 112.49q-.43.19-.96.01c-.16-.32-.32-.63-.48-.95.34-.59.46-.62 1.34-.29.03.41.07.83.1 1.23Zm43.72-27.43c-.46-.14-.86-.26-1.25-.37q.01-.45.36-.86c.37-.04.72-.08 1.08-.12.4.52.38.68-.18 1.35Zm-36.85 29.66c-.3.23-.52.39-.75.57-.23-.17-.23-.43-.25-.66-.03-.38-.03-.77.01-1.16.02-.15.15-.37.28-.41.21-.07.38.08.45.31.09.26.23.5.28.76.04.21-.02.43-.04.59ZM3.96 128.91c-.5.52-.56.52-1.35.01.12-.44.23-.88.35-1.32.35-.09.59.06.81.21.06.36.12.69.19 1.1Zm37-49.76c-.07.13-.1.21-.14.24-.17.08-.19.19-.21.37-.04.34-.33.55-.66.55-.26 0-.58-.24-.65-.51a.62.62 0 0 1 .02-.33c.12-.34.9-.73 1.25-.61.15.05.26.2.38.3Zm-18.21 50c-.31-.25-.53-.43-.81-.66-.03-.19-.15-.44.08-.72.21.05.42.09.64.14.08.02.18.11.24.08.47-.2.62.19.91.47-.38.25-.72.47-1.06.69ZM.79 99.14c.34.01.69.03 1.03.04.35.65.35.78.07 1.05-.27.26-.7.26-1.07 0-.28-.19-.29-.46-.04-1.09ZM8.56 76.1c.16.32.06.54-.07.76-.21.36-.47.5-.76.37-.45-.19-.65-.56-.48-.97.07-.16.19-.3.3-.46.37.11.72.21 1.01.29Zm-5.53-1.92c.22 1.05.04 1.22-1.37 1.39.04-.19.09-.38.12-.57.12-.63.48-.88 1.25-.82Zm20.6 16.56c.15.15.34.31.49.5.22.28.17.62-.08.84-.29.25-.6.25-.92 0-.3-.24-.35-.5-.15-.82q.16-.26.67-.51ZM35.99 58.1c.14-.04.22-.06.37-.1l-.19.89c-.25.06-.51.13-.8.19-.09-.09-.2-.17-.28-.28-.34-.47-.12-1.06.46-1.2.37-.09.36.23.45.49Zm-7.85 9.07c.25.04.42.06.58.1.13.03.24.12.37.16.67.17.82.42.63 1.07-.02.08-.07.16-.12.26-.32.02-.58.02-.71-.37-.07-.2-.27-.35-.43-.51-.2-.2-.21-.19-.32-.7Zm-5.19 59.64c-.36.21-.69.35-1.05.12-.04-.51.02-.62.43-.59.22.01.43.09.71.15.07-.05.2-.14.34-.2.27-.11.48-.02.62.24.13.24.08.52-.14.66-.21.14-.42.18-.61-.04-.09-.1-.18-.2-.31-.34Z" class="cls-5"/><path d="M3.07 60.48c-.18.03-.36.04-.54.09-.21.06-.41.06-.55-.13-.12-.17-.07-.62.09-.77.14-.12.3-.22.46-.28.49-.17.7-.03.96.66-.15.15-.3.3-.46.45l.03-.02Zm8.9-30.31c0-.72.09-.92.45-.99.28-.06.72.13.82.35.12.25.03.72-.18.87-.08.06-.2.08-.31.09-.28.01-.42-.05-.78-.32Zm2.22 82.57c.13-.06.26-.09.36-.17.67-.5.89-.44 1.18.31.02.04.02.09.03.13-.28.66-.95.26-1.36.54-.33-.24-.28-.52-.21-.81ZM.3 51.38c-.46.02-.8.04-1.18.06-.22-.49-.36-.99-.08-1.59.15.13.25.22.35.3.1.09.2.26.3.26.64.03.47.53.62.97Zm15.54 53.39c.21.03.38.05.56.08.17.03.34.06.55.09-.08.45-.09.86-.64.95-.16.03-.3.18-.46.28-.5-.42-.5-.59-.01-1.39Zm-11.81-3.46c.28.28.56.56.85.84-.12.24-.22.47-.36.67-.06.09-.29.18-.32.15-.24-.24-.56-.42-.65-.78-.15-.6-.14-.6.47-.88Zm29.69.61c.32.12.57.22.81.32.18.7.15.74-.68 1.15-.18-.15-.39-.31-.58-.47-.04-.44.15-.73.46-1ZM21.47 44.81c-.09-.12-.17-.27-.28-.36-.22-.18-.21-.38-.08-.67.42-.02.86-.04 1.38-.07-.04.19-.13.35-.09.46.1.24.13.44-.13.58-.26.15-.51.34-.8.06ZM8.95 85.53c-.26.09-.46.17-.68.25-.41-.22-.56-.58-.62-1 .02-.04.03-.09.05-.12.17-.22.34-.44.67-.32.3.11.47.34.51.66.02.16.04.31.06.54Zm16.54 42.93c.11.41.25.79-.15 1.07-.25.17-.7.1-.88-.09-.16-.17-.23-.57-.14-.76.15-.3.54-.38 1.18-.21Z" class="cls-5"/><path d="M21.47 44.81c-.03.18-.05.35-.08.6.39-.06.74-.09 1.02.21.05.06.25-.03.38-.03.11 0 .23.02.39.04-.16.39-.46.51-.73.65-.23.12-.39 0-.65-.44-.19.14-.39.27-.57.41-.42-.48-.41-.46-.03-.85.15-.15.2-.39.29-.59Zm10.58 3.59c-.26.26.01.91-.65.78-.21-.33-.15-.65-.09-.99.07-.42.53-.35.66-.65.35.05.5.28.61.53.04.1.02.26-.04.36-.09.16-.23.06-.35 0-.03-.02-.08-.02-.14-.02Zm-18.94-5.93c.51.65.46.88-.26 1.42-.11-.04-.24-.07-.36-.13s-.22-.14-.32-.21c.12-.83.21-.93.95-1.08Zm11.62 3.62c-.02.25-.31.39-.18.65.02.04-.07.2-.12.21-.34.05-.38.42-.61.58-.48-.72-.47-1.04.06-1.62l.85.19Zm-.77 52.95c.06-.29.08-.59.19-.86.07-.19.22-.36.47-.12.05.05.21-.03.34-.05.21.44-.08.86-.14 1.3-.02.12-.25.21-.44.36-.08-.22-.11-.37-.19-.5-.04-.07-.16-.1-.24-.15v.03Zm-3.59 37.26c-.18.26-.35.52-.56.82-.32.02-.68.04-1.04.06v-.94c.52.08 1.06-.24 1.6.06Zm2.81-5.76c-.08-.79 0-.86.97-.94q.2.43-.19 1.28c-.16.03-.33.07-.49.1-.17-.14.03-.48-.31-.46l.02.02ZM6.13 63.65c.14.16.24.28.34.4.18.22.11.43-.02.63-.16.25-.49.41-.69.31-.17-.08-.4-.21-.45-.37-.08-.26.02-.55.27-.72.15-.1.33-.15.55-.25Zm20.43 6.95c.36-.22.74-.34 1.16-.3.28.02.45.18.5.46.04.25-.06.38-.36.49-.58.19-.99-.02-1.28-.66l-.02.02Zm-9.3 45.33c-.47-.11-.8-.32-.88-.79-.17-.08-.46.07-.46-.26 0-.1.03-.24.1-.29.07-.05.25-.06.3-.01.13.13.22.3.43.11.02-.02.15.05.2.09.07.06.1.15.17.2.5.35.51.39.13.95Zm6.84-40.38c.34-.59.82-.36 1.27-.32.06.35.11.67.16.99-.68.18-.68.18-1.07-.33-.09-.12-.22-.22-.36-.34ZM3.46 45.51c-.24-.05-.44-.09-.64-.14-.39-.11-.53-.47-.3-.8.17-.24.65-.34.94-.19.27.15.36.43.23.77-.04.1-.12.19-.22.36Zm18.88 2.13c-.1-.19-.19-.35-.29-.53.11-.12.18-.32.45-.08.18.17.48.2.78.32.3.66-.37.76-.75 1.08l-.15-.3c-.14.04-.27.07-.57.15.23-.28.37-.44.53-.64Zm18.91 33.94c-.1.41-.37.62-.72.54-.34-.07-.5-.32-.43-.66.08-.38.44-.65.79-.58.31.07.45.33.36.69ZM8.62 111.79c.58.04.68.12.74.62.07.51-.01.63-.58.81-.52-.4-.44-.88-.16-1.43Zm21.95-11.75c.4.18.86.31.81.86-.02.19-.2.4-.36.54-.09.08-.29.05-.52.07.13-.52-.45-.95.07-1.48ZM21.94 61.3c.13.1.47.23.71.28.21.87.02 1.07-.88.89-.33-.42-.25-.79.17-1.17Zm-7.56 55.92c-.62-.22-.89-.57-.79-1.01.09-.4.2-.46.72-.39-.09.47.64.88.07 1.4ZM7.46 57.36q.39.66.17 1.22c-.59.13-.82.02-.92-.44-.09-.42.07-.59.75-.78Zm7.84-19.77c.21.28.37.51.55.75-.45.64-.95.3-1.5.05.01-.63.55-.64.94-.8Zm19.21 82.54c.36.84.27.97-.83 1.32-.1-1.06-.05-1.15.83-1.32Zm-7.98-62.3c-.19.24-.4.39-.67.27-.33-.15-.61-.39-.72-.76-.02-.08.07-.26.13-.27.19-.04.41-.07.58 0 .31.13.58.35.68.76ZM17.8 84.89c.08-.08.17-.15.23-.24.11-.18.21-.31.47-.32.21 0 .41-.13.61-.2.18.52.17.59-.29 1.21-.27-.31-.8-.03-1.02-.47v.02Zm7.12 51.97c.02-.45-.49-.97.26-1.31.27.29.55.59.93 1.01-.52-.07-.66.52-1.19.3Zm-9.61-58.5c-.24.22-.49.44-.75.69-.18-.06-.37-.13-.58-.2l.16-.74c.73-.16.83-.14 1.18.25Zm17.51 51.91c.23-.2.43-.42.67-.58.15-.1.37-.12.49.06.13.19.23.4.08.64-.23.38-.62.44-.96.14-.09-.07-.17-.15-.29-.26Zm-14.27-7.26c-.42-.39-.86-.71-.61-1.37l.79.17c.08.38.23.79-.18 1.2Zm-6.48-38.46c.19-.44.29-.47 1.07-.27.04.22.08.45.13.74-.1.08-.24.19-.4.32-.26-.26-.51-.5-.8-.79ZM47.1 53.43c-.44-.27-1.01-.42-.76-1.17.26 0 .54 0 .84-.01.13.39.33.79-.08 1.19Zm-15.75 76.66c.12-.1.23-.19.33-.27.16-.14.34-.23.56-.14.28.11.31.39.34.62.01.11-.14.27-.25.35-.18.13-.4.14-.57-.02-.16-.15-.27-.35-.42-.53Zm4.23 1.19c-.59.51-.62.5-1.33-.21.79-.67.99-.64 1.33.21Zm-5.67-38.65c-.29 0-.55 0-.67-.28s-.08-.59.05-.85c.04-.09.23-.16.33-.15.21.02.37.15.43.38.08.3.06.58-.15.9ZM14.49 82.51c.06.46-.18.69-.57.85-.14-.13-.29-.24-.41-.37-.21-.22-.2-.44 0-.67.16-.2.32-.21.6-.05l.39.24Zm-15.54 22.06q.25-.46.99-.72c.15.17.31.34.49.54-.41.62-.93.39-1.48.18Zm17.56 6.4c.17-.25.04-.66.44-.83.29.16.59.33.9.5-.46.66-.78.73-1.34.32Zm-2.36 1.47c-.43-.41-.45-.84-.25-1.31.56 0 .57 0 .67.35.14.48.06.66-.42.97Zm2.35-1.48c0 .4-.03.78-.38 1.02-.25-.02-.48-.03-.73-.04-.21-.74.07-1.04.86-.9.08.01.17-.04.25-.06Zm27.7-52.92c.17-.09.24-.14.32-.17.08-.03.17-.04.24-.05.33-.76.37-.78.98-.66.12.32 0 .63-.26.76-.35.19-.73.49-1.29.11Zm-33.95 42.04c-.04.47-.44.65-.62.98-.03.06-.19.06-.33.1-.09-.35-.16-.66-.26-1.03.41-.02.79-.03 1.21-.05Zm22.97-10.95c.71-.6 1.04-.53 1.22.3-.17.03-.34.03-.49.08-.55.2-.58.19-.73-.38ZM5.64 105.94c-.35-.26-.4-.63-.33-1.02.03-.18.15-.33.37-.33.19 0 .25.14.32.3.25.61.19.81-.35 1.05Zm3.25-27.12c-.17.12-.31.23-.46.34-.42-.21-.54-.58-.6-1.01.18-.07.37-.15.56-.22q.37.33.5.89Zm28.18 29.25c-.36.23-.66.17-.95-.15 0-.11 0-.25.03-.37.1-.37.37-.51.72-.37.16.06.26.16.22.36-.03.16-.01.32-.02.53ZM8.52 58.22c-.03-.33.14-.51.35-.66.2-.14.52-.13.68.04.18.19.07.38-.04.55-.3.46-.47.48-.98.07ZM3.44 84.95c-.03.5-.35.7-.7.88-.1-.09-.19-.18-.29-.25-.09-.06-.19-.1-.29-.15.22-.62.31-.65 1.28-.48Zm9.53-46.19c-.83-.1-.92-.41-.4-1.18.59.1.66.21.47.74-.05.14-.05.3-.08.44Zm-4.5 87.92c-.13-.28-.21-.47-.3-.66.7-.21.72-.21 1.44.33-.29.47-.75.23-1.13.33Zm1.69-1.67c-.06-.4-.11-.79-.17-1.18q.44-.11.57.29c.03.08.03.2.09.24.31.23.21.51.11.84-.2-.07-.38-.12-.6-.2Zm-3 11.98c.3-.24.53-.41.75-.59.62.49.02.85 0 1.25-.56.05-.55-.37-.74-.67ZM.42 122.7c.03.22.04.43-.25.53-.37.13-.68.06-1.03-.26.33-.46.58-.52 1.28-.27Zm4.24-4.28c.06-.27.28-.41.55-.34.29.07.49.4.41.68-.05.19-.35.33-.62.28-.28-.04-.41-.28-.34-.62Zm8.56-29.57c-.07.29-.33.48-.59.43-.26-.05-.41-.34-.33-.64.07-.27.26-.4.48-.36.32.07.5.3.44.56Zm-9.43-49.7c.05.29.08.53.13.83-.16.1-.36.23-.55.36-.33-.36-.34-.71-.17-1.04.12-.23.36-.23.59-.14Zm20.58 64.18c.23-.05.44-.1.63-.15.17.23.32.42.48.63-.1.23-.31.38-.57.33-.34-.07-.53-.32-.53-.81Zm10.91-46.2c-.41-.34-.67-.71-.47-1.28l.67.15c-.02.39.2.8-.2 1.13Zm-22.81 55.79c-.6-.19-.46-.44-.29-.82.09-.19.16-.5.47-.38.24.09.26.35.21.59-.05.25-.13.48-.38.6Zm23.3-47.78c-.48-.38-.5-.61-.11-.99.09-.08.27-.18.33-.14.12.06.23.22.26.35.06.28-.09.49-.49.78ZM6.64 82.92c-.76.25-.76.25-1.28 0 .04-.14.09-.28.13-.41.33-.18.65-.18.94-.02.1.06.13.25.22.42Zm18.45 22.51c.16.37.14.67-.15.89-.11.08-.3.11-.43.08-.07-.02-.13-.22-.14-.34-.05-.54.13-.7.72-.63Zm4.04 30.59c-.54-.05-.9-.48-1.39-.66-.12-.04-.17-.29-.28-.49.37.03.63.05.84.33.13.18.38.29.6.4.2.1.25.24.2.44l.02-.02Zm8.35-71.85c.02-.17 0-.33.07-.44.16-.29.7-.66 1.13-.79-.06.22-.1.4-.17.57-.06.13-.81.6-1.03.67Zm-23.64 61.72c-.08.3-.29.5-.49.46-.24-.05-.46-.37-.41-.61.05-.27.33-.4.64-.31.23.07.32.24.26.46Zm22.63-38.52c.12.36-.06.66-.21.96-.47-.14-.64-.31-.56-.59.04-.14.14-.32.26-.37.15-.06.34 0 .52.02l-.02-.02Zm4.57-40.61c-.29-.29-.35-.61-.16-.97.51-.03.62.04.68.41.05.32-.02.4-.52.57ZM29.01 99.85c-.1-.25-.22-.53.04-.74.24-.19.53-.23.81-.04.07.58.03.64-.48.71l-.4.06H29ZM5.38 51.5c-.2-.03-.39-.33-.36-.59.02-.23.3-.38.59-.33.21.04.37.29.33.52-.04.23-.33.44-.56.41Zm6.99-11.49c-.17-.38-.1-.66.16-.85.22-.17.47-.07.71.12-.11.23-.17.5-.34.67-.1.1-.36.05-.53.06ZM51.8 89c0-.44.1-.72.54-.69.1.12.2.23.29.35-.35.18.24.54-.2.75-.18-.12-.4-.26-.64-.41ZM19.2 74.52l.15-.69c.18-.03.39-.07.6-.1.15.85-.04 1.03-.75.8ZM4.84 115.93c-.64.07-.64.07-.7-.76.24-.12.48-.16.68.07.2.22.16.46.02.69Zm21.52-61.08c.48-.78.76-.82 1.11-.19-.22.14-.44.33-.69.41-.1.04-.28-.14-.42-.22ZM9.41 129.26c-.25.13-.44.33-.69.08-.15-.16-.27-.36-.12-.54.11-.13.34-.26.5-.24.35.06.32.38.31.7Zm38.67-48.57c.03.27-.04.51-.3.62-.28.12-.51-.02-.72-.21q.2-.52 1.02-.41Zm-26.56 3.05c-.19.03-.38.05-.59.08-.11-.26-.2-.48-.29-.7.61-.35.86-.19.89.62Zm1.76-35.18c.07.16.1.24.13.32.02.06.03.13.04.16-.21.23-.4.45-.63.71-.07-.09-.19-.18-.2-.28-.03-.2 0-.4 0-.66.18-.07.39-.15.65-.26Zm-3.87 12.56c.14-.18.23-.3.36-.46.11.13.2.22.3.33.13-.03.28-.08.44-.08.18 0 .31.11.31.29 0 .11-.06.3-.13.32-.13.04-.32.03-.43-.04-.37-.27-.4-.3-.84-.36Zm-8.48 66.77c-.19.17-.34.33-.52.45-.05.03-.22-.06-.27-.13-.15-.22-.08-.43.07-.63.12-.16.27-.31.45-.18.12.09.17.29.27.5Zm18.19-19.45c-.35.46-.56.5-.85.16-.11-.13-.25-.3-.07-.47.16-.16.36-.18.55-.03.12.09.22.21.38.35Zm-8.8-60.64c-.13-.09-.27-.12-.31.07-.07.29-.33.31-.51.5-.21-.28-.19-.51-.1-.79.31 0 .58-.11.76-.4h-.02c.16 0 .26.08.24.25-.02.13-.06.26-.1.39l.03-.02Zm-.68 85.72c-.44.19-.64-.08-.84-.31-.16-.18-.14-.24.05-.61.42.16.72.41.8.93Zm4.15-.94c-.2-.19-.41-.37-.33-.69.63-.1.67-.07 1.02.57-.22.13-.45.16-.7.1v.02Zm14.8-80.87c.15-.09.28-.17.43-.27.29.27.56.51.62.98-.5-.04-.89-.12-1.05-.71ZM9.61 55.73c-.12-.08-.32-.15-.35-.26-.03-.1.11-.27.21-.37.17-.16.3-.41.62-.32.16.04.34.09.3.29-.02.1-.15.23-.26.26-.14.04-.3 0-.49 0-.02.16-.04.29-.05.41l.03-.02ZM6.34 125.5c-.6-.06-.75-.25-.53-.69.05-.1.23-.22.29-.19.13.05.29.18.31.31.03.18-.05.39-.08.58Zm8.96-33.56c.25-.08.41.03.45.26.02.13-.01.33-.1.42-.24.24-.49.09-.72-.03-.07-.37.23-.47.4-.67l-.03.02Zm13.54 18.88c-.05.36-.37.53-.7.45-.18-.04-.27-.22-.2-.42.08-.24.38-.39.66-.28.12.04.19.19.24.25Zm3.25-5.87.63-.72c.09.09.18.18.27.26-.08.19-.15.35-.22.51-.19.37-.33.37-.67-.05ZM11.06 42.47c-.03-.06-.16-.19-.15-.3.02-.25.38-.47.61-.41.17.05.3.29.26.49-.04.21-.28.3-.71.21Zm14.48 83.12c.32-.16.6-.44 1.03-.14-.06.15-.13.3-.19.45-.2.12-.55-.01-.84-.31Zm7.19-.03c0 .19-.02.36-.03.55-.27.13-.5.32-.84.18.15-.42.34-.74.87-.73Zm4.44-42.28c.2.08.4.16.64.26-.1.18-.2.36-.31.54-.62-.19-.67-.29-.33-.8ZM6.29 53c-.28-.22-.33-.49-.22-.79.05-.15.16-.33.34-.24.11.05.23.22.24.35.03.28-.07.53-.36.68Zm19.02-7.36c.08-.16.14-.33.25-.47.07-.09.2-.13.35-.23.02.15.04.23.05.31v.22c.1-.04.18-.07.27-.1v-.02c-.08.21-.15.41-.24.66-.24-.14-.46-.27-.68-.4l.02.03Zm12.82 21.94c.24.22.42.39.59.55-.37.45-.52.44-.95-.12.1-.12.21-.25.35-.43Zm-10.9 15.9c-.14-.29-.15-.52.08-.66.32-.2.45.18.75.22-.19.42-.48.45-.82.45Zm-8.34-15.79c-.03-.48.02-.63.26-.66.35-.04.45.21.54.49-.25.25-.5.3-.8.17Zm-7-21.79c-.14.1-.24.21-.36.25-.13.04-.35.08-.42 0-.08-.08-.08-.29-.05-.43.07-.27.29-.36.51-.2.12.08.19.23.31.37ZM39.4 56.44c.01-.16.27-.26.06-.48-.09-.1-.06-.32-.08-.47.2.09.38.17.55.25.21.1.26.3.11.48-.17.2-.36.35-.64.2v.02Zm-2.36.48c.05.47-.05.64-.41.69-.09.01-.25-.04-.28-.1-.05-.1-.04-.25 0-.37.03-.09.43-.21.7-.22Zm-16.26-7.17c.53.03.58.37.63.73-.33.22-.5-.08-.76-.16l.12-.57ZM4.24 99.25c.14 0 .28-.04.38.01.2.1.3.35.37.81-.13 0-.28.02-.37-.03-.26-.16-.42-.41-.38-.79Zm21.24 25.72c-.14-.23-.03-.36.17-.49.18-.11.36-.19.56-.09.17.09.18.31.02.45-.15.13-.27.15-.76.13Zm14.85-72.3q-.48-.45-.26-.96c.22-.03.42-.01.48.25.06.27.06.54-.23.71Zm-5.45 7.48c.37-.46.43-.47 1.04-.18-.33.45-.35.45-1.04.18ZM20.17 47.18c-.17-.07-.33-.13-.5-.2.17-.58.32-.61.93-.2-.15.14-.3.27-.45.4h.02Zm18.14 48.83c.14.25.24.42.34.6-.11.11-.19.24-.3.3-.1.05-.27.08-.36.03-.16-.1-.25-.29-.13-.47.1-.16.26-.28.44-.46Zm-9.47 26.35c-.22.22-.31.63-.82.41.07-.22.14-.43.2-.63.25-.08.46-.07.62.22Zm-5.48 14.78c-.19-.05-.34-.15-.3-.38.03-.17.34-.28.58-.2.16.06.28.16.22.36-.06.2-.24.28-.5.22Zm3-1.35c-.07-.08-.19-.17-.2-.25 0-.13.04-.29.13-.37.23-.21.46-.13.64.09-.03.38-.34.43-.6.55l.03-.02ZM6.24 43.81c.16-.17.28-.29.45-.47.14.11.33.18.38.31.03.09-.09.31-.2.38-.22.15-.41.02-.63-.22ZM13 23.5c-.14-.03-.26-.04-.36-.08-.07-.04-.12-.12-.2-.21.1-.14.19-.27.31-.44.18.05.37.11.63.18-.15.23-.26.39-.37.55Zm23.51 105.04c.05.31-.12.46-.3.61-.18-.07-.36-.14-.55-.22q.24-.37.85-.4ZM3.14 41.58c-.34.02-.42-.17-.46-.34-.03-.11-.01-.3.06-.37.07-.07.27-.09.37-.04.1.05.19.21.19.31 0 .14-.1.29-.16.43Zm9.82 53.71c-.04-.12-.09-.27-.15-.48.2-.09.38-.23.55-.22.29.02.15.32.22.49-.17.15-.32.34-.62.21Zm4.07 41.46c.3.36.32.65.05 1.03-.11-.13-.19-.22-.27-.31-.09-.1-.17-.21-.28-.34.15-.11.3-.23.49-.38Zm24.08-78.53c.15.18.26.31.37.45-.16.38-.44.45-.86.39.18-.3.31-.53.49-.83Zm-1.44 7.72c-.21-.17-.34-.28-.51-.41.08-.14.13-.31.23-.38.07-.05.27-.01.35.06.24.22.06.44-.07.74Zm-9.91 65.48c-.04-.07-.14-.18-.14-.28 0-.25.25-.46.44-.39.1.04.21.18.22.29.02.21-.25.41-.52.38Zm-8.47-54.54q-.32-.3-.21-.82c.21-.14.38-.06.57.17-.12.21-.25.44-.39.66l.03-.02Zm-.74 43.52q.43.45.32.79c-.59-.12-.69-.33-.32-.79Zm15.66-43.49c.34-.26.54-.29.67-.09.09.15.07.3-.09.41-.21.15-.31.09-.58-.32Zm-9.13 38.65q-.29.38-.71.22c-.04-.21-.04-.42.19-.51.31-.12.33.2.51.29Zm-4.19 10.19c.06-.21.18-.32.4-.28.22.04.3.18.27.39-.03.21-.17.31-.38.27-.21-.05-.32-.16-.29-.38Zm15.53-15.03c-.13.18-.21.31-.33.47-.14-.12-.25-.22-.39-.34.1-.15.18-.3.3-.48.15.13.26.22.42.35ZM1.33 54.85q-.43.09-.7-.37.46-.28.7.37Zm11.29-18.81c.1.27.19.4.18.52 0 .11-.07.3-.16.33-.12.05-.3.01-.42-.04-.05-.02-.07-.22-.04-.3.06-.13.19-.23.43-.51Zm4.15 45.94c-.17.54-.24.57-.69.29q.18-.47.69-.29ZM3.45 48.86c.15.14.26.24.36.33-.16.2-.29.38-.43.54-.04.05-.14.05-.22.07-.02-.08-.07-.17-.04-.24.08-.21.18-.4.33-.7Zm23.73 81.04c.05.13.09.18.1.25.02.09.03.18.05.3l-.44.06c.01.05.03.1.04.15-.06-.08-.16-.15-.19-.25-.1-.31.14-.38.43-.52ZM44.7 54.75q-.47-.04-.56-.47.5-.17.56.47Zm-28.23 79.02c.1-.34.32-.43.57-.49.05-.01.15.03.17.07.03.07.05.2.01.24-.18.21-.4.35-.75.17Zm24.1-49.51c-.14-.55-.11-.6.42-.68q.05.51-.42.68ZM11.46 40.95c-.06-.28-.25-.54.11-.67.1-.04.31.08.39.18.12.15-.01.29-.5.49ZM41.6 96.12q-.56.29-.79-.2c.16-.06.32-.11.54-.19.09.13.17.26.25.39ZM15.29 41.44q-.45.26-.7-.14.44-.34.7.14Zm11.83 68.36c-.25.12-.45.31-.63.04-.06-.09-.02-.31.06-.41.12-.15.28-.05.57.37Zm-6.99-50.84c.28-.27.5-.21.68-.07.07.05.12.23.08.28-.07.09-.24.18-.31.15-.15-.07-.27-.21-.45-.36Zm17.71 29.23q-.57.01-.6-.45c.5-.08.5-.08.6.45Zm-10.37 48.42c.06-.4.07-.71.32-1.07.06.36.11.62.17.95-.12.03-.27.07-.48.12Z" class="cls-5"/><path d="M29.1 136.03c.12-.06.23-.12.35-.18q.21.47-.49.76c.06-.23.11-.41.16-.59l-.02.02Zm6.98-49.8c.15.17.34.33.1.56-.12.11-.4.04-.48-.1-.08-.13.02-.26.38-.46Zm-3.38 37.48c.3.03.49.04.66.08.05.01.11.15.1.22 0 .07-.09.19-.15.19-.26.02-.49-.03-.62-.49Zm10.39-38.55c-.01-.18-.02-.27-.02-.35-.01-.19.08-.31.26-.32.09 0 .25.08.26.14.02.16.1.37-.17.43-.08.02-.16.05-.32.1ZM3.85 100.73c.05-.15.07-.28.13-.4.07-.14.2-.17.34-.08.17.11.21.35.09.46-.14.13-.31.18-.56.01Zm27.34-28.9c-.21-.18-.37-.34-.2-.58.12-.17.31-.13.49 0 0 .21-.01.42-.29.57ZM5.06 113.1c-.09.16-.14.23-.18.31-.09.18-.25.2-.4.11-.07-.04-.11-.19-.1-.29.03-.17.14-.29.34-.23.08.02.16.05.33.11Zm41.33-31.56c-.22-.04-.44-.08-.4-.36.02-.16.31-.29.44-.2.25.19.14.38-.03.56ZM5.36 116.91c-.33-.04-.52-.14-.42-.44.03-.08.23-.17.32-.14.35.11.18.33.09.58Zm7.19-24.78q-.46.34-.72-.17.37-.18.72.17Zm5.62-18.63c-.23.02-.34.06-.44.03a.458.458 0 0 1-.24-.19c-.03-.06.01-.22.06-.24.12-.04.28-.08.37-.03.1.05.13.21.25.42Zm5.69-25.08c-.14-.15-.23-.25-.33-.36.08-.12.16-.23.25-.35.14.05.28.1.47.17-.12.17-.23.33-.38.55Zm-.31 32.56c-.35-.51-.33-.57.34-.77-.07.28-.04.55-.34.77Zm3.33 52.01c.18-.07.28-.14.37-.13.19.02.37.27.3.44-.04.09-.26.2-.28.18-.13-.12-.23-.28-.39-.49ZM21.93 84.2c.14-.08.27-.17.45-.27l.2.47c-.06.06-.12.14-.16.14-.16-.04-.31-.1-.47-.16 0-.06-.01-.12-.02-.18Zm3.27-29.05c.02-.28.15-.45.41-.49.21.11.24.29.12.45-.15.2-.35.15-.53.04Zm11.34 19.78c-.19-.11-.47-.15-.35-.46.03-.09.22-.18.32-.16.2.02.21.21.04.63ZM4.78 43.39c.07-.11.1-.17.14-.22.11-.11.23-.27.39-.1.06.06.07.21.03.3-.08.19-.23.27-.43.14-.06-.04-.1-.09-.13-.12Zm8.1 93.79s-.04.03-.06.03c-.24.02-.46-.02-.44-.33 0-.06.09-.16.16-.18.21-.04.31.11.34.48Zm.61-99.31c-.04-.07-.14-.15-.14-.24 0-.17.28-.4.42-.33.08.04.17.22.15.31-.04.17-.17.31-.43.27Zm16.6 55.99c-.23-.15-.24-.34-.14-.48.1-.14.28-.23.52-.03-.13.17-.25.34-.38.52ZM16.9 59.11v-.03c-.07.05-.14.15-.19.14-.28-.04-.42-.22-.48-.53.42-.11.51.22.67.42Zm15.2 72.2c.12-.35.3-.52.62-.52q-.06.47-.62.52Zm8.97-53.5c-.12.01-.26.06-.36.03-.1-.04-.15-.17-.23-.26.11-.04.22-.12.33-.11.11.02.2.12.3.19-.01.05-.03.1-.04.15Zm-14.08 30.01c.28-.07.49-.12.56.14.02.08-.1.29-.18.31-.28.05-.3-.19-.38-.45ZM1.18 73.11c.06.53-.05.59-.65.38.23-.14.43-.26.65-.38Zm35.7 2.81c.16-.2.35-.24.58-.13-.21.49-.22.49-.58.13ZM15.34 44.85c.12.28.03.44-.22.47-.08 0-.24-.11-.24-.17 0-.35.25-.29.46-.31Zm12.14 83.63c-.05-.32-.07-.49-.11-.72.15.02.32 0 .36.05.19.26-.05.38-.26.67Zm.75-2.83c-.11.31-.25.45-.57.37-.02-.14-.04-.28-.06-.47.22.03.41.06.62.09ZM17.74 36.63c.18 0 .36-.02.55-.03.06.3-.05.4-.27.41-.24.02-.33-.09-.28-.38Zm6.25 14.7c-.06.01-.08.02-.1.02-.22-.05-.39-.15-.29-.41.03-.07.19-.14.25-.12.3.11.26.31.13.51ZM5.75 35.89c-.27-.13-.38-.29-.18-.5.05-.05.23-.05.29 0 .25.2.08.34-.12.49Zm6.07 91.52c-.36.08-.52-.09-.63-.33q.34-.21.63.33Zm5.42-66.16c-.03-.15-.09-.25-.06-.3.08-.12.19-.21.3-.3.02-.01.18.11.17.15-.02.11-.09.22-.15.32-.03.05-.11.06-.25.13ZM27.16 45c.1.04.2.08.32.12-.03.32-.14.52-.59.42.11-.21.21-.38.3-.55h-.02Zm-17.6 78.46c-.33.2-.47-.03-.68-.13.31-.32.47-.1.68.13Zm13.6 7.06c-.08.2-.21.36-.44.35-.1 0-.2-.1-.32-.17.25-.28.5-.27.77-.16l-.02-.02Zm18.57-41.05c-.08 0-.13.01-.17 0-.14-.06-.32-.1-.27-.31.01-.05.13-.12.19-.12.25.01.37.13.24.43ZM6.46 61.71c.35-.03.4.17.38.38 0 .06-.19.15-.26.13-.3-.08-.17-.29-.12-.51Zm4.91 28.77c-.06-.16-.15-.27-.14-.38.02-.16.17-.23.3-.15.09.05.14.2.2.3-.1.06-.2.13-.36.22Zm9.84 24.74-.59-.13c.35-.33.39-.33.59.13Zm-9.83-21.56c.05.15.14.28.11.33-.05.09-.19.14-.29.21-.06-.1-.19-.23-.16-.3.03-.09.19-.14.34-.24Zm6.81-22.91c0-.23 0-.42.26-.39.07 0 .18.15.17.22-.02.25-.21.23-.43.17Zm13.5 55.86s.06.09.05.13c-.04.18-.1.36-.33.33-.05 0-.14-.13-.13-.18.05-.21.16-.36.41-.28Zm-11.68-18.92c-.06-.11-.12-.16-.12-.22 0-.1.03-.21.05-.37.17.07.3.13.5.22-.18.15-.3.25-.43.37ZM5.72 38.04c-.1-.14-.16-.22-.22-.3.1-.07.2-.17.31-.2.04-.01.19.16.17.2-.04.1-.15.17-.27.3Zm30.68 77.72-.11.53q-.3-.32.11-.53Zm-6.83 13.26c-.19.12-.27.2-.36.21-.17.03-.34-.05-.31-.24 0-.06.2-.12.32-.14.07 0 .16.07.36.17Zm-2.68-14.26c.08-.17.15-.32.21-.47.27.04.24.17.17.34-.07.2-.17.24-.38.12Zm13.24-56.11c-.05-.46.24-.43.52-.43-.16.14-.22.39-.52.43ZM14.21 86.82c-.24-.09-.45-.16-.35-.43.02-.06.15-.13.21-.11.27.08.23.28.14.54Zm-2.8 13.74c.12-.06.2-.1.29-.14.05.11.13.22.13.33 0 .06-.14.12-.22.18-.06-.11-.11-.21-.19-.36Zm4.23-58.83c.09-.2.2-.32.41-.18.04.03.06.14.04.18-.14.2-.29.13-.45 0ZM12.18 60.1c.07.21.1.39-.13.46-.05.02-.19-.07-.2-.12-.04-.21.05-.34.33-.34ZM9.96 79.72c-.09.32-.21.49-.58.47.11-.28.2-.49.58-.47Zm26.55-20.41c.24-.26.4-.27.64-.16-.14.34-.35.23-.64.16Zm-3 44.77c-.34 0-.34-.23-.35-.49.4-.02.29.3.35.49Zm-26.7 25.19c-.35-.1-.39-.23-.29-.4.03-.05.14-.05.22-.07.02.13.04.27.08.47Zm13.89-7.28q.44-.2.5.26c-.16-.08-.28-.15-.5-.26Zm-8.62-80.5c-.06-.15-.16-.28-.13-.33.06-.09.18-.14.28-.21.05.09.17.2.15.25-.05.1-.17.17-.3.29Zm23.68 9.42s-.05.03-.07.03c-.21.03-.36-.04-.39-.26 0-.04.08-.14.12-.14.24 0 .38.11.34.37ZM3.47 118.55c.2-.07.35-.13.54-.2 0 .11 0 .2-.02.23-.14.11-.3.16-.52-.03Zm6.9-31.07c-.25.06-.45.12-.62-.17.27-.14.46-.14.62.17ZM44.6 66.65c.11.29.17.45.23.63q-.42-.14-.23-.63Zm-5 16.85q.04-.45.42-.42c.08.37-.2.33-.42.42Zm-19.06 22.68c-.15 0-.26.03-.31 0a.49.49 0 0 1-.17-.25c-.01-.03.08-.15.1-.14.1.02.19.07.27.13.04.03.05.11.11.26ZM12.8 123.8c-.26-.09-.32-.23-.22-.43.02-.04.13-.07.17-.05.2.11.21.26.05.48Zm23.69-36.41.1-.44c.16.08.29.15.41.21-.03.08-.04.14-.07.15-.15.03-.3.04-.45.06l.02.02Zm1.43 1.54-.36-.39c.06-.03.1-.09.15-.09.31 0 .34.19.21.48Zm-23.07 40.33c.27-.17.37-.04.46.18-.08.03-.18.11-.22.09-.09-.06-.15-.17-.24-.27ZM.6 52.85c-.04.23-.16.31-.37.21-.04-.02-.09-.13-.07-.17.11-.23.27-.15.43-.04Zm34.79 73.99c-.16.05-.25.11-.34.1-.04 0-.08-.12-.12-.19.09-.05.17-.12.26-.13.04 0 .1.11.2.22ZM31.44 82.5c-.13.2-.28.24-.45.07-.03-.04-.01-.2.03-.23.2-.14.33-.04.41.16Zm-3.82 33.25c-.03-.14-.08-.24-.05-.28.05-.07.15-.11.24-.13.03 0 .12.16.1.19-.05.08-.15.12-.29.22Zm-1.29 20.06c.12.1.23.2.38.32-.12.11-.21.19-.38.35.01-.31.02-.5.03-.69l-.03.02Zm1.84-2.53c.1-.34.24-.47.51-.48q-.06.29-.51.48Zm-2.88-87.67c-.03.1-.06.21-.12.42-.15-.18-.24-.29-.42-.51l.56.12-.02-.03Zm-12.12 64.46c-.03.43-.15.51-.44.37.11-.09.22-.18.44-.37Zm1.4-2.64c.15.16.18.3.02.43-.04.03-.15.01-.18-.03-.13-.17-.04-.29.16-.4Zm19.21-16.2q.01-.39.37-.19s-.02.1-.05.11c-.1.03-.21.05-.32.08Zm6.89-29.52c.05-.21.04-.34.1-.4.05-.06.18-.05.27-.07 0 .08.01.18-.03.24-.06.08-.16.12-.34.24Zm-24.89 42.53c-.09.36-.22.38-.48.19.17-.07.29-.12.48-.19Zm23.63-13.28c-.14.04-.25.09-.28.07a.54.54 0 0 1-.14-.27c0-.02.17-.13.19-.11.08.06.13.16.23.31Zm1.93-30.04c-.14-.01-.28-.02-.42-.04 0-.03-.01-.07-.02-.1.08-.03.17-.08.25-.09.07 0 .15.06.22.09l-.03.14Zm-8.31-.11c.1-.15.15-.24.25-.4.09.17.14.28.25.47-.21-.03-.33-.05-.5-.07Zm6.29 24.33c.13-.08.26-.15.49-.28-.05.36-.22.39-.4.41-.03-.04-.06-.09-.09-.13Zm-11.7 44c-.03.23-.04.36-.07.61l-.28-.36c.09-.07.18-.13.35-.25Zm-11.57-21.4c.01-.11.03-.23.05-.34h.11c.01.12.01.24.02.35-.06 0-.12 0-.18-.01Zm7.93 5.08c-.13.15-.26.23-.4.07-.03-.04 0-.19.05-.22.2-.14.27.02.35.16ZM7.08 83.84c-.09-.12-.19-.18-.19-.25 0-.08.07-.17.11-.25.06.06.14.12.16.19.02.07-.04.16-.08.31Zm7.97 32.21c-.03-.34.02-.51.44-.37-.17.14-.29.24-.44.37Zm11.38-40.88c-.26.12-.37.17-.56.26.04-.17.04-.34.08-.35.1-.02.21.03.47.09Zm-2.65 57.38c.01.13.03.25.05.39-.06.02-.12.06-.18.05-.07-.01-.14-.07-.28-.15.18-.12.3-.19.42-.27v-.02ZM38.76 85.7c.05.12.12.21.1.26-.02.06-.12.09-.19.14-.04-.07-.12-.14-.12-.21 0-.05.1-.1.21-.18Zm-24.41 40.7c.13.13.17.27 0 .38-.04.03-.18-.02-.2-.06-.08-.19.02-.28.21-.31Zm4.04-55.37c.08.11.12.16.15.21-.06.04-.12.11-.18.11-.03 0-.11-.1-.1-.15 0-.05.08-.1.13-.17Zm20.47-11.02c-.1.03-.2.07-.3.1 0 0-.03-.07-.05-.11.1-.04.2-.07.31-.11l.04.12Zm-3.28 61.49c-.18-.03-.32-.1-.2-.31.02-.04.13-.09.17-.07.2.1.15.24.03.38Zm-27.1-21.28c-.07-.08-.15-.15-.22-.24l.07-.09c.09.06.17.13.25.2-.04.04-.07.08-.11.12Zm15.41-37.1.09-.27c.05.02.15.05.15.06-.02.09-.06.18-.09.27l-.15-.06ZM36.74 50.8c.05-.23.07-.36.11-.48 0 0 .1-.02.12 0 .11.15.1.28-.22.47ZM.51 123.85c-.1.03-.18.08-.2.07-.06-.07-.1-.16-.15-.24.07-.02.16-.07.21-.05.06.03.08.13.13.22Zm30.17-45.91c-.11 0-.21.01-.32.02 0-.06-.01-.17 0-.17.11-.02.22-.02.33-.03v.19Zm-13.52 30.7c-.13.07-.2.11-.27.15-.03-.07-.09-.14-.09-.22 0-.04.1-.12.13-.11.07.02.12.09.23.18Zm12.36-30.57c.08-.04.16-.1.19-.08.06.04.09.12.13.18-.06.02-.12.07-.17.05-.05-.01-.09-.08-.15-.15ZM3.72 94.18c-.09-.28-.15-.38-.12-.43.03-.06.15-.12.2-.09.06.03.11.14.11.21 0 .08-.08.15-.19.32Zm34.15-18.22c.1-.06.21-.13.34-.2q-.03.29-.34.2Zm-7.93-10.39c-.06-.14-.12-.22-.11-.28.02-.06.1-.11.16-.16.04.06.12.12.12.18s-.08.13-.17.26Zm13.71-11.88c.06.09.13.17.18.27l-.14.11c-.07-.09-.13-.18-.2-.27.05-.03.1-.07.16-.1Zm-.72 3.78c.1-.02.21-.04.31-.05 0 .04.01.07.02.11l-.31.06c0-.04-.01-.08-.02-.12Zm-12.94 54.19c-.1-.04-.21-.08-.31-.12.02-.04.04-.11.05-.11.1.01.2.04.3.06-.01.06-.03.11-.04.17Zm-18.4-55.12.31.07c-.02.06-.04.12-.06.17-.1-.05-.19-.09-.29-.14l.03-.1Zm7.52 70.13c-.19.26-.29.19-.44-.08.19.03.3.05.44.08Zm.02-32.94c.08-.04.14-.08.21-.1.02 0 .09.11.07.13-.04.06-.11.1-.16.15-.03-.05-.06-.1-.12-.19ZM13 121.66c-.09-.03-.18-.05-.27-.09 0 0 .02-.11.03-.11.09.01.18.03.27.05 0 .05-.02.1-.03.15Zm18.6 4.66c-.11.02-.18.05-.25.04-.03 0-.08-.14-.06-.15.06-.05.13-.08.21-.1.02 0 .05.1.11.21ZM20.27 75.8l.33-.06c0 .06.02.12.03.18h-.35c0-.04 0-.08-.01-.12Zm.62 57.03c-.05-.07-.09-.12-.13-.17.05-.03.1-.08.14-.07.05.02.09.08.13.13-.04.03-.08.07-.14.11Zm3.3-84.09c.07-.04.15-.11.17-.09.06.04.09.11.14.18-.06.03-.12.09-.17.08-.05-.01-.08-.09-.14-.16Zm8.58 85.81c-.09.05-.19.1-.29.14 0 0-.06-.09-.06-.1.08-.07.16-.13.24-.19.03.05.07.1.1.16ZM6.9 114.32c0-.17 0-.27.01-.36 0-.02.11-.02.17-.03 0 .08.03.17.01.25 0 .04-.08.07-.19.15Zm18.2 10.6c-.13.02-.23.05-.32.04-.03 0-.06-.1-.08-.15.1-.03.19-.07.29-.08.02 0 .06.09.11.19Zm-.47.58c.04.09.09.15.08.2 0 .04-.08.07-.13.1-.03-.05-.08-.1-.08-.16 0-.04.07-.08.12-.14Zm-2.77-75.69c-.03-.08-.08-.14-.06-.18.01-.05.08-.08.12-.12.03.05.09.1.08.14 0 .05-.07.09-.14.16Zm-3.54 19.65c-.07.06-.14.13-.22.18 0 0-.07-.08-.11-.12.08-.06.16-.12.23-.18.03.04.07.08.1.12Z" class="cls-5"/></g><circle cx="32.94" cy="61.4" r="13.29" class="cls-5"/><rect width="9.98" height="10.16" x="27.63" y="56.57" class="cls-4" rx="1.92" ry="1.92" transform="rotate(-135 32.624 61.649)"/><path d="M32.62 79.59c-9.83 0-17.83-8-17.83-17.83s8-17.83 17.83-17.83 17.83 8 17.83 17.83-8 17.83-17.83 17.83Zm0-29.28c-6.31 0-11.45 5.14-11.45 11.45s5.14 11.45 11.45 11.45 11.45-5.14 11.45-11.45-5.14-11.45-11.45-11.45Z" class="cls-6"/><rect width="51.36" height="11.9" x="6.95" y="24.27" class="cls-5" rx="2.41" ry="2.41" transform="rotate(-180 32.625 30.22)"/><path d="M58.3 26.99H6.94v-1.02c0-.94.76-1.7 1.7-1.7h47.97c.94 0 1.7.76 1.7 1.7v1.02Z" class="cls-6"/><path d="M36.21 85.81v41.4h-5.66v-41.4c0-1.34 1.08-2.41 2.41-2.41h.83c1.34 0 2.41 1.08 2.41 2.41Zm10.91 0v41.4h-5.66v-41.4c0-1.34 1.08-2.41 2.41-2.41h.83c1.34 0 2.41 1.08 2.41 2.41Zm-21.83 0v41.4h-5.65v-41.4c0-1.34 1.08-2.41 2.41-2.41h.83c1.33 0 2.4 1.08 2.4 2.41Z" class="cls-4"/><rect width="58.11" height="11.9" x="3.57" y="124.94" class="cls-5" rx="2.41" ry="2.41" transform="rotate(-180 32.625 130.89)"/><path d="M61.68 127.66H3.57v-1.02c0-.94.76-1.7 1.7-1.7h54.71c.94 0 1.7.76 1.7 1.7v1.02Z" class="cls-4"/></g></svg>